<?xml version="1.0" encoding="UTF-8"?>
<svg id="Layer_1" xmlns="http://www.w3.org/2000/svg" version="1.1" viewBox="0 0 136.72 139.77">
  <!-- Generator: Adobe Illustrator 30.3.0, SVG Export Plug-In . SVG Version: 2.1.3 Build 182)  -->
  <defs>
    <style>
      .st0 {
        fill: #fff;
      }

      .st1 {
        fill: #00964b;
      }
    </style>
  </defs>
  <circle class="st1" cx="68.06" cy="69.86" r="63.78"/>
  <g>
    <g>
      <path class="st0" d="M49.4,54.69c.05.22.07.4.07.55,0,.89-.57,1.56-1.44,1.56-.77,0-1.29-.4-1.54-1.19l-.65-2.19h-5.37l-.65,2.24c-.17.67-.72,1.14-1.49,1.14-.87,0-1.34-.65-1.34-1.47,0-.12.02-.27.07-.47l4.15-13.04c.32-1.07,1.02-1.59,2.04-1.59s1.74.6,2.06,1.59l4.07,12.87ZM43.16,44.18l-1.94,6.63h3.9l-1.96-6.63Z"/>
      <path class="st0" d="M55.09,53.89h5.14c.8,0,1.37.6,1.37,1.39s-.55,1.39-1.37,1.39h-6.71c-.92,0-1.54-.6-1.54-1.52v-13.41c0-.92.62-1.52,1.54-1.52s1.57.6,1.57,1.52v12.15Z"/>
      <path class="st0" d="M66.74,49.74v4.15h5.81c.8,0,1.37.6,1.37,1.39s-.55,1.39-1.37,1.39h-7.4c-.92,0-1.52-.6-1.52-1.52v-13.29c0-.92.6-1.52,1.52-1.52h7.18c.79,0,1.37.55,1.37,1.37s-.57,1.42-1.37,1.42h-5.59v3.88h4.89c.82,0,1.34.57,1.34,1.39s-.52,1.34-1.34,1.34h-4.89Z"/>
      <path class="st0" d="M87.53,54.74c.07.17.1.32.1.5,0,.87-.72,1.56-1.59,1.56-.67,0-1.17-.32-1.44-.99l-2.24-5.12h-2.58v4.6c0,.92-.65,1.52-1.57,1.52s-1.54-.6-1.54-1.52v-13.41c0-.92.6-1.52,1.52-1.52h4.22c1.64,0,2.98.47,4.02,1.39,1.04.94,1.56,2.16,1.56,3.68,0,2.09-.97,3.68-2.58,4.55l2.11,4.77ZM79.79,43.06v4.92h2.31c1.71,0,2.76-.97,2.76-2.48s-1.04-2.43-2.76-2.43h-2.31Z"/>
      <path class="st0" d="M90.82,40.35h8.42c.82,0,1.37.6,1.37,1.42s-.55,1.37-1.37,1.37h-2.66v12.15c0,.92-.62,1.52-1.54,1.52s-1.54-.6-1.54-1.52v-12.15h-2.68c-.8,0-1.37-.6-1.37-1.39s.57-1.39,1.37-1.39Z"/>
    </g>
    <g>
      <path class="st0" d="M44.64,99.91h-.56c-5.64,0-9.64-4.11-9.64-8.85,0-1.8,1.35-2.71,2.71-2.71s2.71.9,2.71,2.71c0,1.97,2.03,3.55,4.23,3.55h.56c2.25,0,4.23-1.92,4.23-4.11v-3.66c0-4.9-1.75-5.41-5.58-5.41-1.97,0-2.87-1.35-2.87-2.71s.9-2.65,2.87-2.65c2.93,0,5.58-.17,5.58-5.07v-1.3c0-2.65-2.03-4-4.23-4s-4.28.9-4.28,3.33c0,1.8-1.35,2.76-2.71,2.76s-2.71-.96-2.71-2.76c0-5.86,4.9-8.68,9.69-8.68s9.64,3.21,9.64,9.36v1.3c0,3.83-1.07,6.2-2.59,7.78,1.75,1.8,2.59,4.51,2.59,8.06v3.66c0,5.3-4.11,9.41-9.64,9.41Z"/>
      <path class="st0" d="M75.18,70.88c-1.3,0-2.42-.73-2.76-2.31-.34-1.8-2.03-2.87-4.06-2.87h-.56c-2.2,0-4.06,1.92-4.06,4.11v5.75c.9-.73,2.54-1.3,4.06-1.3h.56c5.24,0,9.41,4.23,9.41,9.47v6.76c0,5.3-4.17,9.41-9.41,9.41h-.56c-5.24,0-9.47-4.11-9.47-9.41v-20.68c0-5.19,4.23-9.47,9.47-9.47h.56c7.04,0,9.47,5.52,9.47,8,0,1.63-1.3,2.54-2.65,2.54ZM72.36,83.73c0-2.25-1.75-4.11-4-4.11h-.56c-2.25,0-4.06,1.86-4.06,4.11v6.76c0,2.2,1.8,4.11,4.06,4.11h.56c2.25,0,4-1.92,4-4.11v-6.76Z"/>
      <path class="st0" d="M92.03,99.91h-.56c-5.24,0-9.47-4-9.47-9.19v-21.19c0-5.24,4.23-9.19,9.47-9.19h.56c5.24,0,9.47,3.95,9.47,9.19v21.19c0,5.18-4.23,9.19-9.47,9.19ZM96.09,69.53c0-2.25-1.8-3.83-4.06-3.83h-.56c-2.25,0-4.06,1.58-4.06,3.83v21.19c0,2.2,1.8,3.89,4.06,3.89h.56c2.25,0,4.06-1.69,4.06-3.89v-21.19Z"/>
    </g>
    <g>
      <path class="st0" d="M102.59,61.34h-.3v1.74c0,.1-.08.15-.15.15s-.15-.05-.15-.15v-1.74h-.3c-.1,0-.15-.08-.15-.15s.05-.15.15-.15h.9c.1,0,.15.08.15.15s-.05.15-.15.15Z"/>
      <path class="st0" d="M104.48,63.23c-.08,0-.15-.05-.15-.15v-1.33l-.34.79c-.03.06-.09.09-.16.09s-.13-.03-.15-.09l-.35-.79v1.33c0,.1-.08.15-.15.15s-.15-.05-.15-.15v-1.91c0-.08.07-.15.15-.15h.04c.08,0,.13.03.15.09l.47,1.04.46-1.04c.03-.07.07-.09.15-.09h.04c.08,0,.15.07.15.15v1.91c0,.1-.08.15-.15.15Z"/>
    </g>
  </g>
  <g>
    <path class="st0" d="M68.06,122.1c-.53,0-1.05,0-1.58-.02-.87-.03-1.56-.76-1.53-1.63.03-.86.73-1.53,1.58-1.53.02,0,.03,0,.05,0,.49.01.99.02,1.48.02,27.06,0,49.08-22.02,49.08-49.08s-22.02-49.08-49.08-49.08-49.08,22.02-49.08,49.08c0,11.3,3.73,21.92,10.8,30.72,6.86,8.54,16.48,14.6,27.08,17.08.85.2,1.38,1.05,1.18,1.9-.2.85-1.05,1.38-1.9,1.18-11.29-2.63-21.53-9.09-28.83-18.18-7.41-9.23-11.5-20.84-11.5-32.7,0-28.81,23.44-52.24,52.24-52.24s52.24,23.44,52.24,52.24-23.44,52.24-52.24,52.24Z"/>
    <path class="st0" d="M70.39,128.41c-.49,0-.97-.22-1.28-.65l-4.66-6.36c-.42-.57-.41-1.35.03-1.91l4.66-5.99c.54-.69,1.53-.81,2.22-.28.69.54.81,1.53.28,2.22l-3.92,5.04,3.95,5.4c.52.71.36,1.7-.34,2.21-.28.21-.61.31-.93.31Z"/>
  </g>
</svg>