<?xml version="1.0" encoding="UTF-8"?>
<svg id="Layer_1" xmlns="http://www.w3.org/2000/svg" xmlns:xlink="http://www.w3.org/1999/xlink" version="1.1" viewBox="0 0 1024 1024">
  <!-- Generator: Adobe Illustrator 30.4.0, SVG Export Plug-In . SVG Version: 2.1.4 Build 226)  -->
  <defs>
    <style>
      .st0 {
        fill: #451f1e;
      }

      .st1 {
        fill: #e1e1e2;
      }

      .st2 {
        fill: url(#linear-gradient2);
      }

      .st3 {
        fill: url(#linear-gradient1);
      }

      .st4 {
        fill: url(#linear-gradient9);
      }

      .st5 {
        fill: url(#linear-gradient3);
      }

      .st6 {
        fill: url(#linear-gradient6);
      }

      .st7 {
        fill: url(#linear-gradient8);
      }

      .st8 {
        fill: url(#linear-gradient7);
      }

      .st9 {
        fill: url(#linear-gradient5);
      }

      .st10 {
        fill: url(#linear-gradient4);
      }

      .st11 {
        fill: #1e2025;
      }

      .st12 {
        fill: url(#linear-gradient18);
      }

      .st13 {
        fill: url(#linear-gradient13);
      }

      .st14 {
        fill: url(#linear-gradient12);
      }

      .st15 {
        fill: url(#linear-gradient15);
      }

      .st16 {
        fill: url(#linear-gradient16);
      }

      .st17 {
        fill: url(#linear-gradient11);
      }

      .st18 {
        fill: url(#linear-gradient10);
      }

      .st19 {
        fill: url(#linear-gradient17);
      }

      .st20 {
        fill: url(#linear-gradient14);
      }

      .st21 {
        fill: url(#linear-gradient19);
      }

      .st22 {
        fill: url(#linear-gradient23);
      }

      .st23 {
        fill: url(#linear-gradient22);
      }

      .st24 {
        fill: url(#linear-gradient24);
      }

      .st25 {
        fill: url(#linear-gradient25);
      }

      .st26 {
        fill: url(#linear-gradient21);
      }

      .st27 {
        fill: url(#linear-gradient20);
      }

      .st28 {
        fill: url(#linear-gradient26);
      }

      .st29 {
        fill: #919293;
      }

      .st30 {
        fill: url(#linear-gradient);
      }

      .st31 {
        fill: #2b2b30;
      }

      .st32 {
        fill: #7a7d82;
      }

      .st33 {
        fill: #b2b2b3;
      }

      .st34 {
        fill: #fff;
      }

      .st35 {
        fill: #67686c;
      }

      .st36 {
        fill: #444549;
      }

      .st37 {
        fill: #3c3d43;
      }

      .st38 {
        fill: #575759;
      }

      .st39 {
        fill: #070607;
      }
    </style>
    <linearGradient id="linear-gradient" x1="263.34" y1="917.86" x2="751.89" y2="393.21" gradientTransform="translate(76 588) scale(.5 -.5)" gradientUnits="userSpaceOnUse">
      <stop offset="0" stop-color="#010000"/>
      <stop offset="1" stop-color="#2b2d34"/>
    </linearGradient>
    <linearGradient id="linear-gradient1" x1="674.95" y1="396.2" x2="612.83" y2="378.55" gradientTransform="translate(76 588) scale(.5 -.5)" gradientUnits="userSpaceOnUse">
      <stop offset="0" stop-color="#80858a"/>
      <stop offset="1" stop-color="#a7a2a6"/>
    </linearGradient>
    <linearGradient id="linear-gradient2" x1="542.11" y1="538.33" x2="526.64" y2="527.34" gradientTransform="translate(76 588) scale(.5 -.5)" gradientUnits="userSpaceOnUse">
      <stop offset="0" stop-color="#6a706f"/>
      <stop offset="1" stop-color="#918c93"/>
    </linearGradient>
    <linearGradient id="linear-gradient3" x1="550.92" y1="787.34" x2="489.63" y2="954.6" gradientTransform="translate(76 588) scale(.5 -.5)" gradientUnits="userSpaceOnUse">
      <stop offset="0" stop-color="#000"/>
      <stop offset="1" stop-color="#282628"/>
    </linearGradient>
    <linearGradient id="linear-gradient4" x1="782.33" y1="58.8" x2="832.53" y2="160.81" gradientTransform="translate(76 588) scale(.5 -.5)" gradientUnits="userSpaceOnUse">
      <stop offset="0" stop-color="#444246"/>
      <stop offset="1" stop-color="#595b5d"/>
    </linearGradient>
    <linearGradient id="linear-gradient5" x1="718.23" y1="279.14" x2="713.32" y2="276.58" gradientTransform="translate(76 588) scale(.5 -.5)" gradientUnits="userSpaceOnUse">
      <stop offset="0" stop-color="#3f434a"/>
      <stop offset="1" stop-color="#606063"/>
    </linearGradient>
    <linearGradient id="linear-gradient6" x1="1192.49" y1="427.13" x2="1207.69" y2="451.17" gradientTransform="translate(76 588) scale(.5 -.5)" gradientUnits="userSpaceOnUse">
      <stop offset="0" stop-color="#353539"/>
      <stop offset="1" stop-color="#525151"/>
    </linearGradient>
    <linearGradient id="linear-gradient7" x1="133.17" y1="428.43" x2="431.46" y2="376.08" gradientTransform="translate(76 588) scale(.5 -.5)" gradientUnits="userSpaceOnUse">
      <stop offset="0" stop-color="#080809"/>
      <stop offset="1" stop-color="#262930"/>
    </linearGradient>
    <linearGradient id="linear-gradient8" x1="160.88" y1="597.02" x2="381.67" y2="633.4" gradientTransform="translate(76 588) scale(.5 -.5)" gradientUnits="userSpaceOnUse">
      <stop offset="0" stop-color="#5f5d61"/>
      <stop offset="1" stop-color="#727372"/>
    </linearGradient>
    <linearGradient id="linear-gradient9" x1="916.05" y1="-444.53" x2="898.18" y2="-443.65" gradientTransform="translate(76 588) scale(.5 -.5)" gradientUnits="userSpaceOnUse">
      <stop offset="0" stop-color="#404343"/>
      <stop offset="1" stop-color="#686665"/>
    </linearGradient>
    <linearGradient id="linear-gradient10" x1="924.94" y1="-521.47" x2="921.3" y2="-553.68" gradientTransform="translate(76 588) scale(.5 -.5)" gradientUnits="userSpaceOnUse">
      <stop offset="0" stop-color="#343134"/>
      <stop offset="1" stop-color="#484b4a"/>
    </linearGradient>
    <linearGradient id="linear-gradient11" x1="73.42" y1="325.47" x2="-11.87" y2="236.01" gradientTransform="translate(76 588) scale(.5 -.5)" gradientUnits="userSpaceOnUse">
      <stop offset="0" stop-color="#141515"/>
      <stop offset="1" stop-color="#3d3d40"/>
    </linearGradient>
    <linearGradient id="linear-gradient12" x1="93.26" y1="158.87" x2="58.94" y2="160.32" gradientTransform="translate(76 588) scale(.5 -.5)" gradientUnits="userSpaceOnUse">
      <stop offset="0" stop-color="#080808"/>
      <stop offset="1" stop-color="#313133"/>
    </linearGradient>
    <linearGradient id="linear-gradient13" x1="92.07" y1="161.87" x2="99.23" y2="162.07" gradientTransform="translate(76 588) scale(.5 -.5)" gradientUnits="userSpaceOnUse">
      <stop offset="0" stop-color="#3a3b3c"/>
      <stop offset="1" stop-color="#565657"/>
    </linearGradient>
    <linearGradient id="linear-gradient14" x1="46.55" y1="160.38" x2="38.17" y2="154.67" gradientTransform="translate(76 588) scale(.5 -.5)" gradientUnits="userSpaceOnUse">
      <stop offset="0" stop-color="#252527"/>
      <stop offset="1" stop-color="#3d3e3e"/>
    </linearGradient>
    <linearGradient id="linear-gradient15" x1="52.36" y1="178.43" x2="42.19" y2="159.27" gradientTransform="translate(76 588) scale(.5 -.5)" gradientUnits="userSpaceOnUse">
      <stop offset="0" stop-color="#3f3f41"/>
      <stop offset="1" stop-color="#575757"/>
    </linearGradient>
    <linearGradient id="linear-gradient16" x1="142.48" y1="185.99" x2="112.95" y2="172" gradientTransform="translate(76 588) scale(.5 -.5)" gradientUnits="userSpaceOnUse">
      <stop offset="0" stop-color="#1b1b1c"/>
      <stop offset="1" stop-color="#38383a"/>
    </linearGradient>
    <linearGradient id="linear-gradient17" x1="20.52" y1="652.14" x2="-54.38" y2="672.43" gradientTransform="translate(76 588) scale(.5 -.5)" gradientUnits="userSpaceOnUse">
      <stop offset="0" stop-color="#999a99"/>
      <stop offset="1" stop-color="#bab9ba"/>
    </linearGradient>
    <linearGradient id="linear-gradient18" x1="1777.21" y1="-108.55" x2="1739.85" y2=".31" gradientTransform="translate(76 588) scale(.5 -.5)" gradientUnits="userSpaceOnUse">
      <stop offset="0" stop-color="#3f3e43"/>
      <stop offset="1" stop-color="#545557"/>
    </linearGradient>
    <linearGradient id="linear-gradient19" x1="1780.62" y1="-63.7" x2="1745.79" y2="-71.03" gradientTransform="translate(76 588) scale(.5 -.5)" gradientUnits="userSpaceOnUse">
      <stop offset="0" stop-color="#111216"/>
      <stop offset="1" stop-color="#333134"/>
    </linearGradient>
    <linearGradient id="linear-gradient20" x1="654.45" y1="109.04" x2="599.94" y2="159.02" gradientTransform="translate(76 588) scale(.5 -.5)" gradientUnits="userSpaceOnUse">
      <stop offset="0" stop-color="#9d9f9f"/>
      <stop offset="1" stop-color="#bdbbbd"/>
    </linearGradient>
    <linearGradient id="linear-gradient21" x1="949.35" y1="-153.76" x2="1196.79" y2="-71.68" gradientTransform="translate(76 588) scale(.5 -.5)" gradientUnits="userSpaceOnUse">
      <stop offset="0" stop-color="#525057"/>
      <stop offset="1" stop-color="#9c9d98"/>
    </linearGradient>
    <linearGradient id="linear-gradient22" x1="1210.26" y1="-605.47" x2="1211.73" y2="-594.38" gradientTransform="translate(76 588) scale(.5 -.5)" gradientUnits="userSpaceOnUse">
      <stop offset="0" stop-color="#888789"/>
      <stop offset="1" stop-color="#b0afb0"/>
    </linearGradient>
    <linearGradient id="linear-gradient23" x1="1236.51" y1="-593.9" x2="1242.53" y2="-614.1" gradientTransform="translate(76 588) scale(.5 -.5)" gradientUnits="userSpaceOnUse">
      <stop offset="0" stop-color="#69696c"/>
      <stop offset="1" stop-color="#7d7d7c"/>
    </linearGradient>
    <linearGradient id="linear-gradient24" x1="724.9" y1="76.59" x2="728.44" y2="32.68" gradientTransform="translate(76 588) scale(.5 -.5)" gradientUnits="userSpaceOnUse">
      <stop offset="0" stop-color="#484647"/>
      <stop offset="1" stop-color="#656668"/>
    </linearGradient>
    <linearGradient id="linear-gradient25" x1="703.59" y1="111.33" x2="689.34" y2="106.78" gradientTransform="translate(76 588) scale(.5 -.5)" gradientUnits="userSpaceOnUse">
      <stop offset="0" stop-color="#6f7074"/>
      <stop offset="1" stop-color="#979797"/>
    </linearGradient>
    <linearGradient id="linear-gradient26" x1="892.45" y1="-1.25" x2="889.27" y2="-10.01" gradientTransform="translate(76 588) scale(.5 -.5)" gradientUnits="userSpaceOnUse">
      <stop offset="0" stop-color="#808081"/>
      <stop offset="1" stop-color="#a5a5a4"/>
    </linearGradient>
  </defs>
  <path class="st39" d="M218.48,127.6c23.66-3.73,41.18-4.24,64.08,5.11,8.55-2.57,29.19-1.19,37.93,1.26,3.35.94,14,4.14,16.74,4.32,11.52.76,22.54.94,34.15,1.89,28.38,2.31,49.65,9.04,75.96,18.74,70.21,26.36,148.93,76.42,204.72,126.3,21.67,19.73,42.2,40.69,61.48,62.76,9.08,10.37,23.2,26.13,30.89,36.97-.1-9.22.85-20.78,7.57-27.44,14.14-14.03,32.07-4.83,31.59,14.51-.44,17.73-12.35,27.06-15.15,43.35,2.39,3.1,6.29,8.33,8.95,10.91,13.31,12.95,31.09,24.57,46.88,34.33l49.78,30.99c12.63,8.02,25.75,15.74,37.15,25.52,12.24,10.5,24.98,22.74,35.47,35.03,15.01,17.58,23.43,40.89,29.89,62.73,2.55,8.6,6.55,16.8,9.39,25.3,4.7,14.6,4.85,32.91,2.91,47.97-.88,6.6-2.03,13.15-3.46,19.64-.51,2.36-2.43,10.67-2.51,12.67-.29,7.85,5.18,10.61,4.26,19.83-1.38,14.49-8.41,28.05-15.84,40.33-2.13,3.52-4.08,9.42-7.02,12.11-8.97,8.21-18.95,17.31-28.57,24.69-57.8,44.71-125.79,74.39-197.88,86.38-27.2,4.62-49.92,6.99-77.71,3.41-17.66-2.27-27.16-9.45-42.76-17.51-16.38,5.83-35.43,13.64-52.47,5.53-7.39-3.52-14.81-10.06-21.57-14.77-24.19-16.86-38.04-61.27-37.89-89.45-14.77-10.8-27.72-23.78-42-35.31-3.65-2.94-7.25-6.82-11.03-9.66-22.12-16.64-44.1-33.53-66.14-50.26l-103.31-79.23c-19.76-15.28-42.53-33.29-62.95-47.42-7.29-5.08-14.69-9.99-22.2-14.76-5.14-3.23-12.92-7.66-17.37-11.36-6.53,4.65-16.64,7.61-24.45,9.12-54.7,10.59-85.32-63.29-86.81-106.94-3.09-1.97-7.05-4.08-9.07-7.24-4.52-7.07-19.01-53.71-21.2-63.55-2.1-9.41-4.17-19.22-4.99-28.85-.79-9.25.91-18,.92-27.14.02-22.7-5.66-55.82,7.12-75.51,7.82-12.04,20.49-20.53,28.34-32.54-.01-10.07,2.74-16.59,10.95-22.69,3.04-3.94,19.65-16.56,24.24-19.03,8.68-7.87,44.01-23.78,55.43-26.85,11.46-5.71,44.99-12.98,57.55-14.2Z"/>
  <path class="st11" d="M426.11,246.12c6.89-.49,13.76-1.66,20.6-2.25,18.04-1.56,35.72,1.81,53.56,3.84,3.18.36,7.82.8,11.04.75,1.8.03,6.75.03,8.1.88l5.16.4c6.66,2.62,19.68,12.39,26.72,16.26-1.73-4.49-3.65-8.68-5.62-13.05,3.39.11,8.45,1.28,11.75,2.2,16.3,3.54,27.46,5.59,38.65,18.35,1.61,1.85,3.7,4.48,6.11,4.62l-.1.3c-12.89,6.89-26.96,13.2-40.09,19.73-3.49,1.74-16.62,8.23-19.86,9.05-4.1.86-24.18,9.88-29.63,12.18-22.78,9.49-45.69,18.64-68.74,27.45-8.35,3.22-18.04,7.24-26.54,9.8-4.63,1.4-15.83-14.7-20.86-17.37-13.77-13.69-33.79-28.27-49.1-40.57-5.82-4.67-16.95-10.57-21.95-15.53l1.33-.43c3.65.04,47.34-24.11,55.63-27.48,15.56-6.31,28.28-5.01,43.1-8.91l.78-.21Z"/>
  <path class="st36" d="M511.3,248.47c1.8.03,6.75.03,8.1.88.77,2.17,7.1,4.88,9.46,6.33,7.66,4.72,15.23,9.57,22.82,14.41,1.7,3.46,2.62,6.41,3.84,10.08-1.32-.51-2.61-1.05-3.9-1.63-2.45-1.13-8.28-4.85-10.45-6.59-7.08-5.69-27.01-15.68-29.87-23.48Z"/>
  <path class="st36" d="M513.23,257.93c.69,0,1.04,0,1.68.32,8.95,4.67,11.98,7.36,15.31,16.55-3.85-1.88-4.55-5.5-5.96-9.42-3-1.81-9.01-5.02-11.03-7.46Z"/>
  <path class="st35" d="M344.1,181.43c13.55-1.92,26.67-2.46,40.15-3.75,18.86-1.81,32.47.24,50.97,3.4,6.2,1.01,12.34,2.31,18.41,3.89,2.82.71,9.37,2.57,11.71,2.82,1.51,1.46,5.83,3.88,7.71,4.37,2.04.87,4.09,1.7,6.07,2.7,2.42,2.58,2.75,4.23.79,7.19-.83.3-1.63.64-2.43,1.02-3.32,1.01-6.67,1.93-10.04,2.77-3.74,1.12-17.44,5.06-20.14,6.77l-5.89,1.33c-11.41,4.25-61.13,23.1-68.61,29.22l.13.93-.68.75c-1.04,1.15-1.85,1.87-2.21,3.38,3.26,2.58,5,2.95,9.1,3.73-4.02,2.91-13.39,6.84-18.44,9.63-16.5,9.09-33.85,17.5-49.51,28.01l-1.17-.32c-.99-1.21-6.73-5.11-8.5-6.36-23.15-16.35-46.23-28.69-71.91-40.44-.82-.41-6.55-2.2-7.98-2.71-5.96-2.14-11.88-4.37-17.77-6.69,8.11-4.77,15.65-10.63,24.13-14.91,28.96-16.23,53.36-28.3,84.65-40.05.61,2.89,1.09,3.84,4.53,4.22,8.82.97,18.04-1.16,26.91-.89Z"/>
  <path class="st37" d="M228.01,218.15c2.26,3.14,4.31,4.24,8.24,3.82,8.68-.92,17.95-3.03,26.48-4.75-6.97,4-26.64,12.55-7.14,16.63,21.41,4.48,43.43.98,64.96.6,9.15-.2,18.31.2,27.41,1.19,4.2.42,12.33.85,14.48,4.65-.47,3.9-8.25,8.14-11.53,11.99l.58.72.35-.04c5.13.48,13.64-2.4,18.21-4.76,3.26,2.58,5,2.95,9.1,3.73-4.02,2.91-13.39,6.84-18.44,9.63-16.5,9.09-33.85,17.5-49.51,28.01l-1.17-.32c-.99-1.21-6.73-5.11-8.5-6.36-23.15-16.35-46.23-28.69-71.91-40.44-.82-.41-6.55-2.2-7.98-2.71-5.96-2.14-11.88-4.37-17.77-6.69,8.11-4.77,15.65-10.63,24.13-14.91Z"/>
  <path class="st31" d="M239.94,233.3c20.74,3.4,41.37,16.74,59.72,26.91,5.66,3.14,12.4,8,18.25,10.32,5.48-2.63,31.14-14.28,33.58-17.52l.35-.04c5.13.48,13.64-2.4,18.21-4.76,3.26,2.58,5,2.95,9.1,3.73-4.02,2.91-13.39,6.84-18.44,9.63-16.5,9.09-33.85,17.5-49.51,28.01l-1.17-.32c-.99-1.21-6.73-5.11-8.5-6.36-23.15-16.35-46.23-28.69-71.91-40.44,10.88-2.25,27.05,15.34,35.03,6.64-1.23-4.14-19.89-13.02-24.71-15.8Z"/>
  <path class="st32" d="M344.1,181.43c13.55-1.92,26.67-2.46,40.15-3.75,18.86-1.81,32.47.24,50.97,3.4,6.2,1.01,12.34,2.31,18.41,3.89,2.82.71,9.37,2.57,11.71,2.82,1.51,1.46,5.83,3.88,7.71,4.37,2.04.87,4.09,1.7,6.07,2.7,2.42,2.58,2.75,4.23.79,7.19-.83.3-1.63.64-2.43,1.02-3.32,1.01-6.67,1.93-10.04,2.77-3.74,1.12-17.44,5.06-20.14,6.77l-5.89,1.33c-3.63-1.27-4.7-6.69-7.32-7.78-9.01-3.74-20.15-3.92-29.64-4.27-4.43-.16-23.11.78-25.61-1.36.2-1.4,1.96-2.65,3.18-3.79l-3.72-4.72c-1.96-.54-11.48.56-13.85.79-18.34,1.81-38.87,6.57-56.46,11.81-19.54,5.82-24.96,11.36-45.93,13.16,15.53-10.1,41.37-20.44,58.71-27.8,5.73-2.43,18.65-5.76,23.29-8.55Z"/>
  <path class="st29" d="M467.46,205.84c.21-1.72,1.16-5.46,1.58-7.3,2.33,1.2,7.13,2.76,8.46,4.54-3.32,1.01-6.67,1.93-10.04,2.77Z"/>
  <path class="st33" d="M431.99,185.51c7.35-.14,22.28,6.96,29.67,10.05-.86,3.28-1.64,7.45-2.34,10.8-.8-.36-5.4-3.37-6.25-3.97-4.11-2.88-21.29-10.58-22.12-15.92l1.04-.96Z"/>
  <path class="st36" d="M372.81,243.16l.13.93-.68.75c-1.04,1.15-1.85,1.87-2.21,3.38-4.57,2.36-13.08,5.24-18.21,4.76.62-.7,18.14-8.4,20.96-9.81Z"/>
  <path class="st30" d="M277.75,146.47l.93-.04c7.17-.32,16.03-1.76,24.23-2.17,24.86-1.33,49.8-.32,74.48,3-2.36,2.62-7.79,4.55-11.24,4.92-8.18,1.58-19.02,3.46-27.06,5.41-14.83,3.88-29.27,8.17-43.84,12.84-4.32,1.38-25.31,10.07-28.21,10.43-1.55.68-2.9,1.02-3.95,2.18,1.45,1,3.95.58,6,.51,2.91-.79,6.46-1.32,9.48-1.85,5.38-.35,18.6-4.21,24.72-5.6,7.29-1.66,15.54-2.94,22.56-4.59l.18.73c-4.99,1.62-10.03,3.2-14.94,5.03l1.56.84c-31.29,11.75-55.69,23.82-84.65,40.05-8.49,4.28-16.02,10.14-24.13,14.91,5.89,2.32,11.81,4.55,17.77,6.69,1.43.51,7.16,2.3,7.98,2.71,25.68,11.75,48.76,24.09,71.91,40.44,1.77,1.25,7.51,5.14,8.5,6.36l.16.53c1.37,1.28.74,1.05,2.37,1.43,2.47-4.43,8.57-4.7,11.53-6.85l1.17-1.22c5,4.96,16.14,10.86,21.95,15.53,15.31,12.3,35.33,26.88,49.1,40.57,5.03,2.67,16.23,18.77,20.86,17.37,8.5-2.56,18.2-6.58,26.54-9.8,23.05-8.81,45.96-17.96,68.74-27.45,5.45-2.3,25.53-11.32,29.63-12.18l.22,1.53-.86.45c-3.73,1.91-9.82,4.31-13.77,6-9.34,4.06-18.75,7.96-28.22,11.7-22.14,9.02-44.39,17.77-66.74,26.27-12.26,4.75-24.37,9.99-36.73,14.48-.89.32-3.54-.39-4.56-.63.12,2.16,7.26,12.39,6.73,13.84l-1.29-1.84c.84,2.08,4.21,9.14,4.53,10.37-4.07-3.4-10.35-14.98-13.62-19.76-2.89-4.23-5.56-7.29-8.89-11.13-3.78-2.82-6.37-8.55-11.27-8.36l-3.3-3.99c.55-1.09.85-2.47,1.19-3.67-10.75-10.41-23.47-23.34-34.48-33.16-5.1,2.47-10.02-7.77-15.09-7.92-2.09-1.15-7.4-5.26-9.62-6.87-6.3-4.6-12.44-8.88-18.9-13.22-29.86-20.06-58.52-33.08-92.89-43.5-4.67,1.81-8.73,5.29-12.64,6.97l-1.63-.56c4.17-3.02,7.39-5.1,12.02-7.35-8.05-1.82-16.9-4.28-24.98-6.32l2.07-.8c2.66.22,6.25.63,8.84.7-.29-.35-.58-.71-.84-1.07-3.36-4.64-51.62-8.45-56.07-12.06-1.6-1.29-1.3-2.59-1.49-4.5.26-.54.54-1.06.84-1.58,3.74-6.46,12.58-13.29,18.6-17.55,27.47-19.44,56.44-30.21,88.75-39.16l8.98-2.22c1.64-.07,7.56-1.63,9.44-2.06,5.4-1.26,10.82-2.44,16.25-3.53l.99,1.24c5.54-.95,8.42-1.59,14.08-1.44Z"/>
  <path class="st31" d="M277.75,146.47l.93-.04c7.17-.32,16.03-1.76,24.23-2.17,24.86-1.33,49.8-.32,74.48,3-2.36,2.62-7.79,4.55-11.24,4.92-8.18,1.58-19.02,3.46-27.06,5.41-14.83,3.88-29.27,8.17-43.84,12.84-4.32,1.38-25.31,10.07-28.21,10.43-1.55.68-2.9,1.02-3.95,2.18-12.57,4.73-31.44,13.37-42.72,19.64-19.45,10.8-30.94,17.51-54.22,12.05-3.68-.86-12.51-1.11-15.31-3.09l-3.28.66c-3.47-1.79-10.28-.29-11.92-3.57,1.09-4.26,5.3-4.59,6.45-7.99-3.28.77-6.64,1.11-9.98,1.52,1.63-1.33,3.68-2.72,5.41-3.97,25.31-20.27,69.38-36.45,100.46-44.24,2.68-.91,23.37-5.94,25.68-6.15,5.54-.95,8.42-1.59,14.08-1.44Z"/>
  <path class="st35" d="M277.75,146.47l.93-.04c7.17-.32,16.03-1.76,24.23-2.17,24.86-1.33,49.8-.32,74.48,3-2.36,2.62-7.79,4.55-11.24,4.92-8.18,1.58-19.02,3.46-27.06,5.41-26.07-.61-50.14,2.38-75.54,7.6-35.61,7.31-71.28,14.8-104.64,29.51-5.25,2.31-11.51,3.63-16.82,6.05-3.28.77-6.64,1.11-9.98,1.52,1.63-1.33,3.68-2.72,5.41-3.97,25.31-20.27,69.38-36.45,100.46-44.24,2.68-.91,23.37-5.94,25.68-6.15,5.54-.95,8.42-1.59,14.08-1.44Z"/>
  <path class="st37" d="M237.99,154.06c1.8.13,2.54.29,4.34-.11l.34.15.63-.12-1.95.72.15.44-.93.35c-5.77,2.14-12.75,3.21-18.61,5-28.57,8.72-53.93,23-80.07,37.06-1.19.64-3.01.82-4.37.76,25.31-20.27,69.38-36.45,100.46-44.24Z"/>
  <path class="st31" d="M263.67,147.91c5.54-.95,8.42-1.59,14.08-1.44-4.76,2.06-30.08,7.57-36.24,8.66l-.15-.44,1.95-.72-.63.12-.34-.15c-1.8.39-2.54.24-4.34.11,2.68-.91,23.37-5.94,25.68-6.15Z"/>
  <path class="st29" d="M222.14,192.74c3.01-.04,34.11-9.81,40.16-11.54l.79,1.84c-12.57,4.73-31.44,13.37-42.72,19.64-19.45,10.8-30.94,17.51-54.22,12.05-3.68-.86-12.51-1.11-15.31-3.09,4.89-1.62,10.36-2.64,15.93-4.49,10.54-3.51,21.92-8.01,32.79-10.48.68-.15,1.72,1.04,2.45,1.66l2.76.51c.37-.25.74-.48,1.12-.71,3.62-2.17,4.71-.23,8.64-.08,1.43-.73,1.7-1.75,2.48-3.24l.34-.65c1.46-.29.7-.28,2.43.77,1.37-.42,1.28-.82,2.37-2.19Z"/>
  <path class="st35" d="M202,198.33c1.51-1.61,3.1-1.71,5.28-3.55-.79-1.35-2.05.31-3.83-.84,3.13-2.66,13.58-.99,17.67-1.15l1.01-.05c-1.09,1.38-1,1.77-2.37,2.19-1.73-1.04-.97-1.05-2.43-.77l-.34.65c-.78,1.49-1.05,2.5-2.48,3.24-3.93-.15-5.02-2.09-8.64.08-.38.23-.75.47-1.12.71l-2.76-.51Z"/>
  <path class="st35" d="M262.3,181.2c2.29-.5,2.45-.57,4.74-.34-1.55.68-2.9,1.02-3.95,2.18l-.79-1.84Z"/>
  <path class="st35" d="M325.86,171.5l.18.73c-4.99,1.62-10.03,3.2-14.94,5.03-40.02,13.55-74.56,32.55-109.8,55.33-21.05-5.98-48.3-13.27-70.31-14.32,5.35-2.13,11.03-4.59,16.58-5.98l3.28-.66c2.81,1.98,11.63,2.22,15.31,3.09,23.28,5.46,34.77-1.25,54.22-12.05,11.28-6.26,30.15-14.91,42.72-19.64,1.45,1,3.95.58,6,.51,2.91-.79,6.46-1.32,9.48-1.85,5.38-.35,18.6-4.21,24.72-5.6,7.29-1.66,15.54-2.94,22.56-4.59Z"/>
  <path class="st29" d="M269.09,183.55c2.91-.79,6.46-1.32,9.48-1.85l2.22.6c-.83,1.2-.14.68-1.39,1.21-16.01,6.77-32.54,14.67-47.85,22.9-8.62,4.63-15.81,9.32-24.19,13.41.58-1.09,1.75-3.25,2.72-3.97,12.52-9.27,27.84-17,41.95-23.51,4.6-2.12,13.68-6,17.05-8.79Z"/>
  <path class="st33" d="M199.99,234.5c41.11,12.84,72.99,30.37,107.64,56.12,7.9,5.87,16.43,11.81,23.42,18.66-5.1,2.47-10.02-7.77-15.09-7.92-2.09-1.15-7.4-5.26-9.62-6.87-6.3-4.6-12.44-8.88-18.9-13.22-29.86-20.06-58.52-33.08-92.89-43.5l5.44-3.26Z"/>
  <path class="st37" d="M325.27,283.15c5,4.96,16.14,10.86,21.95,15.53,15.31,12.3,35.33,26.88,49.1,40.57-2.9-.19-9.41-6.64-12.01-8.97-11.59-10.2-23.63-19.87-36.08-29-3.98-2.87-22.03-14.55-24.14-16.91l1.17-1.22Z"/>
  <path class="st33" d="M167.31,230.5l2.07-.8c2.66.22,6.25.63,8.84.7,6.57.58,13.09,1.59,19.53,3.02-1.86,1.22-3.5,2.32-5.46,3.39-8.05-1.82-16.9-4.28-24.98-6.32Z"/>
  <path class="st38" d="M365.53,342.44c3.27,3.14,13.11,12.02,13.38,16.02-3.78-2.82-6.37-8.55-11.27-8.36l-3.3-3.99c.55-1.09.85-2.47,1.19-3.67Z"/>
  <path class="st38" d="M326.6,282.72c4.36-3.36,22.18-12.72,27.34-15.44,31.84-17.14,64.76-32.18,98.55-45.05,15.37-5.98,38.38-14.42,54.4-16.91,31.36,20.54,63.93,42.33,92.18,67.35,1.74,1.54,3.4,3.1,3.08,5.46-2.41-.14-4.49-2.77-6.11-4.62-11.19-12.77-22.35-14.81-38.65-18.35-3.3-.92-8.36-2.09-11.75-2.2,1.97,4.37,3.9,8.57,5.62,13.05-7.04-3.87-20.05-13.63-26.72-16.26l-5.16-.4c-1.34-.84-6.29-.85-8.1-.88-3.21.06-7.85-.38-11.04-.75-17.84-2.03-35.52-5.4-53.56-3.84-6.84.59-13.7,1.76-20.6,2.25l-.78.21c-14.82,3.9-27.54,2.59-43.1,8.91-8.29,3.36-51.98,27.52-55.63,27.48Z"/>
  <path class="st35" d="M426.11,246.12c.66-.21,1.12-.34,1.65-.8,5.74-4.91,45.67-19.48,55.22-22.87,9.35,6.24,18.75,12.41,28.19,18.51,3.4,2.2,10.57,6.38,13.38,8.79l-5.16-.4c-1.34-.84-6.29-.85-8.1-.88-3.21.06-7.85-.38-11.04-.75-17.84-2.03-35.52-5.4-53.56-3.84-6.84.59-13.7,1.76-20.6,2.25Z"/>
  <path class="st29" d="M502.23,216.21c8.74,3.49,17.34,10.84,25.27,16.15,3.79,2.54,9.78,6.44,13.22,9.16,2.51,3.43,2.87,7.6,4.92,11.43,1.97,4.37,3.9,8.57,5.62,13.05-7.04-3.87-20.05-13.63-26.72-16.26-2.8-2.41-9.98-6.59-13.38-8.79-9.44-6.1-18.84-12.27-28.19-18.51,6.17-2.13,12.97-4.69,19.25-6.24Z"/>
  <path class="st35" d="M540.72,241.52c5.14,2.3,11.83,8,16.16,11.73.37,1.02.33.87.52,1.9-3.3-.92-8.36-2.09-11.75-2.2-2.05-3.83-2.42-8-4.92-11.43Z"/>
  <path class="st37" d="M181.91,244.74c3.91-1.68,7.97-5.16,12.64-6.97,34.37,10.42,63.03,23.45,92.89,43.5,6.46,4.34,12.6,8.62,18.9,13.22,2.22,1.62,7.53,5.72,9.62,6.87,5.07.15,9.98,10.39,15.09,7.92,11.01,9.82,23.73,22.75,34.48,33.16-.34,1.2-.64,2.58-1.19,3.67l3.3,3.99c4.91-.19,7.49,5.54,11.27,8.36,3.33,3.84,6,6.9,8.89,11.13,3.27,4.79,9.55,16.36,13.62,19.76,1.78,3.15,5.59,7.81,6.81,10.53,3.05,6.78,12.47,19.69,14.49,26.08,1.3,4.81,3.9,8.04,4.98,12.33-.55.61-.24.46-.83.61,6.03,10.48,11.83,22.72,17.57,33.58.21-.86.32-1.71.41-2.59l1.47-.6c.44.79,1.71,2.98,1.98,3.7l-.64,2.04c-.7,2.89.95,6.09,2.77,8.31,2.84,6.42,5.44,12.85,8.19,19.3,1.96,4.58,4.98,9.84,6.61,14.46-3.41-2.56-4.41-6.36-6.91-9.49-14.23-17.78-22.43-38.63-33.59-58.03-10.18-18-20.83-35.73-31.95-53.17-7.31-11.6-16.34-25.29-25.45-35.55-23.27-26.2-50.44-48.98-79.93-67.84-9.58-5.92-19.48-13.34-29.65-18.21-23.53-11.28-49.95-23.47-75.31-29.22l-.54-.86Z"/>
  <path class="st3" d="M367.64,350.1c4.91-.19,7.49,5.54,11.27,8.36,3.33,3.84,6,6.9,8.89,11.13,3.27,4.79,9.55,16.36,13.62,19.76,1.78,3.15,5.59,7.81,6.81,10.53,3.05,6.78,12.47,19.69,14.49,26.08,1.3,4.81,3.9,8.04,4.98,12.33-.55.61-.24.46-.83.61-3.92-5.52-7.09-12.96-10.44-18.87-10.74-18.97-20.87-38.46-36.03-54.37-3.66-3.84-10.55-11.03-12.77-15.56Z"/>
  <path class="st2" d="M315.96,301.36c5.07.15,9.98,10.39,15.09,7.92,11.01,9.82,23.73,22.75,34.48,33.16-.34,1.2-.64,2.58-1.19,3.67-8.62-10.35-18.45-20.91-28.81-29.43-3.58-2.94-17.69-13.11-19.57-15.32Z"/>
  <path class="st37" d="M444.44,472.49c.21-.86.32-1.71.41-2.59l1.47-.6c.44.79,1.71,2.98,1.98,3.7l-.64,2.04c-.97-1.73-1.03-2.08-2.83-1.67l-.39-.87Z"/>
  <path class="st31" d="M218.48,127.6l.42.96c3.41.76,28.29-3.38,33.59-1.07,2.12,1.4,14.27,3.57,17.53,4.22-2.41,1.54-7.98,1.01-11.15,1.31-10.26.96-20.54,1.92-30.79,2.96-44.03,6.79-87.41,22.1-123.59,48.5-9.34,6.82-21.79,20.66-28.37,29.38-1.01-7.3-1.58-12.58,1.92-19.35l-.8-.95c1.57-1.77,2.87-3.05,4.56-4.69l-.55-1.19c3.04-3.94,19.65-16.56,24.24-19.03,8.68-7.87,44.01-23.78,55.43-26.85,11.46-5.71,44.99-12.98,57.55-14.2Z"/>
  <path class="st39" d="M105.5,168.65c8.68-7.87,44.01-23.78,55.43-26.85l.03.8-.6.2c-7.58,2.6-15.74,7.36-23.3,9.33-7.38,1.92-26.17,15.89-31.57,16.52Z"/>
  <path class="st35" d="M81.81,188.87l.29.6c-1.21,2.05-2.46,3.28-4.05,5.04l-.8-.95c1.57-1.77,2.87-3.05,4.56-4.69Z"/>
  <path class="st36" d="M99.52,217.98c11.19-3.79,15.55-7.62,24.13-15.22-1.76,2.3-7.52,9.7-5.1,12.48l.82-.4.44-2.07c.2,1.91-.1,3.21,1.49,4.5,4.45,3.61,52.71,7.42,56.07,12.06.27.37.55.72.84,1.07-2.59-.07-6.18-.48-8.84-.7l-2.07.8c8.08,2.05,16.93,4.5,24.98,6.32-4.63,2.25-7.84,4.33-12.02,7.35-.23.15-1.33.7-1.52.66-22.45-4.55-45.29-8.47-68.22-9.17-3.03-.09-5.95-.08-7.61,2.55-1.5,1.05-1.37,1.07-3.18,1.12-3.81-1.4-6.12-8.37-9.51-11.89l-1.38-1.65c-.6-1.15-.96-2.24-1.42-3.45l1.11-.6c2.11-1.01,4.82-1.47,7.14-2,.51-.32,3.16-1.47,3.85-1.78Z"/>
  <path class="st31" d="M99.52,217.98c11.19-3.79,15.55-7.62,24.13-15.22-1.76,2.3-7.52,9.7-5.1,12.48l.82-.4.44-2.07c.2,1.91-.1,3.21,1.49,4.5,4.45,3.61,52.71,7.42,56.07,12.06.27.37.55.72.84,1.07-2.59-.07-6.18-.48-8.84-.7l-2.07.8c-2.04-.3-5.04-.52-6.38-1.98-1.95-.88-6.85-.83-9.13-1.3-15.8-3.23-34.09-1.41-49.49-3.64,1.78-.03,2.88.14,4.38-.8-.98-.92-1.35-.65-3.01-.86-1.85-1.45-2.52-2.19-4.15-3.93Z"/>
  <path class="st29" d="M160.93,228.52c1.33.14,7.46.83,8.46,1.19l-2.07.8c-2.04-.3-5.04-.52-6.38-1.98Z"/>
  <path class="st11" d="M95.67,219.77c.51-.32,3.16-1.47,3.85-1.78,1.62,1.74,2.29,2.49,4.15,3.93,1.66.21,2.04-.06,3.01.86-1.49.94-2.6.76-4.38.8-2.48-.03-4.93-.36-7.4-.64l-1.78-.06c-1.85-.22-2.95-.2-4.59-1.11,2.11-1.01,4.82-1.47,7.14-2Z"/>
  <path class="st39" d="M94.91,222.94c3.85-1.09,4.87-1.11,8.76-1.02,1.66.21,2.04-.06,3.01.86-1.49.94-2.6.76-4.38.8-2.48-.03-4.93-.36-7.4-.64Z"/>
  <path class="st33" d="M340.56,140.42c34.91.5,73.71,6.63,106.24,19.79,85.15,32.85,168.2,90.61,233.43,154.28,15.97,15.59,34.88,37.76,49.39,54.97,13.73,16.27,48.9,56.88,50.97,77.57l-1.13-.03c-2.62-7.67-4.83-12.72-9.62-19.42-2.91-5.56-20.28-29.35-24.69-33.67-.72-1.81-8.99-11.68-10.62-13.66-16.28-19.91-33.41-39.33-51.36-57.75-6.15-6.23-13.34-11.87-19.53-18.01-43.95-43.61-94.48-79.06-148.66-108.82-7.48-4.11-15.1-8.92-22.7-12.73-23.29-11.7-47.69-22.35-72.71-29.59-27.62-7.83-56.19-11.81-84.9-11.83l-1.83-.6.13-.29c2.46-.26,5.11-.2,7.6-.22Z"/>
  <path class="st35" d="M482.31,191.5c8.99.85,24.2,7.71,30.19,6.76.56-.09,1.61-.31,2.14-.28,5.69.3,75.55,46.67,84.79,53.7,7.36,5.57,14.62,11.27,21.79,17.1-2.08,1.63-3.13,2.9-5.68,2.88-1.03-.57-2.05-1.46-3-2.21-2.73,0-15.17-4.99-20.64-5.75-7.46-4.47-16.42-12.54-23.7-18.05-14.85-11.35-30.16-22.08-45.9-32.18-15.52-10.05-22.49-15.42-39.98-21.96Z"/>
  <path class="st33" d="M174.67,152.43c9.76-2.87,55.34-15.81,62.76-13.07-1.86,2.14-5.08,1.46-5.65,1.4-3.63-.41-35.13,7.18-35.69,8.73-4.63,12.72-28.92,20.09-36.99,29.06,8.15-3,16.18-7.67,23.8-10.53,14.2-5.32,30.37-10.82,44.93-14.75l.16,1.23c-32.3,8.96-61.27,19.72-88.75,39.16-6.02,4.26-14.86,11.09-18.6,17.55-.3.51-.58,1.04-.84,1.58l-.44,2.07-.82.4c-2.42-2.78,3.35-10.18,5.1-12.48-8.58,7.6-12.94,11.42-24.13,15.22-.69.31-3.33,1.47-3.85,1.78-2.33.53-5.03,1-7.14,2l-1.11.6c-2.02-.51-3.62-1.74-5.41-2.89,11.5-5.95,24.2-10.1,35.19-17.58,6.45-4.38,11.08-9.97,16.73-15.11,8.48-7.71,17.49-14.78,25.88-22.62,3.87-3.56,12.75-6.89,14.84-11.74Z"/>
  <path class="st29" d="M78.41,217.02c.69-2.17,6.87-8.61,8.64-10.57,22.75-25.17,55.38-44.07,87.63-54.02-2.09,4.85-10.98,8.18-14.84,11.74-8.39,7.83-17.4,14.91-25.88,22.62-5.66,5.14-10.29,10.73-16.73,15.11-10.99,7.47-23.69,11.63-35.19,17.58,1.78,1.14,3.38,2.38,5.41,2.89.46,1.21.83,2.3,1.42,3.45-2.97-.33-5.69-.37-8.43-1.53-1.84-2.2-.45-4.48-2.01-7.27Z"/>
  <path class="st5" d="M282.55,132.71c8.55-2.57,29.19-1.19,37.93,1.26,3.35.94,14,4.14,16.74,4.32,11.52.76,22.54.94,34.15,1.89,28.38,2.31,49.65,9.04,75.96,18.74l-.53,1.29c-32.54-13.16-71.33-19.3-106.24-19.79-2.49.01-5.13-.04-7.6.22l-.13.29,1.83.6-5.91-.1c-17.76-.04-48.93,1.4-66.08,5.25-5.44,1.1-10.85,2.27-16.25,3.53-1.88.44-7.8,1.99-9.44,2.06l-8.98,2.22-.16-1.23c1.93-5.34,9.97-5.32,12.46-11.2l-1.01-.77c4.69-5.53,37.3-1.46,43.26-8.57Z"/>
  <path class="st36" d="M322.14,140.77c5.9-.76,12.52-1.03,18.43-.35-2.49.01-5.13-.04-7.6.22l-.13.29,1.83.6-5.91-.1c-1.99-.3-4.57-.46-6.62-.65Z"/>
  <path class="st38" d="M227.84,153.25c3.04-.78,6.42-2.08,9.14-.99l-8.98,2.22-.16-1.23Z"/>
  <path class="st38" d="M441.43,213.94l5.89-1.33c6.34.96,16.25-1.48,21.23,1.61-20.55,7.72-38.62,14.7-58.77,23.67-8.62,3.84-22.74,11.13-30.62,14.05-4.1-.79-5.84-1.16-9.1-3.73.35-1.5,1.16-2.22,2.21-3.38l.68-.75-.13-.93c7.48-6.12,57.2-24.97,68.61-29.22Z"/>
  <path class="st10" d="M450.43,483.35c1.93.75,3.17,2.74,3.1,4.83l3.19,1.48c13.13,25.78,27.47,51.81,45.47,74.51,3.65,4.61,6.65,7.81,9.64,12.91-3.69-.1-7.16-.16-10.84-.57-7.57-14.44-15.26-29.28-24.41-42.88-1.2-1.79-5.2-4.28-5.71-6.06-1.59-3.32-3.84-7.18-5.63-10.46-1.63-4.62-4.65-9.88-6.61-14.46-2.76-6.45-5.35-12.89-8.19-19.3Z"/>
  <path class="st29" d="M450.43,483.35c1.93.75,3.17,2.74,3.1,4.83,3.26,7.06,6.57,14.1,9.93,21.12,1.81,3.69,8.09,14.52,7.41,18.27-1.59-3.32-3.84-7.18-5.63-10.46-1.63-4.62-4.65-9.88-6.61-14.46-2.76-6.45-5.35-12.89-8.19-19.3Z"/>
  <path class="st29" d="M70.92,212.67c1.68,3.51,3.37,6.47,7.49,4.35,1.56,2.78.17,5.07,2.01,7.27,2.74,1.16,5.46,1.2,8.43,1.53l1.38,1.65c-3.92,5.49-7.5,0-3.11,13.38l-.24.4c-9.11-3.07-18.13-6.5-27.28-9.59,3.7-7.36,6.74-12.32,11.32-18.97Z"/>
  <path class="st35" d="M479.13,194.86c6.15-1.32,15.08,2.69,20.24,6,1.28.83,2.55,1.68,3.8,2.55-11.64,3.29-23.18,6.9-34.63,10.81-4.98-3.09-14.9-.66-21.23-1.61,2.7-1.72,16.4-5.66,20.14-6.77,3.37-.83,6.72-1.76,10.04-2.77.8-.37,1.6-.71,2.43-1.02,1.96-2.97,1.63-4.62-.79-7.19Z"/>
  <path class="st35" d="M90.24,227.46c3.39,3.52,5.7,10.49,9.51,11.89,1.81-.05,1.68-.07,3.18-1.12,1.02,4.86,1.91,5.34,5.46,8.7-7.19-1.02-14.93-2.47-21.5-5.69l.24-.4c-4.39-13.39-.81-7.88,3.11-13.38Z"/>
  <path class="st9" d="M422.72,425.97c5.6,5.41,19.63,34.83,23.59,43.33l-1.47.6c-.09.88-.19,1.73-.41,2.59-5.74-10.86-11.53-23.1-17.57-33.58.58-.15.27,0,.83-.61-1.08-4.29-3.68-7.52-4.98-12.33Z"/>
  <path class="st38" d="M377.39,147.26c9.36,1.43,19.22,2.66,28.25,5.36-16.64,2.15-22.6.71-39.48-.45,3.44-.37,8.87-2.29,11.24-4.92Z"/>
  <path class="st38" d="M591.89,263.69c5.47.77,17.91,5.75,20.64,5.75.95.75,1.97,1.64,3,2.21v.26s-.62.78-.62.78c-3.11,2.33-8.4,4.61-12.11,6.63l-.75-.91.1-.3c.66-.2,1.24-.52,1.88-.83l.36-1.04c-.79-2.25-9.68-9.56-12.49-12.56Z"/>
  <path class="st11" d="M614.91,272.69c-1.88-.85-4.7-1.03-5.56-1.61,1.09-1.17,1.65-1.19,3.18-1.63.95.75,1.97,1.64,3,2.21v.26s-.62.78-.62.78Z"/>
  <path class="st35" d="M602.05,278.42l.75.91c-8.05,4.22-17.7,10-25.56,13.68-7.34,3.42-14.71,6.78-22.11,10.08-3.85,1.69-9.21,3.77-12.82,5.64l-.22-1.53c3.24-.82,16.36-7.32,19.86-9.05,13.14-6.52,27.21-12.84,40.09-19.73Z"/>
  <path class="st11" d="M745.15,393.92c4.41,4.32,21.78,28.11,24.69,33.67-.15-.04-1.47-.37-1.6-.45-4.54-2.82-17.75-21.4-19.92-25.52l.28-.49c2.27,2.11,5.95,9.52,8,10.25.93-3.1-9.88-11.83-11.46-17.45Z"/>
  <path class="st29" d="M77.24,193.56l.8.95c-3.5,6.78-2.93,12.05-1.92,19.35l-1.25.9-1.07-.3c-1.02-1.3-1.32-3.26-1.33-4.89-.04-6.7.32-11.01,4.78-16.02Z"/>
  <path class="st36" d="M448.3,473c2.89,5.52,5.83,10.99,8.43,16.65l-3.19-1.48c.06-2.09-1.18-4.08-3.1-4.83-1.82-2.22-3.47-5.41-2.77-8.31l.64-2.04Z"/>
  <path class="st36" d="M623.29,270.62c4.94,5.38,7.97,8.05,13.08,13.02-1.79-.38-9.03-5.42-11.91-6.81-.92-2.55-1.41-3.49-1.17-6.22Z"/>
  <path class="st38" d="M621.22,268.78c.66.57,1.47,1.24,2.07,1.85-.24,2.73.26,3.67,1.17,6.22-2.93-1.13-7.27-4.43-8.92-4.93v-.26c2.55.03,3.6-1.25,5.67-2.88Z"/>
  <path class="st29" d="M252.48,127.49c6.37.15,17.24,2.72,23.31,4.78l.27.36c-2.53-.2-3.59-.21-6.05-.92-3.26-.65-15.41-2.82-17.53-4.22Z"/>
  <path class="st38" d="M465.35,187.8c2.55.33,8.62,1.12,10.79,2-.3,1.39-1.23,1.4-2.57,1.71l-.51.65c-1.88-.49-6.2-2.91-7.71-4.37Z"/>
  <path class="st36" d="M779.47,447l1.13.03c.32,3.21,1.23,9.74-.69,12.31-.55-2.52-.39-9.36-.44-12.35Z"/>
  <path class="st11" d="M325.86,171.5c1.75-.71,4.93-1.97,6.7-1.63-1.05,1.46-4.75,2.2-6.52,2.36l-.18-.73Z"/>
  <path class="st11" d="M640.94,288.65l.89-.95c2.36.14,7.38,5.14,9.23,6.83l-.17,1.41-.38.18c2.23,3.04,4.94,4.49,5.84,7.9,16.31,17.09,33.39,33.57,49.01,51.43,9.78,11.17,19.2,23.39,28.55,34.98,3.52,3.67,14.68,20.03,17.31,24.91,2.65,3.38,5.12,7.93,7.95,11.67.33,1.72.38,3.06-.88,4.55-8,9.46-20.81,15.6-30.61,23.67-6.73,5.54-16.1,16.07-22.39,20.07-5.03,3.19-16.9,8.58-22.64,11.59-2.21,2.18-10.3,5.7-13.35,7.64-14.49,9.19-28.43,14.66-44.28,20.87-31.82,12.47-64.24,22.68-97.28,31.34-4.61,1.21-11.76,1.35-16.52,1.29-8.48-4.67-17.31-12.73-22.72-20.77-3.7-5.68-4.71-12.71-7.45-18.85-7.29-16.36-15.64-31.87-24.14-47.61-5.58-10.32-11.02-20.72-16.31-31.2-3.39-6.59-7.01-13.32-9.93-20.12-1.4-3.25-2.18-5.97-.72-9.4.8-1.87,3.06-3.05,4.95-3.58,9.64-2.89,19.29-5.47,28.97-8.24,17.18-4.92,34.68-9.74,51.32-16.27,4.99-1.96,9.75-4.04,14.83-5.68,5.91,3.23,23.09,17.39,27.03,22.67,14.47-6.71,24.54-6.74,38.85-18.9-1.76-8.28-9.05-15.04-11.9-25.27l.38-.29c4.89-3.78,13.88-7.91,16.71-10.19,2.3-1.95,19.49-13.59,21.96-14.33,4.12-3.57,8-6.55,12.62-9.43,1.46-.22,1.17-.21,2.59-.8l-1.5-2.57c.51-2.19,1.7-2.42.95-4.77-3.42-.55-4.19-.55-5.78-3.76,2.59-2.77,8.67-6.85,9.02-10.02Z"/>
  <path class="st39" d="M605.15,335.24c4.74.45,7.7-5.76,13.35-3.97,14.89,11.89,29.27,21.53,44.86,32.38,9.71,6.75,20.32,14.53,29.93,21.24,5.58,3.9,31.26,21.28,34.26,24.99-.49,1.73-.99,5.01-1.33,6.89-1.1-.7-5.74-3.64-6.59-3.91-4.87-1.52-9.52-1.78-14.2-4.26-8.48-4.47-16.1-10.27-24.82-14.44-1.34-.64-4.82-2.39-6.15-2.69-11.43-2.54-10.37,2.51-22.31-2.93-1.95,1.94-3.09,3.18-5.71,4.1-3.67,1.27-7.71,1.01-11.18-.73-3.08-1.51-7.07-5.45-4.4-8.92,3.12-4.05,10.79-1.75,15.43-2.35l.24-.83-.79-1.06c-.97-3.15-3.13-5.89-5.02-8.62-.08-.98.1-.5-.78-1.34-4.67-6.81-12.32-12.76-19.25-17.13-5.01-2.69-14.53-8.2-18.61-12.3-.98-.98-.7-1.9-.49-2.94,1.61-1.37,1.06-.94,3.55-1.19Z"/>
  <path class="st38" d="M640.94,288.65l.89-.95c2.36.14,7.38,5.14,9.23,6.83l-.17,1.41-.38.18c2.23,3.04,4.94,4.49,5.84,7.9,16.31,17.09,33.39,33.57,49.01,51.43,9.78,11.17,19.2,23.39,28.55,34.98,3.52,3.67,14.68,20.03,17.31,24.91l-.28.23c-1.8-.92-5.52.36-7.52.93-5.69-6.13-32.27-40.11-37.23-39.78l-1.44,1.86-.83.05c-1.08-5.47-60.66-66.61-68.26-68.05,1.46-.22,1.17-.21,2.59-.8l-1.5-2.57c.51-2.19,1.7-2.42.95-4.77-3.42-.55-4.19-.55-5.78-3.76,2.59-2.77,8.67-6.85,9.02-10.02Z"/>
  <path class="st29" d="M733.91,390.42l-1.55-.32c-6.31-5.28-10.91-11.79-16.47-17.68-3.28-3.27-7.24-5.96-10.39-9.36-17.45-18.76-34.81-37.64-53.14-55.55-1.9-1.86-4.03-4.08-2.52-6.76l1.03-.13c2.6.82,3.39,1.7,5.48,3.39,16.31,17.09,33.39,33.57,49.01,51.43,9.78,11.17,19.2,23.39,28.55,34.98Z"/>
  <path class="st11" d="M636.76,307.21c3.04-1.51,4.77-2.55,7.63-4.39-1.43,1.83-5.51,6.03-6.13,6.95l-1.5-2.57Z"/>
  <path class="st6" d="M623.03,327.16c5.77.92,16.26,9.62,21.41,13.29l28.45,19.99c13.88,9.89,29.82,19.08,41.37,31.54,4.39,4.73,12.96,13.16,16.18,18.6-1.18.37-1.39-.06-2.89-.7-3.01-3.7-28.68-21.08-34.26-24.99-9.61-6.71-20.22-14.49-29.93-21.24-15.59-10.85-29.97-20.49-44.86-32.38,1.66-1.77,2.45-2.77,4.53-4.11Z"/>
  <path class="st29" d="M635.66,310.58c7.6,1.45,67.18,62.59,68.26,68.05-3.23-1.26-7.54-4.84-10.32-7.07-18.33-14.76-38.14-27.5-56.98-41.59-3.41-2.55-7.03-5.22-10.64-7.46-1.93-.63-1.43-.61-2.96-2.51,4.12-3.57,8-6.55,12.62-9.43Z"/>
  <path class="st36" d="M759.16,427c.33,1.72.38,3.06-.88,4.55-8,9.46-20.81,15.6-30.61,23.67-6.73,5.54-16.1,16.07-22.39,20.07-5.03,3.19-16.9,8.58-22.64,11.59.86-7.3,17.79-13.4,23.68-17.15-1.93-1.73-3.81-3.38-5.65-5.23-6.85,4.3-48.47,29.06-53.43,29.12.92-1.84,26.11-15.4,29.96-17.74,20.88-12.66,41.69-25.49,62.88-37.62,10.97-4.82,8.53,1,19.09-11.25Z"/>
  <path class="st31" d="M647.24,493.61c-1.49-.82-1.81.05-2.99-1.55,3.26-3.62,19.91-11.11,25.31-14.35,18.24-10.94,35.88-22.65,53.87-33.97,2.91-1.83,11.8-8.56,14.48-8.41,1.45.82,1.51,1.38,2.17,2.92-21.18,12.14-42,24.96-62.88,37.62-3.85,2.33-29.04,15.89-29.96,17.74Z"/>
  <path class="st31" d="M601.08,334.33c2.3-1.95,19.49-13.59,21.96-14.33,1.53,1.9,1.02,1.88,2.96,2.51-1.34,1.7-1.89,2.74-2.97,4.65-2.08,1.34-2.87,2.34-4.53,4.11-5.65-1.79-8.61,4.42-13.35,3.97-1.96-.21-2.28-.2-4.07-.91Z"/>
  <path class="st29" d="M620.69,351.67c6.93,4.37,14.58,10.32,19.25,17.13-2.18-.47-14.65-14.01-18.68-15.83-.19-.43-.38-.87-.57-1.3Z"/>
  <path class="st33" d="M640.72,370.14c1.89,2.73,4.05,5.46,5.02,8.62-2.11-1.46-4.96-5.96-5.02-8.62Z"/>
  <path class="st37" d="M509.57,536.71c1.54-.22,3.98-.22,5.61-.28l.39.72.24-.07-.1.07.72-.27c-2.44,1.04-4.86,1.07-7.53,1.32-2.52.35-4.21.78-6.7.29v-.52c2.45-1.16,4.66-1.07,7.38-1.26Z"/>
  <path class="st8" d="M149.69,250.5c1.71-1.55,5.15-.95,7.59-.86,42.67,1.7,96.38,24.3,131.88,47.6,28.15,18.81,53.84,41.06,76.47,66.24,14.1,15.77,25.77,35.31,36.24,53.54,20.05,35.55,38.24,72.12,54.51,109.56,2.39,5.39,12.43,27.67,12.45,32.47-1.22-.04-.75.05-1.88-.58-2.13-1-3.89-1.63-4.95-3.88-5.91-12.49-9.89-26.23-15.89-38.66-21.71-45-42.71-91.11-72.19-131.69-2.19-3.02-5.15-6.22-6.3-9.75-20.96-25.93-45.54-48.72-72.98-67.66-2.88.12-9.8-5.4-12.6-7.28-5.9-4.02-12.05-7.67-18.41-10.91l-.87,1.63c4.23,2.79,8.88,4.63,12.82,7.51,10.07,7.36,22.34,13.92,31.14,22.77-3.16,10.56-5.44,20.68-7.7,31.46-1.39,6.64-3.36,13.17-4.67,19.87l-1.69,6.71c-20.38-17.06-41.18-37.13-61.53-55.04-2.54-.61-19.93-15.17-24.65-18.22,1.38-1.87,2.92-3.56,3.53-5.75l-.62-1.1c-5.3,7.35-12.13,18.94-16.88,24.97-.68.52-.96.75-1.58,1.3-3.62-4.49-7.14-9.06-10.54-13.72l-.8-.83-3.16,1.66c-.61.47-1.46,1.07-1.98,1.6l-1.02-.17c-3.45-2.63-11.55-18.38-13.23-22.85-1.75-2.13-5.23-12.77-5.94-15.91-2.6-9.59-3.03-14.51-4.57-24.04Z"/>
  <path class="st1" d="M149.69,250.5c1.71-1.55,5.15-.95,7.59-.86,42.67,1.7,96.38,24.3,131.88,47.6,28.15,18.81,53.84,41.06,76.47,66.24,14.1,15.77,25.77,35.31,36.24,53.54,20.05,35.55,38.24,72.12,54.51,109.56,2.39,5.39,12.43,27.67,12.45,32.47-1.22-.04-.75.05-1.88-.58-2.13-1-3.89-1.63-4.95-3.88-5.91-12.49-9.89-26.23-15.89-38.66-21.71-45-42.71-91.11-72.19-131.69-2.19-3.02-5.15-6.22-6.3-9.75-20.96-25.93-45.54-48.72-72.98-67.66-2.88.12-9.8-5.4-12.6-7.28-5.9-4.02-12.05-7.67-18.41-10.91-24.21-15.53-68.03-30.76-96.93-30.81-1.15,1.34-2.17,2.51-3.39,3.77-2.03,1.32-2.35,1.86-3.47,4.11l-1.13.98-.62-.24c-1.87,2.74-1.82,4.49-2.23,7.82l-1.6.28c-2.6-9.59-3.03-14.51-4.57-24.04Z"/>
  <path class="st7" d="M149.69,250.5c7.9,2.08,20.55,1.53,29.65,3.44,34.29,6.86,66.99,20.08,96.41,38.98,4.7,3.02,14.99,9.9,18.9,13.91-2.88.12-9.8-5.4-12.6-7.28-5.9-4.02-12.05-7.67-18.41-10.91-24.21-15.53-68.03-30.76-96.93-30.81-1.15,1.34-2.17,2.51-3.39,3.77-2.03,1.32-2.35,1.86-3.47,4.11l-1.13.98-.62-.24c-1.87,2.74-1.82,4.49-2.23,7.82l-1.6.28c-2.6-9.59-3.03-14.51-4.57-24.04Z"/>
  <path class="st35" d="M367.62,374.48c21.79,16.43,93.48,158.17,99.33,183.98-2.13-1-3.89-1.63-4.95-3.88-5.91-12.49-9.89-26.23-15.89-38.66-21.71-45-42.71-91.11-72.19-131.69-2.19-3.02-5.15-6.22-6.3-9.75Z"/>
  <path class="st1" d="M159.83,265.71l.76.89c-.7,11.48,6.09,24.84,12.64,33.78,1.4,1.92,5.53,7.9,6.35,9.83l-3.16,1.66c-.61.47-1.46,1.07-1.98,1.6l-1.02-.17c-3.45-2.63-11.55-18.38-13.23-22.85-1.75-2.13-5.23-12.77-5.94-15.91l1.6-.28c.41-3.33.36-5.08,2.23-7.82l.62.24,1.13-.98Z"/>
  <path class="st38" d="M160.2,290.45l.23-1.14-.34-.08-.38-.61.46-1.17-.53.39.51-.58.18,1.36c1.04,1.14.43.76,1.9,1.21,3.22,4.56,10.44,18.62,14.2,22.05-.61.47-1.46,1.07-1.98,1.6l-1.02-.17c-3.45-2.63-11.55-18.38-13.23-22.85Z"/>
  <path class="st36" d="M154.26,274.54l1.6-.28c.41-3.33.36-5.08,2.23-7.82l.62.24c-3.44,9.17-.36,14.57,3.52,23.15-1.47-.45-.85-.07-1.9-1.21l-.18-1.36-.51.58.53-.39-.46,1.17.38.61.34.08-.23,1.14c-1.75-2.13-5.23-12.77-5.94-15.91Z"/>
  <path class="st37" d="M231.13,323.55c3.13.05,15.99,11.02,19.18,13.44,10.27,7.78,20.73,15.68,30.53,24.07,2.59,2.21,12.27,8.68,13.5,10.81l-1.69,6.71c-20.38-17.06-41.18-37.13-61.53-55.04Z"/>
  <path class="st38" d="M227.38,273.12c-1.34,3.54-14.58,20.11-18,25.37-5.3,7.35-12.13,18.94-16.88,24.97-.08-.17-.2-.33-.23-.51-.58-4.39,29.88-44.21,35.11-49.83Z"/>
  <path class="st33" d="M159.83,265.71c1.12-2.25,1.44-2.79,3.47-4.11-.84,1.51-2.01,3.47-2.72,5l-.76-.89Z"/>
  <path class="st11" d="M185.48,269.1c9.74,1,21.89,3.9,31.01,7.67-2.35,3.08-15.08,19.46-15.92,21.63-.46.43-1.03.89-1.52,1.29-2.32-.18-4.23-2.31-6.09-3.9-5.28-2.32-5.1-5.15-11.26-5.47l-1.04.57c-1.15,5.47,12.44,13.18,11.83,17.8-5.71,3.39-17.56-19.3-19.6-23.48,3.96-7.24,6.15-10.94,12.59-16.1Z"/>
  <path class="st37" d="M192.96,295.79c.84-.97.86-1.45,1.73-1.44,1.9.02,4.45,2.71,5.89,4.05-.46.43-1.03.89-1.52,1.29-2.32-.18-4.23-2.31-6.09-3.9Z"/>
  <path class="st39" d="M519.53,749.22c-5.37,10.76-4.91,17.55-5.28,28.97-1.83-.63-1.23-3.85-1.22-5.59.12-21.7,13.46-50.09,39.28-33.24,23.09,15.07,33.28,42.28,39.85,67.91,4.7,19.78,4.67,37.04-.4,56.64-1.97,5.51-3.57,10.62-7.54,15.05-1.75,1.97-3.5,3.52-6.1,4.3-3.14.96-6.99,1.7-10.21.7-4.48-1.55-6.74-3.02-10.49-5.8-3.94-1.73-12.53-9.15-15.44-12.36-4.55-4.43-8.11-10.48-11.32-15.91-1.16-2.23-2.29-4.48-3.41-6.73-.9-1.87-2.45-4.97-1.76-6.98l1.56-.74.11-1.39-1.21-1.64-.29-.71-.64-.16-1.53,1.82-.7-.48c-5.32-15.62-9.61-29.81-9.95-46.58l.29-2.7,2.45-1.6c.58-2.99.64-7.02.91-10.19.51-5.67,1.7-11.26,3.55-16.65,3.43,4.22,6.73,8.26,9.97,12.62-2.74,7.65-3.12,15.5-.22,23.22.92.53,3.65,2.01,4.29,2.65,3.32,1.07,6.47,1.93,9.84,2.85l7.46,2.38c-1.93-12.24-14.08-23.04-21.15-33.33-3.54-5.15-7.29-11.55-10.71-16.34Z"/>
  <path class="st39" d="M513.15,783.6l2.45-1.6c.58-2.99.64-7.02.91-10.19.51-5.67,1.7-11.26,3.55-16.65,3.43,4.22,6.73,8.26,9.97,12.62-2.74,7.65-3.12,15.5-.22,23.22.92.53,3.65,2.01,4.29,2.65,3.32,1.07,6.47,1.93,9.84,2.85l7.46,2.38,1.04.07c1.02,1.54,1.7,1.68,3.37,2.46-.52,2.54-2.78,3.18-2.85,5.56,1.19,1.35,4.24.58,5.68-.22l.69-.21c.15-1.28.23-1.38.6-2.63l.68-.21.6,1.21-.16,3.5-.83.1c-4.47.53-4.77.04-8.45,4.01-.84.91-1.93,1.82-2.93,2.57-2.1,1.56-20.08,17.23-20.89,18.45l-.8.51-1.21-1.64-.29-.71-.64-.16-1.53,1.82-.7-.48c-5.32-15.62-9.61-29.81-9.95-46.58l.29-2.7Z"/>
  <path class="st37" d="M513.68,786.34c4.33,1.88,8.3,4.55,12.49,6.75l.16,2.18c-.34,2.26,1.06,3.76.32,5.59l-1.16-.71c-.83,1.45-.56.91-.77,2.72.82,4.16,3.36,14.44,3.53,17.79-.02,1.96,1.59,4.12.85,5.48-.9,1.65-1.66,1.61-1.85,3.78l-.89,1.32-.41,1.16-.29-.71-.64-.16-1.53,1.82-.7-.48c-5.32-15.62-9.61-29.81-9.95-46.58l.82.05Z"/>
  <path class="st39" d="M513.68,786.34c4.33,1.88,8.3,4.55,12.49,6.75l.16,2.18c-.34,2.26,1.06,3.76.32,5.59l-1.16-.71c-.83,1.45-.56.91-.77,2.72-.02.51.03.19-.4.88-1.1-1.42-2.08-7.85-3.15-10.8-1.96-1.38-3.98-2.89-5.93-4.31-.66-.39-1.1-1.5-1.56-2.29Z"/>
  <path class="st31" d="M513.15,783.6l2.45-1.6c.58-2.99.64-7.02.91-10.19.51-5.67,1.7-11.26,3.55-16.65,3.43,4.22,6.73,8.26,9.97,12.62-2.74,7.65-3.12,15.5-.22,23.22.92.53,3.65,2.01,4.29,2.65.6,1.52.95,1.63,2.18,2.72-5.28-2.23-18.73-9.43-23.12-12.77Z"/>
  <path class="st38" d="M513.15,783.6c4.39,3.34,17.85,10.54,23.12,12.77-1.23-1.09-1.58-1.2-2.18-2.72,3.32,1.07,6.47,1.93,9.84,2.85l7.46,2.38,1.04.07c1.02,1.54,1.7,1.68,3.37,2.46-.52,2.54-2.78,3.18-2.85,5.56,1.19,1.35,4.24.58,5.68-.22l.69-.21c.15-1.28.23-1.38.6-2.63l.68-.21.6,1.21-.16,3.5-.83.1c-4.47.53-4.77.04-8.45,4.01-.84.91-1.93,1.82-2.93,2.57-2.1,1.56-20.08,17.23-20.89,18.45l-.8.51-1.21-1.64.41-1.16.89-1.32c6.9-6.17,18.31-16.26,24.29-22.83-6.06-3.76-14.25-7.36-21.02-11.34l-.04,1.42c-1.15-.82-2.82-1.38-4.15-1.91l-.16-2.18c-4.18-2.2-8.16-4.87-12.49-6.75l-.82-.05.29-2.7Z"/>
  <path class="st31" d="M536.28,796.37c-1.23-1.09-1.58-1.2-2.18-2.72,3.32,1.07,6.47,1.93,9.84,2.85-2.65,2.14.29.28-.91,2.77-1.97-.17-4.87-1.92-6.75-2.9Z"/>
  <path class="st11" d="M526.17,793.09c1.57.83,3.05,1.48,4.36,2.66l-.04,1.42c-1.15-.82-2.82-1.38-4.15-1.91l-.16-2.18Z"/>
  <path class="st4" d="M526.33,795.27c1.33.53,3.01,1.09,4.15,1.91.61,8.99,2.17,15.68,4.52,24.35-1.32,1.04-2.65,2.03-3.84,3.21l-2.91-4.08c-.17-3.35-2.72-13.64-3.53-17.79.21-1.81-.06-1.27.77-2.72l1.16.71c.74-1.83-.66-3.33-.32-5.59Z"/>
  <path class="st37" d="M519.53,749.22c-5.37,10.76-4.91,17.55-5.28,28.97-1.83-.63-1.23-3.85-1.22-5.59.12-21.7,13.46-50.09,39.28-33.24,23.09,15.07,33.28,42.28,39.85,67.91,4.7,19.78,4.67,37.04-.4,56.64l-.92-1.79c2.42-10.4,3.11-16.91,3.13-27.67-3.88-2.22-12.81-7.27-15.6-10.53,1.57.55,1.54.77,3.06.53-.62-1.6-5.03-5.67-6.52-7.15,1.14,0,5.09,4.04,6.46,5.06,4.07,3.04,8.27,5.83,12.36,8.83-.71-14.17-3.44-28.17-8.11-41.58l-.68-1.41c-1.08-5.73-12.17-29.57-16.84-31.52l-1.04-1.25c-.04-1.63-3.52-5.01-4.85-6.33-.16,4.27-.05,13.09-1.42,16.7-.83-2.07.61-14.85.79-17.95-4.61-3.88-15.92-12.89-22.43-11.41-.78,4.3,2.34,14.41,3.69,18.59l.62.38c7.08,4.31,6.59,12.63,11.33,20.32-1.25,1.21-.52.89-2.25,1.03-1.65-.8-1.67-.76-3.09-2.07l-.97.03c-1.94-2.52-1.89-6.48-4.16-10.22-1.93-3.33-5.86-23.38-6.44-28.16-2.18.22-2.74.21-4.77.93l.35.61c-8.14,3.96-6.52,3.73-11.83,9.97,4.05,8.97,8.67,12.59,12.63,19.65.61,3.11,6.96,10.82,9.45,13.08l.84.14.92-.93c1.1.8.8.27,1.11,1.52-.88.65-1.03.53-1.46,1.5,3.3,5.08,6.9,9.98,7.31,16.16l-1.04-.07c-1.93-12.24-14.08-23.04-21.15-33.33-3.54-5.15-7.29-11.55-10.71-16.34Z"/>
  <path class="st31" d="M527.96,833.54c.81-1.21,18.79-16.89,20.89-18.45-.08,3.07-.69,6.99-1.69,9.9-1.34,1.28-5.71,4.64-6,5.71l.07.17c1.97,3.23,6.43,9.97,7.24,13.43.23,1-.03.61.32,1.05-.34,1.51-.32,2.17-1.1,3.46-.97,3.26-1.9,6.48-3,9.7-.26,1.2-.62,2.62-.77,3.81l-.04.38c.09,1.01.15,2.18.34,3.16l-2.25-.08c-4.55-4.43-8.11-10.48-11.32-15.91-1.16-2.23-2.29-4.48-3.41-6.73-.9-1.87-2.45-4.97-1.76-6.98l1.56-.74.11-1.39.8-.51Z"/>
  <path class="st38" d="M527.96,833.54c.9,3.14,10.72,18.99,13.23,23.18,2.05,2.39.61,4.99,2.68,5.99.09,1.01.15,2.18.34,3.16l-2.25-.08c-4.55-4.43-8.11-10.48-11.32-15.91-1.16-2.23-2.29-4.48-3.41-6.73-.9-1.87-2.45-4.97-1.76-6.98l1.56-.74.11-1.39.8-.51Z"/>
  <path class="st18" d="M532.39,847.52c1.68,2.38,6.2,9.45,8.46,10.43l.35-1.23c2.05,2.39.61,4.99,2.68,5.99.09,1.01.15,2.18.34,3.16l-2.25-.08c-4.55-4.43-8.11-10.48-11.32-15.91l1.74-2.37Z"/>
  <path class="st31" d="M530.65,849.89c-1.16-2.23-2.29-4.48-3.41-6.73-.9-1.87-2.45-4.97-1.76-6.98l1.56-.74c1.53,4.82,2.53,7.84,5.34,12.09l-1.74,2.37Z"/>
  <path class="st37" d="M541.22,830.87c1.97,3.23,6.43,9.97,7.24,13.43.23,1-.03.61.32,1.05-.34,1.51-.32,2.17-1.1,3.46-1.29,1.24-1.6,2.44-3.01,3.12,0-.64,0-3.79-.25-4.15-2.39-3.28-5.7-7.03-8.34-10.04-.97-.56-.62-.29-1.27-1.28,2.21-1.79,4.51-3.47,6.41-5.6Z"/>
  <path class="st39" d="M536.09,837.76c2.64,3.01,5.95,6.76,8.34,10.04.26.36.26,3.51.25,4.15,1.41-.68,1.72-1.89,3.01-3.12-.97,3.26-1.9,6.48-3,9.7-.15-7.17-6.93-13.35-8.6-20.76Z"/>
  <path class="st11" d="M545.36,861.35c.18-3.36,10.68-36.19,12.44-39.95l1.03-.1c1.98,1,2.58,2.01,4.07,3.76.09,2.69.01,5.52-.02,8.22.9,2.33,1.23,4.24,1.54,6.73-.1,10.73-.06,21.46.11,32.18l-1.26.05c-2.12-2.64-9.8-6.17-13.17-7.98-.49-.16-3.53-1.92-4.17-2.28l-.58-.62Z"/>
  <path class="st39" d="M558.48,866.26c-.11-3.95-.73-8.49-.97-12.32-.28-4.37.21-26.3,3.92-28.1-.44,3.21.43,4.17,1.45,7.44.9,2.33,1.23,4.24,1.54,6.73-.1,10.73-.06,21.46.11,32.18l-1.26.05c-2.12-2.64-9.8-6.17-13.17-7.98,1.78-.61,6.21,1.27,8.38,2.01Z"/>
  <path class="st36" d="M564.42,840.01c.45-1.35.67-2.61,1.68-3.55,1.5,2.13,0,7.47,1.64,9.52l.99.1c.93,3.64-.81,25.36-.61,31.51-3.86,3.83-6.74.23-10.7.58-3.94-1.73-12.53-9.15-15.44-12.36l2.25.08c-.19-.98-.25-2.15-.34-3.16l.04-.38,1.44-.97.58.62c.64.36,3.68,2.11,4.17,2.28,3.36,1.81,11.05,5.35,13.17,7.98l1.26-.05c-.17-10.72-.21-21.46-.11-32.18Z"/>
  <path class="st11" d="M545.36,861.35l.58.62c-.42,1.53-.57,2.93-1.72,3.89-.19-.98-.25-2.15-.34-3.16l.04-.38,1.44-.97Z"/>
  <path class="st11" d="M564.53,872.19c0,1.86.26,2.58-.48,4.14-.77-1.36-.67-2.51-.77-4.09l1.26-.05Z"/>
  <path class="st38" d="M561.06,808.8c1.51,2.1,3.45,7.48,3.78,10.04l2.86-.36c.66.89.48.43.64,1.34,1.75,2.46,4.99,5.47,5.02,8.15l-.78,1.09-.83.78.03,2.26c-1.03-.51-1.54-.85-2.54-1.45-.22-1.05-.38-2.07-.43-3.14l-.81-1.19c-.49,4.58,1.26,8.01,1.57,12.43.17,2.56-1.6,3.9-.85,7.32l-.99-.1c-1.63-2.05-.14-7.39-1.64-9.52-1.01.95-1.23,2.2-1.68,3.55-.31-2.48-.65-4.4-1.54-6.73.03-2.7.11-5.53.02-8.22-1.48-1.74-2.08-2.76-4.07-3.76l-1.03.1c-1.76,3.76-12.26,36.59-12.44,39.95l-1.44.97c.15-1.19.51-2.61.77-3.81,1.1-3.22,2.03-6.45,3-9.7.78-1.29.76-1.95,1.1-3.46,1.83-7.06,7.98-23.85,8.51-30.07-.75-.87-.6-.63-1.16-1.66,1.14-.28,1.85-.5,2.97-.85,1.25-1.07,1.23-1.64,1.61-3.24l.34-.74Z"/>
  <path class="st38" d="M561.06,808.8c1.51,2.1,3.45,7.48,3.78,10.04l-.66,2.19c-7.14-5.69-3.42-4.82-3.46-11.49l.34-.74Z"/>
  <path class="st11" d="M564.84,818.84l2.86-.36c.66.89.48.43.64,1.34-.46.97-.84,1.74-1.36,2.67-1.8.86-1.45,1.07-2.99.73l-.33-.67.53-1.52.66-2.19Z"/>
  <path class="st38" d="M533.47,737.88c.67.35,1.41.47,1.4,1.17-.12,15.6-1.88,22.93,7.79,36.23-3.24-2.75-5.4-4.76-8.39-7.79-3.96-7.06-8.58-10.68-12.63-19.65,5.31-6.23,3.69-6.01,11.83-9.97Z"/>
  <path class="st35" d="M572.58,829.05c3.96,5.89,7.13,12.53,11.63,18.34,5.89,7.59,6.88,9.01,3.14,17.8-.47-.36-1.51-.99-1.7-1.55-2.96-8.27-6.18-16.21-10.3-23.99-1.27-2.39-2.43-5.08-3.56-7.57l-.03-2.26.83-.78Z"/>
  <path class="st31" d="M571.63,873.45l2.45-.94c.27,4.12-1.47,2.73-1.3,5.77,2.62.48,6.9-.71,8.42-2.99l.79.36,1.48-.87c.36,1.43.3,3.11.75,4.17-1.75,1.97-3.5,3.52-6.1,4.3-3.14.96-6.99,1.7-10.21.7-4.48-1.55-6.74-3.02-10.49-5.8,3.96-.35,6.84,3.24,10.7-.58,1.28-.04.97-.04,2.22-.43.85-1.47.91-2.08,1.3-3.7Z"/>
  <path class="st38" d="M567.9,883.96c1.69-1.02,8.34-1.67,10.21-.7-3.14.96-6.99,1.7-10.21.7Z"/>
  <path class="st38" d="M567.07,755.42l1.04,1.25c-.07,4.11.71,32.53-.31,33.94-1.4.11-2.43-.73-3.72-1.47-.23-.91,2.85-29.28,2.99-33.72Z"/>
  <path class="st38" d="M568.65,797.36c3.87-2.7,11.99-7.42,16.29-9.17l.68,1.41c-2.67,3.58-5.91,7.88-10.01,8.68-2.6.51-1.99,2.71-3.37,5.76l-.62.17c-1.04-2.26-2.03-4.55-2.97-6.86Z"/>
  <path class="st36" d="M569.24,830.65c.99.6,1.51.93,2.54,1.45,1.12,2.49,2.29,5.18,3.56,7.57,4.13,7.79,7.34,15.72,10.3,23.99.2.56,1.23,1.18,1.7,1.55l-.83,1.59-.73.12c-2.54-3.9-15.15-31.5-16.54-36.26Z"/>
  <path class="st36" d="M576.07,870.91c2.25-1.54,6.37-5.22,8.55-2.17-.03,2.72-1.73,4.35-3.42,6.55-1.52,2.28-5.79,3.47-8.42,2.99-.17-3.04,1.57-1.65,1.3-5.77,1.18-.57,1.1-.6,1.98-1.6Z"/>
  <path class="st31" d="M571.63,873.45c1.3-5.69.99-12.92.89-18.86,4.48,9.35,1.79,9.99,3.55,16.32-.88,1-.8,1.03-1.98,1.6l-2.45.94Z"/>
  <path class="st38" d="M590.84,862.11l.92,1.79c-1.97,5.51-3.57,10.62-7.54,15.05-.45-1.07-.39-2.74-.75-4.17,2.27-4.17,5.01-8.39,7.37-12.67Z"/>
  <path class="st31" d="M558.64,806.74c-.6-2.79-1.32-4.88,1.66-6.39l.96.47c.65,1.53.27,2.43-.05,4.08l-.6-1.21-.68.21c-.38,1.25-.46,1.34-.6,2.63l-.69.21Z"/>
  <path class="st35" d="M544.33,764.49c2.27,3.74,2.22,7.7,4.16,10.22.23,1.56.52,1.34-.01,2.32l-.72-.41c-1.84-4.25-2.59-7.62-3.43-12.12Z"/>
  <path class="st11" d="M579.44,798.16c2.83.13,6.03.88,6.88,3.86-.55,1.75-.73,1.82-1.79,3.26-.65.76-1.22,1.46-1.86,2.23-1.7.26-.95.43-2.35-.51-1.48-2.78-1.09-5.79-.88-8.85Z"/>
  <path class="st31" d="M574.71,808.1c6.87,2.03,8.14,4.15,6.88,10.88-1.48-.79-5.1-3.54-6.06-4.91-1.85-2.61-1.28-3.18-.82-5.97Z"/>
  <path class="st36" d="M560.67,767.34c.6,2.03-.72,21.07-.92,24.66-1.68-3.07-.43-21.11.92-24.66Z"/>
  <path class="st38" d="M548.27,781.3c2.03,1.43,7.32,9.33,6.91,11.98-2.35-2.22-3.32-2.97-4.71-5.85l-.32-.66c-1.16-2.42-1.34-2.8-1.89-5.48Z"/>
  <path class="st11" d="M570.42,814.61l.61-.34c2.22.39,2.95,1.48,3.85,3.34-1.7-.93-3.38-1.56-4.47-2.99Z"/>
  <path class="st36" d="M75.48,447.31c.05-13.29-.58-30.79,9.4-40.96,10.68-10.89,26.33-2.9,34.7,6.8,19.89,23.06,30.86,56.75,30.45,87.03-.3,10.04-2.44,25.7-10.29,32.61-4.51,3.98-7.83,4.35-13.38,4.32-.56-.2-2.28-.57-2.95-.73-9.06-3.01-13.1-6.66-19.57-13.7-.81-.86-2.01-2.41-2.8-3.38-4.71-5.76-7.85-11.37-11.2-17.95-1.03-2.07-2.27-4.09-2.51-6.33l-1.1-1.99c-4.89-8.93-9.57-30.31-10.43-40.54-.42-1.68-.31-3.41-.33-5.18Z"/>
  <path class="st17" d="M93.28,404.46l3.19-.16,1.22.35c7.88.02,14.44,4.94,19.94,10.19-1.12,6.39-1.17,20.97-1.23,27.89-.49,6.2-2.02,12.39,1.06,17.06-.39,1.66-.32,1.18-1.74,2.57l-1.16.42c-1.76-1.18-1.83-1.29-3.16-2.98l-.89.3c-2.03-.53-5.11-1.74-7.17-2.47-.76,2.03-.45,1.6.09,4.12l.42.12.2-2.31.64-.47c2.91.5,5.36,1.63,7.64,3.5l.28.78c-1.2.77-1.4.57-2.89.51-.76-.73-1.19-1.17-2.02-1.83,1.55,2.03,4.74,5.56,4.67,7.92-3.13,2.84-11.08,9.44-13.12,12.49-2.11,2.58-7.95,7.23-11.25,7.81-.7-.45-.65-.66-1.15-1.51-.09,1.11-.12,2.2-.08,3.31l-.52.92c-4.89-8.93-9.57-30.31-10.43-40.54-.42-1.68-.31-3.41-.33-5.18l1.01-1.42c-.9-11.85,1.49-21.92,6.04-32.67,3.28-4.95,5.61-6.3,10.74-8.75Z"/>
  <path class="st39" d="M97.69,404.66c7.88.02,14.44,4.94,19.94,10.19-1.12,6.39-1.17,20.97-1.23,27.89-.49,6.2-2.02,12.39,1.06,17.06-.39,1.66-.32,1.18-1.74,2.57l-1.16.42c-1.76-1.18-1.83-1.29-3.16-2.98.09-2.41-1.08-2.03-.25-4.08l2.32-.75-1.04-.2c-.96-.91-1.23-1.39-1.65-2.69-.72-2.24-4.1-7.08-5.67-8.8l-.47.26c.74-1.44.42-.82,2.03-1.91-3.76-9.16-5.36-19.69-8.55-28.82-.17-2.38-1.09-6.07-1.65-8.52l1.22.35Z"/>
  <path class="st37" d="M96.47,404.31l1.22.35c.53,2.98,1.65,11.87,3.49,13.68l1.14-.59.15.91-1.31.61c.26,6.37,6.62,19.52,5.51,22.39-3.76-9.16-5.36-19.69-8.55-28.82-.17-2.38-1.09-6.07-1.65-8.52Z"/>
  <path class="st37" d="M105.12,443.3c1.48-.05,1.38-.35,2.14.48,2.58,2.79,5.79,6.6,6.57,10.32l-.36.89-1.04-.2c-.96-.91-1.23-1.39-1.65-2.69-.72-2.24-4.1-7.08-5.67-8.8Z"/>
  <path class="st36" d="M75.81,452.48c3.94-1.11,3.91-.33,7.04,2.24.94,2.62,1.86,5.26,2.76,7.9-.23,4.39-1.6,12.8,3.08,15.04-.51,1.36,1.38,4.73,2.13,6.19l-1.59,1.39-1.55,2.81-.84.73c-.09,1.11-.12,2.2-.08,3.31l-.52.92c-4.89-8.93-9.57-30.31-10.43-40.54Z"/>
  <path class="st36" d="M87.68,488.05c-.65-1.44-1.13-3.96-.12-5.31,1.35.77.95.65,1.67,2.5l-1.55,2.81Z"/>
  <path class="st31" d="M79.63,468.34c2.15,1.46,3.85,8.12,4.5,10.71-.27.85-.3,1.17-.22,2.06l-.15.17c-1.24-.93-3.61-10.85-4.14-12.94Z"/>
  <path class="st39" d="M92.23,458.09c3.59,2,15.12,6.95,16.23,9.9-.85,3.28-8.47,9.71-11.27,12.37l-.79-1.3c-2.95-7.67-3.78-12.77-4.16-20.97Z"/>
  <path class="st39" d="M82.54,413.22l.89,2.09c-.93,1.36-1.03,1.53-1.14,3.17.76,1.89,3.05,4.85,4.46,7.75l-.47-.21.32-.24-.85-.15c-1.6-1.33-1.72-1.92-2.67-3.85l-.92-.59c-5.4,5.16-2.45,22.07-4.53,24.59l-1.13.11c-.9-11.85,1.49-21.92,6.04-32.67Z"/>
  <path class="st39" d="M93.28,404.46l3.19-.16c.55,2.45,1.48,6.14,1.65,8.52-.43-.29-.2-.1-.7-.7l-.42-.51-.35.23.52,1.3c-2.92,8.08-.68,12.66,1.44,20.1-6.3-4.92-2.54-22.62-5.33-28.77Z"/>
  <path class="st39" d="M103.34,457.65c-4.81-1.86-7.25-2.83-11.69-5.35,4.76.79,7.8,5.19,11.18,2.81,1.46-1.03,2.68-2.67,4.29-2.71,1.53,1.03,3.05,6.03,3.39,7.72-2.03-.53-5.11-1.74-7.17-2.47Z"/>
  <path class="st31" d="M85.61,462.62c1.07.72.66.64,1.83.85-1.39,4.84,2.27,9.77,1.26,14.19-4.69-2.24-3.32-10.65-3.08-15.04Z"/>
  <path class="st38" d="M87.43,463.47c1.39,3.76,3.4,14.84,4.42,19.46l-1.03.92c-.75-1.47-2.64-4.83-2.13-6.19,1.02-4.42-2.65-9.35-1.26-14.19Z"/>
  <path class="st11" d="M96.39,479.06l.79,1.3c-1.38,1.46-8.39,8.68-9.19,9.94-.7-.45-.65-.66-1.15-1.51l.84-.73,1.55-2.81,1.59-1.39,1.03-.92c1.66-.97,3.49-2.26,4.54-3.87Z"/>
  <path class="st38" d="M84.01,452.44c2.84.78,3.76,1.2,5.44,3.6-2.29-.96-3.72-1.85-5.44-3.6Z"/>
  <path class="st39" d="M85.75,420.37c2.02,1.36,2.14,2.72,2.43,4.96-1.03-1.56-2.41-3.2-2.43-4.96Z"/>
  <path class="st14" d="M105.02,522.15c-.21-.56-.62-1.76-.47-2.28,1.55-5.52,9.98-37.24,12.08-39.33l2.77,2.04c.67-.42.5-.4.97-1.15,2.17-.91,1.88.52,4.59.86.15,1.21.33,2.41.54,3.61l.51-.03c3.07,8.38,7.36,17,10.11,24.64,1.77,3.83,3.5,7.54,5.11,11.45-.88-.16-1.93-.45-2.74-.3-2.49,2.44-9.22,9.68-13.01,7.92-.14.8-.17,1.56-.18,2.38-.69.8-.52.34-.51,1.39l.32-.57-.28.86-.22.03c-.62-2.48-.33-4.26-.88-6.56l-.3,1.45-.55.36c-.68-1.79-.57-2.08-.44-3.93-.98-.52-2.55-1.19-3.6-1.68,2.92,2.35,3.61,6.49,4.41,9.97.22.97-.26,1.73.15,3.11-9.06-3.01-13.1-6.66-19.57-13.7l1.17-.52Z"/>
  <path class="st39" d="M125.51,485.89l.51-.03c3.07,8.38,7.36,17,10.11,24.64,1.77,3.83,3.5,7.54,5.11,11.45-.88-.16-1.93-.45-2.74-.3-2.49,2.44-9.22,9.68-13.01,7.92l-.15-5.01-.55-12.21c-.11-5.71.14-13.76.61-19.51l-.3-2.37c-.28-2.28-.43-2.56.4-4.6Z"/>
  <path class="st11" d="M125.4,492.86c3.82,6.15,2.44,21.72.82,28.7-.24,1.02-.53,2.03-.88,3.02l-.55-12.21c-.11-5.71.14-13.76.61-19.51Z"/>
  <path class="st36" d="M108.5,516.94c3.15,2.47,6.78,4.54,10.36,6.35,2.92,2.35,3.61,6.49,4.41,9.97.22.97-.26,1.73.15,3.11-9.06-3.01-13.1-6.66-19.57-13.7l1.17-.52c1.5-1.52,2.4-3.35,3.48-5.21Z"/>
  <path class="st13" d="M116.63,480.54l2.77,2.04c.67-.42.5-.4.97-1.15,2.17-.91,1.88.52,4.59.86.15,1.21.33,2.41.54,3.61-.84,2.04-.68,2.31-.4,4.6l.3,2.37c-.47,5.74-.72,13.79-.61,19.51l.55,12.21.15,5.01c-.14.8-.17,1.56-.18,2.38-.69.8-.52.34-.51,1.39l.32-.57-.28.86-.22.03c-.62-2.48-.33-4.26-.88-6.56l-.3,1.45-.55.36c-.68-1.79-.57-2.08-.44-3.93.81-2.33-.49-8.5.04-13.04-.2-7.4-.62-20.03-2.32-26.91-.92,1.61-1.86,3.22-2.81,4.81,2.39-5.86,2.56-4.57-.73-9.29Z"/>
  <path class="st36" d="M125.1,490.49l.3,2.37c-.47,5.74-.72,13.79-.61,19.51-1.17-2.03-.69-15.45-.87-18.61-.04-.77.78-2.5,1.18-3.26Z"/>
  <path class="st11" d="M122.5,511.93c.79,3.81.91,10.96,1.25,15.17l-.3,1.45-.55.36c-.68-1.79-.57-2.08-.44-3.93.81-2.33-.49-8.5.04-13.04Z"/>
  <path class="st37" d="M123.69,423.28l1.25-.23c-1.58,7.3-.16,20.9-1.3,28.82-2.5.55-3.26-3.52-5.85-.55-.09.39-.64,2.74-.5,3.18,2.05,6.7,1.86,13.37,3.8,19.87.74,2.47.18-.75,1.02,1.4.65,1.67,1.18,3.57,1.62,5.21,1.86-.38,1.18.09,2.25-1.23.22-2.07,0-2.63-.42-4.72.8-1.17.93-1.4,1.2-2.79v.08c1.36,4.4,5.11,4.87,6.42,7.1-1.8,2.49-1.87,1.39-3.85,2.92-.79-.24-2.12-1.75-2.83-2.44-1.06.48-.91.92-1.52,2.38-2.71-.34-2.42-1.77-4.59-.86-.48.76-.3.73-.97,1.15l-2.77-2.04c-2.11,2.08-10.53,33.81-12.08,39.33-.15.52.26,1.72.47,2.28l-1.17.52c-.81-.86-2.01-2.41-2.8-3.38-4.71-5.76-7.85-11.37-11.2-17.95-1.03-2.07-2.27-4.09-2.51-6.33l-1.1-1.99.52-.92c-.04-1.11,0-2.2.08-3.31.5.85.45,1.06,1.15,1.51,3.31-.58,9.14-5.23,11.25-7.81,2.05-3.05,9.99-9.65,13.12-12.49.07-2.37-3.12-5.89-4.67-7.92.83.66,1.26,1.1,2.02,1.83,1.49.06,1.69.26,2.89-.51l-.28-.78c-2.28-1.87-4.73-3.01-7.64-3.5l-.64.47-.2,2.31-.42-.12c-.54-2.53-.85-2.09-.09-4.12,2.06.73,5.14,1.94,7.17,2.47l.89-.3c1.32,1.69,1.4,1.8,3.16,2.98l1.16-.42c1.42-1.39,1.35-.91,1.74-2.57-3.08-4.67-1.55-10.86-1.06-17.06l.47,3.47c.62-.45.4-.14.55-.98,1.22-.14,1.08-.27,2.13-.95l.82.38-.06,2.53.7.08c1.29-4.16.85-20.64,2.68-23.99Z"/>
  <path class="st39" d="M108.57,480.39c.03-3.02.12-6.14,3.56-7.17l1.17.77c1.15,1.99,1.07,2.4,1.33,4.77-2,6.9-4.38,14.68-6.04,21.65-1.91-2.69-5.67-9.33-6.96-10.85l-.3-.67c2.85-2.94,5.35-4.85,7.25-8.5Z"/>
  <path class="st31" d="M107.01,476.06l1.56,4.33c-1.9,3.65-4.39,5.55-7.25,8.5l.3.67c-1.92,1.48-4.6,4-6.88,4.02-1.24-.83-1.16-.77-1.97-2.03-2.81-.79-3.73,1.37-5.44,3.47l-1.1-1.99.52-.92c-.04-1.11,0-2.2.08-3.31.5.85.45,1.06,1.15,1.51,3.31-.58,9.14-5.23,11.25-7.81,2.39-1.4,5.59-4.48,7.76-6.42Z"/>
  <path class="st20" d="M89.85,501.34c2.67-1.4,2.9-.36,5.17,1.67,3.01,3.35,5.54,6.95,8.36,10.43l.8.73c.02,2.59-.71,4.17-3.12,5.13-4.71-5.76-7.85-11.37-11.2-17.95Z"/>
  <path class="st15" d="M95.36,500.05l.03-.5c.11-2.05.12-2.17-.39-4.1l.44-.93c1.17.77,5.82,10.12,7.32,11.98,1.83,2.27,2.29,4.31.61,6.93-2.81-3.48-5.34-7.08-8.36-10.43-.12-1.53-.27-1.58.35-2.95Z"/>
  <path class="st36" d="M87.34,495.01c1.71-2.1,2.63-4.25,5.44-3.47.2,3.95-.25,5.85,2.58,8.51-.61,1.37-.47,1.42-.35,2.95-2.26-2.02-2.5-3.07-5.17-1.67-1.03-2.07-2.27-4.09-2.51-6.33Z"/>
  <path class="st11" d="M107.01,476.06c2.1-1.98,7.81-8.88,10.4-6.18.23,1.52.35,1.68,0,3.22-.72.26-1.45.51-2.17.76-.74,1.86-.3,3.04-.61,4.9-.26-2.36-.18-2.78-1.33-4.77l-1.17-.77c-3.43,1.03-3.53,4.15-3.56,7.17l-1.56-4.33Z"/>
  <path class="st11" d="M114.56,462.79l1.16-.42c1.57,2.98-.26,5.61-2.89,4.73l-.27-1.29c.61-1.46,1.01-1.82,2-3.02Z"/>
  <path class="st39" d="M124.94,423.05c6.13,6.91,10.8,18.14,14.01,26.72-3.14,1.81-6.67,3.72-9.58,5.82.4,1.16.79,2.36,1.22,3.51,3.13-.73,4.96-2.96,7.29-5.18l1.32-1.24.81.32c.27.81.53,1.54.75,2.37,4.44,14.29,4.28,18.89,6.71,32.23-9.02-4.28-12.9-9.41-20.72-15.27v-.08c-.27,1.39-.39,1.62-1.2,2.79.42,2.09.64,2.65.42,4.72-1.07,1.31-.39.84-2.25,1.23-.45-1.63-.97-3.54-1.62-5.21-.84-2.15-.28,1.07-1.02-1.4-1.94-6.5-1.75-13.16-3.8-19.87-.13-.44.41-2.79.5-3.18,2.59-2.97,3.35,1.1,5.85.55,1.14-7.91-.28-21.51,1.3-28.82Z"/>
  <path class="st11" d="M137.88,453.92l1.32-1.24.81.32c.27.81.53,1.54.75,2.37-2.25,3.65.48,8.07-3.09,10.63-1.11-2.03,1.41-8.82.2-12.07Z"/>
  <path class="st38" d="M130.59,459.1c-2.57,3.37-.51,2.6-1.43,6.45l-.57.05c-2.63-4.66-4.89-6.83.77-10.01.4,1.16.79,2.36,1.22,3.51Z"/>
  <path class="st11" d="M128.12,469.02c8.06-.15,9.97.09,8.41,8.28l-.76.02c-2.96-2.27-5.48-5.29-7.65-8.3Z"/>
  <path class="st16" d="M124.97,482.28c.61-1.46.46-1.91,1.52-2.38.71.69,2.04,2.2,2.83,2.44,1.98-1.52,2.05-.43,3.85-2.92,3.55,3.22,9.9,7.9,13.95,10.52,3.51,4.54-.34,25.67-3.39,31.65-1.63.09-.83.74-2.5.36-1.61-3.9-3.34-7.62-5.11-11.45-2.75-7.65-7.04-16.26-10.11-24.64l-.51.03c-.21-1.2-.38-2.4-.54-3.61Z"/>
  <path class="st36" d="M126.01,485.87c5.6.07,14.58,26.4,18.9,27.6-.06,1.79.03,1.71-.86,3.24l-.69-.2c-1.28-2.99-1.94-8.04-4.72-9.39-1.82.77-1.38.98-2.51,3.39-2.75-7.65-7.04-16.26-10.11-24.64Z"/>
  <path class="st35" d="M124.97,482.28c.61-1.46.46-1.91,1.52-2.38.71.69,2.04,2.2,2.83,2.44.62.49,1.63,1.39,2.29,1.66.95,2.1,5.37,12.68,6.23,14.1,1.72,4.01,3.61,6.63,5.26,10.1,1.08,2.02,1.89,3.04,1.82,5.26-4.32-1.2-13.3-27.53-18.9-27.6l-.51.03c-.21-1.2-.38-2.4-.54-3.61Z"/>
  <path class="st39" d="M129.32,482.34c1.98-1.52,2.05-.43,3.85-2.92,3.55,3.22,9.9,7.9,13.95,10.52l-.36,3.26-.78.09c-4.13-3.44-9.41-7.18-14.36-9.29-.66-.28-1.67-1.18-2.29-1.66Z"/>
  <path class="st11" d="M137.84,498.11l.72.02.32.62c1.27,2.39,1.49,2.82,3.44,4.64v-.31c1.27,1.46,1.66,1.68,1.85,3.62l-1.07,1.51c-1.65-3.47-3.54-6.1-5.26-10.1Z"/>
  <path class="st37" d="M138.5,521.66c3.06,2.86.24,6.98-1.39,10.04l.04,1.12c-2,1.34-8.24,3.47-10.78,4.28-.56-.2-2.28-.57-2.95-.73-.41-1.38.07-2.14-.15-3.11-.8-3.48-1.49-7.61-4.41-9.97,1.05.49,2.62,1.16,3.6,1.68-.14,1.86-.24,2.14.44,3.93l.55-.36.3-1.45c.55,2.3.25,4.08.88,6.56l.22-.03.28-.86-.32.57c0-1.05-.18-.58.51-1.39,0-.82.04-1.57.18-2.38,3.78,1.76,10.52-5.48,13.01-7.92Z"/>
  <path class="st39" d="M118.68,415.82l2.28,2.68c1.67,1.93,2.57,2.37,2.73,4.79-1.83,3.35-1.39,19.83-2.68,23.99l-.7-.08.06-2.53-.82-.38c-1.05.68-.91.81-2.13.95,0-9.39.64-20.02,1.26-29.42Z"/>
  <path class="st11" d="M138.5,521.66c.81-.15,1.86.14,2.74.3,1.67.39.87-.27,2.5-.36-2.86,5.87-1.84,7.68-6.58,11.22l-.04-1.12c1.63-3.06,4.45-7.18,1.39-10.04Z"/>
  <path class="st35" d="M54.31,233.43c10.73,1.6,16.32,3.93,26.25,7.86,13.15,4.79,14.73,5.81,29,7.81l-.3,1.11-.43.78c2.06,5.38,23.91,25.08,29.22,30.34,6.72,6.65,19.01,22.27,26.16,26.29.1-1.55.29-1.72.92-3.12,2.16,3.82,4.14,6.7,6.65,10.32-3.12,1.7-6.27,3.35-9.45,4.95-7.97,3.38-12.4,3.18-21.68,7.89l-2.27,2.48c-3.11-.8-51.57-43.67-57.35-49.11-8.66-7.9-26.16-23.72-29.14-35.02-1.35-5.12-.04-8.35,2.42-12.57Z"/>
  <path class="st36" d="M114.82,283.57c-2.64-4.2-10.46-15.13-9.93-19.81l.59-.61c4.01.31,38.51,33.58,42.5,39.04,3.04,4.16,11.31,13.21,14.34,17.57-7.97,3.38-12.4,3.18-21.68,7.89l-2.27,2.48c-3.11-.8-51.57-43.67-57.35-49.11l1.15-1.15c3.2,2.8,6.82,6.66,10.86,7.41-2.39-3.28-4.12-5.49-5.97-9.09l-.39-.75c1.18-.03,6.19-.14,7.05.08,7.96,2.03,12.68,4.99,21.09,6.06Z"/>
  <path class="st29" d="M82.17,279.87c3.2,2.8,6.82,6.66,10.86,7.41,11.53,11.91,26.18,22.17,38.3,33.61,2.78,2.62,6.06,4.79,9.32,6.77l-2.27,2.48c-3.11-.8-51.57-43.67-57.35-49.11l1.15-1.15Z"/>
  <path class="st19" d="M54.31,233.43c10.73,1.6,16.32,3.93,26.25,7.86-2.6,1.8-4.52,2.37-7.19,3.96-4.48,2.65-8.66,6-13.28,8.34,4.75,8,14.15,21.67,22.08,26.29l-1.15,1.15c-8.66-7.9-26.16-23.72-29.14-35.02-1.35-5.12-.04-8.35,2.42-12.57Z"/>
  <path class="st11" d="M171.03,318.09l1.98-1c1.64.59,21.09,26.72,24.33,30.36,20.71,23.31,42.81,45.36,66.17,66.02,7.53,6.69,15.12,13.32,22.77,19.88,2.42,2.1,9.67,8.21,11.48,10.31l.91.55c-1.65,2-2.44,6.58-3.07,9.31-.38-.15-.76-.29-1.14-.44-18.49-13.23-35.18-28.99-53.55-42.44-14.81-10.85-30.66-19.97-45.25-31.04-3.74-2.84-11.2-9.1-12.58-13.47-1.37-1.92-12.01-9.33-14.48-11.69-8.18-7.82-19.42-14.87-27.54-22.46.03-1.5.26-1.29,1.34-2.76,5.25-4.75,14.68-6.31,21.67-8.05l6.96-3.08Z"/>
  <path class="st36" d="M171.03,318.09c2.89,3.86,6.19,9.2,8.81,13.27,5.3,8.24,18.59,26.59,13.69,36.79-2.04,1.18-3.05.82-5.62.7-1.58-.93-3.23-1.83-4.83-2.73-1.37-1.92-12.01-9.33-14.48-11.69-8.18-7.82-19.42-14.87-27.54-22.46.03-1.5.26-1.29,1.34-2.76,5.25-4.75,14.68-6.31,21.67-8.05l6.96-3.08Z"/>
  <path class="st29" d="M171.03,318.09c2.89,3.86,6.19,9.2,8.81,13.27,5.3,8.24,18.59,26.59,13.69,36.79-2.04,1.18-3.05.82-5.62.7-1.58-.93-3.23-1.83-4.83-2.73-1.37-1.92-12.01-9.33-14.48-11.69-8.18-7.82-19.42-14.87-27.54-22.46.03-1.5.26-1.29,1.34-2.76l.77.36c4.67,5.31,38.54,35.03,43.58,33.94,4.86-7.97-17.4-34.15-22.48-41.47l.18-.26-.38-.63,6.96-3.08Z"/>
  <path class="st29" d="M142.4,329.22c5.25-4.75,14.68-6.31,21.67-8.05l.38.63-.18.26c-6.97,2.61-14.74,4.07-21.11,7.53l-.77-.36Z"/>
  <path class="st35" d="M171.03,318.09l1.98-1c1.64.59,21.09,26.72,24.33,30.36,20.71,23.31,42.81,45.36,66.17,66.02,7.53,6.69,15.12,13.32,22.77,19.88,2.42,2.1,9.67,8.21,11.48,10.31-2.73.27-17.91-13.97-21.04-16.67-18.37-15.82-38.68-31.12-59.72-43.18-9.08-5.21-21.25-8.98-29.09-14.95,2.57.12,3.58.48,5.62-.7,4.9-10.2-8.39-28.55-13.69-36.79-2.62-4.07-5.91-9.41-8.81-13.27Z"/>
  <path class="st11" d="M620.97,750.87c-7.25-3.7-14.18-3.18-21.03-6.26-12.03-5.55-18.01-18.04-25.64-28.12-2.26-2.98-12.14-13.03-11.73-15.55,1.49-.67,6.36-.6,8.24-.77,15-1.39,29.15,3.3,43.49,7.02,5.48,1.42,12.57,3.71,18.24,4.33l.86.08c1.83,1.14,1.08,1.17,2.63.96,5.62,2.68,22.3,17.54,26.36,22.65-6.22-.89-26.54-6.23-30.94-5.14l-1.38,1.27c-5.77-1.71-12.42-3.85-18.17-5.33,2.4,5.88,5.19,9.7,8.73,14.97-1.73,2.56-.24,6.14.34,9.9Z"/>
  <path class="st34" d="M957.39,569.41c1.76,3.49,3.42,7.67,4.97,11.31,15.41,39.77,23.02,57.85-7.62,94.07-1.72,2.53-4.9,4.89-7.33,6.71v-6.24c-1.03-8.61-.59-33.18,1.36-41.47.97-6.08,2.13-11.96,4.34-17.72,4.52-11.76,6.18-22.24,5.95-34.77-.51-3.97-1.06-7.93-1.67-11.89Z"/>
  <path class="st12" d="M961.26,581.09c3.66,11.15,10.28,26.81,11.55,37.85,1.85,12.57-1.09,18.76-6.55,30.16-1.41,2.93-3.58,7.58-5.29,10.18l-1.72.24c-1.23,1.64-2.66,3.68-4.1,5.1l-1.1-1.18c.05-1.44.54-1.64,1.47-3.06-.46-1.6,2.47-7.56,3.18-11.28v-.54c1.24-5.86-.96-6.7,2.14-13.42,1.26-11.66-.9-14.25,4.07-26.1-1.81-6.03-2.37-9.33-3.76-15.2-.31-1.92-.84-11.23.11-12.74Z"/>
  <path class="st11" d="M971.67,630.88c1.68-3.21-.88-9.22,1.15-11.93,1.85,12.57-1.09,18.76-6.55,30.16-1.41,2.93-3.58,7.58-5.29,10.18l-1.72.24c-1.23,1.64-2.66,3.68-4.1,5.1l-1.1-1.18c.05-1.44.54-1.64,1.47-3.06-.46-1.6,2.47-7.56,3.18-11.28v-.54c1.24-5.86-.96-6.7,2.14-13.42.13,5.13-.1,11.77,1.13,16.55-.55,1.15-.51,1.12-.67,2.4l.56-.35c2.96-5.22,8.69-17.21,9.82-22.85Z"/>
  <path class="st1" d="M958.7,649.09l.63.41c.07,2.64-.15,4.1-.49,6.67-1,1.36-2.16,3.05-3.32,4.21-.46-1.6,2.47-7.56,3.18-11.28Z"/>
  <path class="st29" d="M971.67,630.88c-1.12,5.65-6.86,17.64-9.82,22.85l-.56.35c.17-1.27.12-1.25.67-2.4,2.15-4.69,2.74-9.74,2.05-14.65-.17-1.26-.1-2.14.72-3.06,1.59.45,1.52.36,2.54,1.64.6,2.36-.33,2.97-.66,5.29,1.87-2.17,1.55-6.87,5.05-10.03Z"/>
  <path class="st21" d="M961.15,593.84c1.38,5.86,1.94,9.16,3.76,15.2-4.97,11.85-2.82,14.45-4.07,26.1-3.1,6.72-.89,7.56-2.15,13.42-.9-2.36-2.18-6.09-3.93-7.83-3.43-3.41-2.89-5.05-4.15-9.29,4.52-14.08,8.48-22.7,10.54-37.6Z"/>
  <path class="st39" d="M950.61,631.43c1.27,4.24.72,5.88,4.15,9.29,1.74,1.74,3.03,5.47,3.93,7.83v.54c-.7,3.72-3.62,9.68-3.17,11.28-.93,1.42-1.42,1.62-1.47,3.06l1.1,1.18c-2.73,2.02-5.4,3.34-6.05,6.57l-.76-.05-.61-.12c-.14,1.41-.25,2.83-.32,4.24-1.03-8.61-.59-33.18,1.36-41.47l1.2-.22.64-2.13Z"/>
  <path class="st29" d="M947.41,675.26c-1.03-8.61-.59-33.18,1.36-41.47l1.2-.22c-2.94,11.52-.86,25.67-1.64,37.57l-.61-.12c-.14,1.41-.25,2.83-.32,4.24Z"/>
  <path class="st1" d="M947.41,675.26c.07-1.42.17-2.84.32-4.24l.61.12.76.05-.08.72c1.86.62,4.82,1.31,5.72,2.88-1.72,2.53-4.9,4.89-7.33,6.71v-6.24Z"/>
  <path class="st1" d="M611.9,726c5.76,1.48,12.4,3.62,18.17,5.33,34.64,8.83,67.01,10.73,102.06,14.98.82.1,34.34,16.74,36.53,18.3l.3,1.02c-5.58-2.74-12.18-5.01-17.93-7.62-6.41-2.73-13.37-7.57-20.32-8.8-14.91-2.64-30.38-2.88-45.41-4.68-2.91-.35-7.42-.6-10.13-1.42-7.17-.37-14.33-1.14-21.42-2.29l-.08,1.6,1.9,1.85-.62,1.26-1.68.73-.7-.29.48-1.82c-1.53.2-.79-.04-2.09,1.2-2.27,6.26,4.72,17.13,7.44,23.16-8.65-10.11-11.49-14.3-16.36-26.36-3.18-1.89-5.46-3.05-8.88-4.38l-.32.84c3.37,1.88,5.32,3.4,8.41,5.74,1.84,5.15,3.24,9.05,6.03,13.78,10.11,14.86,19.41,15.03,35.83,20.25.05.01.1.02.15.02,1.96.27,6.14.55,6.98,2.45-4.12,1.82-19.64-.23-24.33-1.02-24.98-4.2-32.12-19.35-45.32-38.87-3.54-5.27-6.33-9.1-8.73-14.97Z"/>
  <path class="st34" d="M625.67,734.7c-1.39-1.04-4.7-2.97-5.14-4.04,1.92.41,8.45,4.74,12.15,5.84.44-1.11.11-.66.92-1.39,6.32,1.11,12.3,3.93,19.58,4.94,4.4.61,19.28,1.79,22,3.07-7.17-.37-14.33-1.14-21.42-2.29l-.08,1.6,1.9,1.85-.62,1.26-1.68.73-.7-.29.48-1.82c-1.53.2-.79-.04-2.09,1.2-2.27,6.26,4.72,17.13,7.44,23.16-8.65-10.11-11.49-14.3-16.36-26.36-3.18-1.89-5.46-3.05-8.88-4.38l-.32.84-4.17-1.79c-1.24-.72-1.89-1.27-3.03-2.14Z"/>
  <path class="st36" d="M653.68,742.42c-6.01-2.6-12.22-2.22-20.03-6.43,7.04,2.19,12.95,3.46,20.1,4.83l-.08,1.6Z"/>
  <path class="st36" d="M625.67,734.7c2.4.91,5.29,1.9,7.52,3.09l-.32.84-4.17-1.79c-1.24-.72-1.89-1.27-3.03-2.14Z"/>
  <path class="st33" d="M628.7,736.83l4.17,1.79c3.37,1.88,5.32,3.4,8.41,5.74,1.84,5.15,3.24,9.05,6.03,13.78-8.77-1.86-18.3-12.46-18.61-21.32Z"/>
  <path class="st1" d="M179.59,310.21l.8.83c3.4,4.66,6.92,9.23,10.54,13.72,24.48,31.43,53.41,58.53,82.89,85.15,8.96,8.09,18.4,15.6,27.49,23.54l-1.18,5.09c-.08,1.33-.08,1.25-.6,2.48l-1.03.12c-2.54-1.32-3.9-3.25-6.01-5.08-38.94-33.78-78.5-68.21-109.62-109.58-1.9-2.52-7.7-9.03-7.68-11.64l-.72-1.37c.52-.53,1.37-1.13,1.98-1.6l3.16-1.66Z"/>
  <path class="st35" d="M176.92,313.94c7.49,9.78,15.1,20.15,23.24,29.36,18.87,21.34,39.2,41.94,60.35,61.02,12.96,11.69,26.58,22.57,39.61,34.23-.08,1.33-.08,1.25-.6,2.48l-1.03.12c-2.54-1.32-3.9-3.25-6.01-5.08-38.94-33.78-78.5-68.21-109.62-109.58-1.9-2.52-7.7-9.03-7.68-11.64l1.75-.91Z"/>
  <path class="st11" d="M179.59,310.21l.8.83c-1.15.85-2.63,1.79-3.47,2.9l-1.75.91-.72-1.37c.52-.53,1.37-1.13,1.98-1.6l3.16-1.66Z"/>
  <path class="st38" d="M471.02,588.42c3.32.47,7.91,2.51,11.12,3.84,5.63,2.09,34.27,13.56,36.24,17.33,14.73,28.2,35.39,39.99,58.96,57.9,5.79,4.4,58.03,43.91,58.69,45.06-1.55.21-.79.18-2.63-.96-3.65-3.36-16.47-12.06-21.03-15.33l-35.32-25.83c-7.62-5.52-70.05-53.89-71.67-54-1.11.76-1.23.93-2.5,1.32-2.82-1.51-23.52-15.66-25.15-17.39-3.18-2.09-5.11-3.41-7.08-6.74-.83-2.35-.71-3.11.34-5.2Z"/>
  <path class="st29" d="M471.02,588.42c3.32.47,7.91,2.51,11.12,3.84-3,.86-7.8-1.45-10.73-2.66l-.4-1.18Z"/>
  <path class="st29" d="M470.67,593.62l.84-.22c1.76,1.26,5.91,4.82,6.24,6.96-3.18-2.09-5.11-3.41-7.08-6.74Z"/>
  <path class="st31" d="M223.52,535.76c-3.96-2.11-19.21-13.97-20.82-17.59l.21-1.07c7.68-4.26,36.01,17.24,42.67,22.19,5.62,4.17,45.16,41.61,47.69,41.81-1.14,5.05-2.6,6.53-2.94,11.98-.7-6.95-7.09-8.47-11.61-13.22-3.83-2.12-11.51-8.43-15.26-11.37-8.23-6.39-16.37-12.9-24.44-19.5-5.3-4.41-10.1-8.9-15.52-13.22Z"/>
  <path class="st36" d="M223.52,535.76c3.53.06,13.51,5.06,16.05,7.3,5.54,4.91,38.38,31.96,39.16,36.79-3.83-2.12-11.51-8.43-15.26-11.37-8.23-6.39-16.37-12.9-24.44-19.5-5.3-4.41-10.1-8.9-15.52-13.22Z"/>
  <path class="st38" d="M293.27,581.09c1.95-15.68-.54-26.12-2.01-41.67-1.13-11.96-1.73-23.95-1.81-35.95,0-3.55-.27-12.1.44-15.23l.44-.17c.71,3.66.6,12.77.66,16.9.15,7.01.43,14.03.84,21.03.56,9.09,1.31,18.16,2.24,27.22,1.2,12.57,3.11,26.1-2.96,37.84,1.51,6.83,2.88,12.66,3.33,19.68,6.53,6.06,17.36,13.17,24.71,18.76l91.2,69.82c14.46,11.07,29.27,21.78,43.35,33.36,3.36,2.76,10.23,7.42,11.56,11.46l-.62.4c-3.88-1.52-14.83-11.01-19.22-14.37l-57.12-44.07-115.18-89.31c-15.72-12.22-31.72-24.12-47.37-36.43-3.36-2.64-5.75-5.02-8.36-8.4,8.46,5.02,18.59,13.12,26.49,19.21l32.85,25.25c2.53,1.95,14.37,11.69,16.45,12.69l.15-.65c-.69-1.09-.6-.51-.59-1.41.03-3.83-1.44-10.14-2.42-13.96.34-5.45,1.8-6.93,2.94-11.98Z"/>
  <path class="st11" d="M644,777.64c1.98-.1,17.88,8.2,22.36,9.41,23.11,6.29,45.62,11.02,68.99,15.83-9.32,2.68-30.64,1.67-41.1,1.61-17.91-.9-41.23-3.46-56.53-13.17-4.65-2.95-9.64-7.95-13.66-11.84,12.45,2.15,12.99,7.66,26.36,6.54-5.26-3.55-9.8-4.79-15.78-6.74,4.38-.37,5.15-.53,9.36-1.64Z"/>
  <path class="st31" d="M937.67,799.57c.89.78,2.52,1.82,3.55,2.52-2.54,2.09-11.88,9-12.24,11.47l.19.28c-5.8,3.85-13.1,10.58-19.38,14.72-9.64,6.38-25.56,16.34-35.61,21.02-34.1,15.86-120.67,50.16-157.46,43.82,17.55-4.65,40.21-5.8,58.82-10.55,33.4-8.52,65.45-21.11,95.9-37.33,8.8-4.7,16.3-10.74,24.52-15.9,15.5-9.71,27.7-18.44,41.71-30.05Z"/>
  <path class="st1" d="M943.8,700.41c5.92.61,12.07,1.64,16.06,6.55,4.43,5.45,4.09,14.42,3.17,21.04-2.7,19.6-14.53,34.1-29.88,45.59-27.04,20.26-112.3,70.74-144.38,66.02-9.32-1.37-19.6-5.17-25.41-12.99-.22-.29-.41-.6-.61-.9l.86-.4c8.91,9.82,26.07,15.33,38.87,12.43,26.06-5.9,54.68-20.17,78.26-32.88,17.33-9.33,52.08-29.24,65.01-43.79,6.8-7.81,11.83-17.01,14.72-26.96,1.98-7.03,2.74-18.36-.93-25.01-2.66-4.82-8.39-6.01-13.27-7.27-5.2,6.01-7.85,10.66-14.01,16.4-10.71,9.97-29.67,20.11-39.65,29.65-1.96,7.18-3.27,11.89-5.76,18.84-6.91-4.12-8.84-7.53-17.14-10.57-6.11,1.8-18.22,7.54-24.82,10.2-16.84,6.78-30.15,10.88-47.48,15.38,6.15-4.8,9.2-5.28,16.57-7.22,5.43-1.43,11.16-3.28,16.46-5.18,6.48-2.3,12.89-4.77,19.24-7.4,5.73-2.43,13.22-5.98,18.98-7.65,6.48,1.9,10.41,5.22,15.68,9.21.4-2.57.59-5.39.82-7.99.28-1.71.47-3.1.64-4.83.78-5,1.52-10.08,2.51-15.04.78,2.83,1.88,6.42,2.45,9.23,19.88-14.2,38.53-24.5,53.02-44.44Z"/>
  <path class="st11" d="M399.29,507.35c-24.56-19.79-49.74-38.66-73.91-58.93-1.56-1.31-4.88-3.61-4.86-5.6.43-.51,2.07-2.52,2.08-2.97.04-5.89-.8-15.03.33-20.6-.06,3.69-.75,19.98.78,22.08,2.22.51,2.84.43,5.17.38,3.66,4.84,21.63,18.81,26.68,22.79,24.53,19.36,50.06,37.14,75.68,54.98,1.53,5.14,1.43,9.29,1.59,14.55-5.09-7.04-11.46-15.98-17.71-21.93-5.13-4.88-9.38-5.11-15.83-4.76Z"/>
  <path class="st1" d="M301.81,439.5c.55-1.47.82-2.94,2.07-3.7,4.48,2.85,10.29,8.53,14.58,12.13,18.96,15.89,38.48,30.98,57.72,46.53,5.67,4.58,11.53,8.76,17.07,13.56l.13.83-1.39,1.06c-2.48.11-5.06,1.07-7.47,1.81-6.44-6.04-18.66-15.32-25.77-20.95-12.87-10.16-25.63-20.47-38.26-30.92-6.03-4.97-13.11-10.44-18.64-15.97-.79-.79-.22-3.15-.04-4.37Z"/>
  <path class="st35" d="M301.81,439.5c28.78,23.49,57.17,48.14,87.49,69.77.52.38,2.07.55,2.69.64-2.48.11-5.06,1.07-7.47,1.81-6.44-6.04-18.66-15.32-25.77-20.95-12.87-10.16-25.63-20.47-38.26-30.92-6.03-4.97-13.11-10.44-18.64-15.97-.79-.79-.22-3.15-.04-4.37Z"/>
  <path class="st37" d="M373.97,529.84c-1.61-.11-10.96-5.46-11.65-6.58.96-7.17,36.21-12.83,42.89-13.17,5.55,3.17,7.63,4.77,12.28,9.15l-2.09.85c2.31,2.78,6.04,7.02,7.21,10.42-6.04,2.53-4.95-.44-9.5.06-13.23,1.46-24.34.83-37.39-1.93-.8-.17-1.13.58-1.74,1.2Z"/>
  <path class="st27" d="M373.97,529.84c-1.61-.11-10.96-5.46-11.65-6.58.96-7.17,36.21-12.83,42.89-13.17,5.55,3.17,7.63,4.77,12.28,9.15l-2.09.85c-2.71-2.92-4.48-5.43-8.79-5.7-5.87-.38-32.74,7.83-35.83,9.93l-.19.77c.79,1.16,3.02,3.76,3.38,4.74Z"/>
  <path class="st38" d="M846.4,481.28c4.53,2.62,16.39,9.71,19.63,13.4,2.97,2.53,7.2,5.91,9.94,8.52,1.51.74,1.45.79,2.66,1.98,3.34,2.81,5.45,5.03,8.46,8.22,3.19,2.99,12.92,8.66,14.02,10.23,1.46,1.16,3.6,2.72,4.73,4.12l.36.16c3.88,3.23,8.22,7.13,11.62,10.86,1.67,1.19,3.26,3.68,6.77,6.14l-.49-.82c6.07,3.67,16.43,22.47,19.74,29.03-5.2-5.07-9.72-12.32-14.72-16.55-7.21-6.1-14.98-12.21-22.24-18.33-4.8-4.05-10.48-7.58-14.67-12.27,2.27,4.02,2.65,5.45,3.81,9.8l-1.62-.57c-13.67-4.67-15.14-19.61-23.33-30.43-1.44-1.75-4.36-2.7-5.8-4.41-5.99-7.12-12.21-12.31-19.3-18.28l.42-.8Z"/>
  <path class="st29" d="M878.63,505.17c3.34,2.81,5.45,5.03,8.46,8.22-3.24.2-7.86-5.34-8.46-8.22Z"/>
  <path class="st29" d="M906.21,527.91c3.88,3.23,8.22,7.13,11.62,10.86-2.17-.3-11.27-8.78-11.62-10.86Z"/>
  <path class="st29" d="M866.03,494.67c2.97,2.53,7.2,5.91,9.94,8.52-2.99-.47-9.24-5.39-9.94-8.52Z"/>
  <path class="st29" d="M901.11,523.62c1.46,1.16,3.6,2.72,4.73,4.12-2.53-.09-3.79-2.03-4.73-4.12Z"/>
  <path class="st11" d="M548.64,654.74c1.29.16,2.9.47,4.14,1.08,11.14,5.47,8.99,18.14,8.42,28.32-.23,4.21-2.08,6.66-.13,10.46.45.88.33.57-.01,1.62-2.86,1.24-7.79-2.04-10.27-3.64-4.1-3.03-7.96-8.06-11.88-11.55-2.58-2.3-8.71-7.72-6.64-11.4,2.29-1.22,6.66-1.71,9.66-2.51,2.18-3.66,4.33-8.32,6.7-12.38Z"/>
  <path class="st38" d="M324.46,398.02c.33-8.28,2.97-39.84,8.39-44.53.63-.55,1.3-.81,2.07-1.11,1.65.37.96-.05,2.04,1.44.21,1.72-2.11,13.67-2.5,17.58-.71,7.39-1.26,14.79-1.65,22.19-.15,3.37-.08,8.86-.4,11.9.06,2.05.42,9.33-.31,10.9.2,4.01,1.76,21.43.22,23.7-1.61,1.04-1.63,1.03-3.46,1.62-2.33.04-2.95.13-5.17-.38-1.53-2.1-.84-18.39-.78-22.08l.71-11.93c.72-2.8.87-6.42.82-9.3Z"/>
  <path class="st26" d="M526.46,590.42c6.51.9,12.89.72,19.45.61,3.04,1.52,5.06,3.04,5.89,6.53l-.1.79c-1.74,1.01-5.01,1.12-7.22,1.42,5.11,4.14,12.16,7.51,17.95,10.72,8.76,4.8,17.59,9.48,26.43,14.13,18.6,9.77,36.25,21.41,53.77,32.97,18.95,12.51,39.34,24.87,56.85,39.31l-.82,1.38c-27.31-18.05-55.47-40.32-83.62-56.49-26.9-15.46-58.16-26.04-84.59-44.07l.2-.43c-1.34-3.33-6.09-2.97-4.16-6.87Z"/>
  <path class="st36" d="M545.91,591.03c3.04,1.52,5.06,3.04,5.89,6.53l-.1.79c-1.74,1.01-5.01,1.12-7.22,1.42-1.94-1.42-2.44-4.14-1.39-6.21.99-.33,1.25-.12,2.3,0,.34-1.2.34-1.31.52-2.53Z"/>
  <path class="st11" d="M545.91,591.03c3.04,1.52,5.06,3.04,5.89,6.53-3.12-1.36-5.68-1.59-8.43-2.74l-.28-1.26c.99-.33,1.25-.12,2.3,0,.34-1.2.34-1.31.52-2.53Z"/>
  <path class="st35" d="M594.49,614.85c7.14.85,40.2,16.64,48.41,21.55,6.68,5.83,14.89,12.42,21.11,18.59,11.42,11.34,25.76,22.82,36.39,34.61-2.58-.98-12.32-8.32-15.06-10.32-18.04-13.16-35.25-26.9-53.4-39.98-13.11-9.45-26.01-13.69-37.45-24.45Z"/>
  <path class="st29" d="M802.93,454.81c6.85,3.38,26.56,20.94,32.59,26.34l1.49-.5.78.6c3.14,1.97,10.64,6.25,13.17,8.43,15.86,13.68,21.33,27.53,28.64,45.69-3.71-4.02-7.1-8.31-10.14-12.84l-.61.64c20.84,30.8,40.83,61.86,52.39,97.47,1.8,5.55,5.07,14.39,4.85,20.08l-.42-.43c-.39-6.15-2.62-8.65-4.33-14.25-13.74-45-51.83-105.53-83.63-140.23-5.23-5.68-10.9-10.96-16.94-15.77-6.21-5.02-12.38-9.39-17.84-15.23Z"/>
  <path class="st35" d="M837.79,481.25c3.14,1.97,10.64,6.25,13.17,8.43,15.86,13.68,21.33,27.53,28.64,45.69-3.71-4.02-7.1-8.31-10.14-12.84-5.58-8.57-12.27-16.81-18.43-24.91-2.56-3.37-12.03-13.93-13.24-16.36Z"/>
  <path class="st11" d="M835.52,481.15l1.49-.5.78.6c1.21,2.43,10.68,12.99,13.24,16.36,6.16,8.11,12.86,16.35,18.43,24.91l-.61.64c-11.6-16-20.14-27.49-33.33-42.01Z"/>
  <path class="st36" d="M290.24,487.25c-19.62-16.87-37.75-32.91-57.95-49.4l-42.4-34c-2.95-2.33-15.52-11.32-17.14-13.63,5.31.81,23.79,15.5,28.94,19.37,29.73,22.32,62.55,44.69,89.24,70.7l.88,1.12c-.36,1.95-1.01,3.94-1.57,5.84Z"/>
  <path class="st36" d="M325.87,335.35c5.48,4.22,13.03,11.3,17.9,16.22-1.32.83-3.18,1.81-4.59,2.61l-.31-.57c-1.27-2.31-1.62-3.44-4.14-4.17-8.94.56-12.22,37.46-13.2,45.29.88,1.11,1.96,2.23,2.94,3.29.05,2.88-.1,6.5-.82,9.3l-2.23-2.55-.55.08c-.38,2.48,1.48,2.62,1.21,4.62-1.03-.62-.51-.43-1.53-.63-2.04,5.87-.35,25.4-1.33,33.5l-.87-.08c-4.02-3.57-2.6-16.53-2.18-22.2,1.98-26.79,2.81-58.8,9.7-84.71Z"/>
  <path class="st11" d="M197.22,324.81c3.34.37,34.77,34.29,39.54,38.61,13.73,12.43,27.6,26.55,42.15,38.41,3.74,3.05,5.84,5.18,10.36,7.29-.38,2.25-.74,4.51-1.09,6.77-.48.46-.16.28-1.02.39-5.31-4.37-18.13-14.95-22.43-19.33-10.55-10.74-66.42-62.57-67.52-72.13Z"/>
  <path class="st31" d="M295.25,584.1c5.36,3.13,15.21,12.78,20.25,17.11,16.04,13.81,32.53,27.26,47.04,42.68,2.09,2.23,7.68,6.93,8.94,9.34l-.76.18c-18.99-13.42-35.81-26.53-53.52-41.66-7.16-6.11-16.77-12.79-23.35-18.99l1.41-8.66Z"/>
  <path class="st36" d="M360.63,545.82c24.1,8.26,45.39,33.9,64.6,50.26,3.67,3.13,23.54,20.99,24.9,23.91l-1.8-1.3-.26.42c1.71,1.88,2.97,2.88,4.89,4.5.97.86.72.46,1.16,1.65-2.14-.41-90.79-74.7-93.48-79.45Z"/>
  <path class="st23" d="M644.08,885.77c8.3-1.13,69.61.76,74.76,5.22l-.34.82-.83.22c-6.28.85-16.56,1.88-22.79,2.1-5.01,1.48-20.35,1.1-25.61.85-5.77,1.15-20.77-2.8-25.05-6.99-.57-.55-.22-1.45-.14-2.22Z"/>
  <path class="st11" d="M669.27,894.98c-5.77,1.15-20.77-2.8-25.05-6.99-.57-.55-.22-1.45-.14-2.22,3.34,1.61,25.16,3.3,30.21,3.69,4.11,1.01,5.36,1.86,9.05,3.96,2.01-.12,9.46.29,11.54.71-5.01,1.48-20.35,1.1-25.61.85Z"/>
  <path class="st38" d="M683.34,893.42c2.01-.12,9.46.29,11.54.71-5.01,1.48-20.35,1.1-25.61.85,3.52-2.73,10.01-.03,14.07-1.57Z"/>
  <path class="st22" d="M674.29,889.46l2.45-.77-1.56-.55c1.63-.22,4.92.71,6.75,1.06,11.43,2.18,24.1,2.61,35.74,2.83-6.28.85-16.56,1.88-22.79,2.1-2.08-.42-9.53-.84-11.54-.71-3.68-2.1-4.94-2.95-9.05-3.96Z"/>
  <path class="st24" d="M433.86,539.07c4.55,2.95,25.9,16.32,28.09,19.32,2.57,1.2,5.69,2.23,6.8,4.85l.02.74c.62,2.72,1.13,4.38.98,7.21l-.74.82c-10.49-5.1-17.04-11.41-29.39-15.01-2.78-.8-5.61-1.42-8.47-1.85-3.1-.46-20.83-1.62-22.2-2.93l.08-1.49c1.34-1.3,1.62-1.38,3.97-1.29,7.54.27,15.18,1.17,22.7,1.76,1.71-4.76.67-6.83-1.43-11.29l-.4-.84Z"/>
  <path class="st38" d="M433.86,539.07c4.55,2.95,25.9,16.32,28.09,19.32-8.45-2.64-17.58-5.7-26.26-7.2,1.71-4.76.67-6.83-1.43-11.29l-.4-.84Z"/>
  <path class="st34" d="M409.02,550.73c1.34-1.3,1.62-1.38,3.97-1.29,7.54.27,15.18,1.17,22.7,1.76,8.68,1.49,17.81,4.56,26.26,7.2,2.57,1.2,5.69,2.23,6.8,4.85-3.28-.65-17.12-6.38-22.78-7.84-15.39-3.97-22.38-3.33-36.96-4.68Z"/>
  <path class="st33" d="M469.01,572.01c-.11-.43-.21-.87-.32-1.3-.61-2.58-1.34-4.44.07-6.72.62,2.72,1.13,4.38.98,7.21l-.74.82Z"/>
  <path class="st37" d="M332.42,405.49c6.05,5.9,46.27,42.85,46.51,47.12.03.48-.06.85-.14,1.3-1.78,1.52-4.88-.09-6.42-1.43-11.79-10.26-24.02-20.21-35.15-31.2-1.6-1.58-3.4-3.61-5.11-4.89.72-1.57.36-8.85.31-10.9Z"/>
  <path class="st36" d="M523.4,608.72c5.81,1.03,29.29,10.61,34.18,14.03,2.71,6.89,1.58,9.99,3.52,15.77-5.52-2.32-29.95-13.5-32.53-17.68.25-5.32-2.38-6.79-5.17-12.12Z"/>
  <path class="st36" d="M294.09,482.85c6.53,6.6,18.08,16.01,25.3,21.88,11.02,8.96,24.33,21.04,35.71,29.18-.37,2.63-.7,3.97-.19,6.62l-.99.55c-13.21-12.16-28.77-24.12-42.38-35.99-6.49-5.66-13.71-10.93-19.74-17.07l2.29-5.19Z"/>
  <path class="st29" d="M686.6,529.72l.38,1.01c-12.14,7.29-30.73,13.71-44.15,19.07-38.14,15.1-78.55,29.62-119.6,33.49-9.2.87-31.51-.57-40.16-3.67-4.87-5.43-12.71-20.84-15.26-27.7,3.82,6.02,12.57,22.35,16.42,26.66,7.04,2.47,12.81,1.6,19.94,2.32,21.92,2.19,41.41-1.96,62.51-7.12,41.39-10.14,80.71-27.56,119.93-44.06Z"/>
  <path class="st37" d="M50.97,404.52c-6.76-13.57-11.68-40.67-13.8-55.62,5.43,10.92,6.96,18.85,14.21,30.42l.55,1.2c.62-2.01,1.32-5.35,1.83-7.49,1.87.82,2.83,1.12,4.8,1.7-3.28,13.03-4.83,28.29-3.41,41.72-1.32-3.8-2.73-8.22-4.18-11.92Z"/>
  <path class="st38" d="M53.76,373.02c1.87.82,2.83,1.12,4.8,1.7-3.28,13.03-4.83,28.29-3.41,41.72-1.32-3.8-2.73-8.22-4.18-11.92.84-2.54.81-19.32.96-24,.62-2.01,1.32-5.35,1.83-7.49Z"/>
  <path class="st36" d="M209.3,546.64c-12.51-14.03-16.31-33.48-24.38-49.55-12.43-24.74-26.34-50.7-34.74-77.23-6.19-19.54-19.73-69.94-12.74-88.65l.55-.18c.37,2.34-.62,4.95-.75,7.34-.15,2.58-.08,5.42.09,7.98,1.33,20.15,4.36,40.26,10.38,59.58.43-1.59.23-1.55,1.17-2.74l-.17.44h.77c.41,2.08.5,2.98.64,5.08-.63.81-.65.9-1.04,1.77,5.98,18.88,13.3,37.3,21.9,55.14,4.1,8.54,8.94,16.43,12.85,25.22,4.82,10.84,8.79,21.97,13.4,32.95,2.45,5.83,11.33,19.89,12.09,22.86Z"/>
  <path class="st11" d="M147.7,405.92c.43-1.59.23-1.55,1.17-2.74l-.17.44h.77c.41,2.08.5,2.98.64,5.08-.63.81-.65.9-1.04,1.77l-1.37-4.55Z"/>
  <path class="st36" d="M49.86,236.29c-3.93,9.84-4.2,10.87-3.77,21.38.37,3.42,2.64,21.1,1.76,22.84-2.41-.08-2.4-.51-3.85.61-1.17,3.41-.38,9.33-.56,13.8-1.18-2.12-5.82-11.05-7.04-12.17-1.01-5.14.04-12.39.6-17.65,1.37-13.1,4.26-19.09,12.86-28.82Z"/>
  <path class="st33" d="M49.86,236.29c-3.93,9.84-4.2,10.87-3.77,21.38l-1.51.23c-.36-1.95-.46-3.79-1.75-5.24l-1-.07c-4.64,4.47-3.86,27.82-5.43,30.17-1.01-5.14.04-12.39.6-17.65,1.37-13.1,4.26-19.09,12.86-28.82Z"/>
  <path class="st33" d="M44.59,257.9l1.51-.23c.37,3.42,2.64,21.1,1.76,22.84-1.21-2.52-2.77-18.69-3.26-22.61Z"/>
  <path class="st35" d="M967.48,762.8c1.23-2.74,5.03-10.75,5.17-13.15l-2.43,2.15c.11-.94,2.07-6.74,2.43-7.39,2.21-3.91,5.62-20.6,8.34-22.85,2.15,3.86-3.15,23.41-4.61,28.23-10.35,33.89-21.9,43.05-47.22,64.04l-.19-.28c.36-2.47,9.71-9.38,12.24-11.47,5.74-5.07,8.31-7.42,12.84-13.5-1.13-1.22-1.2-1.18-1.88-2.67,2.16-3.18,4.36-6.07,6.52-9.32,2.86-4.34,5.77-9.67,8.78-13.79Z"/>
  <path class="st31" d="M954.06,788.58c-1.13-1.22-1.2-1.18-1.88-2.67,2.16-3.18,4.36-6.07,6.52-9.32,2.86-4.34,5.77-9.67,8.78-13.79,1.09,3.35.16,4.51-1.5,7.72-2.19,4.23-8.62,15.02-11.92,18.06Z"/>
  <path class="st11" d="M37.68,325.98c4.08,9.44,9.84,18.75,13.9,28.26,2.63,6.16,6.58,12.5,8.83,18.71l-1.85,1.78c-1.97-.58-2.93-.88-4.8-1.7-.51,2.14-1.21,5.48-1.83,7.49l-.55-1.2c.46-1.84.65-2.75.88-4.62-4.65-10.74-9.04-23.78-15.97-33.21-1.75-2.38.69-12.87,1.38-15.51Z"/>
  <path class="st11" d="M747.66,486.41c-1.23,1.1-1.42,1.05-2.95,1.56-2.33-.35-3.93-.42-5.48-2.14.48-3.71,20.47-23.23,24.68-26.37,6.47,2.62,6.38,2.53,6.99,9.49-.92.96-2.32,2.5-3.26,3.34-3.77-.15-10.39,4.37-11.43,7.57l.54.46v.22c-2.41,2.26-6.15,4.17-9.09,5.87Z"/>
  <path class="st38" d="M747.66,486.41l-.05-.93c1.98-1.52,6.7-4.49,9.16-4.93-2.42,2.26-6.16,4.17-9.1,5.87Z"/>
  <path class="st37" d="M979.17,633.9c-.24-1.43-.66-2.6-.06-3.85,4.54,3.92,5.35,18.9,6.67,23.62-3.09,3.13-3.51,9.98-5.71,10.18l-.33-1.21.35-3.82c-4.61,5.64-11.78,21.51-16.51,24.45l-.62-.43c-.62-7.53,9.7-23.36,12.32-31.21,2.21-6.61,2.74-10.81,3.88-17.73Z"/>
  <path class="st29" d="M979.17,633.9c-.24-1.43-.66-2.6-.06-3.85,4.54,3.92,5.35,18.9,6.67,23.62-3.09,3.13-3.51,9.98-5.71,10.18l-.33-1.21.35-3.82c2.49-4.93.53-19.42-.92-24.92Z"/>
  <path class="st11" d="M567.51,361.35c7.34,2.59,12.79,5.62,19.38,9.51-6.08,3.87-10.72,5.97-17.25,8.76-3.77,1.38-5.58,1.99-9.47,2.79-1.4-4.33-2.48-10.48-3.33-15.05,1.41-.84,2.96-1.88,4.36-2.78,1.72,1.72,3.2,3.49,5.59,2.33,1.05-1.76.76-3.44.73-5.57Z"/>
  <path class="st35" d="M308.23,481c1.1-.33,1.3-.67,2.5.2,5.75,4.17,20.35,16.19,24.16,21.31,2.01,2.67,3.48,5.7,4.33,8.93.43,1.72.45,1.16.02,2.62-1.26.56-.76.6-1.89.49-4.57-2.88-22.88-18.84-26.96-23-.94-3.47-1.66-7-2.16-10.56Z"/>
  <path class="st34" d="M308.23,481c1.1-.33,1.3-.67,2.5.2,5.75,4.17,20.35,16.19,24.16,21.31,2.01,2.67,3.48,5.7,4.33,8.93.43,1.72.45,1.16.02,2.62-1.26.56-.76.6-1.89.49-.71-2.58-1.98-7.52-3.29-9.6-4.97-7.93-18.25-18.28-25.83-23.95Z"/>
  <path class="st29" d="M762.77,825.71c-3.11-4.24-3.18-13.33-.05-17.55,3.71-5,9.25-9.03,13.99-13.09,6.31-5.5,12.71-10.9,19.2-16.18,6.98-5.63,14.21-10.96,21.65-15.96,19.32-12.9,101.31-63.96,120.09-61.9-.29.51-4.23,1.38-5.17,1.66-8.07,2.47-15.99,5.42-23.72,8.83-16.65,7.47-32.24,17.33-47.78,26.52-28.73,17.01-56.59,33.17-81.08,56.18-8.83,8.29-23.85,15.03-16.55,30.53l.27.57-.86.4Z"/>
  <path class="st32" d="M904.23,518.18c10.27,6.22,54.99,48.62,48.8,59.95l-.69-.08c-3.98-6.05-10.77-16.24-15.46-21.45-5.23-5.82-27.15-34.58-31.21-35.89-.83-.7-.97-1.45-1.45-2.53Z"/>
  <path class="st35" d="M156.32,360.97c1.05-.23,1.39-.42,2.42.48,7.85,6.88,17.06,12.73,24.37,20.05,1.07,1.07,3.57,9.75,3.01,11.26l-.81.05-.43-.44c-6.12-5.29-14.6-10.62-20.88-16.06-6.31-5.46-6.94-7.62-7.69-15.35Z"/>
  <path class="st34" d="M156.32,360.97c1.05-.23,1.39-.42,2.42.48,7.85,6.88,17.06,12.73,24.37,20.05,1.07,1.07,3.57,9.75,3.01,11.26l-.81.05-.43-.44c-2.54-15.45-17.23-19.78-28.16-30.99l-.4-.42Z"/>
  <path class="st32" d="M640.94,288.65c-.35,3.17-6.43,7.25-9.02,10.02-7.7,6.16-14.49,10.41-22.52,15.79-38.63,25.91-82.91,42.64-127.02,56.64-8.65,2.75-26.9,9.03-35.38,9.94,2.02-1.18,14.07-4.39,17.18-5.36,10.29-3.29,20.56-6.64,30.81-10.04,39.95-13.16,77.96-28.37,112.82-52.15,6.81-4.65,14.34-9.06,20.84-14.13,4.07-3.19,8.33-7.26,12.29-10.73Z"/>
  <path class="st1" d="M763.88,352.07c25.84-1.16,19.96,31.36,7.27,44.77l-.41-.3c2.38-6.37,6.8-9.5,9.17-18.46,1.03-4.66.78-16.57-2.79-20.02-4.83-4.68-12.72,7.65-14.93,10.79l-.66-.05c-1.98-2.04-3.95-7.95-4.92-10.75-.93-.07-6.41,5.31-7.95,6.61,3.79-6.39,7.66-10.87,15.23-12.59Z"/>
  <path class="st35" d="M985.09,672.77c.46,2.89.45,4.61.48,7.49-.03,1.83-.12,3.65-.28,5.46-1.21,12.19-12.81,51.98-21.55,59.21,1.33-4.11,4.97-10.52,6.1-13.79,1.46-4.18,10.78-34.49,9.13-36.76-.68,1.82-2.58,3.66-4.01,4.92,0-.02,9.23-23.93,10.13-26.53Z"/>
  <path class="st11" d="M615.08,650.93c6.78,1.97,27.76,12.85,33.9,17.7,1.4,1.1,2.66,3.05,3.6,4.59-5.39-.75-21.05-5.89-26.45-7.86-4.92-7.1-4.94-7.67-11.05-14.42Z"/>
  <path class="st11" d="M774.07,766.9c5.62,2.44,11.5,6.28,16.72,9.57-5.37,1.19-9.72,1.95-15.17,2.5-6.15.39-12.32.55-18.47.49,5.49-3.45,12.07-8.21,16.92-12.56Z"/>
  <path class="st37" d="M480.7,641.53c-1.01-1.48-1.78-1.98-1.69-3.36.49.19,23.19,19.03,24,20.01.27,4.33-6.02,6.09-9.43,6.77-.11-3.11-10.62-16.6-12.89-23.41Z"/>
  <path class="st1" d="M480.7,641.53c-1.01-1.48-1.78-1.98-1.69-3.36.49.19,23.19,19.03,24,20.01.27,4.33-6.02,6.09-9.43,6.77,2.08-2.22,5.44-3.2,6.69-6.1-1.45-1.67-17.43-15.62-19.58-17.31Z"/>
  <path class="st38" d="M466.92,593.14c-2.21-2.26-3.8-3.85-6.21-5.85-3.52-2.91-13.99-8.73-15.15-12.74,4.5-1.9,8.57,2.11,11.84,4.47,3.77,2.73,7.61,5.35,11.53,7.86l.26,1.67c-.55,2.08-.85,5.39-1.44,7.79-2.91,11.84-4.4,22.95-5.93,35.03-1.3-12.48,1.93-26.21,5.1-38.24Z"/>
  <path class="st34" d="M358.51,539.7c-.84-1.88-.98-1.2-.56-2.58,1.96.57,4.41,2.78,6.28,3.87,10.23,5.97,21.77,6.67,33.29,7.44,2.57.17,8.57.1,10.53,1.56l-.74,2.21c-2.33,1.07-19.75-.79-23.1-1.33-6.47.61-23.03-4.92-25.71-11.17Z"/>
  <path class="st35" d="M358.51,539.7c6.4,3.66,10.82,6.15,18.17,7.77,1.49.32,7.2,1.22,8.11,1.5,1.86,1.63,6.69,1.55,9.33,1.81-3.3.14-7.37-.46-9.9.09-6.47.61-23.03-4.92-25.71-11.17Z"/>
  <path class="st35" d="M384.79,548.97c4.99.46,19.3,2.2,23.26,1.03l-.74,2.21c-2.33,1.07-19.75-.79-23.1-1.33,2.53-.55,6.6.04,9.9-.09-2.64-.27-7.47-.18-9.33-1.81Z"/>
  <path class="st29" d="M651.05,294.53c10.45,9.66,21.2,19.08,31.23,29.17,15.28,15.37,29.73,31.5,43.57,48.17,4.11,4.96,13.12,14.95,15.58,20.45-.55-.31-20.83-24.5-23.29-27.59-7.63-9.57-61.11-66.26-67.26-68.8l.17-1.41Z"/>
  <path class="st1" d="M683.21,776.34c-4.3-.5-20.82-4.24-23.35-7.35-.15.1,19.39,5.65,22.45,5.74,18.35.59,41.78,5.02,59.59,1.68,5.68-1.07,19.18-8.14,26.44-10.39-5.63,5.62-26.93,13.71-35.34,13.18-16.52-1.05-33.31-1.45-49.8-2.86Z"/>
  <path class="st36" d="M308.23,323.37c1.24,1.83-2,12.73-2.72,15.59-6.85,27.25-10.86,54.05-15.04,81.73l-.77-.97c-.14-5.54,1.81-15.64,2.64-21.55,2.39-16.86,5.17-33.29,9.09-49.88,2.07-8.76,3.24-16.49,6.79-24.92Z"/>
  <path class="st1" d="M674.62,751.85c17.11,6.42,24.23,6.21,42.43,6.36,4.02.03,10.84.13,14.77.84,2.72.5,6.98-.86,7.9.67-3.66.34-6.27-.08-9.58.22,1.44.56,2,.58,3.51.86l-.41.47c-10.12.45-20.74.47-30.86.09-3.27-.12-7.36-.1-9.49-2.47-.46-.18-5.17-1.17-6.39-1.55-4.61-1.41-8.18-2.89-12.59-4.75l.7-.73Z"/>
  <path class="st11" d="M692.91,758.88c8.82.73,16.87.77,25.71.83,2.01.01,10.11-.02,11.54.23,1.44.56,2,.58,3.51.86l-.41.47c-10.12.45-20.74.47-30.86.09-3.27-.12-7.36-.1-9.49-2.47Z"/>
  <path class="st11" d="M383,534.72c4.31-.3,10.16-.07,14.51.31,7.15.62,24.02-1.88,24.85,8.11-1.8-.31-4.95-1.59-7.49-1.99-6.07-.98-28.51-2.8-31.86-6.42Z"/>
  <path class="st36" d="M322.06,333.26l.69.65c.72,3-3.4,28.69-4.1,33.62-3.61,25.23-4.89,48.06-5.39,73.38-4.55-7.24,6.02-94.25,8.81-107.65Z"/>
  <path class="st36" d="M460.8,632.65c1.25,2.12.51,20.1.29,24.01-1.39,24.53,6.68,58.33,4.23,81.68-1.9-2.09-1.54-7.4-1.54-10.24.04-30.02-7.03-65.74-2.98-95.46Z"/>
  <path class="st32" d="M688.35,510.54l.18.11-.11.73c-12.97,10.01-26.16,17.59-39.61,26.8-2.46,1.68-4.91,3.34-7.43,4.92-12.2,7.68-25.36,13.73-39.14,17.98l-.41-.4c1.09-1.16,7.24-3.2,9.18-3.91,15.85-5.78,28.45-13.77,42.3-23.2,11.26-7.66,23.37-15.91,35.02-23.04Z"/>
  <path class="st29" d="M698.44,525.48c15.24-10.72,37.7-19.48,53.52-31.07,10.86-7.95,17.37-18.65,27.47-25.77-4.57,5.65-20.46,21.44-26.54,27.23-.36.34.77,2.71-3.65,5.51.38-1.62,2.47-4.05,3.58-5.56-6.16,3.25-12.04,7.1-18.13,10.58l-35.15,19.76-1.1-.68Z"/>
  <path class="st37" d="M904.12,521.13c-.33.82-.28,1.48-.34,2.36l-.5.1c-3.34-3.23-6.62-6.39-10.18-9.38-3.53-2.97-8.29-6.15-11.43-9.4l.62-.17-.58.08c2.76.62,1.62,2.74,5.04,1.52l.2-.66c-1.38-.44-1.96-.7-3.25-1.28l-.07-.57.68-.17c5.39,3.16,12.24,6.86,16.42,11.41.52.47,3.16,2.8,3.5,3.21.48,1.09.61,1.83,1.45,2.53,1.69,2.24,3.54,4.54,4.98,6.93-2.32-2.2-4.4-4.14-6.53-6.52Z"/>
  <path class="st29" d="M904.12,521.13c-1.21-1.74-3.26-4.2-3.4-6.16.52.47,3.16,2.8,3.5,3.21.48,1.09.61,1.83,1.45,2.53,1.69,2.24,3.54,4.54,4.98,6.93-2.32-2.2-4.4-4.14-6.53-6.52Z"/>
  <path class="st29" d="M780.45,432.95c2.81,1.39,11.1,8.61,13.58,10.94-1.24,2.83-3.04,5.95-4.53,8.71-.85,1.24-2.22,2.92-3.74,3.13,1.92-10.64-1.95-13.39-5.31-22.77Z"/>
  <path class="st35" d="M37.57,317.38c1.58,1.71,4.62,10.01,6,12.58,6.1,11.34,17.4,38.63,25.34,47.16-1.76-.46-6.48-4.07-7.25-5.7-7.37-15.65-15.13-31.21-22.12-47.03-.99-2.24-1.53-4.64-1.98-7.01Z"/>
  <path class="st0" d="M45.29,281.97c2.2.93,2.85,1.52,3.62,3.87,1.22,3.73,5.04,16.22,3.3,19.42-4.2-2.74-6.03-5.9-7.84-10.41.88-4.77.89-8.02.92-12.87Z"/>
  <path class="st31" d="M62.64,379.57c3.53,1.35,2.14,4.27,1.14,7.52-3.44,11.24-3.07,23.39-2.42,35.02-1.55-1.32-2.05-7.91-2.32-10.17-1.46-12.25-.35-20.74,3.59-32.37Z"/>
  <path class="st35" d="M946,626.01c.12,8.8-1.58,64.01-3.8,69.14-.74-1.63,2.46-62.22,2.82-68.88l.99-.26Z"/>
  <path class="st1" d="M739.01,488.05l.16.78c-3.33,3.6-50.67,26.46-59.03,31.11l-.27-.44c3.27-3.64,51.93-28.04,59.15-31.45Z"/>
  <path class="st11" d="M945.01,626.27c.14-4.98,2.98-44.11,4.15-46.52,1.43,1.5,2.04,6.69,1.83,8.6-1.38,12.3-4.77,25.28-4.99,37.66l-.99.26Z"/>
  <path class="st38" d="M586.95,559.11c2.72-.98,4.16-1.72,7.07-1.76l.38.29c-3.85,1.99-8.17,2.97-12.4,4.35-16.15,5.27-32.91,7.28-49.63,9.78-1.83.27-4.7.57-6.39.47,3.8-1.4,5.6-.65,8.88-1.49,9.86-2.52,20.48-3.47,30.42-5.57,5.47-1.16,12.62-3.44,18.08-5.08l3.59-.99Z"/>
  <path class="st25" d="M417.49,519.24c3.74,4.74,16.35,22.18,15.4,27.84l-.75.03c-2.03-1.9-7.93-13.54-9.54-16.6-1.17-3.4-4.9-7.64-7.21-10.42l2.09-.85Z"/>
  <path class="st29" d="M745.74,852.79c3.73-.43,7.42-1.29,9.2,2.95l-.39.53c-.85-.78-2.84-2.92-3.92-2.76-13.83,1.94-27.24,2.08-41.19,2.08-3.53.21-6.81.4-10.27-.6,3.84-.61,14.75-.55,19.33-.67,9.1-.23,18.18-.74,27.24-1.52Z"/>
  <path class="st36" d="M739.88,865.81c.72-.25.3-.2,1.26.02-4.96,2.9-35.59,2.67-43.26,2.67-1.22-.09-.69.09-1.64-.48,1.18-.6,38.93-1.95,43.64-2.21Z"/>
  <path class="st35" d="M665.74,880.8l.92.16c6.14,1.04,18.21.86,22.53,2.89l-.14.39-1.04.21,1.15-.46-.25-.12c-4.12,2.8-18.88-.02-23.59-2.05l.42-1.03Z"/>
  <path class="st31" d="M985.78,653.66c1.26,5.39.71,21.17-.21,26.6-.03-2.88-.02-4.6-.48-7.49l-.37-.23c-.04-.59,1.22-4.94,1.47-6.61-.4-1.27-.71-2.35-1.72-3.17-4.97,1.14-4.7,5.42-6.06,9.54-.1-.45,1.12-8.73,1.33-9.67l.33,1.21c2.2-.2,2.61-7.05,5.71-10.18Z"/>
  <path class="st29" d="M773.76,358.3l1.48.38c-.14,1.32-2.77,2.06-3.87,3.41-2.67,3.28-3.37,7.45-5.53,11.33-1.04.17-.69-.08-1.2.49.72,2.06,1.14,2.41.55,4.16l-.66-.77c-.99-2.74-3.37-5.63-3.66-7.62l1.47.73c4.08-1.65,5.74-7.51,11.42-12.11Z"/>
  <path class="st38" d="M164.21,307.61c-.5-4.67-6.39-15.44-8.6-20.57-1.98-4.61-3.56-9.38-4.71-14.27-.53-2.2-1.31-5.56-.75-7.71,1.76,3.95,2.89,12.27,4.54,16.95,2.82,7.99,6.78,14.87,10.43,22.49-.64,1.4-.82,1.56-.92,3.12Z"/>
  <path class="st31" d="M964.21,751.86l.53.89c-1.44,5.31-9.9,17.1-13.34,22.04-1.62-2.96,1.89-6.4,3.71-9.07,3.13-4.58,6-9.27,9.1-13.85Z"/>
  <path class="st28" d="M512.09,584.75c5,1.47,9.72,4.54,14.36,5.67-1.93,3.9,2.82,3.54,4.16,6.87l-.2.43c-5.83-3.17-13.45-8.72-18.33-12.97Z"/>
  <path class="st36" d="M436.38,502.23l.89.85c.91,3.74-.89,28.11-1.04,33.79-2.26-3.21-.29-29.2.15-34.64Z"/>
  <path class="st11" d="M655.58,744.27c.87-.52,2.17-1.39,3.13-.89,2.53,1.33,10.91,5.52,12.49,7.21,1.15.44,2.25.87,3.42,1.25l-.7.73c-4.96-1.28-8.84-3.18-13.43-5.41l-1.28.07c-1.91-1.34-2.03-1.55-4.26-1.71l.62-1.26Z"/>
  <path class="st35" d="M660.5,747.17c2.97-1.27,7.41,2.32,10.7,3.42,1.15.44,2.25.87,3.42,1.25l-.7.73c-4.96-1.28-8.84-3.18-13.43-5.41Z"/>
  <path class="st11" d="M652.53,864.73c5.08,5.87,6.93,9.93,13.21,16.07l-.42,1.03c-6.28-.96-10.73-11.8-12.79-17.1Z"/>
  <path class="st38" d="M109.56,249.1c3.25-.2,7.65.25,10.9.37,4.47.16,22.51-1.19,25.41.44-2.47,1.7-20.1-.15-24.16-.08-3.75.07-8.6.2-12.46.37l.3-1.11Z"/>
  <path class="st38" d="M718.79,712.44c3.9,3.03,21.36,16.62,22.59,19.85-7.89-6.33-15.71-12.73-23.48-19.21l.89-.64Z"/>
  <path class="st33" d="M779.87,460c-3.62,5.82-15.65,19.06-21.5,21.16,2.83-3.17,6.23-5.89,9.27-8.87.94-.84,2.34-2.39,3.26-3.34,2.83-2.91,5.97-6.28,8.97-8.95Z"/>
  <path class="st29" d="M699.46,696.9c6.98,5.23,12.67,9.92,19.33,15.54l-.89.64c-6.49-5.33-12.48-9.83-19.26-14.8l.82-1.38Z"/>
  <path class="st33" d="M298.67,444.21c-.1,2.43-4.36,24.79-5.14,27.67l-.78-1.31c1.24-6.04,1.29-10.52,2.84-17.05.63-2.73,1.42-7.31,3.07-9.31Z"/>
  <path class="st11" d="M573.8,652.4c2.67.64,18.33,12.97,19.78,15.65-2.24-.64-18.21-13.39-19.78-15.65Z"/>
  <path class="st38" d="M599.54,559.13l.33.59c-1.83,1.72-18.53,5-22.26,5.83l-.33-.65c3.27-1.42,18.26-4.8,22.26-5.76Z"/>
  <path class="st31" d="M719.38,486.55c5.47-.35,8.14,0,13.5,1.03-3.09.43-4.86.67-7.99.71-4.71-.49-7.41.71-10.28.31,1.79-1.39,2.51-1.43,4.77-2.05Z"/>
  <path class="st31" d="M633.43,700.84c2.74.91,16.23,12.86,16.81,14.79-3.15-1.15-14.46-11.93-16.81-14.79Z"/>
  <path class="st37" d="M615.34,685.83c2.86.96,15.62,11.85,17.23,14.57-2.04-.27-15.4-12.28-17.23-14.57Z"/>
  <path class="st37" d="M705.99,491.38l.58.27c-.96,1.72-7.6,5.26-9.74,6.96-3.34,2.64-5.42,4.71-8.44,7.75l-.56-.09c1.21-4.24,14.51-12.57,18.16-14.89Z"/>
  <path class="st37" d="M402.33,477.82c3.16,1.33,11.14,9.88,12.33,13.25-2.34-1.1-10.82-10.75-12.33-13.25Z"/>
  <path class="st29" d="M756.16,871.73c5.99-.59,9.43-.57,14.68,2.65-3.28.26-11.68-1.33-14.68-2.65Z"/>
  <path class="st37" d="M598.02,672.38c3.45.43,13.43,9.1,15.67,11.79-3.04-.76-12.5-9.26-15.67-11.79Z"/>
  <path class="st11" d="M583.36,560.1c-1.27-1.95-1.99-2.93-1.53-5.15l1.07-.34c2.38.8,3.53,2.1,4.05,4.49l-3.59.99Z"/>
  <path class="st31" d="M686.6,529.72c2.94-1.14,9.08-3.72,11.84-4.24l1.1.68c-4.39,1.44-8.24,4.4-12.56,4.57l-.38-1.01Z"/>
  <path class="st11" d="M514.49,574.89c3.36-.24,7.11,1.6,9.26,4.15-5.11.15-6.24.03-9.26-4.15Z"/>
  <path class="st36" d="M885.18,755.48c-.48-3.04-1.9-15.99-1.36-18.88.98,1.24,1.68,11.47,1.99,14.05-.16,1.73-.35,3.11-.64,4.83Z"/>
  <path class="st31" d="M646.21,842.17c2.05,1.62,3.54,12.42,4.1,15.63-2.68-3.53-3.65-11.29-4.1-15.63Z"/>
  <path class="st37" d="M300.97,445.88c2.68,1.98,8.08,4.86,7.66,8.11-2.56-2.17-5.24-3.78-8.15-6.3l.49-1.81Z"/>
  <path class="st37" d="M749.07,380.96c1.45,2.33,3.02,10.89,4.93,15.4l-1.38-.78c-2.23-3.38-3.38-10.58-3.55-14.62Z"/>
  <path class="st31" d="M405.13,389.3c2.41.86,1.25,1.57,4.11,2.07,2.28-.82,3.42-1.54,5.52-.79-4.04,2.41-7.18,3.14-9.63-1.28Z"/>
  <path class="st31" d="M290.93,480.29c.49-1.58,1.46-7.78,1.82-9.73l.78,1.31c-.54,3.18-1.11,6.36-1.72,9.53l-.88-1.12Z"/>
  <path class="st29" d="M764.67,821.82c2.71,1.03,5.51,4.47,7.21,6.76-3.09-1.24-5.21-4.2-7.21-6.76Z"/>
  <path class="st31" d="M786.16,460.83l.7.73c.4,2.24-.08,3.88-.47,6.14l-.57-.51c-.48-1.5.13-4.64.35-6.36Z"/>
  <path class="st31" d="M354.92,540.54c1.17,1.03,2.63,1.99,3.01,3.39-1.43-.15-2.87-1.79-4-2.83l.99-.55Z"/>
  <path class="st11" d="M468.93,586.88c0-1.76-.24-3.07.69-4.51.82,2.06.1,4-.43,6.18l-.26-1.67Z"/>
  <path class="st32" d="M772.28,875.6l2.3.5.22.59-1.65,1.28c-1.94-.33-1.64.12-2.43-.9l1.56-1.47Z"/>
  <path class="st31" d="M845.98,482.08c-2.11-1.26-2.83-1.69-4.64-3.31,1.65.26,3.51,1.6,5.07,2.51l-.42.8Z"/>
</svg>