<?xml version="1.0" encoding="UTF-8"?>
<svg id="Layer_1" xmlns="http://www.w3.org/2000/svg" xmlns:xlink="http://www.w3.org/1999/xlink" version="1.1" viewBox="0 0 2048 1650">
  <!-- Generator: Adobe Illustrator 30.4.0, SVG Export Plug-In . SVG Version: 2.1.4 Build 226)  -->
  <defs>
    <style>
      .st0 {
        fill: #070707;
      }

      .st1 {
        fill: #7d7d7e;
      }

      .st2 {
        fill: #222227;
      }

      .st3 {
        fill: #bbb8ba;
      }

      .st4 {
        fill: url(#linear-gradient2);
      }

      .st5 {
        fill: url(#linear-gradient1);
      }

      .st6 {
        fill: url(#linear-gradient9);
      }

      .st7 {
        fill: url(#linear-gradient3);
      }

      .st8 {
        fill: url(#linear-gradient6);
      }

      .st9 {
        fill: url(#linear-gradient8);
      }

      .st10 {
        fill: url(#linear-gradient7);
      }

      .st11 {
        fill: url(#linear-gradient5);
      }

      .st12 {
        fill: url(#linear-gradient4);
      }

      .st13 {
        fill: #545454;
      }

      .st14 {
        fill: url(#linear-gradient13);
      }

      .st15 {
        fill: url(#linear-gradient12);
      }

      .st16 {
        fill: url(#linear-gradient15);
      }

      .st17 {
        fill: url(#linear-gradient11);
      }

      .st18 {
        fill: url(#linear-gradient10);
      }

      .st19 {
        fill: url(#linear-gradient14);
      }

      .st20 {
        fill: url(#linear-gradient);
      }

      .st21 {
        fill: #fffffe;
      }

      .st22 {
        fill: #a4a3a3;
      }

      .st23 {
        fill: #3d3d3f;
      }

      .st24 {
        fill: #616161;
      }
    </style>
    <linearGradient id="linear-gradient" x1="286.82" y1="699.52" x2="279.02" y2="708.97" gradientTransform="translate(2028.7044 1575.9375) rotate(-180) scale(.9375)" gradientUnits="userSpaceOnUse">
      <stop offset="0" stop-color="#4b4c50"/>
      <stop offset="1" stop-color="#656467"/>
    </linearGradient>
    <linearGradient id="linear-gradient1" x1="324.8" y1="589.75" x2="317.9" y2="590.19" gradientTransform="translate(2028.7044 1575.9375) rotate(-180) scale(.9375)" gradientUnits="userSpaceOnUse">
      <stop offset="0" stop-color="#4c4c4c"/>
      <stop offset="1" stop-color="#818182"/>
    </linearGradient>
    <linearGradient id="linear-gradient2" x1="318.24" y1="594.98" x2="328.85" y2="590.92" gradientTransform="translate(2028.7044 1575.9375) rotate(-180) scale(.9375)" gradientUnits="userSpaceOnUse">
      <stop offset="0" stop-color="#676667"/>
      <stop offset="1" stop-color="#858484"/>
    </linearGradient>
    <linearGradient id="linear-gradient3" x1="318.68" y1="596.14" x2="329.29" y2="592.08" xlink:href="#linear-gradient2"/>
    <linearGradient id="linear-gradient4" x1="315.84" y1="599.73" x2="314.12" y2="606.23" gradientTransform="translate(2028.7044 1575.9375) rotate(-180) scale(.9375)" gradientUnits="userSpaceOnUse">
      <stop offset="0" stop-color="#5f5f5f"/>
      <stop offset="1" stop-color="#7f7e7f"/>
    </linearGradient>
    <linearGradient id="linear-gradient5" x1="309.56" y1="588.74" x2="309.37" y2="589.04" gradientTransform="translate(2028.7044 1575.9375) rotate(-180) scale(.9375)" gradientUnits="userSpaceOnUse">
      <stop offset="0" stop-color="#2d2e2e"/>
      <stop offset="1" stop-color="#494a4b"/>
    </linearGradient>
    <linearGradient id="linear-gradient6" x1="244.47" y1="595.73" x2="242.06" y2="577.65" gradientTransform="translate(2028.7044 1575.9375) rotate(-180) scale(.9375)" gradientUnits="userSpaceOnUse">
      <stop offset="0" stop-color="#343234"/>
      <stop offset="1" stop-color="#525355"/>
    </linearGradient>
    <linearGradient id="linear-gradient7" x1="315.47" y1="639.93" x2="317.93" y2="633.1" gradientTransform="translate(2028.7044 1575.9375) rotate(-180) scale(.9375)" gradientUnits="userSpaceOnUse">
      <stop offset="0" stop-color="#565656"/>
      <stop offset="1" stop-color="#7c7c7d"/>
    </linearGradient>
    <linearGradient id="linear-gradient8" x1="277.84" y1="700.56" x2="271.69" y2="704.83" gradientTransform="translate(2028.7044 1575.9375) rotate(-180) scale(.9375)" gradientUnits="userSpaceOnUse">
      <stop offset="0" stop-color="#908f8f"/>
      <stop offset="1" stop-color="#c2c0bf"/>
    </linearGradient>
    <linearGradient id="linear-gradient9" x1="294.4" y1="639.07" x2="296.23" y2="635.22" gradientTransform="translate(2028.7044 1575.9375) rotate(-180) scale(.9375)" gradientUnits="userSpaceOnUse">
      <stop offset="0" stop-color="#656464"/>
      <stop offset="1" stop-color="#8d8c8c"/>
    </linearGradient>
    <linearGradient id="linear-gradient10" x1="281.6" y1="576.42" x2="278.2" y2="572.38" gradientTransform="translate(2028.7044 1575.9375) rotate(-180) scale(.9375)" gradientUnits="userSpaceOnUse">
      <stop offset="0" stop-color="#4e4c49"/>
      <stop offset="1" stop-color="#7c7c80"/>
    </linearGradient>
    <linearGradient id="linear-gradient11" x1="330.37" y1="650.17" x2="309.19" y2="640.69" gradientTransform="translate(2028.7044 1575.9375) rotate(-180) scale(.9375)" gradientUnits="userSpaceOnUse">
      <stop offset="0" stop-color="#5e5e5e"/>
      <stop offset="1" stop-color="#969596"/>
    </linearGradient>
    <linearGradient id="linear-gradient12" x1="236.83" y1="677.78" x2="242.05" y2="675.73" gradientTransform="translate(2028.7044 1575.9375) rotate(-180) scale(.9375)" gradientUnits="userSpaceOnUse">
      <stop offset="0" stop-color="#797878"/>
      <stop offset="1" stop-color="#908f8f"/>
    </linearGradient>
    <linearGradient id="linear-gradient13" x1="204.25" y1="636.98" x2="207.06" y2="638.49" gradientTransform="translate(2028.7044 1575.9375) rotate(-180) scale(.9375)" gradientUnits="userSpaceOnUse">
      <stop offset="0" stop-color="#38383a"/>
      <stop offset="1" stop-color="#616163"/>
    </linearGradient>
    <linearGradient id="linear-gradient14" x1="229.61" y1="677.48" x2="232.79" y2="675.11" gradientTransform="translate(2028.7044 1575.9375) rotate(-180) scale(.9375)" gradientUnits="userSpaceOnUse">
      <stop offset="0" stop-color="#282627"/>
      <stop offset="1" stop-color="#505155"/>
    </linearGradient>
    <linearGradient id="linear-gradient15" x1="206.45" y1="624.15" x2="202.92" y2="621.55" gradientTransform="translate(2028.7044 1575.9375) rotate(-180) scale(.9375)" gradientUnits="userSpaceOnUse">
      <stop offset="0" stop-color="#5d605c"/>
      <stop offset="1" stop-color="#86838a"/>
    </linearGradient>
  </defs>
  <path class="st0" d="M1781.45,926.77c.04.2.02.16-.03.39-.55-.72-1.02-1.8-1.64-2.62-1.58-2.11-3.77-5.01-5.63-6.84l-.11.29c.15.29.19.34.28.65.17.09-6.44-6.42-6.64-6.65-1.95-1.93-3.88-3.8-5.84-5.63l-.79.45c3.96,3.74,7.74,7.66,11.29,11.79.88.98,2.38,2.83,3.13,3.95-1.31,2.8-4.24,5.27-6.74,7.35-7.73,6.43-16.87,11.29-25.99,15.47-.04.01-.07.02-.11.04-2.42,1.11-4.87,2.35-7.34,3.34-2.12.86-4.4,1.35-6.63,1.96l.06,8.22c1.08-.07,1.98.01,2.48.34,2.1-1.06,4.3-2.35,6.57-2.92-.8.52-8.55,4.31-8.85,4.29v-.24c-.07-.02-.12-.03-.19-.05v1.16c7.02-1.95,13.81-4.67,18.41-6.72,2.84-1.26,7.4-3.65,10.13-4.55-1.65,1.22-6.92,3.62-9.06,4.5-5.84,2.41-12.59,5.21-19.46,7.16l.06,8.43c3.49,1.5,6.97,2.95,10.44,4.58,14.08,6.51,26.38,13.75,38.47,23.51,2.41,2.04,6.35,4.51,9.02,6.35,1.06.73,4.07,2.21,4.67,2.83l-.05.18c-.35.09-.76-.02-1.09-.17-4.47-1.94-9.86-5.65-14.61-6.64-4.94-1.03-11.42-1.19-16.53-1.63-.34-.57-.76-1.14-1.14-1.68,2.8-.26,16.93.1,17.87-.42-3.72-2.89-7.37-5.49-11.39-7.96-8.44-5.19-16.8-10.24-25.93-14.11-3.19-1.35-6.47-2.53-9.73-3.77l.03,4.19c.1.28.27.62.59,1.03v.29s-.24.1-.24.1c-.11-.04-.23-.09-.34-.14l.03,3.62c1.36.79,2.72,1.6,4.01,2.48,4.4,2.61,8.76,5.28,13.08,8.01,1.42.9,4.73,2.91,5.88,3.97-2.27-1.27-4.53-2.78-6.76-4.13l-12.59-7.55c-1-.44-2.48-1.42-3.61-2.11v1.76c1,1.57.96,3.55.9,5.64-.18.36-.23.39-.49.7.04.58.75,1.19,1.21,1.72-.62-.07-1.11-.16-1.55-.27l.08,10.86c4.75,2.74,7.59,7.51,9.76,12.51,2.01,5,3.01,10.9,1.96,16.24-.75,3.81-3.46,7.83-7.92,6.6-1.03-.21-2.33-.87-3.55-1.62l.02,2.9c1.12.7,2.11,1.41,3.54,1.92,4.61,1.63,10.47-.3,14.67-2.26,3.52,2.15,8.69,4.15,12.83,4.34,7.55.35,13.88-.84,21.14-2.56,18.36-4.35,35.31-12.41,49.52-24.91,1.16-1.02,2.73-2.35,3.66-3.55.29-.37.98-1.94,1.26-2.53,1.42-3,3.36-6.79,3.52-10.15.05-1.04-1.51-3.02-1.31-4.3.18-1.2.47-2.31.72-3.46.51-2.29.89-4.37,1.02-6.72.21-3.73.01-7.29-1.43-10.78-.69-1.65-1.59-3.34-2.13-5.03-2.35-7.28-5.77-13.62-11.66-18.67-2.35-2.01-4.37-4.09-7.01-5.93-8.41-5.86-17.66-10.41-26.65-15.29-4.12-2.26-9.78-5.07-12.85-8.51,1-4.57,6.4-10.61,1.02-14.91l-.16.21c3.31,3.17,2.2,7.14-.24,10.42-.13.18-.33.24-.53.28.29-.62.8-1.06,1.15-1.63,1.27-2.03,1.79-4.42.96-6.73-.37-1.04-1.18-2.21-2.46-1.52-.89.51-1.58,1.81-2.06,2.71-.74-1.07-1.12-1.76-1.57-3.01-.32.27-.76.63-1.05.92l.13.18c-.24.25-.46.26-.81.33-.24.28-.18.17-.32.51l-.18-.06c-.78,1.45-.88,3.72-.84,5.31-1.7-1.85-3.88-3.89-5.73-5.63-.63-.6-1.27-1.19-1.92-1.78l-.44.25c7.96,7.3,17.52,17.07,18.35,21.1ZM1818.58,991.66c1.39-.76,7.51-3.23,8.78-3.07-8.27,2.57-15.64,6.92-22.98,11.44-3.3,2.03-6.64,4.07-9.75,6.39-2.45,1.83-4.73,3.85-7.02,5.87-1.54,1.36-3.88,3.01-4.81,4.85-.44.86-.56,1.81-.25,2.73.48,1.43,1.87,2.3,3.18,2.89,3.97,1.8,7.37,1.11,11.3-.41,8.8-3.39,26.64-12.2,32.92-19.01,1.05-1.14,1.87-2.46,2.49-3.88.98-2.21,1.91-5.56.98-7.92-.41-1.04-1.21-1.77-2.23-2.2-.7-.3-1.4-.44-2.15-.5-1.78,4.63-9.75,8.74-13.66,11.92-.18,1.92-.41,2.86-1.01,4.71-1.69-1.22-2.89-2.16-4.88-2.78-1.34.47-3.1,1.38-4.46,1.95-3.6,1.5-8.75,3.81-12.54,4.63l-.21-.2-.29.24v-.05c.33-.33,1.22-.84,1.68-.97,5.46-1.54,10.38-3.99,15.61-6.08,1.84.53,3.05,1.46,4.58,2.55-.16-2.88-.03-5.09.08-7.97.54,1.17.8,2.01,1.15,3.24,2.41-2.25,7.07-4.66,9.73-7.11,1.94-1.78,2.29-2.44,3.84-4.24l.16-.18c4.24.23,5.67,2.62,5.23,6.6-.51,4.58-3.03,8.27-6.66,11.04-8.09,6.18-17.3,11.16-26.67,15.11-2.9,1.22-5.88,2.46-8.99,2.99-4.11.63-12.47-2.61-8.81-7.91.87-1.26,3.28-3.1,4.51-4.25,9.04-8.5,20.33-14.49,31.13-20.42ZM1813.56,1001.28l-.09.05c-.19-.43-.63-3.03-.47-3.52.18.55.59,2.91.56,3.47ZM1828.2,958.76c.36.57.6,1.06.9,1.66-.01.72-.08,1.41-.18,2.13-.38,2.54-.6,5.01-.72,7.57-.06,2.81.94,15.1.17,16.83-.24-1.25,0-3.78-.03-5.16-.04-2.29-.08-4.65-.19-6.95-.05-1.22-.05-3.29-.21-4.43-.42-.65.32-9.97.25-11.66ZM1834.13,1002.03c-.43,1.06-2.5,4.7-3.51,5.1.25-.76,2.91-4.54,3.51-5.1ZM1785.5,1032.99c-.36.79-.55.61-1.42.51.61-.34.73-.46,1.42-.51ZM1783.45,1032.58c-.42-.09-.42,0-.66-.23.56-.21,1.06-.17,1.65-.13.4.07.7.07,1.01.31-.51.16-1.43.07-2,.05ZM1789.72,1008.56c-1.71.4-2.7.55-4.44.67-1.38.1-2.71.2-4.09.23,1.03-.95,2.94-2.07,4.19-3.05,1.46.7,2.9,1.42,4.34,2.16ZM1769.01,1028.79c-.57,0-1.13.07-1.66-.12-.06.02,12.74-1.12,13.11-1.1.36.34.68.55.82,1.01l-.11.17c-.51-.26-.59-.94-1.07-.89-3.62.37-7.44.92-11.08.93ZM1777.8,1031.01c-1.22.48-9.48,1.19-10.69.96l.14-.18c2.91-.16,5.81-.34,8.71-.66.6-.07,1.24-.17,1.84-.12ZM1734.42,981.15c-.49-.31-1.14-.62-1.29-1.16.45.25.98.48,1.29.87v.29ZM1739.47,984.3c-.49-.28-.96-.5-1.34-.9.08-.2.02-.14.13-.22.43.26,1.2.64,1.33,1.05l-.12.08ZM1742.19,986.09c-.36-.21-.71-.34-.87-.7l.13-.17.85.58v.2s-.1.1-.1.1ZM1744.76,987.85c-.36-.23-.73-.4-.94-.76l.14-.11c.43.29.65.36.91.77l-.12.09ZM1743.82,979.56l.15-.04c1.67.67,8.63,3.31,9.2,4.54l-.21.17c-1.99-.35-4.26-.74-6.21-1.26-.68-1.23-2.88-3.08-2.93-3.41ZM1749.93,991.44c-.73-.5-1.68-1.1-2.3-1.69l-.02-.17.14-.04c.66.47,1.81,1.26,2.32,1.85-.13.06-.09.06-.15.05ZM1751.4,992.59l.05-.15h.08c.43.24,1.77,1.07,1.97,1.51l-.12.1h-.05c-.57-.41-1.44-.99-1.93-1.46ZM1744.12,997.72c3.98.9,8.54,1.99,12.59,2.38,3.86.34,7.73.63,11.6.87,1.79.13,5.27.19,6.82.76,2.53.93,5.26,2.86,7.98,3.56.4.1.93.29,1.13.66l-.24.23c-1.26.59-5.56,2.85-6.55,3.05-4,.79-10.39.13-14.46.16l-.24.36c.74.22,1.28.25,1.87.68l-.02.19c-1.53.44-4.92-.23-6.56-.4-4.17-.42-6.67-3.26-9.13-6.37-1.6-2.01-3.25-4.01-4.77-6.13ZM1754.47,1012.05c-1.43-.93-2.37-1.19-4.02-1.73,1.15-.12,1.88-.23,3.04-.09,5.13,2.3,10.32,3.01,15.76,4.28,1.44.33,5.05.8,6.22,1.29-3.58.29-7.18.41-10.77.35-7.77-.32-11.12-.65-17.06-5.68,2.47.26,3.61,1.53,6.83,1.59ZM1765.07,1035.7c-1.27.39-2.73.28-4.04.11-2.29.29-4.23-2.88-4.94-4.73,1.89,2.82,2.47,4.27,6.13,4.33.94,0,1.85-.05,2.76.18l.08.1ZM1755.78,1030.07c-.05.08-.1.16-.15.24-.32-.86-1.27-3.33-1.05-4.17l.12-.12c.34.99.77,2.92,1.08,4.05ZM1771.84,1037.62c-2.25.44-4.9.87-7.19,1.09-1.71.41-9.5.23-10.47-1.65l.11-.24c1.77-.55,6.01-.21,8-.3,2.75-.13,7.4-.37,9.94.64l.17.2c-.23.24-.24.21-.57.26ZM1830.17,1012.94c-1.23,1.17-2.85,2.57-4.19,3.61-.22.36-2.3,1.75-2.8,2.13-3.53,2.7-7.3,5.08-11.26,7.1-3.02,1.55-6.63,3.01-9.77,4.29-7.95,3.24-16.13,6.25-24.62,7.71-1.19.2-3.26.56-4.43.57l-.09-.15c.77-.84,5.45-1.53,6.68-1.73,8.89-1.49,17.41-4.84,25.59-8.55,6.27-2.84,12.01-6.72,17.62-10.69.85-.6,4.02-3.52,4.63-3.7.42.19.46.23.81.51.06-.26.05-.24.16-.5h.23c1.25-.76,3.1-2.38,3.57-3.77l-.1-.09-.62.3c.61-1.46,1.99-2.83,2.56-4.63-.76.53-1.76,3.33-3.18,4.02l-.07-.25c.25-.93,3.81-6.81,4.75-7.5l.14-.23c-.41-.22-.26-.06-.43-.51.35-1.48,1.77-4.73,2.44-6.15-.7,6.25-2.88,13.72-7.62,18.2ZM1836.83,975.41c.21-1.49.26-2.38.29-3.9.54,1.04.95,2.01,1.24,3.15l.41,1.42c.24,1.47.93,5.37.35,6.77-.06.91-.1,1.61-.24,2.52-.13,1.22-.36,2.61-.61,3.77-.37,1.71-2.56,8.45-3.72,9.38.84-2.18,3.42-9.16,3.12-11.17-.23.38-.46.76-.68,1.15-.03,1.2-1.79,2.5-2.55,3.28.09-3.11,2.04-6.61,2.94-9.64.38-1.28-.09-1.65.32-2.53.07-.61.13-1.21.18-1.82l-.09.15c-.63,1.07-3.14,5.75-4.24,6.07-.22-.72.43-2.24.76-2.92.73-1.9,1.75-3.66,2.51-5.67ZM1832.66,960.78c2,4.05,4.61,9.16,2.99,13.63-.65,1.79-4.05,8.78-5.79,8.99-.54-.45-.4-1.08-.4-1.76-.27-1.73-.68-7.87-.39-9.56,1.05-6.15,3.32-8.84,1.5-15.26.68,1.1,1.47,2.75,2.09,3.94ZM1814.18,942.84c4.96,2.98,9.37,6.79,13.04,11.26.82.99,2.63,3.08,2.33,4.43l-.19.07c-1.12-1.18-2.18-2.76-3.29-4.04-2.9-3.33-5.76-6.39-9.16-9.21l-.16.13c-.09.3-.03.16-.17.42-1.02-.58-3.08-2.22-4.12-2.99-1.79-1.32-4.26-2.96-5.81-4.48,1.7.82,6.2,3.26,7.53,4.42ZM1804.32,937.56c2.59,1.62,4.93,3.84,7.42,5.58,4.82,3.39,9.6,6.61,13.29,11.3.36.46,1.57,1.87,1.63,2.4-.67-.51-1.16-1.13-1.77-1.71-2.53-2.45-5.6-4.35-8.48-6.35-1.41-.98-2.76-2.12-4.15-3.05.36.52,1.46,1.99,1.56,2.49-1.37.8-3.44-1.86-4.01-2.94-1.78-3.38-2.6-4.9-5.75-7.19-1.58-1.13-4.55-2.96-5.8-4,.9.34,4.95,2.81,6.08,3.48ZM1809.21,947l-.11.2c-.89-.87-10.15-11.27-10.15-11.27l.06-.02c3.74,1.09,7.63,5.86,9.28,9.18.32.64.72,1.21.92,1.92ZM1798.93,936.74l1.1,1.1c8.76,8.62,17.17,20.22,22.2,31.45.43.97,1.68,3.9,1.67,4.86-1.05-2.43-1.99-4.95-3.19-7.31-5.39-10.59-12.67-20.41-20.97-28.88l-1.09-1.1c-3.15-3.05-6.59-4.99-9.46-7.55,1.3.21,8.48,6.01,9.74,7.42ZM1781.19,931.07c-.43.73-1.72,2.57-2.43,2.95.57-.83,1.61-2.55,2.43-2.95ZM1776.81,934.18c.58-.66,2.62-3.08,3.21-3.34-1.37,1.66-5.1,6.31-7.14,7.26.73-1.19,2.85-2.69,3.93-3.92ZM1776.37,935.98c-.58.63-2.37,2.73-3.03,2.91.44-.76,2.26-2.7,3.03-2.91ZM1751.42,947.19c-1.31.47-3.12.74-4.55,1.41-.52.24-2.76,1.1-3.22,1.11,1.54-.92,6.09-2.81,7.77-2.52ZM1737.34,954.87c.49-1.5,2.2-3.2,3.73-3.56l-.96.84c-.93.82-1.94,2.44-2.77,2.72ZM1749.82,950.34c-2.22.85-10.1,5.56-11.81,5.61.54-.51,6.2-3.36,7.11-3.74,2.54-1.06,8.65-4.78,11.05-5.05-.63.46-5.55,2.87-6.35,3.18ZM1752.63,948.03c-.1.04-.21.04-.32.04.68-1,13.24-5.35,15.42-6.12.71-.25,5.12-2.78,5.4-2.83-.49.96-3.34,2.23-4.33,2.72-2.08,1.02-4.48,1.52-6.61,2.42-3.17,1.33-6.32,2.64-9.56,3.77ZM1765,987.3c-5.96-3.82-11.8-7.5-17.9-11.11-1.8-1.07-8-4-9.19-5l.02-.16.22-.02c3.23,1.05,7.93,2.47,10.92,3.9,2.54,1.22,7.13,4.92,9.35,6.72,2.02,1.64,4.84,3.88,6.76,5.61l.03.14-.21-.07ZM1774.59,941.65c.17-.59.27-1.3.78-1.63-.1.75-.03,1.27-.78,1.63ZM1776.36,938.51c-2.43,2.27-15.43,10.63-17.99,11.19.66-.78,6.58-3.92,7.87-4.76,4.35-2.83,8.76-5.17,12.3-9.1.54-.6,2.67-3.15,3.18-3.42-1.44,2.22-3.5,4.35-5.36,6.09ZM1781.51,930.28c-.07-.84-.08-1.05.01-1.9.21.76.37,1.21-.01,1.9ZM1783.28,932.22c-.09-.58-.19-.9.09-1.43.15.64.21.83-.09,1.43ZM1781.3,923.62c1.29.79,2.9,1.73,3.94,2.8-.46.86-.68,1.32-1.31,2.06-.24.2-.42.43-.67.45-.07-.79-.32-1.93-.64-2.66-.29-.65-1.61-1.84-1.6-2.59l.28-.07ZM1779.17,906.02c-2.16,1.73-2.38,2.42-2.14,5.15-.16-.29-.3-.54-.44-.84l-.77-1.12c1.48-.74.91-3.1,3.35-3.19ZM1772.96,911.35c.26.8.33,1.71.44,2.56l-.11.08c-.3-.68-.39-1.9-.33-2.64Z"/>
  <path class="st0" d="M1764.51,918.85c.64.04,1.42.96,2.25.74l.08-.26c-.2-.64-.17-.46-.74-.98-.57-.33-1.01-.84-1.6-1l-.3.34c-.5.06-5.11-2.67-5.98-3.13-1.87-.98-3.75-1.93-5.63-2.9l-2.57,1.47c1.56.69,3.26,1.35,4.63,1.99,3.21,1.5,6.3,3.51,9.85,3.76Z"/>
  <path class="st21" d="M1775.47,904.7c-.58.17-2.51,1.11-2.28,1.86.28-.3.73-.65,1.05-.92.45,1.25.83,1.93,1.57,3.01.48-.9,1.17-2.2,2.06-2.71,1.27-.7,2.08.47,2.46,1.52.83,2.31.31,4.7-.96,6.73-.36.57-.87,1.02-1.15,1.63.21-.04.4-.1.53-.28,2.45-3.29,3.55-7.26.24-10.42-1.32-.72-2.04-.84-3.52-.41Z"/>
  <path class="st2" d="M1772.51,907.07c.34-.08.56-.09.81-.33l-.13-.18c-.23-.75,1.7-1.69,2.28-1.86,1.48-.44,2.19-.31,3.52.41l.16-.21c-2.73-1.69-6.15-.31-7.14,2.62l.18.06c.15-.34.08-.23.32-.51Z"/>
  <path class="st2" d="M1754.82,910.38l-.23.13s.1.05.14.07l.09-.2Z"/>
  <path class="st2" d="M1742.97,941.65c2.09-.93,4.13-2.11,6.29-2.87-3.27,2.74-9.89,4.81-13.82,6.82-.96.49-1.93.85-2.91,1.4.45.39,1.19.95,1.68,1.33,1.24-.78,7.12-3.77,8.44-2.92.04-.01.07-.02.11-.04,9.12-4.18,18.26-9.04,25.99-15.47,2.5-2.08,5.43-4.54,6.74-7.35-.75-1.11-2.25-2.97-3.13-3.95-.66.39-1.2.56-1.92.82-1.18-.69-5.02-4.72-6.41-5.93-1.98-1.74-3.91-3.41-5.85-5.02l-3.14,1.79c.91.08,3.11,1.73,3.77,2.23l.16.12c.82.49,1.62.99,2.46,1.45,1.03.41,4.34,2.84,4.92,3.8-.03.38.03.21-.24.49.57.52.55.34.74.98l-.08.26c-.82.22-1.61-.7-2.25-.74-3.55-.25-6.65-2.26-9.85-3.76-1.37-.64-3.08-1.3-4.63-1.99l-21.54,12.27.16,22.51c1.51-.6,3.02-1.22,4.51-1.87,3.28-1.43,6.54-2.91,9.81-4.36ZM1774.02,923c-.59.66-3.74,2.79-4.55,2.8.71-1.12,3.24-2.53,4.55-2.8Z"/>
  <path class="st2" d="M1770.43,919.42c.72-.26,1.26-.42,1.92-.82-3.56-4.12-7.34-8.05-11.29-11.79l-2.88,1.64c1.94,1.61,3.87,3.29,5.85,5.02,1.39,1.21,5.22,5.24,6.41,5.93Z"/>
  <path class="st20" d="M1770.43,919.42c.72-.26,1.26-.42,1.92-.82-3.56-4.12-7.34-8.05-11.29-11.79l-2.88,1.64c1.94,1.61,3.87,3.29,5.85,5.02,1.39,1.21,5.22,5.24,6.41,5.93Z"/>
  <path class="st23" d="M1742.64,945.41c-1.32-.85-7.2,2.14-8.44,2.92-.48-.38-1.23-.94-1.68-1.33.98-.56,1.95-.91,2.91-1.4,3.93-2.01,10.55-4.08,13.82-6.82-2.16.76-4.19,1.94-6.29,2.87-3.27,1.46-6.53,2.93-9.81,4.36-1.49.65-3,1.27-4.51,1.87l.02,2.83c2.23-.6,4.51-1.1,6.63-1.96,2.46-.99,4.92-2.23,7.34-3.34Z"/>
  <path class="st23" d="M1764.2,917.68l.3-.34c.59.16,1.03.67,1.6,1,.27-.28.21-.11.24-.49-.58-.96-3.89-3.39-4.92-3.8l-.13.41c-.6.11-3.55-1.37-4.01-1.84-1.17-.56-2.32-1.12-3.47-1.67l-1.21.69c1.87.97,3.76,1.92,5.63,2.9.87.47,5.47,3.19,5.98,3.13Z"/>
  <path class="st24" d="M1757.33,912.33c-.28-.2-.56-.41-.84-.6-.19-.24-1.37-.88-1.76-1.15-.04-.02-.1-.05-.14-.07l-.78.44c1.15.56,2.3,1.11,3.47,1.67l.05-.3Z"/>
  <path class="st13" d="M1757.33,912.33l-.05.3c.45.48,3.4,1.95,4.01,1.84l.13-.41c-.83-.46-1.64-.96-2.46-1.45-.92-.25-1.25-.72-2.47-.88.28.2.56.4.84.6Z"/>
  <path class="st23" d="M1756.49,911.73c1.22.16,1.55.64,2.47.88l-.16-.12c-.66-.5-2.86-2.15-3.77-2.23l-.21.12-.09.2c.39.27,1.58.91,1.76,1.15Z"/>
  <path class="st23" d="M1774.02,923c-1.31.27-3.84,1.68-4.55,2.8.8,0,3.95-2.14,4.55-2.8Z"/>
  <path class="st0" d="M1730.6,1020.35c.45,2.39,1.18,1.55,2.65,2.15.05-.39.06-.61.08-1,.77.08,1.76,2.79,2.19,3.41,1.32,1.93,2.79,4.23,4.39,5.94-.37.77-.79,1.62-1.12,2.39-.98-1.73-2.06-3.38-3.04-5.1-.83-1.46-1.52-3.05-2.28-4.55.1.86.35,1.84.22,2.67-.28.38-.21.35-.72.43l-.07.35c.47,1.09.55.01.64,1.59.07,1.3-.47,6.63.05,7.46l.21-.08c.08-.27.12-.43.22-.69l.7-1.09-.13-4.78c.57,1.54,1.06,3.04.83,4.7.75.02,1.61-1.26,2.6-.98.32.36.22.16.32.62-.37.9-1.41,1.09-1.18,1.76,1.62-.8,3.04-3.59,3.32-5.36.15-.96.85-5.3-.06-5.85-1.24-.74-2.99-1.49-4.15-2.6-.34-.34-1.15-.61-1.55-1.17.94.28,2.14,1.43,3.02,1.96,1.04.64,2,1.12,3.1,1.64-.08-3.42-1.12-6.84-2.24-10.04-1.47,1.06-2.54,1.74-4.11,2.59.36.33.45.37.64.83l-.11.22c-.6-.16-1.48-1.1-1.57-1.68.98-.96,3.51-1.9,4.82-2.78-1.31-2.64-2.62-5.28-4.6-7.5-.03.89-.08,1.78-.17,2.67-.04,1.36.18,4.52-.29,5.61.08.34.12.57.17.92l-.18.16c-1.04-2.24-1.27-1.44-.57-4.28.24-.99.46-2.58.63-3.64.08-.5.16-1.02.28-1.51-.5-.59-.91-1.09-1.49-1.61-.1,1.96-.49,3.86-.75,5.81-.12.89-.12,2.31-.35,3.09-.45-1.63.73-6.88.83-9.01-.6-.76-1.6-1.49-2.71-2.09l.06,7.77c.11.23.22.45.33.67-.08.27,0,.17-.23.31-.03-.01-.06-.02-.09-.03l.02,2.86c.17.2.37.43.68.83-.19.24-.07.16-.35.25-.07-.06-.19-.2-.32-.38l.02,2.4c.24.13.48.26.72.4l-.02.13c-.42.26-.62.48-.69.98v.03c.19.11.38.21.57.32-.1.21-.32.41-.56.58l.03,4.61c.19-.57.38-1.14.58-1.69.23-.65.33-1.39.83-1.64ZM1737.72,1023.35c.51.26,1.46.68,1.79,1.06l-.16.03c-.54-.26-1.39-.6-1.79-1,.05-.03.11-.06.16-.09ZM1737.97,1021.73l-.28-.13c-.7-.51-1.63-.98-1.15-1.91.3-.18.2-.15.52-.23.65.59.87,1.15,1.01,2.01l-.1.25ZM1738.76,1015c-.54,1.39-.88,1.88-2.21,2.64l-.39-.05c.1-1.09,1.62-2.45,2.6-2.58ZM1734.88,1018.71c.42.26.57.31.83.73,0,.47.09.28-.2.6-.38-.37-.71-.59-.84-1.09.06-.07.14-.2.21-.24ZM1730.71,1017.07l.22-.07.36.26c.12-.27.04-.21.23-.34.31.62-.18,1.23.05,1.81.34.86.88.74.9,1.78l-.41.22.2.55-.13.2c-.56.02-.93-.43-1.26-.82-.16-.52.04-.86.27-1.33-.37-.24-.58-.37-.92-.65l.51-1.59Z"/>
  <path class="st24" d="M1740.8,1024.18c-1.1-.52-2.06-1-3.1-1.64-.87-.53-2.07-1.68-3.02-1.96.4.56,1.21.83,1.55,1.17,1.16,1.1,2.91,1.85,4.15,2.6.91.55.21,4.89.06,5.85-.27,1.77-1.7,4.57-3.32,5.36.01.07.01.01-.05.23-.2-.06-.18-.08-.36-.04-.87.22-1.68.06-2.55-.11l-.17-.31c-.1.26-.14.42-.22.69l-.21.08c-.52-.84.02-6.17-.05-7.46-.08-1.58-.17-.51-.64-1.59-.26-.76-.31-3.15.41-3.64l.16.2c.77,1.5,1.46,3.1,2.28,4.55.98,1.72,2.06,3.37,3.04,5.1.33-.77.76-1.63,1.12-2.39-1.59-1.71-3.06-4.01-4.39-5.94-.42-.62-1.42-3.32-2.19-3.41-.01.39-.03.6-.08,1-1.48-.6-2.2.24-2.65-2.15l-.09,1.16-.12.1c.59.33,1.42.69,1.42,1.48.21,1.31.42,2.63.48,3.95.11,2.57-.03,5.52.36,8.06.11-.33.19-.58.28-.92.45.61.59,1.4.16,2.06-.36.22-.36.19-.8.19.34.55.55.12.55.5,4.46,1.23,7.17-2.79,7.92-6.6,1.06-5.33.05-11.24-1.96-16.24l-.23.04c1.12,3.2,2.17,6.62,2.24,10.04Z"/>
  <path class="st2" d="M1731.8,1023.08c0-.79-.82-1.15-1.42-1.48-.36,1.15-.77,2.28-1.18,3.42l.05,7.53c.32.04.65.13.94.18-.21-1.76.05-8.84,1.6-9.66Z"/>
  <path class="st0" d="M1732.64,1035.09c-.39-2.54-.25-5.49-.36-8.06-.06-1.32-.27-2.64-.48-3.95-1.55.82-1.81,7.9-1.6,9.66-.29-.06-.62-.15-.94-.18v.38c.85.31,1.82.71,2.37,1.18.36.31.57.97,1.01.98Z"/>
  <path class="st13" d="M1732.28,1036.42c.44,0,.44.03.8-.19.43-.66.29-1.44-.16-2.06-.09.34-.17.59-.28.92-.44,0-.65-.66-1.01-.98-.55-.48-1.52-.87-2.37-1.18l.02,2.36c1.22.76,2.52,1.42,3.55,1.62,0-.37-.22.06-.55-.5Z"/>
  <path class="st23" d="M1732.88,1027.03l.07-.35c.51-.08.44-.04.72-.43.13-.83-.11-1.8-.22-2.67l-.16-.2c-.73.49-.68,2.88-.41,3.64Z"/>
  <path class="st0" d="M1730.5,1021.51l.09-1.16c-.49.24-.6.99-.83,1.64-.19.55-.38,1.12-.58,1.69v1.35c.42-1.13.83-2.26,1.19-3.42l.12-.1Z"/>
  <path class="st5" d="M1730.5,1021.51l.09-1.16c-.49.24-.6.99-.83,1.64-.19.55-.38,1.12-.58,1.69v1.35c.42-1.13.83-2.26,1.19-3.42l.12-.1Z"/>
  <path class="st0" d="M1729.72,1018.47c-.19-.11-.38-.22-.57-.32v.91c.25-.18.47-.37.57-.58Z"/>
  <path class="st4" d="M1729.72,1018.47c-.19-.11-.38-.22-.57-.32v.91c.25-.18.47-.37.57-.58Z"/>
  <path class="st0" d="M1729.84,1017.14l.02-.13c-.24-.14-.48-.27-.72-.4v1.51c.08-.5.28-.72.7-.98Z"/>
  <path class="st7" d="M1729.84,1017.14l.02-.13c-.24-.14-.48-.27-.72-.4v1.51c.08-.5.28-.72.7-.98Z"/>
  <path class="st1" d="M1731.75,1004.01c-.1,2.13-1.28,7.39-.83,9.01.22-.78.23-2.2.35-3.09.26-1.95.65-3.85.75-5.81.58.52.99,1.02,1.49,1.61-.12.48-.2,1.01-.28,1.51.21.55.2.63.25,1.23.08-.89.14-1.78.17-2.67,1.98,2.22,3.29,4.86,4.6,7.5-1.32.88-3.84,1.81-4.82,2.78.09.58.97,1.52,1.57,1.68l.11-.22c-.19-.46-.28-.5-.64-.83,1.56-.85,2.64-1.53,4.11-2.59l.23-.04c-2.17-5-5-9.77-9.76-12.51v.34c1.11.6,2.11,1.34,2.71,2.09Z"/>
  <path class="st23" d="M1736.72,1035.74c.18-.04.16-.02.36.04.06-.22.06-.16.05-.23-.23-.67.81-.86,1.18-1.76-.1-.46,0-.26-.32-.62-.99-.28-1.85,1-2.6.98.23-1.66-.26-3.15-.83-4.7l.13,4.78-.7,1.09.17.31c.87.17,1.68.33,2.55.11Z"/>
  <path class="st0" d="M1732.59,1010.89c-.7,2.84-.47,2.03.57,4.28l.18-.16c-.05-.35-.09-.57-.17-.92.47-1.1.25-4.25.29-5.61-.04-.6-.04-.68-.25-1.23-.17,1.06-.39,2.65-.63,3.64Z"/>
  <path class="st12" d="M1732.59,1010.89c-.7,2.84-.47,2.03.57,4.28l.18-.16c-.05-.35-.09-.57-.17-.92.47-1.1.25-4.25.29-5.61-.04-.6-.04-.68-.25-1.23-.17,1.06-.39,2.65-.63,3.64Z"/>
  <path class="st13" d="M1730.86,1020.65c.33.39.7.84,1.26.82l.13-.2-.2-.55c-.3-.24-.59-.75-.56-1.14.58.38.27.63.97.92-.02-1.04-.56-.92-.9-1.78-.23-.57.27-1.18-.05-1.81-.19.13-.11.07-.23.34l-.36-.26-.22.07-.51,1.59c.35.29.55.42.92.65-.23.46-.43.81-.27,1.33Z"/>
  <path class="st2" d="M1731.5,1019.58c-.03.39.26.91.56,1.14l.41-.22c-.7-.29-.39-.55-.97-.92Z"/>
  <path class="st13" d="M1729.42,1010.36c-.1-.23-.22-.45-.33-.67v.95s.06.02.1.03c.23-.13.15-.04.23-.31Z"/>
  <path class="st2" d="M1738.76,1015c-.99.13-2.5,1.5-2.6,2.58l.39.05c1.33-.75,1.67-1.25,2.21-2.64Z"/>
  <path class="st23" d="M1736.54,1019.69c-.48.93.46,1.4,1.15,1.91l.28.13.1-.25c-.14-.87-.36-1.42-1.01-2.01-.32.08-.22.05-.52.23Z"/>
  <path class="st1" d="M1729.8,1014.33c-.3-.4-.51-.63-.68-.83v.71c.14.18.25.32.33.38.28-.1.16-.01.35-.25Z"/>
  <path class="st1" d="M1735.51,1020.04c.29-.32.21-.13.2-.6-.26-.42-.42-.48-.83-.73-.07.05-.15.17-.21.24.13.5.46.72.84,1.09Z"/>
  <path class="st0" d="M1739.51,1024.41c-.33-.38-1.29-.79-1.79-1.06-.05.03-.11.06-.16.09.4.4,1.25.74,1.79,1l.16-.03Z"/>
  <path class="st11" d="M1739.51,1024.41c-.33-.38-1.29-.79-1.79-1.06-.05.03-.11.06-.16.09.4.4,1.25.74,1.79,1l.16-.03Z"/>
  <path class="st0" d="M1757.47,1007.72l.11.04c4.7,1.74,13.75,1.77,18.89,1.22,1.26-.13,5.8-2.35,7.22-3-.63-.65-4.38-1.51-5.3-2.15-.2-.14-1.33-.62-1.62-.76.02.45.05.99.02,1.43l-.11.08c-2.23.86-7.55.44-10.1.6-2.19.14-4.81-.92-6.73-1.95-1.37-.06-2.51-1.55-3.89-1.2l-.07.27c-.02.46.01,1.03-.17,1.43l-.02.11.15.4c-.34.1-.17.06-.51.13l-.19.22c.13.54,1.22,1.84,1.61,2.82-2.59-2.21-3.28-5.26-5.15-6.55-.92-.4-2.76-.91-3.78-1.23.74.54,1.58.8,2.44,1.12,1.99.66,3.01,3,4.02,4.79,1.03,1.12,1.56,1.74,2.84,2.55l.23-.3.11-.09Z"/>
  <path class="st21" d="M1758.03,1010.22c1.63.17,5.03.84,6.56.4l.02-.19c-.58-.44-1.13-.46-1.87-.68-1.49-.17-4.35-.87-5.61-1.63-1.29-.81-1.81-1.44-2.84-2.55-1.88-.56-4.38-2.99-5.2-4.79.39,0,.78,0,1.17,0-.86-.32-1.71-.58-2.44-1.12,1.02.31,2.86.82,3.78,1.23l.16-.24-.17-.12c.66-.07,2.95.29,3.7.41,4.22.42,8.53.51,12.77.79,3.26.22,5.65-.02,8.71,1.36.28.14,1.42.62,1.62.76.93.63,4.67,1.5,5.3,2.15l.3.2.24-.23c-.2-.37-.73-.56-1.13-.66-2.71-.7-5.45-2.63-7.98-3.56-1.55-.57-5.04-.63-6.82-.76-3.87-.24-7.73-.53-11.6-.87-4.05-.39-8.61-1.47-12.59-2.38,1.52,2.11,3.17,4.11,4.77,6.13,2.47,3.11,4.96,5.95,9.13,6.37Z"/>
  <path class="st22" d="M1750.26,1000.76c-.39,0-.78,0-1.17,0,.82,1.8,3.31,4.23,5.2,4.79-1.02-1.79-2.03-4.13-4.02-4.79Z"/>
  <path class="st13" d="M1755.29,1000.92c-.75-.13-3.04-.48-3.7-.41l.17.12c.91.17,2.56.5,3.42.51l.11-.21Z"/>
  <path class="st2" d="M1755.33,1001.47c.28.36.34.43.55.84l.07-.27c1.39-.35,2.53,1.14,3.89,1.2,1.43.28,3,1.1,4.41,1.26,4.07.46,8.33.3,12.42.08l.11-.08c.03-.43,0-.98-.02-1.43-3.06-1.37-5.45-1.14-8.71-1.36-4.24-.28-8.55-.37-12.77-.79l-.11.21.15.33Z"/>
  <path class="st21" d="M1776.47,1008.98c-5.14.55-14.19.52-18.89-1.22l-.11-.04-.11.09c.56.75,3.57,1.31,4.5,1.44.37.05.75.09,1.12.13,4.07-.03,10.46.62,14.46-.16.99-.2,5.29-2.46,6.55-3.05l-.3-.2c-1.42.66-5.96,2.87-7.22,3Z"/>
  <path class="st2" d="M1757.36,1007.81l-.23.3c1.26.76,4.12,1.46,5.61,1.63l.24-.36c-.38-.04-.75-.08-1.12-.13-.93-.13-3.94-.69-4.5-1.44Z"/>
  <path class="st21" d="M1756.76,1007.42c-.4-.98-1.48-2.28-1.61-2.82-.03-1.38-.95-1.62.19-3.13l-.15-.33c-.85,0-2.51-.34-3.42-.51l-.16.24c1.88,1.29,2.56,4.34,5.15,6.55Z"/>
  <path class="st2" d="M1755.14,1004.6l.19-.22c.34-.07.17-.03.51-.13l-.15-.4-.09.12c-.3-.64-.25-1.01-.15-1.7h.11c.21.39.15,1,.15,1.47.18-.4.15-.98.17-1.43-.21-.41-.28-.48-.55-.84-1.14,1.51-.22,1.75-.19,3.13Z"/>
  <path class="st24" d="M1755.57,1002.27h-.11c-.1.69-.15,1.06.15,1.7l.09-.12.02-.11c0-.47.06-1.08-.15-1.47Z"/>
  <path class="st21" d="M1764.26,1004.5c-1.41-.16-2.98-.98-4.41-1.26,1.92,1.03,4.54,2.08,6.73,1.95,2.55-.16,7.87.26,10.1-.6-4.09.22-8.35.38-12.42-.08Z"/>
  <path class="st23" d="M1832.18,964.21c.22.73.45,1.26.74,1.96-.37.83-.77,1.65-1.2,2.46.3,2.04.72,3.96.58,6.03-.05.81-.06,1.21.26,1.95.44-.74.71-1.5,1.03-2.31.48-1.22.19-2.14,1.18-3.26.21-.35.32-1.62.46-2.23-.47-2.25-1.91-5.67-2.83-7.82l-.66-1.32c.03,1.1.05,2.19.06,3.29.37.47.39.64.37,1.26Z"/>
  <path class="st0" d="M1834.14,975.1c.05-.33.09-.52.1-.86l-.29-.04-.11.19c-.29.85-.92,2.3-1.46,3.01-.04-.3,0-.55.19-.81-.32-.74-.31-1.14-.26-1.95.13-2.07-.28-3.99-.58-6.03.42-.81.82-1.62,1.2-2.46-.29-.7-.52-1.23-.74-1.96l-.52-.13c-.26,1.49-.69,2.96-1.15,4.41,1.34,2.11,1.65,4.35,1.52,6.82-.58-.61-2.08-2.05-2.33-2.72l-.32-.08c-.26,2.32,0,6.51.25,8.88,2.34-2.12,3.31-3.26,4.51-6.28ZM1831.72,975.17c.17.68.14,1.29.07,1.98-.1,1.04.04,1.31-.68,2.14.2-1.37.4-2.75.62-4.12Z"/>
  <path class="st21" d="M1829.08,972.09c-.29,1.68.12,7.82.39,9.56l.16-.27c-.25-2.37-.51-6.56-.25-8.88.19-1.3.7-2.77,1.13-4.01.46-1.44.89-2.91,1.15-4.41l.15-1.13c0-1.1-.02-2.19-.06-3.29l.66,1.32.25-.2c-.61-1.19-1.41-2.84-2.09-3.94,1.82,6.41-.45,9.11-1.5,15.26Z"/>
  <path class="st23" d="M1832.03,975.3c.13-2.47-.19-4.71-1.52-6.82-.43,1.24-.93,2.71-1.13,4.01l.32.08c.25.67,1.74,2.11,2.33,2.72Z"/>
  <path class="st1" d="M1832.57,976.6c-.2.26-.23.51-.19.81.54-.71,1.17-2.16,1.46-3.01l-.24-.1c-.32.81-.59,1.56-1.03,2.31Z"/>
  <path class="st21" d="M1831.72,975.17c-.21,1.37-.42,2.74-.62,4.12.72-.82.58-1.1.68-2.14.07-.69.11-1.3-.07-1.98Z"/>
  <path class="st21" d="M1835.25,968.8c.43,2.05-.03,4.54-1.1,6.3-1.2,3.02-2.17,4.16-4.51,6.28l-.16.27c0,.68-.14,1.3.4,1.76,1.74-.21,5.14-7.2,5.79-8.99,1.62-4.48-.99-9.58-2.99-13.63l-.25.2c.92,2.16,2.37,5.58,2.83,7.82Z"/>
  <path class="st2" d="M1833.95,974.2l.29.04c-.01.34-.05.53-.1.86,1.08-1.75,1.53-4.25,1.1-6.3-.14.61-.25,1.89-.46,2.23-.02,1.35-.61,1.88-.83,3.17Z"/>
  <path class="st21" d="M1833.6,974.29l.24.1.11-.19c.22-1.29.82-1.82.83-3.17-1,1.11-.7,2.04-1.18,3.26Z"/>
  <path class="st2" d="M1831.81,962.94l-.15,1.13.52.13c.03-.63,0-.79-.37-1.26Z"/>
  <path class="st21" d="M1782.94,1016.33c-3.66,5.31,4.7,8.54,8.81,7.91,3.11-.53,6.09-1.77,8.99-2.99,9.37-3.95,18.58-8.93,26.67-15.11,3.63-2.77,6.15-6.46,6.66-11.04.44-3.98-.99-6.37-5.23-6.6l-.16.18c-1.55,1.8-1.9,2.46-3.84,4.24-2.66,2.44-7.31,4.85-9.73,7.11-.35-1.24-.61-2.07-1.15-3.24-.12,2.88-.24,5.08-.08,7.97-1.53-1.09-2.74-2.02-4.58-2.55-5.23,2.09-10.15,4.54-15.61,6.08-.46.13-1.36.64-1.69.97v.05s.3-.24.3-.24l.21.2c3.79-.82,8.94-3.12,12.54-4.63,1.36-.57,3.12-1.48,4.46-1.95,1.99.61,3.19,1.55,4.88,2.78.59-1.85.83-2.79,1.01-4.71,3.92-3.18,11.88-7.29,13.66-11.92.75.06,1.45.2,2.15.5,1.02.43,1.82,1.16,2.23,2.2.93,2.36,0,5.71-.98,7.92-.62,1.42-1.44,2.74-2.49,3.88-6.29,6.81-24.13,15.62-32.92,19.01-3.93,1.51-7.33,2.2-11.3.41-1.31-.59-2.7-1.46-3.18-2.89-.31-.92-.19-1.87.25-2.73.93-1.84,3.27-3.49,4.81-4.85,2.29-2.02,4.57-4.04,7.02-5.87,3.11-2.32,6.45-4.35,9.75-6.39,7.34-4.52,14.7-8.86,22.98-11.44-1.27-.16-7.39,2.31-8.78,3.07-10.8,5.93-22.1,11.93-31.13,20.42-1.23,1.15-3.64,2.99-4.51,4.25Z"/>
  <path class="st2" d="M1757.99,997.66c.39.55.81,1.11,1.14,1.68,5.11.44,11.59.6,16.53,1.63,4.75.99,10.14,4.7,14.61,6.64.33.16.73.27,1.09.17l.05-.18c-.6-.62-3.61-2.1-4.67-2.83-2.67-1.84-6.61-4.31-9.02-6.35-.66-.27-1.28-.76-1.86-1.18-.94.52-15.07.16-17.87.42Z"/>
  <path class="st2" d="M1775.48,1015.8c-1.17-.49-4.79-.96-6.22-1.29-5.45-1.26-10.63-1.97-15.76-4.28-1.16-.14-1.89-.03-3.04.09,1.64.53,2.59.8,4.02,1.73-3.22-.06-4.36-1.33-6.83-1.59,5.95,5.04,9.29,5.36,17.06,5.68,3.59.06,7.19-.06,10.77-.35Z"/>
  <path class="st2" d="M1729.3,989.26c.26-.31.31-.34.49-.7.07-2.1.1-4.07-.88-5.64l.06,7.8c.44.11.93.2,1.55.27-.46-.54-1.17-1.14-1.21-1.72Z"/>
  <path class="st0" d="M1828.34,1014.05c-.36-.27-.39-.31-.81-.51-.6.18-3.78,3.1-4.63,3.7-5.61,3.96-11.35,7.84-17.62,10.69-8.17,3.71-16.7,7.06-25.59,8.55-1.23.2-5.92.89-6.68,1.73l.09.15c1.16-.02,3.24-.37,4.43-.57,8.49-1.46,16.67-4.47,24.62-7.71,3.14-1.28,6.75-2.74,9.77-4.29,3.96-2.02,7.73-4.4,11.26-7.1.5-.38,2.58-1.77,2.8-2.13.49-1.02,1.94-1.79,2.36-2.5Z"/>
  <path class="st8" d="M1828.34,1014.05c-.36-.27-.39-.31-.81-.51-.6.18-3.78,3.1-4.63,3.7-5.61,3.96-11.35,7.84-17.62,10.69-8.17,3.71-16.7,7.06-25.59,8.55-1.23.2-5.92.89-6.68,1.73l.09.15c1.16-.02,3.24-.37,4.43-.57,8.49-1.46,16.67-4.47,24.62-7.71,3.14-1.28,6.75-2.74,9.77-4.29,3.96-2.02,7.73-4.4,11.26-7.1.5-.38,2.58-1.77,2.8-2.13.49-1.02,1.94-1.79,2.36-2.5Z"/>
  <path class="st0" d="M1732.89,982.97c-1.29-.89-2.65-1.69-4.01-2.48v.67c1.13.69,2.61,1.67,3.61,2.11l.4-.29Z"/>
  <path class="st10" d="M1732.89,982.97c-1.29-.89-2.65-1.69-4.01-2.48v.67c1.13.69,2.61,1.67,3.61,2.11l.4-.29Z"/>
  <path class="st0" d="M1772.2,915.61c.55.61,1.49,1.47,1.95,2.08,1.86,1.82,4.05,4.73,5.63,6.84.62.83,1.08,1.91,1.64,2.62.05-.24.07-.2.03-.39-.84-4.03-10.39-13.8-18.35-21.1l-.66.37c3.39,3.04,6.7,6.19,9.77,9.58Z"/>
  <path class="st9" d="M1772.2,915.61c.55.61,1.49,1.47,1.95,2.08,1.86,1.82,4.05,4.73,5.63,6.84.62.83,1.08,1.91,1.64,2.62.05-.24.07-.2.03-.39-.84-4.03-10.39-13.8-18.35-21.1l-.66.37c3.39,3.04,6.7,6.19,9.77,9.58Z"/>
  <path class="st2" d="M1767.69,912c.2.23,6.81,6.74,6.64,6.65-.09-.31-.13-.36-.28-.65l.11-.29c-.46-.61-1.4-1.48-1.95-2.08-3.07-3.39-6.37-6.54-9.77-9.58l-.29.16c3.08,2.8,5.43,5.15,5.54,5.8Z"/>
  <path class="st22" d="M1762.15,906.2l-.3.17c1.96,1.83,3.9,3.7,5.84,5.63-.11-.65-2.46-3-5.54-5.8Z"/>
  <path class="st24" d="M1809.79,945.27c.57,1.08,2.64,3.74,4.01,2.94-.09-.5-1.2-1.97-1.56-2.49,1.39.93,2.74,2.07,4.15,3.05,2.88,2,5.95,3.9,8.48,6.35.61.59,1.1,1.2,1.77,1.71-.06-.53-1.27-1.94-1.63-2.4-3.69-4.69-8.47-7.91-13.29-11.3-2.49-1.75-4.84-3.97-7.42-5.58l-.27.52c3.15,2.29,3.96,3.81,5.75,7.19Z"/>
  <path class="st0" d="M1758.42,981.62c-2.22-1.8-6.81-5.51-9.35-6.72-2.99-1.43-7.69-2.85-10.92-3.9l-.22.02-.02.16c1.19,1.01,7.39,3.94,9.19,5,6.1,3.61,11.93,7.3,17.9,11.11l.21.07-.03-.14c-1.92-1.73-4.74-3.98-6.76-5.61Z"/>
  <path class="st6" d="M1758.42,981.62c-2.22-1.8-6.81-5.51-9.35-6.72-2.99-1.43-7.69-2.85-10.92-3.9l-.22.02-.02.16c1.19,1.01,7.39,3.94,9.19,5,6.1,3.61,11.93,7.3,17.9,11.11l.21.07-.03-.14c-1.92-1.73-4.74-3.98-6.76-5.61Z"/>
  <path class="st21" d="M1762.3,1036.51c-1.99.09-6.24-.25-8,.3,1.15.25,4.66.13,6.32.27,1.84-.02,3.77.13,5.61.23,1.65.09,4.02.03,5.62.31.33-.06.34-.03.57-.26l-.17-.2c-2.54-1.01-7.2-.77-9.94-.64Z"/>
  <path class="st23" d="M1763.48,1038.59l.37-.37-.07-.14c-1.1-.38-2.05-.71-3.17-1-1.66-.14-5.17-.02-6.32-.27l-.11.24c.97,1.88,8.76,2.06,10.47,1.65-.4,0-.85.08-1.17-.12Z"/>
  <path class="st21" d="M1760.61,1037.08c1.12.3,2.08.62,3.17,1l.07.14-.37.37c.31.19.77.12,1.17.12,2.3-.21,4.94-.64,7.19-1.09-1.59-.28-3.97-.23-5.62-.31-1.84-.1-3.77-.25-5.61-.23Z"/>
  <path class="st18" d="M1760.61,1037.08c1.12.3,2.08.62,3.17,1l.07.14-.37.37c.31.19.77.12,1.17.12,2.3-.21,4.94-.64,7.19-1.09-1.59-.28-3.97-.23-5.62-.31-1.84-.1-3.77-.25-5.61-.23Z"/>
  <path class="st23" d="M1729.43,976.91v-.29c-.32-.42-.49-.75-.58-1.03v1.28c.12.04.24.09.35.14l.23-.1Z"/>
  <path class="st2" d="M1837.71,979.61c-.41.88.06,1.25-.32,2.53-.9,3.03-2.85,6.53-2.94,9.64.75-.78,2.52-2.08,2.55-3.28l-.15-.04c-.01-.44,1.96-5.3,2.27-5.6.58-1.4-.11-5.3-.35-6.77-.12,1.33-.34,2.15-.86,3.38l-.19.14Z"/>
  <path class="st1" d="M1836.99,988.49c.22-.38.45-.77.68-1.15.22-.87.64-1.29,1.2-1.98.14-.91.19-1.6.24-2.52-.32.3-2.29,5.16-2.27,5.6l.15.04Z"/>
  <path class="st22" d="M1837.71,979.61l.19-.14c.53-1.24.75-2.05.86-3.38l-.41-1.42c-.35.76-.21,2.47-.47,3.13-.05.61-.11,1.21-.18,1.82Z"/>
  <path class="st0" d="M1739.25,974.91c-3.47-1.63-6.96-3.08-10.44-4.58v1.06c3.26,1.24,6.54,2.43,9.73,3.77l.71-.26Z"/>
  <path class="st17" d="M1739.25,974.91c-3.47-1.63-6.96-3.08-10.44-4.58v1.06c3.26,1.24,6.54,2.43,9.73,3.77l.71-.26Z"/>
  <path class="st2" d="M1731.21,959.26c-.5-.32-1.4-.4-2.48-.34v1.43c.07.01.13.02.21.05.64-.27,1.62-.81,2.27-1.14Z"/>
  <path class="st1" d="M1816.92,945.35c3.39,2.83,6.26,5.88,9.16,9.21,1.11,1.27,2.17,2.86,3.29,4.04l.19-.07c.3-1.35-1.51-3.44-2.33-4.43-3.67-4.48-8.08-8.29-13.04-11.26.51.84,1.94,1.88,2.74,2.5Z"/>
  <path class="st22" d="M1757.28,950.24c-2.73.91-7.29,3.29-10.13,4.55-4.6,2.04-11.39,4.76-18.4,6.72v.39c6.88-1.95,13.63-4.75,19.47-7.16,2.14-.88,7.42-3.29,9.06-4.5Z"/>
  <path class="st22" d="M1764.47,989.28c4.01,2.47,7.67,5.07,11.39,7.96.59.42,1.21.91,1.86,1.18-12.09-9.75-24.39-17-38.47-23.51l-.71.26c9.13,3.86,17.49,8.92,25.93,14.11Z"/>
  <path class="st0" d="M1799.01,935.9l-.06.02s9.26,10.4,10.15,11.27l.11-.2c-.2-.7-.6-1.27-.92-1.92-1.65-3.32-5.55-8.09-9.28-9.18Z"/>
  <path class="st15" d="M1799.01,935.9l-.06.02s9.26,10.4,10.15,11.27l.11-.2c-.2-.7-.6-1.27-.92-1.92-1.65-3.32-5.55-8.09-9.28-9.18Z"/>
  <path class="st0" d="M1833.55,984.01c1.1-.31,3.61-5,4.24-6.07l.09-.15c.26-.66.11-2.37.47-3.13-.29-1.14-.7-2.1-1.24-3.15-.02,1.52-.08,2.4-.29,3.9.1,1.29-1.57,4.84-2.51,5.67-.33.68-.98,2.2-.76,2.92Z"/>
  <path class="st14" d="M1833.55,984.01c1.1-.31,3.61-5,4.24-6.07l.09-.15c.26-.66.11-2.37.47-3.13-.29-1.14-.7-2.1-1.24-3.15-.02,1.52-.08,2.4-.29,3.9.1,1.29-1.57,4.84-2.51,5.67-.33.68-.98,2.2-.76,2.92Z"/>
  <path class="st23" d="M1836.83,975.41c-.77,2.01-1.79,3.77-2.51,5.67.95-.84,2.61-4.39,2.51-5.67Z"/>
  <path class="st1" d="M1835.77,1001.4l-.14.23c-.16.98-.62,3.15-1.51,3.73-.56,1.8-1.94,3.18-2.56,4.63l.62-.3.1.09c-.46,1.39-2.32,3.01-3.57,3.76h-.23c-.11.27-.1.25-.16.51-.42.71-1.87,1.49-2.36,2.5,1.34-1.04,2.96-2.45,4.19-3.61,4.74-4.48,6.92-11.95,7.62-18.2-.67,1.42-2.09,4.66-2.44,6.15.17.44.02.28.43.51Z"/>
  <path class="st22" d="M1820.7,966.84c1.2,2.36,2.14,4.88,3.19,7.31,0-.96-1.23-3.9-1.67-4.86-5.03-11.23-13.44-22.83-22.2-31.45l-.29.13c8.3,8.47,15.58,18.28,20.97,28.88Z"/>
  <path class="st2" d="M1753.17,984.06c-.56-1.23-7.53-3.87-9.2-4.54l-.15.04c.05.33,2.25,2.17,2.93,3.41,1.95.52,4.23.91,6.21,1.26l.21-.17Z"/>
  <path class="st2" d="M1785.28,1009.23c1.74-.12,2.73-.27,4.44-.67-1.44-.74-2.88-1.46-4.34-2.16-1.25.98-3.16,2.1-4.19,3.05,1.38-.03,2.71-.13,4.09-.23Z"/>
  <path class="st22" d="M1778.54,935.84c-3.54,3.93-7.95,6.27-12.3,9.1-1.29.84-7.22,3.98-7.87,4.76,2.56-.56,15.55-8.93,17.99-11.19,1.87-1.74,3.92-3.87,5.36-6.09-.51.27-2.64,2.82-3.18,3.42Z"/>
  <path class="st0" d="M1816.58,945.9c.14-.26.08-.12.17-.42l.16-.13c-.8-.63-2.22-1.67-2.74-2.5-1.32-1.15-5.82-3.6-7.53-4.42,1.55,1.53,4.01,3.16,5.81,4.48,1.05.77,3.11,2.42,4.12,2.99Z"/>
  <path class="st19" d="M1816.58,945.9c.14-.26.08-.12.17-.42l.16-.13c-.8-.63-2.22-1.67-2.74-2.5-1.32-1.15-5.82-3.6-7.53-4.42,1.55,1.53,4.01,3.16,5.81,4.48,1.05.77,3.11,2.42,4.12,2.99Z"/>
  <path class="st1" d="M1745.08,990.82c2.24,1.35,4.5,2.86,6.76,4.13-1.14-1.06-4.46-3.06-5.88-3.97-4.32-2.73-8.68-5.41-13.08-8.01l-.4.29,12.59,7.55Z"/>
  <path class="st1" d="M1783.26,928.93c.25-.02.43-.25.67-.45.63-.74.85-1.2,1.31-2.06-1.03-1.07-2.65-2.01-3.94-2.8l-.28.07c-.02.74,1.31,1.93,1.6,2.59.32.73.57,1.87.64,2.66Z"/>
  <path class="st1" d="M1768.81,941.84c.99-.48,3.84-1.76,4.33-2.72-.28.05-4.69,2.58-5.4,2.83-2.18.77-14.74,5.13-15.42,6.12.1,0,.22,0,.32-.04,3.24-1.14,6.39-2.44,9.56-3.77,2.14-.9,4.54-1.4,6.61-2.42Z"/>
  <path class="st22" d="M1738.01,955.95c1.71-.05,9.59-4.76,11.81-5.61.8-.31,5.72-2.72,6.35-3.18-2.4.27-8.51,3.99-11.05,5.05-.91.38-6.57,3.23-7.11,3.74Z"/>
  <path class="st0" d="M1834.54,998.51c1.16-.93,3.35-7.67,3.72-9.38.25-1.16.47-2.55.61-3.77-.56.69-.98,1.11-1.2,1.98.3,2-2.28,8.98-3.12,11.17Z"/>
  <path class="st16" d="M1834.54,998.51c1.16-.93,3.35-7.67,3.72-9.38.25-1.16.47-2.55.61-3.77-.56.69-.98,1.11-1.2,1.98.3,2-2.28,8.98-3.12,11.17Z"/>
  <path class="st23" d="M1835.64,1001.62c-.93.69-4.5,6.57-4.75,7.5l.07.25c1.42-.69,2.42-3.49,3.18-4.02.89-.58,1.34-2.75,1.51-3.73Z"/>
  <path class="st2" d="M1827.95,970.42l.06-.22.19-.08c.12-2.56.35-5.03.72-7.57.11-.71.17-1.41.18-2.13-.3-.6-.54-1.09-.9-1.66.06,1.69-.68,11.01-.25,11.66Z"/>
  <path class="st21" d="M1781.16,1028.75l.11-.17c-.14-.46-.46-.68-.82-1.01-.37-.01-13.17,1.12-13.11,1.1.53.19,1.09.13,1.66.12,3.64,0,7.47-.57,11.08-.93.48-.05.56.63,1.07.89Z"/>
  <path class="st1" d="M1827.95,970.42c.16,1.14.15,3.21.21,4.43.1,2.29.15,4.65.19,6.95.02,1.38-.21,3.92.03,5.16.77-1.73-.24-14.02-.17-16.83l-.19.08-.06.22Z"/>
  <path class="st21" d="M1798.93,936.74c-1.27-1.41-8.44-7.21-9.74-7.42,2.87,2.56,6.31,4.5,9.46,7.55l.28-.13Z"/>
  <path class="st1" d="M1777.03,911.18c-.24-2.73-.02-3.42,2.14-5.15-2.43.09-1.87,2.46-3.35,3.19l.77,1.12c.14.3.28.55.44.84Z"/>
  <path class="st1" d="M1728.93,960.63c.3.02,8.06-3.77,8.85-4.29-2.27.57-4.47,1.86-6.57,2.92-.64.33-1.63.87-2.27,1.14v.24Z"/>
  <path class="st1" d="M1780.03,930.84c-.59.26-2.63,2.68-3.21,3.34-1.08,1.23-3.19,2.73-3.93,3.92,2.04-.96,5.77-5.6,7.14-7.26Z"/>
  <path class="st24" d="M1767.25,1031.79l-.14.18c1.21.23,9.47-.47,10.69-.96-.61-.06-1.24.05-1.84.12-2.89.33-5.8.51-8.71.66Z"/>
  <path class="st13" d="M1756.09,1031.09c.71,1.85,2.64,5.02,4.94,4.73.46-.34.6-.31,1.2-.39-3.67-.06-4.24-1.52-6.13-4.33Z"/>
  <path class="st1" d="M1804.32,937.56c-1.12-.66-5.18-3.14-6.08-3.48,1.25,1.04,4.23,2.87,5.8,4l.27-.52Z"/>
  <path class="st13" d="M1751.42,947.19c-1.68-.29-6.23,1.6-7.77,2.52.46-.01,2.7-.87,3.22-1.11,1.44-.67,3.24-.94,4.55-1.41Z"/>
  <path class="st23" d="M1740.11,952.16l.96-.84c-1.53.36-3.24,2.06-3.73,3.56.83-.28,1.84-1.9,2.77-2.72Z"/>
  <path class="st24" d="M1834.13,1002.03c-.61.56-3.26,4.34-3.51,5.1,1.01-.4,3.08-4.04,3.51-5.1Z"/>
  <path class="st22" d="M1762.23,1035.42c-.59.08-.73.05-1.2.39,1.31.17,2.77.28,4.04-.11l-.08-.1c-.92-.23-1.82-.18-2.76-.18Z"/>
  <path class="st23" d="M1755.64,1030.32c.05-.08.1-.16.15-.24-.31-1.13-.74-3.06-1.08-4.05l-.12.12c-.23.84.73,3.31,1.05,4.17Z"/>
  <path class="st24" d="M1773.34,938.89c.66-.19,2.45-2.28,3.03-2.91-.77.21-2.58,2.15-3.03,2.91Z"/>
  <path class="st3" d="M1784.44,1032.22c-.59-.04-1.09-.08-1.65.13.25.22.24.14.66.23.57.02,1.49.11,2-.05-.31-.24-.61-.25-1.01-.31Z"/>
  <path class="st21" d="M1781.19,931.07c-.82.41-1.87,2.12-2.43,2.95.71-.39,2.01-2.22,2.43-2.95Z"/>
  <path class="st23" d="M1747.75,989.54l-.14.04.02.17c.62.59,1.57,1.2,2.3,1.69.05,0,.01.01.15-.05-.51-.59-1.66-1.38-2.32-1.85Z"/>
  <path class="st2" d="M1753.38,994.05l.12-.1c-.2-.44-1.53-1.27-1.97-1.51h-.08s-.05.15-.05.15c.49.47,1.35,1.04,1.93,1.45h.05Z"/>
  <path class="st1" d="M1813.47,1001.33l.09-.05c.03-.56-.38-2.92-.56-3.47-.16.49.28,3.08.47,3.52Z"/>
  <path class="st2" d="M1738.26,983.17c-.11.09-.05.02-.13.22.39.41.85.62,1.34.9l.12-.08c-.13-.41-.9-.79-1.33-1.05Z"/>
  <path class="st13" d="M1773.4,913.91c-.11-.85-.18-1.76-.44-2.56-.05.74.04,1.96.33,2.64l.11-.08Z"/>
  <path class="st24" d="M1775.37,940.02c-.5.33-.61,1.04-.78,1.63.74-.37.67-.88.78-1.63Z"/>
  <path class="st2" d="M1733.14,979.99c.15.53.8.85,1.29,1.16v-.29c-.31-.39-.84-.62-1.29-.87Z"/>
  <polygon class="st21" points="1799.73 937.97 1800.03 937.84 1798.93 936.74 1798.64 936.87 1799.73 937.97"/>
  <path class="st3" d="M1785.5,1032.99c-.68.05-.81.17-1.42.51.87.1,1.06.28,1.42-.51Z"/>
  <path class="st3" d="M1781.51,930.28c.38-.69.23-1.14.01-1.9-.09.85-.08,1.06-.01,1.9Z"/>
  <path class="st23" d="M1743.97,986.98l-.14.11c.21.36.58.53.94.76l.12-.09c-.26-.41-.48-.48-.91-.77Z"/>
  <path class="st2" d="M1741.44,985.22l-.13.17c.16.36.52.49.87.7l.11-.1v-.2s-.86-.58-.86-.58Z"/>
  <path class="st23" d="M1783.28,932.22c.3-.6.24-.79.09-1.43-.28.53-.18.85-.09,1.43Z"/>
</svg>