<?xml version="1.0" encoding="UTF-8"?>
<svg id="Layer_1" xmlns="http://www.w3.org/2000/svg" xmlns:xlink="http://www.w3.org/1999/xlink" version="1.1" viewBox="0 0 2048 1650">
  <!-- Generator: Adobe Illustrator 30.4.0, SVG Export Plug-In . SVG Version: 2.1.4 Build 226)  -->
  <defs>
    <style>
      .st0 {
        fill: #070707;
      }

      .st1 {
        fill: #7d7d7e;
      }

      .st2 {
        fill: #222227;
      }

      .st3 {
        fill: #bbb8ba;
      }

      .st4 {
        fill: url(#linear-gradient2);
      }

      .st5 {
        fill: url(#linear-gradient1);
      }

      .st6 {
        fill: url(#linear-gradient9);
      }

      .st7 {
        fill: url(#linear-gradient3);
      }

      .st8 {
        fill: url(#linear-gradient6);
      }

      .st9 {
        fill: url(#linear-gradient8);
      }

      .st10 {
        fill: url(#linear-gradient7);
      }

      .st11 {
        fill: url(#linear-gradient5);
      }

      .st12 {
        fill: url(#linear-gradient4);
      }

      .st13 {
        fill: #545454;
      }

      .st14 {
        fill: url(#linear-gradient18);
      }

      .st15 {
        fill: url(#linear-gradient13);
      }

      .st16 {
        fill: url(#linear-gradient12);
      }

      .st17 {
        fill: url(#linear-gradient15);
      }

      .st18 {
        fill: url(#linear-gradient16);
      }

      .st19 {
        fill: url(#linear-gradient11);
      }

      .st20 {
        fill: url(#linear-gradient10);
      }

      .st21 {
        fill: url(#linear-gradient17);
      }

      .st22 {
        fill: url(#linear-gradient14);
      }

      .st23 {
        fill: url(#linear-gradient19);
      }

      .st24 {
        fill: url(#linear-gradient21);
      }

      .st25 {
        fill: url(#linear-gradient20);
      }

      .st26 {
        fill: url(#linear-gradient);
      }

      .st27 {
        fill: #c1a6a8;
      }

      .st28 {
        fill: #bd0c10;
      }

      .st29 {
        fill: #fffffe;
      }

      .st30 {
        fill: #a4a3a3;
      }

      .st31 {
        fill: #350001;
      }

      .st32 {
        fill: #a35e51;
      }

      .st33 {
        fill: #3d3d3f;
      }

      .st34 {
        fill: #616161;
      }
    </style>
    <linearGradient id="linear-gradient" x1="137.68" y1="627.85" x2="129.89" y2="637.29" gradientTransform="translate(2028.7044 1575.9375) rotate(-180) scale(.9375)" gradientUnits="userSpaceOnUse">
      <stop offset="0" stop-color="#4b4c50"/>
      <stop offset="1" stop-color="#656467"/>
    </linearGradient>
    <linearGradient id="linear-gradient1" x1="244.16" y1="663.82" x2="245.95" y2="668.21" gradientTransform="translate(2028.7044 1575.9375) rotate(-180) scale(.9375)" gradientUnits="userSpaceOnUse">
      <stop offset="0" stop-color="#7c797c"/>
      <stop offset="1" stop-color="#979696"/>
    </linearGradient>
    <linearGradient id="linear-gradient2" x1="166.54" y1="506.4" x2="159.64" y2="506.83" gradientTransform="translate(2028.7044 1575.9375) rotate(-180) scale(.9375)" gradientUnits="userSpaceOnUse">
      <stop offset="0" stop-color="#4c4c4c"/>
      <stop offset="1" stop-color="#818182"/>
    </linearGradient>
    <linearGradient id="linear-gradient3" x1="161.19" y1="518.45" x2="171.79" y2="514.4" gradientTransform="translate(2028.7044 1575.9375) rotate(-180) scale(.9375)" gradientUnits="userSpaceOnUse">
      <stop offset="0" stop-color="#676667"/>
      <stop offset="1" stop-color="#858484"/>
    </linearGradient>
    <linearGradient id="linear-gradient4" x1="157.84" y1="520.74" x2="156.12" y2="527.23" gradientTransform="translate(2028.7044 1575.9375) rotate(-180) scale(.9375)" gradientUnits="userSpaceOnUse">
      <stop offset="0" stop-color="#5f5f5f"/>
      <stop offset="1" stop-color="#7f7e7f"/>
    </linearGradient>
    <linearGradient id="linear-gradient5" x1="151.57" y1="509.74" x2="151.37" y2="510.05" gradientTransform="translate(2028.7044 1575.9375) rotate(-180) scale(.9375)" gradientUnits="userSpaceOnUse">
      <stop offset="0" stop-color="#2d2e2e"/>
      <stop offset="1" stop-color="#494a4b"/>
    </linearGradient>
    <linearGradient id="linear-gradient6" x1="285.94" y1="580.99" x2="291.1" y2="578.89" gradientTransform="translate(2028.7044 1575.9375) rotate(-180) scale(.9375)" gradientUnits="userSpaceOnUse">
      <stop offset="0" stop-color="#5b5c5b"/>
      <stop offset="1" stop-color="#767575"/>
    </linearGradient>
    <linearGradient id="linear-gradient7" x1="290.91" y1="597.25" x2="286.78" y2="600.53" gradientTransform="translate(2028.7044 1575.9375) rotate(-180) scale(.9375)" gradientUnits="userSpaceOnUse">
      <stop offset="0" stop-color="#545555"/>
      <stop offset="1" stop-color="#757577"/>
    </linearGradient>
    <linearGradient id="linear-gradient8" x1="289.1" y1="589.62" x2="291.08" y2="588.42" gradientTransform="translate(2028.7044 1575.9375) rotate(-180) scale(.9375)" gradientUnits="userSpaceOnUse">
      <stop offset="0" stop-color="#3d3c3c"/>
      <stop offset="1" stop-color="#555"/>
    </linearGradient>
    <linearGradient id="linear-gradient9" x1="271.39" y1="653.97" x2="243.11" y2="632.16" gradientTransform="translate(2028.7044 1575.9375) rotate(-180) scale(.9375)" gradientUnits="userSpaceOnUse">
      <stop offset="0" stop-color="#616161"/>
      <stop offset="1" stop-color="#868586"/>
    </linearGradient>
    <linearGradient id="linear-gradient10" x1="86.48" y1="516.73" x2="84.07" y2="498.65" gradientTransform="translate(2028.7044 1575.9375) rotate(-180) scale(.9375)" gradientUnits="userSpaceOnUse">
      <stop offset="0" stop-color="#343234"/>
      <stop offset="1" stop-color="#525355"/>
    </linearGradient>
    <linearGradient id="linear-gradient11" x1="171.47" y1="565.98" x2="173.94" y2="559.15" gradientTransform="translate(2028.7044 1575.9375) rotate(-180) scale(.9375)" gradientUnits="userSpaceOnUse">
      <stop offset="0" stop-color="#565656"/>
      <stop offset="1" stop-color="#7c7c7d"/>
    </linearGradient>
    <linearGradient id="linear-gradient12" x1="125.54" y1="629.77" x2="119.4" y2="634.04" gradientTransform="translate(2028.7044 1575.9375) rotate(-180) scale(.9375)" gradientUnits="userSpaceOnUse">
      <stop offset="0" stop-color="#908f8f"/>
      <stop offset="1" stop-color="#c2c0bf"/>
    </linearGradient>
    <linearGradient id="linear-gradient13" x1="136.4" y1="560.07" x2="138.24" y2="556.22" gradientTransform="translate(2028.7044 1575.9375) rotate(-180) scale(.9375)" gradientUnits="userSpaceOnUse">
      <stop offset="0" stop-color="#656464"/>
      <stop offset="1" stop-color="#8d8c8c"/>
    </linearGradient>
    <linearGradient id="linear-gradient14" x1="123.6" y1="497.42" x2="120.2" y2="493.39" gradientTransform="translate(2028.7044 1575.9375) rotate(-180) scale(.9375)" gradientUnits="userSpaceOnUse">
      <stop offset="0" stop-color="#4e4c49"/>
      <stop offset="1" stop-color="#7c7c80"/>
    </linearGradient>
    <linearGradient id="linear-gradient15" x1="294.99" y1="580.25" x2="297.5" y2="578.04" gradientTransform="translate(2028.7044 1575.9375) rotate(-180) scale(.9375)" gradientUnits="userSpaceOnUse">
      <stop offset="0" stop-color="#3b3a3b"/>
      <stop offset="1" stop-color="#606060"/>
    </linearGradient>
    <linearGradient id="linear-gradient16" x1="172.18" y1="571.62" x2="151" y2="562.14" gradientTransform="translate(2028.7044 1575.9375) rotate(-180) scale(.9375)" gradientUnits="userSpaceOnUse">
      <stop offset="0" stop-color="#5e5e5e"/>
      <stop offset="1" stop-color="#969596"/>
    </linearGradient>
    <linearGradient id="linear-gradient17" x1="191.36" y1="595.63" x2="194.91" y2="593.7" gradientTransform="translate(2028.7044 1575.9375) rotate(-180) scale(.9375)" gradientUnits="userSpaceOnUse">
      <stop offset="0" stop-color="#49494b"/>
      <stop offset="1" stop-color="#969595"/>
    </linearGradient>
    <linearGradient id="linear-gradient18" x1="78.84" y1="598.78" x2="84.06" y2="596.73" gradientTransform="translate(2028.7044 1575.9375) rotate(-180) scale(.9375)" gradientUnits="userSpaceOnUse">
      <stop offset="0" stop-color="#797878"/>
      <stop offset="1" stop-color="#908f8f"/>
    </linearGradient>
    <linearGradient id="linear-gradient19" x1="46.26" y1="557.98" x2="49.07" y2="559.49" gradientTransform="translate(2028.7044 1575.9375) rotate(-180) scale(.9375)" gradientUnits="userSpaceOnUse">
      <stop offset="0" stop-color="#38383a"/>
      <stop offset="1" stop-color="#616163"/>
    </linearGradient>
    <linearGradient id="linear-gradient20" x1="71.62" y1="598.48" x2="74.8" y2="596.11" gradientTransform="translate(2028.7044 1575.9375) rotate(-180) scale(.9375)" gradientUnits="userSpaceOnUse">
      <stop offset="0" stop-color="#282627"/>
      <stop offset="1" stop-color="#505155"/>
    </linearGradient>
    <linearGradient id="linear-gradient21" x1="48.46" y1="545.15" x2="44.93" y2="542.55" gradientTransform="translate(2028.7044 1575.9375) rotate(-180) scale(.9375)" gradientUnits="userSpaceOnUse">
      <stop offset="0" stop-color="#5d605c"/>
      <stop offset="1" stop-color="#86838a"/>
    </linearGradient>
  </defs>
  <path class="st0" d="M1920.13,981.58c.99-2.93,4.41-4.31,7.14-2.62,5.38,4.3-.03,10.34-1.02,14.91,3.07,3.44,8.73,6.25,12.85,8.51,8.99,4.89,18.24,9.43,26.65,15.29,2.64,1.84,4.66,3.92,7.01,5.93,5.89,5.04,9.31,11.39,11.66,18.67.55,1.69,1.45,3.38,2.13,5.03,1.45,3.49,1.64,7.05,1.43,10.78-.13,2.35-.52,4.43-1.02,6.72-.25,1.15-.54,2.26-.72,3.46-.2,1.28,1.36,3.26,1.31,4.3-.16,3.36-2.11,7.15-3.52,10.15-.28.59-.97,2.17-1.26,2.53-.94,1.2-2.5,2.53-3.66,3.55-14.22,12.5-31.17,20.56-49.52,24.91-7.26,1.72-13.59,2.91-21.14,2.56-4.13-.19-9.3-2.19-12.83-4.34-4.2,1.96-10.05,3.89-14.67,2.26-1.9-.67-3.04-1.72-4.72-2.6-7.26-3.82-12.13-13.52-12.63-21.58-2.61-1.13-6.33-3.55-9.02-5.05-5.32-2.92-10.67-5.79-16.04-8.62-16.51-8.68-32.87-17.65-49.06-26.91-2.97-1.74-5.97-3.43-9-5.06-1.75-.95-4.68-2.44-6.26-3.52-2.98,1.64-5.98,2.86-9.3,3.57-3.78.8-6.58-.25-9.76-2.21-4-2.47-6.35-4.68-8.57-8.82-2.59-4.83-3.86-9.07-4.23-14.53-6.53-5.91-10.81-16.03-11.2-24.73-.09-1.97.68-3.73.82-5.66.35-5.1-.63-12.2.84-17.06.65-2.16,2.57-3.61,3.72-5.48.5-.82.88-1.75,1.29-2.62,1.32-2.81,2.5-5.35,4.64-7.66,9.54-10.3,33.73-19.83,47.68-20.31,3.72-.13,7.22.56,10.88,1.03,2.26.29,4.57.42,6.85.59,2.63.19,5.27.21,7.9.35,5.17.25,10.32.8,15.43,1.64,29.1,5.08,61,22.04,82.37,42.3,1.84,1.75,4.03,3.79,5.73,5.63-.04-1.6.05-3.86.84-5.31Z"/>
  <path class="st29" d="M1927.11,979.17c3.31,3.17,2.2,7.14-.24,10.42-.13.18-.33.24-.53.28.29-.62.8-1.06,1.15-1.63,1.27-2.03,1.79-4.42.96-6.73-.37-1.04-1.18-2.21-2.46-1.52-.89.51-1.58,1.81-2.06,2.71-.74-1.07-1.12-1.76-1.57-3.01-.32.27-.76.63-1.05.92l.13.18c-.24.25-.46.26-.81.33-.24.28-.18.17-.32.51l-.18-.06c.99-2.93,4.41-4.31,7.14-2.62l-.16.21Z"/>
  <path class="st2" d="M1927.11,979.17c-1.32-.72-2.04-.84-3.52-.4-.58.17-2.51,1.11-2.28,1.86l.13.18c-.24.25-.46.26-.81.33-.24.28-.18.17-.32.51l-.18-.06c.99-2.93,4.41-4.31,7.14-2.62l-.16.21Z"/>
  <path class="st2" d="M1895.4,968.62c.04.12.07.25.11.37,1.66,1.49,3.39,2.89,5.1,4.32,2.13,1.8,4.24,3.63,6.33,5.48,4.79,4.35,9.3,8.98,13.53,13.88.88.98,2.38,2.83,3.13,3.95-1.31,2.8-4.24,5.27-6.74,7.35-7.73,6.43-16.87,11.29-25.99,15.47-.04.01-.07.02-.11.04-2.42,1.11-4.87,2.35-7.34,3.34-2.94,1.18-6.17,1.68-9.15,2.72-4.1,1.4-8.11,3.1-12.27,4.31-.64.19-1.41.1-2.03-.14-2.46-1.32-5.48-4.56-6.98-6.88l1.18-.98c-2.6-6.6-6.51-10.53-11.26-15.6-1.27-1.35-3.81-4.66-4.79-6.15,1.22-.89,9.57-4.02,11.64-4.92,5.35-2.35,10.65-4.83,15.88-7.43,1.52,1.37,2.75,2.87,4.39,4.18.99-.54,2.01-1.04,3.03-1.5,1.56-.69,4.12-1.42,5.37-2.5.81-.7-3.09-4.18-3.7-4.74,1.52-.84,7.29-3.78,8.11-4.77.16-.19.33-.35.5-.53l.24.04-.15.33c1.68.95,3.3,2.47,4.98,3.4,2.5,1.38,5.05,3.01,7.5,4.42,1.93,1.11,4.77,2.11,6.85,3.08,3.21,1.5,6.3,3.51,9.85,3.76.64.04,1.42.96,2.25.74l.08-.26c-.2-.64-.17-.46-.74-.98-.57-.33-1.01-.84-1.6-1l-.3.34c-.5.06-5.11-2.67-5.98-3.13-4.83-2.54-9.68-5.04-14.54-7.5-2.1-1.08-5.31-2.62-7.24-3.81.37-.25.68-.42,1.07-.63l.68-.47c-.75-.52-1.13-.64-1.97-.92,2.35-1.37,4.66-3.01,6.92-4.51,1.28-.85,2.57-1.86,3.93-2.55.1.17.18.25.21.43Z"/>
  <path class="st26" d="M1895.4,968.62c.04.12.07.25.11.37,1.66,1.49,3.39,2.89,5.1,4.32,2.13,1.8,4.24,3.63,6.33,5.48,4.79,4.35,9.3,8.98,13.53,13.88-.66.39-1.2.56-1.92.82-1.18-.69-5.02-4.72-6.41-5.93-6.47-5.67-12.33-10.74-20.01-14.76-1.46,1-3.64,2.53-5.22,3.28l-.51-.15-.12.12.03.13c-.75-.52-1.13-.64-1.97-.92,2.35-1.37,4.66-3.01,6.92-4.51,1.28-.85,2.57-1.86,3.93-2.55.1.17.18.25.21.43Z"/>
  <path class="st33" d="M1883.55,1019.66c-.96.49-1.93.85-2.91,1.4.45.39,1.19.95,1.68,1.33,1.24-.78,7.12-3.77,8.44-2.92-2.42,1.11-4.87,2.35-7.34,3.34-2.94,1.18-6.17,1.68-9.15,2.72-4.1,1.4-8.11,3.1-12.27,4.31-.64.19-1.41.1-2.03-.14.71-.45,1.74-.81,2.52-1.27,5.93-3.54,12.5-5.6,18.79-8.35,3.28-1.43,6.54-2.91,9.81-4.36,2.09-.93,4.13-2.11,6.29-2.87-3.27,2.74-9.89,4.81-13.82,6.82Z"/>
  <path class="st33" d="M1895.36,980.5c2.18,1.08,5.59,3.25,7.49,4.14.39.27,1.58.91,1.76,1.15.28.2.56.4.84.6l-.05.3c.45.48,3.4,1.95,4.01,1.84l.13-.41c1.03.41,4.34,2.84,4.92,3.8-.03.38.03.21-.24.49-.57-.33-1.01-.84-1.6-1l-.3.34c-.5.06-5.11-2.67-5.98-3.13-4.83-2.54-9.68-5.04-14.54-7.5-2.1-1.08-5.31-2.62-7.24-3.81.37-.25.68-.42,1.07-.63l.68-.47-.03-.13.12-.12.51.15c1.32.9,6.72,3.57,8.45,4.43Z"/>
  <path class="st34" d="M1895.36,980.5c2.18,1.08,5.59,3.25,7.49,4.14.39.27,1.58.91,1.76,1.15.28.2.56.4.84.6l-.05.3c-6.73-3.23-13.22-6.35-19.76-10.03l.68-.47-.03-.13.12-.12.51.15c1.32.9,6.72,3.57,8.45,4.43Z"/>
  <path class="st13" d="M1909.53,988.11l-.13.41c-.6.11-3.55-1.37-4.01-1.84l.05-.3c-.28-.2-.56-.41-.84-.6,1.22.16,1.55.64,2.47.88.82.49,1.62.99,2.46,1.45Z"/>
  <path class="st33" d="M1904.61,985.78c-.19-.24-1.37-.88-1.76-1.15l.15-.34c.8-.11,3.23,1.72,3.92,2.24l.16.12c-.92-.25-1.25-.72-2.47-.88Z"/>
  <path class="st33" d="M1917.59,999.85c.71-1.12,3.24-2.53,4.55-2.8-.59.66-3.74,2.79-4.55,2.8Z"/>
  <path class="st2" d="M1825.82,939.23l-.04.23.15.43c-15.75,4.08-31.32,11.35-45.17,19.87-2.28,1.41-4.91,3.43-7.23,4.87-.21.13-.82-.13-1.07-.23l-.03-.2s-.08.04-.13.06c-4.18-.65-8.33-1.69-12.56-2.23-1.47-.19-6.17-.48-6.58-1.97.13-2.09,2.46-3.99,4.05-5.16,12.04-8.85,26.98-14.63,41.72-16.88,2.62-.4,6.98-.27,9.66-.23,5.83.06,11.65.46,17.44,1.2l-.21.23Z"/>
  <path class="st5" d="M1825.93,939.89c-15.75,4.08-31.32,11.35-45.17,19.87-2.28,1.41-4.91,3.43-7.23,4.87-.21.13-.82-.13-1.07-.23,2.05-1.46,4.24-3.13,6.38-4.42,14.53-8.71,30.63-16.13,46.94-20.52l.15.43Z"/>
  <path class="st29" d="M1825.82,939.23h-.2c-2.54.1-5.28-.46-7.83-.66-5.41-.43-10.98-.72-16.41-.49-12.26.52-37.83,10.5-46.4,19.47-.74.78-1.33,1.56-1.81,2.52.13-2.09,2.46-3.99,4.05-5.16,12.04-8.85,26.98-14.63,41.72-16.88,2.62-.4,6.98-.27,9.66-.23,5.83.06,11.65.46,17.44,1.2l-.21.23Z"/>
  <path class="st0" d="M1888.87,1104.38c-.75,3.81-3.46,7.83-7.92,6.6-1.9-.38-4.75-2.31-6.24-3.53l-.86-.74c-1.78-1.75-3.64-4.41-4.59-6.73.19-.35.26-.67.24-1.06l-.18-.13c0-.53,2.22-2.13,2.77-2.71,1.32-1.06,3.66-2.7,4.66-3.98-2.07-.95-3.88-1.67-5.96-2.72-1.52-.76-3.35-1.81-4.81-2.49-.04.37-.08.66-.06,1.03l.35-.35c.81.4.95.5,1.64,1.06.23.75.45,1.51.67,2.27l.38-.03h.33c.3-.56-.24-1.13.05-1.66,1.22-.17,1.76,5.17,2.6,6.53-.5.43-.96.88-1.63.99-.07.53-.48.87-.85,1.28-.61.21-.61.04-.96-.49-.2.42.32.94.22,1.38h-.12c-.18-.36-.62-1.35-.67-1.74-2.23-4.84-3.05-12.49-1.49-17.65,1.28-3.97,4.88-6.56,9.06-4.75,5.79,2.52,9.02,7.8,11.44,13.37,2.01,5,3.01,10.9,1.96,16.24Z"/>
  <path class="st34" d="M1874.71,1107.45l.05-1.09c.29-.74.55-1.57.8-2.33.92-2.81,2.06-5.54,2.94-8.37l.12-.1.09-1.16c.45,2.39,1.18,1.55,2.65,2.15.05-.39.06-.61.08-1,.77.08,1.76,2.79,2.19,3.41,1.32,1.93,2.79,4.23,4.39,5.94-.37.77-.79,1.62-1.12,2.39-.98-1.73-2.06-3.38-3.04-5.1-.83-1.46-1.52-3.05-2.28-4.55.1.86.35,1.84.22,2.67-.28.38-.21.35-.72.43l-.07.35c.47,1.09.55.01.64,1.59.07,1.3-.47,6.63.05,7.46l.21-.08c.08-.27.12-.43.22-.69l.17.31c.87.17,1.68.33,2.55.11.18-.04.16-.02.36.04.06-.22.06-.16.05-.23,1.62-.8,3.04-3.59,3.32-5.36.15-.96.85-5.3-.06-5.85-1.24-.74-2.99-1.49-4.15-2.6-.34-.34-1.15-.61-1.55-1.17.94.28,2.14,1.43,3.02,1.96,1.04.64,2,1.12,3.1,1.64-.08-3.42-1.12-6.84-2.24-10.04l.23-.04c2.01,5,3.01,10.9,1.96,16.24-.75,3.81-3.46,7.83-7.92,6.6-1.9-.38-4.75-2.31-6.24-3.53Z"/>
  <path class="st2" d="M1878.32,1106.8c-.56-.11-1.26-.34-1.76-.11-.74-.27-1.03-.29-1.8-.33.29-.74.55-1.57.8-2.33.92-2.81,2.06-5.54,2.94-8.37.59.33,1.42.69,1.42,1.48-1.55.82-1.81,7.9-1.6,9.66Z"/>
  <path class="st0" d="M1880.4,1101.09c.11,2.57-.03,5.52.36,8.06-.44,0-.65-.66-1.01-.98-.74-.64-2.26-1.14-3.18-1.49.49-.23,1.19,0,1.76.11-.21-1.76.05-8.84,1.6-9.66.21,1.31.42,2.63.48,3.95Z"/>
  <path class="st13" d="M1876.56,1106.69c.92.35,2.44.84,3.18,1.49.36.31.57.97,1.01.98.11-.33.19-.58.28-.92.45.61.59,1.4.16,2.06-.36.22-.36.19-.8.19.34.55.55.12.55.5-1.9-.38-4.75-2.31-6.24-3.53l.05-1.09c.77.04,1.07.07,1.8.33Z"/>
  <path class="st33" d="M1881.79,1100.32c-.28.38-.21.35-.72.43l-.07.35c-.26-.76-.31-3.15.41-3.64l.16.2c.1.86.35,1.84.22,2.67Z"/>
  <path class="st4" d="M1878.62,1095.57l-.12.1c-.89,2.82-2.02,5.55-2.94,8.37-.25.76-.51,1.59-.8,2.33l-.05,1.09-.86-.74c-1.78-1.75-3.64-4.41-4.59-6.73.33-.03.4-.02.66-.24.83-.06.77.09,1.49.34-.15-.44-.29-.71-.23-1.18l.11.1.08.2c.71-.4.75.12,1.86-.85.77.85,1.87,2.57,2.55,3.57.81-1.84,1.43-3.99,2.11-5.89.23-.65.33-1.39.83-1.64l-.09,1.16Z"/>
  <path class="st13" d="M1874.79,1104.59c-.34.29-.31.27-.45.69.1.67.32,1.09.1,1.57l-.59-.14c-1.78-1.75-3.64-4.41-4.59-6.73.33-.03.4-.02.66-.24.83-.06.77.09,1.49.34.71,1.61,2.52,3.13,3.38,4.5Z"/>
  <path class="st2" d="M1871.98,1103.64l-.08.08c-.53-.44-1.06-1.25-1.3-1.89l.08-.19c.49.68.95,1.25,1.3,2.01Z"/>
  <path class="st2" d="M1871.37,1099.21c.44.6.3.43.8.83,1.16.93,2.01,2.28,3.19,3.28-.13.45-.22.99-.56,1.27-.86-1.38-2.67-2.9-3.38-4.5-.15-.44-.29-.71-.23-1.18l.11.1.08.2Z"/>
  <path class="st33" d="M1868.55,1090.9l.38-.03h.33c.3-.56-.24-1.13.05-1.66,1.22-.17,1.76,5.17,2.6,6.53-.5.43-.96.88-1.63.99-.07.53-.48.87-.85,1.28-.61.21-.61.04-.96-.49-.2.42.32.94.22,1.38h-.12c-.18-.36-.62-1.35-.67-1.74.07-.45-.41-1.63-.54-2.29-.85-2.31-1.09-4.53-1.45-6.96l.35-.35c.81.4.95.5,1.64,1.06.23.75.45,1.51.67,2.27Z"/>
  <path class="st34" d="M1870.28,1096.72c-.24-.8-.91-3.26-1.17-3.87-.06-.61-.29-1.43-.18-1.99h.33c.3-.56-.24-1.13.05-1.66,1.22-.17,1.76,5.17,2.6,6.53-.5.43-.96.88-1.63.99Z"/>
  <path class="st2" d="M1867.36,1094.87c-.85-2.31-1.09-4.53-1.45-6.96l.35-.35c-.13,2.11,1.32,6.39,1.11,7.31Z"/>
  <path class="st2" d="M1869.11,1092.86c-.34-.68-.41-1.23-.56-1.96l.38-.03c-.11.56.13,1.38.18,1.99Z"/>
  <path class="st7" d="M1871.52,1089.1l.38-.04.73-.1c.99.3,1.89.56,2.86.94.31.12.52.16.84.23l.18.24.24.02c.41.22.83.45,1.24.68l-.02.13c-.43.26-.63.49-.7,1.01.19.11.38.22.58.33-.18.39-.78.73-1.16.99-.69,2.78-1.21,3.17-3.56,4.72l.11.11c-1.11.97-1.15.45-1.86.85l-.08-.2-.11-.1c-.06.46.08.74.23,1.18-.72-.25-.67-.4-1.49-.34-.25.21-.33.21-.66.24.19-.35.26-.67.24-1.06l-.18-.13c0-.53,2.22-2.13,2.77-2.71,1.32-1.06,3.66-2.7,4.66-3.98-2.07-.95-3.88-1.67-5.96-2.72-1.52-.76-3.35-1.81-4.81-2.49.04-.2.11-.27.22-.46,2.01,1.16,3.15,1.8,5.33,2.68Z"/>
  <path class="st2" d="M1873.12,1098.25l.11.11c-1.11.97-1.15.45-1.86.85l-.08-.2-.11-.1c-.06.46.08.74.23,1.18-.72-.25-.67-.4-1.49-.34-.25.21-.33.21-.66.24.19-.35.26-.67.24-1.06.23-.21.61-.47.87-.65,2.22-1.59,4.15-3.1,6.31-4.74-.69,2.78-1.21,3.17-3.56,4.72Z"/>
  <path class="st33" d="M1870.51,1098.31c.76.25,1.05.12,1.43.29-.21.29-.3.27-.65.4l-.11-.1c-.06.46.08.74.23,1.18-.72-.25-.67-.4-1.49-.34-.25.21-.33.21-.66.24.19-.35.26-.67.24-1.06.23-.21.61-.47.87-.65l.15.05Z"/>
  <path class="st13" d="M1875.49,1089.89l-.42.22-.03.12-.19.17c-.41-.08-.46-.15-.8-.4-.22-.38-1.62-.76-2.16-.95l.73-.1c.99.3,1.89.56,2.86.94Z"/>
  <path class="st2" d="M1874.06,1090c-1.05-.21-1.59-.47-2.54-.9l.38-.04c.54.19,1.94.57,2.16.95Z"/>
  <path class="st33" d="M1871.9,1089.06l-.38.04c-2.18-.88-3.32-1.52-5.33-2.68l.02-.09c.24-.62.27-1.82.32-2.52.13-1.86.37-3.07,1.11-4.76.65.74,2.84,2.81,2.68,3.69-.52,2.91-1.38,5.41,2.31,6.21l-.73.1Z"/>
  <path class="st1" d="M1886.67,1088.19c-1.47,1.06-2.54,1.74-4.11,2.59.36.33.45.37.64.83l-.11.22c-.6-.16-1.48-1.1-1.57-1.68.98-.96,3.51-1.9,4.82-2.78-1.31-2.64-2.62-5.28-4.6-7.5-.03.89-.08,1.78-.17,2.67-.04-.6-.04-.68-.25-1.23.08-.5.16-1.02.28-1.51-.5-.59-.91-1.09-1.49-1.61-.1,1.96-.49,3.86-.75,5.81-.12.89-.12,2.31-.35,3.09-.45-1.63.73-6.88.83-9.01-1.32-1.68-4.6-3.28-6.77-3.47.03.66.53,3.39.48,3.59-.5-1.2-.2-2.41-1.1-3.39-.77-.28-1.55.04-2.27.41-3.15,1.64-4.13,5.57-4.33,8.83-.04.58-.22,1.7-.03,2.17l.35.12-.02.09c-.11.19-.17.26-.22.46-.04.37-.08.66-.06,1.03.37,2.43.61,4.65,1.45,6.96.13.66.61,1.84.54,2.29-2.23-4.84-3.05-12.49-1.49-17.65,1.28-3.97,4.88-6.56,9.06-4.75,5.79,2.52,9.02,7.8,11.44,13.37l-.23.04Z"/>
  <path class="st13" d="M1869.51,1079.39c-.39-.46-.66-1.11-1.2-1.27l-.25.04c-.09-.24-.06-.15-.04-.43.61-1,2.58-2.98,3.86-2.46.42,1.3.03,2.32,0,3.67-.05,2.55.84,3.54,2.4,5.25-2-1.17-3.31-3.05-4.77-4.79Z"/>
  <path class="st33" d="M1883.5,1108.21c.75.02,1.61-1.26,2.6-.98.32.36.22.16.32.62-.37.9-1.41,1.09-1.18,1.76.01.07.01.01-.05.23-.2-.06-.18-.08-.36-.04-.87.22-1.68.06-2.55-.11l-.17-.31.7-1.09-.13-4.78c.57,1.54,1.06,3.04.83,4.7Z"/>
  <path class="st12" d="M1881.59,1082.53c-.04,1.36.18,4.52-.29,5.61.08.34.12.57.17.92l-.18.16c-1.04-2.24-1.27-1.44-.57-4.28.24-.99.46-2.58.63-3.64.21.55.2.63.25,1.23Z"/>
  <path class="st1" d="M1876.75,1090.38l-.24-.02-.18-.24c-.08-.58-.19-1.36-.45-1.87-1.49-2.92-6.73-7.16-7.82-10.1l.25-.04c.86,3.26,9.18,8.99,8.43,12.27Z"/>
  <path class="st13" d="M1880.18,1094.78l.2.55-.13.2c-.56.02-.93-.43-1.26-.82-.16-.52.04-.86.27-1.33-.37-.24-.58-.37-.92-.65l.51-1.59.22-.07.36.26c.12-.27.04-.21.23-.34.31.62-.18,1.23.05,1.81.34.86.88.74.9,1.78l-.41.22Z"/>
  <path class="st2" d="M1880.18,1094.78c-.3-.24-.59-.75-.56-1.14.58.38.27.63.97.92l-.41.22Z"/>
  <path class="st13" d="M1877.54,1084.42c-.08.27,0,.17-.23.31-.61-.19-.6-.09-.97-.74-.39-.7-1.6-3.45-1.45-4.14l.2-.13c.89,1.53,1.71,3.1,2.45,4.71Z"/>
  <path class="st2" d="M1884.67,1091.7l-.39-.05c.1-1.09,1.62-2.45,2.6-2.58-.54,1.39-.88,1.88-2.21,2.64Z"/>
  <path class="st33" d="M1886.18,1095.54l-.1.25-.28-.13c-.7-.51-1.63-.98-1.15-1.91.3-.18.2-.15.52-.23.65.59.87,1.15,1.01,2.01Z"/>
  <path class="st1" d="M1875.94,1084.97c-.53-1.09-2.25-5.21-2.02-6.32.26.61,2.07,5.99,2.02,6.32Z"/>
  <path class="st1" d="M1877.92,1088.39c-.19.24-.07.16-.35.25-.32-.26-1.5-2.1-1.78-2.57l.48-.14c.66,1.48.7,1.22,1.65,2.46Z"/>
  <path class="st1" d="M1883.83,1093.5c0,.47.09.28-.2.6-.38-.37-.71-.59-.84-1.09.06-.07.14-.2.21-.24.42.26.57.31.83.73Z"/>
  <path class="st11" d="M1887.63,1098.46l-.16.03c-.54-.26-1.39-.6-1.79-1,.05-.03.11-.06.16-.09.51.26,1.46.68,1.79,1.06Z"/>
  <path class="st2" d="M1798.54,979.9v.25c1.84.82,2.96,1.52,4.65,2.59.7.44,1.58.78,2.26,1.3l.23.27c-1.2,5.1-2.18,10.01-2.78,15.23-.07.64-.65,7.32-.67,7.37-.56-.29-.39-1.38-.39-1.97l-.11-.98c-.06.61.05,1.82-.15,2.21l-.23-.11c-1.13-.17-16.25-10.85-17.92-12.1-2.77-2.04-5.44-4.21-8.02-6.48-.41-.27-.65-.52-1-.86l-.04-.37c.91-1.87,6.44-10.93,7.78-12.1,3.14-.02,8.41,3.07,9.93,2.9,1.24.47,5.45,2.15,6.48,2.84Z"/>
  <path class="st13" d="M1783.41,993.97c-2.77-2.04-5.44-4.21-8.02-6.48l.33-.11c1.19.71,3.06,2.28,4.23,3.18,2.34,1.79,4.71,3.54,7.1,5.26,2.73,1.92,5.5,3.79,8.29,5.62,1.86,1.22,4.16,2.65,5.89,3.97.03.21.08.45.1.66-1.13-.17-16.25-10.85-17.92-12.1Z"/>
  <path class="st1" d="M1805.67,984.31c-1.2,5.1-2.18,10.01-2.78,15.23-.07.64-.65,7.32-.67,7.37-.56-.29-.39-1.38-.39-1.97.18-1.06.31-2.89.39-3.9.16-2.19,2.33-16.22,3.23-17.01l.23.27Z"/>
  <path class="st1" d="M1774.36,986.26c.91-1.87,6.44-10.93,7.78-12.1l.06.3c-2.36,3.48-4.61,6.91-6.69,10.56-.28.48-.66,1.32-1.11,1.61l-.04-.37Z"/>
  <path class="st34" d="M1796.71,957.55c6.15,1.6,12.19,3.55,18.09,5.94,2.92,1.18,7.01,2.9,9.64,4.66-1.52.54-3.2,1.32-4.68,2.03-3.85,1.84-8.08,3.13-11.93,4.89-1.05.47-2.15.95-3.18,1.45-2.03-.67-5.98-2.82-8.26-3.76-6.61-2.74-15.58-6.51-22.5-7.87,2.05-1.41,13.2-9.05,14.68-9.14,2.86.22,5.39,1.08,8.15,1.8Z"/>
  <path class="st0" d="M1759.01,1011.11c1.28,1.53,3.8,5.45,4.33,7.36l.23.58c2.25,5.34,3.44,12.49,1.24,18.06-1.15,2.93-3.34,4.74-6.62,3.74l-.27-.32c.17-.29.65-.16,1.11-.35-.36-.53-.29-1.52-.35-2.25-.04.49-.06,1.15-.24,1.59-.37-.41-.18-.6-.38-1.09l-.14.52c-.79-1.09-2.51-1.81-3.76-2.24-.72-.03-.85.06-1.55.31l.03-.6c-.02-.62.06-.98.29-1.54l.38-1.25.34-1.29c-.51-.73-1.78-2.69-2.38-3.11-.5.39-.76.42-.88.89l.13.52-.14-.05c-.28-.6-.54-1.29-1.06-1.48-.55.2-.66.36-1.11.77l-.14-.34-.49.24c-.43-.21-.45-.43-.52-.84-.77-1.43-1.17-2.76-1.62-4.32-.58-1.61-.8-3.56-.97-5.25-.02-3.95-.34-8.51,2.56-11.65,2.85-3.1,7.87-1.01,10.28,1.58.54.55,1.25,1.21,1.71,1.81Z"/>
  <path class="st0" d="M1750.17,1027.06c-.9.85-2.05,1.69-2.58,2.72-.43-.21-.45-.43-.52-.84-.77-1.43-1.17-2.76-1.62-4.32-.58-1.61-.8-3.56-.97-5.25l.26.18c0-.38-.08-.73.08-1,2.53,1.3,4.91,2.67,7.62,3.61.68.23,1.44.52,2.06.89-1.37,1.31-3.04,2.7-4.31,4.01Z"/>
  <path class="st13" d="M1746.42,1020.06c.29.76.38,1.01.55,1.81l.46.2c.11,1.15.68,4.47,1.49,5.28.53.02.63-.14,1.17-.42l.07.12c-.9.85-2.05,1.69-2.58,2.72-.43-.21-.45-.43-.52-.84-.77-1.43-1.17-2.76-1.62-4.32-.58-1.61-.8-3.56-.97-5.25l.26.18.21.66.02-1.16c.49.31,1.05.63,1.48,1.01Z"/>
  <path class="st2" d="M1748.92,1027.35c.53.02.63-.14,1.17-.42l.07.12c-.9.85-2.05,1.69-2.58,2.72-.43-.21-.45-.43-.52-.84-.77-1.43-1.17-2.76-1.62-4.32l.3-.06c.44.39,1.26,3.66,1.61,4.54h.16c.46-.43.76-.81,1.16-1.29-.79-2-1.27-3.85-1.7-5.94l.46.2c.11,1.15.68,4.47,1.49,5.28Z"/>
  <path class="st34" d="M1747.06,1028.94c-.77-1.43-1.17-2.76-1.62-4.32l.3-.06c.15,1.65,1.1,3.02,1.32,4.38Z"/>
  <path class="st34" d="M1748.92,1027.35c-.81-.81-1.38-4.13-1.49-5.28.79-.8.16-1.23.58-1.62,1.05.54,1.25,3.36,1.59,4.46.12.39.46,1.67.5,2.02-.54.28-.64.44-1.17.42Z"/>
  <path class="st2" d="M1756.27,1026.34l.27-.05c.25.29.44.55.76.76.57,4.23.35,7.6.77,11.38l-.14.52c-.79-1.09-2.51-1.81-3.76-2.24-.72-.03-.85.06-1.55.31l.03-.6c-.02-.62.06-.98.29-1.54l.38-1.25.34-1.29c.6-1.91,2.17-5.95,2.15-7.63l.16-.11c.35.22.3.46.45.99-.05.24-.12.5-.12.74Z"/>
  <path class="st0" d="M1758.06,1038.43l-.14.52c-.79-1.09-2.51-1.81-3.76-2.24.72-.24,1.16-.11,1.88.06-.45-2.9.19-7.01,1.25-9.72.57,4.23.35,7.6.77,11.38Z"/>
  <path class="st1" d="M1756.27,1026.34c-.92,2.03-2.83,7.72-3.63,10.08-.02-.62.06-.98.29-1.54l.38-1.25.34-1.29c.6-1.91,2.17-5.95,2.15-7.63l.16-.11c.35.22.3.46.45.99-.05.24-.12.5-.12.74Z"/>
  <path class="st1" d="M1757.18,1009.5c-3.05-2.66-7.11-4.65-10.35-.95-1.69,1.92-2.65,7.03-2.25,9.46l.26.18c1.41.74,2.4,1.29,3.89,1.88l.21-.46c.67.15,2.39.66,2.98.96.88.27,1.56.45,2.47.65-.87-2.66-3.44-5-5.2-7.09-.98-1.17-1.57-2.03-2.35-3.33l.06-.19c2.55,3.86,6.06,6.64,8.04,10.76.12.25.69.12.78.82-.57.32-.68.24-.89.7.06.2.13.41.2.61l-.04.51c-.61.37-.94.58-1.51,1.03.53,2.61-.81,2.6-2.39,4.15l.18.05c-.5.39-.76.42-.88.89l.13.52-.14-.05c-.28-.6-.54-1.29-1.06-1.48-.55.2-.66.36-1.11.77l-.14-.34-.49.24c.53-1.03,1.68-1.87,2.58-2.72,1.27-1.31,2.94-2.71,4.31-4.01-.62-.37-1.38-.65-2.06-.89-2.71-.93-5.08-2.31-7.62-3.61-.16.27-.09.62-.08,1l-.26-.18c-.02-3.95-.34-8.51,2.56-11.65,2.85-3.1,7.87-1.01,10.28,1.58l-.12.2Z"/>
  <path class="st2" d="M1751.08,1029.19l.18.05c-.5.39-.76.42-.88.89l.13.52-.14-.05c-.28-.6-.54-1.29-1.06-1.48-.55.2-.66.36-1.11.77l-.14-.34c.63-.7,4.4-3.67,5.4-4.5.53,2.61-.81,2.6-2.39,4.15Z"/>
  <path class="st2" d="M1751.87,1020.69l.2.32c-.58.14-2.67-.69-3.34-.94l.21-.46c.67.15,2.39.66,2.98.96l-.06.12Z"/>
  <path class="st33" d="M1748.95,1019.61l-.21.46c-1.48-.58-2.48-1.14-3.89-1.88.34-.28.32-.14.35-.59.1-1.38-.09-5.23.99-6.1.53.06,2.03,2.06,2.44,2.57-.4,1.33-.66,4.41.31,5.54Z"/>
  <path class="st34" d="M1763.79,1037.44c-1.09-1.77-4.01-6.72-4.49-8.76.28-1.2-.43-1.63-1.49-1.69l.38-.05c.3-.29.39-.34.51-.76l.22-.09c.84,1.35,1.47,2.78,2.29,4.14,1.02,1.7,2.47,3.48,3.48,5.15l-.9,2.06Z"/>
  <path class="st13" d="M1752.02,1015.96c-1.6-1.23-4.89-5.47-5.22-5.66l.09.31-.06.19c-1.41-1.59,1.65-3.27,2.85-3.86.52,4.44-.48,5.23,2.33,9.02Z"/>
  <path class="st8" d="M1757.81,1026.99c1.06.07,1.76.49,1.49,1.69-.31-.46-.34-.69-.76-.85l-.23.17v.2c.4.1.39.02.61.24.04.92-.39,2.27-.38,2.39.09,1.66.17,5.51.16,7.11-.04.49-.06,1.15-.24,1.59-.37-.41-.18-.6-.38-1.09-.42-3.78-.2-7.15-.77-11.38-.32-.21-.51-.47-.76-.76l-.27.05c0-.24.07-.5.12-.74.6.78.86,1.03,1.79,1.34l-.38.05Z"/>
  <path class="st34" d="M1764.82,1037.11c-1.15,2.93-3.34,4.74-6.62,3.74l-.27-.32c.17-.29.65-.16,1.11-.35h.3s.07.13.07.13c1.54.09,1.41-.28,2.62-.58,2.43-.25,4.24-7.94,3.56-9.95-.07-.19-.49-.3-.67-.38.48,0,.37.1.63-.12l-.23-.39.2-.13c.55-1.41-1.53-8.02-2.08-9.66l.15-.05c2.25,5.34,3.44,12.49,1.24,18.06Z"/>
  <path class="st13" d="M1759.41,1040.32l-.07-.15c.24-.66.32-1.19.45-1.88.19.29.19.41.41.49.84-.54,2.03-1.47,2.96-1.43.36.23.27.07.36.42-.5.87-1.21,1.32-1.5,1.97-1.21.3-1.07.68-2.62.58Z"/>
  <path class="st10" d="M1758.71,1011.2s-.02.01-.02.02c-.37.58.07,7.04.09,8.23l-1.41-.95c.39-1.93,1.05-5.81.86-7.87-.03-.29-.33-.42-.55-.54l-.32.12-.21.04.04-.74.12-.2c.54.55,1.25,1.21,1.71,1.81l-.3.09Z"/>
  <path class="st1" d="M1763.57,1019.05l-.15.05c-.45.26-3.18,2.21-3.39,2.57.09.27.19.54.28.81-.24.27-.09.19-.44.23-.32-.25-.34-.45-.47-.84-.15-.45-.08.08-.69-.44l.06-.31c.74-.94,3.21-2.15,4.35-2.7l.22.04.23.58Z"/>
  <path class="st9" d="M1756.82,1024.04c-.14-.12-.34-.23-.5-.33-.57-.08-.78.07-1.34.3l.04-.51c1.52-.24.94-1.07,1.82-1.66.76.76.02,1.62.88,2.84v.29s-.2.13-.2.13l-.41-.15-.3-.9Z"/>
  <path class="st33" d="M1759.79,1038.3c.05-.92.06-3.4.29-4.11l.12-.03c.36,1.06.42,2.34.25,3.45-.07.45-.24.68-.25,1.17-.22-.07-.22-.2-.41-.49Z"/>
  <path class="st13" d="M1763.35,1018.47l-.22-.04c-.89-1.93-2.87-5.72-4.42-7.23l.3-.09c1.28,1.53,3.8,5.45,4.33,7.36Z"/>
  <path class="st34" d="M1757.35,1010.21c-.49,2.95-.7,4.78-.91,7.76l-.07.03c-.27-2.08.31-5.68.77-7.76l.21-.04Z"/>
  <path class="st13" d="M1763.49,1027.96c-.64-.4-2.51-1.51-2.82-2.06.57.3,4.25,2.61,4.64,2.99-.68-.21-1.21-.57-1.82-.93Z"/>
  <path class="st2" d="M1765.53,1029.29c-.26.21-.15.12-.63.12-.48-.11-1.33-.71-1.68-1.13l.25-.31c.61.36,1.15.72,1.82.93l.23.39Z"/>
  <path class="st34" d="M1757.12,1024.94c.31.31.35.34.6.73l-.06.24-.34-.05c-.85-.59-1.07-.97-.5-1.82l.3.9Z"/>
  <path class="st13" d="M1755.06,1015.64c-.1.29-.02.17-.24.36-.37-.36-.59-.3-.79-.46-.33-.27-1.37-3.43-1.35-3.89,0-.17.02-.13.15-.26.75.75,1.81,3.19,2.24,4.25Z"/>
  <path class="st13" d="M1753.87,1016.08l-.26-.05c-.68-1.1-3.28-8.4-2.84-9.41.82,3.65,1.8,6.07,3.1,9.46Z"/>
  <path class="st13" d="M1763.01,1026.4c-.4-.26-1.02-.62-1.37-.92l-.42-.53c-.08-.55-.14-.31.1-.74.56-.15.38-.1,1.01.08.44.73.5,1.29.68,2.11Z"/>
  <path class="st33" d="M1761.64,1025.48l-.42-.53c-.08-.55-.14-.31.1-.74.56-.15.38-.1,1.01.08-.25.63-.27.68-.69,1.19Z"/>
  <path class="st2" d="M1762.23,1022.01c-.29-1.06.26-1.62,1.22-2.1.09.9-.12,2.04-1.22,2.1Z"/>
  <path class="st34" d="M1755.39,1019.45c-.37-.05-.19,0-.52-.25l-.07-.28-.22.1c-.57-.38-.98-1.35-1.22-1.97.24-.22.14-.16.44-.28.34.7,1.7,2.29,1.6,2.67Z"/>
  <path class="st34" d="M1760.52,1024.5c-.28.03-.16.06-.36-.02l-.47-.58.06-.23c.28-.06.35-.09.64-.11.12.36.24.58.13.94Z"/>
  <path class="st34" d="M1886.42,962.52c-3.72,2.45-8.54,5.63-12.52,7.69-2.91-1.42-5.9-2.66-8.97-3.7-6.63-2.25-13.4-4.06-20.27-5.43,1.13-3.2,1.98-6.02,2.14-9.44,6.06.31,11.91.94,17.91,1.87.93.14,1.97.29,2.91.34-.73-.45-2.79-1.61-3.3-2.11,0-.2-.02-.13.04-.23,7.01,2.46,15.74,7.07,22.06,11.01Z"/>
  <path class="st0" d="M1925.56,1083.28c-4,.79-10.39.13-14.46.16l-.24.36c.74.22,1.28.25,1.87.68l-.02.19c-1.53.44-4.92-.23-6.56-.4-4.17-.42-6.66-3.26-9.13-6.37-1.6-2.01-3.25-4.01-4.77-6.13,3.98.9,8.54,1.99,12.59,2.38,3.86.34,7.73.63,11.6.87,1.79.13,5.27.19,6.82.76,2.53.93,5.26,2.86,7.98,3.56.4.1.93.29,1.13.66l-.24.23c-1.26.59-5.56,2.85-6.55,3.05Z"/>
  <path class="st29" d="M1931.81,1080.03c-.63-.65-4.38-1.51-5.3-2.15-.2-.14-1.34-.62-1.62-.76-3.06-1.37-5.45-1.14-8.71-1.36-4.24-.28-8.55-.37-12.77-.79l-.11.21c-.86,0-2.51-.34-3.42-.51l-.16.24c-.92-.4-2.76-.91-3.78-1.23.74.54,1.58.8,2.44,1.12,1.99.66,3.01,3,4.02,4.79,1.03,1.12,1.56,1.74,2.84,2.55,1.26.76,4.12,1.46,5.61,1.63.74.22,1.28.25,1.87.68l-.02.19c-1.53.44-4.92-.23-6.56-.4-4.17-.42-6.66-3.26-9.13-6.37-1.6-2.01-3.25-4.01-4.77-6.13,3.98.9,8.54,1.99,12.59,2.38,3.86.34,7.73.63,11.6.87,1.79.13,5.27.19,6.82.76,2.53.93,5.26,2.86,7.98,3.56.4.1.93.29,1.13.66l-.24.23-.3-.2Z"/>
  <path class="st30" d="M1897.21,1074.83c.39,0,.78,0,1.17,0,1.99.66,3.01,3,4.02,4.79-1.88-.56-4.38-2.99-5.2-4.79Z"/>
  <path class="st13" d="M1903.3,1075.2c-.86,0-2.51-.34-3.42-.51l-.17-.12c.66-.07,2.95.29,3.7.42l-.11.21Z"/>
  <path class="st2" d="M1924.91,1078.56l-.11.08c-4.09.22-8.35.38-12.42-.08-1.41-.16-2.98-.98-4.41-1.26-1.37-.06-2.51-1.55-3.89-1.2l-.07.27c-.21-.41-.28-.48-.55-.84l-.15-.33.11-.21c4.22.42,8.53.51,12.77.79,3.26.22,5.65-.02,8.71,1.36.02.45.05.99.02,1.43Z"/>
  <path class="st29" d="M1932.11,1080.23c-1.26.59-5.56,2.85-6.55,3.05-4,.79-10.39.13-14.46.16l-.24.36c-1.49-.17-4.35-.87-5.61-1.63l.23-.3.11-.09.11.04c4.7,1.74,13.75,1.77,18.89,1.22,1.26-.13,5.8-2.35,7.22-3l.3.2Z"/>
  <path class="st2" d="M1909.98,1083.31c.37.05.75.09,1.12.13l-.24.36c-1.49-.17-4.35-.87-5.61-1.63l.23-.3c.56.75,3.57,1.31,4.5,1.44Z"/>
  <path class="st29" d="M1903.45,1075.52c.28.36.34.43.55.84-.02.46.01,1.03-.17,1.43l-.02.11.15.4c-.34.1-.17.06-.51.13l-.19.22c.13.54,1.22,1.84,1.61,2.82-2.59-2.21-3.28-5.26-5.15-6.55l.16-.24c.91.17,2.56.5,3.42.51l.15.33Z"/>
  <path class="st2" d="M1904.01,1076.37c-.02.46.01,1.03-.17,1.43l-.02.11.15.4c-.34.1-.17.06-.51.13l-.19.22c-.03-1.38-.95-1.62.19-3.13.28.36.34.43.55.84Z"/>
  <path class="st34" d="M1903.82,1077.91l-.09.12c-.3-.64-.25-1.01-.15-1.7h.11c.21.39.15,1,.15,1.47l-.02.11Z"/>
  <path class="st29" d="M1914.7,1079.24c-2.19.14-4.81-.92-6.73-1.95,1.43.28,3,1.1,4.41,1.26,4.07.46,8.33.3,12.42.08-2.23.86-7.55.44-10.1.6Z"/>
  <path class="st34" d="M1760.16,948.9c-.48.77-2.96,2.52-3.85,3.24-2.73,2.21-5.41,4.41-7.84,6.96-1.34,1.4-4.13,3.73-2.22,5.74l.15-.02c-.12-.92-.46-1.81-.09-2.66.54-.33,2.33-.03,3.17-.02,7.88.12,15.2,1.15,22.91,2.87-1.52.86-2.03,1.58-3.13,2.92l-2.28-.23c-4.11-.71-15.14-1.63-18.56-.12h.11c-2.65.74-7.73-1.93-10.44-2.8.92-2.26,1.71-4.9,3.26-6.81,2.03-2.5,13.32-7.43,16.65-8.84.59-.25,1.11-.48,1.76-.49.05,0,.11,0,.16,0l.23.25Z"/>
  <path class="st34" d="M1753.25,968.6c.22.16.15.12.24.16-.48.16-3.63.26-4.34.32.72.77,1.63,1.54,2.32,2.34.92,1.06,1.64,2.1,2.64,3.11,2.79,2.82,9.24,7.93,11.11,11.15-.24-.02-.48-.05-.72-.08-2.04-.28-4.74-1.18-6.67-1.99-1.73-.75-3.43-1.55-5.11-2.4-1.83-.94-17.09-9.23-17.71-10.05.05-1.15,2.17-4.74,2.83-5.95,7.68,3.05,7.66,3.51,15.89,3.22l-.48.18Z"/>
  <path class="st29" d="M1854.63,1037.32c-1.77-1.09-5.08-7.59-6.42-9.71-12.64-20-27.29-38.13-49.67-47.72-1.03-.69-5.24-2.38-6.48-2.84-7.41-3.08-15.1-5.43-23.11-6.43-5.87-.73-6.7,1.17-4.1,6.26.72,1.41,1.73,2.67,2.72,3.9.58.73,2.74,2.94,2.99,3.53l-.11.32c-.66.32-.49.36-1.09.26-.61-.41-1.44-1.41-1.94-1.98-3.06-3.53-7.5-8.9-6.17-13.93.25-.93,7.57.1,8.75.32,17.65,3.3,35.1,10.9,49.27,21.96,9.94,7.86,19.6,20.06,26.29,30.76,1.37,2.23,2.72,4.46,4.05,6.71.99,1.68,4.05,7.39,5.19,8.36l-.17.23Z"/>
  <path class="st33" d="M1803.94,1015.85c-1.56-.86-3.19-1.92-4.7-2.89-7.77-4.98-16-9.2-23.58-14.46-.4-.28-2.28-1.46-2.52-1.77-.04-.15-.01-.06-.13-.28l-.1-.18.42-.3c2.74,1.44,5.24,2.93,8.16,3.99-.72-2.41-1.44-3.68-2.76-5.85,8.69,6.16,16.96,12.02,26.06,17.61-.55,1.66-.68,2.44-.84,4.13Z"/>
  <path class="st34" d="M1894.5,967.86c-1.15.54-3.46,2.36-4.7,3.17-3.7,2.42-7.28,4.92-11.22,6.98l.15-.41c1.33-.79,2.65-1.59,3.97-2.4-1.55-.87-6.87-3.99-8.19-4.46l.07-.22c.91-.7,2.81-1.68,3.85-2.32,2.7-1.65,5.93-3.49,8.39-5.47,2.61,1.63,5.17,3.35,7.68,5.13Z"/>
  <path class="st33" d="M1983.77,1048.47c-.65,1.79-4.05,8.78-5.79,8.99-.54-.45-.4-1.08-.4-1.76-.27-1.73-.68-7.87-.39-9.56,1.05-6.15,3.32-8.84,1.5-15.26.68,1.1,1.47,2.75,2.09,3.94,2,4.05,4.61,9.16,2.99,13.63Z"/>
  <path class="st0" d="M1980.53,1035.04l-.66-1.32c.03,1.1.05,2.19.06,3.29l-.15,1.13.52.13c.22.73.45,1.26.74,1.96-.37.83-.77,1.65-1.2,2.46.3,2.04.72,3.96.58,6.03-.05.81-.06,1.21.26,1.95.44-.74.71-1.5,1.03-2.31l.24.1.11-.19.29.04c-.01.34-.05.53-.1.86-1.2,3.02-2.17,4.16-4.51,6.28l-.16.27c-.27-1.73-.68-7.87-.39-9.56,1.05-6.15,3.32-8.84,1.5-15.26.68,1.1,1.47,2.75,2.09,3.94l-.25.2Z"/>
  <path class="st29" d="M1980.53,1035.04l-.66-1.32c.03,1.1.05,2.19.06,3.29l-.15,1.13c-.26,1.49-.69,2.96-1.15,4.41-.43,1.24-.93,2.71-1.13,4.01-.26,2.32,0,6.51.25,8.88l-.16.27c-.27-1.73-.68-7.87-.39-9.56,1.05-6.15,3.32-8.84,1.5-15.26.68,1.1,1.47,2.75,2.09,3.94l-.25.2Z"/>
  <path class="st33" d="M1980.15,1049.36c-.58-.61-2.08-2.05-2.33-2.72l-.32-.08c.19-1.3.7-2.77,1.13-4.01,1.34,2.11,1.65,4.35,1.52,6.82Z"/>
  <path class="st1" d="M1981.96,1048.45c-.29.85-.92,2.3-1.46,3.01-.04-.3,0-.55.19-.81.44-.74.71-1.5,1.03-2.31l.24.1Z"/>
  <path class="st29" d="M1979.91,1051.21c-.1,1.04.04,1.31-.68,2.14.2-1.37.4-2.75.62-4.12.17.68.14,1.29.07,1.98Z"/>
  <path class="st29" d="M1983.77,1048.47c-.65,1.79-4.05,8.78-5.79,8.99-.54-.45-.4-1.08-.4-1.76l.16-.27c2.34-2.12,3.31-3.26,4.51-6.28.05-.33.09-.52.1-.86l-.29-.04c.22-1.29.82-1.82.83-3.17.21-.35.32-1.62.46-2.23-.47-2.25-1.91-5.67-2.83-7.82l.25-.2c2,4.05,4.61,9.16,2.99,13.63Z"/>
  <path class="st2" d="M1982.26,1049.16c.05-.33.09-.52.1-.86l-.29-.04c.22-1.29.82-1.82.83-3.17.21-.35.32-1.62.46-2.23.43,2.05-.03,4.54-1.1,6.3Z"/>
  <path class="st29" d="M1982.07,1048.26l-.11.19-.24-.1c.48-1.22.19-2.14,1.18-3.26-.02,1.35-.61,1.88-.83,3.17Z"/>
  <path class="st2" d="M1979.78,1038.14l.15-1.13c.37.47.39.64.37,1.26l-.52-.13Z"/>
  <path class="st33" d="M1819.32,1020.48c3.05,1.79,6.03,3.54,9.17,5.19-.78.34-2.06.88-2.74,1.36-.52.38-.99.92-1.52,1.02-.76-.27-4.24-2.4-5.15-2.94-3.06-1.79-6.1-3.62-9.12-5.49-1.77-1.08-4.03-2.39-5.66-3.62.13-.62.66-3.81,1.18-3.93,4.48,2.94,9.22,5.69,13.85,8.4Z"/>
  <path class="st2" d="M1794.46,1039.22l9.08,6.22c-.11.49-.4,2.08-.65,2.4l-.18-.04c-3.06-1.97-23.79-14.29-24.38-15.63,0-.51-.07-.28.21-.73.3-.12.28-.1.6-.05,5.73,1.13,10.57,4.59,15.32,7.82Z"/>
  <path class="st29" d="M1952.5,1074.08c-3.3,2.03-6.64,4.07-9.75,6.39-2.45,1.83-4.73,3.85-7.02,5.87-1.54,1.36-3.88,3.01-4.81,4.85-.44.86-.56,1.81-.25,2.73.48,1.43,1.87,2.3,3.18,2.89,3.97,1.8,7.37,1.11,11.3-.41,8.8-3.39,26.64-12.2,32.92-19.01,1.05-1.14,1.87-2.46,2.49-3.88.98-2.21,1.91-5.56.98-7.92-.41-1.04-1.21-1.77-2.23-2.2-.7-.3-1.4-.44-2.15-.5-1.78,4.63-9.75,8.74-13.66,11.92-.18,1.92-.41,2.86-1.01,4.71-1.69-1.22-2.89-2.16-4.88-2.78-1.34.47-3.1,1.38-4.46,1.95-3.6,1.5-8.75,3.81-12.54,4.63l-.21-.2-.29.24v-.05c.33-.33,1.22-.84,1.68-.97,5.46-1.54,10.38-3.99,15.61-6.08,1.84.53,3.05,1.46,4.58,2.55-.16-2.88-.03-5.09.08-7.97.54,1.17.8,2.01,1.15,3.24,2.41-2.25,7.07-4.66,9.73-7.11,1.94-1.78,2.29-2.44,3.84-4.24l.16-.18c4.24.23,5.67,2.62,5.23,6.6-.51,4.58-3.03,8.27-6.66,11.04-8.09,6.18-17.3,11.16-26.67,15.11-2.9,1.22-5.88,2.46-8.99,2.99-4.11.63-12.47-2.61-8.81-7.91.87-1.26,3.28-3.1,4.51-4.25,9.04-8.5,20.33-14.49,31.13-20.42,1.39-.76,7.51-3.23,8.78-3.07-8.27,2.57-15.64,6.92-22.98,11.44Z"/>
  <path class="st0" d="M1838.79,1026.37l.77.72.26.26c-.61.34-1.69.41-2.42.55-2.69.52-6.24.74-8.68,1.99-.61,1.16-.28,2.22-.97,3.79,3.46.99,8.35.48,11.95.51,2.94.02,8.27-1.14,10.81.77l-.02.14c-8-2.15-17.84,1.41-25.06-1.87-7.15-3.25,5.05-8.59,8.17-8.59,2.97,0,2.61-.35,5.39,1.58l-.2.15Z"/>
  <path class="st2" d="M1827.06,1027.6c.69.58,2.62.12,3.59.27-1.14.37-3.18-.28-3.95.42.21.51,1.26.7,2.02,1.6-.61,1.16-.28,2.22-.97,3.79-2.7-1-5.76-2.2-2.56-5.11.78-.71,1.27-.97,2.26-1.36l-.38.4Z"/>
  <path class="st29" d="M1838.79,1026.37c-1.71-1.16-3-1.75-5.14-1.33-1.48.29-4.94,1.42-6.2,2.16-.99.39-1.48.66-2.26,1.36-3.19,2.91-.14,4.12,2.56,5.11,3.46.99,8.35.48,11.95.51,2.94.02,8.27-1.14,10.81.77l-.02.14c-8-2.15-17.84,1.41-25.06-1.87-7.15-3.25,5.05-8.59,8.17-8.59,2.97,0,2.61-.35,5.39,1.58l-.2.15Z"/>
  <path class="st34" d="M1839.82,1027.35c-.61.34-1.69.41-2.42.55-2.69.52-6.24.74-8.68,1.99-.76-.9-1.81-1.09-2.02-1.6.77-.7,2.81-.05,3.95-.42,3.3-.04,5.86-1.38,8.91-.78l.26.26Z"/>
  <path class="st2" d="M1934.87,1078.83c1.06.73,4.07,2.21,4.67,2.83l-.05.18c-.35.09-.76-.02-1.09-.17-4.47-1.94-9.86-5.65-14.61-6.64-4.94-1.03-11.42-1.19-16.53-1.63-.34-.57-.76-1.14-1.14-1.68,2.8-.26,16.93.1,17.87-.42.59.42,1.21.91,1.86,1.18,2.41,2.04,6.35,4.51,9.02,6.35Z"/>
  <path class="st6" d="M1804.68,978.25c-.9-.13-.89-.66-1.41-.37-.88-.31-2.42-1.09-3.31-1.51-1.55-.72-3.11-1.4-4.7-2.03-9.17-3.7-15.46-5.24-25.34-6.21.82-1.25,1.67-2.02,2.73-3.05,2.41.44,5.46,1.44,7.79,2.2,6.33,2.01,12.51,4.46,18.5,7.33,1.45.69,4.33,2.06,5.62,2.97.21.5.23.28.11.69Z"/>
  <path class="st2" d="M1917.38,1088.57c1.44.33,5.05.8,6.22,1.29-3.58.29-7.18.41-10.77.35-7.77-.32-11.12-.65-17.06-5.68,2.47.25,3.61,1.53,6.83,1.59-1.43-.93-2.37-1.19-4.02-1.73,1.15-.12,1.88-.23,3.04-.09,5.13,2.3,10.32,3.01,15.76,4.28Z"/>
  <path class="st29" d="M1804.99,1011.21c-2.98-1.72-7.52-4.73-10.4-6.7-7.88-5.41-18.03-12.17-24.62-19l-.07-.29c.21-.25.32-.36.56-.58.42-.04.49-.09.9.29,1.06.95,2.11,1.94,3.17,2.89,1.61,1.44,3.27,2.82,4.98,4.14,7.92,6.2,17.37,12.44,25.91,17.75l-.44,1.51Z"/>
  <path class="st33" d="M1810.57,1025.15c6.79,4.05,13.4,8.83,20.29,12.61,2.26,1.24,19.51,12.28,19.8,13.17l-.1.19-.27-.07-32.5-19.9c-4.74-2.93-10.01-6.11-14.64-9.2.24-.59.19-.81.62-1.06,2.21,1.47,4.55,2.91,6.81,4.25Z"/>
  <path class="st2" d="M1872.93,1062.57c-.31-.18-1.19-.72-1.52-.82-1.53.77-2.69-1.39-3.5-2.45l-.14-.24c1.12-.73,2.96-.94,3.97-1.51.92-.51.97-3.5,2.72-2.7,3.59,1.64,3.54,4.55,3.44,7.76-.18.36-.23.39-.49.7.04.58.75,1.19,1.21,1.72-2.83-.3-3.29-1.06-5.69-2.46Z"/>
  <path class="st2" d="M1867.91,1059.3c.32-.29.13-.2.61-.2.69.38,2.57,1.95,2.89,2.65-1.53.77-2.69-1.39-3.5-2.45Z"/>
  <path class="st20" d="M1974.1,1090.61c-.22.36-2.3,1.75-2.8,2.13-3.53,2.7-7.3,5.08-11.26,7.1-3.02,1.55-6.63,3.01-9.77,4.29-7.95,3.24-16.13,6.25-24.62,7.71-1.19.2-3.26.56-4.43.57l-.09-.15c.77-.84,5.45-1.53,6.68-1.73,8.89-1.49,17.41-4.84,25.59-8.55,6.27-2.84,12.01-6.72,17.62-10.69.85-.6,4.02-3.52,4.63-3.7.42.19.46.23.81.51-.42.71-1.87,1.49-2.36,2.5Z"/>
  <path class="st19" d="M1880.61,1057.33c-1.11-.49-2.81-1.64-3.96-2.33-4.64-2.76-9.17-5.88-13.89-8.48-.17-.09-.45.14-.62.23-.95-.12-8.24-4.29-9.13-5.07-.14-.61-.25-1.24-.36-1.86,2.3.86,4.62,1.67,6.95,2.44,1.38.46,2.88.91,4.23,1.43,2.6,1,3.86,4.39,5.95,6.14,3.43,2.86,7.57,4.69,11.22,7.2l-.4.29Z"/>
  <path class="st16" d="M1901.18,971.97c.19-.09.37-.23.55-.34,5.61,4.09,26.58,23.14,27.84,29.2.04.2.02.16-.03.39-.55-.72-1.02-1.8-1.64-2.62-1.58-2.11-3.77-5.01-5.63-6.84l-.11.29c.15.29.19.34.28.65.17.09-6.44-6.42-6.64-6.65-5.11-5.06-10.13-9.76-15.83-14.17-1.38-1.06-3.03-2.54-4.58-3.26-.02-.18-.1-.25-.21-.43l.09-.12.02-.21c2.69,1.49,3.54,2.49,5.88,4.1Z"/>
  <path class="st2" d="M1901.18,971.97c6.59,5.64,13.28,11.24,19.14,17.71.55.61,1.49,1.47,1.95,2.08l-.11.29c.15.29.19.34.28.65.17.09-6.44-6.42-6.64-6.65-5.11-5.06-10.13-9.76-15.83-14.17-1.38-1.06-3.03-2.54-4.58-3.26-.02-.18-.1-.25-.21-.43l.09-.12.02-.21c2.69,1.49,3.54,2.49,5.88,4.1Z"/>
  <path class="st30" d="M1899.98,971.89c-1.38-1.06-3.03-2.54-4.58-3.26-.02-.18-.1-.25-.21-.43l.09-.12c2.06.77,20.22,16.15,20.52,17.98-5.11-5.06-10.13-9.76-15.83-14.17Z"/>
  <path class="st34" d="M1959.85,1017.2c4.82,3.39,9.6,6.61,13.29,11.3.36.46,1.57,1.87,1.63,2.4-.67-.51-1.16-1.13-1.77-1.71-2.53-2.45-5.6-4.35-8.48-6.35-1.41-.98-2.76-2.12-4.15-3.05.36.52,1.46,1.99,1.56,2.49-1.37.8-3.44-1.86-4.01-2.94-1.78-3.38-2.6-4.9-5.75-7.19l.27-.52c2.59,1.62,4.93,3.84,7.42,5.58Z"/>
  <path class="st29" d="M1825.6,1021.68c.7.39,5.07,2.72,5.27,3.06-.25.25-.28.22-.62.33-.28.12-1.02.47-1.27.33-7.65-4.34-15.28-8.75-22.74-13.43-.41-.26-.72-.43-.92-.86.05-.47.15-.81.47-1.19,6.5,4.09,13.11,8.01,19.82,11.77Z"/>
  <path class="st33" d="M1833.79,1065.19v.12s-.56-.12-.56-.12c-1.6-1.11-3.56-2.05-5.26-3.01-8.16-4.59-16.54-9.06-24.52-13.97.14-.63.34-1.89.71-2.36,9.61,6.82,19.73,12.96,29.63,19.33Z"/>
  <path class="st29" d="M1823.21,1064.16c8.84,4.82,17.71,9.57,26.52,14.44.53.29,1.59.85,1.9,1.34l-.12.13c-17.36-9.21-34.59-18.66-51.69-28.35-2.5-1.4-15.87-8.71-17.12-10.13l-.05-.26.06-.06c13.41,7.79,26.91,15.42,40.5,22.88Z"/>
  <path class="st15" d="M1897.18,1048.96c2.54,1.22,7.13,4.92,9.35,6.72,2.02,1.64,4.84,3.88,6.76,5.61l.03.14-.21-.07c-5.96-3.82-11.8-7.5-17.9-11.11-1.8-1.07-8-4-9.19-5l.02-.16.22-.02c3.23,1.05,7.93,2.47,10.92,3.9Z"/>
  <path class="st33" d="M1846.53,1039.64c2.59,1.53,3.59,1.84,4.86,4.77-.18.65-.09.75-.5,1.11-.58-.02-1.41-.79-1.95-1.2-3.8-2.5-9.09-5.8-12.57-8.49,1.2-.02,2.5-.07,3.69-.03,1.42,1.36,4.67,2.78,6.47,3.84Z"/>
  <path class="st28" d="M1733.86,971.72l.03.34c.17,1.65,1.12,4.52,1.13,5.18.07.24.37.9.36,1.08,1.23,1.55,3.09,4.69,2.91,6.71-1.78.43-4.52-2.44-5.39-3.82-.27-.16-.16-.05-.3-.35l.23-.16c-.86-1.45-.31-6.01.05-7.61l.05-.71c.06-.32.19-.76.28-1.08.3.27.28.26.65.42Z"/>
  <path class="st31" d="M1738.3,985.03c-1.78.43-4.52-2.44-5.39-3.82-.27-.16-.16-.05-.3-.35l.23-.16c.77.88,1.53,1.64,2.47,2.33-.06-1.03-.29-3.4-.05-4.31l.12-.4c1.23,1.55,3.09,4.69,2.91,6.71Z"/>
  <path class="st32" d="M1738.3,985.03l-.14-.14c-.05-1.86-1.65-4.72-2.9-6.16l.12-.4c1.23,1.55,3.09,4.69,2.91,6.71Z"/>
  <path class="st30" d="M1738.3,985.03c-1.78.43-4.52-2.44-5.39-3.82l.1.08c1.64,1.34,2.88,3.35,5.15,3.6l.14.14Z"/>
  <path class="st30" d="M1733.86,971.72l.03.34c.17,1.65,1.12,4.52,1.13,5.18-.49-1.08-1.38-3.4-2.13-4.15l.05-.71c.06-.32.19-.76.28-1.08.3.27.28.26.65.42Z"/>
  <path class="st27" d="M1733.86,971.72l.03.34-.08.74-.23.16c-.29-.14-.48-.27-.65-.58.06-.32.19-.76.28-1.08.3.27.28.26.65.42Z"/>
  <path class="st29" d="M1912.77,1112.77c-1.71.41-9.5.23-10.47-1.65l.11-.24c1.77-.55,6.01-.21,8-.3,2.75-.13,7.4-.37,9.94.64l.17.2c-.23.24-.24.21-.57.26-2.25.44-4.9.87-7.19,1.09Z"/>
  <path class="st33" d="M1908.73,1111.14c1.12.3,2.08.62,3.17,1l.07.14-.37.37c.31.19.77.12,1.17.12-1.71.41-9.5.23-10.47-1.65l.11-.24c1.15.25,4.66.13,6.32.27Z"/>
  <path class="st22" d="M1912.77,1112.77c-.4,0-.85.08-1.17-.12l.37-.37-.07-.14c-1.1-.38-2.05-.71-3.17-1,1.84-.02,3.77.13,5.61.23,1.65.09,4.02.03,5.62.31-2.25.44-4.9.87-7.19,1.09Z"/>
  <path class="st33" d="M1814.63,1012.64c1.04.4,2.18,1.76,3.22,2.24,5.43,2.9,10.94,6.21,16.36,9.07l-1.26.26c-.25.05-.76.15-.97.04-1.51-.8-4.49-2.3-5.82-3.2-1.91-1.3-15.18-8.42-15.7-9.29.39-.15.45-.12.86-.09,1.12.45,2.27.58,3.31.98Z"/>
  <path class="st33" d="M1779.82,1006.32c6.19,3.67,12.28,7.51,18.4,11.29,1.44.89,3.18,2,4.69,2.83.05.11.1.23.15.34-.09.53-.08.5-.36.96-7.71-5.01-15.45-9.97-23.23-14.87-1.03-.64-7.68-4.42-8.09-4.89l.13-.06c2.83,1.41,5.59,2.78,8.31,4.4Z"/>
  <path class="st30" d="M1901.18,971.97c-2.33-1.61-3.18-2.61-5.88-4.1-.7-.62-4.39-3.09-5.33-3.69-10.41-6.64-23.97-14.11-35.56-18.24v-.19c4.65,1.55,9.64,3.74,14.1,5.84,8.99,4.13,17.61,9.03,25.75,14.65,2.57,1.76,5.06,3.4,7.47,5.39-.18.12-.36.26-.55.34Z"/>
  <path class="st33" d="M1876.73,1048.13c.45.53-.38.99.83,2.55v.29s-.24.1-.24.1c-1.34-.51-2.86-1.19-4.19-1.67-3.36-1.21-4.41-2-6.47-4.83l.03-.23.27-.08c2.22.67,8.31,2.15,9.77,3.87Z"/>
  <path class="st2" d="M1986.88,1050.14c.24,1.47.93,5.37.35,6.77-.06.91-.1,1.61-.24,2.52-.56.69-.98,1.11-1.2,1.98-.23.38-.46.76-.68,1.15-.03,1.2-1.79,2.5-2.54,3.28.09-3.11,2.04-6.61,2.94-9.64.38-1.28-.09-1.65.32-2.53.07-.61.13-1.21.18-1.82.26-.66.11-2.37.47-3.13l.41,1.42Z"/>
  <path class="st1" d="M1986.99,1059.43c-.56.69-.98,1.11-1.2,1.98-.23.38-.46.76-.68,1.15l-.15-.04c-.01-.44,1.96-5.3,2.27-5.6-.06.91-.1,1.61-.24,2.52Z"/>
  <path class="st30" d="M1986.88,1050.14c-.12,1.33-.34,2.15-.86,3.38l-.19.14c.07-.61.13-1.21.18-1.82.26-.66.11-2.37.47-3.13l.41,1.42Z"/>
  <path class="st17" d="M1750.52,1030.65l-.13-.52c.12-.47.38-.5.88-.89.6.42,1.88,2.38,2.38,3.11l-.34,1.29-.38,1.25c-.24.56-.31.92-.29,1.54l-.03.6-.19.26c-1.41-1.42-3.96-4.64-4.38-6.6.08-.28.12-.51.17-.79.45-.41.55-.57,1.11-.77.52.19.78.88,1.06,1.48l.14.05Z"/>
  <path class="st33" d="M1753.31,1033.63c-1.08-.56-1.89-2.04-2.79-2.99l-.13-.52c.12-.47.38-.5.88-.89.6.42,1.88,2.38,2.38,3.11l-.34,1.29Z"/>
  <path class="st2" d="M1753.31,1033.63l-.38,1.25c-.77-.91-2.63-2.91-2.94-3.95l.39-.33.14.05c.9.94,1.71,2.42,2.79,2.99Z"/>
  <path class="st18" d="M1872.31,1040.94c-.31.31-1.08.12-1.42.46.76.41,1.44.97,2.21,1.31,4.76,2.15,9.53,4.04,14.28,6.27l-.71.26c-5.6-2.36-11.45-4.21-16.97-6.77-.92-.42-1.96-.88-2.8-1.42.18-.38-.23-.43.45-.82.99-.05,1.92-.11,2.91-.21.72.35,1.32.62,2.06.92Z"/>
  <path class="st2" d="M1877.06,1034.45c-.47-.13-.6-.14-.99.25-.93.63-6.78,1.78-7.98,1.61-.72-.16-2.82,1.22-3.39.37l.08-.34c.43-.31,2.08-.69,2.66-.96,2.09-1,9.93-3.32,11.89-2.07-.64.33-1.63.87-2.27,1.14Z"/>
  <path class="st34" d="M1868.09,1036.31c.78-.29,7.08-1.57,7.98-1.61-.93.63-6.78,1.78-7.98,1.61Z"/>
  <path class="st21" d="M1855.96,1029.97c-.28.2-.32.26-.65.37l-.39-.28c-1.74-2.35-3.26-4.13-5.18-6.27-1.17-1.3-2.27-5.05-3.39-6.77-2.33-3.57-4.84-6.92-7.41-10.31l.27-.13c2.62,3.31,5.13,6.72,7.52,10.2,1.37,2.03,2.61,4.16,4.03,6.17,1.77,2.51,3.74,4.79,5.71,7.15l-.5-.13Z"/>
  <path class="st1" d="M1975.34,1028.16c.82.99,2.63,3.08,2.33,4.43l-.19.07c-1.12-1.18-2.18-2.76-3.29-4.04-2.9-3.33-5.76-6.39-9.16-9.21-.8-.63-2.22-1.67-2.74-2.5,4.96,2.98,9.37,6.79,13.04,11.26Z"/>
  <path class="st1" d="M1835.34,1001.8c1.07,1.26,2.94,3.44,3.86,4.78l-.27.13c-7.71-9.88-15.31-17.31-26.21-23.77-1.89-1.12-3.83-2.18-5.78-3.21-1.19-.63-2.52-1.19-3.68-1.86.52-.28.51.25,1.41.37.12-.41.1-.19-.11-.69,11.74,6,22.19,14.23,30.77,24.24Z"/>
  <path class="st30" d="M1854.81,1037.1c10.67,3.63,30.59-3.86,40.46-8.25,2.84-1.26,7.4-3.65,10.13-4.55-1.65,1.22-6.92,3.62-9.06,4.5-11.34,4.68-26.09,10.85-38.6,9.33-.74-.09-2.45-.5-3.1-.81l.17-.23Z"/>
  <path class="st33" d="M1776.09,1027.97c1.74,3.32,2.6,6.83,4.91,9.87.13.17,1.28,1.9,1.29,1.96l-.1.15c-.47-.34-1.04-1.33-1.46-1.88-1.08-1.72-2.46-4.11-3.17-5.96-.71-.43-2.09-1.21-2.64-1.73l.08-.09c.81.02,1.38.25,2.15.5l-.08-.19c-1.2-2.9-3.18-5.85-4.68-8.63-4.86-8.98-10.53-18.22-11.96-28.51-.14-.98-.35-3.35.33-4.08-.71,12.85,9.6,27.64,15.32,38.6Z"/>
  <path class="st30" d="M1923.98,1071.3c-3.72-2.89-7.37-5.49-11.39-7.96-8.44-5.19-16.8-10.24-25.93-14.11l.71-.26c14.08,6.51,26.38,13.75,38.47,23.51-.66-.27-1.28-.76-1.86-1.18Z"/>
  <path class="st14" d="M1956.41,1019.15c.32.64.72,1.21.92,1.92l-.11.2c-.89-.87-10.15-11.27-10.15-11.27l.06-.02c3.74,1.09,7.63,5.86,9.28,9.18Z"/>
  <path class="st23" d="M1986.47,1048.72c-.35.76-.21,2.47-.47,3.13l-.09.15c-.63,1.07-3.14,5.75-4.24,6.07-.22-.72.43-2.24.76-2.92.73-1.9,1.75-3.66,2.51-5.67.21-1.49.26-2.38.29-3.9.54,1.04.95,2.01,1.24,3.15Z"/>
  <path class="st33" d="M1982.43,1055.15c.73-1.9,1.75-3.66,2.51-5.67.1,1.29-1.57,4.84-2.51,5.67Z"/>
  <path class="st1" d="M1976.45,1088.11c.06-.26.05-.24.16-.5h.23c1.25-.76,3.1-2.38,3.57-3.77l-.1-.09-.62.3c.61-1.46,1.99-2.83,2.56-4.63.89-.58,1.34-2.75,1.51-3.73l.14-.23c-.41-.22-.26-.06-.43-.51.35-1.48,1.77-4.73,2.44-6.15-.7,6.25-2.88,13.72-7.62,18.2-1.24,1.17-2.85,2.57-4.19,3.61.49-1.02,1.94-1.79,2.36-2.5Z"/>
  <path class="st1" d="M1810.31,987.14c-.18,2.03-.42,3.95-.55,5.99-.35,4.65-.44,9.32-.28,13.98.03.75.1,3.24.18,4.11-.06.08-.12.15-.18.23-.76-.63-.54-.55-.65-1.63-.29-2.75.08-22.03,1.07-23.25.2.21.43.35.41.56Z"/>
  <path class="st30" d="M1948.14,1011.9c8.76,8.62,17.17,20.22,22.2,31.45.43.97,1.68,3.9,1.67,4.86-1.05-2.43-1.99-4.95-3.19-7.31-5.39-10.59-12.67-20.41-20.97-28.88l.29-.13Z"/>
  <path class="st29" d="M1774.8,1001.86l-.15.21c-1.96-1.15-8.73-4.42-8.36-6.94l.12-.13c2.05,1.3,8.14,4.35,8.39,6.86Z"/>
  <path class="st29" d="M1815.86,1027.31c-1.95-1.22-8.71-4.71-8.66-7.18l.19-.18c1.06.68,10.05,5.83,8.47,7.36Z"/>
  <path class="st33" d="M1862.97,1036.85c-.92.11-1.83.24-2.75.39-1.82-2.34-3.52-4.81-5.3-7.18l.39.28c.32-.11.36-.17.65-.37l.5.13c2.02,2.39,4.2,4.64,6.5,6.75Z"/>
  <path class="st33" d="M1865.37,1056.68l-.08.09-.08-.05c-2.5-2.36-6.85-4.75-9.69-6.82-.91-.67-2.61-1.62-3.29-2.47,0-.5-.06-.27.26-.71l.25-.07c2.69,1.92,11.61,7.63,12.63,10.02Z"/>
  <path class="st1" d="M1874.51,970.74c-.91.7-2.24,1.3-3.26,1.87-12.43,6.98-25.5,12.67-38.62,18.19-1.62.68-3.43,1.55-5.1,2.02l-.05-.09c.96-.6,4.89-2.08,6.24-2.66,6.04-2.58,11.94-5.05,17.91-7.81,5-2.31,9.93-4.75,14.8-7.32,2.52-1.34,5.62-3.3,8.16-4.42l-.07.22Z"/>
  <path class="st2" d="M1901.29,1058.12l-.21.17c-1.99-.35-4.26-.74-6.21-1.26-.68-1.23-2.88-3.08-2.93-3.41l.15-.04c1.67.67,8.63,3.31,9.2,4.54Z"/>
  <path class="st2" d="M1937.84,1082.62c-1.71.4-2.7.55-4.44.67-1.38.1-2.71.2-4.09.23,1.03-.95,2.94-2.07,4.19-3.05,1.46.7,2.9,1.42,4.34,2.16Z"/>
  <path class="st13" d="M1757.92,1038.95l.14-.52c.2.49,0,.68.38,1.09.18-.44.2-1.1.24-1.59.05.73-.01,1.72.35,2.25-.46.19-.94.06-1.11.35l.27.32c-1.97-.63-4.24-2.22-5.78-3.58l.19-.26c.71-.25.83-.34,1.55-.31,1.25.43,2.97,1.15,3.76,2.24Z"/>
  <path class="st30" d="M1924.48,1012.57c-2.43,2.27-15.43,10.63-17.99,11.19.66-.78,6.58-3.92,7.87-4.76,4.35-2.83,8.76-5.17,12.3-9.1.54-.6,2.67-3.15,3.18-3.42-1.44,2.22-3.5,4.35-5.36,6.09Z"/>
  <path class="st2" d="M1858.76,1058.51c-1.1-1.27-2.14-2.84-3.05-4.25-.47-.62-.78-1.02-1.17-1.7.71.49,6.54,4.22,6.68,4.44-.12.17-.13.21-.28.35-.84.62-1.22.76-2.17,1.17Z"/>
  <path class="st29" d="M1860.66,1057.21c-1.59-.7-2.45-1.27-3.88-2.23-.4-.38-.58-.45-1.07-.72-.47-.62-.78-1.02-1.17-1.7.71.49,6.54,4.22,6.68,4.44-.12.17-.13.21-.28.35l-.27-.13Z"/>
  <path class="st30" d="M1858.87,1058.1c.74-.29,1.15-.42,1.8-.9l.27.13c-.84.62-1.22.76-2.17,1.17-1.1-1.27-2.14-2.84-3.05-4.25.5.27.67.34,1.07.72.11.76,1.57,2.48,2.08,3.12Z"/>
  <path class="st25" d="M1962.3,1016.9c.51.84,1.94,1.88,2.74,2.5l-.16.13c-.09.3-.03.16-.17.42-1.02-.58-3.08-2.22-4.12-2.99-1.79-1.32-4.26-2.96-5.81-4.48,1.7.82,6.2,3.26,7.53,4.42Z"/>
  <path class="st1" d="M1832.76,998.82c1.03-.82,11.19-4.46,13.17-5.28,4.3-1.77,8.56-3.63,12.78-5.58l4.89-2.32c.35-.16,1.77-.87,2.03-.96-2.24,1.85-29.78,13.76-32.87,14.14Z"/>
  <path class="st1" d="M1894.09,1065.05c1.42.9,4.73,2.91,5.88,3.97-2.27-1.27-4.53-2.78-6.76-4.13l-12.59-7.55.4-.29c4.4,2.61,8.76,5.28,13.08,8.01Z"/>
  <path class="st1" d="M1933.35,1000.48c-.46.86-.67,1.32-1.31,2.06-.24.2-.42.43-.67.45-.07-.79-.32-1.93-.64-2.66-.29-.65-1.61-1.84-1.6-2.59l.28-.07c1.29.79,2.9,1.73,3.94,2.8Z"/>
  <path class="st1" d="M1916.93,1015.9c-2.08,1.02-4.48,1.52-6.61,2.42-3.17,1.33-6.32,2.64-9.56,3.77-.1.04-.21.04-.32.04.68-1,13.24-5.35,15.42-6.12.71-.25,5.12-2.78,5.4-2.83-.49.96-3.34,2.23-4.33,2.72Z"/>
  <path class="st30" d="M1897.94,1024.4c-2.22.85-10.1,5.56-11.81,5.61.54-.51,6.2-3.36,7.11-3.74,2.54-1.06,8.65-4.78,11.05-5.05-.63.46-5.55,2.87-6.35,3.18Z"/>
  <path class="st30" d="M1761.07,988.31c-.04.09-.1.24-.16.3-1.33-1.01-2.7-1.86-4.08-2.79-6.01-4.06-12.4-7.73-18.38-11.82v-.11c2.19,1.27,22.18,13.72,22.62,14.43Z"/>
  <path class="st24" d="M1986.38,1063.2c-.37,1.71-2.56,8.45-3.72,9.38.84-2.18,3.42-9.16,3.12-11.17.22-.87.64-1.29,1.2-1.98-.13,1.22-.36,2.61-.61,3.77Z"/>
  <path class="st33" d="M1982.25,1079.41c-.76.53-1.76,3.33-3.18,4.02l-.07-.25c.25-.93,3.81-6.81,4.75-7.5-.16.98-.62,3.15-1.51,3.73Z"/>
  <path class="st2" d="M1977.22,1034.49c-.01.72-.08,1.41-.18,2.13-.37,2.54-.6,5.01-.72,7.57l-.19.08-.06.22c-.42-.65.32-9.97.25-11.66.36.57.6,1.06.9,1.66Z"/>
  <path class="st1" d="M1772.9,996.26l.1.18c.12.21.09.13.13.28-2.25-1.34-4.79-3.27-7.07-4.67-.85-.52-4.13-2.66-4.72-3.22l.12-.06c1.67.46,2.97,1.75,4.43,2.65,2.38,1.47,4.96,3.3,7.44,4.54l-.42.3Z"/>
  <path class="st29" d="M1929.39,1102.64l-.11.17c-.51-.26-.59-.94-1.07-.89-3.62.37-7.44.92-11.08.93-.57,0-1.13.07-1.66-.12-.06.02,12.74-1.12,13.11-1.1.36.34.68.55.82,1.01Z"/>
  <path class="st1" d="M1976.49,1061.01c-.24-1.25,0-3.78-.03-5.16-.04-2.29-.08-4.65-.19-6.95-.06-1.22-.05-3.29-.21-4.43l.06-.22.19-.08c-.06,2.81.94,15.1.17,16.83Z"/>
  <path class="st29" d="M1946.76,1010.93c-3.15-3.05-6.59-4.99-9.46-7.55,1.3.21,8.48,6.01,9.74,7.42l-.28.13Z"/>
  <path class="st2" d="M1844.11,1022.63l-.06.17-.25-.08c-.54.88.54,6.51-.09,7.45-1-.12-1.83-1.85-2.53-2.65l-.7-.76.05-.11c1,.69,1.61,2.04,2.16,2.46,1.82-1.07.32-4.91.93-6.4.29-.69.07.17.2-.41-.19-.32-.36-.55-.42-.91l.09-.05c.2.4.46.88.62,1.28Z"/>
  <path class="st33" d="M1740.43,1000.01c.16.2.28.35.2.57-1.45-1.57-8.2-10.12-8.1-11.97,1.57,3.45,5.53,8.36,7.9,11.4Z"/>
  <path class="st33" d="M1852,1039.59c.05.42.18,1.01.02,1.37-.32.03-.16.06-.45-.09-.7-.39-2.36-1.18-2.62-1.82.36-.16.17-.11.6-.06.77.18,1.7.38,2.45.6Z"/>
  <path class="st1" d="M1925.15,985.24c-.16-.29-.3-.54-.44-.84l-.77-1.12c1.48-.74.91-3.1,3.35-3.19-2.16,1.73-2.38,2.42-2.14,5.15Z"/>
  <path class="st1" d="M1877.05,1034.69v-.24c.65-.27,1.64-.81,2.28-1.14,2.1-1.06,4.3-2.35,6.57-2.92-.8.52-8.55,4.31-8.85,4.29Z"/>
  <path class="st1" d="M1921,1012.16c.73-1.19,2.85-2.69,3.93-3.92.58-.66,2.62-3.08,3.21-3.34-1.37,1.66-5.1,6.31-7.14,7.26Z"/>
  <path class="st34" d="M1915.23,1106.03l.14-.18c2.91-.16,5.81-.34,8.71-.66.6-.07,1.24-.17,1.84-.12-1.22.48-9.48,1.19-10.69.96Z"/>
  <path class="st13" d="M1910.35,1109.48c-.59.08-.73.05-1.2.39-2.29.29-4.23-2.88-4.94-4.73,1.89,2.82,2.47,4.27,6.13,4.33Z"/>
  <path class="st1" d="M1952.16,1012.14c-1.58-1.13-4.55-2.96-5.8-4,.9.34,4.95,2.81,6.08,3.48l-.27.52Z"/>
  <path class="st30" d="M1867.34,1040.22c-.68.39-.27.44-.45.82-1.2-.61-2.69-1.38-3.72-2.22,1.52.36,2.68.96,4.18,1.4Z"/>
  <path class="st13" d="M1894.98,1022.66c-.52.24-2.76,1.1-3.22,1.11,1.54-.92,6.09-2.81,7.77-2.52-1.31.47-3.12.74-4.55,1.41Z"/>
  <path class="st33" d="M1888.23,1026.22c-.93.82-1.94,2.44-2.77,2.72.49-1.5,2.2-3.2,3.73-3.56l-.96.84Z"/>
  <path class="st34" d="M1978.74,1081.19c.25-.76,2.91-4.54,3.51-5.1-.43,1.06-2.5,4.7-3.51,5.1Z"/>
  <path class="st1" d="M1753.25,968.6l.48-.18c1.31-.02,5.84-.2,6.79.18-1.79.2-5.04.07-7.03.15-.09-.03-.02,0-.24-.16Z"/>
  <path class="st30" d="M1910.35,1109.48c.94,0,1.85-.05,2.76.18l.08.1c-1.27.39-2.73.28-4.04.11.46-.34.6-.31,1.2-.39Z"/>
  <path class="st1" d="M1762.33,988.09c1.06-.61,4.88-2.24,6.05-2.3-.9.58-5.03,2.21-6.05,2.3Z"/>
  <path class="st34" d="M1878.58,978.01c-1.37.86-3.06,1.77-4.49,2.53l-.21-.21c1.49-.71,3.39-1.88,4.85-2.73l-.15.41Z"/>
  <path class="st1" d="M1828.57,939.3c-.34.16-.35.14-.74.19l-1.9.4-.15-.43.04-.23.21-.23c.58.04,1.17.09,1.75.15.4.02.55-.05.79.15Z"/>
  <path class="st34" d="M1827.78,939.15c.4.02.55-.05.79.15-.34.16-.35.14-.74.19.04-.17.03-.06-.05-.34Z"/>
  <path class="st33" d="M1903.9,1104.13c-.05.08-.1.16-.15.24-.32-.86-1.27-3.33-1.05-4.17l.12-.12c.34.99.77,2.92,1.08,4.05Z"/>
  <path class="st34" d="M1921.46,1012.95c.44-.76,2.26-2.7,3.03-2.91-.58.63-2.37,2.73-3.03,2.91Z"/>
  <path class="st1" d="M1839.56,1027.09l-.77-.72.2-.15c.68.63,2.31,2.05,2.52,2.91-.03-.15-.05-.33-.11-.46l-.43.17c-.07-.1-1.26-1.7-1.15-1.5l-.26-.26Z"/>
  <path class="st3" d="M1733.86,971.72c-.37-.15-.35-.15-.65-.42.44-1.07.95-1.65,1.69-2.54-.53,1.1-.88,1.73-1.04,2.96Z"/>
  <path class="st3" d="M1845.89,1032.13v.12c-.78-.13-2.29-.79-2.42-1.68.47.28,2.17,1.23,2.42,1.56Z"/>
  <path class="st33" d="M1854.41,945.94c-.99-.34-2.56-.84-3.45-1.36,1.07.28,2.48.65,3.44,1.16v.19Z"/>
  <path class="st2" d="M1764.73,973.61l-.18.04c-.06-.87-.08-1.24.4-1.95.26-.15.24-.16.52-.24-.16.55-.46,1.74-.74,2.15Z"/>
  <path class="st3" d="M1933.57,1106.59c-.51.16-1.43.07-2,.05-.42-.09-.42,0-.66-.23.56-.21,1.06-.17,1.65-.13.4.07.7.07,1.01.31Z"/>
  <path class="st29" d="M1926.88,1008.08c.57-.83,1.61-2.55,2.43-2.95-.43.73-1.72,2.57-2.43,2.95Z"/>
  <path class="st33" d="M1898.19,1065.45c-.13.06-.09.06-.15.05-.73-.5-1.68-1.1-2.3-1.69l-.02-.17.14-.04c.66.47,1.81,1.26,2.32,1.85Z"/>
  <path class="st2" d="M1901.62,1068.01l-.12.1h-.05c-.57-.41-1.44-.99-1.93-1.46l.05-.15h.08c.43.24,1.77,1.07,1.97,1.51Z"/>
  <path class="st2" d="M1851.46,1048.37c-.02-.79.05-2.58.5-3.21.03.69-.17,2.63-.5,3.21Z"/>
  <path class="st1" d="M1961.68,1075.34l-.09.05c-.19-.43-.63-3.03-.47-3.52.18.55.59,2.91.56,3.47Z"/>
  <path class="st33" d="M1874.09,980.54c-.4.24-1.13.76-1.59.62l.11.02.04-.19c.3-.22.88-.49,1.23-.67l.21.21Z"/>
  <path class="st2" d="M1887.71,1058.28l-.12.08c-.49-.28-.96-.5-1.34-.9.09-.2.02-.14.13-.22.43.26,1.2.64,1.33,1.05Z"/>
  <path class="st13" d="M1921.51,987.97l-.11.08c-.3-.68-.39-1.9-.33-2.64.26.8.33,1.71.44,2.56Z"/>
  <path class="st34" d="M1922.71,1015.71c.17-.59.27-1.3.78-1.63-.1.75-.03,1.27-.78,1.63Z"/>
  <path class="st33" d="M1852.55,1052.2l-.05.02c-.57-.26-.98-.39-1.4-.84.02-.29-.03-.19.09-.35.33.25,1.22.87,1.36,1.17Z"/>
  <path class="st2" d="M1882.54,1054.92v.29c-.49-.31-1.14-.62-1.29-1.16.45.25.98.48,1.29.87Z"/>
  <path class="st29" d="M1947.85,1012.02l-1.09-1.1.28-.13,1.1,1.1-.29.13Z"/>
  <path class="st3" d="M1932.2,1107.56c.61-.34.73-.46,1.42-.51-.36.79-.55.61-1.42.51Z"/>
  <path class="st3" d="M1929.63,1004.34c-.07-.84-.08-1.05.01-1.9.21.76.37,1.21-.01,1.9Z"/>
  <path class="st33" d="M1893,1061.81l-.12.09c-.36-.23-.73-.4-.94-.76l.14-.11c.43.29.65.36.91.77Z"/>
  <path class="st2" d="M1890.41,1059.86v.2s-.1.1-.1.1c-.36-.21-.71-.34-.87-.7l.13-.17.85.58Z"/>
  <path class="st33" d="M1931.4,1006.28c-.09-.58-.19-.9.09-1.43.15.64.21.83-.09,1.43Z"/>
</svg>