<?xml version="1.0" encoding="UTF-8"?>
<svg id="Layer_1" xmlns="http://www.w3.org/2000/svg" xmlns:xlink="http://www.w3.org/1999/xlink" version="1.1" viewBox="0 0 2048 1650">
  <!-- Generator: Adobe Illustrator 30.4.0, SVG Export Plug-In . SVG Version: 2.1.4 Build 226)  -->
  <defs>
    <style>
      .st0 {
        fill: #070707;
      }

      .st1 {
        fill: #7d7d7e;
      }

      .st2 {
        fill: #222227;
      }

      .st3 {
        fill: #bbb8ba;
      }

      .st4 {
        fill: url(#linear-gradient2);
      }

      .st5 {
        fill: url(#linear-gradient1);
      }

      .st6 {
        fill: url(#linear-gradient3);
      }

      .st7 {
        fill: url(#linear-gradient6);
      }

      .st8 {
        fill: url(#linear-gradient8);
      }

      .st9 {
        fill: url(#linear-gradient7);
      }

      .st10 {
        fill: url(#linear-gradient5);
      }

      .st11 {
        fill: url(#linear-gradient4);
      }

      .st12 {
        fill: #545454;
      }

      .st13 {
        fill: url(#linear-gradient);
      }

      .st14 {
        fill: #fffffe;
      }

      .st15 {
        fill: #a4a3a3;
      }

      .st16 {
        fill: #3d3d3f;
      }

      .st17 {
        fill: #616161;
      }
    </style>
    <linearGradient id="linear-gradient" x1="294.79" y1="701.94" x2="286.99" y2="711.38" gradientTransform="translate(2028.7044 1575.9375) rotate(-180) scale(.9375)" gradientUnits="userSpaceOnUse">
      <stop offset="0" stop-color="#4b4c50"/>
      <stop offset="1" stop-color="#656467"/>
    </linearGradient>
    <linearGradient id="linear-gradient1" x1="257.28" y1="602.14" x2="254.87" y2="584.05" gradientTransform="translate(2028.7044 1575.9375) rotate(-180) scale(.9375)" gradientUnits="userSpaceOnUse">
      <stop offset="0" stop-color="#343234"/>
      <stop offset="1" stop-color="#525355"/>
    </linearGradient>
    <linearGradient id="linear-gradient2" x1="287.18" y1="701.97" x2="281.03" y2="706.24" gradientTransform="translate(2028.7044 1575.9375) rotate(-180) scale(.9375)" gradientUnits="userSpaceOnUse">
      <stop offset="0" stop-color="#908f8f"/>
      <stop offset="1" stop-color="#c2c0bf"/>
    </linearGradient>
    <linearGradient id="linear-gradient3" x1="305.79" y1="644.8" x2="307.63" y2="640.95" gradientTransform="translate(2028.7044 1575.9375) rotate(-180) scale(.9375)" gradientUnits="userSpaceOnUse">
      <stop offset="0" stop-color="#656464"/>
      <stop offset="1" stop-color="#8d8c8c"/>
    </linearGradient>
    <linearGradient id="linear-gradient4" x1="294.41" y1="582.82" x2="291.01" y2="578.79" gradientTransform="translate(2028.7044 1575.9375) rotate(-180) scale(.9375)" gradientUnits="userSpaceOnUse">
      <stop offset="0" stop-color="#4e4c49"/>
      <stop offset="1" stop-color="#7c7c80"/>
    </linearGradient>
    <linearGradient id="linear-gradient5" x1="249.64" y1="684.19" x2="254.86" y2="682.13" gradientTransform="translate(2028.7044 1575.9375) rotate(-180) scale(.9375)" gradientUnits="userSpaceOnUse">
      <stop offset="0" stop-color="#797878"/>
      <stop offset="1" stop-color="#908f8f"/>
    </linearGradient>
    <linearGradient id="linear-gradient6" x1="217.06" y1="643.38" x2="219.88" y2="644.89" gradientTransform="translate(2028.7044 1575.9375) rotate(-180) scale(.9375)" gradientUnits="userSpaceOnUse">
      <stop offset="0" stop-color="#38383a"/>
      <stop offset="1" stop-color="#616163"/>
    </linearGradient>
    <linearGradient id="linear-gradient7" x1="242.42" y1="683.88" x2="245.6" y2="681.51" gradientTransform="translate(2028.7044 1575.9375) rotate(-180) scale(.9375)" gradientUnits="userSpaceOnUse">
      <stop offset="0" stop-color="#282627"/>
      <stop offset="1" stop-color="#505155"/>
    </linearGradient>
    <linearGradient id="linear-gradient8" x1="219.26" y1="630.56" x2="215.73" y2="627.95" gradientTransform="translate(2028.7044 1575.9375) rotate(-180) scale(.9375)" gradientUnits="userSpaceOnUse">
      <stop offset="0" stop-color="#5d605c"/>
      <stop offset="1" stop-color="#86838a"/>
    </linearGradient>
  </defs>
  <path class="st0" d="M1754.75,913.58l.08-.26c-.2-.64-.17-.46-.74-.98-.44-.26-.81-.62-1.23-.85l-1.95,1.11c.52.11,1.05.2,1.6.24.64.04,1.42.96,2.25.74Z"/>
  <path class="st0" d="M1766.74,909.53c-.13.18-.33.24-.53.28.29-.62.8-1.06,1.15-1.63,1.07-1.71,1.6-3.68,1.24-5.64l-3.61,2.06c.01.19.02.37.04.59-.09-.16-.17-.31-.26-.46l-3.53,2.01c.06.4.1.8.15,1.19l-.11.08c-.13-.3-.21-.71-.27-1.13l-1.56.89c5.14,5.27,9.44,10.38,9.99,13.02.04.2.02.16-.03.39-.55-.72-1.02-1.8-1.64-2.62-1.58-2.11-3.77-5.01-5.63-6.84l-.11.29c.15.29.19.34.28.65.1.06-2.23-2.26-4.15-4.17l-1,.57c1.07,1.17,2.13,2.36,3.17,3.57.88.98,2.38,2.83,3.13,3.95-1.31,2.8-4.24,5.27-6.74,7.35-7.73,6.43-16.87,11.29-25.99,15.47l-.11.04c-.67.31-1.35.63-2.03.95l.04,5.09c.14-.05.28-.11.42-.14l-.42.37.02,2.74c1.8-.94,3.92-2,4.45-2.22,2.54-1.06,8.65-4.78,11.05-5.05-.63.46-5.55,2.87-6.35,3.18-1.59.61-6.1,3.2-9.15,4.64l.02,2.5c2.42-.94,4.62-1.87,6.46-2.69,2.84-1.26,7.4-3.65,10.13-4.55-1.65,1.22-6.92,3.62-9.06,4.5-2.37.98-4.9,2.02-7.53,3.05l.1,14.06c2.83.91,6.03,1.98,8.28,3.05,2.54,1.22,7.13,4.92,9.35,6.72,2.02,1.64,4.84,3.88,6.76,5.61l.03.14-.21-.07c-5.96-3.82-11.8-7.5-17.9-11.11-1.14-.67-4.03-2.09-6.3-3.3l.02,2.76c13.43,6.32,25.27,13.38,36.91,22.77,2.41,2.04,6.35,4.51,9.02,6.35,1.06.73,4.07,2.21,4.67,2.83l-.05.18c-.35.09-.76-.02-1.09-.17-4.47-1.94-9.86-5.65-14.61-6.64-4.94-1.03-11.42-1.19-16.53-1.63-.34-.57-.76-1.14-1.14-1.68,2.8-.26,16.93.1,17.87-.42-3.72-2.89-7.37-5.49-11.39-7.96-7.73-4.75-15.4-9.38-23.65-13.1l.08,11.65c1.69,1.04,3.38,2.09,5.06,3.16,1.42.9,4.73,2.91,5.88,3.97-2.27-1.27-4.53-2.78-6.76-4.13l-4.17-2.51.37,51.81c2.23-.55,4.39-1.4,6.23-2.26,3.52,2.15,8.69,4.15,12.83,4.34,7.55.35,13.88-.84,21.14-2.56,18.36-4.35,35.31-12.41,49.52-24.91,1.16-1.02,2.73-2.35,3.66-3.55.29-.37.98-1.94,1.26-2.53,1.42-3,3.36-6.79,3.52-10.15.05-1.04-1.51-3.02-1.31-4.3.18-1.2.47-2.31.72-3.46.51-2.29.89-4.37,1.02-6.72.21-3.73.01-7.29-1.43-10.78-.69-1.65-1.59-3.34-2.13-5.03-2.35-7.28-5.77-13.62-11.66-18.67-2.35-2.01-4.37-4.09-7.01-5.93-8.41-5.86-17.66-10.41-26.65-15.29-4.12-2.26-9.78-5.07-12.85-8.51.77-3.52,4.13-7.9,3.2-11.69l-.42.24c.54,2.4-.5,4.94-2.16,7.17ZM1806.57,985.65c1.39-.76,7.51-3.23,8.78-3.07-8.27,2.57-15.64,6.92-22.98,11.44-3.3,2.03-6.64,4.07-9.75,6.39-2.45,1.83-4.73,3.85-7.02,5.87-1.54,1.36-3.88,3.01-4.81,4.85-.44.86-.56,1.81-.25,2.73.48,1.43,1.87,2.3,3.18,2.89,3.97,1.8,7.37,1.11,11.3-.41,8.8-3.39,26.64-12.2,32.92-19.01,1.05-1.14,1.87-2.46,2.49-3.88.98-2.21,1.91-5.56.98-7.92-.41-1.04-1.21-1.77-2.23-2.2-.7-.3-1.4-.44-2.15-.5-1.78,4.63-9.75,8.74-13.66,11.92-.18,1.92-.41,2.86-1.01,4.71-1.69-1.22-2.89-2.16-4.88-2.78-1.34.47-3.1,1.38-4.46,1.95-3.6,1.5-8.75,3.81-12.54,4.63l-.21-.2-.29.24v-.05c.33-.33,1.22-.84,1.68-.97,5.46-1.54,10.38-3.99,15.61-6.08,1.84.53,3.05,1.46,4.58,2.55-.16-2.88-.03-5.09.08-7.97.54,1.17.8,2.01,1.15,3.24,2.41-2.25,7.07-4.66,9.73-7.11,1.94-1.78,2.29-2.44,3.84-4.24l.16-.18c4.24.23,5.67,2.62,5.23,6.6-.51,4.58-3.03,8.27-6.66,11.04-8.09,6.18-17.3,11.16-26.67,15.11-2.9,1.22-5.88,2.46-8.99,2.99-4.11.63-12.47-2.61-8.81-7.91.87-1.26,3.28-3.1,4.51-4.25,9.04-8.5,20.33-14.49,31.13-20.42ZM1801.55,995.28l-.09.05c-.19-.43-.63-3.03-.47-3.52.18.55.59,2.91.56,3.47ZM1816.19,952.76c.36.57.6,1.06.9,1.66-.01.72-.08,1.41-.18,2.13-.37,2.54-.6,5.01-.72,7.57-.06,2.81.94,15.1.17,16.83-.24-1.25,0-3.78-.03-5.16-.04-2.29-.08-4.65-.19-6.95-.06-1.22-.05-3.29-.21-4.43-.42-.65.32-9.97.25-11.66ZM1822.12,996.02c-.43,1.06-2.5,4.7-3.51,5.1.25-.76,2.91-4.54,3.51-5.1ZM1773.49,1026.98c-.36.79-.55.61-1.42.51.61-.34.73-.46,1.42-.51ZM1771.44,1026.57c-.42-.09-.42,0-.66-.23.56-.21,1.06-.17,1.65-.13.4.07.7.07,1.01.31-.51.16-1.43.07-2,.05ZM1777.71,1002.55c-1.71.4-2.7.55-4.44.67-1.38.1-2.71.2-4.09.23,1.03-.95,2.94-2.07,4.19-3.05,1.46.7,2.9,1.42,4.34,2.16ZM1757,1022.79c-.57,0-1.13.07-1.66-.12-.06.02,12.74-1.12,13.11-1.1.36.34.68.55.82,1.01l-.11.17c-.51-.26-.59-.94-1.07-.89-3.62.37-7.44.92-11.08.93ZM1765.79,1025c-1.22.48-9.48,1.19-10.69.96l.14-.18c2.91-.16,5.81-.34,8.71-.66.6-.07,1.24-.17,1.84-.12ZM1730.18,980.09c-.36-.21-.71-.34-.87-.7l.13-.17.85.58v.2s-.1.1-.1.1ZM1732.75,981.84c-.36-.23-.73-.4-.94-.76l.14-.11c.43.29.65.36.91.77l-.12.09ZM1731.81,973.56l.15-.04c1.67.67,8.63,3.31,9.2,4.54l-.21.17c-1.99-.35-4.26-.74-6.21-1.26-.68-1.23-2.88-3.08-2.93-3.41ZM1737.92,985.44c-.73-.5-1.68-1.1-2.3-1.69l-.02-.17.14-.04c.66.47,1.81,1.26,2.32,1.85-.13.06-.09.06-.15.05ZM1739.39,986.59l.05-.15h.08c.43.24,1.77,1.07,1.97,1.51l-.12.1h-.05c-.57-.41-1.44-.99-1.93-1.46ZM1732.11,991.72c3.98.9,8.54,1.99,12.59,2.38,3.86.34,7.73.63,11.6.87,1.79.13,5.27.19,6.82.76,2.53.93,5.26,2.86,7.98,3.56.4.1.93.29,1.13.66l-.24.23c-1.26.59-5.56,2.85-6.55,3.05-4,.79-10.39.13-14.46.16l-.24.36c.74.22,1.28.25,1.87.68l-.02.19c-1.53.44-4.92-.23-6.56-.4-4.17-.42-6.66-3.26-9.13-6.37-1.6-2.01-3.25-4.01-4.77-6.13ZM1742.46,1006.04c-1.43-.93-2.37-1.19-4.02-1.73,1.15-.12,1.88-.23,3.04-.09,5.13,2.3,10.32,3.01,15.76,4.28,1.44.33,5.05.8,6.22,1.29-3.58.29-7.18.41-10.77.35-7.77-.32-11.12-.65-17.06-5.68,2.47.26,3.61,1.53,6.83,1.59ZM1753.06,1029.7c-1.27.39-2.73.28-4.04.11-2.29.29-4.23-2.88-4.94-4.73,1.89,2.82,2.47,4.27,6.13,4.33.94,0,1.85-.05,2.76.18l.08.1ZM1743.77,1024.07l-.15.24c-.32-.86-1.27-3.33-1.05-4.17l.12-.12c.34.99.77,2.92,1.08,4.05ZM1759.83,1031.61c-2.25.44-4.9.87-7.19,1.09-1.71.41-9.5.23-10.47-1.65l.11-.24c1.77-.55,6.01-.21,8-.3,2.75-.13,7.4-.37,9.94.64l.17.2c-.23.24-.24.21-.57.26ZM1818.16,1006.93c-1.23,1.17-2.85,2.57-4.19,3.61-.22.36-2.3,1.75-2.8,2.13-3.53,2.7-7.3,5.08-11.26,7.1-3.02,1.55-6.63,3.01-9.77,4.29-7.95,3.24-16.13,6.25-24.62,7.71-1.19.2-3.26.56-4.43.57l-.09-.15c.77-.84,5.45-1.53,6.68-1.73,8.89-1.49,17.41-4.84,25.59-8.55,6.27-2.84,12.01-6.72,17.62-10.69.85-.6,4.02-3.52,4.63-3.7.42.19.46.23.81.51.06-.26.05-.24.16-.5h.23c1.25-.76,3.1-2.38,3.57-3.77l-.1-.09-.62.3c.61-1.46,1.99-2.83,2.56-4.63-.76.53-1.76,3.33-3.18,4.02l-.07-.25c.25-.93,3.81-6.81,4.75-7.5l.14-.23c-.41-.22-.26-.06-.43-.51.35-1.48,1.77-4.73,2.44-6.15-.7,6.25-2.88,13.72-7.62,18.2ZM1824.82,969.41c.21-1.49.26-2.38.29-3.9.54,1.04.95,2.01,1.24,3.15l.41,1.42c.24,1.47.93,5.37.35,6.77-.06.91-.1,1.61-.24,2.52-.13,1.22-.36,2.61-.61,3.77-.37,1.71-2.56,8.45-3.72,9.38.84-2.18,3.42-9.16,3.12-11.17-.23.38-.46.76-.68,1.15-.03,1.2-1.79,2.5-2.55,3.28.09-3.11,2.04-6.61,2.94-9.64.38-1.28-.09-1.65.32-2.53.07-.61.13-1.21.18-1.82l-.09.15c-.63,1.07-3.14,5.75-4.24,6.07-.22-.72.43-2.24.76-2.92.73-1.9,1.75-3.66,2.51-5.67ZM1820.65,954.77c2,4.05,4.61,9.16,2.99,13.64-.65,1.79-4.05,8.78-5.79,8.99-.54-.45-.4-1.08-.4-1.76-.27-1.73-.68-7.87-.39-9.56,1.05-6.15,3.32-8.84,1.5-15.26.68,1.1,1.47,2.75,2.09,3.94ZM1802.17,936.84c4.96,2.98,9.37,6.79,13.04,11.26.82.99,2.63,3.08,2.33,4.43l-.19.07c-1.12-1.18-2.18-2.76-3.29-4.04-2.9-3.33-5.76-6.39-9.16-9.21l-.16.13c-.09.3-.03.16-.17.42-1.02-.58-3.08-2.22-4.12-2.99-1.79-1.32-4.26-2.96-5.81-4.48,1.7.82,6.2,3.26,7.53,4.42ZM1792.31,931.55c2.59,1.62,4.93,3.84,7.42,5.58,4.82,3.39,9.6,6.61,13.29,11.3.36.46,1.57,1.87,1.63,2.4-.67-.51-1.16-1.13-1.77-1.71-2.53-2.45-5.6-4.35-8.48-6.35-1.41-.98-2.76-2.12-4.15-3.05.36.52,1.46,1.99,1.56,2.49-1.37.8-3.44-1.86-4.01-2.94-1.78-3.38-2.6-4.9-5.75-7.19-1.58-1.13-4.55-2.96-5.8-4,.9.34,4.95,2.81,6.08,3.48ZM1797.2,941l-.11.2c-.89-.87-10.15-11.27-10.15-11.27l.06-.02c3.74,1.09,7.63,5.86,9.28,9.18.32.64.72,1.21.92,1.92ZM1786.92,930.73l1.1,1.1c8.76,8.62,17.17,20.22,22.2,31.45.43.97,1.68,3.9,1.67,4.86-1.05-2.43-1.99-4.95-3.19-7.31-5.39-10.59-12.67-20.41-20.97-28.88l-1.09-1.1c-3.15-3.05-6.59-4.99-9.46-7.55,1.3.21,8.47,6.01,9.74,7.42ZM1769.18,925.06c-.43.73-1.72,2.57-2.43,2.95.57-.83,1.61-2.55,2.43-2.95ZM1764.8,928.17c.58-.66,2.62-3.08,3.21-3.34-1.37,1.66-5.1,6.31-7.14,7.26.73-1.19,2.85-2.69,3.93-3.92ZM1764.36,929.97c-.58.63-2.37,2.73-3.03,2.91.44-.76,2.26-2.7,3.03-2.91ZM1734.86,942.6c-.52.24-2.76,1.1-3.22,1.11,1.54-.92,6.09-2.81,7.77-2.52-1.31.47-3.12.74-4.55,1.41ZM1740.62,942.02c-.1.04-.21.04-.32.04.68-1,13.24-5.35,15.42-6.12.71-.25,5.12-2.78,5.4-2.83-.49.96-3.34,2.23-4.33,2.72-2.08,1.02-4.48,1.52-6.61,2.42-3.17,1.33-6.32,2.64-9.56,3.77ZM1762.58,935.65c.17-.59.27-1.3.78-1.63-.1.75-.03,1.27-.78,1.63ZM1764.35,932.51c-2.43,2.27-15.43,10.63-17.99,11.19.66-.78,6.58-3.92,7.87-4.76,4.35-2.83,8.76-5.17,12.3-9.1.54-.6,2.67-3.15,3.18-3.42-1.44,2.22-3.5,4.35-5.36,6.09ZM1769.5,924.28c-.07-.84-.08-1.05.01-1.9.21.76.37,1.21-.01,1.9ZM1771.27,926.21c-.09-.58-.19-.9.09-1.43.15.64.21.83-.09,1.43ZM1769.29,917.62c1.29.79,2.9,1.73,3.94,2.8-.46.86-.67,1.32-1.31,2.06-.24.2-.42.43-.67.45-.07-.79-.32-1.93-.64-2.66-.29-.65-1.61-1.84-1.6-2.59l.28-.07Z"/>
  <path class="st14" d="M1767.36,908.17c-.36.57-.87,1.02-1.15,1.63.21-.04.4-.1.53-.28,1.66-2.23,2.7-4.77,2.16-7.17l-.3.17c.36,1.96-.17,3.93-1.24,5.64Z"/>
  <path class="st2" d="M1730.63,939.41l.11-.04c9.12-4.18,18.26-9.04,25.99-15.47,2.5-2.08,5.43-4.54,6.74-7.35-.75-1.11-2.25-2.97-3.13-3.95-.66.39-1.2.56-1.92.82-.65-.38-2.08-1.75-3.48-3.12l-1.33.76c.33.31.58.59.71.79-.03.38.03.21-.24.49.57.52.55.34.74.98l-.08.26c-.82.22-1.61-.7-2.25-.74-.54-.04-1.07-.13-1.6-.24l-22.41,12.77.08,11.34c.79-.36,1.59-.71,2.38-1.07,2.09-.93,4.13-2.11,6.29-2.87-2.06,1.73-5.45,3.19-8.67,4.54l.02,2.18c.91-.24,1.66-.32,2.04-.08ZM1762.01,916.99c-.59.66-3.74,2.79-4.55,2.8.71-1.12,3.24-2.53,4.55-2.8Z"/>
  <path class="st2" d="M1760.34,912.6c-1.04-1.2-2.1-2.39-3.17-3.57l-2.22,1.27c1.4,1.37,2.83,2.74,3.48,3.12.72-.26,1.26-.42,1.92-.82Z"/>
  <path class="st13" d="M1760.34,912.6c-1.04-1.2-2.1-2.39-3.17-3.57l-2.22,1.27c1.4,1.37,2.83,2.74,3.48,3.12.72-.26,1.26-.42,1.92-.82Z"/>
  <path class="st16" d="M1730.96,935.64c-.79.35-1.59.71-2.38,1.07v.6c3.22-1.35,6.61-2.81,8.67-4.54-2.16.76-4.19,1.94-6.29,2.87Z"/>
  <path class="st16" d="M1728.59,939.48v.87c.69-.32,1.36-.64,2.04-.95-.38-.24-1.13-.17-2.04.08Z"/>
  <path class="st16" d="M1754.33,911.85c-.13-.21-.38-.48-.71-.79l-.76.43c.42.23.79.59,1.23.85.27-.28.21-.11.24-.49Z"/>
  <path class="st16" d="M1762.01,916.99c-1.31.27-3.84,1.68-4.55,2.8.81,0,3.95-2.14,4.55-2.8Z"/>
  <path class="st0" d="M1745.46,1001.72l.11.04c4.7,1.74,13.75,1.77,18.89,1.22,1.26-.13,5.8-2.35,7.22-3-.63-.65-4.38-1.51-5.3-2.15-.2-.14-1.33-.62-1.62-.76.02.45.05.99.02,1.43l-.11.08c-2.23.86-7.55.44-10.1.6-2.19.14-4.81-.92-6.73-1.95-1.37-.06-2.51-1.55-3.89-1.2l-.07.27c-.02.46.01,1.03-.17,1.43l-.02.11.15.4c-.34.1-.17.06-.51.13l-.19.22c.13.54,1.22,1.84,1.61,2.82-2.59-2.21-3.28-5.26-5.15-6.55-.92-.4-2.76-.91-3.78-1.23.74.54,1.58.8,2.44,1.12,1.99.66,3.01,3,4.02,4.79,1.03,1.12,1.56,1.74,2.84,2.55l.23-.3.11-.09Z"/>
  <path class="st14" d="M1746.02,1004.21c1.63.17,5.03.84,6.56.4l.02-.19c-.58-.44-1.13-.46-1.87-.68-1.49-.17-4.35-.87-5.61-1.63-1.29-.81-1.81-1.44-2.84-2.55-1.88-.56-4.38-2.99-5.2-4.79.39,0,.78,0,1.17,0-.86-.32-1.71-.58-2.44-1.12,1.02.31,2.86.82,3.78,1.23l.16-.24-.17-.12c.66-.07,2.95.29,3.7.42,4.22.42,8.53.51,12.77.79,3.26.22,5.65-.02,8.71,1.36.28.14,1.42.62,1.62.76.93.63,4.67,1.5,5.3,2.15l.3.2.24-.23c-.2-.37-.73-.56-1.13-.66-2.71-.7-5.45-2.63-7.98-3.56-1.55-.57-5.04-.63-6.82-.76-3.87-.24-7.73-.53-11.6-.87-4.05-.39-8.61-1.47-12.59-2.38,1.52,2.11,3.17,4.11,4.77,6.13,2.47,3.11,4.96,5.95,9.13,6.37Z"/>
  <path class="st15" d="M1738.25,994.76c-.39,0-.78,0-1.17,0,.82,1.8,3.31,4.23,5.2,4.79-1.02-1.79-2.03-4.13-4.02-4.79Z"/>
  <path class="st12" d="M1743.28,994.92c-.75-.13-3.04-.48-3.7-.42l.17.12c.91.17,2.56.5,3.42.51l.11-.21Z"/>
  <path class="st2" d="M1743.33,995.46c.28.36.34.43.55.84l.07-.27c1.39-.35,2.53,1.14,3.89,1.2,1.43.28,3,1.1,4.41,1.26,4.07.46,8.33.3,12.42.08l.11-.08c.03-.43,0-.98-.02-1.43-3.06-1.37-5.45-1.14-8.71-1.36-4.24-.28-8.55-.37-12.77-.79l-.11.21.15.33Z"/>
  <path class="st14" d="M1764.46,1002.97c-5.14.55-14.19.52-18.89-1.22l-.11-.04-.11.09c.56.75,3.57,1.31,4.5,1.44.37.05.75.09,1.12.13,4.07-.03,10.46.62,14.46-.16.99-.2,5.29-2.46,6.55-3.05l-.3-.2c-1.42.66-5.96,2.87-7.22,3Z"/>
  <path class="st2" d="M1745.35,1001.81l-.23.3c1.26.76,4.12,1.46,5.61,1.63l.24-.36c-.38-.04-.75-.08-1.12-.13-.93-.13-3.94-.69-4.5-1.44Z"/>
  <path class="st14" d="M1744.75,1001.41c-.4-.98-1.48-2.28-1.61-2.82-.03-1.38-.95-1.62.19-3.13l-.15-.33c-.86,0-2.51-.34-3.42-.51l-.16.24c1.88,1.29,2.56,4.34,5.15,6.55Z"/>
  <path class="st2" d="M1743.14,998.59l.19-.22c.34-.07.17-.03.51-.13l-.15-.4-.09.12c-.3-.64-.25-1.01-.15-1.7h.11c.21.39.15,1,.15,1.47.18-.4.15-.98.17-1.43-.21-.41-.28-.48-.55-.84-1.14,1.51-.22,1.75-.19,3.13Z"/>
  <path class="st17" d="M1743.56,996.27h-.11c-.1.69-.15,1.06.15,1.7l.09-.12.02-.11c0-.47.06-1.08-.15-1.47Z"/>
  <path class="st14" d="M1752.25,998.49c-1.41-.16-2.98-.98-4.41-1.26,1.92,1.03,4.54,2.08,6.73,1.95,2.55-.16,7.87.26,10.1-.6-4.09.22-8.35.38-12.42-.08Z"/>
  <path class="st16" d="M1820.17,958.2c.22.73.45,1.26.74,1.96-.37.83-.77,1.65-1.2,2.46.3,2.04.72,3.96.58,6.03-.05.81-.06,1.21.26,1.95.44-.74.71-1.5,1.03-2.31.48-1.22.19-2.14,1.18-3.26.21-.35.32-1.62.46-2.23-.47-2.25-1.91-5.67-2.83-7.82l-.66-1.32c.04,1.1.05,2.19.06,3.29.37.47.39.64.37,1.26Z"/>
  <path class="st0" d="M1822.13,969.1c.05-.33.09-.52.1-.86l-.29-.04-.11.19c-.29.85-.92,2.3-1.46,3.01-.04-.3,0-.55.19-.81-.32-.74-.31-1.14-.26-1.95.13-2.07-.28-3.99-.58-6.03.42-.81.82-1.62,1.2-2.46-.29-.7-.52-1.23-.74-1.96l-.52-.13c-.26,1.49-.69,2.96-1.15,4.41,1.34,2.11,1.65,4.35,1.52,6.82-.58-.61-2.08-2.05-2.33-2.72l-.32-.08c-.26,2.32,0,6.51.25,8.88,2.34-2.12,3.31-3.26,4.51-6.28ZM1819.71,969.17c.17.68.14,1.29.07,1.98-.1,1.04.04,1.31-.68,2.14.2-1.37.4-2.75.62-4.12Z"/>
  <path class="st14" d="M1817.07,966.09c-.29,1.68.12,7.82.39,9.56l.16-.27c-.25-2.37-.51-6.56-.25-8.88.19-1.3.7-2.77,1.13-4.01.46-1.44.89-2.91,1.15-4.41l.15-1.13c0-1.1-.02-2.19-.06-3.29l.66,1.32.25-.2c-.62-1.19-1.41-2.84-2.09-3.94,1.82,6.41-.45,9.11-1.5,15.26Z"/>
  <path class="st16" d="M1820.02,969.3c.13-2.47-.19-4.71-1.52-6.82-.43,1.24-.93,2.71-1.13,4.01l.32.08c.25.67,1.74,2.11,2.33,2.72Z"/>
  <path class="st1" d="M1820.56,970.59c-.2.26-.23.51-.19.81.54-.71,1.17-2.16,1.46-3.01l-.24-.1c-.32.81-.59,1.56-1.03,2.31Z"/>
  <path class="st14" d="M1819.71,969.17c-.21,1.37-.42,2.74-.62,4.12.72-.82.58-1.1.68-2.14.07-.69.11-1.3-.07-1.98Z"/>
  <path class="st14" d="M1823.24,962.8c.43,2.05-.03,4.54-1.1,6.3-1.2,3.02-2.17,4.16-4.51,6.28l-.16.27c0,.68-.14,1.3.4,1.76,1.74-.21,5.14-7.2,5.79-8.99,1.62-4.48-.99-9.58-2.99-13.64l-.25.2c.92,2.16,2.37,5.58,2.83,7.82Z"/>
  <path class="st2" d="M1821.94,968.2l.29.04c-.01.34-.05.53-.1.86,1.08-1.75,1.53-4.25,1.1-6.3-.14.61-.25,1.89-.46,2.23-.02,1.35-.61,1.88-.83,3.17Z"/>
  <path class="st14" d="M1821.59,968.29l.24.1.11-.19c.22-1.29.82-1.82.83-3.17-1,1.11-.7,2.04-1.18,3.26Z"/>
  <path class="st2" d="M1819.8,956.94l-.15,1.13.52.13c.03-.63,0-.79-.37-1.26Z"/>
  <path class="st14" d="M1770.93,1010.33c-3.66,5.31,4.7,8.54,8.81,7.91,3.11-.53,6.09-1.77,8.99-2.99,9.37-3.95,18.58-8.93,26.67-15.11,3.63-2.77,6.15-6.46,6.66-11.04.44-3.98-.99-6.37-5.23-6.6l-.16.18c-1.55,1.8-1.9,2.46-3.84,4.24-2.66,2.44-7.31,4.85-9.73,7.11-.35-1.24-.61-2.07-1.15-3.24-.12,2.88-.24,5.08-.08,7.97-1.53-1.09-2.74-2.02-4.58-2.55-5.23,2.09-10.15,4.54-15.61,6.08-.46.13-1.36.64-1.69.97v.05s.3-.24.3-.24l.21.2c3.79-.82,8.94-3.12,12.54-4.63,1.36-.57,3.12-1.48,4.46-1.95,1.99.61,3.19,1.55,4.88,2.78.59-1.85.83-2.79,1.01-4.71,3.92-3.18,11.88-7.29,13.66-11.92.75.06,1.45.2,2.15.5,1.02.43,1.82,1.16,2.23,2.2.93,2.36,0,5.71-.98,7.92-.62,1.42-1.44,2.74-2.49,3.88-6.29,6.81-24.13,15.62-32.92,19.01-3.93,1.51-7.33,2.2-11.3.41-1.31-.59-2.7-1.46-3.18-2.89-.31-.92-.19-1.87.25-2.73.93-1.84,3.27-3.49,4.81-4.85,2.29-2.02,4.57-4.04,7.02-5.87,3.11-2.32,6.45-4.35,9.75-6.39,7.34-4.52,14.7-8.86,22.98-11.44-1.27-.16-7.39,2.31-8.78,3.07-10.8,5.93-22.1,11.93-31.13,20.42-1.23,1.15-3.64,2.99-4.51,4.25Z"/>
  <path class="st2" d="M1745.98,991.65c.39.55.81,1.11,1.14,1.68,5.11.44,11.59.6,16.53,1.63,4.75.99,10.14,4.7,14.61,6.64.33.16.73.27,1.09.17l.05-.18c-.6-.62-3.61-2.1-4.67-2.83-2.67-1.84-6.61-4.31-9.02-6.35-.66-.27-1.28-.76-1.86-1.18-.94.52-15.07.16-17.87.42Z"/>
  <path class="st2" d="M1763.47,1009.79c-1.17-.49-4.79-.96-6.22-1.29-5.45-1.26-10.63-1.97-15.76-4.28-1.16-.14-1.89-.03-3.04.09,1.64.53,2.59.8,4.02,1.73-3.22-.06-4.36-1.33-6.83-1.59,5.94,5.04,9.29,5.36,17.06,5.68,3.59.06,7.19-.06,10.77-.35Z"/>
  <path class="st0" d="M1816.33,1008.04c-.36-.27-.39-.31-.81-.51-.6.18-3.78,3.1-4.63,3.7-5.61,3.96-11.35,7.84-17.62,10.69-8.17,3.71-16.7,7.06-25.59,8.55-1.23.2-5.92.89-6.68,1.73l.09.15c1.16-.02,3.24-.37,4.43-.57,8.49-1.46,16.67-4.47,24.62-7.71,3.14-1.28,6.75-2.74,9.77-4.29,3.96-2.02,7.73-4.4,11.26-7.1.5-.38,2.58-1.77,2.8-2.13.49-1.02,1.94-1.79,2.36-2.5Z"/>
  <path class="st5" d="M1816.33,1008.04c-.36-.27-.39-.31-.81-.51-.6.18-3.78,3.1-4.63,3.7-5.61,3.96-11.35,7.84-17.62,10.69-8.17,3.71-16.7,7.06-25.59,8.55-1.23.2-5.92.89-6.68,1.73l.09.15c1.16-.02,3.24-.37,4.43-.57,8.49-1.46,16.67-4.47,24.62-7.71,3.14-1.28,6.75-2.74,9.77-4.29,3.96-2.02,7.73-4.4,11.26-7.1.5-.38,2.58-1.77,2.8-2.13.49-1.02,1.94-1.79,2.36-2.5Z"/>
  <path class="st0" d="M1762.15,911.69c1.86,1.82,4.05,4.73,5.63,6.84.62.83,1.08,1.91,1.64,2.62.05-.24.07-.2.03-.39-.55-2.64-4.85-7.76-9.99-13.02l-.66.37c.47.5.94.99,1.4,1.5.55.61,1.49,1.47,1.95,2.08Z"/>
  <path class="st4" d="M1762.15,911.69c1.86,1.82,4.05,4.73,5.63,6.84.62.83,1.08,1.91,1.64,2.62.05-.24.07-.2.03-.39-.55-2.64-4.85-7.76-9.99-13.02l-.66.37c.47.5.94.99,1.4,1.5.55.61,1.49,1.47,1.95,2.08Z"/>
  <path class="st2" d="M1762.32,912.64c-.09-.31-.13-.36-.28-.65l.11-.29c-.46-.61-1.4-1.48-1.95-2.08-.46-.51-.93-1-1.4-1.5l-.63.36c1.93,1.91,4.26,4.23,4.15,4.17Z"/>
  <path class="st17" d="M1797.78,939.26c.57,1.08,2.64,3.74,4.01,2.94-.09-.5-1.2-1.97-1.56-2.49,1.39.93,2.74,2.07,4.15,3.05,2.88,2,5.95,3.9,8.48,6.35.61.59,1.1,1.2,1.77,1.71-.06-.53-1.27-1.94-1.63-2.4-3.69-4.69-8.47-7.91-13.29-11.3-2.49-1.75-4.84-3.97-7.42-5.58l-.27.52c3.15,2.29,3.96,3.81,5.75,7.19Z"/>
  <path class="st0" d="M1752.99,981.3l.21.07-.03-.14c-1.92-1.73-4.74-3.98-6.76-5.61-2.22-1.8-6.81-5.51-9.35-6.72-2.25-1.07-5.45-2.14-8.28-3.05v1.04c2.28,1.21,5.17,2.62,6.31,3.3,6.1,3.61,11.93,7.3,17.9,11.11Z"/>
  <path class="st6" d="M1752.99,981.3l.21.07-.03-.14c-1.92-1.73-4.74-3.98-6.76-5.61-2.22-1.8-6.81-5.51-9.35-6.72-2.25-1.07-5.45-2.14-8.28-3.05v1.04c2.28,1.21,5.17,2.62,6.31,3.3,6.1,3.61,11.93,7.3,17.9,11.11Z"/>
  <path class="st14" d="M1750.29,1030.51c-1.99.09-6.24-.25-8,.3,1.15.25,4.66.13,6.32.27,1.84-.02,3.77.13,5.61.23,1.65.09,4.02.03,5.62.31.33-.06.34-.03.57-.26l-.17-.2c-2.54-1.01-7.2-.77-9.94-.64Z"/>
  <path class="st16" d="M1751.47,1032.59l.37-.37-.07-.14c-1.1-.38-2.05-.71-3.17-1-1.66-.14-5.17-.02-6.32-.27l-.11.24c.97,1.88,8.76,2.06,10.47,1.65-.4,0-.85.08-1.17-.12Z"/>
  <path class="st14" d="M1748.6,1031.08c1.12.3,2.08.62,3.17,1l.07.14-.37.37c.31.19.77.12,1.17.12,2.3-.21,4.94-.64,7.19-1.09-1.59-.28-3.97-.23-5.62-.31-1.84-.1-3.77-.25-5.61-.23Z"/>
  <path class="st11" d="M1748.6,1031.08c1.12.3,2.08.62,3.17,1l.07.14-.37.37c.31.19.77.12,1.17.12,2.3-.21,4.94-.64,7.19-1.09-1.59-.28-3.97-.23-5.62-.31-1.84-.1-3.77-.25-5.61-.23Z"/>
  <path class="st2" d="M1825.7,973.6c-.41.88.06,1.25-.32,2.53-.9,3.03-2.85,6.53-2.94,9.64.75-.78,2.52-2.08,2.55-3.28l-.15-.04c-.01-.44,1.96-5.3,2.27-5.6.58-1.4-.11-5.3-.35-6.77-.12,1.33-.34,2.15-.86,3.38l-.19.14Z"/>
  <path class="st1" d="M1824.98,982.49c.22-.38.45-.77.68-1.15.22-.87.64-1.29,1.2-1.98.14-.91.19-1.6.24-2.52-.32.3-2.29,5.16-2.27,5.6l.15.04Z"/>
  <path class="st15" d="M1825.7,973.6l.19-.14c.53-1.24.75-2.05.86-3.38l-.41-1.42c-.35.76-.21,2.47-.47,3.13-.05.61-.11,1.21-.18,1.82Z"/>
  <path class="st1" d="M1804.91,939.34c3.39,2.83,6.26,5.88,9.16,9.21,1.11,1.27,2.17,2.86,3.29,4.04l.19-.07c.3-1.35-1.51-3.44-2.33-4.43-3.67-4.48-8.08-8.29-13.04-11.26.51.84,1.94,1.88,2.74,2.5Z"/>
  <path class="st15" d="M1745.27,944.23c-2.73.91-7.29,3.29-10.13,4.55-1.85.82-4.04,1.75-6.46,2.69v.31c2.62-1.03,5.15-2.07,7.53-3.05,2.14-.88,7.42-3.29,9.06-4.5Z"/>
  <path class="st15" d="M1763.85,991.23c.59.42,1.21.91,1.86,1.18-11.64-9.39-23.48-16.45-36.91-22.77v.53c8.25,3.72,15.93,8.35,23.66,13.1,4.01,2.47,7.67,5.07,11.39,7.96Z"/>
  <path class="st0" d="M1787,929.9l-.06.02s9.26,10.4,10.15,11.27l.11-.2c-.2-.7-.6-1.27-.92-1.92-1.65-3.32-5.55-8.09-9.28-9.18Z"/>
  <path class="st10" d="M1787,929.9l-.06.02s9.26,10.4,10.15,11.27l.11-.2c-.2-.7-.6-1.27-.92-1.92-1.65-3.32-5.55-8.09-9.28-9.18Z"/>
  <path class="st0" d="M1821.54,978c1.1-.31,3.61-5,4.24-6.07l.09-.15c.26-.66.11-2.37.47-3.13-.29-1.14-.7-2.1-1.24-3.15-.02,1.52-.08,2.4-.29,3.9.1,1.29-1.57,4.84-2.51,5.67-.33.68-.98,2.2-.76,2.92Z"/>
  <path class="st7" d="M1821.54,978c1.1-.31,3.61-5,4.24-6.07l.09-.15c.26-.66.11-2.37.47-3.13-.29-1.14-.7-2.1-1.24-3.15-.02,1.52-.08,2.4-.29,3.9.1,1.29-1.57,4.84-2.51,5.67-.33.68-.98,2.2-.76,2.92Z"/>
  <path class="st16" d="M1824.82,969.41c-.77,2.01-1.79,3.77-2.51,5.67.95-.84,2.61-4.39,2.51-5.67Z"/>
  <path class="st1" d="M1823.77,995.39l-.14.23c-.16.98-.62,3.15-1.51,3.73-.56,1.8-1.94,3.18-2.56,4.63l.62-.3.1.09c-.46,1.39-2.32,3.01-3.57,3.76h-.23c-.11.27-.1.25-.16.51-.42.71-1.87,1.49-2.36,2.5,1.34-1.04,2.96-2.45,4.19-3.61,4.74-4.48,6.92-11.95,7.62-18.2-.67,1.42-2.09,4.66-2.44,6.15.17.44.02.28.43.51Z"/>
  <path class="st15" d="M1808.69,960.84c1.2,2.36,2.14,4.88,3.19,7.31,0-.96-1.23-3.9-1.67-4.86-5.03-11.23-13.44-22.83-22.2-31.45l-.29.13c8.3,8.47,15.58,18.28,20.97,28.88Z"/>
  <path class="st2" d="M1741.16,978.05c-.56-1.23-7.53-3.87-9.2-4.54l-.15.04c.05.33,2.25,2.17,2.93,3.41,1.95.52,4.23.91,6.21,1.26l.21-.17Z"/>
  <path class="st2" d="M1773.27,1003.22c1.74-.12,2.73-.27,4.44-.67-1.44-.74-2.88-1.46-4.34-2.16-1.25.98-3.16,2.1-4.19,3.05,1.38-.03,2.71-.13,4.09-.23Z"/>
  <path class="st15" d="M1766.53,929.84c-3.54,3.93-7.95,6.27-12.3,9.1-1.29.84-7.22,3.98-7.87,4.76,2.56-.56,15.55-8.93,17.99-11.19,1.87-1.74,3.92-3.87,5.36-6.09-.51.27-2.64,2.82-3.18,3.42Z"/>
  <path class="st0" d="M1804.57,939.89c.14-.26.08-.12.17-.42l.16-.13c-.8-.63-2.22-1.67-2.74-2.5-1.32-1.15-5.82-3.6-7.53-4.42,1.55,1.53,4.01,3.16,5.81,4.48,1.05.77,3.11,2.42,4.12,2.99Z"/>
  <path class="st9" d="M1804.57,939.89c.14-.26.08-.12.17-.42l.16-.13c-.8-.63-2.22-1.67-2.74-2.5-1.32-1.15-5.82-3.6-7.53-4.42,1.55,1.53,4.01,3.16,5.81,4.48,1.05.77,3.11,2.42,4.12,2.99Z"/>
  <path class="st1" d="M1739.84,988.95c-1.14-1.06-4.46-3.06-5.88-3.97-1.68-1.06-3.37-2.11-5.06-3.16v.48s4.18,2.51,4.18,2.51c2.24,1.35,4.5,2.86,6.76,4.13Z"/>
  <path class="st1" d="M1771.25,922.93c.25-.02.43-.25.67-.45.63-.74.85-1.2,1.31-2.06-1.03-1.07-2.65-2.01-3.94-2.8l-.28.07c-.02.74,1.31,1.93,1.6,2.59.32.73.57,1.87.64,2.66Z"/>
  <path class="st1" d="M1756.8,935.83c.99-.48,3.84-1.76,4.33-2.72-.28.05-4.69,2.58-5.4,2.83-2.18.77-14.74,5.13-15.42,6.12.1,0,.22,0,.32-.04,3.24-1.14,6.39-2.44,9.56-3.77,2.14-.9,4.54-1.4,6.61-2.42Z"/>
  <path class="st15" d="M1744.15,941.16c-2.4.27-8.51,3.99-11.05,5.05-.53.22-2.65,1.27-4.45,2.22v.55c3.06-1.44,7.56-4.03,9.15-4.64.8-.31,5.72-2.72,6.35-3.18Z"/>
  <path class="st0" d="M1822.54,992.51c1.16-.93,3.35-7.67,3.72-9.38.25-1.16.47-2.55.61-3.77-.56.69-.98,1.11-1.2,1.98.3,2-2.28,8.98-3.12,11.17Z"/>
  <path class="st8" d="M1822.54,992.51c1.16-.93,3.35-7.67,3.72-9.38.25-1.16.47-2.55.61-3.77-.56.69-.98,1.11-1.2,1.98.3,2-2.28,8.98-3.12,11.17Z"/>
  <path class="st16" d="M1823.63,995.62c-.93.69-4.5,6.57-4.75,7.5l.07.25c1.42-.69,2.42-3.49,3.18-4.02.89-.58,1.34-2.75,1.51-3.73Z"/>
  <path class="st2" d="M1815.94,964.41l.06-.22.19-.08c.12-2.56.35-5.03.72-7.57.11-.71.17-1.41.18-2.13-.3-.6-.54-1.09-.9-1.66.06,1.69-.68,11.01-.25,11.66Z"/>
  <path class="st14" d="M1769.15,1022.74l.11-.17c-.14-.46-.46-.68-.82-1.01-.37-.01-13.17,1.12-13.11,1.1.53.19,1.09.13,1.66.12,3.64,0,7.47-.57,11.08-.93.48-.05.56.63,1.07.89Z"/>
  <path class="st1" d="M1815.94,964.41c.16,1.14.15,3.21.21,4.43.1,2.29.15,4.65.19,6.95.02,1.38-.21,3.92.03,5.16.77-1.73-.24-14.02-.17-16.83l-.19.08-.06.22Z"/>
  <path class="st14" d="M1786.92,930.73c-1.27-1.41-8.44-7.21-9.74-7.42,2.87,2.56,6.31,4.5,9.46,7.55l.28-.13Z"/>
  <path class="st1" d="M1764.98,904.59l-.21.12c.08.15.16.3.26.46-.02-.21-.03-.4-.04-.59Z"/>
  <path class="st1" d="M1768.02,924.83c-.59.26-2.63,2.68-3.21,3.34-1.08,1.23-3.19,2.73-3.93,3.92,2.04-.96,5.77-5.6,7.14-7.26Z"/>
  <path class="st17" d="M1755.24,1025.79l-.14.18c1.21.23,9.47-.47,10.69-.96-.61-.06-1.24.05-1.84.12-2.89.33-5.8.51-8.71.66Z"/>
  <path class="st12" d="M1744.09,1025.08c.71,1.85,2.64,5.02,4.94,4.73.46-.34.6-.31,1.2-.39-3.67-.06-4.24-1.52-6.13-4.33Z"/>
  <path class="st1" d="M1792.31,931.55c-1.12-.66-5.18-3.14-6.08-3.48,1.25,1.04,4.23,2.87,5.8,4l.27-.52Z"/>
  <path class="st12" d="M1731.64,943.71c.46-.01,2.7-.87,3.22-1.11,1.44-.67,3.24-.94,4.55-1.41-1.68-.29-6.23,1.6-7.77,2.52Z"/>
  <path class="st16" d="M1728.63,945.45v.23s.42-.37.42-.37c-.14.03-.28.09-.42.14Z"/>
  <path class="st17" d="M1822.12,996.02c-.61.56-3.26,4.34-3.51,5.1,1.01-.4,3.08-4.04,3.51-5.1Z"/>
  <path class="st15" d="M1750.22,1029.42c-.59.08-.73.05-1.2.39,1.31.17,2.77.28,4.04-.11l-.08-.1c-.92-.23-1.82-.18-2.76-.18Z"/>
  <path class="st16" d="M1743.63,1024.31l.15-.24c-.31-1.13-.74-3.06-1.08-4.05l-.12.12c-.23.84.73,3.31,1.05,4.17Z"/>
  <path class="st17" d="M1761.33,932.88c.66-.19,2.45-2.28,3.03-2.91-.77.21-2.58,2.15-3.03,2.91Z"/>
  <path class="st3" d="M1772.43,1026.21c-.59-.04-1.09-.08-1.65.13.25.22.24.14.66.23.57.02,1.49.11,2-.05-.31-.24-.61-.25-1.01-.31Z"/>
  <path class="st14" d="M1769.18,925.06c-.82.41-1.87,2.12-2.43,2.95.71-.39,2.01-2.22,2.43-2.95Z"/>
  <path class="st16" d="M1735.74,983.54l-.14.04.02.17c.62.59,1.57,1.2,2.3,1.69.05,0,.01.01.15-.05-.51-.59-1.66-1.38-2.32-1.85Z"/>
  <path class="st2" d="M1741.37,988.04l.12-.1c-.2-.44-1.53-1.27-1.97-1.51h-.08s-.05.15-.05.15c.49.47,1.35,1.04,1.93,1.45h.05Z"/>
  <path class="st1" d="M1801.46,995.32l.09-.05c.03-.56-.38-2.92-.56-3.47-.16.49.28,3.08.47,3.52Z"/>
  <path class="st12" d="M1761.39,907.91c-.05-.39-.09-.79-.15-1.19l-.23.13c.06.42.14.83.27,1.13l.11-.08Z"/>
  <path class="st17" d="M1763.36,934.01c-.5.33-.61,1.04-.78,1.63.74-.37.67-.88.78-1.63Z"/>
  <polygon class="st14" points="1787.72 931.96 1788.02 931.83 1786.92 930.73 1786.63 930.86 1787.72 931.96"/>
  <path class="st3" d="M1773.49,1026.98c-.68.05-.81.17-1.42.51.87.1,1.06.28,1.42-.51Z"/>
  <path class="st3" d="M1769.5,924.28c.38-.69.23-1.14.01-1.9-.09.85-.08,1.06-.01,1.9Z"/>
  <path class="st16" d="M1731.96,980.97l-.14.11c.21.36.58.53.94.76l.12-.09c-.26-.41-.48-.48-.91-.77Z"/>
  <path class="st2" d="M1729.43,979.22l-.13.17c.16.36.52.49.87.7l.12-.1v-.2s-.86-.58-.86-.58Z"/>
  <path class="st16" d="M1771.27,926.21c.3-.6.24-.79.09-1.43-.28.53-.18.85-.09,1.43Z"/>
</svg>