<?xml version="1.0" encoding="UTF-8"?>
<svg id="Layer_1" xmlns="http://www.w3.org/2000/svg" xmlns:xlink="http://www.w3.org/1999/xlink" version="1.1" viewBox="0 0 2048 1650">
  <!-- Generator: Adobe Illustrator 30.4.0, SVG Export Plug-In . SVG Version: 2.1.4 Build 226)  -->
  <defs>
    <style>
      .st0 {
        fill: #e1e1e2;
      }

      .st1 {
        stroke: #3c3d43;
      }

      .st1, .st2 {
        fill: none;
        stroke-linecap: round;
        stroke-linejoin: round;
      }

      .st3 {
        fill: url(#linear-gradient2);
      }

      .st4 {
        fill: url(#linear-gradient1);
      }

      .st5 {
        fill: url(#linear-gradient9);
      }

      .st6 {
        fill: url(#linear-gradient3);
      }

      .st7 {
        fill: url(#linear-gradient6);
      }

      .st8 {
        fill: url(#linear-gradient8);
      }

      .st9 {
        fill: url(#linear-gradient7);
      }

      .st10 {
        fill: url(#linear-gradient5);
      }

      .st11 {
        fill: url(#linear-gradient4);
      }

      .st12 {
        fill: #1e2025;
      }

      .st13 {
        fill: url(#linear-gradient31);
      }

      .st14 {
        fill: url(#linear-gradient30);
      }

      .st15 {
        fill: url(#linear-gradient28);
      }

      .st16 {
        fill: url(#linear-gradient29);
      }

      .st17 {
        fill: url(#linear-gradient18);
      }

      .st18 {
        fill: url(#linear-gradient13);
      }

      .st19 {
        fill: url(#linear-gradient12);
      }

      .st20 {
        fill: url(#linear-gradient15);
      }

      .st21 {
        fill: url(#linear-gradient16);
      }

      .st22 {
        fill: url(#linear-gradient11);
      }

      .st23 {
        fill: url(#linear-gradient10);
      }

      .st24 {
        fill: url(#linear-gradient17);
      }

      .st25 {
        fill: url(#linear-gradient14);
      }

      .st26 {
        fill: url(#linear-gradient19);
      }

      .st27 {
        fill: url(#linear-gradient23);
      }

      .st28 {
        fill: url(#linear-gradient22);
      }

      .st29 {
        fill: url(#linear-gradient24);
      }

      .st30 {
        fill: url(#linear-gradient25);
      }

      .st31 {
        fill: url(#linear-gradient21);
      }

      .st32 {
        fill: url(#linear-gradient20);
      }

      .st33 {
        fill: url(#linear-gradient27);
      }

      .st34 {
        fill: url(#linear-gradient26);
      }

      .st35 {
        fill: #919293;
      }

      .st36 {
        fill: url(#linear-gradient);
      }

      .st37 {
        fill: #2b2b30;
      }

      .st38 {
        fill: #7a7d82;
      }

      .st39 {
        fill: #b2b2b3;
      }

      .st2 {
        stroke: #919293;
      }

      .st40 {
        fill: #fff;
      }

      .st41 {
        fill: #67686c;
      }

      .st42 {
        fill: #444549;
      }

      .st43 {
        fill: #3c3d43;
      }

      .st44 {
        fill: #575759;
      }

      .st45 {
        fill: #070607;
      }
    </style>
    <linearGradient id="linear-gradient" x1="1314.08" y1="-869.14" x2="1324.74" y2="-890.81" gradientTransform="translate(1072 1390.5) scale(.5)" gradientUnits="userSpaceOnUse">
      <stop offset="0" stop-color="#444246"/>
      <stop offset="1" stop-color="#595b5d"/>
    </linearGradient>
    <linearGradient id="linear-gradient1" x1="1392.88" y1="-950.87" x2="1396.11" y2="-955.97" gradientTransform="translate(1072 1390.5) scale(.5)" gradientUnits="userSpaceOnUse">
      <stop offset="0" stop-color="#353539"/>
      <stop offset="1" stop-color="#525151"/>
    </linearGradient>
    <linearGradient id="linear-gradient2" x1="1392.38" y1="-951.19" x2="1395.61" y2="-956.29" xlink:href="#linear-gradient1"/>
    <linearGradient id="linear-gradient3" x1="1329.85" y1="-767.61" x2="1326.05" y2="-767.8" gradientTransform="translate(1072 1390.5) scale(.5)" gradientUnits="userSpaceOnUse">
      <stop offset="0" stop-color="#404343"/>
      <stop offset="1" stop-color="#686665"/>
    </linearGradient>
    <linearGradient id="linear-gradient4" x1="1329.89" y1="-768.43" x2="1326.09" y2="-768.62" xlink:href="#linear-gradient3"/>
    <linearGradient id="linear-gradient5" x1="1330.18" y1="-774.25" x2="1326.38" y2="-774.44" xlink:href="#linear-gradient3"/>
    <linearGradient id="linear-gradient6" x1="1330.19" y1="-774.34" x2="1326.39" y2="-774.53" xlink:href="#linear-gradient3"/>
    <linearGradient id="linear-gradient7" x1="1331.77" y1="-752.08" x2="1331" y2="-745.23" gradientTransform="translate(1072 1390.5) scale(.5)" gradientUnits="userSpaceOnUse">
      <stop offset="0" stop-color="#343134"/>
      <stop offset="1" stop-color="#484b4a"/>
    </linearGradient>
    <linearGradient id="linear-gradient8" x1="1331.77" y1="-752.08" x2="1331" y2="-745.23" xlink:href="#linear-gradient7"/>
    <linearGradient id="linear-gradient9" x1="1513.51" y1="-840.03" x2="1505.58" y2="-863.15" gradientTransform="translate(1072 1390.5) scale(.5)" gradientUnits="userSpaceOnUse">
      <stop offset="0" stop-color="#3f3e43"/>
      <stop offset="1" stop-color="#545557"/>
    </linearGradient>
    <linearGradient id="linear-gradient10" x1="1515.08" y1="-840.57" x2="1507.15" y2="-863.69" xlink:href="#linear-gradient9"/>
    <linearGradient id="linear-gradient11" x1="1507" y1="-837.79" x2="1499.07" y2="-860.91" xlink:href="#linear-gradient9"/>
    <linearGradient id="linear-gradient12" x1="1512.18" y1="-839.57" x2="1504.25" y2="-862.69" xlink:href="#linear-gradient9"/>
    <linearGradient id="linear-gradient13" x1="1513.55" y1="-849.26" x2="1506.15" y2="-847.71" gradientTransform="translate(1072 1390.5) scale(.5)" gradientUnits="userSpaceOnUse">
      <stop offset="0" stop-color="#111216"/>
      <stop offset="1" stop-color="#333134"/>
    </linearGradient>
    <linearGradient id="linear-gradient14" x1="1515.05" y1="-840.56" x2="1507.12" y2="-863.68" xlink:href="#linear-gradient9"/>
    <linearGradient id="linear-gradient15" x1="1513" y1="-851.9" x2="1505.6" y2="-850.35" xlink:href="#linear-gradient13"/>
    <linearGradient id="linear-gradient16" x1="1510.56" y1="-839.01" x2="1502.63" y2="-862.13" xlink:href="#linear-gradient9"/>
    <linearGradient id="linear-gradient17" x1="1515.43" y1="-840.28" x2="1508.03" y2="-838.73" xlink:href="#linear-gradient13"/>
    <linearGradient id="linear-gradient18" x1="1517.82" y1="-841.51" x2="1509.89" y2="-864.63" xlink:href="#linear-gradient9"/>
    <linearGradient id="linear-gradient19" x1="1511.24" y1="-860.31" x2="1503.84" y2="-858.76" xlink:href="#linear-gradient13"/>
    <linearGradient id="linear-gradient20" x1="1515.3" y1="-840.92" x2="1507.9" y2="-839.37" xlink:href="#linear-gradient13"/>
    <linearGradient id="linear-gradient21" x1="1326.49" y1="-861.76" x2="1361.68" y2="-873.43" gradientTransform="translate(1072 1390.5) scale(.5)" gradientUnits="userSpaceOnUse">
      <stop offset="0" stop-color="#525057"/>
      <stop offset="1" stop-color="#9c9d98"/>
    </linearGradient>
    <linearGradient id="linear-gradient22" x1="1336.96" y1="-830.18" x2="1389.52" y2="-847.61" xlink:href="#linear-gradient21"/>
    <linearGradient id="linear-gradient23" x1="1326.49" y1="-861.75" x2="1379.05" y2="-879.18" xlink:href="#linear-gradient21"/>
    <linearGradient id="linear-gradient24" x1="1392.4" y1="-734.23" x2="1392.71" y2="-736.59" gradientTransform="translate(1072 1390.5) scale(.5)" gradientUnits="userSpaceOnUse">
      <stop offset="0" stop-color="#888789"/>
      <stop offset="1" stop-color="#b0afb0"/>
    </linearGradient>
    <linearGradient id="linear-gradient25" x1="1398.58" y1="-733.41" x2="1398.89" y2="-735.77" xlink:href="#linear-gradient24"/>
    <linearGradient id="linear-gradient26" x1="1397.95" y1="-736.68" x2="1399.23" y2="-732.39" gradientTransform="translate(1072 1390.5) scale(.5)" gradientUnits="userSpaceOnUse">
      <stop offset="0" stop-color="#69696c"/>
      <stop offset="1" stop-color="#7d7d7c"/>
    </linearGradient>
    <linearGradient id="linear-gradient27" x1="1391.18" y1="-734.66" x2="1392.46" y2="-730.37" xlink:href="#linear-gradient26"/>
    <linearGradient id="linear-gradient28" x1="1397.11" y1="-736.43" x2="1398.39" y2="-732.14" xlink:href="#linear-gradient26"/>
    <linearGradient id="linear-gradient29" x1="1394.92" y1="-735.77" x2="1396.2" y2="-731.48" xlink:href="#linear-gradient26"/>
    <linearGradient id="linear-gradient30" x1="1324.9" y1="-862.57" x2="1324.22" y2="-860.71" gradientTransform="translate(1072 1390.5) scale(.5)" gradientUnits="userSpaceOnUse">
      <stop offset="0" stop-color="#808081"/>
      <stop offset="1" stop-color="#a5a5a4"/>
    </linearGradient>
    <linearGradient id="linear-gradient31" x1="1320.57" y1="-864.15" x2="1319.89" y2="-862.29" xlink:href="#linear-gradient30"/>
  </defs>
  <path class="st45" d="M1820.85,1006.97c.13-.54,2.02-1.94,2.57-2.4-.55.45-2.44,1.85-2.57,2.4Z"/>
  <path class="st45" d="M1778.5,912.65c2.92,3.46,10.38,12.07,10.83,16.47h0c.07.69.26,2.08-.15,2.62-.12-.54-.08-1.98-.09-2.61h0c-.56-1.64-1.03-2.71-2.04-4.13-.62-1.18-4.31-6.23-5.24-7.15-.15-.38-1.91-2.48-2.26-2.9-3.46-4.23-7.1-8.35-10.91-12.27-.13-.13-.26-.25-.39-.37l-.3.17c.16.16.33.31.49.47,3.25,3.26,6.32,6.69,9.26,10.23.87,1.05,2.79,3.18,3.31,4.34-.12-.07-4.42-5.2-4.95-5.86-.9-1.13-4.85-5.39-8.38-9.02l-.63.36c2.14,2.18,4.27,4.37,6.28,6.67,2.08,2.37,4.08,4.97,6.06,7.43l.02.02h0-.01s0,0,0,0c.75.78,3.12,4.25,3.68,5.29.56.72,1.09,1.68,1.69,2.48h0c.02.09.03.18.04.26.02.25-.03.47-.23.71-1.7,2.01-4.42,3.31-6.5,5.03-1.43,1.18-3.42,3.41-4.76,4.26-1.07.68-3.59,1.82-4.81,2.46-.47.46-2.19,1.21-2.84,1.62-3.08,1.95-6.04,3.11-9.41,4.43-6.76,2.65-13.65,4.82-20.66,6.66-.98.26-2.5.29-3.51.27-1.49-.82-3.04-2.14-4.18-3.55v3.88c.73,1.06,1.48,2.1,2.28,3.1.78.98,1.41,1.66,2.05,2.74-.78-.02-1.52-.03-2.3-.12-.67-1.27-1.34-2.55-2.04-3.83v4.59c.88.1,1.73.06,2.71.16,4.66.47,8.8-.42,13.28-1.51,8.79-2.15,17.14-5.85,25.48-9.36h0c.62-.23,1.92-.77,2.51-.89h0c3.24-2.28,8.01-4.14,11.37-6.6,2.31-1.69,3.69-3.96,5.84-5.47-.97,1.2-4.35,4.55-5.64,5.78-.08.07.16.58-.78,1.17.08-.34.52-.86.76-1.18-1.31.69-2.56,1.51-3.85,2.25l-7.47,4.2h0c-.92.31-1.74.92-2.65.96-2.58,1.55-6.53,2.91-9.38,4.05-8.1,3.21-16.69,6.29-25.41,7.11-1.48.14-4.55,0-6.75-.36v3.06c2.23.92,5.42,2.33,5.72,2.9,3.13,5.99,7.52,8.49,12.52,12.3,1.23.93,12.33,9.33,12.47,9.57-.32.04-.19.04-.54-.18.35.22.22.23.54.18,1.19.57,4.74,3.73,5.6,4.81-1.32-.19-5.64-1.32-6.57-1.09l-.28.26c7.36,1.88,14.22,2.28,21.67,3.18.17.02,7.29,3.56,7.76,3.89l.06.22c-1.19-.58-2.59-1.06-3.81-1.62-1.36-.58-2.84-1.61-4.32-1.87-3.17-.56-6.45-.61-9.65-.99-.62-.07-1.58-.13-2.15-.3-1.51-.08-3.03-.24-4.53-.49l-.02.33.4.39-.13.27h-.02s0,.01,0,.01l-.36.16-.15-.06.1-.39c-.15.02-.19.02-.23.04-.03.03-.06.08-.19.2-.48,1.33,1,3.64,1.58,4.92-.02-.02-.04-.04-.06-.07.01.02.03.05.04.08-1.84-2.15-2.44-3.04-3.48-5.6-.67-.39-1.14-.64-1.85-.91l-.06.17c.72.4,1.13.72,1.79,1.22.39,1.09.69,1.92,1.28,2.93-.02,0-.03-.01-.05-.02,0,0,0,.01,0,.02,2.15,3.16,4.12,3.19,7.61,4.3h.03c.42.06,1.3.12,1.48.52-.88.39-4.17-.05-5.17-.22-5.29-.89-6.81-4.09-9.6-8.22-.34.54-.04,1.28.08,2.06,0,0,0,0,.01,0h0s0,0,0,0c-1.54-.78-3-.68-4.46-1.32-2.56-1.18-3.83-3.83-5.45-5.97-.48-.63-2.58-2.77-2.49-3.3.32-.14,1.35-.13,1.75-.16,3.19-.3,6.19.7,9.24,1.49,1.16.3,2.67.79,3.87.92l.18.02c-.78-.71-3.5-2.56-4.47-3.26l-7.5-5.49c-1.62-1.17-14.88-11.45-15.22-11.47-.24.16-.26.2-.53.28-.27-.15-1.34-.85-2.44-1.61v8.09c1.2,1.01,2.39,2.01,2.47,2.11.06.92-1.28,1.29-2,1.44,0-.19-.21-.58-.49-1.05l-.03,25.36c.99.84,1.99,1.67,3.04,2.44-.03,5.99,2.91,15.42,8.05,19,1.43,1,3.01,2.39,4.58,3.14,3.62,1.73,7.67.07,11.15-1.17,3.31,1.71,5.33,3.24,9.08,3.72,5.91.76,10.73.26,16.51-.72,15.31-2.55,29.75-8.85,42.03-18.35,2.04-1.56,4.16-3.5,6.07-5.24.62-.57,1.04-1.82,1.49-2.57,1.57-2.61,3.07-5.49,3.36-8.57.2-1.96-.96-2.54-.9-4.21.01-.42.42-2.19.53-2.69.3-1.38.54-2.77.73-4.17.41-3.2.38-7.09-.62-10.19-.6-1.8-1.45-3.54-1.99-5.37-1.37-4.64-3.16-9.6-6.35-13.33-2.22-2.61-4.93-5.21-7.53-7.44-2.42-2.08-5.21-3.72-7.89-5.42l-10.57-6.58c-3.36-2.07-7.13-4.54-9.96-7.29-.56-.55-1.39-1.66-1.9-2.32.6-3.46,3.13-5.44,3.22-9.21.1-4.11-3.71-6.06-6.71-3.08-1.43,1.42-1.63,3.87-1.61,5.83-1.63-2.3-4.63-5.65-6.56-7.85-1.9-2.17-3.86-4.28-5.86-6.35l-.28.16c3.18,3.22,6.75,7.41,9.55,10.74ZM1749.79,964.78c1.52.18,8.54,3.53,10.28,4.58,1.42,1.24,3.16,2.64,4.48,3.95,2.43,2.41,5.47,4.85,7.73,7.35-.55-.21-2.62-1.77-3.2-2.19-3.83-2.8-7.49-5.71-11.34-8.49-2.78-2.01-5.53-2.91-7.96-5.19h0ZM1735.79,966.05c.05-1.13-.51-1.44-1.1-2.57,1.23.22,6.22,2.25,7.26,2.98.58,1.46.34,2.12.75,3.35-1.17-.49-6.36-2.87-6.91-3.76ZM1745.4,972.76c.57.14,3.89,2.76,4.2,3.32-.48-.14-3.87-2.84-4.2-3.32ZM1750.54,977c.73.09,2.85,1.93,3.33,2.5-.65-.16-2.66-1.97-3.33-2.5ZM1754.22,979.86c.61.2,3.32,2.52,3.66,3.09-.43-.06-3.27-2.61-3.66-3.09ZM1758.06,983.05c.58.19,3.45,2.73,3.57,3.14-.67-.24-3.07-2.53-3.57-3.14ZM1756.51,975.51c-1.05-1.51-1.05-1.63-2.35-3.06h.01c1.44.41,5.9,2.72,7.2,3.75.3.23.57.65.76.98-1.14-.16-4.47-1.25-5.62-1.67ZM1754.16,970.5c-5.71-3.28-12.35-5.53-17.97-9.36l.04-.09c-.28-.71-1.29-.63-.88-1.46,0,0,0,0,0,0h0c-.41.83.6.75.88,1.46l-.04.09c-1.23-.67-2.84-1.83-3.87-2.74,0,0-.01,0-.02,0h0s.02,0,.02,0c1.05.31,2.05.95,3.03,1.19,0,0,0,0,0,0h0s0,0,0,0c1.38.19,2.73.15,4.12.13h0c.65.32,1.07.65,1.25,1.39l-.02.17c-.37.21-1.06.24-1.53.3,1.09.88,2.58,1.6,3.81,2.28,1.86,1.02,3.74,2.01,5.61,3,3.95,2.08,7.7,4.55,11.42,7,4.03,2.66,8.36,5.28,12.08,8.35l-.17.29c-5.8-3.83-11.78-8.56-17.76-12ZM1776.01,985.65c-1.38-1.13-2.65-2.09-4.09-3.14l.17-.29h0c1.48,1.1,2.69,2.1,4.11,3.29.83.64,4.54,3.53,4.8,4.22-1.68-1.34-3.34-2.7-4.99-4.08ZM1736.58,976.42c.49-.26,1.41-.36,2.05-.53.46-.78.92-1.77,1.42-2.63h0c.27.02.62.09.88.22,2.37,1.16,1.91,3.85,1.79,6.02-.05.89-.44,1.41-.03,2.22.1.19.07.12,0,.34-.61.26-1.65-.43-2.18-.77-.87-.64-1.69-1.71-2.52-2.45-.55-.49-1.85-1.64-1.41-2.42ZM1749.22,1017.68c-.42,1.17-.76,2.26-1.6,3.2,0,0,0,0,0-.01,0,0,0,0,0,.01,0,0,0,0,0,0,0,0,0,0,0,0-.37.42-.74.75-1.3.91-.67.2-1.48.36-2.17.15-.95-.33-1.43-.64-2.23-1.23,0,0,0,0,.01,0,0,0,0,0-.01-.01-.84-.37-2.66-1.94-3.28-2.63-.97-.94-1.72-2.23-2.4-3.37h0c-.25-.47-.49-.95-.72-1.43-.14-.3-.37-.75-.4-1.13,0,0,0,0,0-.01-.01-.13,0-.25.03-.36h0s0,0,0-.01l.32-.16.02-.26h0s0,0,0,0l-.26-.35-.06-.15-.14-.03-.33.39-.15-.1c-1.13-3.32-2.04-6.33-2.11-9.89l.06-.57h0s0-.03,0-.03h0s0,0,0,0h0l.52-.34c.12-.64.14-1.49.19-2.16.11-1.2.36-2.39.75-3.54,0,0,0,0,0,0,0,0,0,0,0,0,.73.9,1.43,1.75,2.12,2.68-.58,1.63-.66,3.29-.05,4.93.2.11.78.43.91.56,0,0,0,0,.01,0,0,0,0,0,0,0,0,0,0,0,.01,0,0,0,0,0,0,0,.71.23,1.37.41,2.09.61,0,0,0,0,0,0l1.55.5c-.41-2.6-2.99-4.89-4.49-7.07-.74-1.08-1.54-2.43-2.26-3.45-1.12,2.27-1.03,3.71-1.11,6.12-.39-.13-.26-.82-.26-1.19.03-4.61,2.86-10.64,8.34-7.06,4.9,3.2,7.07,8.98,8.46,14.43,1,4.2.99,7.86-.08,12.02h0ZM1782.47,919.48l.06-.1c.48.45,1.26,2.02,1.7,2.18.2-.66-2.1-2.51-2.43-3.71h0c.94.92,4.63,5.97,5.24,7.15-.03,0-.31-.08-.34-.1-.96-.6-3.77-4.55-4.23-5.42ZM1776.32,937.53c1.16-.07,1.73,0,2.87.22-.66.09-1.03.14-1.7.15-1-.1-1.57.15-2.18.07.38-.3.53-.3,1.01-.44ZM1773.48,938.56h0s.12.05.12.05c-.2.37-1.61,1.12-2.07,1.48-.71.56-1.15,1-1.79,1.65l-.12-.02c.26-.9,3.08-2.67,3.86-3.16ZM1732.8,956.29c.71-.05,1.51.34,1.97.88-1.09.03-1.33,0-1.97-.88ZM1736.6,955.63c-.39.06-1,.12-1.36.1.81-.3,1.19-.14,1.89-.32,2.09-.54,4.35-.74,6.46-1.18,1.16-.25,2.68-.73,3.84-1.08h0c-.27-.41-.42-.62-.33-1.09l.23-.07c.51.17.75.45.86.95h0c.58-.21.88-.37,1.5-.37l.08.06c-.82.42-1.74.63-2.63.92-3.43,1.12-6.99,1.55-10.54,2.08ZM1746.2,954.31l-.07-.14c.69-.3,3.88-1.02,4.73-1.22h0s.07.12.07.12c-.39.37-3.94,1.06-4.73,1.24ZM1759.76,949.54c-2.59,1.63-5.39,2.92-8.31,3.82l-.09-.08c.23-.25,1.54-.68,1.95-.83,3.37-1.23,6.04-2.93,8.99-4.93,2.39-1.63,4.96-3.38,7.44-4.89h0s.04.01.04.01l-.02.16c-2.76,2.13-5.56,3.74-8.41,5.69-.52.36-1.04.71-1.58,1.05ZM1767.98,944.62l-.06-.09c.69-.77,11.03-5.96,12.56-6.68h.01s.03.16.03.16c-.71.76-10.76,5.62-12.54,6.61ZM1784.6,936.38c.6-.67,1.31-1.24,1.96-1.87-.8-.02-2.2.93-2.42,1.61l.11.1v.04s.01,0,.02,0c0,0-.01.01-.02.02h0c-.51.48-1.31.89-1.93,1.25h0c-.25.21-.3.2-.62.31-.49-.07-.83-.09-1.16-.45.1-.79,4.35-4.93,5.24-5.6,1.37.56,1.36.54,1.48,2.01,0,0,0,0,0,0,.6-.62,1.27-1.33,1.91-1.9-.77,1.24-3.32,4.05-4.57,4.49ZM1787.94,997.07h0c1.19.53,2.44,1.34,3.55,2.04-1.14.25-2.06.41-3.22.53-1.31.08-2.62.12-3.92.1,1.17-.73,2.56-1.74,3.59-2.67ZM1790.51,932.06h0l.15.16c.08.48-.02.82-.1,1.3l-.12-.11c-.1-.32.03-.99.07-1.35ZM1784.13,1019.35c1.27-.13,2-.12,3.12.56-.7.06-2.48-.28-3.12-.56ZM1787.56,1020.18h0s.49.1.49.1l.05.13-.35.27c-.41-.07-.35.03-.52-.19l.33-.31ZM1762.64,992.54l.13-.27h0c.18-.11.46-.3.66-.19.54.28,2.32,1.17,2.65,1.53.24.09.48.18.73.27h0c3.63,1.36,5.15,1.32,9.01,1.35.85,0,2.3.03,3.14.18.58.11,1.48-.18,1.68.14-.78.07-1.33-.02-2.03.05.31.12.42.12.75.18l-.09.1c-1.08.05-2.18.07-3.28.08s-2.21-.02-3.28-.06c-.69-.03-1.56-.02-2.02-.52h0c-.1-.04-1.1-.25-1.36-.33-.98-.3-1.74-.61-2.66-1.01h0c-1.05-.26-1.88-.67-2.85-1.14h0s-.27-.01-.27-.01c-.41-.27-.43-.31-.9-.35ZM1768.64,999.08h0c-.91-.11-4.42-.9-4.96-1.56-.03.02,4.12,1.2,4.77,1.22,3.9.13,8.87,1.07,12.66.36,1.21-.23,4.07-1.73,5.62-2.21-1.2,1.19-5.72,2.91-7.51,2.8-3.51-.22-7.08-.31-10.58-.61ZM1780.68,1018.09c.15-.05.06-.04.27,0-1.05.62-7.56.57-9.19.57-.26-.02-.15.02-.35-.1.25-.13,8.27-.41,9.27-.47h0ZM1774.21,1015.91c-.75.04-1.45.08-2.18-.13.82-.13,3.13-.12,4.11-.14,1.93-.05,3.86-.16,5.79-.32h-.01c.79-.09,1.58-.27,1.95.63l-.08.11c-.18-.17-.6-.62-.83-.59-2.94.41-5.79.44-8.75.44ZM1756.07,999.74c2.64.46,2.76,1.63,5.6,1.39-1.12-.75-2.08-1.02-3.35-1.43.93-.08,1.09-.11,1.99-.35h0c.42,0,3.8,1.75,4.75,2.01,4.91,1.34,9.69,2.34,14.65,3.36-1.98.57-6.51.35-8.73.34-3.8-.19-8.76-.73-12.01-2.8-.99-.63-2.05-1.69-2.9-2.52ZM1769.86,1021.9c-.88.59-4.01,0-5.01-.44v.03c-1.34-.2-2.29-2.51-2.73-3.63,0,0,0,0,0,0h0s0,0,0,0c1.08,1.25,1.47,2.11,2.81,3.41v-.03s.01.03.01.03h0s.2.03.2.03c1.3.22,3.87.18,4.79.61l-.03.08-.22.04.24-.1-.05-.03ZM1761.65,1016.39c-.57-.75-.78-2.4-.87-3.32.44.34.75,2.64.87,3.32ZM1765.68,1024.29c-1.23.24-4.41-.59-5.32-1.48-.06-.06-.07-.14-.07-.22,0-.08.03-.17.04-.26h0c1.76-.24,14.79.16,15.88,1.11l-.07.17-.18.05c-1.33.18-3.52.4-4.84.45-1.06.31-4.32.23-5.44.18ZM1830.91,993.46c-2.2,7.2-4.65,9.14-10.03,13.6h0c-1.23.82-2.78,2.25-4.12,3.13-2.05,1.36-5.43,3.47-7.56,4.47-7.24,3.37-25.63,10.65-33.45,9.31,3.73-.99,8.54-1.23,12.49-2.24,7.09-1.81,13.9-4.48,20.37-7.93,1.87-1,3.46-2.28,5.21-3.38,3.29-2.06,5.88-3.92,8.86-6.38v-.02h.01c.19.17.54.39.75.54h0c1.22-1.08,1.77-1.58,2.73-2.87-.24-.26-.25-.25-.4-.57,0,0,0,0,0,0,0,0,0,0,0,0,.46-.68.93-1.29,1.38-1.98.61-.92,1.23-2.05,1.87-2.93,0,0,0,0,0,0,.26-.58,1.07-2.28,1.1-2.79l-.52.46c.02-.2.44-1.43.52-1.57.47-.83,1.19-4.38,1.77-4.85.46.82-.67,4.97-.98,6ZM1828.33,993.88h0,0l.11.19c-.31,1.13-2.1,3.63-2.83,4.68-.34-.63.4-1.36.79-1.93.66-.97,1.27-1.97,1.93-2.94h0ZM1832.8,979.83c-.26,2.59-2.72,11.04-4.58,12.58.28-.87,1.06-2.23,1.3-2.93.31-.89,2.29-7.33,1.94-7.81-.14.39-.55.78-.85,1.05,0,0,1.96-5.08,2.15-5.64h0c.1.61.1.98.1,1.59,0,.39-.03.78-.06,1.16ZM1831.5,968.01c.96.83,1.14,4.01,1.42,5.02,0,0,0,0,0,0,.27,1.15.15,4.49-.04,5.63,0-.61,0-.98-.1-1.59l-.08-.05c0-.13.26-1.05.31-1.4-.08-.27-.15-.5-.37-.67-1.06.24-1,1.15-1.29,2.03-.02-.1.24-1.85.28-2.05l.07.26c.06,0,.11-.03.16-.08-.04.04-.09.06-.14.07l-.07-.26.07-.81c-.98,1.2-2.5,4.57-3.51,5.19l-.13-.09c-.13-1.6,2.06-4.96,2.62-6.63.47-1.4.58-2.3.82-3.76-.05-.3-.14-.55,0-.82ZM1826.88,955.12h0c.37.75.73,1.64,1.06,2.41,3.27,8.45,4.89,12.29-1.62,19.98-.37.54-1.04,1.04-1.56,1.43h0s0,0,0,0v-1.33h0,0s0-.04,0-.06c0,0,0,0,0,0,0,.02,0,.03,0,.05-.22-1.83-.13-7.05.29-8.81h.01c.21-1.29.45-2.53.92-3.75.96-2.5,1.31-4.72,1.26-7.39-.11-.84-.23-1.67-.35-2.52,0,0,0,0,0,0h0ZM1823.65,981.84c-.16-.35.52-13.22.6-14.63h0c.03-1.06.63-9.37.88-9.88.3.32.43,1.42.39,1.83-.29,2.61-1.01,5.37-1.06,8,.03,1.89-.34,13.59-.81,14.68ZM1825.96,956.98l-.15-.02c-.85-1.29-2.29-3.45-3.28-4.56-1.11-1.24-5.77-7.35-6.63-7.62-.18-.15-.21-.3-.3-.53,0,0,0,0,0,0h0s0,0,0,0c2.19,1.33,11.67,10.33,10.36,12.73ZM1810.8,941.38l.12-.02-.09.03c.55.14.33.57,1.04.31l.04-.14c-.29-.09-.42-.15-.69-.27v-.12l.13-.04c1.14.67,2.6,1.46,3.49,2.42.11.1.67.59.74.68.1.23.13.39.31.54.36.48.75.96,1.06,1.47,0,0-.01-.01-.02-.02,0,.01.01.02.02.03-.49-.47-.93-.88-1.39-1.38h0c-.07.17-.06.31-.07.5l-.11.02c-.71-.69-1.41-1.36-2.16-1.99-.75-.63-1.76-1.31-2.43-2h.04s-.02-.02-.03-.02ZM1803.3,936.41h0c.96.56,3.48,2.06,4.17,2.85,0,0,0,0,0,0,0,0,0-.01,0-.02.63.54,1.53,1.26,2.11,1.81,0,0-.01,0-.02,0,0,0,.01.01.02.01.32.16.31.17.57.42,0,0,0,0,0,0,0,0,0,0,0-.01.71.6,1.16,1.07,1.8,1.75,0,0,0,0-.01,0,0,0,0,0,.01.01.68.64,2.71,1.82,2.97,2.16,0,0,0,0,0,0,.23.19.55.42.79.66.08.08.16.16.22.23l.08.03s0,0,0,0c0,0,0-.01,0-.02.82.69,1.75,1.51,2.47,2.31,0,0-.01,0-.02,0,0,0,.01.01.02.02.35.25.69.78,1.44,1.3l-.1-.17c1.29.78,3.49,4.77,4.19,6.17-1.1-1.08-2.06-2.62-3.13-3.52-1.53-1.3-3.18-2.59-4.72-3.89-1.02-.86-2.23-1.61-3.12-2.61.48.85.56,1.16.81,2.08l-.34-.12c-2.9-.99-3.22-4.17-4.96-6.46-.31-.37-.93-.57-1.23-.94-1.27-1.51-2.59-2.61-4.1-3.88l.09-.17h-.01s-.09.16-.09.16h0c-.45-.27-.6-.36-.99-.7.35.06.75.34,1.08.53ZM1794.08,930.78s0,0,.01.01c1.48.74,5.62,4.44,6.9,5.59l.32-.11.17.13c.67.42,2.26,1.33,2.8,1.79,3.37,2.91,4.53,5.85,6.08,9.71,0,0-.01-.02-.02-.02,0,0,0,.01,0,.02-.79-.85-1.51-1.77-2.15-2.72l-.12.13c4.43,6.54,8.67,13.14,11.13,20.7.38,1.18,1.08,3.06,1.03,4.27l-.09-.09c-.08-1.31-.56-1.84-.92-3.03-2.92-9.56-11.01-22.42-17.76-29.79-1.11-1.21-2.32-2.33-3.6-3.35-1.32-1.07-2.62-1.98-3.78-3.23,0,0-.02,0-.02-.01h.01ZM1797.18,996.23c4.1-2.74,21.52-13.59,25.51-13.15-.06.11-.9.29-1.1.35-1.71.52-3.4,1.15-5.04,1.88-3.54,1.59-6.85,3.68-10.15,5.63-6.1,3.61-12.02,7.05-17.22,11.93-1.88,1.76-5.07,3.19-3.52,6.49l.06.12h-.01c1.89,2.09,5.54,3.26,8.25,2.64,5.54-1.25,11.62-4.28,16.62-6.98,3.68-1.98,11.06-6.21,13.81-9.3,1.44-1.66,2.51-3.61,3.13-5.73.42-1.49.58-3.9-.2-5.31-.57-1.02-1.78-1.28-2.82-1.54-1.1,1.28-1.67,2.26-2.98,3.48-2.28,2.12-6.3,4.27-8.42,6.3-.42,1.53-.69,2.53-1.22,4-1.47-.88-1.88-1.6-3.64-2.25-1.3.38-3.87,1.6-5.27,2.17-3.58,1.44-6.4,2.31-10.09,3.27,1.31-1.02,1.95-1.12,3.52-1.53,1.15-.3,2.37-.7,3.5-1.1,1.38-.49,2.74-1.01,4.09-1.57,1.22-.52,2.81-1.27,4.03-1.63,1.38.4,2.21,1.11,3.33,1.96.08-.55.13-1.14.17-1.7,0-.03,0-.05.01-.07-.11-.73-.39-3.35-.28-3.95.21.26.36,2.37.42,2.95.17-1.05.32-2.11.52-3.15.17.6.4,1.36.52,1.96,4.22-3.02,8.18-5.2,11.26-9.44h.02,0c1.26.12,2.56.34,3.41,1.38.94,1.16.87,3.06.67,4.47-.57,4.16-3.09,7.24-6.35,9.68-5.74,4.3-23.85,15.03-30.67,14.02-1.98-.29-4.16-1.1-5.4-2.76-.05-.06-.09-.13-.13-.19h.01c-.65-.91-.67-2.82,0-3.72.79-1.06,1.96-1.92,2.97-2.78,1.34-1.17,2.7-2.32,4.08-3.44,1.48-1.2,3.02-2.33,4.6-3.39ZM1787.47,1010.18c-.66-.26-1.11-.89-1.53-1.44.58.22,1.17.95,1.53,1.44ZM1789.29,926.13s0,0,0,.01c.6.31,2.36,1.83,2.87,2.32-.26.6-.65,1.26-.96,1.85-.18.26-.47.62-.79.66.41-2.25-.41-2.84-1.12-4.83,0,0,0,0,0,0h0ZM1783.39,918.2c-.46-.71-.71-2.21-.75-3.07,0,0,0-.02-.01-.03h0s.01-.01.01-.01c0,.01,0,.02,0,.04.31.52.63,2.3,1.04,3.24l-.29-.17ZM1786.19,913.49c-.22.04-.15-.02-.25.1.15.44.24.51.12.88l-.14-.16c-.21-.58-.72-1.2-.78-1.62l.31.16c.87-.35,1.22-1.6,2.43-2.57h0s0,0,0,0h.01s0,0,0,0l.3.08c-.03.28-.59.44-.82.72-.57.7-.72,1.58-1.17,2.41ZM1785.77,908.97h0c5.49-.26,4.24,6.65,1.54,9.5l-.09-.06c.51-1.35,1.44-2.02,1.95-3.92.22-.99.17-3.52-.59-4.25-1.03-.99-2.7,1.63-3.17,2.29h-.14c-.42-.44-.84-1.7-1.05-2.29-.2-.01-1.36,1.13-1.69,1.4.81-1.36,1.63-2.31,3.24-2.67Z"/>
  <polygon class="st45" points="1733.87 993.32 1733.86 993.33 1733.87 993.33 1733.87 993.32"/>
  <path class="st45" d="M1750.02,912.64l-5.43,3.08c1.79-.62,3.43-1.19,5.47-2.92-.01-.05-.03-.1-.04-.15Z"/>
  <path class="st39" d="M1779.55,914.95c.35.42,2.11,2.52,2.26,2.9.93.92,4.62,5.97,5.24,7.15,1.01,1.42,1.48,2.49,2.04,4.13h0s0,0,0-.01h.24c-.45-4.4-7.91-13.01-10.83-16.47-2.8-3.33-6.38-7.52-9.55-10.74l-.7.4c.13.12.26.25.39.37,3.81,3.92,7.45,8.04,10.91,12.27Z"/>
  <path class="st45" d="M1732.24,956.76c-.64-1.08-1.27-1.76-2.05-2.74-.8-1-1.55-2.05-2.29-3.1v1.89c.69,1.27,1.37,2.56,2.04,3.83.78.09,1.52.1,2.3.12Z"/>
  <path class="st36" d="M1732.24,956.76c-.64-1.08-1.27-1.76-2.05-2.74-.8-1-1.55-2.05-2.29-3.1v1.89c.69,1.27,1.37,2.56,2.04,3.83.78.09,1.52.1,2.3.12Z"/>
  <path class="st12" d="M1786.7,924.9s.31.1.34.1c-.61-1.18-4.3-6.23-5.24-7.15h0c.33,1.2,2.63,3.05,2.43,3.71-.44-.16-1.22-1.73-1.7-2.18l-.06.1c.46.87,3.27,4.82,4.23,5.42Z"/>
  <path class="st42" d="M1789.09,929.13c0,.63-.03,2.07.09,2.61.41-.54.22-1.93.15-2.62h-.24s0,0,0,.01Z"/>
  <path class="st12" d="M1732.09,950.58c1.01.02,2.53-.01,3.51-.27,7.01-1.84,13.9-4.01,20.66-6.66,3.37-1.32,6.33-2.48,9.41-4.43.65-.41,2.37-1.16,2.84-1.62,1.22-.64,3.74-1.78,4.81-2.46,1.34-.85,3.33-3.08,4.76-4.26,2.08-1.72,4.8-3.02,6.5-5.03.2-.24.25-.46.23-.71.02.25-.03.47-.23.71-1.7,2.01-4.42,3.31-6.5,5.03-1.43,1.18-3.42,3.41-4.76,4.26-1.07.68-3.59,1.82-4.81,2.46.18-1.55,3.78-2.85,5.03-3.64-.41-.37-.81-.72-1.2-1.11-1.46.91-10.3,6.17-11.35,6.19,0,0,0,0,0-.01-.32-.17-.38.01-.64-.33.69-.77,4.23-2.36,5.38-3.05,3.87-2.32,7.62-4.81,11.44-7.22.62-.39,2.51-1.82,3.08-1.79.31.17.32.29.46.62-4.5,2.58-8.92,5.3-13.36,7.99-.82.49-6.17,3.38-6.36,3.77h0c.27-.41,5.55-3.25,6.35-3.75,4.44-2.69,8.86-5.41,13.36-7.99,2.33-1.02,1.81.21,4.06-2.39h0c-.6-.81-1.13-1.77-1.69-2.49l-.06.05c-.38-.2-1.17.08-1.6.2-1.21-1.3-6.85-8.52-7.91-8.45l-.31.4h-.16s0,0,0,0c0,0-.01,0-.02,0h0s0,0,0,0c-.69-.28-1.58-1.02-2.17-1.49-3.04-2.46-6.28-4.65-9.46-6.91l-.78.44,5.83,4.1c2.95,2.1,6.33,4.05,8.79,6.7.93,1,2.75,2.8,3.44,3.95-.25.08-.3,0-.6-.15-.1.37-.21,1.06-.28,1.46-.23-.15-1.22-.77-1.4-.83-1.03-.32-2.02-.38-3.02-.9-1.8-.95-3.42-2.18-5.27-3.07-.28-.14-1.02-.51-1.31-.57-2.43-.54-2.2.53-4.74-.62-.41.41-.66.68-1.21.87-.78.27-1.64.21-2.37-.16-.65-.32-1.5-1.16-.93-1.89.66-.86,2.29-.37,3.28-.5l.05-.18-.17-.23c-.21-.67-.66-1.25-1.07-1.83-.02-.21.02-.11-.17-.28-.86-1.25-2.19-2.36-3.49-3.24h0c1.29.88,2.63,1.99,3.48,3.24-.41-.09-2.57-2.39-3.63-3.15l-5.79,3.28c.01.05.03.1.04.15-2.04,1.74-3.68,2.3-5.47,2.92l-16.66,9.45-.03,21.87c1.14,1.4,2.69,2.72,4.18,3.55ZM1760.68,914.63c-.45-.31-1.05-1.27-1.07-1.83.4.58.86,1.16,1.07,1.83ZM1730.18,948.44c.52-.25.99-.23,1.57-.27h0c.33-.04.85-.04,1.19-.05l.08.15c.06-.02.12-.03.18-.06l-.15.06h.02-.05c-.46.15-.92.18-1.42.22-.54.07-.89.17-1.42.06v-.11Z"/>
  <path class="st45" d="M1759.46,912.51c.19.17.15.07.17.28.41.58.86,1.16,1.07,1.83l.17.23-.05.18c-.99.13-2.62-.36-3.28.5-.57.73.28,1.57.93,1.89.73.37,1.59.43,2.37.16.55-.19.8-.46,1.21-.87,2.54,1.15,2.31.08,4.74.62.29.06,1.03.43,1.31.57,1.85.89,3.47,2.12,5.27,3.07,1,.52,1.99.58,3.02.9.18.06,1.17.68,1.4.83.07-.4.18-1.09.28-1.46,0,0,0,0,0,0-.64-.79-6.09-4.48-7.28-5.31-2.04-1.43-4.3-3.08-6.36-4.51-1.89-1.31-3.69-2.55-5.48-3.83l-2.96,1.68c1.3.88,2.63,1.99,3.49,3.24Z"/>
  <polygon class="st44" points="1773.02 914.6 1773.02 914.6 1773.01 914.6 1773.02 914.6"/>
  <path class="st44" d="M1773.03,914.6h.16l.31-.4c1.06-.07,6.7,7.15,7.91,8.45.43-.12,1.22-.4,1.6-.2l.06-.05c-.56-1.04-2.93-4.51-3.68-5.29,0,0,0,0,0,0l-.32-.07c-1.34-1.12-2.32-2.5-3.5-3.76-.7-.69-1.54-1.27-2.21-1.99-2.42-2.6-4.83-5.2-7.29-7.76l-2.12,1.2c4.07,3.95,8.9,9.12,9.07,9.86Z"/>
  <line class="st2" x1="1779.41" y1="917.11" x2="1779.41" y2="917.11"/>
  <path class="st35" d="M1775.58,913.28c1.18,1.26,2.16,2.64,3.5,3.76l.32.07h.01s-.02-.02-.02-.02c-1.98-2.46-3.98-5.06-6.06-7.43-2.02-2.3-4.15-4.49-6.28-6.67l-.97.55c2.46,2.55,4.87,5.16,7.29,7.76.67.72,1.51,1.3,2.21,1.99Z"/>
  <path class="st12" d="M1770.79,915.93c1.19.83,6.64,4.52,7.28,5.31,0,0,0,0,0,0,.3.14.35.22.6.15-.69-1.15-2.51-2.95-3.44-3.95-2.46-2.65-5.84-4.6-8.79-6.7l-5.83-4.1-1.66.94c1.79,1.28,3.6,2.52,5.48,3.84,2.06,1.43,4.32,3.09,6.36,4.51Z"/>
  <path class="st4" d="M1770.79,915.93c1.19.83,6.64,4.52,7.28,5.31,0,0,0,0,0,0,.3.14.35.22.6.15-.69-1.15-2.51-2.95-3.44-3.95-2.46-2.65-5.84-4.6-8.79-6.7l-5.83-4.1-1.66.94c1.79,1.28,3.6,2.52,5.48,3.84,2.06,1.43,4.32,3.09,6.36,4.51Z"/>
  <path class="st45" d="M1770.78,915.93c1.19.83,6.64,4.52,7.28,5.31,0,0,0,0,0,0,0,0,0,0,0,0-.64-.79-6.09-4.48-7.28-5.31-2.04-1.42-4.3-3.08-6.36-4.51-1.89-1.32-3.69-2.56-5.48-3.84h0c1.79,1.29,3.6,2.53,5.48,3.84,2.06,1.43,4.32,3.08,6.36,4.51Z"/>
  <path class="st3" d="M1770.78,915.93c1.19.83,6.64,4.52,7.28,5.31,0,0,0,0,0,0,0,0,0,0,0,0-.64-.79-6.09-4.48-7.28-5.31-2.04-1.42-4.3-3.08-6.36-4.51-1.89-1.32-3.69-2.56-5.48-3.84h0c1.79,1.29,3.6,2.53,5.48,3.84,2.06,1.43,4.32,3.08,6.36,4.51Z"/>
  <path class="st35" d="M1773.01,914.6s0,0,0,0c0,0,.01,0,.02,0,0,0,0,0,0,0-.17-.74-5-5.91-9.07-9.86l-2.57,1.46c3.18,2.27,6.42,4.46,9.46,6.91.58.47,1.48,1.21,2.17,1.49Z"/>
  <path class="st42" d="M1780.71,927.28c-4.5,2.58-8.92,5.3-13.36,7.99-.8.5-6.08,3.34-6.35,3.76h0s0,0,0,0c0,0,0,0,0,.01,1.05-.02,9.89-5.28,11.35-6.19.39.39.79.74,1.2,1.11-1.25.79-4.85,2.09-5.03,3.64,1.22-.64,3.74-1.78,4.81-2.46,1.34-.85,3.33-3.08,4.76-4.26,2.08-1.72,4.8-3.02,6.5-5.03.2-.24.25-.46.23-.71,0-.08-.02-.17-.04-.26h0s0,0,0,0c-2.25,2.6-1.73,1.37-4.06,2.39Z"/>
  <path class="st37" d="M1761,939.03h0c.19-.4,5.54-3.29,6.36-3.78,4.44-2.69,8.86-5.41,13.36-7.99-.14-.33-.15-.45-.46-.62-.57-.03-2.46,1.4-3.08,1.79-3.82,2.41-7.57,4.9-11.44,7.22-1.15.69-4.69,2.28-5.38,3.05.26.34.32.16.64.33,0,0,0,0,0,0h0Z"/>
  <path class="st35" d="M1755.96,909.27l-.15.09c1.07.76,3.22,3.06,3.63,3.15-.86-1.25-2.19-2.36-3.48-3.24Z"/>
  <path class="st39" d="M1760.68,914.63c-.21-.67-.67-1.25-1.07-1.83.02.56.62,1.52,1.07,1.83Z"/>
  <line class="st1" x1="1733.07" y1="948.27" x2="1733.05" y2="948.27"/>
  <path class="st43" d="M1733.05,948.27l.15-.06c-.06.03-.12.04-.18.06h0s.03,0,.03,0Z"/>
  <path class="st43" d="M1731.6,948.49c.5-.04.96-.07,1.42-.22l-.08-.15c-.34.01-.86.01-1.19.06h0c-.58.03-1.05.01-1.57.26v.11c.53.11.88,0,1.42-.06Z"/>
  <polygon class="st45" points="1739.1 1018.09 1739.11 1018.1 1739.11 1018.1 1739.1 1018.09 1739.1 1018.09"/>
  <polygon class="st45" points="1739.12 1018.1 1739.11 1018.09 1739.11 1018.1 1739.12 1018.1"/>
  <path class="st45" d="M1739.35,1017.14h.01c.04-.71,2.27-7.69,2.64-8.49l.22-.02c.41.21.55.43.85.79,0,0,0,0,0,0-.31-.37-.44-.59-.86-.8l-.22.02c-.37.8-2.6,7.77-2.64,8.49l-.29.19s0,.01,0,.02h0s.29-.19.29-.19h0Z"/>
  <path class="st45" d="M1732.51,1000.63l.52-.34c.12-.64.14-1.49.19-2.16.11-1.2.36-2.38.75-3.53,0,0,0,0,0,0-.39,1.15-.64,2.34-.75,3.54-.05.67-.07,1.52-.19,2.16l-.52.34h.01Z"/>
  <polygon class="st45" points="1732.5 1000.63 1732.49 1000.65 1732.5 1000.64 1732.5 1000.63"/>
  <path class="st45" d="M1745.46,1019.51c.25-.12.23-.13.42-.34h0c-.19.21-.17.22-.42.34l-.52.2h0s.52-.2.52-.2h0Z"/>
  <path class="st45" d="M1740.64,1003.88c-.41-2.61-2.99-4.9-4.49-7.08-.75-1.09-1.55-2.45-2.28-3.47h-.01s0,0,0,0h0s0,.01-.01.02c.73,1.02,1.52,2.36,2.26,3.45,1.5,2.19,4.07,4.48,4.49,7.07h.02s.02,0,.02,0Z"/>
  <path class="st45" d="M1749.01,1017.32v-.02c.5-2.21.65-3.59.65-5.88-.82-.47-2.72-1.54-3.31-2.24.33.12.33.16.65.11-.13-.34-1.07-1.2-1.38-1.52.24,0,1.08.86,1.37,1.07.86.65,1.76,1.24,2.63,1.88-.15-3.01-.73-5.98-1.72-8.83l-.14-.3c-.23-1.22-2.59-6.28-3.58-6.7l-.22-.27c0-.35-.75-1.06-1.03-1.34-.03.91-.01,2.78-.3,3.55-.18-.44.13-3.15.17-3.81-.98-.82-3.38-2.74-4.76-2.42-.17.91.5,3.06.78,3.95l.13.08c1.5.92,1.4,2.68,2.41,4.32-.27.26-.11.19-.48.22-.35-.17-.35-.16-.66-.44h-.21c-.41-.53-.4-1.37-.88-2.16-.41-.71-1.24-4.97-1.37-5.98-.46.05-.58.04-1.01.2l.07.13h0c.14.06.3.09.3.24-.03,3.31-.4,4.87,1.65,7.7-.69-.58-1.15-1.01-1.78-1.65.13.66,1.48,2.3,2.01,2.78l.18.03.2-.2c.23.17.17.06.24.32-.19.14-.22.11-.31.32.7,1.08,1.47,2.12,1.55,3.43h-.01c.22.33.36.36.71.53-.11.54-.59.68-.61,1.18.12.14.34.17.57.15.23-.03.47-.11.63-.2l.15-.04s0-.01,0-.02l-.13.04h0s0,0,0,0h0s0,0,0,0h0,0c-.13-.59-.27-1.03.35-1.35l.2.1c.14.33.06.52-.01.87l-.13-.26-.14.04s0,.01,0,.02l.14-.04h0s0,0,0,0l.13.26-.03.74-.18.02c-.95.11-1.01,0-1.79.85-.18.19-.41.39-.62.55,0,0,0,0,0,0-.02.65-.15,1.47-.36,2.08-.28.27-1.21.99-1.27,1.21v.04s0,0,0,.01c0,0,0,0,.01-.01h0c.06.11.14.24.22.37.47.75,1.17,1.86,1.32,2.48.04.19.01.15.06.2.4-1.51,1.7-5.06,1.8-6.37-.16-.18-.13-.13-.25-.35.24-.06.39-.11.63-.18.27-.23.26-.35.34-.69l.07-.16.02.02h0c.32.45.73,1.59.8,2.13l.61-.08c.14.19.1.09.14.28.37.52,1.06,1.16,1.07,1.73l-.17.23-.18.17v.48c-.21-.11-.32-.18-.53-.31-.05-.22-.08-.44-.09-.67l-.17-.25c-.1.97.27,1.7.33,2.64.04.54-.34.83-.18,1.55l-.21-.02c-.35-.44-.03-1.57-.35-2.02-.21.2-.26.46-.36.74,0,0,0,0,0,.01.09-.28.14-.53.35-.73.32.45,0,1.59.35,2.02l.21.02c.2.77-.17,5.39-.13,6.69-.82.81-1.43.05-2.27.12-.84-.37-2.66-1.94-3.28-2.63h-.01c-.97-.94-1.72-2.23-2.4-3.37h0c.68,1.15,1.43,2.44,2.4,3.37.62.69,2.44,2.26,3.28,2.63,0,0,0,0,.01.01.83-.06,1.44.68,2.26-.12.27,0,.21,0,.47-.09.18-.31.19-.44.28-.79h0s0-.01,0-.01h0c.28-1.21.21-2.74.19-4.01.95,1.99.38,2.12.75,3.47.48-.33,1.35-1.11,1.82-.46,0,.58-.37.92-.73,1.39-.32.48-1.23.74-1.79.64.56.1,1.47-.15,1.79-.64l.17.08.31-.18c.08.3.06.65.16.88,0,0,0,0,0,0,0,0,0,0,0-.01-.1-.23-.08-.57-.16-.88.48-.88,1.05-1.77,1.56-2.67ZM1739.14,996.57h0c.48.79.47,1.64.88,2.17.05.33.11.28,0,.49l-.15-.09c-.39-.9-.55-1.62-.73-2.57ZM1740.44,1001.44l-.07-.14c-.25-.51-.28-.59-.4-1.16.43.3,1.55,1.98,1.47,2.54-.5-.47-.71-.63-1-1.24ZM1742.41,1002.41c-.36-.65-.09-4.48.2-5.24.13.43-.15,4.48-.2,5.24ZM1744.12,1002.12c-.3.02-.52-.16-.79-.31-.05-.19.61-6.22.64-7.16h0s.22.26.22.26c-.01.87.15,6.91-.07,7.21ZM1747.05,1008.14c-.31-.17-1.08-.75-1.29-1.04-.39-.55-.27-.68-.17-1.27h0c1.46.43,1.73.88,1.46,2.31ZM1748.06,1004.54c-.12.37-.16.39-.38.69-.14.16-.26.31-.4.47-.36.06-.2.09-.5-.11-.31-.59-.23-1.23-.19-1.88h.01c.6.04,1.28.2,1.46.83ZM1744.3,1003.54h0c.82-.56,2.55-1.57,3.46-1.94l.14.3c-.57.76-1.26,1.67-2.13,1.84-.55.11-.42.58-.72,1.22l-.13.04c-.22-.48-.43-.97-.63-1.46h.01ZM1744.68,1007.21l.13-.07c.47.08.63.31.82.71-.36-.2-.72-.33-.95-.64ZM1744.97,1010.44l.17-.17h0c.84,1.26,1.51,2.67,2.47,3.91,1.25,1.61,1.46,1.91.67,3.78-.1-.08-.32-.21-.36-.33-.63-1.76-1.31-3.44-2.19-5.1-.27-.51-.52-1.08-.76-1.61v-.48ZM1744.43,1010.64v-.02h0c.21.13.32.2.54.31.24.53.49,1.1.76,1.61.88,1.65,1.56,3.34,2.19,5.1.04.12.26.25.36.33l-.18.34-.16.03c-.54-.83-3.22-6.69-3.51-7.7Z"/>
  <polygon class="st45" points="1735.1 1012.14 1735.1 1012.15 1735.1 1012.14 1735.1 1012.14"/>
  <path class="st45" d="M1736.87,997.01c-.8-1.35-1.72-2.14-2.53-3.91.81,1.78,1.73,2.56,2.53,3.91Z"/>
  <path class="st45" d="M1743.43,1019.45s0,0,0-.01h.01c0-.5,0-1.01-.01-1.52,0,.51,0,1.02,0,1.53h0Z"/>
  <path class="st45" d="M1743.41,1014.13c0-.51,0-1.02,0-1.52h-.01s0,0,0,.01c0,.5,0,1.01,0,1.51Z"/>
  <path class="st45" d="M1736.75,990.96c-1.62.79-1.33.78-2.41,2.06,1.08-1.27.79-1.27,2.41-2.06Z"/>
  <path class="st45" d="M1735.32,1010.76l.19-.28c1.47-1.31,3.89-3.45,5.16-4.85-1.29-.8-3.02-1.56-4.46-2.4v.28s0,0-.01,0v.02s0,0,0,0c.13,1.91.46,3.33.96,5.16-.28.22-.56.43-.82.68l-.61-.85c0,.42.34.88.18,1.15-.19.35-.35.34-.39.8l-.19.28-.09.25-.06-.15-.14-.03-.33.39-.15-.1c-1.13-3.32-2.04-6.33-2.11-9.89h.02l.06-.57s0,0-.01,0h0s0,.03,0,.03l-.06.57c.07,3.56.98,6.57,2.11,9.89l.15.1.33-.39.14.03.06.15.26.35h0s-.26-.35-.26-.35l.09-.25Z"/>
  <path class="st45" d="M1742.17,1005.55l.15-.04c.03-.27.05-.29.13-.56l.13-.04h0s-.14.04-.14.04c-.07.25-.1.27-.12.54h0s0,.01,0,.02l-.15.04c-.15.08-.39.17-.63.2.24-.03.48-.11.64-.2Z"/>
  <polygon class="st45" points="1732.51 1000.63 1732.51 1000.63 1732.51 1000.63 1732.51 1000.63"/>
  <path class="st45" d="M1737.39,1003.33s.02,0,.02,0c-.26-.23-.34-.25-.46-.58,0,0,0,0-.01,0,.13.31.2.35.45.57Z"/>
  <path class="st43" d="M1732.44,1001.21c.07,3.56.98,6.57,2.11,9.89l.15.1.33-.39.14.03.06.15.09-.25.19-.28c.04-.46.2-.45.39-.8.16-.28-.18-.74-.18-1.15v-.02c-.05-.7-.57-2.83-.75-3.74,0,.05-.01.03-.08.16-.23-.3-.44-1.67-.67-2.29-.42-.29-.85-.61-1.26-.92-.14-.08-.23-.31-.32-.48,0,0,0,0,0,0h-.17,0s-.02-.01-.02-.01Z"/>
  <path class="st45" d="M1732.96,1001.7c.41.31.84.63,1.26.92.23.62.44,1.99.67,2.29.07-.13.08-.1.08-.16,0-.01,0-.03,0-.04.04-.38-.01-.27.16-.58l.25.15c.16-.39-.14-.71-.07-1.19h0s-.03-.44-.03-.44c-.89-.47-1.73-1.03-2.64-1.43.1.17.19.4.32.48Z"/>
  <path class="st37" d="M1733.03,1000.29l-.52.34c.93.71,3.76,2.22,4.89,2.7-.25-.22-.32-.26-.45-.57-.13-.13-.71-.45-.91-.56-.61-1.64-.53-3.3.05-4.93-.69-.93-1.39-1.78-2.12-2.68,0,0,0,0,0,0-.39,1.15-.64,2.33-.75,3.53-.05.67-.07,1.52-.19,2.16Z"/>
  <polygon class="st37" points="1732.51 1000.65 1732.52 1000.64 1732.51 1000.63 1732.51 1000.63 1732.51 1000.63 1732.5 1000.63 1732.5 1000.63 1732.5 1000.63 1732.5 1000.64 1732.51 1000.65"/>
  <path class="st44" d="M1735.49,1011.32h0s0-.01,0-.01l.17-.11v.02c.23-.31,3.98-3.58,4.43-3.91,0,0,0,.01,0,.02,0,0,0,0,0,0,.21-.16.44-.36.62-.55.78-.85.84-.74,1.79-.85l.18-.02.03-.74-.13-.26h0s-.13.04-.13.04c-.08.27-.1.29-.13.56l-.15.04c-.16.09-.4.17-.64.2-.23.03-.45,0-.57-.15.02-.5.5-.64.61-1.18-.36-.17-.5-.2-.71-.53h-.21s0,0,0,0h-.04s-1.55-.51-1.55-.51c-.55.45.06.06-.19.59-.42-.04-1.03-.41-1.43-.62h-.01c-.26-.23-.34-.25-.46-.58,0,0,0,0-.01,0,0,0,0,0,0,0,.12.33.2.35.46.58,0,0-.02,0-.02,0-1.13-.48-3.96-1.99-4.89-2.7h0s0,.01,0,.01l-.06.57h0s.17.01.17.01c0,0,0,0,0,0,.92.4,1.75.96,2.64,1.43l.03.45h0c.08.03.18.07.27.11-.09-.03-.18-.07-.26-.1l-.03-.45s0,0-.01,0h.01c.33.18.64.31.92.57v.02c1.44.85,3.17,1.61,4.46,2.4-1.27,1.4-3.69,3.54-5.16,4.85l-.19.28-.09.25.26.35h0s0-.04,0-.04Z"/>
  <path class="st44" d="M1736.19,1003.51s0,0,0,0c0,0,0,0,0,0v-.02c-.11-.07-.24-.14-.38-.19.13.06.26.12.37.2Z"/>
  <path class="st37" d="M1737.43,1003.34h.01c.4.21,1.01.58,1.43.62.25-.53-.37-.14.19-.59,0,0,0,0,0,0-.72-.2-1.38-.38-2.09-.61,0,0,0,0,0,0,.12.33.2.35.46.58Z"/>
  <path class="st12" d="M1736.2,1003.51s0,0,.01,0v-.3c-.28-.26-.59-.39-.92-.56l.03.45c.08.03.17.07.26.1.09.03.16.07.25.11.13.06.27.12.38.19Z"/>
  <polygon class="st12" points="1735.28 1002.64 1735.29 1002.65 1735.29 1002.64 1735.28 1002.64"/>
  <path class="st43" d="M1734.97,1004.72s0,.02,0,.03c.18.9.7,3.04.74,3.74v.02s0,0,0,0c-.04-.71-.58-2.9-.75-3.78Z"/>
  <path class="st6" d="M1734.97,1004.72s0,.02,0,.03c.18.9.7,3.04.74,3.74v.02s0,0,0,0c-.04-.71-.58-2.9-.75-3.78Z"/>
  <path class="st45" d="M1735.37,1004.28l-.25-.15c-.17.31-.12.2-.16.58,0,.01,0,.03,0,.04,0,0,0-.02,0-.03.17.88.71,3.07.75,3.78,0,0,0,0,0,0l.61.85c.26-.25.54-.46.82-.68-.5-1.84-.83-3.26-.96-5.16-.25-.17-.6-.29-.88-.41h0s0-.02,0-.02c-.07.48.23.8.07,1.19Z"/>
  <path class="st11" d="M1735.37,1004.28l-.25-.15c-.17.31-.12.2-.16.58,0,.01,0,.03,0,.04,0,0,0-.02,0-.03.17.88.71,3.07.75,3.78,0,0,0,0,0,0l.61.85c.26-.25.54-.46.82-.68-.5-1.84-.83-3.26-.96-5.16-.25-.17-.6-.29-.88-.41h0s0-.02,0-.02c-.07.48.23.8.07,1.19Z"/>
  <path class="st44" d="M1736.19,1003.52s0,0,0,0c-.1-.08-.23-.14-.37-.2-.09-.04-.16-.07-.25-.11-.09-.04-.18-.07-.27-.1h0s0,.01,0,.01c.28.12.63.24.88.41Z"/>
  <path class="st10" d="M1736.19,1003.52s0,0,0,0c-.1-.08-.23-.14-.37-.2-.09-.04-.16-.07-.25-.11-.09-.04-.18-.07-.27-.1h0s0,.01,0,.01c.28.12.63.24.88.41Z"/>
  <path class="st12" d="M1735.57,1003.21c.09.03.16.07.25.11-.08-.04-.16-.07-.25-.11Z"/>
  <path class="st7" d="M1735.57,1003.21c.09.03.16.07.25.11-.08-.04-.16-.07-.25-.11Z"/>
  <path class="st43" d="M1749.29,1005.65c-1.39-5.45-3.56-11.23-8.46-14.43-5.48-3.58-8.31,2.45-8.34,7.06,0,.37-.13,1.06.26,1.19.08-2.41-.02-3.85,1.11-6.12,0,0,0-.01.01-.02,0,0,0,0,0-.01h0s.01.01.01.01c.73,1.02,1.53,2.38,2.28,3.47,1.5,2.18,4.07,4.47,4.49,7.08,0,0,0,0,0,0h.22c-.08-1.31-.85-2.35-1.55-3.43.09-.21.12-.18.31-.32-.07-.26-.01-.15-.24-.32l-.2.2-.18-.03c-.53-.48-1.88-2.12-2.01-2.78,0,0,0,0,0,0-.04-.07-.08-.13-.12-.2-.8-1.35-1.72-2.13-2.53-3.91,0-.02-.02-.04-.03-.06,0,0,.01-.01.02-.02,1.08-1.28.79-1.27,2.41-2.06.03-.01.05-.02.08-.04h0s-.07-.13-.07-.13c.43-.16.55-.15,1.01-.2.13,1.01.96,5.27,1.37,5.98.48.79.47,1.63.88,2.16h.21c.31.28.31.27.66.44.37-.03.21.04.48-.22-1.01-1.64-.91-3.4-2.41-4.32l-.13-.08c-.28-.89-.95-3.04-.78-3.95,1.38-.32,3.78,1.6,4.76,2.42-.04.66-.35,3.37-.17,3.81.29-.77.27-2.64.3-3.55.28.28,1.03.99,1.03,1.34l.22.27c.99.42,3.35,5.48,3.58,6.7l.14.3c.99,2.85,1.57,5.82,1.72,8.83-.87-.64-1.77-1.23-2.63-1.88-.29-.21-1.13-1.07-1.37-1.07.31.32,1.25,1.18,1.38,1.52-.32.05-.32.01-.65-.11.59.7,2.49,1.77,3.31,2.24,0,2.29-.15,3.67-.66,5.88v.02s.01,0,.01,0h0s0,0,0,0c0,0,0,0,0,0l.19.36c1.07-4.15,1.08-7.82.08-12.02Z"/>
  <polygon class="st37" points="1735.47 1011.62 1735.15 1011.77 1735.14 1011.78 1735.47 1011.62 1735.47 1011.62"/>
  <path class="st37" d="M1740.07,1013.72s0,0,0,0c-.04-.05-.01-.01-.06-.2-.14-.62-.84-1.73-1.32-2.48.47.75,1.17,1.87,1.32,2.49.04.18.02.15.05.2Z"/>
  <path class="st37" d="M1740.1,1007.31c-.45.33-4.2,3.6-4.43,3.91v-.02l-.17.11h0s.16-.1.16-.1v.02c.19.67,2.28,4.03,2.81,4.92.44.51.13,1.06.57,1.27,0,0,0,0,0,0v-.07h.02v-.02s0-.01,0-.02l-.02.02c.03-.25.11-.55.16-.81,0,0,0-.01,0-.02-.05-1.5-1.47-2.82-1.83-4.37h0c.56.64,1.26,1.44,1.77,2.13.06.08.06.75.05.88.08-.04.14-.08.2-.13-.05.05-.11.09-.19.12,0-.14,0-.81-.05-.88-.51-.7-1.21-1.49-1.77-2.13-.21-.12-.13-.06-.27-.27.47-.38.95-.73,1.35-1.18,0,0,0,0,0-.01v-.04c.06-.22.99-.94,1.27-1.21.21-.61.34-1.43.36-2.08,0,0,0-.01,0-.02Z"/>
  <path class="st44" d="M1735.14,1011.8l.33-.16c.33,1.02.54,1.67,1.13,2.56h0s0,0,0,0c.36.51,1.32,2.01,1.8,2.22l.07-.26c.44.51.13,1.06.57,1.27,0,.1.02.2.03.31,0-.11-.02-.21-.03-.31h0s0,0,0,0c-.44-.21-.13-.76-.57-1.27-.53-.89-2.62-4.25-2.81-4.92v-.02l-.16.1h0s0,.04,0,.04l-.02.26h0s-.32.16-.32.16h0c-.04.11-.04.23-.03.36,0,0,0,0,0,0-.01-.12,0-.24.03-.34Z"/>
  <path class="st44" d="M1739.07,1017.8c0,.1.02.2.04.29h0c-.02-.09-.03-.19-.04-.29Z"/>
  <path class="st45" d="M1739.11,1018.1s0,0,0,0l-.48-.02c-.97-.94-1.72-2.22-2.39-3.37h0c.68,1.15,1.43,2.44,2.4,3.38h.01s0,0,0,0l.47.02Z"/>
  <path class="st9" d="M1739.11,1018.1s0,0,0,0l-.48-.02c-.97-.94-1.72-2.22-2.39-3.37h0c.68,1.15,1.43,2.44,2.4,3.38h.01s0,0,0,0l.47.02Z"/>
  <path class="st44" d="M1739.1,1018.09c-.02-.09-.03-.19-.04-.29,0-.02,0-.04,0-.06,0-.11-.02-.21-.03-.31-.44-.21-.13-.76-.57-1.27l-.07.26c-.48-.21-1.44-1.71-1.8-2.22h0s0,0,0,.01l-.36.49c.68,1.15,1.43,2.43,2.39,3.37l.48.02Z"/>
  <path class="st8" d="M1739.1,1018.09c-.02-.09-.03-.19-.04-.29,0-.02,0-.04,0-.06,0-.11-.02-.21-.03-.31-.44-.21-.13-.76-.57-1.27l-.07.26c-.48-.21-1.44-1.71-1.8-2.22h0s0,0,0,.01l-.36.49c.68,1.15,1.43,2.43,2.39,3.37l.48.02Z"/>
  <path class="st37" d="M1736.23,1014.7l.36-.49s0,0,0,0c-.59-.9-.8-1.55-1.13-2.56l-.33.16c-.04.1-.04.22-.03.34,0,0,0,0,0,0,.04.38.26.83.4,1.13.23.48.47.96.72,1.43h0s0,0,0,0Z"/>
  <path class="st43" d="M1737.4,1012.12c.56.64,1.26,1.43,1.77,2.13.05.07.05.74.05.88.07-.03.13-.08.19-.12.15-.14.24-.32.42-.5,0-.02.01-.03.02-.05.17-.27.16-.41.23-.73,0,0,0,0,0-.01-.04-.05,0-.01-.05-.2-.14-.62-.85-1.74-1.32-2.49-.08-.13-.16-.26-.22-.36h0s0,0-.01,0c-.4.44-.88.8-1.35,1.18.14.21.06.15.27.27Z"/>
  <path class="st45" d="M1739.82,1014.51c-.18.18-.27.36-.42.5-.05.05-.12.1-.2.13.01-.13.01-.8-.05-.88-.51-.69-1.21-1.49-1.77-2.13h0c.36,1.56,1.77,2.87,1.83,4.37.22-.66.42-1.33.62-1.99Z"/>
  <polygon class="st12" points="1739.35 1017.14 1739.35 1017.14 1739.35 1017.14 1739.35 1017.14"/>
  <path class="st12" d="M1743.16,1019.44s0,0,.01.01h.26c0-.51,0-1.02,0-1.53,0-.51-.01-1.01-.01-1.52,0,1.01,0,2.02,0,3.04h-.26Z"/>
  <path class="st12" d="M1743.4,1015.64c0-.51,0-1.01,0-1.52,0-.5,0-1.01,0-1.51,0,0,0,0,0-.01h0s0,0,0,0c0,1.01,0,2.02,0,3.03Z"/>
  <path class="st12" d="M1743.07,1011.16c0-.57.02-1.16,0-1.74-.3-.36-.43-.58-.85-.79l-.22.02c-.37.8-2.6,7.78-2.64,8.49l.12.13h0c.14.08.78.45.89.48,0,0,.01,0,.02,0,.4-.1,1.29.27,1.74.43h.01c-.02-.85-.16-1.81-.21-2.63-.06-.93.04-5.59.83-5.97-.09.68.09.89.31,1.58.19.49.26.9.33,1.43h0s0,0,0-.01c0,0,0,0,0-.01,0,0,0,0,0,.01-.07-.53-.14-.93-.33-1.43Z"/>
  <path class="st45" d="M1743.42,1019.44c-.01-1.01,0-2.02,0-3.04,0-.25,0-.51,0-.76,0-1.01-.02-2.02,0-3.03h0s0,0,0,0c-.07-.53-.14-.94-.33-1.43-.22-.69-.4-.9-.31-1.58-.79.38-.89,5.04-.83,5.97.05.82.19,1.78.21,2.62h0s-.01.01-.01.01c-.45-.16-1.35-.53-1.74-.43.71.38,2.32,1.13,2.77,1.68h.26Z"/>
  <path class="st42" d="M1743.4,1012.6h.01c0,.51,0,1.02,0,1.52,0,.51,0,1.01,0,1.52,0,.25,0,.51,0,.76,0,.51,0,1.01.01,1.52,0,.51,0,1.02.01,1.53h0c0,.39.06.54-.1.87-.16-.29-.14-.53-.16-.87,0,0,0,0-.01-.01-.46-.55-2.06-1.3-2.77-1.68,0,0-.01,0-.02,0-.11-.03-.75-.4-.89-.48-.09.33-.12.61-.36.82,0,0,0,0,0,0h0s0,0,0,0c0,0,0,0,0,0h0l-.47-.02s0,0,0,0c.62.69,2.44,2.26,3.28,2.63.84-.07,1.45.69,2.27-.12-.04-1.3.33-5.92.13-6.69l-.21-.02c-.35-.43-.03-1.57-.35-2.02-.21.2-.26.45-.35.73,0,0,0,0,0,.01h0Z"/>
  <polygon class="st42" points="1743.4 1012.61 1743.4 1012.6 1743.4 1012.6 1743.4 1012.61 1743.4 1012.61"/>
  <path class="st12" d="M1739.1,1018.09s0,0,0,0c0,0,0,0,0,0,0,0,0,0,0,0,0,0,0,0,0,0,.24-.21.27-.49.36-.82h0s-.12-.13-.12-.13h-.01s-.29.2-.29.2h-.02v.08h0c0,.11.02.21.03.32,0,.02,0,.04,0,.06,0,.1.02.2.04.29Z"/>
  <polygon class="st12" points="1743.43 1019.45 1743.44 1019.45 1743.43 1019.44 1743.43 1019.45"/>
  <path class="st12" d="M1743.17,1019.45c.02.34,0,.58.16.87.16-.33.1-.48.1-.87h-.26Z"/>
  <path class="st44" d="M1740.07,1013.73c-.07.32-.06.46-.23.73,0,.02-.01.03-.02.05-.2.67-.4,1.34-.62,1.99,0,0,0,.01,0,.02-.05.26-.13.56-.16.81l.02-.02.29-.19c.04-.72,2.27-7.69,2.64-8.49l.22-.02c.42.21.55.43.86.8,0,0,0,0,0,0,.02.58,0,1.17,0,1.74.19.5.26.9.33,1.43,0,0,0,0,0-.01.1-.28.15-.54.36-.74.32.45,0,1.58.35,2.02l.21.02c-.16-.72.22-1.01.18-1.55-.06-.94-.43-1.67-.33-2.64l.17.25c.01.23.04.45.09.67.21.13.32.2.53.31v-.48l.18-.17.17-.23c0-.57-.7-1.21-1.07-1.73-.1.21-.18.37-.29.57-.38.18-.31.23-.64.16l-.07-.14.11-.32.14-.47h0l-.14.47c-1.52-1.21-.73-1.02-.73-2.44l.07-.16h0s-.02-.02-.02-.02l-.07.16c-.08.34-.07.46-.34.69-.24.07-.39.12-.63.18.12.22.09.17.25.35-.11,1.32-1.41,4.86-1.8,6.37,0,0,0,0,0,0,0,0,0,0,0,.01Z"/>
  <path class="st44" d="M1743.35,1008.58l.14-.47c-.07-.54-.48-1.68-.8-2.13l-.07.16c0,1.42-.79,1.23.73,2.44Z"/>
  <path class="st12" d="M1743.35,1008.58l-.11.32.07.14c.33.07.26.02.64-.16.11-.2.19-.36.29-.57-.04-.19,0-.09-.14-.28l-.61.08h0l-.14.47Z"/>
  <path class="st44" d="M1737.13,991.16c0-.15-.16-.18-.3-.25h0s-.05.04-.08.05c-1.62.79-1.33.79-2.41,2.06,0,0-.01.01-.02.02,0,.02.02.04.03.06.81,1.77,1.73,2.56,2.53,3.91.04.07.08.13.12.2,0,0,0,0,0,0,.63.64,1.09,1.07,1.78,1.65-2.05-2.83-1.68-4.39-1.65-7.7Z"/>
  <path class="st41" d="M1747.92,1017.63c.04.12.26.25.36.33.79-1.87.58-2.17-.67-3.78-.96-1.24-1.63-2.65-2.47-3.9h0s-.17.16-.17.16v.48c.24.53.49,1.1.76,1.61.88,1.66,1.56,3.34,2.19,5.1Z"/>
  <path class="st37" d="M1747.14,1020.18l-.17-.08c-.32.49-1.23.74-1.79.64,0,0,0,0,0,0-.04-.65.33-.35.28-1.23l-.52.2h0c-.09.36-.1.49-.28.8-.26.09-.2.09-.47.09-.82.81-1.42.06-2.26.12,0,0,0,0-.01,0,.8.59,1.28.9,2.23,1.23.69.21,1.5.05,2.17-.15.56-.16.93-.49,1.3-.91,0,0,0,0,0,0-.1-.23-.08-.58-.16-.88l-.31.18ZM1746.31,1021.79c-.67.2-1.48.36-2.17.15.36-.22,1.77-.35,2.17-.15Z"/>
  <path class="st44" d="M1746.31,1021.79c-.4-.2-1.81-.07-2.17.15.69.21,1.5.05,2.17-.15Z"/>
  <path class="st44" d="M1743.97,994.64h0c-.03.95-.69,6.98-.64,7.17.27.15.49.33.79.31.22-.3.06-6.34.07-7.21l-.22-.27Z"/>
  <path class="st44" d="M1745.05,1004.96c.3-.64.17-1.11.72-1.22.87-.17,1.56-1.08,2.13-1.84l-.14-.3c-.91.37-2.64,1.38-3.46,1.95h0s-.01-.01-.01-.01c.2.49.41.98.63,1.46l.13-.04Z"/>
  <path class="st42" d="M1748.1,1018.31l.18-.34c-.1-.08-.32-.21-.36-.33-.63-1.76-1.31-3.45-2.19-5.1-.27-.51-.52-1.08-.76-1.61-.22-.11-.33-.18-.54-.31h0v.02c.29,1.01,2.97,6.87,3.51,7.7l.16-.03Z"/>
  <path class="st42" d="M1745.46,1019.51h0c.05.88-.32.58-.28,1.23,0,0,0,0,0,0,.56.1,1.47-.16,1.79-.64.36-.47.73-.81.73-1.39-.47-.65-1.34.13-1.82.46h0c-.19.21-.17.22-.42.34Z"/>
  <polygon class="st37" points="1744.94 1019.71 1744.94 1019.71 1744.94 1019.71 1744.94 1019.71"/>
  <path class="st37" d="M1745.88,1019.17c-.37-1.35.2-1.48-.75-3.47.02,1.27.09,2.8-.19,4.01l.52-.2c.25-.12.23-.13.42-.34Z"/>
  <path class="st44" d="M1749.01,1017.32c-.51.9-1.08,1.79-1.56,2.67.08.31.06.65.16.88,0,0,0,0,0,.01.84-.94,1.18-2.03,1.6-3.2h0s-.19-.37-.19-.37c0,0,0,0,0,0Z"/>
  <polygon class="st44" points="1749.02 1017.3 1749.02 1017.31 1749.03 1017.3 1749.02 1017.3"/>
  <polygon class="st37" points="1742.17 1005.53 1742.17 1005.53 1742.17 1005.53 1742.17 1005.53"/>
  <polygon class="st37" points="1742.18 1005.53 1742.17 1005.53 1742.18 1005.54 1742.18 1005.53"/>
  <path class="st37" d="M1742.44,1004.95s0-.01,0-.02l.14-.04.13.26c.07-.35.15-.54.01-.87l-.2-.1c-.63.32-.48.76-.35,1.35l.13-.04h0c.03-.27.05-.3.12-.54Z"/>
  <path class="st41" d="M1740.02,998.74c-.41-.53-.4-1.38-.88-2.17h0c.18.95.34,1.67.73,2.57l.15.09c.11-.21.05-.16,0-.49Z"/>
  <path class="st12" d="M1746.6,1003.72h0s-.01-.01-.01-.01c-.04.65-.12,1.29.19,1.88.3.2.14.17.5.11.14-.16.26-.31.4-.47.22-.3.26-.32.38-.69-.18-.63-.86-.79-1.46-.82Z"/>
  <path class="st37" d="M1745.59,1005.83h0c-.1.59-.22.72.17,1.27.21.29.98.87,1.29,1.04.27-1.43,0-1.88-1.46-2.31Z"/>
  <path class="st42" d="M1742.41,1002.41c.05-.76.33-4.81.2-5.24-.29.76-.56,4.59-.2,5.24Z"/>
  <path class="st44" d="M1739.97,1000.14c.12.57.15.65.4,1.16l.07.14c.29.61.5.77,1,1.24.08-.56-1.04-2.24-1.47-2.54Z"/>
  <path class="st12" d="M1744.81,1007.14l-.13.07c.23.31.59.44.95.64-.19-.4-.35-.63-.82-.71Z"/>
  <path class="st12" d="M1755.42,993.67s0,0-.01,0c0,0,0,.01,0,.02h0Z"/>
  <path class="st12" d="M1758.05,985.34l-.18-.02c-1.2-.13-2.71-.62-3.87-.92-3.05-.79-6.05-1.79-9.24-1.49-.4.03-1.43.02-1.75.16-.09.53,2.01,2.67,2.49,3.3,1.62,2.14,2.89,4.79,5.45,5.97,1.46.65,2.92.54,4.46,1.32-.12-.78-.42-1.53-.08-2.06,0-.01-.02-.03-.03-.04-.75-1.12-1.34-1.93-1.85-3.18h.04,0c1.22.32,2.63.78,3.86,1.14,0,0,0,0,0,0l.28-.26c.93-.23,5.25.9,6.57,1.09-.86-1.08-4.41-4.24-5.6-4.81-.32.05-.19.04-.54-.18-.01,0-.01,0-.02-.02h0Z"/>
  <path class="st40" d="M1826.48,974.44c-.2.3-.3.34-.31.65h0c.01-.3.11-.34.31-.64,0,0,0,0,0,0Z"/>
  <path class="st40" d="M1824.75,977.55s0,.04,0,.06c.01-.3.04-.6.07-.9l.09.02-.1-.03c-.03.28-.05.57-.07.85Z"/>
  <path class="st40" d="M1825.97,965.04c-.47,1.22-.71,2.46-.92,3.75l.24-.05.14-.45h.01c.27.91.15,1.26.88,1.98.37.37.64,1.16.83,1.66v.11c-.13.7-.63,1.76-.68,2.24.05-.48.55-1.54.69-2.23h0,0v-.11h0c-.19-.5-.46-1.29-.83-1.66-.73-.72-.61-1.07-.88-1.97.95-2.97,1.79-4.8,2.23-7.94,0-.02,0-.03-.01-.05-.07-.41-.18-2.39.02-2.71h.01c.78,2.37,2.18,5.69,2.45,8.04h0c.1.67.13,1.25.11,1.79-.06,1.61-.63,2.81-1.5,4.62-.3.62-.76,1.61-1.12,2.16l-.37.05c-.26.35-.57.78-.87,1.08h0c-.58.42-1.14.7-1.28,1.39h.01l-.02.16c.4.13,1.02.28,1.22.61-.37.54-1.04,1.04-1.56,1.43h0c.52-.39,1.19-.89,1.56-1.43,6.51-7.69,4.89-11.53,1.62-19.98-.33-.77-.69-1.66-1.06-2.4.12.84.24,1.68.35,2.52.05,2.67-.3,4.89-1.26,7.39Z"/>
  <polygon class="st40" points="1824.75 977.55 1824.75 977.55 1824.75 977.55 1824.75 977.55 1824.75 977.55"/>
  <polygon class="st40" points="1824.76 977.61 1824.76 977.61 1824.76 977.61 1824.76 977.61"/>
  <path class="st40" d="M1826.88,955.12h0s0,.01,0,.01h0Z"/>
  <path class="st40" d="M1827.71,973.09s0,.02,0,.03l.12-.07c.63-1.11,1.85-3.66,2.09-4.85v-.02h-.01c-.24,1.2-1.46,3.75-2.09,4.85l-.11.06Z"/>
  <path class="st5" d="M1827.71,973.09s0,.02,0,.03l.12-.07c.63-1.11,1.85-3.66,2.09-4.85v-.02h-.01c-.24,1.2-1.46,3.75-2.09,4.85l-.11.06Z"/>
  <path class="st40" d="M1827.68,960.32h.01s0,.02,0,.03c.29,1.22.41,1.93.79,3.2-1.06,2.52-.6,3.07-.86,5.54,0,0,0,.01,0,.02.03,1.08-.02,2.45.23,3.46.46-1,.57-2.06.44-3.1-.04-.27-.02-.45.15-.65.34.1.32.08.54.35.13.5-.07.63-.14,1.12.4-.46.33-1.46,1.07-2.13h.01c.36-.67-.19-1.95.24-2.52-.27-2.35-1.67-5.67-2.45-8.04h-.01c-.2.32-.09,2.3-.02,2.71,0,.02,0,.03.01.05,0,0,0-.02,0-.03,0,0,0-.02,0-.03Z"/>
  <path class="st23" d="M1827.68,960.32h.01s0,.02,0,.03c.29,1.22.41,1.93.79,3.2-1.06,2.52-.6,3.07-.86,5.54,0,0,0,.01,0,.02.03,1.08-.02,2.45.23,3.46.46-1,.57-2.06.44-3.1-.04-.27-.02-.45.15-.65.34.1.32.08.54.35.13.5-.07.63-.14,1.12.4-.46.33-1.46,1.07-2.13h.01c.36-.67-.19-1.95.24-2.52-.27-2.35-1.67-5.67-2.45-8.04h-.01c-.2.32-.09,2.3-.02,2.71,0,.02,0,.03.01.05,0,0,0-.02,0-.03,0,0,0-.02,0-.03Z"/>
  <polygon class="st40" points="1826.48 974.45 1826.48 974.44 1826.48 974.44 1826.48 974.45 1826.48 974.45"/>
  <polygon class="st22" points="1826.48 974.45 1826.48 974.44 1826.48 974.44 1826.48 974.45 1826.48 974.45"/>
  <path class="st40" d="M1827.64,974.22l-.37.05c-.26.35-.57.78-.87,1.08h0s0,0,0,0h0c.3-.29.61-.72.87-1.07l.37-.05c.36-.55.82-1.54,1.12-2.16.87-1.81,1.44-3.01,1.5-4.62-.06,1.61-.63,2.81-1.5,4.62-.3.62-.76,1.61-1.12,2.16Z"/>
  <path class="st19" d="M1827.64,974.22l-.37.05c-.26.35-.57.78-.87,1.08h0s0,0,0,0h0c.3-.29.61-.72.87-1.07l.37-.05c.36-.55.82-1.54,1.12-2.16.87-1.81,1.44-3.01,1.5-4.62-.06,1.61-.63,2.81-1.5,4.62-.3.62-.76,1.61-1.12,2.16Z"/>
  <path class="st12" d="M1827.29,972.14c.01.56-.03.87-.1,1.42-.21.29-.46.65-.71.89h0c-.2.3-.3.34-.31.64l.23.25s0,0,0,0h0c.3-.29.61-.72.87-1.07l.37-.05c.36-.55.82-1.54,1.12-2.16.87-1.82,1.44-3.01,1.5-4.62.02-.54-.01-1.12-.11-1.79h0c-.43.57.12,1.85-.24,2.53h.01v.02c-.24,1.19-1.46,3.74-2.09,4.85l-.12.07s0-.02,0-.03h-.01c.04-.26.03-.26.14-.5,0,0,0,0,0-.01-.25-1.01-.21-2.39-.23-3.46-.64,1.41-.18,1.59-.45,2.83h0v.11h0l.13.09Z"/>
  <polygon class="st0" points="1827.16 972.05 1827.16 972.05 1827.16 972.05 1827.16 972.05"/>
  <path class="st0" d="M1826.48,974.44s0,0,0,0c0,0,0,0,0,0,.25-.24.5-.6.71-.89.07-.55.11-.86.1-1.42l-.13-.09c-.14.69-.63,1.75-.69,2.23,0,.06,0,.12,0,.16Z"/>
  <path class="st35" d="M1829.9,968.17c-.74.67-.67,1.67-1.07,2.13.07-.49.27-.62.14-1.12-.22-.27-.2-.25-.54-.35-.17.2-.19.38-.15.65.14,1.04.02,2.1-.44,3.1,0,0,0,0,0,.01-.11.24-.1.24-.14.51h.01s.11-.07.11-.07c.63-1.1,1.85-3.65,2.09-4.85h0s-.01-.01-.01-.01Z"/>
  <path class="st40" d="M1827.23,970.59c0-.38.05-.78.37-1.5h0c.27-2.48-.19-3.03.86-5.54-.37-1.26-.5-1.96-.79-3.18-.44,3.14-1.28,4.97-2.23,7.94.27.9.15,1.25.88,1.97.37.37.64,1.16.83,1.66.07-.31.09-.55.09-.77,0-.21,0-.4,0-.59Z"/>
  <path class="st18" d="M1827.23,970.59c0-.38.05-.78.37-1.5h0c.27-2.48-.19-3.03.86-5.54-.37-1.26-.5-1.96-.79-3.18-.44,3.14-1.28,4.97-2.23,7.94.27.9.15,1.25.88,1.97.37.37.64,1.16.83,1.66.07-.31.09-.55.09-.77,0-.21,0-.4,0-.59Z"/>
  <path class="st40" d="M1827.61,969.09s0,.02,0,.02c0,0,0-.01,0-.02.26-2.47-.2-3.02.86-5.54-.39-1.27-.51-1.98-.79-3.2,0,0,0,.02,0,.03.29,1.22.41,1.92.79,3.18-1.05,2.51-.59,3.06-.86,5.54Z"/>
  <path class="st25" d="M1827.61,969.09s0,.02,0,.02c0,0,0-.01,0-.02.26-2.47-.2-3.02.86-5.54-.39-1.27-.51-1.98-.79-3.2,0,0,0,.02,0,.03.29,1.22.41,1.92.79,3.18-1.05,2.51-.59,3.06-.86,5.54Z"/>
  <path class="st20" d="M1827.61,969.09s0,.02,0,.02c0,0,0-.01,0-.02.26-2.47-.2-3.02.86-5.54-.39-1.27-.51-1.98-.79-3.2,0,0,0,.02,0,.03.29,1.22.41,1.92.79,3.18-1.05,2.51-.59,3.06-.86,5.54Z"/>
  <path class="st40" d="M1827.24,971.17c0-.21,0-.4,0-.59,0,.19.01.37,0,.59Z"/>
  <path class="st21" d="M1827.24,971.17c0-.21,0-.4,0-.59,0,.19.01.37,0,.59Z"/>
  <path class="st24" d="M1827.24,971.17c0-.21,0-.4,0-.59,0,.19.01.37,0,.59Z"/>
  <path class="st40" d="M1827.68,960.32h0s0,.02,0,.03c0,0,0-.02,0-.03h-.01Z"/>
  <path class="st17" d="M1827.68,960.32h0s0,.02,0,.03c0,0,0-.02,0-.03h-.01Z"/>
  <path class="st26" d="M1827.68,960.32h0s0,.02,0,.03c0,0,0-.02,0-.03h-.01Z"/>
  <path class="st12" d="M1827.61,969.12s0-.02,0-.02h0c-.32.71-.37,1.12-.37,1.5,0,.19.01.37,0,.59s-.02.46-.09.77c.27-1.23-.19-1.42.45-2.83Z"/>
  <path class="st32" d="M1827.61,969.12s0-.02,0-.02h0c-.32.71-.37,1.12-.37,1.5,0,.19.01.37,0,.59s-.02.46-.09.77c.27-1.23-.19-1.42.45-2.83Z"/>
  <path class="st45" d="M1825.05,968.8l.25-.05c-.62,2.45-.18,5.45-.35,7.98l-.13-.03h0s.1.03.1.03h.04s.15,0,.15,0c.14-.69.71-.97,1.28-1.4h0s0,0,0,0l-.23-.25h0c.01-.31.11-.35.31-.65h0s0,0,0,0c-.01-.04-.01-.1,0-.16.05-.48.54-1.54.68-2.24v-.11c-.19-.5-.46-1.29-.83-1.66-.73-.72-.61-1.07-.88-1.97h0s-.01-.01-.01-.01l-.14.45-.24.05h-.01c-.42,1.76-.51,6.98-.29,8.81,0-.02,0-.03,0-.05h0c-.21-1.88-.12-7.01.3-8.75Z"/>
  <path class="st35" d="M1824.75,977.55h0s0,.03,0,.05h0s0-.03,0-.05Z"/>
  <path class="st35" d="M1824.82,976.7l.13.03c.17-2.53-.27-5.53.35-7.98l-.25.05c-.42,1.74-.51,6.87-.3,8.75,0,0,0,0,0,0,.02-.28.04-.57.07-.85h0Z"/>
  <path class="st0" d="M1826.32,977.51c-.2-.33-.82-.48-1.22-.61l.02-.16h-.2s-.09-.03-.09-.03c-.03.3-.06.6-.07.9h0v1.33s0,0,0,0c.52-.39,1.19-.89,1.56-1.43Z"/>
  <path class="st0" d="M1758,990.88h0s.02.02.02.02h0c.71.28,1.18.53,1.85.92,1.04,2.56,1.64,3.45,3.48,5.6-.01-.02-.03-.05-.04-.08-1.79-2.1-2.39-3-3.42-5.53-.68-.4-1.16-.65-1.89-.93Z"/>
  <path class="st0" d="M1762.13,992.63l.1-.39c-.17.02-.21.02-.25.05.03-.02.08-.02.23-.04l-.1.39.15.06.36-.16h0s-.34.15-.34.15l-.15-.06Z"/>
  <path class="st0" d="M1753.49,988.39h0s-.04-.01-.04-.01c.51,1.25,1.1,2.06,1.85,3.18,0,.01.02.03.03.04,2.79,4.13,4.31,7.33,9.6,8.22,1,.17,4.29.61,5.17.22-.18-.4-1.06-.46-1.48-.52h-.03c-3.49-1.11-5.46-1.14-7.61-4.3,0,0,0-.01,0-.02-1.84-.43-3.83-2.64-3.9-4.5h-.01c-.26-.16-.4-.28-.64-.46h0s-.01-.01-.02-.02h0c-.31-.22-.99-.62-1.08-.85.41.09,1.79,1.01,2.58,1.24.09-.24.02-.14.2-.3,1.34.24,2.61.83,4.16,1.05.93.13,4.1.38,4.67.65-1.52-.08-3.04-.24-4.55-.49h0s0,.01,0,.01h0c1.5.25,3.02.41,4.53.49.57.17,1.53.23,2.15.3,3.2.38,6.48.43,9.65.99,1.48.26,2.96,1.29,4.32,1.87,1.22.56,2.62,1.04,3.81,1.62l-.06-.22c-.47-.33-7.59-3.87-7.76-3.89-7.45-.9-14.31-1.3-21.67-3.18,0,0,0,0,0,0-1.23-.36-2.64-.82-3.86-1.13Z"/>
  <path class="st40" d="M1758.12,990.51c1.5.47,2.75.73,4.27,1.03h0c1.51.24,3.03.4,4.55.48-.57-.27-3.74-.52-4.67-.65-1.55-.22-2.82-.81-4.16-1.05-.18.16-.11.06-.2.3-.79-.23-2.17-1.15-2.58-1.24.09.23.77.63,1.08.85h0s.01,0,.02.02h0c.5.18,1.1.39,1.58.64h0c.73.27,1.21.52,1.89.92,1.03,2.53,1.63,3.43,3.42,5.53.02.02.04.04.06.07-.58-1.28-2.06-3.59-1.58-4.92.13-.12.16-.17.19-.2.04-.03.08-.03.25-.05l-.1.39.15.06.34-.15h.02s.13-.28.13-.28l-.4-.39h0c-1.28-.54-2.6-.46-4.25-1.36Z"/>
  <path class="st42" d="M1762.38,991.54c-1.52-.3-2.77-.56-4.27-1.03,1.65.9,2.97.82,4.25,1.37h0s.02-.34.02-.34h0s0,0,0,0Z"/>
  <path class="st42" d="M1757.99,990.89c-.48-.25-1.07-.46-1.58-.65h0c.24.19.38.31.64.46h.01s0,0,0,0h-.01s0,0,0,0h.01s0,0,0,0l.88.38s0,0,0,0l.06-.17h0s-.02-.01-.02-.02Z"/>
  <path class="st39" d="M1757.07,990.7s0,0,0,.01c.07,1.86,2.06,4.07,3.9,4.5.02,0,.03.01.05.02-.59-1.01-.89-1.84-1.28-2.93-.66-.5-1.07-.82-1.79-1.22,0,0,0,0,0,0l-.88-.38Z"/>
  <polygon class="st39" points="1757.07 990.69 1757.06 990.69 1757.06 990.69 1757.07 990.7 1757.07 990.69"/>
  <path class="st44" d="M1730.86,965.12c.34.02,13.6,10.3,15.22,11.47l7.5,5.49c.97.7,3.69,2.55,4.47,3.26h0s.01,0,.02.02c.35.22.22.22.54.18-.14-.24-11.24-8.64-12.47-9.57-5-3.81-9.39-6.31-12.52-12.3-.3-.57-3.49-1.98-5.73-2.9v3.02c1.1.76,2.17,1.46,2.44,1.61.27-.08.29-.12.53-.28Z"/>
  <path class="st12" d="M1779.71,1004.72c-4.96-1.02-9.74-2.02-14.65-3.36-.95-.26-4.33-2.02-4.75-2h0c-.9.23-1.06.26-1.99.34,1.27.41,2.23.68,3.35,1.43-2.84.24-2.96-.93-5.6-1.39.85.83,1.91,1.89,2.9,2.52,3.25,2.07,8.21,2.61,12.01,2.8,2.22.01,6.75.23,8.73-.34Z"/>
  <path class="st37" d="M1820.84,1007s.01-.02.01-.03c.13-.54,2.02-1.95,2.57-2.4,0,0,.01-.01.02-.01-.21-.15-.56-.37-.75-.54h-.01v.02c-2.98,2.46-5.57,4.32-8.86,6.38-1.75,1.1-3.34,2.38-5.21,3.38-6.47,3.45-13.28,6.12-20.37,7.93-3.95,1.01-8.76,1.25-12.49,2.24,7.82,1.34,26.21-5.94,33.45-9.31,2.13-1,5.51-3.11,7.56-4.47,1.34-.88,2.89-2.31,4.12-3.13h0l-.04-.06Z"/>
  <path class="st0" d="M1785.54,1009.57s0-.01,0-.02h-.01c.04.07.08.13.13.19,1.24,1.66,3.42,2.47,5.4,2.76,6.82,1.01,24.93-9.72,30.67-14.02,3.26-2.44,5.78-5.52,6.35-9.68.2-1.41.27-3.31-.67-4.47-.85-1.04-2.15-1.26-3.41-1.39h0s-.02.01-.02.01c-3.08,4.24-7.04,6.42-11.26,9.44-.12-.6-.35-1.36-.52-1.96-.21,1.04-.36,2.1-.52,3.15,0,0,0,.02,0,.03-.03.36-.07.64-.13,1,0,0,0,.03,0,.03h-.01s0-.02,0-.03c0,0,0-.02,0-.03,0,.03,0,.05-.01.07-.04.56-.09,1.15-.17,1.7-1.12-.85-1.95-1.56-3.33-1.96-1.22.36-2.81,1.11-4.03,1.63-1.35.56-2.71,1.08-4.09,1.57-1.13.4-2.35.8-3.5,1.1-1.57.41-2.21.51-3.52,1.53,3.69-.96,6.51-1.83,10.09-3.27,1.4-.57,3.97-1.79,5.27-2.17,1.76.65,2.17,1.37,3.64,2.25.53-1.47.8-2.47,1.22-4,2.12-2.03,6.14-4.18,8.42-6.3,1.31-1.22,1.88-2.2,2.98-3.48,1.04.26,2.25.52,2.82,1.54.78,1.41.62,3.82.2,5.31-.62,2.12-1.69,4.07-3.13,5.73-2.75,3.09-10.13,7.32-13.81,9.3-5,2.7-11.08,5.73-16.62,6.98-2.72.62-6.36-.55-8.25-2.63l-.17.07h0Z"/>
  <path class="st44" d="M1803.31,936.42l-.09.17c1.51,1.27,2.83,2.37,4.1,3.88.3.37.92.57,1.23.94,1.74,2.29,2.06,5.47,4.96,6.46l.34.12c-.25-.92-.33-1.23-.81-2.08.89,1,2.1,1.75,3.12,2.61,1.54,1.3,3.19,2.59,4.72,3.89,1.07.9,2.03,2.44,3.13,3.52-.7-1.4-2.9-5.39-4.19-6.17l.1.17c-.75-.52-1.09-1.05-1.44-1.3,0,0-.01-.01-.02-.02-.48-.09-2.33-1.83-2.45-2.29,0,0,0,0,0,0l-.08-.03c-.06-.08-.14-.15-.22-.23.08.07.15.15.21.22-.54-.02-.81-.43-1-.88-.26-.34-2.3-1.53-2.97-2.16,0,0,0,0-.01-.01-.68.03-1.64-1.11-1.78-1.73,0,0,0,0,0,0-.26-.25-.25-.26-.57-.42,0,0-.01-.01-.02-.01-.64-.11-1.92-1.12-2.09-1.79,0,0,0,0,0,0-.69-.79-3.21-2.29-4.17-2.85h0s.01.01.01.01Z"/>
  <path class="st35" d="M1811.93,943.23s0,0,.01,0c-.64-.68-1.09-1.15-1.8-1.75,0,0,0,0,0,.01.14.62,1.1,1.76,1.78,1.73Z"/>
  <path class="st35" d="M1818.46,948.61s.01,0,.02,0c-.72-.8-1.65-1.62-2.47-2.31,0,0,0,.01,0,.02.11.46,1.97,2.2,2.45,2.29Z"/>
  <path class="st35" d="M1809.56,941.06s.01,0,.02,0c-.58-.55-1.48-1.27-2.11-1.81,0,0,0,.01,0,.02.16.67,1.45,1.68,2.09,1.79Z"/>
  <path class="st35" d="M1815.92,946.28c-.06-.07-.13-.15-.21-.22-.24-.23-.56-.47-.79-.66,0,0,0,0,0,0,.19.45.46.86,1,.88Z"/>
  <path class="st12" d="M1737.99,978.84c.83.74,1.65,1.81,2.52,2.45.53.34,1.57,1.03,2.18.77.07-.22.1-.15,0-.34-.41-.81-.02-1.33.03-2.22.12-2.17.58-4.86-1.79-6.02-.26-.13-.61-.2-.88-.23h0c-.5.87-.96,1.86-1.42,2.64-.64.17-1.56.27-2.05.53-.44.78.86,1.93,1.41,2.42Z"/>
  <polygon class="st45" points="1735.34 959.59 1735.34 959.59 1735.34 959.59 1735.34 959.59"/>
  <polygon class="st31" points="1735.34 959.59 1735.34 959.59 1735.34 959.59 1735.34 959.59"/>
  <path class="st45" d="M1760.01,973.86c-3.72-2.45-7.47-4.92-11.42-7-1.87-.99-3.75-1.98-5.61-3-1.23-.68-2.72-1.4-3.81-2.28-.41-.3-.52-.88-.3-1.32h0c.21-.07.27-.03.49,0,.07-.25.07-.28.11-.54-1.39.02-2.74.06-4.12-.13-.41.83.6.75.88,1.46l-.04.09c5.62,3.83,12.26,6.08,17.97,9.36,5.98,3.44,11.96,8.17,17.76,12l.17-.29c-3.72-3.07-8.05-5.69-12.08-8.35Z"/>
  <path class="st28" d="M1760.01,973.86c-3.72-2.45-7.47-4.92-11.42-7-1.87-.99-3.75-1.98-5.61-3-1.23-.68-2.72-1.4-3.81-2.28-.41-.3-.52-.88-.3-1.32h0c.21-.07.27-.03.49,0,.07-.25.07-.28.11-.54-1.39.02-2.74.06-4.12-.13-.41.83.6.75.88,1.46l-.04.09c5.62,3.83,12.26,6.08,17.97,9.36,5.98,3.44,11.96,8.17,17.76,12l.17-.29c-3.72-3.07-8.05-5.69-12.08-8.35Z"/>
  <polygon class="st45" points="1735.34 959.59 1735.35 959.59 1735.35 959.59 1735.34 959.59"/>
  <polygon class="st27" points="1735.34 959.59 1735.35 959.59 1735.35 959.59 1735.34 959.59"/>
  <path class="st42" d="M1738.87,960.26h0c-.22.44-.11,1.02.3,1.32.47-.06,1.16-.09,1.53-.3l.02-.17c-.66-.29-1.21-.34-1.79-.58l-.06-.27Z"/>
  <path class="st12" d="M1738.87,960.26h0s.06.27.06.27c.58.24,1.13.29,1.79.58-.18-.74-.6-1.07-1.25-1.39h0c-.04.26-.04.29-.11.54-.22-.03-.28-.07-.49,0Z"/>
  <path class="st41" d="M1769.08,978.47c.58.42,2.65,1.98,3.2,2.19-2.26-2.5-5.3-4.94-7.73-7.35-1.32-1.31-3.06-2.71-4.48-3.95-1.74-1.05-8.76-4.4-10.28-4.58h0c2.43,2.29,5.18,3.19,7.96,5.2,3.85,2.78,7.51,5.69,11.34,8.49Z"/>
  <path class="st35" d="M1804.27,938.19c3.36,2.9,4.53,5.84,6.07,9.69,0,0,.01.02.02.02-1.55-3.86-2.71-6.8-6.08-9.71-.54-.46-2.13-1.37-2.8-1.79,0,0,0,0,0,.01.68.42,2.25,1.32,2.78,1.78Z"/>
  <path class="st35" d="M1801.47,937.37c6.75,7.37,14.84,20.23,17.76,29.79.36,1.19.84,1.72.92,3.03l.09.09c.05-1.21-.65-3.09-1.03-4.27-2.46-7.56-6.7-14.16-11.13-20.7l.12-.13s0,0,0,0l-.13.14c-2.46-3.4-4.28-5.84-7.08-8.92h0c-1.27-1.15-5.42-4.85-6.9-5.6,1.16,1.24,2.46,2.16,3.78,3.23,1.28,1.02,2.49,2.14,3.6,3.35Z"/>
  <path class="st35" d="M1794.08,930.78h-.01s.02,0,.02.01c0,0,0,0-.01-.01Z"/>
  <path class="st41" d="M1804.27,938.19c-.54-.46-2.11-1.36-2.78-1.78.28.53,2.27,2.75,2.8,3.47,1.31,1.72,2.73,3.47,3.91,5.29h0s0,0,0,0c.64.96,1.36,1.88,2.15,2.72,0,0,0-.01,0-.02-1.55-3.85-2.71-6.78-6.07-9.69Z"/>
  <path class="st12" d="M1808.07,945.31l.13-.14h0c-1.18-1.82-2.6-3.57-3.91-5.29-.54-.72-2.53-2.94-2.8-3.47,0,0,0,0,0-.01l-.17-.13-.32.11h0c2.8,3.09,4.62,5.53,7.08,8.93Z"/>
  <path class="st45" d="M1776.14,1023.61l.07-.17c-1.09-.95-14.12-1.35-15.88-1.11h0c.71.34,5.32.7,6.41.78l.52-.16-.33-.12c.35-.05,1.05.15,1.43.23,2.43.46,5.12.55,7.59.6-1.33.18-3.52.4-4.84.45,0,0-.02,0-.02,0-1.09.3-4.3.22-5.41.17h0c-1.23.24-4.41-.59-5.32-1.48-.06-.06-.07-.13-.07-.21,0,.08,0,.16.07.22.91.89,4.09,1.72,5.32,1.48,1.12.05,4.38.13,5.44-.18,1.32-.05,3.51-.27,4.84-.45l.18-.05Z"/>
  <path class="st29" d="M1776.14,1023.61l.07-.17c-1.09-.95-14.12-1.35-15.88-1.11h0c.71.34,5.32.7,6.41.78l.52-.16-.33-.12c.35-.05,1.05.15,1.43.23,2.43.46,5.12.55,7.59.6-1.33.18-3.52.4-4.84.45,0,0-.02,0-.02,0-1.09.3-4.3.22-5.41.17h0c-1.23.24-4.41-.59-5.32-1.48-.06-.06-.07-.13-.07-.21,0,.08,0,.16.07.22.91.89,4.09,1.72,5.32,1.48,1.12.05,4.38.13,5.44-.18,1.32-.05,3.51-.27,4.84-.45l.18-.05Z"/>
  <path class="st12" d="M1765.68,1024.28h0c1.11.05,4.32.13,5.41-.17h0c-1.09.3-4.3.22-5.41.17Z"/>
  <path class="st12" d="M1765.68,1024.28c.74-.58,2.11,0,2.97-.33-.77-.45-1.04-.63-1.91-.83h0s0-.01,0-.01c-1.09-.08-5.7-.44-6.41-.78h0c-.01.08-.03.17-.04.26,0,.08,0,.15.07.21.91.89,4.09,1.72,5.32,1.48Z"/>
  <path class="st44" d="M1771.08,1024.11c-.46-.09-2-.18-2.43-.15,0,0,0,0,0,0-.86.32-2.23-.25-2.97.33,1.11.05,4.32.13,5.41-.17Z"/>
  <path class="st45" d="M1768.67,1023.95h0c.43-.03,2.01.06,2.45.15h0,0s-.02,0-.03,0c0,0,.02,0,.02,0,1.32-.05,3.51-.27,4.84-.45-2.47-.05-5.16-.14-7.59-.6-.38-.08-1.08-.28-1.43-.23l.33.12-.52.16s0,0,0,0c.87.21,1.14.4,1.92.84Z"/>
  <path class="st30" d="M1768.67,1023.95h0c.43-.03,2.01.06,2.45.15h0,0s-.02,0-.03,0c0,0,.02,0,.02,0,1.32-.05,3.51-.27,4.84-.45-2.47-.05-5.16-.14-7.59-.6-.38-.08-1.08-.28-1.43-.23l.33.12-.52.16s0,0,0,0c.87.21,1.14.4,1.92.84Z"/>
  <path class="st34" d="M1768.67,1023.95h0c.43-.03,2.01.06,2.45.15h0,0s-.02,0-.03,0c0,0,.02,0,.02,0,1.32-.05,3.51-.27,4.84-.45-2.47-.05-5.16-.14-7.59-.6-.38-.08-1.08-.28-1.43-.23l.33.12-.52.16s0,0,0,0c.87.21,1.14.4,1.92.84Z"/>
  <path class="st12" d="M1766.74,1023.12c.87.21,1.14.39,1.91.83,0,0,.01,0,.02,0h0c-.78-.44-1.05-.63-1.92-.84,0,0,0,0,0,0h0s0,.01,0,.01Z"/>
  <path class="st33" d="M1766.74,1023.12c.87.21,1.14.39,1.91.83,0,0,.01,0,.02,0h0c-.78-.44-1.05-.63-1.92-.84,0,0,0,0,0,0h0s0,.01,0,.01Z"/>
  <path class="st12" d="M1771.12,1024.1s-.02,0-.03,0h0s.02,0,.03,0h0Z"/>
  <path class="st15" d="M1771.12,1024.1s-.02,0-.03,0h0s.02,0,.03,0h0Z"/>
  <path class="st44" d="M1771.08,1024.11s.02,0,.03,0h0c-.44-.09-2.02-.18-2.45-.15h0s-.01,0-.02,0c0,0,0,0,0,0,.42-.03,1.96.06,2.43.15Z"/>
  <path class="st16" d="M1771.08,1024.11s.02,0,.03,0h0c-.44-.09-2.02-.18-2.45-.15h0s-.01,0-.02,0c0,0,0,0,0,0,.42-.03,1.96.06,2.43.15Z"/>
  <path class="st42" d="M1734.69,963.48c.59,1.13,1.15,1.44,1.1,2.57.55.89,5.74,3.27,6.91,3.76-.41-1.23-.17-1.89-.75-3.35-1.04-.73-6.03-2.76-7.26-2.98Z"/>
  <path class="st35" d="M1734.65,958.07c8.72-.82,17.31-3.9,25.41-7.11,2.85-1.14,6.8-2.5,9.38-4.05l-.08-.21h0c-8.34,3.5-16.69,7.2-25.48,9.35-4.48,1.09-8.62,1.98-13.28,1.51-.98-.1-1.83-.06-2.71-.16v.3c2.21.36,5.28.5,6.75.36Z"/>
  <path class="st41" d="M1830.12,992.31c-.08.14-.5,1.37-.52,1.57l.52-.46c-.03.51-.84,2.2-1.1,2.79.23.7.03.96-.32,1.63-.47.9-1.83,3.19-2.53,3.84-.24-.26-.25-.25-.4-.56,0,0,0,0,0,0,.15.32.16.31.4.57-.96,1.29-1.51,1.79-2.73,2.87h0s-.01.01-.02.01c-.55.46-2.44,1.86-2.57,2.4,0,0-.01.02-.01.03l.04.06h0c5.38-4.46,7.83-6.4,10.03-13.6.31-1.03,1.44-5.18.98-6-.58.47-1.3,4.02-1.77,4.85Z"/>
  <path class="st37" d="M1828.7,997.84c.35-.68.55-.93.32-1.63,0,0,0,0,0,0-.64.88-1.26,2.01-1.87,2.93-.45.69-.92,1.3-1.38,1.98,0,0,0,0,0,0,.15.31.16.31.4.56.7-.65,2.06-2.94,2.53-3.84Z"/>
  <path class="st12" d="M1787.25,933.79c-.12-1.47-.11-1.45-1.48-2.01-.89.67-5.14,4.81-5.24,5.6.33.36.67.38,1.16.45.32-.11.37-.1.62-.32h0c.62-.35,1.42-.76,1.93-1.24h0c-.51.47-1.3.87-1.91,1.23h0v-.2c.41-.32,1.39-.93,1.92-1.04v-.04l-.11-.1c.22-.68,1.62-1.63,2.42-1.61,0,0,0,0,.01-.01.2-.18.5-.51.69-.71Z"/>
  <path class="st44" d="M1782.33,937.5h0c.61-.36,1.4-.76,1.91-1.23,0,0,.01-.01.02-.02,0,0-.01,0-.02,0-.53.11-1.51.73-1.92,1.04v.2Z"/>
  <path class="st43" d="M1828.07,979.22l.13.09c1.01-.62,2.53-3.99,3.51-5.19.53-1.05.11-4.13-.2-5.29h0s0,0,0,0c-.24,1.47-.35,2.37-.82,3.76-.56,1.67-2.75,5.03-2.62,6.63Z"/>
  <path class="st35" d="M1831.51,968.83c.31,1.16.73,4.24.2,5.29l-.07.81.07.26c.05,0,.1-.03.14-.07.34-.32.47-1.5,1.05-2.08v-.02h.01s0,.01,0,.02c0,0,0,0,0,0-.28-1.01-.46-4.19-1.42-5.02-.13.27-.04.52,0,.82,0,0,0,0,0,0h0Z"/>
  <path class="st35" d="M1785.53,1005.84c-.67.9-.65,2.81,0,3.71,0,0,0,.01,0,.02h0s.17-.08.17-.08h.01s-.06-.13-.06-.13c-1.55-3.3,1.64-4.73,3.52-6.49,5.2-4.88,11.12-8.32,17.22-11.93,3.3-1.95,6.61-4.04,10.15-5.63,1.64-.73,3.33-1.36,5.04-1.88.2-.06,1.04-.24,1.1-.35-3.99-.44-21.41,10.41-25.51,13.15-1.58,1.06-3.12,2.19-4.6,3.39-1.38,1.12-2.74,2.27-4.08,3.44-1.01.86-2.18,1.72-2.97,2.78Z"/>
  <path class="st38" d="M1815.59,944.25s0,0,0,0c0,0,0,0,0-.01h0Z"/>
  <path class="st38" d="M1822.53,952.4c.99,1.11,2.43,3.27,3.28,4.56l.15.02c1.31-2.4-8.17-11.4-10.36-12.73.09.22.13.38.3.53.86.27,5.52,6.38,6.63,7.62Z"/>
  <path class="st0" d="M1785.27,912.53h.14c.47-.66,2.14-3.28,3.17-2.29.76.73.81,3.26.59,4.25-.51,1.9-1.44,2.57-1.95,3.92l.09.06c2.7-2.85,3.95-9.76-1.54-9.51h0c-1.61.37-2.43,1.32-3.24,2.68.33-.27,1.49-1.41,1.69-1.4.21.59.63,1.85,1.05,2.29Z"/>
  <path class="st41" d="M1832.76,977.08c-.19.56-2.15,5.64-2.15,5.64.3-.27.71-.66.85-1.05.35.48-1.63,6.92-1.94,7.81-.24.7-1.02,2.06-1.3,2.93,1.86-1.54,4.32-9.99,4.58-12.58.03-.38.06-.77.06-1.16,0-.61,0-.98-.1-1.59h0Z"/>
  <path class="st12" d="M1761.37,976.2c-1.3-1.03-5.76-3.34-7.2-3.76h0s-.01.01-.01.01c1.3,1.43,1.3,1.55,2.35,3.06,1.15.42,4.48,1.51,5.62,1.67-.19-.33-.46-.75-.76-.98Z"/>
  <path class="st12" d="M1788.27,999.64c1.16-.12,2.08-.28,3.22-.53-1.11-.7-2.36-1.51-3.55-2.03h0c-1.03.92-2.42,1.93-3.59,2.66,1.3.02,2.61-.02,3.92-.1Z"/>
  <path class="st43" d="M1729.78,974.13c-.15-.17-1-.94-1.9-1.73v1.98c.28.47.48.86.48,1.05.44-.47,1.16-.68,1.42-1.3Z"/>
  <path class="st0" d="M1729.78,974.13c-.26.62-.98.83-1.42,1.3.72-.15,2.06-.52,2-1.44-.08-.1-1.27-1.11-2.48-2.11v.52c.9.79,1.76,1.56,1.9,1.73Z"/>
  <path class="st35" d="M1781.01,917.51c-.52-1.16-2.44-3.29-3.31-4.34-2.94-3.54-6.01-6.97-9.26-10.23-.16-.16-.33-.31-.49-.47l-.27.16c3.53,3.63,7.48,7.89,8.38,9.02.53.66,4.83,5.79,4.95,5.86Z"/>
  <path class="st0" d="M1786.73,996.89c-1.55.48-4.41,1.98-5.62,2.21-3.79.71-8.76-.23-12.66-.36-.65-.02-4.8-1.2-4.77-1.22.54.66,4.05,1.45,4.96,1.56h0c3.5.3,7.07.39,10.58.61,1.79.11,6.31-1.61,7.51-2.8Z"/>
  <path class="st0" d="M1766.81,993.89l-.14.15c.93.4,1.69.71,2.66,1.01.26.08,1.26.29,1.36.33h.01c1.87.15,3.58.15,5.46.17.43,0,2.15,0,2.45.05.31.12.42.12.75.18l-.09.1c-1.08.05-2.18.07-3.28.08,1.1,0,2.21-.03,3.28-.08l.09-.1c-.33-.06-.44-.06-.75-.18.7-.07,1.25.02,2.03-.05-.2-.32-1.1-.03-1.68-.14-.84-.15-2.29-.18-3.14-.18-3.86-.03-5.38.01-9.01-1.35h0s0,0,0,.01Z"/>
  <path class="st12" d="M1779.36,995.78c-.33-.06-.44-.06-.75-.18-.3-.05-2.02-.05-2.45-.05-1.88-.02-3.59-.02-5.46-.18h0s0,.01,0,.01h0c.46.5,1.33.49,2.02.52,1.08.04,2.18.06,3.28.06,1.1,0,2.2-.03,3.28-.08l.09-.1Z"/>
  <path class="st38" d="M1769.77,942.64l-.04-.02h0c-2.48,1.52-5.05,3.27-7.44,4.9-2.95,2-5.62,3.7-8.99,4.93-.41.15-1.72.58-1.95.83l.09.08c2.92-.9,5.72-2.19,8.31-3.82.54-.34,1.06-.69,1.58-1.05,2.85-1.95,5.65-3.56,8.41-5.69l.02-.16Z"/>
  <path class="st35" d="M1772.11,945.94s-.01,0-.02,0h0s7.47-4.2,7.47-4.2c1.29-.74,2.54-1.56,3.85-2.25-.24.32-.68.84-.76,1.18.94-.59.7-1.1.78-1.17,1.29-1.23,4.67-4.58,5.64-5.78-2.15,1.51-3.53,3.78-5.84,5.47-3.36,2.46-8.13,4.32-11.37,6.6h0s0,0,.01,0l.23.14Z"/>
  <path class="st43" d="M1810.8,941.38s.02,0,.03,0l.09-.03-.12.02Z"/>
  <path class="st43" d="M1813.22,943.4c.75.63,1.45,1.3,2.16,1.99l.11-.02c0-.19,0-.33.07-.5-.26-.37-.69-.89-.72-1.31.11.1.67.59.74.68.1.23.13.39.31.54.35.47.73.94,1.04,1.44,0,0,.01.01.02.02-.31-.51-.7-.99-1.06-1.47-.18-.15-.21-.31-.31-.54-.07-.09-.63-.58-.74-.68-.89-.96-2.35-1.75-3.49-2.42l-.13.04v.12c.27.12.4.18.69.27l-.04.14c-.72.26-.49-.17-1.04-.31h-.04c.67.7,1.68,1.38,2.43,2.01Z"/>
  <path class="st35" d="M1815.58,944.24c-.07-.09-.63-.58-.74-.68.03.42.46.94.72,1.31h0c.46.5.9.91,1.39,1.38,0-.01-.01-.02-.02-.03-.31-.5-.69-.97-1.04-1.44-.18-.15-.21-.31-.31-.54Z"/>
  <path class="st35" d="M1789.29,926.13h0s0,.01,0,.01c0,0,0,0,0-.01Z"/>
  <path class="st35" d="M1790.42,930.97c.32-.04.61-.4.79-.66.31-.59.7-1.25.96-1.85-.52-.49-2.27-2.01-2.87-2.32.72,1.99,1.53,2.57,1.12,4.83Z"/>
  <path class="st41" d="M1824.25,967.22h0s0-.01,0-.01c-.08,1.41-.76,14.28-.6,14.63.47-1.09.84-12.79.81-14.68,0,0,0,0,0,0l-.21.06Z"/>
  <path class="st0" d="M1780.49,937.85h-.01c-1.53.72-11.87,5.91-12.56,6.68l.06.09c1.78-.99,11.83-5.85,12.54-6.61l-.03-.17h0Z"/>
  <path class="st12" d="M1825.13,957.33c-.25.51-.85,8.82-.88,9.88h0s.21-.05.21-.05c0,0,0,0,0,0,.05-2.63.77-5.39,1.06-8,.04-.41-.09-1.51-.39-1.83Z"/>
  <path class="st44" d="M1749.77,952.63l-.08-.06c-.62,0-.92.16-1.5.37h0s-.76.21-.76.21h0c-1.16.35-2.68.83-3.84,1.08-2.11.44-4.37.64-6.46,1.18-.7.18-1.08.02-1.89.32.36.02.97-.04,1.36-.1,3.55-.53,7.11-.96,10.54-2.08.89-.29,1.81-.5,2.63-.92Z"/>
  <path class="st35" d="M1783.79,1016.06l.08-.11c-.37-.9-1.16-.72-1.95-.63h.01c-1.93.16-3.86.27-5.79.32-.98.02-3.29.01-4.11.14.73.21,1.43.17,2.18.13,2.96,0,5.81-.03,8.75-.44.23-.03.65.42.83.59Z"/>
  <path class="st42" d="M1771.76,1018.66c1.63,0,8.14.05,9.19-.57-.21-.04-.12-.05-.27,0h0c-1,.06-9.02.34-9.27.47.2.12.09.08.35.1Z"/>
  <path class="st41" d="M1769.89,1021.99l.03-.08c-.92-.43-3.49-.39-4.79-.61l-.2-.03-.08.19c1,.44,4.13,1.03,5.01.44l.05.03-.24.1.22-.04Z"/>
  <polygon class="st41" points="1764.93 1021.27 1764.94 1021.27 1764.94 1021.24 1764.92 1021.27 1764.93 1021.27 1764.93 1021.27"/>
  <path class="st37" d="M1832.9,973.02v.02c-.58.58-.71,1.76-1.05,2.08-.05.05-.1.07-.16.08l-.07-.26c-.04.2-.3,1.95-.28,2.05.29-.88.23-1.79,1.29-2.03.22.17.29.4.37.67-.05.35-.31,1.27-.31,1.4l.08.05c.1.61.1.98.1,1.59.19-1.14.31-4.48.04-5.63,0,0,0-.01,0-.02h-.01Z"/>
  <path class="st35" d="M1788.18,910.36l-.3-.08c-1.21.97-1.56,2.22-2.43,2.57l-.31-.16c.06.42.57,1.04.78,1.62l.14.16c.12-.37.03-.44-.12-.88.1-.12.03-.06.25-.1.45-.83.6-1.71,1.17-2.41.23-.28.79-.44.82-.72Z"/>
  <polygon class="st35" points="1787.87 910.28 1787.87 910.28 1787.87 910.28 1787.88 910.28 1787.87 910.28"/>
  <path class="st37" d="M1825.61,998.75c.73-1.05,2.52-3.55,2.83-4.68l-.11-.19c-.66.97-1.27,1.97-1.93,2.94-.39.57-1.13,1.3-.79,1.93Z"/>
  <polygon class="st37" points="1828.33 993.88 1828.33 993.88 1828.33 993.88 1828.33 993.88"/>
  <path class="st45" d="M1736.18,961.14l.04-.09c-.28-.71-1.29-.63-.88-1.46-.98-.24-1.98-.88-3.03-1.19,1.03.91,2.64,2.08,3.87,2.74Z"/>
  <path class="st14" d="M1736.18,961.14l.04-.09c-.28-.71-1.29-.63-.88-1.46-.98-.24-1.98-.88-3.03-1.19,1.03.91,2.64,2.08,3.87,2.74Z"/>
  <path class="st45" d="M1732.29,958.39s.01,0,.02,0c0,0-.02-.01-.02-.02h0Z"/>
  <path class="st13" d="M1732.29,958.39s.01,0,.02,0c0,0-.02-.01-.02-.02h0Z"/>
  <path class="st12" d="M1763.81,992.89c.63-.27,1.57.49,2.27.73.24.09.48.18.72.27h0c-.25-.1-.49-.19-.73-.28-.33-.36-2.11-1.25-2.65-1.53-.2-.11-.48.08-.66.19h0s-.13.27-.13.27c.47.04.49.08.9.35h.27Z"/>
  <path class="st41" d="M1766.8,993.89c-.25-.09-.49-.18-.72-.27-.7-.24-1.64-1-2.27-.73h0c.97.48,1.8.89,2.85,1.16h0s.14-.16.14-.16c0,0,0,0,0,0Z"/>
  <path class="st12" d="M1764.93,1021.27h0s0,0,0,0c-1.34-1.3-1.73-2.16-2.81-3.41.44,1.12,1.39,3.43,2.72,3.63v-.03s.09-.19.09-.19h0Z"/>
  <polygon class="st12" points="1762.12 1017.86 1762.12 1017.86 1762.12 1017.86 1762.12 1017.86"/>
  <path class="st44" d="M1776.2,985.51l-.19.14c1.65,1.38,3.31,2.74,4.99,4.08-.26-.69-3.97-3.58-4.8-4.22Z"/>
  <path class="st39" d="M1787.26,933.79s0,0,0,0c-.19.2-.49.53-.69.71,0,0,0,0-.01.01-.65.63-1.36,1.2-1.96,1.87,1.25-.44,3.8-3.25,4.57-4.49-.64.57-1.31,1.28-1.91,1.9Z"/>
  <path class="st35" d="M1772.09,982.21h0s-.17.3-.17.3c1.44,1.05,2.71,2.01,4.09,3.14l.19-.14c-1.42-1.19-2.63-2.19-4.11-3.3Z"/>
  <path class="st12" d="M1745.4,972.76c.33.48,3.72,3.18,4.2,3.32-.31-.56-3.63-3.18-4.2-3.32Z"/>
  <path class="st44" d="M1750.86,952.95c-.85.2-4.04.92-4.73,1.22l.07.14c.79-.18,4.34-.87,4.73-1.24l-.07-.13h0Z"/>
  <path class="st37" d="M1777.49,937.9c.67-.01,1.04-.06,1.7-.15-1.14-.22-1.71-.29-2.87-.22-.48.14-.63.14-1.01.44.61.08,1.18-.17,2.18-.07Z"/>
  <path class="st37" d="M1758.06,983.05c.5.61,2.9,2.9,3.57,3.14-.12-.41-2.99-2.95-3.57-3.14Z"/>
  <path class="st43" d="M1754.22,979.86c.39.48,3.23,3.03,3.66,3.09-.34-.57-3.05-2.89-3.66-3.09Z"/>
  <path class="st43" d="M1771.53,940.09c.46-.36,1.87-1.11,2.07-1.48l-.12-.06h0c-.78.5-3.6,2.27-3.86,3.17l.12.02c.64-.65,1.08-1.09,1.79-1.65Z"/>
  <path class="st35" d="M1784.13,1019.35c.64.28,2.42.62,3.12.56-1.12-.68-1.85-.69-3.12-.56Z"/>
  <path class="st43" d="M1750.54,977c.67.53,2.68,2.34,3.33,2.5-.48-.57-2.6-2.41-3.33-2.5Z"/>
  <path class="st12" d="M1748.19,952.94h0c-.11-.5-.35-.78-.86-.95l-.23.07c-.09.47.06.68.33,1.09h0l.76-.21Z"/>
  <path class="st37" d="M1772.09,945.95s.01,0,.02,0l-.23-.14s0,0-.01,0c-.59.11-1.89.66-2.51.9l.08.21c.91-.04,1.73-.65,2.65-.96Z"/>
  <path class="st12" d="M1734.77,957.17c-.46-.54-1.26-.93-1.97-.88.64.88.88.91,1.97.88Z"/>
  <path class="st42" d="M1811.67,993.62s0-.02,0-.03c-.06-.58-.21-2.69-.42-2.95-.11.6.17,3.22.28,3.95,0,0,0,.02,0,.03.07-.35.11-.64.13-1Z"/>
  <path class="st42" d="M1811.54,994.65s0-.02,0-.03c0,.01,0,.02,0,.03h.01Z"/>
  <path class="st37" d="M1760.78,1013.07c.09.92.3,2.57.87,3.32-.12-.68-.43-2.98-.87-3.32Z"/>
  <path class="st43" d="M1783.39,918.2l.29.17c-.4-.95-.73-2.73-1.04-3.24.04.87.28,2.36.75,3.07Z"/>
  <path class="st43" d="M1782.63,915.09h0s0,.03.01.04c0-.01,0-.02,0-.04h-.01Z"/>
  <path class="st35" d="M1787.47,1010.18c-.36-.49-.95-1.22-1.53-1.44.42.55.87,1.18,1.53,1.44Z"/>
  <path class="st37" d="M1790.66,932.22l-.15-.16h0c-.04.36-.17,1.03-.07,1.35l.12.11c.08-.48.18-.82.1-1.3Z"/>
  <path class="st38" d="M1787.75,1020.68l.35-.27-.05-.13-.49-.11h0s-.33.32-.33.32c.17.22.11.12.52.19Z"/>
  <path class="st37" d="M1803.21,936.58l.09-.17c-.33-.19-.73-.47-1.08-.53.39.34.54.43.99.7h0Z"/>
</svg>