<?xml version="1.0" encoding="UTF-8"?>
<svg id="Layer_1" xmlns="http://www.w3.org/2000/svg" xmlns:xlink="http://www.w3.org/1999/xlink" version="1.1" viewBox="0 0 2048 1650">
  <!-- Generator: Adobe Illustrator 30.4.0, SVG Export Plug-In . SVG Version: 2.1.4 Build 226)  -->
  <defs>
    <style>
      .st0 {
        fill: #e1e1e2;
      }

      .st1 {
        stroke: #3c3d43;
      }

      .st1, .st2 {
        fill: none;
        stroke-linecap: round;
        stroke-linejoin: round;
      }

      .st3 {
        fill: url(#linear-gradient2);
      }

      .st4 {
        fill: url(#linear-gradient1);
      }

      .st5 {
        fill: url(#linear-gradient9);
      }

      .st6 {
        fill: url(#linear-gradient3);
      }

      .st7 {
        fill: url(#linear-gradient6);
      }

      .st8 {
        fill: url(#linear-gradient8);
      }

      .st9 {
        fill: url(#linear-gradient7);
      }

      .st10 {
        fill: url(#linear-gradient5);
      }

      .st11 {
        fill: url(#linear-gradient4);
      }

      .st12 {
        fill: #1e2025;
      }

      .st13 {
        fill: url(#linear-gradient31);
      }

      .st14 {
        fill: url(#linear-gradient30);
      }

      .st15 {
        fill: url(#linear-gradient32);
      }

      .st16 {
        fill: url(#linear-gradient33);
      }

      .st17 {
        fill: url(#linear-gradient28);
      }

      .st18 {
        fill: url(#linear-gradient29);
      }

      .st19 {
        fill: url(#linear-gradient18);
      }

      .st20 {
        fill: url(#linear-gradient13);
      }

      .st21 {
        fill: url(#linear-gradient12);
      }

      .st22 {
        fill: url(#linear-gradient15);
      }

      .st23 {
        fill: url(#linear-gradient16);
      }

      .st24 {
        fill: url(#linear-gradient11);
      }

      .st25 {
        fill: url(#linear-gradient10);
      }

      .st26 {
        fill: url(#linear-gradient17);
      }

      .st27 {
        fill: url(#linear-gradient14);
      }

      .st28 {
        fill: url(#linear-gradient19);
      }

      .st29 {
        fill: url(#linear-gradient23);
      }

      .st30 {
        fill: url(#linear-gradient22);
      }

      .st31 {
        fill: url(#linear-gradient24);
      }

      .st32 {
        fill: url(#linear-gradient25);
      }

      .st33 {
        fill: url(#linear-gradient21);
      }

      .st34 {
        fill: url(#linear-gradient20);
      }

      .st35 {
        fill: url(#linear-gradient27);
      }

      .st36 {
        fill: url(#linear-gradient26);
      }

      .st37 {
        fill: #919293;
      }

      .st38 {
        fill: url(#linear-gradient);
      }

      .st39 {
        fill: #2b2b30;
      }

      .st40 {
        fill: #7a7d82;
      }

      .st41 {
        fill: #b2b2b3;
      }

      .st2 {
        stroke: #919293;
      }

      .st42 {
        fill: #fff;
      }

      .st43 {
        fill: #67686c;
      }

      .st44 {
        fill: #444549;
      }

      .st45 {
        fill: #3c3d43;
      }

      .st46 {
        fill: #575759;
      }

      .st47 {
        fill: #070607;
      }
    </style>
    <linearGradient id="linear-gradient" x1="1317.62" y1="-863.39" x2="1328.28" y2="-885.06" gradientTransform="translate(1072 1390.5) scale(.5)" gradientUnits="userSpaceOnUse">
      <stop offset="0" stop-color="#444246"/>
      <stop offset="1" stop-color="#595b5d"/>
    </linearGradient>
    <linearGradient id="linear-gradient1" x1="1399.64" y1="-944.15" x2="1402.87" y2="-949.25" gradientTransform="translate(1072 1390.5) scale(.5)" gradientUnits="userSpaceOnUse">
      <stop offset="0" stop-color="#353539"/>
      <stop offset="1" stop-color="#525151"/>
    </linearGradient>
    <linearGradient id="linear-gradient2" x1="1399.15" y1="-944.46" x2="1402.38" y2="-949.56" xlink:href="#linear-gradient1"/>
    <linearGradient id="linear-gradient3" x1="1340.88" y1="-758.18" x2="1337.08" y2="-758.37" gradientTransform="translate(1072 1390.5) scale(.5)" gradientUnits="userSpaceOnUse">
      <stop offset="0" stop-color="#404343"/>
      <stop offset="1" stop-color="#686665"/>
    </linearGradient>
    <linearGradient id="linear-gradient4" x1="1340.93" y1="-759" x2="1337.13" y2="-759.19" xlink:href="#linear-gradient3"/>
    <linearGradient id="linear-gradient5" x1="1341.22" y1="-764.82" x2="1337.42" y2="-765.01" xlink:href="#linear-gradient3"/>
    <linearGradient id="linear-gradient6" x1="1341.22" y1="-764.91" x2="1337.42" y2="-765.1" xlink:href="#linear-gradient3"/>
    <linearGradient id="linear-gradient7" x1="1342.81" y1="-742.65" x2="1342.04" y2="-735.8" gradientTransform="translate(1072 1390.5) scale(.5)" gradientUnits="userSpaceOnUse">
      <stop offset="0" stop-color="#343134"/>
      <stop offset="1" stop-color="#484b4a"/>
    </linearGradient>
    <linearGradient id="linear-gradient8" x1="1342.81" y1="-742.65" x2="1342.04" y2="-735.8" xlink:href="#linear-gradient7"/>
    <linearGradient id="linear-gradient9" x1="1524.54" y1="-830.59" x2="1516.61" y2="-853.71" gradientTransform="translate(1072 1390.5) scale(.5)" gradientUnits="userSpaceOnUse">
      <stop offset="0" stop-color="#3f3e43"/>
      <stop offset="1" stop-color="#545557"/>
    </linearGradient>
    <linearGradient id="linear-gradient10" x1="1523.22" y1="-830.14" x2="1515.29" y2="-853.26" xlink:href="#linear-gradient9"/>
    <linearGradient id="linear-gradient11" x1="1518.04" y1="-828.36" x2="1510.11" y2="-851.48" xlink:href="#linear-gradient9"/>
    <linearGradient id="linear-gradient12" x1="1526.12" y1="-831.14" x2="1518.19" y2="-854.26" xlink:href="#linear-gradient9"/>
    <linearGradient id="linear-gradient13" x1="1524.59" y1="-839.82" x2="1517.19" y2="-838.27" gradientTransform="translate(1072 1390.5) scale(.5)" gradientUnits="userSpaceOnUse">
      <stop offset="0" stop-color="#111216"/>
      <stop offset="1" stop-color="#333134"/>
    </linearGradient>
    <linearGradient id="linear-gradient14" x1="1528.86" y1="-832.07" x2="1520.93" y2="-855.19" xlink:href="#linear-gradient9"/>
    <linearGradient id="linear-gradient15" x1="1522.27" y1="-850.87" x2="1514.87" y2="-849.32" xlink:href="#linear-gradient13"/>
    <linearGradient id="linear-gradient16" x1="1526.09" y1="-831.12" x2="1518.16" y2="-854.24" xlink:href="#linear-gradient9"/>
    <linearGradient id="linear-gradient17" x1="1524.03" y1="-842.46" x2="1516.63" y2="-840.91" xlink:href="#linear-gradient13"/>
    <linearGradient id="linear-gradient18" x1="1521.59" y1="-829.58" x2="1513.66" y2="-852.7" xlink:href="#linear-gradient9"/>
    <linearGradient id="linear-gradient19" x1="1526.47" y1="-830.84" x2="1519.07" y2="-829.29" xlink:href="#linear-gradient13"/>
    <linearGradient id="linear-gradient20" x1="1526.33" y1="-831.49" x2="1518.93" y2="-829.94" xlink:href="#linear-gradient13"/>
    <linearGradient id="linear-gradient21" x1="1337.53" y1="-852.32" x2="1390.09" y2="-869.75" gradientTransform="translate(1072 1390.5) scale(.5)" gradientUnits="userSpaceOnUse">
      <stop offset="0" stop-color="#525057"/>
      <stop offset="1" stop-color="#9c9d98"/>
    </linearGradient>
    <linearGradient id="linear-gradient22" x1="1348" y1="-820.75" x2="1400.56" y2="-838.18" xlink:href="#linear-gradient21"/>
    <linearGradient id="linear-gradient23" x1="1337.53" y1="-852.32" x2="1372.72" y2="-864" xlink:href="#linear-gradient21"/>
    <linearGradient id="linear-gradient24" x1="1403.43" y1="-724.79" x2="1403.74" y2="-727.15" gradientTransform="translate(1072 1390.5) scale(.5)" gradientUnits="userSpaceOnUse">
      <stop offset="0" stop-color="#888789"/>
      <stop offset="1" stop-color="#b0afb0"/>
    </linearGradient>
    <linearGradient id="linear-gradient25" x1="1409.61" y1="-723.98" x2="1409.92" y2="-726.34" xlink:href="#linear-gradient24"/>
    <linearGradient id="linear-gradient26" x1="1408.99" y1="-727.25" x2="1410.27" y2="-722.96" gradientTransform="translate(1072 1390.5) scale(.5)" gradientUnits="userSpaceOnUse">
      <stop offset="0" stop-color="#69696c"/>
      <stop offset="1" stop-color="#7d7d7c"/>
    </linearGradient>
    <linearGradient id="linear-gradient27" x1="1402.22" y1="-725.23" x2="1403.5" y2="-720.94" xlink:href="#linear-gradient26"/>
    <linearGradient id="linear-gradient28" x1="1408.15" y1="-727" x2="1409.43" y2="-722.71" xlink:href="#linear-gradient26"/>
    <linearGradient id="linear-gradient29" x1="1405.95" y1="-726.34" x2="1407.23" y2="-722.05" xlink:href="#linear-gradient26"/>
    <linearGradient id="linear-gradient30" x1="1312.74" y1="-870.68" x2="1313.49" y2="-861.35" gradientTransform="translate(1072 1390.5) scale(.5)" gradientUnits="userSpaceOnUse">
      <stop offset="0" stop-color="#484647"/>
      <stop offset="1" stop-color="#656668"/>
    </linearGradient>
    <linearGradient id="linear-gradient31" x1="1312.18" y1="-870.64" x2="1312.93" y2="-861.31" xlink:href="#linear-gradient30"/>
    <linearGradient id="linear-gradient32" x1="1335.93" y1="-853.14" x2="1335.25" y2="-851.28" gradientTransform="translate(1072 1390.5) scale(.5)" gradientUnits="userSpaceOnUse">
      <stop offset="0" stop-color="#808081"/>
      <stop offset="1" stop-color="#a5a5a4"/>
    </linearGradient>
    <linearGradient id="linear-gradient33" x1="1331.6" y1="-854.72" x2="1330.92" y2="-852.86" xlink:href="#linear-gradient32"/>
  </defs>
  <polygon class="st47" points="1739.38 998.04 1739.38 998.05 1739.38 998.05 1739.38 998.04"/>
  <path class="st47" d="M1826.37,1011.69c.13-.54,2.02-1.94,2.57-2.4-.55.45-2.44,1.85-2.57,2.4Z"/>
  <path class="st47" d="M1747.33,921.52c3.07-1.43,5.21-1.43,8.25-4.01-.35-1.67-1.75-3.04-2.42-5.03l-9.73,5.52c1.52,1.18,3.33,2.77,3.9,3.53ZM1748.24,916.33c.37.37.68.74,1.19.49.22-.36.16-.72.16-1.16,0,0-.01,0-.02,0h0s.02-.01.02-.01c0,0,0,.01,0,.02,1.55.55,2.71,1.19,4.1,2.01-1.29.82-2.28,1.27-3.66,1.86-.8.29-1.19.42-2.01.59-.3-.92-.53-2.23-.71-3.2.3-.18.63-.4.93-.59Z"/>
  <path class="st47" d="M1836.46,969.51c-1.37-4.64-3.16-9.6-6.35-13.33-2.22-2.61-4.93-5.21-7.53-7.44-2.42-2.08-5.21-3.72-7.89-5.42l-10.57-6.58c-3.36-2.07-7.13-4.54-9.96-7.29-.56-.55-1.39-1.66-1.9-2.32.6-3.46,3.13-5.44,3.22-9.21.1-4.11-3.71-6.06-6.71-3.08-1.43,1.42-1.63,3.87-1.61,5.83-1.63-2.3-4.63-5.65-6.56-7.85-3.13-3.58-6.42-7.02-9.85-10.32l-.38.21c1.06.98,2.12,1.97,3.14,2.97,3.39,3.31,7.41,8.02,10.49,11.68,2.92,3.46,10.38,12.07,10.83,16.47h0c.07.69.26,2.08-.15,2.62-.12-.54-.08-1.98-.09-2.61h0c-.56-1.64-1.03-2.71-2.04-4.13-.62-1.18-4.31-6.23-5.24-7.15-.15-.38-1.91-2.48-2.26-2.9-3.46-4.23-7.1-8.35-10.91-12.27-1.31-1.32-2.83-2.52-4.15-3.83-.14-.14-.28-.26-.42-.4l-.24.14c1.56,1.42,3.12,2.85,4.61,4.35,3.25,3.26,6.32,6.69,9.26,10.23.87,1.05,2.79,3.18,3.31,4.34-.12-.07-4.42-5.2-4.95-5.86-1.29-1.61-8.7-9.52-12.36-12.99l-.55.31c3.39,3.55,6.94,6.98,10.18,10.69,2.08,2.37,4.08,4.97,6.06,7.43l.02.02h0-.01s0,0,0,0c.75.78,3.12,4.25,3.68,5.29.56.72,1.09,1.68,1.69,2.48h0c.02.09.03.18.04.26.02.25-.03.47-.23.71-1.7,2.01-4.42,3.31-6.5,5.03-1.43,1.18-3.42,3.41-4.76,4.26-1.07.68-3.59,1.82-4.81,2.46-.47.46-2.19,1.21-2.84,1.62-3.08,1.95-6.04,3.11-9.41,4.43-6.76,2.65-13.65,4.82-20.66,6.66-.98.26-2.5.29-3.51.27-1.8-.99-3.68-2.7-4.83-4.41-.79-1.21-1-2.7-1.58-4-.9-2.03-1.89-3.99-2.91-5.94v6.23c2.18,4.04,4.59,8,7.42,11.57.78.98,1.41,1.66,2.05,2.74-.78-.02-1.52-.03-2.3-.12-1.61-3.07-3.24-6.22-5.19-9.11-.25-.38-1.1-.91-1.21-1.29,0,0,0-.01-.01-.02,0,0,0,.02,0,.03-.22-.46-.5-.96-.77-1.45v6.78c.2.6.33,1.08.33,1.34-.23,0-.19,0-.34-.08v.55c.14.12.26.25.33.43v.16h0s0,0,0,0c0,0,0,0,0,.01.14.56.23.91.21,1.48,0,.01,0,.02,0,.04l-.15.16s0,0,0,0h0s0,0,0,0h0,0s0,0,0,0c-.13-.06-.25-.13-.38-.2v3.11c.12.08.25.18.37.26,0-.37-.05-.65.15-.96.17.44.02.85-.09,1.31h0c-.12.44-.18,1.14-.31,1.65-.05.2-.09.39-.13.59l-.05,33.87c2.74,2.29,5.3,4.78,8.19,6.88-.03,5.99,2.91,15.42,8.05,19,1.43,1,3.01,2.39,4.58,3.14,3.62,1.73,7.67.07,11.15-1.17,3.31,1.71,5.33,3.24,9.08,3.72,5.91.76,10.73.26,16.51-.72,15.31-2.55,29.75-8.85,42.03-18.35,2.04-1.56,4.16-3.5,6.07-5.24.62-.57,1.04-1.82,1.49-2.57,1.57-2.61,3.07-5.49,3.36-8.57.2-1.96-.96-2.54-.9-4.21.01-.42.42-2.19.53-2.69.3-1.38.54-2.77.73-4.17.41-3.2.38-7.09-.62-10.19-.6-1.8-1.45-3.54-1.99-5.37ZM1788.9,922.92c-.46-.71-.71-2.21-.75-3.07,0,0,0-.02-.01-.03h0s.01-.01.01-.01c0,.01,0,.02,0,.04.31.52.63,2.3,1.04,3.24l-.29-.17ZM1788.04,916.36c.81-1.36,1.63-2.31,3.24-2.67h0c5.49-.26,4.24,6.65,1.54,9.5l-.09-.06c.51-1.35,1.44-2.02,1.95-3.92.22-.99.17-3.52-.59-4.25-1.03-.99-2.7,1.63-3.17,2.29h-.14c-.42-.44-.84-1.7-1.05-2.29-.2-.01-1.36,1.13-1.69,1.4ZM1791.57,919.19l-.14-.16c-.21-.58-.72-1.2-.78-1.62l.31.16c.87-.35,1.22-1.6,2.43-2.57h0s0,0,0,0h.01s0,0,0,0l.3.08c-.03.28-.59.44-.82.72-.57.7-.72,1.58-1.17,2.41-.22.04-.15-.02-.25.1.15.44.24.51.12.88ZM1832.39,959.84h0c.37.75.73,1.64,1.06,2.41,3.27,8.45,4.89,12.29-1.62,19.98-.37.54-1.04,1.04-1.56,1.43h0s0,0,0,0v-1.33h0,0s0-.04,0-.06c0,0,0,0,0,0,0,.02,0,.03,0,.05-.22-1.83-.13-7.05.29-8.81h.01c.21-1.29.45-2.53.92-3.75.96-2.5,1.31-4.72,1.26-7.39-.11-.84-.23-1.67-.35-2.52,0,0,0,0,0,0h0ZM1829.16,986.56c-.16-.35.52-13.22.6-14.63h0c.03-1.06.63-9.37.88-9.88.3.32.43,1.42.39,1.83-.29,2.61-1.01,5.37-1.06,8,.03,1.89-.34,13.59-.81,14.68ZM1831.47,961.7l-.15-.02c-.85-1.29-2.29-3.45-3.28-4.56-1.11-1.24-5.77-7.35-6.63-7.62-.18-.15-.21-.3-.3-.53,0,0,0,0,0,0h0s0,0,0,0c2.19,1.33,11.67,10.33,10.36,12.73ZM1816.31,946.1l.12-.02-.09.03c.55.14.33.57,1.04.31l.04-.14c-.29-.09-.42-.15-.69-.27v-.12l.13-.04c1.14.67,2.6,1.46,3.49,2.42.11.1.67.59.74.68.1.23.13.39.31.54.36.48.75.96,1.06,1.47,0,0-.01-.01-.02-.02,0,.01.01.02.02.03-.49-.47-.93-.88-1.39-1.38h0c-.07.17-.06.31-.07.5l-.11.02c-.71-.69-1.41-1.36-2.16-1.99-.75-.63-1.76-1.31-2.43-2h.04s-.02-.02-.03-.02ZM1808.81,941.13h0c.96.56,3.48,2.06,4.17,2.85,0,0,0,0,0,0,0,0,0-.01,0-.02.63.54,1.53,1.26,2.11,1.81,0,0-.01,0-.02,0,0,0,.01.01.02.01.32.16.31.17.57.42,0,0,0,0,0,0,0,0,0,0,0-.01.71.6,1.16,1.07,1.8,1.75,0,0,0,0-.01,0,0,0,0,0,.01.01.68.64,2.71,1.82,2.97,2.16,0,0,0,0,0,0,.23.19.55.42.79.66.08.08.16.16.22.23l.08.03s0,0,0,0c0,0,0-.01,0-.02.82.69,1.75,1.51,2.47,2.31,0,0-.01,0-.02,0,0,0,.01.01.02.02.35.25.69.78,1.44,1.3l-.1-.17c1.29.78,3.49,4.77,4.19,6.17-1.1-1.08-2.06-2.62-3.13-3.52-1.53-1.3-3.18-2.59-4.72-3.89-1.02-.86-2.23-1.61-3.12-2.61.48.85.56,1.16.81,2.08l-.34-.12c-2.9-.99-3.22-4.17-4.96-6.46-.31-.37-.93-.57-1.23-.94-1.27-1.51-2.59-2.61-4.1-3.88l.09-.17h-.01s-.09.16-.09.16h0c-.45-.27-.6-.36-.99-.7.35.06.75.34,1.08.53ZM1799.59,935.5s0,0,.01.01c1.48.74,5.62,4.44,6.9,5.59l.32-.11.17.13c.67.42,2.26,1.33,2.8,1.79,3.37,2.91,4.53,5.85,6.08,9.71,0,0-.01-.02-.02-.02,0,0,0,.01,0,.02-.79-.85-1.51-1.77-2.15-2.72l-.12.13c4.43,6.54,8.67,13.14,11.13,20.7.38,1.18,1.08,3.06,1.03,4.27l-.09-.09c-.08-1.31-.56-1.84-.92-3.03-2.92-9.56-11.01-22.42-17.76-29.79-1.11-1.21-2.32-2.33-3.6-3.35-1.32-1.07-2.62-1.98-3.78-3.23,0,0-.02,0-.02-.01h.01ZM1802.69,1000.95c4.1-2.74,21.52-13.59,25.51-13.15-.06.11-.9.29-1.1.35-1.71.52-3.4,1.15-5.04,1.88-3.54,1.59-6.85,3.68-10.15,5.63-6.1,3.61-12.02,7.05-17.22,11.93-1.88,1.76-5.07,3.19-3.52,6.49l.06.12h-.01c1.89,2.09,5.54,3.26,8.25,2.64,5.54-1.25,11.62-4.28,16.62-6.98,3.68-1.98,11.06-6.21,13.81-9.3,1.44-1.66,2.51-3.61,3.13-5.73.42-1.49.58-3.9-.2-5.31-.57-1.02-1.78-1.28-2.82-1.54-1.1,1.28-1.67,2.26-2.98,3.48-2.28,2.12-6.3,4.27-8.42,6.3-.42,1.53-.69,2.53-1.22,4-1.47-.88-1.88-1.6-3.64-2.25-1.3.38-3.87,1.6-5.27,2.17-3.58,1.44-6.4,2.31-10.09,3.27,1.31-1.02,1.95-1.12,3.52-1.53,1.15-.3,2.37-.7,3.5-1.1,1.38-.49,2.74-1.01,4.09-1.57,1.22-.52,2.81-1.27,4.03-1.63,1.38.4,2.21,1.11,3.33,1.96.08-.55.13-1.14.17-1.7,0-.03,0-.05.01-.07-.11-.73-.39-3.35-.28-3.95.21.26.36,2.37.42,2.95.17-1.05.32-2.11.52-3.15.17.6.4,1.36.52,1.96,4.22-3.02,8.18-5.2,11.26-9.44h.02,0c1.26.12,2.56.34,3.41,1.38.94,1.16.87,3.06.67,4.47-.57,4.16-3.09,7.24-6.35,9.68-5.74,4.3-23.85,15.03-30.67,14.02-1.98-.29-4.16-1.1-5.4-2.76-.05-.06-.09-.13-.13-.19h.01c-.65-.91-.67-2.82,0-3.72.79-1.06,1.96-1.92,2.97-2.78,1.34-1.17,2.7-2.32,4.08-3.44,1.48-1.2,3.02-2.33,4.6-3.39ZM1792.98,1014.9c-.66-.26-1.11-.89-1.53-1.44.58.22,1.17.95,1.53,1.44ZM1833.84,998.6h0,0l.11.19c-.31,1.13-2.1,3.63-2.83,4.68-.34-.63.4-1.36.79-1.93.66-.97,1.27-1.97,1.93-2.94h0ZM1786.19,1022.81c.15-.05.06-.04.27,0-1.05.62-7.56.57-9.19.57-.26-.02-.15.02-.35-.1.25-.13,8.27-.41,9.27-.47h0ZM1779.72,1020.63c-.75.04-1.45.08-2.18-.13.82-.13,3.13-.12,4.11-.14,1.93-.05,3.86-.16,5.79-.32h-.01c.79-.09,1.58-.27,1.95.63l-.08.11c-.18-.17-.6-.62-.83-.59-2.94.41-5.79.44-8.75.44ZM1784.73,1004.41c-3.51-.22-7.08-.31-10.58-.61h0c-.91-.11-4.42-.9-4.96-1.56-.03.02,4.12,1.2,4.77,1.22,3.9.13,8.87,1.07,12.66.36,1.21-.23,4.07-1.73,5.62-2.21-1.2,1.19-5.72,2.91-7.51,2.8ZM1784.87,1000.5l-.09.1c-1.08.05-2.18.07-3.28.08s-2.21-.02-3.28-.06c-.69-.03-1.56-.02-2.02-.52h0c-.1-.04-1.1-.25-1.36-.33-.98-.3-1.74-.61-2.66-1.01h0c-1.05-.26-1.88-.67-2.85-1.14h0s-.27-.01-.27-.01c-.41-.27-.43-.31-.9-.35l.13-.27h0c.18-.11.46-.3.66-.19.54.28,2.32,1.17,2.65,1.53.24.09.48.18.73.27h0c3.63,1.36,5.15,1.32,9.01,1.35.85,0,2.3.03,3.14.18.58.11,1.48-.18,1.68.14-.78.07-1.33-.02-2.03.05.31.12.42.12.75.18ZM1793.07,1024.9h0s.49.1.49.1l.05.13-.35.27c-.41-.07-.35.03-.52-.19l.33-.31ZM1789.64,1024.07c1.27-.13,2-.12,3.12.56-.7.06-2.48-.28-3.12-.56ZM1794.81,930.86s0,0,0,0h0s0,0,0,0c.6.31,2.36,1.83,2.87,2.32-.26.6-.65,1.26-.96,1.85-.18.26-.47.62-.79.66.41-2.25-.41-2.84-1.12-4.83ZM1796.07,938.24l-.12-.11c-.1-.32.03-.99.07-1.35h0l.15.16c.08.48-.02.82-.1,1.3ZM1797,1003.83c-1.14.25-2.06.41-3.22.53-1.31.08-2.62.12-3.92.1,1.17-.73,2.56-1.74,3.59-2.67h0c1.19.53,2.44,1.34,3.55,2.04ZM1787.98,924.2l.06-.1c.48.45,1.26,2.02,1.7,2.18.2-.66-2.1-2.51-2.43-3.71h0c.94.92,4.63,5.97,5.24,7.15-.03,0-.31-.08-.34-.1-.96-.6-3.77-4.55-4.23-5.42ZM1791.29,936.5c1.37.56,1.36.54,1.48,2.01,0,0,0,0,0,0,.6-.62,1.27-1.33,1.91-1.9-.77,1.24-3.32,4.05-4.57,4.49.6-.67,1.31-1.24,1.96-1.87-.8-.02-2.2.93-2.42,1.61l.11.1v.04s.01,0,.02,0c0,0-.01.01-.02.02h0c-.51.48-1.31.89-1.93,1.25h0c-.25.21-.3.2-.62.31-.49-.07-.83-.09-1.16-.45.1-.79,4.35-4.93,5.24-5.6ZM1786,942.57h0s.03.16.03.16c-.71.76-10.76,5.62-12.54,6.61l-.06-.09c.69-.77,11.03-5.96,12.56-6.68h.01ZM1781.83,942.25c1.16-.07,1.73,0,2.87.22-.66.09-1.03.14-1.7.15-1-.1-1.57.15-2.18.07.38-.3.53-.3,1.01-.44ZM1778.99,943.28h0s.12.05.12.05c-.2.37-1.61,1.12-2.07,1.48-.71.56-1.15,1-1.79,1.65l-.12-.02c.26-.9,3.08-2.67,3.86-3.16ZM1758.82,957.17c3.37-1.23,6.04-2.93,8.99-4.93,2.39-1.63,4.96-3.38,7.44-4.89h0s.04.01.04.01l-.02.16c-2.76,2.13-5.56,3.74-8.41,5.69-.52.36-1.04.71-1.58,1.05-2.59,1.63-5.39,2.92-8.31,3.82l-.09-.08c.23-.25,1.54-.68,1.95-.83ZM1756.37,957.66l.07.13c-.39.37-3.94,1.06-4.73,1.24l-.07-.14c.69-.3,3.88-1.02,4.73-1.22h0ZM1742.64,960.13c2.09-.54,4.35-.74,6.46-1.18,1.16-.25,2.68-.73,3.84-1.08h0c-.27-.41-.42-.62-.33-1.09l.23-.07c.51.17.75.45.86.95h0c.58-.21.88-.37,1.5-.37l.08.06c-.82.42-1.74.63-2.63.92-3.43,1.12-6.99,1.55-10.54,2.08-.39.06-1,.12-1.36.1.81-.3,1.19-.14,1.89-.32ZM1740.28,961.89c-1.09.03-1.33,0-1.97-.88.71-.05,1.51.34,1.97.88ZM1728.39,956.13c.81,1.28,2.67,4.75,3.49,5.66,1.5.52,2.72.34,4.24.49,4.66.47,8.8-.42,13.28-1.51,8.79-2.15,17.14-5.85,25.48-9.36h0c.62-.23,1.92-.77,2.51-.89h0c3.24-2.28,8.01-4.14,11.37-6.6,2.31-1.69,3.69-3.96,5.84-5.47-.97,1.2-4.35,4.55-5.64,5.78-.08.07.16.58-.78,1.17.08-.34.52-.86.76-1.18-1.31.69-2.56,1.51-3.85,2.25l-7.47,4.2h0c-.92.31-1.74.92-2.65.96-2.58,1.55-6.53,2.91-9.38,4.05-8.1,3.21-16.69,6.29-25.41,7.11-1.95.18-6.69-.12-8.53-.78-1.03-1.15-2.7-4.43-3.24-5.88ZM1762.02,980.23c-1.05-1.51-1.05-1.63-2.35-3.06h.01c1.44.41,5.9,2.72,7.2,3.75.3.23.57.65.76.98-1.14-.16-4.47-1.25-5.62-1.67ZM1767.14,990.91c-.67-.24-3.07-2.53-3.57-3.14.58.19,3.45,2.73,3.57,3.14ZM1763.39,987.67c-.43-.06-3.27-2.61-3.66-3.09.61.2,3.32,2.52,3.66,3.09ZM1759.67,975.22c-5.71-3.28-12.35-5.53-17.97-9.36l.04-.09c-.28-.71-1.29-.63-.88-1.46,0,0,0,0,0,0h0c-.41.83.6.75.88,1.46l-.04.09c-1.23-.67-2.84-1.83-3.87-2.74,0,0-.01,0-.02,0h0s.02,0,.02,0c1.05.31,2.05.95,3.03,1.19,0,0,0,0,0,0h0s0,0,0,0c1.38.19,2.73.15,4.12.13h0c.65.32,1.07.65,1.25,1.39l-.02.17c-.37.21-1.06.24-1.53.3,1.09.88,2.58,1.6,3.81,2.28,1.86,1.02,3.74,2.01,5.61,3,3.95,2.08,7.7,4.55,11.42,7,4.03,2.66,8.36,5.28,12.08,8.35l-.17.29c-5.8-3.83-11.78-8.56-17.76-12ZM1759.38,984.22c-.65-.16-2.66-1.97-3.33-2.5.73.09,2.85,1.93,3.33,2.5ZM1755.11,980.8c-.48-.14-3.87-2.84-4.2-3.32.57.14,3.89,2.76,4.2,3.32ZM1748.21,974.53c-1.17-.49-6.36-2.87-6.91-3.76.05-1.13-.51-1.44-1.1-2.57,1.23.22,6.22,2.25,7.26,2.98.58,1.46.34,2.12.75,3.35ZM1755.29,969.51h0c1.52.17,8.54,3.52,10.28,4.57,1.42,1.24,3.16,2.64,4.48,3.95,2.43,2.41,5.47,4.85,7.73,7.35-.55-.21-2.62-1.77-3.2-2.19-3.83-2.8-7.49-5.71-11.34-8.49-2.78-2.01-5.53-2.91-7.96-5.19ZM1777.6,986.94h0c1.48,1.1,2.69,2.1,4.11,3.29.83.64,4.54,3.53,4.8,4.22-1.68-1.34-3.34-2.7-4.99-4.08-1.38-1.13-2.65-2.09-4.09-3.14l.17-.29ZM1733.87,980.15c-.02-.66-2.26-3.53-2.74-4.97h0c-.21-.32-.38-.43-.36-.72.1.04,4.93,4.04,5.1,4.25.06.92-1.28,1.29-2,1.44ZM1754.73,1022.4c-.42,1.17-.76,2.26-1.6,3.2,0,0,0,0,0-.01,0,0,0,0,0,.01,0,0,0,0,0,0,0,0,0,0,0,0-.37.42-.74.75-1.3.91-.67.2-1.48.36-2.17.15-.95-.33-1.43-.64-2.23-1.23,0,0,0,0,.01,0,0,0,0,0-.01-.01-.84-.37-2.66-1.94-3.28-2.63-.97-.94-1.72-2.23-2.4-3.37h0c-.25-.47-.49-.95-.72-1.43-.14-.3-.37-.75-.4-1.13,0,0,0,0,0-.01-.01-.13,0-.25.03-.36h0s0,0,0-.01l.32-.16.02-.26h0s0,0,0,0l-.26-.35-.06-.15-.14-.03-.33.39-.15-.1c-1.13-3.32-2.04-6.33-2.11-9.89l.06-.57h0s0-.03,0-.03h0s0,0,0,0h0l.52-.34c.12-.64.14-1.49.19-2.16.11-1.2.36-2.39.75-3.54,0,0,0,0,0,0,0,0,0,0,0,0,.73.9,1.43,1.75,2.12,2.68-.58,1.63-.66,3.29-.05,4.93.2.11.78.43.91.56,0,0,0,0,.01,0,0,0,0,0,0,0,0,0,0,0,.01,0,0,0,0,0,0,0,.71.23,1.37.41,2.09.61,0,0,0,0,0,0l1.55.5c-.41-2.6-2.99-4.89-4.49-7.07-.74-1.08-1.54-2.43-2.26-3.45-1.12,2.27-1.03,3.71-1.11,6.12-.39-.13-.26-.82-.26-1.19.03-4.61,2.86-10.64,8.34-7.06,4.9,3.2,7.07,8.98,8.46,14.43,1,4.2.99,7.86-.08,12.02h0ZM1748.2,986.44c.1.19.07.12,0,.34-.61.26-1.65-.43-2.18-.77-.87-.64-1.69-1.71-2.52-2.45-.55-.49-1.85-1.64-1.41-2.42.49-.26,1.41-.36,2.05-.53.46-.78.92-1.77,1.42-2.63h0c.27.02.62.09.88.22,2.37,1.16,1.91,3.85,1.79,6.02-.05.89-.44,1.41-.03,2.22ZM1760.92,998.4s0-.01,0-.02c-1.54-.78-3-.68-4.46-1.32-2.56-1.18-3.83-3.83-5.45-5.97-.48-.63-2.58-2.77-2.49-3.3.32-.14,1.35-.13,1.75-.16,3.19-.3,6.19.7,9.24,1.49,1.16.3,2.67.79,3.87.92l.18.02c-.78-.71-3.5-2.56-4.47-3.26l-7.5-5.49c-1.62-1.17-14.88-11.45-15.22-11.47-.24.16-.26.2-.53.28-.6-.32-5-3.33-5.34-3.69-.68-.44-1.09-.72-1.5-1.43-.18-.5-.15-.66.07-1.1h0c.71.09,1.68.52,2.36.81,1.2.44,7.28,2.88,7.7,3.68,3.13,5.99,7.52,8.49,12.52,12.3,1.23.93,12.33,9.33,12.47,9.57-.32.04-.19.04-.54-.18.35.22.22.23.54.18,1.19.57,4.74,3.73,5.6,4.81-1.32-.19-5.64-1.32-6.57-1.09l-.28.26c7.36,1.88,14.22,2.28,21.67,3.18.17.02,7.29,3.56,7.76,3.89l.06.22c-1.19-.58-2.59-1.06-3.81-1.62-1.36-.58-2.84-1.61-4.32-1.87-3.17-.56-6.45-.61-9.65-.99-.62-.07-1.58-.13-2.15-.3-1.51-.08-3.03-.24-4.53-.49l-.02.33.4.39-.13.27h-.02s0,.01,0,.01l-.36.16-.15-.06.1-.39c-.15.02-.19.02-.23.04-.03.03-.06.08-.19.2-.48,1.33,1,3.64,1.58,4.92-.02-.02-.04-.04-.06-.07.01.02.03.05.04.08-1.84-2.15-2.44-3.04-3.48-5.6-.67-.39-1.14-.64-1.85-.91l-.06.17c.72.4,1.13.72,1.79,1.22.39,1.09.69,1.92,1.28,2.93-.02,0-.03-.01-.05-.02,0,0,0,.01,0,.02,2.15,3.16,4.12,3.19,7.61,4.3h.03c.42.06,1.3.12,1.48.52-.88.39-4.17-.05-5.17-.22-5.29-.89-6.81-4.09-9.6-8.22-.34.54-.04,1.28.08,2.06,0,0,0,0,.01,0h0ZM1761.58,1004.46c2.64.46,2.76,1.63,5.6,1.39-1.12-.75-2.08-1.02-3.35-1.43.93-.08,1.09-.11,1.99-.35h0c.42,0,3.8,1.75,4.75,2.01,4.91,1.34,9.69,2.34,14.65,3.36-1.98.57-6.51.35-8.73.34-3.8-.19-8.76-.73-12.01-2.8-.99-.63-2.05-1.69-2.9-2.52ZM1775.37,1026.62c-.88.59-4.01,0-5.01-.44v.03c-1.34-.2-2.29-2.51-2.73-3.63,0,0,0,0,0,0h0s0,0,0,0c1.08,1.25,1.47,2.11,2.81,3.41v-.03s.01.03.01.03h0s.2.03.2.03c1.3.22,3.87.18,4.79.61l-.03.08-.22.04.24-.1-.05-.03ZM1767.16,1021.11c-.57-.75-.78-2.4-.87-3.32.44.34.75,2.64.87,3.32ZM1771.19,1029.01c-1.23.24-4.41-.59-5.32-1.48-.06-.06-.07-.14-.07-.22,0-.08.03-.17.04-.26h0c1.76-.24,14.79.16,15.88,1.11l-.07.17-.18.05c-1.33.18-3.52.4-4.84.45-1.06.31-4.32.23-5.44.18ZM1836.42,998.18c-2.2,7.2-4.65,9.14-10.03,13.6h0c-1.23.82-2.78,2.25-4.12,3.13-2.05,1.36-5.43,3.47-7.56,4.47-7.24,3.37-25.63,10.65-33.45,9.31,3.73-.99,8.54-1.23,12.49-2.24,7.09-1.81,13.9-4.48,20.37-7.93,1.87-1,3.46-2.28,5.21-3.38,3.29-2.06,5.88-3.92,8.86-6.38v-.02h.01c.19.17.54.39.75.54h0c1.22-1.08,1.77-1.58,2.73-2.87-.24-.26-.25-.25-.4-.57,0,0,0,0,0,0,0,0,0,0,0,0,.46-.68.93-1.29,1.38-1.98.61-.92,1.23-2.05,1.87-2.93,0,0,0,0,0,0,.26-.58,1.07-2.28,1.1-2.79l-.52.46c.02-.2.44-1.43.52-1.57.47-.83,1.19-4.38,1.77-4.85.46.82-.67,4.97-.98,6ZM1838.31,984.55c-.26,2.59-2.72,11.04-4.58,12.58.28-.87,1.06-2.23,1.3-2.93.31-.89,2.29-7.33,1.94-7.81-.14.39-.55.78-.85,1.05,0,0,1.96-5.08,2.15-5.64h0c.1.61.1.98.1,1.59,0,.39-.03.78-.06,1.16ZM1838.38,983.39c0-.61,0-.98-.1-1.59l-.08-.05c0-.13.26-1.05.31-1.4-.08-.27-.15-.5-.37-.67-1.06.24-1,1.15-1.29,2.03-.02-.1.24-1.85.28-2.05l.07.26c.06,0,.11-.03.16-.08-.04.04-.09.06-.14.07l-.07-.26.07-.81c-.98,1.2-2.5,4.57-3.51,5.19l-.13-.09c-.13-1.6,2.06-4.96,2.62-6.63.47-1.4.58-2.3.82-3.76-.05-.3-.14-.55,0-.82.96.83,1.14,4.01,1.42,5.02,0,0,0,0,0,0,.27,1.15.15,4.49-.04,5.63Z"/>
  <path class="st41" d="M1770,903.57c1.32,1.31,2.84,2.51,4.15,3.83,3.81,3.92,7.45,8.04,10.91,12.27.35.42,2.11,2.52,2.26,2.9.93.92,4.62,5.97,5.24,7.15,1.01,1.42,1.48,2.49,2.04,4.13h0s0,0,0-.01h.24c-.45-4.4-7.91-13.01-10.83-16.47-3.08-3.66-7.1-8.37-10.49-11.68-1.02-1-2.08-1.99-3.14-2.97l-.8.45c.14.14.28.26.42.4Z"/>
  <path class="st47" d="M1729.04,950.94s0,.01.01.02c.11.38.96.91,1.21,1.29,1.95,2.89,3.58,6.04,5.19,9.11.78.09,1.52.1,2.3.12-.64-1.08-1.27-1.76-2.05-2.74-2.83-3.57-5.23-7.53-7.43-11.57v1.48c.43.87.83,1.81.76,2.29Z"/>
  <path class="st38" d="M1729.04,950.94s0,.01.01.02c.11.38.96.91,1.21,1.29,1.95,2.89,3.58,6.04,5.19,9.11.78.09,1.52.1,2.3.12-.64-1.08-1.27-1.76-2.05-2.74-2.83-3.57-5.23-7.53-7.43-11.57v1.48c.43.87.83,1.81.76,2.29Z"/>
  <path class="st37" d="M1728.27,949.52c.27.49.55.99.77,1.45,0,0,0-.02,0-.03.07-.47-.34-1.42-.77-2.29v.87Z"/>
  <path class="st12" d="M1792.21,929.62s.31.1.34.1c-.61-1.18-4.3-6.23-5.24-7.15h0c.33,1.2,2.63,3.05,2.43,3.71-.44-.16-1.22-1.73-1.7-2.18l-.06.1c.46.87,3.27,4.82,4.23,5.42Z"/>
  <path class="st44" d="M1794.6,933.85c0,.63-.03,2.07.09,2.61.41-.54.22-1.93.15-2.62h-.24s0,0,0,.01Z"/>
  <path class="st12" d="M1757.57,910.11h0c.88.08,1.47-.92,2.41-.92-.94,0-1.53,1-2.42.91-.07,0-.12-.01-.17-.02l-.08.05c.07,0,.15,0,.28-.02h-.01Z"/>
  <path class="st12" d="M1786.93,927.37c-1.21-1.3-6.85-8.52-7.91-8.45l-.31.4h-.16s0,0,0,0c0,0-.01,0-.02,0h0s0,0,0,0c-.69-.28-1.58-1.02-2.17-1.49-3.89-3.14-8.1-5.84-12.1-8.83-.71-.53-1.47-1.09-2.22-1.55l-.14.08c-.21.29-.34.51-.54.87,1.23.2,3.45,2.04,4.55,2.82l6.04,4.25c2.95,2.1,6.33,4.05,8.79,6.7.93,1,2.75,2.8,3.44,3.95-.25.08-.3,0-.6-.15-.1.37-.21,1.06-.28,1.46-.23-.15-1.22-.77-1.4-.83-1.03-.32-2.02-.38-3.02-.9-1.8-.95-3.42-2.18-5.27-3.07-.28-.14-1.02-.51-1.31-.57-2.43-.54-2.2.53-4.74-.62-.41.41-.66.68-1.21.87-.78.27-1.64.21-2.37-.16-.65-.32-1.5-1.16-.93-1.89.66-.86,2.29-.37,3.28-.5l.05-.18-.17-.23c-.21-.67-.66-1.25-1.07-1.83-.02-.21.02-.11-.17-.28-.99-1.45-2.62-2.71-4.09-3.64-1.06-.57-3.09-1.74-3.95-2.61-.2-.2-.16-.38-.11-.58l-3.66,2.07c.67,1.99,2.06,3.37,2.42,5.03-3.04,2.58-5.18,2.58-8.25,4.01-.56-.76-2.38-2.35-3.9-3.53l-15.13,8.58-.02,14.37c1.02,1.95,2,3.91,2.91,5.94.58,1.3.79,2.79,1.58,4,1.15,1.71,3.03,3.42,4.83,4.41,1.01.02,2.53-.01,3.51-.27,7.01-1.84,13.9-4.01,20.66-6.66,3.37-1.32,6.33-2.48,9.41-4.43.65-.41,2.37-1.16,2.84-1.62,1.22-.64,3.74-1.78,4.81-2.46,1.34-.85,3.33-3.08,4.76-4.26,2.08-1.72,4.8-3.02,6.5-5.03.2-.24.25-.46.23-.71.02.25-.03.47-.23.71-1.7,2.01-4.42,3.31-6.5,5.03-1.43,1.18-3.42,3.41-4.76,4.26-1.07.68-3.59,1.82-4.81,2.46.18-1.55,3.78-2.85,5.03-3.64-.41-.37-.81-.72-1.2-1.11-1.46.91-10.3,6.17-11.35,6.19,0,0,0,0,0-.01-.32-.17-.38.01-.64-.33.69-.77,4.23-2.36,5.38-3.05,3.87-2.32,7.62-4.81,11.44-7.22.62-.39,2.51-1.82,3.08-1.79.31.17.32.29.46.62-4.5,2.58-8.92,5.3-13.36,7.99-.82.49-6.17,3.38-6.36,3.77h0c.27-.41,5.55-3.25,6.35-3.75,4.44-2.69,8.86-5.41,13.36-7.99,2.33-1.02,1.81.21,4.06-2.39h0c-.6-.81-1.13-1.77-1.69-2.49l-.06.05c-.38-.2-1.17.08-1.6.2ZM1766.19,919.35c-.45-.31-1.05-1.27-1.07-1.83.4.58.86,1.16,1.07,1.83ZM1738.58,952.99h-.05c-.46.15-.92.18-1.42.22-.54.07-.89.17-1.42.06v-.11c.52-.25.99-.23,1.57-.27h0c.33-.04.85-.04,1.19-.05l.08.15c.06-.02.12-.03.18-.06l-.15.06h.02ZM1760.99,913.87c-.04-.09-.08-.18-.12-.28,1.47.93,3.1,2.19,4.09,3.64-.46-.1-3.11-2.98-3.97-3.36Z"/>
  <path class="st47" d="M1756.93,910.98c.86.87,2.89,2.04,3.95,2.61,1.47.93,3.1,2.19,4.09,3.64.19.17.15.07.17.28.41.58.86,1.16,1.07,1.83l.17.23-.05.18c-.99.13-2.62-.36-3.28.5-.57.73.28,1.57.93,1.89.73.37,1.59.43,2.37.16.55-.19.8-.46,1.21-.87,2.54,1.15,2.31.08,4.74.62.29.06,1.03.43,1.31.57,1.85.89,3.47,2.12,5.27,3.07,1,.52,1.99.58,3.02.9.18.06,1.17.68,1.4.83.07-.4.18-1.09.28-1.46,0,0,0,0,0,0-.64-.79-6.09-4.48-7.28-5.31-2.04-1.43-4.3-3.08-6.36-4.51-3.31-2.3-6.37-4.35-9.53-6.88h0c-.15-.05-.29-.07-.42-.07-.94,0-1.53,1-2.41.91h0s.01.01.01.01c-.12.01-.21.02-.28.02l-.48.27c-.05.2-.09.38.11.58Z"/>
  <polygon class="st46" points="1778.53 919.32 1778.53 919.32 1778.53 919.32 1778.53 919.32"/>
  <path class="st46" d="M1781.09,918c-.7-.69-1.54-1.27-2.21-1.99-3.69-3.97-7.36-7.96-11.23-11.74l-2.4,1.36c3.59,2.83,13.06,12.65,13.3,13.69h.16l.31-.4c1.06-.07,6.7,7.15,7.91,8.45.43-.12,1.22-.4,1.6-.2l.06-.05c-.56-1.04-2.93-4.51-3.68-5.29,0,0,0,0,0,0l-.32-.07c-1.34-1.12-2.32-2.5-3.5-3.76Z"/>
  <line class="st2" x1="1784.92" y1="921.83" x2="1784.92" y2="921.83"/>
  <path class="st37" d="M1767.65,904.26c3.88,3.78,7.54,7.77,11.23,11.74.67.72,1.51,1.3,2.21,1.99,1.18,1.26,2.16,2.64,3.5,3.76l.32.07h.01s-.02-.02-.02-.02c-1.98-2.46-3.98-5.06-6.06-7.43-3.25-3.71-6.79-7.14-10.18-10.69l-1.01.57Z"/>
  <path class="st12" d="M1760.4,909.26s0,0,0,0c3.16,2.53,6.22,4.57,9.53,6.88,2.06,1.43,4.32,3.09,6.36,4.51,1.19.83,6.64,4.52,7.28,5.31,0,0,0,0,0,0,.3.14.35.22.6.15-.69-1.15-2.51-2.95-3.44-3.95-2.46-2.65-5.84-4.6-8.79-6.7l-6.04-4.25c-1.1-.78-3.32-2.62-4.55-2.82-.44.28-.61.5-.96.87Z"/>
  <path class="st4" d="M1760.4,909.26s0,0,0,0c3.16,2.53,6.22,4.57,9.53,6.88,2.06,1.43,4.32,3.09,6.36,4.51,1.19.83,6.64,4.52,7.28,5.31,0,0,0,0,0,0,.3.14.35.22.6.15-.69-1.15-2.51-2.95-3.44-3.95-2.46-2.65-5.84-4.6-8.79-6.7l-6.04-4.25c-1.1-.78-3.32-2.62-4.55-2.82-.44.28-.61.5-.96.87Z"/>
  <path class="st47" d="M1776.3,920.65c-2.04-1.42-4.3-3.08-6.36-4.51-3.31-2.31-6.37-4.35-9.53-6.88,0,0,0,0,0,0h0c3.16,2.53,6.22,4.58,9.53,6.88,2.06,1.43,4.32,3.08,6.36,4.51,1.19.83,6.64,4.52,7.28,5.31,0,0,0,0,0,0,0,0,0,0,0,0-.64-.79-6.09-4.48-7.28-5.31Z"/>
  <path class="st3" d="M1776.3,920.65c-2.04-1.42-4.3-3.08-6.36-4.51-3.31-2.31-6.37-4.35-9.53-6.88,0,0,0,0,0,0h0c3.16,2.53,6.22,4.58,9.53,6.88,2.06,1.43,4.32,3.08,6.36,4.51,1.19.83,6.64,4.52,7.28,5.31,0,0,0,0,0,0,0,0,0,0,0,0-.64-.79-6.09-4.48-7.28-5.31Z"/>
  <path class="st37" d="M1776.36,917.83c.58.47,1.48,1.21,2.17,1.49,0,0,0,0,0,0,0,0,.01,0,.02,0,0,0,0,0,0,0-.24-1.04-9.71-10.87-13.3-13.69l-3.21,1.82c.76.47,1.51,1.02,2.22,1.55,4,2.99,8.21,5.69,12.1,8.83Z"/>
  <path class="st44" d="M1786.22,932c-4.5,2.58-8.92,5.3-13.36,7.99-.8.5-6.08,3.34-6.35,3.76h0s0,0,0,0c0,0,0,0,0,.01,1.05-.02,9.89-5.28,11.35-6.19.39.39.79.74,1.2,1.11-1.25.79-4.85,2.09-5.03,3.64,1.22-.64,3.74-1.78,4.81-2.46,1.34-.85,3.33-3.08,4.76-4.26,2.08-1.72,4.8-3.02,6.5-5.03.2-.24.25-.46.23-.71,0-.08-.02-.17-.04-.26h0s0,0,0,0c-2.25,2.6-1.73,1.37-4.06,2.39Z"/>
  <path class="st39" d="M1766.51,943.75h0c.19-.4,5.54-3.29,6.36-3.78,4.44-2.69,8.86-5.41,13.36-7.99-.14-.33-.15-.45-.46-.62-.57-.03-2.46,1.4-3.08,1.79-3.82,2.41-7.57,4.9-11.44,7.22-1.15.69-4.69,2.28-5.38,3.05.26.34.32.16.64.33,0,0,0,0,0,0h0Z"/>
  <path class="st39" d="M1759.98,909.19c.13,0,.27.02.42.07h0s0,0,0,0c.35-.37.52-.59.96-.87.2-.36.32-.58.54-.87l-4.51,2.56c.05,0,.1.01.17.02.89.09,1.48-.91,2.42-.91Z"/>
  <path class="st37" d="M1760.87,913.59c.04.1.08.19.12.28.86.38,3.51,3.26,3.97,3.36-.99-1.45-2.62-2.71-4.09-3.64Z"/>
  <path class="st41" d="M1766.19,919.35c-.21-.67-.67-1.25-1.07-1.83.02.56.62,1.52,1.07,1.83Z"/>
  <line class="st1" x1="1738.58" y1="952.99" x2="1738.56" y2="952.99"/>
  <path class="st45" d="M1737.26,952.9h0c-.58.03-1.05.01-1.57.26v.11c.53.11.88,0,1.42-.06.5-.04.96-.07,1.42-.22l-.08-.15c-.34.01-.86.01-1.19.06Z"/>
  <path class="st45" d="M1738.53,952.99h0s.03,0,.03,0l.15-.06c-.06.03-.12.04-.18.06Z"/>
  <path class="st0" d="M1728.6,957.64c0-.25-.13-.74-.34-1.34v1.25c.15.09.11.08.34.08Z"/>
  <polygon class="st47" points="1744.63 1022.82 1744.63 1022.81 1744.62 1022.82 1744.63 1022.82"/>
  <path class="st47" d="M1744.86,1021.86h.01c.04-.71,2.27-7.69,2.64-8.49l.22-.02c.41.21.55.43.85.79,0,0,0,0,0,0-.31-.37-.44-.59-.86-.8l-.22.02c-.37.8-2.6,7.77-2.64,8.49l-.29.19s0,.01,0,.02h0s.29-.19.29-.19h0Z"/>
  <polygon class="st47" points="1744.62 1022.81 1744.62 1022.82 1744.62 1022.82 1744.62 1022.81 1744.62 1022.81"/>
  <path class="st47" d="M1748.93,1018.84c0-.51,0-1.02,0-1.52h-.01s0,0,0,.01c0,.5,0,1.01,0,1.51Z"/>
  <path class="st47" d="M1750.97,1024.23c.25-.12.23-.13.42-.34h0c-.19.21-.17.22-.42.34l-.52.2h0s.52-.2.52-.2h0Z"/>
  <path class="st47" d="M1754.53,1022.04v-.02c.5-2.21.65-3.59.65-5.88-.82-.47-2.72-1.54-3.31-2.24.33.12.33.16.65.11-.13-.34-1.07-1.2-1.38-1.52.24,0,1.08.86,1.37,1.07.86.65,1.76,1.24,2.63,1.88-.15-3.01-.73-5.98-1.72-8.83l-.14-.3c-.23-1.22-2.59-6.28-3.58-6.7l-.22-.27c0-.35-.75-1.06-1.03-1.34-.03.91-.01,2.78-.3,3.55-.18-.44.13-3.15.17-3.81-.98-.82-3.38-2.74-4.76-2.42-.17.91.5,3.06.78,3.95l.13.08c1.5.92,1.4,2.68,2.41,4.32-.27.26-.11.19-.48.22-.35-.17-.35-.16-.66-.44h-.21c-.41-.53-.4-1.37-.88-2.16-.41-.71-1.24-4.97-1.37-5.98-.46.05-.58.04-1.01.2l.07.13h0c.14.06.3.09.3.24-.03,3.31-.4,4.87,1.65,7.7-.69-.58-1.15-1.01-1.78-1.65.13.66,1.48,2.3,2.01,2.78l.18.03.2-.2c.23.17.17.06.24.32-.19.14-.22.11-.31.32.7,1.08,1.47,2.12,1.55,3.43h-.01c.22.33.36.36.71.53-.11.54-.59.68-.61,1.18.12.14.34.17.57.15.23-.03.47-.11.63-.2l.15-.04s0-.01,0-.02l-.13.04h0s0,0,0,0h0s0,0,0,0h0,0c-.13-.59-.27-1.03.35-1.35l.2.1c.14.33.06.52-.01.87l-.13-.26-.14.04s0,.01,0,.02l.14-.04h0s0,0,0,0l.13.26-.03.74-.18.02c-.95.11-1.01,0-1.79.85-.18.19-.41.39-.62.55,0,0,0,0,0,0-.02.65-.15,1.47-.36,2.08-.28.27-1.21.99-1.27,1.21v.04s0,0,0,.01c0,0,0,0,.01-.01h0c.06.11.14.24.22.37.47.75,1.17,1.86,1.32,2.48.04.19.01.15.06.2.4-1.51,1.7-5.06,1.8-6.37-.16-.18-.13-.13-.25-.35.24-.06.39-.11.63-.18.27-.23.26-.35.34-.69l.07-.16.02.02h0c.32.45.73,1.59.8,2.13l.61-.08c.14.19.1.09.14.28.37.52,1.06,1.16,1.07,1.73l-.17.23-.18.17v.48c-.21-.11-.32-.18-.53-.31-.05-.22-.08-.44-.09-.67l-.17-.25c-.1.97.27,1.7.33,2.64.04.54-.34.83-.18,1.55l-.21-.02c-.35-.44-.03-1.57-.35-2.02-.21.2-.26.46-.36.74,0,0,0,0,0,.01.09-.28.14-.53.35-.73.32.45,0,1.59.35,2.02l.21.02c.2.77-.17,5.39-.13,6.69-.82.81-1.43.05-2.27.12-.84-.37-2.66-1.94-3.28-2.63h-.01c-.97-.94-1.72-2.23-2.4-3.37h0c.68,1.15,1.43,2.44,2.4,3.37.62.69,2.44,2.26,3.28,2.63,0,0,0,0,.01.01.83-.06,1.44.68,2.26-.12.27,0,.21,0,.47-.09.18-.31.19-.44.28-.79h0s0-.01,0-.01h0c.28-1.21.21-2.74.19-4.01.95,1.99.38,2.12.75,3.47.48-.33,1.35-1.11,1.82-.46,0,.58-.37.92-.73,1.39-.32.48-1.23.74-1.79.64.56.1,1.47-.15,1.79-.64l.17.08.31-.18c.08.3.06.65.16.88,0,0,0,0,0,0,0,0,0,0,0-.01-.1-.23-.08-.57-.16-.88.48-.88,1.05-1.77,1.56-2.67ZM1744.65,1001.29h0c.48.79.47,1.64.88,2.17.05.33.11.28,0,.49l-.15-.09c-.39-.9-.55-1.62-.73-2.57ZM1745.95,1006.16l-.07-.14c-.25-.51-.28-.59-.4-1.16.43.3,1.55,1.98,1.47,2.54-.5-.47-.71-.63-1-1.24ZM1747.92,1007.13c-.36-.65-.09-4.48.2-5.24.13.43-.15,4.48-.2,5.24ZM1749.63,1006.84c-.3.02-.52-.16-.79-.31-.05-.19.61-6.22.64-7.16h0s.22.26.22.26c-.01.87.15,6.91-.07,7.21ZM1752.56,1012.86c-.31-.17-1.08-.75-1.29-1.04-.39-.55-.27-.68-.17-1.27h0c1.46.43,1.73.88,1.46,2.31ZM1753.57,1009.26c-.12.37-.16.39-.38.69-.14.16-.26.31-.4.47-.36.06-.2.09-.5-.11-.31-.59-.23-1.23-.19-1.88h.01c.6.04,1.28.2,1.46.83ZM1749.81,1008.26h0c.82-.56,2.55-1.57,3.46-1.94l.14.3c-.57.76-1.26,1.67-2.13,1.84-.55.11-.42.58-.72,1.22l-.13.04c-.22-.48-.43-.97-.63-1.46h.01ZM1750.19,1011.93l.13-.07c.47.08.63.31.82.71-.36-.2-.72-.33-.95-.64ZM1750.48,1015.16l.17-.17h0c.84,1.26,1.51,2.67,2.47,3.91,1.25,1.61,1.46,1.91.67,3.78-.1-.08-.32-.21-.36-.33-.63-1.76-1.31-3.44-2.19-5.1-.27-.51-.52-1.08-.76-1.61v-.48ZM1749.94,1015.36v-.02h0c.21.13.32.2.54.31.24.53.49,1.1.76,1.61.88,1.65,1.56,3.34,2.19,5.1.04.12.26.25.36.33l-.18.34-.16.03c-.54-.83-3.22-6.69-3.51-7.7Z"/>
  <path class="st47" d="M1742.39,1001.72c-.8-1.35-1.72-2.14-2.53-3.91.81,1.78,1.73,2.56,2.53,3.91Z"/>
  <path class="st47" d="M1748.94,1024.17s0,0,0-.01h.01c0-.5,0-1.01-.01-1.52,0,.51,0,1.02,0,1.53h0Z"/>
  <path class="st47" d="M1742.26,995.68c-1.62.79-1.33.78-2.41,2.06,1.08-1.27.79-1.27,2.41-2.06Z"/>
  <polygon class="st47" points="1740.62 1016.85 1740.62 1016.86 1740.62 1016.86 1740.62 1016.85"/>
  <path class="st47" d="M1738.02,1005.35l.52-.34c.12-.64.14-1.49.19-2.16.11-1.2.36-2.38.75-3.53,0,0,0,0,0,0-.39,1.15-.64,2.34-.75,3.54-.05.67-.07,1.52-.19,2.16l-.52.34h.01Z"/>
  <polygon class="st47" points="1738.01 1005.35 1738.01 1005.36 1738.02 1005.35 1738.01 1005.35"/>
  <path class="st47" d="M1746.16,1008.6c-.41-2.61-2.99-4.9-4.49-7.08-.75-1.09-1.55-2.45-2.28-3.47h-.01s0,0,0,0h0s0,.01-.01.02c.73,1.02,1.52,2.36,2.26,3.45,1.5,2.19,4.07,4.48,4.49,7.07h.02s.02,0,.02,0Z"/>
  <path class="st47" d="M1740.83,1015.48l.19-.28c1.47-1.31,3.89-3.45,5.16-4.85-1.29-.8-3.02-1.56-4.46-2.4v.28s0,0-.01,0v.02s0,0,0,0c.13,1.91.46,3.33.96,5.16-.28.22-.56.43-.82.68l-.61-.85c0,.42.34.88.18,1.15-.19.35-.35.34-.39.8l-.19.28-.09.25-.06-.15-.14-.03-.33.39-.15-.1c-1.13-3.32-2.04-6.33-2.11-9.89h.02l.06-.57s0,0-.01,0h0s0,.03,0,.03l-.06.57c.07,3.56.98,6.57,2.11,9.89l.15.1.33-.39.14.03.06.15.26.35h0s-.26-.35-.26-.35l.09-.25Z"/>
  <polygon class="st47" points="1738.02 1005.35 1738.02 1005.35 1738.02 1005.35 1738.02 1005.35"/>
  <path class="st47" d="M1742.91,1008.05s.02,0,.02,0c-.26-.23-.34-.25-.46-.58,0,0,0,0-.01,0,.13.31.2.35.45.57Z"/>
  <path class="st47" d="M1747.68,1010.27l.15-.04c.03-.27.05-.29.13-.56l.13-.04h0s-.14.04-.14.04c-.07.25-.1.27-.12.54h0s0,.01,0,.02l-.15.04c-.15.08-.39.17-.63.2.24-.03.48-.11.64-.2Z"/>
  <path class="st45" d="M1737.95,1005.93c.07,3.56.98,6.57,2.11,9.89l.15.1.33-.39.14.03.06.15.09-.25.19-.28c.04-.46.2-.45.39-.8.16-.28-.18-.74-.18-1.15v-.02c-.05-.7-.57-2.83-.75-3.74,0,.05-.01.03-.08.16-.23-.3-.44-1.67-.67-2.29-.42-.29-.85-.61-1.26-.92-.14-.08-.23-.31-.32-.48,0,0,0,0,0,0h-.17,0s-.02-.01-.02-.01Z"/>
  <path class="st47" d="M1738.47,1006.42c.41.31.84.63,1.26.92.23.62.44,1.99.67,2.29.07-.13.08-.1.08-.16,0-.01,0-.03,0-.04.04-.38-.01-.27.16-.58l.25.15c.16-.39-.14-.71-.07-1.19h0s-.03-.44-.03-.44c-.89-.47-1.73-1.03-2.64-1.43.1.17.19.4.32.48Z"/>
  <path class="st39" d="M1738.54,1005.01l-.52.34c.93.71,3.76,2.22,4.89,2.7-.25-.22-.32-.26-.45-.57-.13-.13-.71-.45-.91-.56-.61-1.64-.53-3.3.05-4.93-.69-.93-1.39-1.78-2.12-2.68,0,0,0,0,0,0-.39,1.15-.64,2.33-.75,3.53-.05.67-.07,1.52-.19,2.16Z"/>
  <polygon class="st39" points="1738.03 1005.36 1738.03 1005.36 1738.02 1005.35 1738.02 1005.35 1738.02 1005.35 1738.01 1005.35 1738.01 1005.35 1738.01 1005.35 1738.02 1005.35 1738.03 1005.36"/>
  <path class="st46" d="M1741,1016.04h0s0-.01,0-.01l.17-.11v.02c.23-.31,3.98-3.58,4.43-3.91,0,0,0,.01,0,.02,0,0,0,0,0,0,.21-.16.44-.36.62-.55.78-.85.84-.74,1.79-.85l.18-.02.03-.74-.13-.26h0s-.13.04-.13.04c-.08.27-.1.29-.13.56l-.15.04c-.16.09-.4.17-.64.2-.23.03-.45,0-.57-.15.02-.5.5-.64.61-1.18-.36-.17-.5-.2-.71-.53h-.21s0,0,0,0h-.04s-1.55-.51-1.55-.51c-.55.45.06.06-.19.59-.42-.04-1.03-.41-1.43-.62h-.01c-.26-.23-.34-.25-.46-.58,0,0,0,0-.01,0,0,0,0,0,0,0,.12.33.2.35.46.58,0,0-.02,0-.02,0-1.13-.48-3.96-1.99-4.89-2.7h0s0,.01,0,.01l-.06.57h0s.17.01.17.01c0,0,0,0,0,0,.92.4,1.75.96,2.64,1.43l.03.45h0c.08.03.18.07.27.11-.09-.03-.18-.07-.26-.1l-.03-.45s0,0-.01,0h.01c.33.18.64.31.92.57v.02c1.44.85,3.17,1.61,4.46,2.4-1.27,1.4-3.69,3.54-5.16,4.85l-.19.28-.09.25.26.35h0s0-.04,0-.04Z"/>
  <path class="st46" d="M1741.7,1008.23s0,0,0,0c0,0,0,0,0,0v-.02c-.11-.07-.24-.14-.38-.19.13.06.26.12.37.2Z"/>
  <path class="st39" d="M1742.94,1008.06h.01c.4.21,1.01.58,1.43.62.25-.53-.37-.14.19-.59,0,0,0,0,0,0-.72-.2-1.38-.38-2.09-.61,0,0,0,0,0,0,.12.33.2.35.46.58Z"/>
  <polygon class="st12" points="1740.79 1007.36 1740.8 1007.36 1740.8 1007.36 1740.79 1007.36"/>
  <path class="st12" d="M1741.71,1008.22s0,0,.01,0v-.3c-.28-.26-.59-.39-.92-.56l.03.45c.08.03.17.07.26.1.09.03.16.07.25.11.13.06.27.12.38.19Z"/>
  <path class="st45" d="M1740.48,1009.44s0,.02,0,.03c.18.9.7,3.04.74,3.74v.02s0,0,0,0c-.04-.71-.58-2.9-.75-3.78Z"/>
  <path class="st6" d="M1740.48,1009.44s0,.02,0,.03c.18.9.7,3.04.74,3.74v.02s0,0,0,0c-.04-.71-.58-2.9-.75-3.78Z"/>
  <path class="st47" d="M1740.88,1009l-.25-.15c-.17.31-.12.2-.16.58,0,.01,0,.03,0,.04,0,0,0-.02,0-.03.17.88.71,3.07.75,3.78,0,0,0,0,0,0l.61.85c.26-.25.54-.46.82-.68-.5-1.84-.83-3.26-.96-5.16-.25-.17-.6-.29-.88-.41h0s0-.02,0-.02c-.07.48.23.8.07,1.19Z"/>
  <path class="st11" d="M1740.88,1009l-.25-.15c-.17.31-.12.2-.16.58,0,.01,0,.03,0,.04,0,0,0-.02,0-.03.17.88.71,3.07.75,3.78,0,0,0,0,0,0l.61.85c.26-.25.54-.46.82-.68-.5-1.84-.83-3.26-.96-5.16-.25-.17-.6-.29-.88-.41h0s0-.02,0-.02c-.07.48.23.8.07,1.19Z"/>
  <path class="st46" d="M1741.7,1008.23s0,0,0,0c-.1-.08-.23-.14-.37-.2-.09-.04-.16-.07-.25-.11-.09-.04-.18-.07-.27-.1h0s0,.01,0,.01c.28.12.63.24.88.41Z"/>
  <path class="st10" d="M1741.7,1008.23s0,0,0,0c-.1-.08-.23-.14-.37-.2-.09-.04-.16-.07-.25-.11-.09-.04-.18-.07-.27-.1h0s0,.01,0,.01c.28.12.63.24.88.41Z"/>
  <path class="st12" d="M1741.09,1007.92c.09.03.16.07.25.11-.08-.04-.16-.07-.25-.11Z"/>
  <path class="st7" d="M1741.09,1007.92c.09.03.16.07.25.11-.08-.04-.16-.07-.25-.11Z"/>
  <path class="st45" d="M1754.8,1010.37c-1.39-5.45-3.56-11.23-8.46-14.43-5.48-3.58-8.31,2.45-8.34,7.06,0,.37-.13,1.06.26,1.19.08-2.41-.02-3.85,1.11-6.12,0,0,0-.01.01-.02,0,0,0,0,0-.01h0s.01.01.01.01c.73,1.02,1.53,2.38,2.28,3.47,1.5,2.18,4.07,4.47,4.49,7.08,0,0,0,0,0,0h.22c-.08-1.31-.85-2.35-1.55-3.43.09-.21.12-.18.31-.32-.07-.26-.01-.15-.24-.32l-.2.2-.18-.03c-.53-.48-1.88-2.12-2.01-2.78,0,0,0,0,0,0-.04-.07-.08-.13-.12-.2-.8-1.35-1.72-2.13-2.53-3.91,0-.02-.02-.04-.03-.06,0,0,.01-.01.02-.02,1.08-1.28.79-1.27,2.41-2.06.03-.01.05-.02.08-.04h0s-.07-.13-.07-.13c.43-.16.55-.15,1.01-.2.13,1.01.96,5.27,1.37,5.98.48.79.47,1.63.88,2.16h.21c.31.28.31.27.66.44.37-.03.21.04.48-.22-1.01-1.64-.91-3.4-2.41-4.32l-.13-.08c-.28-.89-.95-3.04-.78-3.95,1.38-.32,3.78,1.6,4.76,2.42-.04.66-.35,3.37-.17,3.81.29-.77.27-2.64.3-3.55.28.28,1.03.99,1.03,1.34l.22.27c.99.42,3.35,5.48,3.58,6.7l.14.3c.99,2.85,1.57,5.82,1.72,8.83-.87-.64-1.77-1.23-2.63-1.88-.29-.21-1.13-1.07-1.37-1.07.31.32,1.25,1.18,1.38,1.52-.32.05-.32.01-.65-.11.59.7,2.49,1.77,3.31,2.24,0,2.29-.15,3.67-.66,5.88v.02s.01,0,.01,0h0s0,0,0,0c0,0,0,0,0,0l.19.36c1.07-4.15,1.08-7.82.08-12.02Z"/>
  <polygon class="st39" points="1740.98 1016.33 1740.66 1016.49 1740.66 1016.49 1740.98 1016.34 1740.98 1016.33"/>
  <path class="st39" d="M1745.59,1018.44s0,0,0,0c-.04-.05-.01-.01-.06-.2-.14-.62-.84-1.73-1.32-2.48.47.75,1.17,1.87,1.32,2.49.04.18.02.15.05.2Z"/>
  <path class="st39" d="M1745.61,1012.03c-.45.33-4.2,3.6-4.43,3.91v-.02l-.17.11h0s.16-.1.16-.1v.02c.19.67,2.28,4.03,2.81,4.92.44.51.13,1.06.57,1.27,0,0,0,0,0,0v-.07h.02v-.02s0-.01,0-.02l-.02.02c.03-.25.11-.55.16-.81,0,0,0-.01,0-.02-.05-1.5-1.47-2.82-1.83-4.37h0c.56.64,1.26,1.44,1.77,2.13.06.08.06.75.05.88.08-.04.14-.08.2-.13-.05.05-.11.09-.19.12,0-.14,0-.81-.05-.88-.51-.7-1.21-1.49-1.77-2.13-.21-.12-.13-.06-.27-.27.47-.38.95-.73,1.35-1.18,0,0,0,0,0-.01v-.04c.06-.22.99-.94,1.27-1.21.21-.61.34-1.43.36-2.08,0,0,0-.01,0-.02Z"/>
  <path class="st46" d="M1740.65,1016.52l.33-.16c.33,1.02.54,1.67,1.13,2.56h0s0,0,0,0c.36.51,1.32,2.01,1.8,2.22l.07-.26c.44.51.13,1.06.57,1.27,0,.1.02.2.03.31,0-.11-.02-.21-.03-.31h0s0,0,0,0c-.44-.21-.13-.76-.57-1.27-.53-.89-2.62-4.25-2.81-4.92v-.02l-.16.1h0s0,.04,0,.04l-.02.26h0s-.32.16-.32.16h0c-.04.11-.04.23-.03.36,0,0,0,0,0,0-.01-.12,0-.24.03-.34Z"/>
  <path class="st46" d="M1744.59,1022.52c0,.1.02.2.04.29h0c-.02-.09-.03-.19-.04-.29Z"/>
  <path class="st47" d="M1744.62,1022.82s0,0,0,0l-.48-.02c-.97-.94-1.72-2.22-2.39-3.37h0c.68,1.15,1.43,2.44,2.4,3.38h.01s0,0,0,0l.47.02Z"/>
  <path class="st9" d="M1744.62,1022.82s0,0,0,0l-.48-.02c-.97-.94-1.72-2.22-2.39-3.37h0c.68,1.15,1.43,2.44,2.4,3.38h.01s0,0,0,0l.47.02Z"/>
  <path class="st46" d="M1744.62,1022.81c-.02-.09-.03-.19-.04-.29,0-.02,0-.04,0-.06,0-.11-.02-.21-.03-.31-.44-.21-.13-.76-.57-1.27l-.07.26c-.48-.21-1.44-1.71-1.8-2.22h0s0,0,0,.01l-.36.49c.68,1.15,1.43,2.43,2.39,3.37l.48.02Z"/>
  <path class="st8" d="M1744.62,1022.81c-.02-.09-.03-.19-.04-.29,0-.02,0-.04,0-.06,0-.11-.02-.21-.03-.31-.44-.21-.13-.76-.57-1.27l-.07.26c-.48-.21-1.44-1.71-1.8-2.22h0s0,0,0,.01l-.36.49c.68,1.15,1.43,2.43,2.39,3.37l.48.02Z"/>
  <path class="st39" d="M1741.75,1019.42l.36-.49s0,0,0,0c-.59-.9-.8-1.55-1.13-2.56l-.33.16c-.04.1-.04.22-.03.34,0,0,0,0,0,0,.04.38.26.83.4,1.13.23.48.47.96.72,1.43h0s0,0,0,0Z"/>
  <path class="st45" d="M1742.91,1016.84c.56.64,1.26,1.43,1.77,2.13.05.07.05.74.05.88.07-.03.13-.08.19-.12.15-.14.24-.32.42-.5,0-.02.01-.03.02-.05.17-.27.16-.41.23-.73,0,0,0,0,0-.01-.04-.05,0-.01-.05-.2-.14-.62-.85-1.74-1.32-2.49-.08-.13-.16-.26-.22-.36h0s0,0-.01,0c-.4.44-.88.8-1.35,1.18.14.21.06.15.27.27Z"/>
  <path class="st47" d="M1745.34,1019.23c-.18.18-.27.36-.42.5-.05.05-.12.1-.2.13.01-.13.01-.8-.05-.88-.51-.69-1.21-1.49-1.77-2.13h0c.36,1.56,1.77,2.87,1.83,4.37.22-.66.42-1.33.62-1.99Z"/>
  <polygon class="st12" points="1744.86 1021.86 1744.86 1021.86 1744.86 1021.86 1744.86 1021.86"/>
  <path class="st12" d="M1748.67,1024.16s0,0,.01.01h.26c0-.51,0-1.02,0-1.53,0-.51-.01-1.01-.01-1.52,0,1.01,0,2.02,0,3.04h-.26Z"/>
  <path class="st12" d="M1748.92,1020.36c0-.51,0-1.01,0-1.52,0-.5,0-1.01,0-1.51,0,0,0,0,0-.01h0s0,0,0,0c0,1.01,0,2.02,0,3.03Z"/>
  <path class="st12" d="M1748.58,1015.88c0-.57.02-1.16,0-1.74-.3-.36-.43-.58-.85-.79l-.22.02c-.37.8-2.6,7.78-2.64,8.49l.12.13h0c.14.08.78.45.89.48,0,0,.01,0,.02,0,.4-.1,1.29.27,1.74.43h.01c-.02-.85-.16-1.81-.21-2.63-.06-.93.04-5.59.83-5.97-.09.68.09.89.31,1.58.19.49.26.9.33,1.43h0s0,0,0-.01c0,0,0,0,0-.01,0,0,0,0,0,.01-.07-.53-.14-.93-.33-1.43Z"/>
  <path class="st47" d="M1748.93,1024.16c-.01-1.01,0-2.02,0-3.04,0-.25,0-.51,0-.76,0-1.01-.02-2.02,0-3.03h0s0,0,0,0c-.07-.53-.14-.94-.33-1.43-.22-.69-.4-.9-.31-1.58-.79.38-.89,5.04-.83,5.97.05.82.19,1.78.21,2.62h0s-.01.01-.01.01c-.45-.16-1.35-.53-1.74-.43.71.38,2.32,1.13,2.77,1.68h.26Z"/>
  <path class="st44" d="M1748.92,1017.32h.01c0,.51,0,1.02,0,1.52,0,.51,0,1.01,0,1.52,0,.25,0,.51,0,.76,0,.51,0,1.01.01,1.52,0,.51,0,1.02.01,1.53h0c0,.39.06.54-.1.87-.16-.29-.14-.53-.16-.87,0,0,0,0-.01-.01-.46-.55-2.06-1.3-2.77-1.68,0,0-.01,0-.02,0-.11-.03-.75-.4-.89-.48-.09.33-.12.61-.36.82,0,0,0,0,0,0h0s0,0,0,0c0,0,0,0,0,0h0l-.47-.02s0,0,0,0c.62.69,2.44,2.26,3.28,2.63.84-.07,1.45.69,2.27-.12-.04-1.3.33-5.92.13-6.69l-.21-.02c-.35-.43-.03-1.57-.35-2.02-.21.2-.26.45-.35.73,0,0,0,0,0,.01h0Z"/>
  <polygon class="st44" points="1748.91 1017.33 1748.92 1017.32 1748.91 1017.32 1748.91 1017.33 1748.91 1017.33"/>
  <path class="st12" d="M1744.62,1022.81s0,0,0,0c0,0,0,0,0,0,0,0,0,0,0,0,0,0,0,0,0,0,.24-.21.27-.49.36-.82h0s-.12-.13-.12-.13h-.01s-.29.2-.29.2h-.02v.08h0c0,.11.02.21.03.32,0,.02,0,.04,0,.06,0,.1.02.2.04.29Z"/>
  <polygon class="st12" points="1748.94 1024.17 1748.95 1024.17 1748.94 1024.16 1748.94 1024.17"/>
  <path class="st12" d="M1748.68,1024.17c.02.34,0,.58.16.87.16-.33.1-.48.1-.87h-.26Z"/>
  <path class="st46" d="M1745.58,1018.45c-.07.32-.06.46-.23.73,0,.02-.01.03-.02.05-.2.67-.4,1.34-.62,1.99,0,0,0,.01,0,.02-.05.26-.13.56-.16.81l.02-.02.29-.19c.04-.72,2.27-7.69,2.64-8.49l.22-.02c.42.21.55.43.86.8,0,0,0,0,0,0,.02.58,0,1.17,0,1.74.19.5.26.9.33,1.43,0,0,0,0,0-.01.1-.28.15-.54.36-.74.32.45,0,1.58.35,2.02l.21.02c-.16-.72.22-1.01.18-1.55-.06-.94-.43-1.67-.33-2.64l.17.25c.01.23.04.45.09.67.21.13.32.2.53.31v-.48l.18-.17.17-.23c0-.57-.7-1.21-1.07-1.73-.1.21-.18.37-.29.57-.38.18-.31.23-.64.16l-.07-.14.11-.32.14-.47h0l-.14.47c-1.52-1.21-.73-1.02-.73-2.44l.07-.16h0s-.02-.02-.02-.02l-.07.16c-.08.34-.07.46-.34.69-.24.07-.39.12-.63.18.12.22.09.17.25.35-.11,1.32-1.41,4.86-1.8,6.37,0,0,0,0,0,0,0,0,0,0,0,.01Z"/>
  <path class="st46" d="M1748.86,1013.3l.14-.47c-.07-.54-.48-1.68-.8-2.13l-.07.16c0,1.42-.79,1.23.73,2.44Z"/>
  <path class="st12" d="M1748.86,1013.3l-.11.32.07.14c.33.07.26.02.64-.16.11-.2.19-.36.29-.57-.04-.19,0-.09-.14-.28l-.61.08h0l-.14.47Z"/>
  <path class="st46" d="M1742.64,995.88c0-.15-.16-.18-.3-.25h0s-.05.04-.08.05c-1.62.79-1.33.79-2.41,2.06,0,0-.01.01-.02.02,0,.02.02.04.03.06.81,1.77,1.73,2.56,2.53,3.91.04.07.08.13.12.2,0,0,0,0,0,0,.63.64,1.09,1.07,1.78,1.65-2.05-2.83-1.68-4.39-1.65-7.7Z"/>
  <path class="st43" d="M1753.43,1022.35c.04.12.26.25.36.33.79-1.87.58-2.17-.67-3.78-.96-1.24-1.63-2.65-2.47-3.9h0s-.17.16-.17.16v.48c.24.53.49,1.1.76,1.61.88,1.66,1.56,3.34,2.19,5.1Z"/>
  <path class="st39" d="M1752.65,1024.9l-.17-.08c-.32.49-1.23.74-1.79.64,0,0,0,0,0,0-.04-.65.33-.35.28-1.23l-.52.2h0c-.09.36-.1.49-.28.8-.26.09-.2.09-.47.09-.82.81-1.42.06-2.26.12,0,0,0,0-.01,0,.8.59,1.28.9,2.23,1.23.69.21,1.5.05,2.17-.15.56-.16.93-.49,1.3-.91,0,0,0,0,0,0-.1-.23-.08-.58-.16-.88l-.31.18ZM1751.82,1026.51c-.67.2-1.48.36-2.17.15.36-.22,1.77-.35,2.17-.15Z"/>
  <path class="st46" d="M1751.82,1026.51c-.4-.2-1.81-.07-2.17.15.69.21,1.5.05,2.17-.15Z"/>
  <path class="st46" d="M1749.48,999.36h0c-.03.95-.69,6.98-.64,7.17.27.15.49.33.79.31.22-.3.06-6.34.07-7.21l-.22-.27Z"/>
  <path class="st46" d="M1750.56,1009.68c.3-.64.17-1.11.72-1.22.87-.17,1.56-1.08,2.13-1.84l-.14-.3c-.91.37-2.64,1.38-3.46,1.95h0s-.01-.01-.01-.01c.2.49.41.98.63,1.46l.13-.04Z"/>
  <path class="st44" d="M1753.61,1023.03l.18-.34c-.1-.08-.32-.21-.36-.33-.63-1.76-1.31-3.45-2.19-5.1-.27-.51-.52-1.08-.76-1.61-.22-.11-.33-.18-.54-.31h0v.02c.29,1.01,2.97,6.87,3.51,7.7l.16-.03Z"/>
  <path class="st44" d="M1750.97,1024.23h0c.05.88-.32.58-.28,1.23,0,0,0,0,0,0,.56.1,1.47-.16,1.79-.64.36-.47.73-.81.73-1.39-.47-.65-1.34.13-1.82.46h0c-.19.21-.17.22-.42.34Z"/>
  <polygon class="st39" points="1750.45 1024.43 1750.45 1024.43 1750.45 1024.43 1750.45 1024.43"/>
  <path class="st39" d="M1751.39,1023.89c-.37-1.35.2-1.48-.75-3.47.02,1.27.09,2.8-.19,4.01l.52-.2c.25-.12.23-.13.42-.34Z"/>
  <polygon class="st46" points="1754.53 1022.02 1754.54 1022.03 1754.54 1022.02 1754.53 1022.02"/>
  <path class="st46" d="M1754.53,1022.04c-.51.9-1.08,1.79-1.56,2.67.08.31.06.65.16.88,0,0,0,0,0,.01.84-.94,1.18-2.03,1.6-3.2h0s-.19-.37-.19-.37c0,0,0,0,0,0Z"/>
  <polygon class="st39" points="1747.69 1010.25 1747.69 1010.25 1747.69 1010.26 1747.69 1010.25"/>
  <polygon class="st39" points="1747.69 1010.25 1747.69 1010.25 1747.68 1010.25 1747.69 1010.25"/>
  <path class="st39" d="M1747.96,1009.67s0-.01,0-.02l.14-.04.13.26c.07-.35.15-.54.01-.87l-.2-.1c-.63.32-.48.76-.35,1.35l.13-.04h0c.03-.27.05-.3.12-.54Z"/>
  <path class="st43" d="M1745.53,1003.46c-.41-.53-.4-1.38-.88-2.17h0c.18.95.34,1.67.73,2.57l.15.09c.11-.21.05-.16,0-.49Z"/>
  <path class="st12" d="M1752.11,1008.44h0s-.01-.01-.01-.01c-.04.65-.12,1.29.19,1.88.3.2.14.17.5.11.14-.16.26-.31.4-.47.22-.3.26-.32.38-.69-.18-.63-.86-.79-1.46-.82Z"/>
  <path class="st39" d="M1751.1,1010.55h0c-.1.59-.22.72.17,1.27.21.29.98.87,1.29,1.04.27-1.43,0-1.88-1.46-2.31Z"/>
  <path class="st44" d="M1747.92,1007.13c.05-.76.33-4.81.2-5.24-.29.76-.56,4.59-.2,5.24Z"/>
  <path class="st46" d="M1745.48,1004.86c.12.57.15.65.4,1.16l.07.14c.29.61.5.77,1,1.24.08-.56-1.04-2.24-1.47-2.54Z"/>
  <path class="st12" d="M1750.32,1011.86l-.13.07c.23.31.59.44.95.64-.19-.4-.35-.63-.82-.71Z"/>
  <path class="st12" d="M1760.84,996.32s-.02-.03-.03-.04c-.75-1.12-1.34-1.93-1.85-3.18h.04,0c1.22.32,2.63.78,3.86,1.14,0,0,0,0,0,0l.28-.26c.93-.23,5.25.9,6.57,1.09-.86-1.08-4.41-4.24-5.6-4.81-.32.05-.19.04-.54-.18-.01,0-.01,0-.02-.02h0s-.18-.02-.18-.02c-1.2-.13-2.71-.62-3.87-.92-3.05-.79-6.05-1.79-9.24-1.49-.4.03-1.43.02-1.75.16-.09.53,2.01,2.67,2.49,3.3,1.62,2.14,2.89,4.79,5.45,5.97,1.46.65,2.92.54,4.46,1.32-.12-.78-.42-1.53-.08-2.06Z"/>
  <path class="st12" d="M1760.92,998.4h0s0-.01-.01-.02c0,0,0,.01,0,.02Z"/>
  <polygon class="st42" points="1830.27 982.27 1830.27 982.27 1830.27 982.27 1830.27 982.27 1830.27 982.27"/>
  <path class="st42" d="M1831.99,979.16c-.2.3-.3.34-.31.65h0c.01-.3.11-.34.31-.64,0,0,0,0,0,0Z"/>
  <polygon class="st42" points="1830.27 982.33 1830.27 982.33 1830.27 982.33 1830.27 982.33"/>
  <path class="st42" d="M1830.27,982.27s0,.04,0,.06c.01-.3.04-.6.07-.9l.09.02-.1-.03c-.03.28-.05.57-.07.85Z"/>
  <path class="st42" d="M1831.48,969.76c-.47,1.22-.71,2.46-.92,3.75l.24-.05.14-.45h.01c.27.91.15,1.26.88,1.98.37.37.64,1.16.83,1.66v.11c-.13.7-.63,1.76-.68,2.24.05-.48.55-1.54.69-2.23h0,0v-.11h0c-.19-.5-.46-1.29-.83-1.66-.73-.72-.61-1.07-.88-1.97.95-2.97,1.79-4.8,2.23-7.94,0-.02,0-.03-.01-.05-.07-.41-.18-2.39.02-2.71h.01c.78,2.37,2.18,5.69,2.45,8.04h0c.1.67.13,1.25.11,1.79-.06,1.61-.63,2.81-1.5,4.62-.3.62-.76,1.61-1.12,2.16l-.37.05c-.26.35-.57.78-.87,1.08h0c-.58.42-1.14.7-1.28,1.39h.01l-.02.16c.4.13,1.02.28,1.22.61-.37.54-1.04,1.04-1.56,1.43h0c.52-.39,1.19-.89,1.56-1.43,6.51-7.69,4.89-11.53,1.62-19.98-.33-.77-.69-1.66-1.06-2.4.12.84.24,1.68.35,2.52.05,2.67-.3,4.89-1.26,7.39Z"/>
  <path class="st42" d="M1832.39,959.84h0s0,.01,0,.01h0Z"/>
  <path class="st42" d="M1833.23,977.81s0,.02,0,.03l.12-.07c.63-1.11,1.85-3.66,2.09-4.85v-.02h-.01c-.24,1.2-1.46,3.75-2.09,4.85l-.11.06Z"/>
  <path class="st5" d="M1833.23,977.81s0,.02,0,.03l.12-.07c.63-1.11,1.85-3.66,2.09-4.85v-.02h-.01c-.24,1.2-1.46,3.75-2.09,4.85l-.11.06Z"/>
  <path class="st42" d="M1833.15,978.94l-.37.05c-.26.35-.57.78-.87,1.08h0s0,0,0,0h0c.3-.29.61-.72.87-1.07l.37-.05c.36-.55.82-1.54,1.12-2.16.87-1.81,1.44-3.01,1.5-4.62-.06,1.61-.63,2.81-1.5,4.62-.3.62-.76,1.61-1.12,2.16Z"/>
  <path class="st25" d="M1833.15,978.94l-.37.05c-.26.35-.57.78-.87,1.08h0s0,0,0,0h0c.3-.29.61-.72.87-1.07l.37-.05c.36-.55.82-1.54,1.12-2.16.87-1.81,1.44-3.01,1.5-4.62-.06,1.61-.63,2.81-1.5,4.62-.3.62-.76,1.61-1.12,2.16Z"/>
  <polygon class="st42" points="1831.99 979.17 1831.99 979.16 1831.99 979.16 1831.99 979.17 1831.99 979.17"/>
  <polygon class="st24" points="1831.99 979.17 1831.99 979.16 1831.99 979.16 1831.99 979.17 1831.99 979.17"/>
  <path class="st42" d="M1833.19,965.04h.01s0,.02,0,.03c.29,1.22.41,1.93.79,3.2-1.06,2.52-.6,3.07-.86,5.54,0,0,0,.01,0,.02.03,1.08-.02,2.45.23,3.46.46-1,.57-2.06.44-3.1-.04-.27-.02-.45.15-.65.34.1.32.08.54.35.13.5-.07.63-.14,1.12.4-.46.33-1.46,1.07-2.13h.01c.36-.67-.19-1.95.24-2.52-.27-2.35-1.67-5.67-2.45-8.04h-.01c-.2.32-.09,2.3-.02,2.71,0,.02,0,.03.01.05,0,0,0-.02,0-.03,0,0,0-.02,0-.03Z"/>
  <path class="st21" d="M1833.19,965.04h.01s0,.02,0,.03c.29,1.22.41,1.93.79,3.2-1.06,2.52-.6,3.07-.86,5.54,0,0,0,.01,0,.02.03,1.08-.02,2.45.23,3.46.46-1,.57-2.06.44-3.1-.04-.27-.02-.45.15-.65.34.1.32.08.54.35.13.5-.07.63-.14,1.12.4-.46.33-1.46,1.07-2.13h.01c.36-.67-.19-1.95.24-2.52-.27-2.35-1.67-5.67-2.45-8.04h-.01c-.2.32-.09,2.3-.02,2.71,0,.02,0,.03.01.05,0,0,0-.02,0-.03,0,0,0-.02,0-.03Z"/>
  <path class="st12" d="M1832.8,976.86c.01.56-.03.87-.1,1.42-.21.29-.46.65-.71.89h0c-.2.3-.3.34-.31.64l.23.25s0,0,0,0h0c.3-.29.61-.72.87-1.07l.37-.05c.36-.55.82-1.54,1.12-2.16.87-1.82,1.44-3.01,1.5-4.62.02-.54-.01-1.12-.11-1.79h0c-.43.57.12,1.85-.24,2.53h.01v.02c-.24,1.19-1.46,3.74-2.09,4.85l-.12.07s0-.02,0-.03h-.01c.04-.26.03-.26.14-.5,0,0,0,0,0-.01-.25-1.01-.21-2.39-.23-3.46-.64,1.41-.18,1.59-.45,2.83h0v.11h0l.13.09Z"/>
  <polygon class="st0" points="1832.67 976.77 1832.67 976.77 1832.67 976.77 1832.67 976.77"/>
  <path class="st0" d="M1831.99,979.16s0,0,0,0c0,0,0,0,0,0,.25-.24.5-.6.71-.89.07-.55.11-.86.1-1.42l-.13-.09c-.14.69-.63,1.75-.69,2.23,0,.06,0,.12,0,.16Z"/>
  <path class="st37" d="M1835.41,972.89c-.74.67-.67,1.67-1.07,2.13.07-.49.27-.62.14-1.12-.22-.27-.2-.25-.54-.35-.17.2-.19.38-.15.65.14,1.04.02,2.1-.44,3.1,0,0,0,0,0,.01-.11.24-.1.24-.14.51h.01s.11-.07.11-.07c.63-1.1,1.85-3.65,2.09-4.85h0s-.01-.01-.01-.01Z"/>
  <path class="st42" d="M1832.75,975.3c0-.38.05-.78.37-1.5h0c.27-2.48-.19-3.03.86-5.54-.37-1.26-.5-1.96-.79-3.18-.44,3.14-1.28,4.97-2.23,7.94.27.9.15,1.25.88,1.97.37.37.64,1.16.83,1.66.07-.31.09-.55.09-.77,0-.21,0-.4,0-.59Z"/>
  <path class="st20" d="M1832.75,975.3c0-.38.05-.78.37-1.5h0c.27-2.48-.19-3.03.86-5.54-.37-1.26-.5-1.96-.79-3.18-.44,3.14-1.28,4.97-2.23,7.94.27.9.15,1.25.88,1.97.37.37.64,1.16.83,1.66.07-.31.09-.55.09-.77,0-.21,0-.4,0-.59Z"/>
  <path class="st42" d="M1833.19,965.04h0s0,.02,0,.03c0,0,0-.02,0-.03h-.01Z"/>
  <path class="st27" d="M1833.19,965.04h0s0,.02,0,.03c0,0,0-.02,0-.03h-.01Z"/>
  <path class="st22" d="M1833.19,965.04h0s0,.02,0,.03c0,0,0-.02,0-.03h-.01Z"/>
  <path class="st42" d="M1833.12,973.81s0,.02,0,.02c0,0,0-.01,0-.02.26-2.47-.2-3.02.86-5.54-.39-1.27-.51-1.98-.79-3.2,0,0,0,.02,0,.03.29,1.22.41,1.92.79,3.18-1.05,2.51-.59,3.06-.86,5.54Z"/>
  <path class="st23" d="M1833.12,973.81s0,.02,0,.02c0,0,0-.01,0-.02.26-2.47-.2-3.02.86-5.54-.39-1.27-.51-1.98-.79-3.2,0,0,0,.02,0,.03.29,1.22.41,1.92.79,3.18-1.05,2.51-.59,3.06-.86,5.54Z"/>
  <path class="st26" d="M1833.12,973.81s0,.02,0,.02c0,0,0-.01,0-.02.26-2.47-.2-3.02.86-5.54-.39-1.27-.51-1.98-.79-3.2,0,0,0,.02,0,.03.29,1.22.41,1.92.79,3.18-1.05,2.51-.59,3.06-.86,5.54Z"/>
  <path class="st42" d="M1832.76,975.89c0-.21,0-.4,0-.59,0,.19.01.37,0,.59Z"/>
  <path class="st19" d="M1832.76,975.89c0-.21,0-.4,0-.59,0,.19.01.37,0,.59Z"/>
  <path class="st28" d="M1832.76,975.89c0-.21,0-.4,0-.59,0,.19.01.37,0,.59Z"/>
  <path class="st12" d="M1833.12,973.83s0-.02,0-.02h0c-.32.71-.37,1.12-.37,1.5,0,.19.01.37,0,.59s-.02.46-.09.77c.27-1.23-.19-1.42.45-2.83Z"/>
  <path class="st34" d="M1833.12,973.83s0-.02,0-.02h0c-.32.71-.37,1.12-.37,1.5,0,.19.01.37,0,.59s-.02.46-.09.77c.27-1.23-.19-1.42.45-2.83Z"/>
  <path class="st47" d="M1830.56,973.52l.25-.05c-.62,2.45-.18,5.45-.35,7.98l-.13-.03h0s.1.03.1.03h.04s.15,0,.15,0c.14-.69.71-.97,1.28-1.4h0s0,0,0,0l-.23-.25h0c.01-.31.11-.35.31-.65h0s0,0,0,0c-.01-.04-.01-.1,0-.16.05-.48.54-1.54.68-2.24v-.11c-.19-.5-.46-1.29-.83-1.66-.73-.72-.61-1.07-.88-1.97h0s-.01-.01-.01-.01l-.14.45-.24.05h-.01c-.42,1.76-.51,6.98-.29,8.81,0-.02,0-.03,0-.05h0c-.21-1.88-.12-7.01.3-8.75Z"/>
  <path class="st37" d="M1830.27,982.27h0s0,.03,0,.05h0s0-.03,0-.05Z"/>
  <path class="st37" d="M1830.33,981.42l.13.03c.17-2.53-.27-5.53.35-7.98l-.25.05c-.42,1.74-.51,6.87-.3,8.75,0,0,0,0,0,0,.02-.28.04-.57.07-.85h0Z"/>
  <path class="st0" d="M1831.83,982.23c-.2-.33-.82-.48-1.22-.61l.02-.16h-.2s-.09-.03-.09-.03c-.03.3-.06.6-.07.9h0v1.33s0,0,0,0c.52-.39,1.19-.89,1.56-1.43Z"/>
  <path class="st0" d="M1763.51,995.6h0s.02.02.02.02h0c.71.28,1.18.53,1.85.92,1.04,2.56,1.64,3.45,3.48,5.6-.01-.02-.03-.05-.04-.08-1.79-2.1-2.39-3-3.42-5.53-.68-.4-1.16-.65-1.89-.93Z"/>
  <path class="st0" d="M1767.64,997.35l.1-.39c-.17.02-.21.02-.25.05.03-.02.08-.02.23-.04l-.1.39.15.06.36-.16h0s-.34.15-.34.15l-.15-.06Z"/>
  <path class="st0" d="M1759,993.11h0s-.04-.01-.04-.01c.51,1.25,1.1,2.06,1.85,3.18,0,.01.02.03.03.04,2.79,4.13,4.31,7.33,9.6,8.22,1,.17,4.29.61,5.17.22-.18-.4-1.06-.46-1.48-.52h-.03c-3.49-1.11-5.46-1.14-7.61-4.3,0,0,0-.01,0-.02-1.84-.43-3.83-2.64-3.9-4.5h-.01c-.26-.16-.4-.28-.64-.46h0s-.01-.01-.02-.02h0c-.31-.22-.99-.62-1.08-.85.41.09,1.79,1.01,2.58,1.24.09-.24.02-.14.2-.3,1.34.24,2.61.83,4.16,1.05.93.13,4.1.38,4.67.65-1.52-.08-3.04-.24-4.55-.49h0s0,.01,0,.01h0c1.5.25,3.02.41,4.53.49.57.17,1.53.23,2.15.3,3.2.38,6.48.43,9.65.99,1.48.26,2.96,1.29,4.32,1.87,1.22.56,2.62,1.04,3.81,1.62l-.06-.22c-.47-.33-7.59-3.87-7.76-3.89-7.45-.9-14.31-1.3-21.67-3.18,0,0,0,0,0,0-1.23-.36-2.64-.82-3.86-1.13Z"/>
  <path class="st42" d="M1763.63,995.23c1.5.47,2.75.73,4.27,1.03h0c1.51.24,3.03.4,4.55.48-.57-.27-3.74-.52-4.67-.65-1.55-.22-2.82-.81-4.16-1.05-.18.16-.11.06-.2.3-.79-.23-2.17-1.15-2.58-1.24.09.23.77.63,1.08.85h0s.01,0,.02.02h0c.5.18,1.1.39,1.58.64h0c.73.27,1.21.52,1.89.92,1.03,2.53,1.63,3.43,3.42,5.53.02.02.04.04.06.07-.58-1.28-2.06-3.59-1.58-4.92.13-.12.16-.17.19-.2.04-.03.08-.03.25-.05l-.1.39.15.06.34-.15h.02s.13-.28.13-.28l-.4-.39h0c-1.28-.54-2.6-.46-4.25-1.36Z"/>
  <path class="st44" d="M1767.9,996.26c-1.52-.3-2.77-.56-4.27-1.03,1.65.9,2.97.82,4.25,1.37h0s.02-.34.02-.34h0s0,0,0,0Z"/>
  <path class="st44" d="M1763.51,995.61c-.48-.25-1.07-.46-1.58-.65h0c.24.19.38.31.64.46h.01s0,0,0,0h-.01s0,0,0,0h.01s0,0,0,0l.88.38s0,0,0,0l.06-.17h0s-.02-.01-.02-.02Z"/>
  <path class="st41" d="M1762.58,995.41s0,0,0,.01c.07,1.86,2.06,4.07,3.9,4.5.02,0,.03.01.05.02-.59-1.01-.89-1.84-1.28-2.93-.66-.5-1.07-.82-1.79-1.22,0,0,0,0,0,0l-.88-.38Z"/>
  <polygon class="st41" points="1762.58 995.41 1762.57 995.41 1762.57 995.41 1762.58 995.41 1762.58 995.41"/>
  <path class="st46" d="M1763.59,990.07c.35.22.22.22.54.18-.14-.24-11.24-8.64-12.47-9.57-5-3.81-9.39-6.31-12.52-12.3-.42-.8-6.5-3.24-7.7-3.68-.64.18-1.66-.31-2.28-.57l-.08-.25h0c-.22.45-.25.61-.07,1.11.41.71.82.99,1.5,1.43.34.36,4.74,3.37,5.34,3.69.27-.08.29-.12.53-.28.34.02,13.6,10.3,15.22,11.47l7.5,5.49c.97.7,3.69,2.55,4.47,3.26h0s.01,0,.02.02ZM1729.01,964.99h-.01,0l.18-.05c.37.27,1.26,1.02,1.33,1.48-.68-.44-1.09-.72-1.5-1.43Z"/>
  <path class="st37" d="M1731.43,964.71c-.68-.29-1.65-.72-2.36-.82l.08.25c.62.26,1.64.75,2.28.57Z"/>
  <path class="st37" d="M1729.18,964.94l-.18.05h0c.41.71.82.99,1.5,1.43-.07-.46-.96-1.21-1.33-1.48Z"/>
  <polygon class="st37" points="1729 964.99 1729 964.99 1729 964.99 1729 964.99"/>
  <path class="st12" d="M1785.22,1009.44c-4.96-1.02-9.74-2.02-14.65-3.36-.95-.26-4.33-2.02-4.75-2h0c-.9.23-1.06.26-1.99.34,1.27.41,2.23.68,3.35,1.43-2.84.24-2.96-.93-5.6-1.39.85.83,1.91,1.89,2.9,2.52,3.25,2.07,8.21,2.61,12.01,2.8,2.22.01,6.75.23,8.73-.34Z"/>
  <path class="st39" d="M1826.35,1011.72s.01-.02.01-.03c.13-.54,2.02-1.95,2.57-2.4,0,0,.01-.01.02-.01-.21-.15-.56-.37-.75-.54h-.01v.02c-2.98,2.46-5.57,4.32-8.86,6.38-1.75,1.1-3.34,2.38-5.21,3.38-6.47,3.45-13.28,6.12-20.37,7.93-3.95,1.01-8.76,1.25-12.49,2.24,7.82,1.34,26.21-5.94,33.45-9.31,2.13-1,5.51-3.11,7.56-4.47,1.34-.88,2.89-2.31,4.12-3.13h0l-.04-.06Z"/>
  <path class="st0" d="M1791.05,1014.29s0-.01,0-.02h-.01c.04.07.08.13.13.19,1.24,1.66,3.42,2.47,5.4,2.76,6.82,1.01,24.93-9.72,30.67-14.02,3.26-2.44,5.78-5.52,6.35-9.68.2-1.41.27-3.31-.67-4.47-.85-1.04-2.15-1.26-3.41-1.39h0s-.02.01-.02.01c-3.08,4.24-7.04,6.42-11.26,9.44-.12-.6-.35-1.36-.52-1.96-.21,1.04-.36,2.1-.52,3.15,0,0,0,.02,0,.03-.03.36-.07.64-.13,1,0,0,0,.03,0,.03h-.01s0-.02,0-.03c0,0,0-.02,0-.03,0,.03,0,.05-.01.07-.04.56-.09,1.15-.17,1.7-1.12-.85-1.95-1.56-3.33-1.96-1.22.36-2.81,1.11-4.03,1.63-1.35.56-2.71,1.08-4.09,1.57-1.13.4-2.35.8-3.5,1.1-1.57.41-2.21.51-3.52,1.53,3.69-.96,6.51-1.83,10.09-3.27,1.4-.57,3.97-1.79,5.27-2.17,1.76.65,2.17,1.37,3.64,2.25.53-1.47.8-2.47,1.22-4,2.12-2.03,6.14-4.18,8.42-6.3,1.31-1.22,1.88-2.2,2.98-3.48,1.04.26,2.25.52,2.82,1.54.78,1.41.62,3.82.2,5.31-.62,2.12-1.69,4.07-3.13,5.73-2.75,3.09-10.13,7.32-13.81,9.3-5,2.7-11.08,5.73-16.62,6.98-2.72.62-6.36-.55-8.25-2.63l-.17.07h0Z"/>
  <path class="st46" d="M1808.82,941.14l-.09.17c1.51,1.27,2.83,2.37,4.1,3.88.3.37.92.57,1.23.94,1.74,2.29,2.06,5.47,4.96,6.46l.34.12c-.25-.92-.33-1.23-.81-2.08.89,1,2.1,1.75,3.12,2.61,1.54,1.3,3.19,2.59,4.72,3.89,1.07.9,2.03,2.44,3.13,3.52-.7-1.4-2.9-5.39-4.19-6.17l.1.17c-.75-.52-1.09-1.05-1.44-1.3,0,0-.01-.01-.02-.02-.48-.09-2.33-1.83-2.45-2.29,0,0,0,0,0,0l-.08-.03c-.06-.08-.14-.15-.22-.23.08.07.15.15.21.22-.54-.02-.81-.43-1-.88-.26-.34-2.3-1.53-2.97-2.16,0,0,0,0-.01-.01-.68.03-1.64-1.11-1.78-1.73,0,0,0,0,0,0-.26-.25-.25-.26-.57-.42,0,0-.01-.01-.02-.01-.64-.11-1.92-1.12-2.09-1.79,0,0,0,0,0,0-.69-.79-3.21-2.29-4.17-2.85h0s.01.01.01.01Z"/>
  <path class="st37" d="M1817.45,947.95s0,0,.01,0c-.64-.68-1.09-1.15-1.8-1.75,0,0,0,0,0,.01.14.62,1.1,1.76,1.78,1.73Z"/>
  <path class="st37" d="M1823.98,953.33s.01,0,.02,0c-.72-.8-1.65-1.62-2.47-2.31,0,0,0,.01,0,.02.11.46,1.97,2.2,2.45,2.29Z"/>
  <path class="st37" d="M1815.08,945.77s.01,0,.02,0c-.58-.55-1.48-1.27-2.11-1.81,0,0,0,.01,0,.02.16.67,1.45,1.68,2.09,1.79Z"/>
  <path class="st37" d="M1821.43,951c-.06-.07-.13-.15-.21-.22-.24-.23-.56-.47-.79-.66,0,0,0,0,0,0,.19.45.46.86,1,.88Z"/>
  <path class="st12" d="M1746.44,978.2c-.26-.13-.61-.2-.88-.23h0c-.5.87-.96,1.86-1.42,2.64-.64.17-1.56.27-2.05.53-.44.78.86,1.93,1.41,2.42.83.74,1.65,1.81,2.52,2.45.53.34,1.57,1.03,2.18.77.07-.22.1-.15,0-.34-.41-.81-.02-1.33.03-2.22.12-2.17.58-4.86-1.79-6.02Z"/>
  <polygon class="st47" points="1740.86 964.31 1740.86 964.31 1740.86 964.31 1740.86 964.31"/>
  <polygon class="st33" points="1740.86 964.31 1740.86 964.31 1740.86 964.31 1740.86 964.31"/>
  <path class="st47" d="M1777.6,986.93c-3.72-3.07-8.05-5.69-12.08-8.35-3.72-2.45-7.47-4.92-11.42-7-1.87-.99-3.75-1.98-5.61-3-1.23-.68-2.72-1.4-3.81-2.28-.41-.3-.52-.88-.3-1.32h0c.21-.07.27-.03.49,0,.07-.25.07-.28.11-.54-1.39.02-2.74.06-4.12-.13-.41.83.6.75.88,1.46l-.04.09c5.62,3.83,12.26,6.08,17.97,9.36,5.98,3.44,11.96,8.17,17.76,12l.17-.29Z"/>
  <path class="st30" d="M1777.6,986.93c-3.72-3.07-8.05-5.69-12.08-8.35-3.72-2.45-7.47-4.92-11.42-7-1.87-.99-3.75-1.98-5.61-3-1.23-.68-2.72-1.4-3.81-2.28-.41-.3-.52-.88-.3-1.32h0c.21-.07.27-.03.49,0,.07-.25.07-.28.11-.54-1.39.02-2.74.06-4.12-.13-.41.83.6.75.88,1.46l-.04.09c5.62,3.83,12.26,6.08,17.97,9.36,5.98,3.44,11.96,8.17,17.76,12l.17-.29Z"/>
  <polygon class="st47" points="1740.85 964.31 1740.86 964.31 1740.85 964.31 1740.85 964.31"/>
  <polygon class="st29" points="1740.85 964.31 1740.86 964.31 1740.85 964.31 1740.85 964.31"/>
  <path class="st44" d="M1744.38,964.98h0c-.22.44-.11,1.02.3,1.32.47-.06,1.16-.09,1.53-.3l.02-.17c-.66-.29-1.21-.34-1.79-.58l-.06-.27Z"/>
  <path class="st12" d="M1744.38,964.98h0s.06.27.06.27c.58.24,1.13.29,1.79.58-.18-.74-.6-1.07-1.25-1.39h0c-.04.26-.04.29-.11.54-.22-.03-.28-.07-.49,0Z"/>
  <path class="st43" d="M1777.79,985.38c-2.26-2.5-5.3-4.94-7.73-7.35-1.32-1.31-3.06-2.71-4.48-3.95-1.74-1.05-8.76-4.4-10.28-4.58h0c2.43,2.29,5.18,3.19,7.96,5.2,3.85,2.78,7.51,5.69,11.34,8.49.58.42,2.65,1.98,3.2,2.19Z"/>
  <path class="st37" d="M1799.59,935.5h-.01s.02,0,.02.01c0,0,0,0-.01-.01Z"/>
  <path class="st37" d="M1806.98,942.09c6.75,7.37,14.84,20.23,17.76,29.79.36,1.19.84,1.72.92,3.03l.09.09c.05-1.21-.65-3.09-1.03-4.27-2.46-7.56-6.7-14.16-11.13-20.7l.12-.13s0,0,0,0l-.13.14c-2.46-3.4-4.28-5.84-7.08-8.92h0c-1.27-1.15-5.42-4.85-6.9-5.6,1.16,1.24,2.46,2.16,3.78,3.23,1.28,1.02,2.49,2.14,3.6,3.35Z"/>
  <path class="st37" d="M1809.78,942.91c3.36,2.9,4.53,5.84,6.07,9.69,0,0,.01.02.02.02-1.55-3.86-2.71-6.8-6.08-9.71-.54-.46-2.13-1.37-2.8-1.79,0,0,0,0,0,.01.68.42,2.25,1.32,2.78,1.78Z"/>
  <path class="st43" d="M1809.78,942.91c-.54-.46-2.11-1.36-2.78-1.78.28.53,2.27,2.75,2.8,3.47,1.31,1.72,2.73,3.47,3.91,5.29h0s0,0,0,0c.64.96,1.36,1.88,2.15,2.72,0,0,0-.01,0-.02-1.55-3.85-2.71-6.78-6.07-9.69Z"/>
  <path class="st12" d="M1813.58,950.03l.13-.14h0c-1.18-1.82-2.6-3.57-3.91-5.29-.54-.72-2.53-2.94-2.8-3.47,0,0,0,0,0-.01l-.17-.13-.32.11h0c2.8,3.09,4.62,5.53,7.08,8.93Z"/>
  <path class="st47" d="M1781.65,1028.33l.07-.17c-1.09-.95-14.12-1.35-15.88-1.11h0c.71.34,5.32.7,6.41.78l.52-.16-.33-.12c.35-.05,1.05.15,1.43.23,2.43.46,5.12.55,7.59.6-1.33.18-3.52.4-4.84.45,0,0-.02,0-.02,0-1.09.3-4.3.22-5.41.17h0c-1.23.24-4.41-.59-5.32-1.48-.06-.06-.07-.13-.07-.21,0,.08,0,.16.07.22.91.89,4.09,1.72,5.32,1.48,1.12.05,4.38.13,5.44-.18,1.32-.05,3.51-.27,4.84-.45l.18-.05Z"/>
  <path class="st31" d="M1781.65,1028.33l.07-.17c-1.09-.95-14.12-1.35-15.88-1.11h0c.71.34,5.32.7,6.41.78l.52-.16-.33-.12c.35-.05,1.05.15,1.43.23,2.43.46,5.12.55,7.59.6-1.33.18-3.52.4-4.84.45,0,0-.02,0-.02,0-1.09.3-4.3.22-5.41.17h0c-1.23.24-4.41-.59-5.32-1.48-.06-.06-.07-.13-.07-.21,0,.08,0,.16.07.22.91.89,4.09,1.72,5.32,1.48,1.12.05,4.38.13,5.44-.18,1.32-.05,3.51-.27,4.84-.45l.18-.05Z"/>
  <path class="st12" d="M1771.19,1029h0c1.11.05,4.32.13,5.41-.17h0c-1.09.3-4.3.22-5.41.17Z"/>
  <path class="st12" d="M1771.19,1029c.74-.58,2.11,0,2.97-.33-.77-.45-1.04-.63-1.91-.83h0s0-.01,0-.01c-1.09-.08-5.7-.44-6.41-.78h0c-.01.08-.03.17-.04.26,0,.08,0,.15.07.21.91.89,4.09,1.72,5.32,1.48Z"/>
  <path class="st46" d="M1776.6,1028.82c-.46-.09-2-.18-2.43-.15,0,0,0,0,0,0-.86.32-2.23-.25-2.97.33,1.11.05,4.32.13,5.41-.17Z"/>
  <path class="st47" d="M1774.18,1028.67h0c.43-.03,2.01.06,2.45.15h0,0s-.02,0-.03,0c0,0,.02,0,.02,0,1.32-.05,3.51-.27,4.84-.45-2.47-.05-5.16-.14-7.59-.6-.38-.08-1.08-.28-1.43-.23l.33.12-.52.16s0,0,0,0c.87.21,1.14.4,1.92.84Z"/>
  <path class="st32" d="M1774.18,1028.67h0c.43-.03,2.01.06,2.45.15h0,0s-.02,0-.03,0c0,0,.02,0,.02,0,1.32-.05,3.51-.27,4.84-.45-2.47-.05-5.16-.14-7.59-.6-.38-.08-1.08-.28-1.43-.23l.33.12-.52.16s0,0,0,0c.87.21,1.14.4,1.92.84Z"/>
  <path class="st36" d="M1774.18,1028.67h0c.43-.03,2.01.06,2.45.15h0,0s-.02,0-.03,0c0,0,.02,0,.02,0,1.32-.05,3.51-.27,4.84-.45-2.47-.05-5.16-.14-7.59-.6-.38-.08-1.08-.28-1.43-.23l.33.12-.52.16s0,0,0,0c.87.21,1.14.4,1.92.84Z"/>
  <path class="st12" d="M1772.25,1027.84c.87.21,1.14.39,1.91.83,0,0,.01,0,.02,0h0c-.78-.44-1.05-.63-1.92-.84,0,0,0,0,0,0h0s0,.01,0,.01Z"/>
  <path class="st35" d="M1772.25,1027.84c.87.21,1.14.39,1.91.83,0,0,.01,0,.02,0h0c-.78-.44-1.05-.63-1.92-.84,0,0,0,0,0,0h0s0,.01,0,.01Z"/>
  <path class="st12" d="M1776.63,1028.82s-.02,0-.03,0h0s.02,0,.03,0h0Z"/>
  <path class="st17" d="M1776.63,1028.82s-.02,0-.03,0h0s.02,0,.03,0h0Z"/>
  <path class="st46" d="M1776.6,1028.82s.02,0,.03,0h0c-.44-.09-2.02-.18-2.45-.15h0s-.01,0-.02,0c0,0,0,0,0,0,.42-.03,1.96.06,2.43.15Z"/>
  <path class="st18" d="M1776.6,1028.82s.02,0,.03,0h0c-.44-.09-2.02-.18-2.45-.15h0s-.01,0-.02,0c0,0,0,0,0,0,.42-.03,1.96.06,2.43.15Z"/>
  <path class="st47" d="M1728.6,958.7c.13.56.23.91.21,1.48.02-.57-.07-.92-.21-1.48Z"/>
  <path class="st14" d="M1728.6,958.7c.13.56.23.91.21,1.48.02-.57-.07-.92-.21-1.48Z"/>
  <path class="st47" d="M1728.58,958.54c-.08-.02-.19-.05-.32-.09v1.74c.13.07.25.13.38.2h0c-.02-.09-.04-.18-.07-.27-.13-.55-.28-.94,0-1.43h0v-.16c-.07-.17-.19-.31-.33-.43v.02c.13.12.25.25.32.42Z"/>
  <path class="st13" d="M1728.58,958.54c-.08-.02-.19-.05-.32-.09v1.74c.13.07.25.13.38.2h0c-.02-.09-.04-.18-.07-.27-.13-.55-.28-.94,0-1.43h0v-.16c-.07-.17-.19-.31-.33-.43v.02c.13.12.25.25.32.42Z"/>
  <path class="st42" d="M1728.26,958.12v.33c.13.04.24.07.32.09-.07-.17-.19-.3-.32-.42Z"/>
  <polygon class="st41" points="1728.65 960.39 1728.65 960.39 1728.65 960.4 1728.65 960.39"/>
  <polygon class="st41" points="1728.65 960.39 1728.65 960.38 1728.64 960.39 1728.65 960.39"/>
  <path class="st41" d="M1728.58,960.12c.03.09.05.18.07.26h0l.15-.16s0-.02,0-.04c.02-.57-.08-.92-.21-1.48,0,0,0,0,0-.01,0,0,0,0,0,0-.29.49-.14.88,0,1.43Z"/>
  <path class="st44" d="M1741.3,970.77c.55.89,5.74,3.27,6.91,3.76-.41-1.23-.17-1.89-.75-3.35-1.04-.73-6.03-2.76-7.26-2.98.59,1.13,1.15,1.44,1.1,2.57Z"/>
  <path class="st37" d="M1740.16,962.79c8.72-.82,17.31-3.9,25.41-7.11,2.85-1.14,6.8-2.5,9.38-4.05l-.08-.21h0c-8.34,3.5-16.69,7.2-25.48,9.35-4.48,1.09-8.62,1.98-13.28,1.51-1.52-.15-2.74.03-4.24-.49-.82-.91-2.68-4.38-3.49-5.66.54,1.45,2.21,4.73,3.24,5.88,1.84.66,6.58.96,8.53.78Z"/>
  <path class="st43" d="M1835.63,997.03c-.08.14-.5,1.37-.52,1.57l.52-.46c-.03.51-.84,2.2-1.1,2.79.23.7.03.96-.32,1.63-.47.9-1.83,3.19-2.53,3.84-.24-.26-.25-.25-.4-.56,0,0,0,0,0,0,.15.32.16.31.4.57-.96,1.29-1.51,1.79-2.73,2.87h0s-.01.01-.02.01c-.55.46-2.44,1.86-2.57,2.4,0,0-.01.02-.01.03l.04.06h0c5.38-4.46,7.83-6.4,10.03-13.6.31-1.03,1.44-5.18.98-6-.58.47-1.3,4.02-1.77,4.85Z"/>
  <path class="st39" d="M1834.21,1002.56c.35-.68.55-.93.32-1.63,0,0,0,0,0,0-.64.88-1.26,2.01-1.87,2.93-.45.69-.92,1.3-1.38,1.98,0,0,0,0,0,0,.15.31.16.31.4.56.7-.65,2.06-2.94,2.53-3.84Z"/>
  <path class="st12" d="M1787.83,942.23h0c.62-.35,1.42-.76,1.93-1.24h0c-.51.47-1.3.87-1.91,1.23h0v-.2c.41-.32,1.39-.93,1.92-1.04v-.04l-.11-.1c.22-.68,1.62-1.63,2.42-1.61,0,0,0,0,.01-.01.2-.18.5-.51.69-.71-.12-1.47-.11-1.45-1.48-2.01-.89.67-5.14,4.81-5.24,5.6.33.36.67.38,1.16.45.32-.11.37-.1.62-.32Z"/>
  <path class="st46" d="M1787.84,942.22h0c.61-.36,1.4-.76,1.91-1.23,0,0,.01-.01.02-.02,0,0-.01,0-.02,0-.53.11-1.51.73-1.92,1.04v.2Z"/>
  <path class="st45" d="M1837.02,973.55h0s0,0,0,0c-.24,1.47-.35,2.37-.82,3.76-.56,1.67-2.75,5.03-2.62,6.63l.13.09c1.01-.62,2.53-3.99,3.51-5.19.53-1.05.11-4.13-.2-5.29Z"/>
  <path class="st37" d="M1838.41,977.74h.01s0,.01,0,.02c0,0,0,0,0,0-.28-1.01-.46-4.19-1.42-5.02-.13.27-.04.52,0,.82,0,0,0,0,0,0h0c.31,1.16.73,4.24.2,5.29l-.07.81.07.26c.05,0,.1-.03.14-.07.34-.32.47-1.5,1.05-2.08v-.02Z"/>
  <path class="st12" d="M1750.03,919.53c1.38-.59,2.37-1.04,3.66-1.86-1.39-.83-2.55-1.46-4.1-2.01,0,.44.06.8-.16,1.16-.51.25-.82-.12-1.19-.49-.3.19-.63.41-.93.59.18.97.41,2.28.71,3.2.82-.17,1.21-.3,2.01-.59Z"/>
  <path class="st12" d="M1749.57,915.64h0s.01.02.02.02c0,0,0-.01,0-.02h-.02Z"/>
  <path class="st37" d="M1791.04,1010.56c-.67.9-.65,2.81,0,3.71,0,0,0,.01,0,.02h0s.17-.08.17-.08h.01s-.06-.13-.06-.13c-1.55-3.3,1.64-4.73,3.52-6.49,5.2-4.88,11.12-8.32,17.22-11.93,3.3-1.95,6.61-4.04,10.15-5.63,1.64-.73,3.33-1.36,5.04-1.88.2-.06,1.04-.24,1.1-.35-3.99-.44-21.41,10.41-25.51,13.15-1.58,1.06-3.12,2.19-4.6,3.39-1.38,1.12-2.74,2.27-4.08,3.44-1.01.86-2.18,1.72-2.97,2.78Z"/>
  <path class="st40" d="M1821.1,948.97s0,0,0,0c0,0,0,0,0-.01h0Z"/>
  <path class="st40" d="M1828.04,957.12c.99,1.11,2.43,3.27,3.28,4.56l.15.02c1.31-2.4-8.17-11.4-10.36-12.73.09.22.13.38.3.53.86.27,5.52,6.38,6.63,7.62Z"/>
  <path class="st0" d="M1790.92,917.25c.47-.66,2.14-3.28,3.17-2.29.76.73.81,3.26.59,4.25-.51,1.9-1.44,2.57-1.95,3.92l.09.06c2.7-2.85,3.95-9.76-1.54-9.51h0c-1.61.37-2.43,1.32-3.24,2.68.33-.27,1.49-1.41,1.69-1.4.21.59.63,1.85,1.05,2.29h.14Z"/>
  <path class="st43" d="M1838.27,981.8c-.19.56-2.15,5.64-2.15,5.64.3-.27.71-.66.85-1.05.35.48-1.63,6.92-1.94,7.81-.24.7-1.02,2.06-1.3,2.93,1.86-1.54,4.32-9.99,4.58-12.58.03-.38.06-.77.06-1.16,0-.61,0-.98-.1-1.59h0Z"/>
  <path class="st12" d="M1766.88,980.92c-1.3-1.03-5.76-3.34-7.2-3.76h0s-.01.01-.01.01c1.3,1.43,1.3,1.55,2.35,3.06,1.15.42,4.48,1.51,5.62,1.67-.19-.33-.46-.75-.76-.98Z"/>
  <path class="st12" d="M1793.45,1001.79c-1.03.93-2.42,1.94-3.59,2.67,1.3.02,2.61-.02,3.92-.1,1.16-.12,2.08-.28,3.22-.53-1.11-.7-2.36-1.51-3.55-2.03h0Z"/>
  <path class="st45" d="M1735.29,978.85c-.31-.35-3.7-3.32-4.16-3.68h0c.48,1.45,2.72,4.32,2.74,4.98.44-.47,1.16-.68,1.42-1.3Z"/>
  <path class="st0" d="M1731.13,975.17h0c.46.36,3.85,3.33,4.16,3.68-.26.62-.98.83-1.42,1.3.72-.15,2.06-.52,2-1.44-.17-.21-5-4.21-5.1-4.25-.02.29.15.4.36.71Z"/>
  <path class="st46" d="M1728.38,965.56c.13-.51.19-1.21.31-1.65l-.06-.35h0c-.13-.08-.25-.17-.38-.26v2.85c.04-.2.08-.39.13-.59Z"/>
  <path class="st37" d="M1781.57,916.37c.53.66,4.83,5.79,4.95,5.86-.52-1.16-2.44-3.29-3.31-4.34-2.94-3.54-6.01-6.97-9.26-10.23-1.49-1.5-3.05-2.93-4.61-4.35l-.13.07c3.66,3.47,11.08,11.38,12.36,12.99Z"/>
  <path class="st0" d="M1786.62,1003.82c-3.79.71-8.76-.23-12.66-.36-.65-.02-4.8-1.2-4.77-1.22.54.66,4.05,1.45,4.96,1.56h0c3.5.3,7.07.39,10.58.61,1.79.11,6.31-1.61,7.51-2.8-1.55.48-4.41,1.98-5.62,2.21Z"/>
  <path class="st0" d="M1786.15,1000.27c-.2-.32-1.1-.03-1.68-.14-.84-.15-2.29-.18-3.14-.18-3.86-.03-5.38.01-9.01-1.35h0s0,0,0,.01l-.14.15c.93.4,1.69.71,2.66,1.01.26.08,1.26.29,1.36.33h.01c1.87.15,3.58.15,5.46.17.43,0,2.15,0,2.45.05.31.12.42.12.75.18l-.09.1c-1.08.05-2.18.07-3.28.08,1.1,0,2.21-.03,3.28-.08l.09-.1c-.33-.06-.44-.06-.75-.18.7-.07,1.25.02,2.03-.05Z"/>
  <path class="st12" d="M1784.87,1000.5c-.33-.06-.44-.06-.75-.18-.3-.05-2.02-.05-2.45-.05-1.88-.02-3.59-.02-5.46-.18h0s0,.01,0,.01h0c.46.5,1.33.49,2.02.52,1.08.04,2.18.06,3.28.06,1.1,0,2.2-.03,3.28-.08l.09-.1Z"/>
  <path class="st40" d="M1765.27,954.26c.54-.34,1.06-.69,1.58-1.05,2.85-1.95,5.65-3.56,8.41-5.69l.02-.16-.04-.02h0c-2.48,1.52-5.05,3.27-7.44,4.9-2.95,2-5.62,3.7-8.99,4.93-.41.15-1.72.58-1.95.83l.09.08c2.92-.9,5.72-2.19,8.31-3.82Z"/>
  <path class="st37" d="M1777.62,950.66s-.01,0-.02,0h0s7.47-4.2,7.47-4.2c1.29-.74,2.54-1.56,3.85-2.25-.24.32-.68.84-.76,1.18.94-.59.7-1.1.78-1.17,1.29-1.23,4.67-4.58,5.64-5.78-2.15,1.51-3.53,3.78-5.84,5.47-3.36,2.46-8.13,4.32-11.37,6.6h0s0,0,.01,0l.23.14Z"/>
  <path class="st45" d="M1818.73,948.12c.75.63,1.45,1.3,2.16,1.99l.11-.02c0-.19,0-.33.07-.5-.26-.37-.69-.89-.72-1.31.11.1.67.59.74.68.1.23.13.39.31.54.35.47.73.94,1.04,1.44,0,0,.01.01.02.02-.31-.51-.7-.99-1.06-1.47-.18-.15-.21-.31-.31-.54-.07-.09-.63-.58-.74-.68-.89-.96-2.35-1.75-3.49-2.42l-.13.04v.12c.27.12.4.18.69.27l-.04.14c-.72.26-.49-.17-1.04-.31h-.04c.67.7,1.68,1.38,2.43,2.01Z"/>
  <path class="st45" d="M1816.31,946.1s.02,0,.03,0l.09-.03-.12.02Z"/>
  <path class="st37" d="M1821.09,948.96c-.07-.09-.63-.58-.74-.68.03.42.46.94.72,1.31h0c.46.5.9.91,1.39,1.38,0-.01-.01-.02-.02-.03-.31-.5-.69-.97-1.04-1.44-.18-.15-.21-.31-.31-.54Z"/>
  <path class="st37" d="M1794.8,930.86s0,0,0,0c0,0,0,0,0-.01h0Z"/>
  <path class="st37" d="M1795.93,935.69c.32-.04.61-.4.79-.66.31-.59.7-1.25.96-1.85-.52-.49-2.27-2.01-2.87-2.32.72,1.99,1.53,2.57,1.12,4.83Z"/>
  <path class="st43" d="M1829.76,971.94h0s0-.01,0-.01c-.08,1.41-.76,14.28-.6,14.63.47-1.09.84-12.79.81-14.68,0,0,0,0,0,0l-.21.06Z"/>
  <path class="st0" d="M1773.49,949.34c1.78-.99,11.83-5.85,12.54-6.61l-.03-.17h0s-.01.01-.01.01c-1.53.72-11.87,5.91-12.56,6.68l.06.09Z"/>
  <path class="st12" d="M1830.64,962.05c-.25.51-.85,8.82-.88,9.88h0s.21-.05.21-.05c0,0,0,0,0,0,.05-2.63.77-5.39,1.06-8,.04-.41-.09-1.51-.39-1.83Z"/>
  <path class="st46" d="M1742.11,960.35c3.55-.53,7.11-.96,10.54-2.08.89-.29,1.81-.5,2.63-.92l-.08-.06c-.62,0-.92.16-1.5.37h0s-.76.21-.76.21h0c-1.16.35-2.68.83-3.84,1.08-2.11.44-4.37.64-6.46,1.18-.7.18-1.08.02-1.89.32.36.02.97-.04,1.36-.1Z"/>
  <path class="st37" d="M1789.3,1020.78l.08-.11c-.37-.9-1.16-.72-1.95-.63h.01c-1.93.16-3.86.27-5.79.32-.98.02-3.29.01-4.11.14.73.21,1.43.17,2.18.13,2.96,0,5.81-.03,8.75-.44.23-.03.65.42.83.59Z"/>
  <path class="st44" d="M1777.27,1023.38c1.63,0,8.14.05,9.19-.57-.21-.04-.12-.05-.27,0h0c-1,.06-9.02.34-9.27.47.2.12.09.08.35.1Z"/>
  <path class="st43" d="M1775.4,1026.71l.03-.08c-.92-.43-3.49-.39-4.79-.61l-.2-.03-.08.19c1,.44,4.13,1.03,5.01.44l.05.03-.24.1.22-.04Z"/>
  <polygon class="st43" points="1770.44 1025.99 1770.45 1025.99 1770.45 1025.96 1770.44 1025.99 1770.44 1025.99 1770.44 1025.99"/>
  <path class="st39" d="M1838.42,977.74h-.01v.02c-.58.58-.71,1.76-1.05,2.08-.05.05-.1.07-.16.08l-.07-.26c-.04.2-.3,1.95-.28,2.05.29-.88.23-1.79,1.29-2.03.22.17.29.4.37.67-.05.35-.31,1.27-.31,1.4l.08.05c.1.61.1.98.1,1.59.19-1.14.31-4.48.04-5.63,0,0,0-.01,0-.02Z"/>
  <polygon class="st37" points="1793.38 915 1793.38 915 1793.39 915 1793.39 915 1793.38 915"/>
  <path class="st37" d="M1791.7,918.21c.45-.83.6-1.71,1.17-2.41.23-.28.79-.44.82-.72l-.3-.08c-1.21.97-1.56,2.22-2.43,2.57l-.31-.16c.06.42.57,1.04.78,1.62l.14.16c.12-.37.03-.44-.12-.88.1-.12.03-.06.25-.1Z"/>
  <path class="st39" d="M1831.12,1003.47c.73-1.05,2.52-3.55,2.83-4.68l-.11-.19c-.66.97-1.27,1.97-1.93,2.94-.39.57-1.13,1.3-.79,1.93Z"/>
  <polygon class="st39" points="1833.84 998.6 1833.84 998.6 1833.84 998.6 1833.84 998.6"/>
  <path class="st47" d="M1741.69,965.86l.04-.09c-.28-.71-1.29-.63-.88-1.46-.98-.24-1.98-.88-3.03-1.19,1.03.91,2.64,2.08,3.87,2.74Z"/>
  <path class="st15" d="M1741.69,965.86l.04-.09c-.28-.71-1.29-.63-.88-1.46-.98-.24-1.98-.88-3.03-1.19,1.03.91,2.64,2.08,3.87,2.74Z"/>
  <path class="st47" d="M1737.8,963.11s.01,0,.02,0c0,0-.02-.01-.02-.02h0Z"/>
  <path class="st16" d="M1737.8,963.11s.01,0,.02,0c0,0-.02-.01-.02-.02h0Z"/>
  <path class="st12" d="M1771.59,998.34c.24.09.48.18.72.27h0c-.25-.1-.49-.19-.73-.28-.33-.36-2.11-1.25-2.65-1.53-.2-.11-.48.08-.66.19h0s-.13.27-.13.27c.47.04.49.08.9.35h.27c.63-.27,1.57.49,2.27.73Z"/>
  <path class="st43" d="M1772.32,998.6c-.25-.09-.49-.18-.72-.27-.7-.24-1.64-1-2.27-.73h0c.97.48,1.8.89,2.85,1.16h0s.14-.16.14-.16c0,0,0,0,0,0Z"/>
  <polygon class="st12" points="1767.63 1022.58 1767.63 1022.58 1767.63 1022.58 1767.63 1022.58"/>
  <path class="st12" d="M1770.44,1025.99h0s0,0,0,0c-1.34-1.3-1.73-2.16-2.81-3.41.44,1.12,1.39,3.43,2.72,3.63v-.03s.09-.19.09-.19h0Z"/>
  <path class="st46" d="M1786.51,994.45c-.26-.69-3.97-3.58-4.8-4.22l-.19.14c1.65,1.38,3.31,2.74,4.99,4.08Z"/>
  <path class="st41" d="M1792.08,939.22s0,0-.01.01c-.65.63-1.36,1.2-1.96,1.87,1.25-.44,3.8-3.25,4.57-4.49-.64.57-1.31,1.28-1.91,1.9,0,0,0,0,0,0-.19.2-.49.53-.69.71Z"/>
  <path class="st37" d="M1781.71,990.23c-1.42-1.19-2.63-2.19-4.11-3.3h0s-.17.3-.17.3c1.44,1.05,2.71,2.01,4.09,3.14l.19-.14Z"/>
  <path class="st12" d="M1755.11,980.8c-.31-.56-3.63-3.18-4.2-3.32.33.48,3.72,3.18,4.2,3.32Z"/>
  <path class="st46" d="M1751.71,959.03c.79-.18,4.34-.87,4.73-1.24l-.07-.13h0c-.85.21-4.04.93-4.73,1.23l.07.14Z"/>
  <path class="st39" d="M1783,942.62c.67-.01,1.04-.06,1.7-.15-1.14-.22-1.71-.29-2.87-.22-.48.14-.63.14-1.01.44.61.08,1.18-.17,2.18-.07Z"/>
  <path class="st39" d="M1767.14,990.91c-.12-.41-2.99-2.95-3.57-3.14.5.61,2.9,2.9,3.57,3.14Z"/>
  <path class="st45" d="M1763.39,987.67c-.34-.57-3.05-2.89-3.66-3.09.39.48,3.23,3.03,3.66,3.09Z"/>
  <path class="st45" d="M1777.04,944.81c.46-.36,1.87-1.11,2.07-1.48l-.12-.06h0c-.78.5-3.6,2.27-3.86,3.17l.12.02c.64-.65,1.08-1.09,1.79-1.65Z"/>
  <path class="st37" d="M1789.64,1024.07c.64.28,2.42.62,3.12.56-1.12-.68-1.85-.69-3.12-.56Z"/>
  <path class="st45" d="M1759.38,984.22c-.48-.57-2.6-2.41-3.33-2.5.67.53,2.68,2.34,3.33,2.5Z"/>
  <path class="st12" d="M1753.7,957.66h0c-.11-.5-.35-.78-.86-.95l-.23.07c-.09.47.06.68.33,1.09h0l.76-.21Z"/>
  <path class="st39" d="M1777.61,950.66s.01,0,.02,0l-.23-.14s0,0-.01,0c-.59.11-1.89.66-2.51.9l.08.21c.91-.04,1.73-.65,2.65-.96Z"/>
  <path class="st12" d="M1740.28,961.89c-.46-.54-1.26-.93-1.97-.88.64.88.88.91,1.97.88Z"/>
  <path class="st44" d="M1817.18,998.34s0-.02,0-.03c-.06-.58-.21-2.69-.42-2.95-.11.6.17,3.22.28,3.95,0,0,0,.02,0,.03.07-.35.11-.64.13-1Z"/>
  <path class="st44" d="M1817.05,999.37s0-.02,0-.03c0,.01,0,.02,0,.03h.01Z"/>
  <path class="st39" d="M1766.29,1017.79c.09.92.3,2.57.87,3.32-.12-.68-.43-2.98-.87-3.32Z"/>
  <path class="st45" d="M1788.9,922.92l.29.17c-.4-.95-.73-2.73-1.04-3.24.04.87.28,2.36.75,3.07Z"/>
  <path class="st45" d="M1788.14,919.81h0s0,.03.01.04c0-.01,0-.02,0-.04h-.01Z"/>
  <path class="st37" d="M1792.98,1014.9c-.36-.49-.95-1.22-1.53-1.44.42.55.87,1.18,1.53,1.44Z"/>
  <path class="st39" d="M1796.02,936.78c-.04.36-.17,1.03-.07,1.35l.12.11c.08-.48.18-.82.1-1.3l-.15-.16h0Z"/>
  <path class="st12" d="M1728.69,963.91h0c.11-.46.26-.87.09-1.31-.2.31-.15.59-.15.96h0l.06.35Z"/>
  <path class="st40" d="M1793.26,1025.4l.35-.27-.05-.13-.49-.11h0s-.33.32-.33.32c.17.22.11.12.52.19Z"/>
  <path class="st39" d="M1808.72,941.3l.09-.17c-.33-.19-.73-.47-1.08-.53.39.34.54.43.99.7h0Z"/>
</svg>