<?xml version="1.0" encoding="UTF-8"?>
<svg id="Layer_1" xmlns="http://www.w3.org/2000/svg" xmlns:xlink="http://www.w3.org/1999/xlink" version="1.1" viewBox="0 0 2048 1650">
  <!-- Generator: Adobe Illustrator 30.4.0, SVG Export Plug-In . SVG Version: 2.1.4 Build 226)  -->
  <defs>
    <style>
      .st0 {
        fill: #e1e1e2;
      }

      .st1 {
        stroke: #3c3d43;
      }

      .st1, .st2 {
        fill: none;
        stroke-linecap: round;
        stroke-linejoin: round;
      }

      .st3 {
        fill: url(#linear-gradient2);
      }

      .st4 {
        fill: url(#linear-gradient1);
      }

      .st5 {
        fill: url(#linear-gradient9);
      }

      .st6 {
        fill: url(#linear-gradient3);
      }

      .st7 {
        fill: url(#linear-gradient6);
      }

      .st8 {
        fill: url(#linear-gradient8);
      }

      .st9 {
        fill: url(#linear-gradient7);
      }

      .st10 {
        fill: url(#linear-gradient5);
      }

      .st11 {
        fill: url(#linear-gradient4);
      }

      .st12 {
        fill: #1e2025;
      }

      .st13 {
        fill: url(#linear-gradient31);
      }

      .st14 {
        fill: url(#linear-gradient30);
      }

      .st15 {
        fill: url(#linear-gradient32);
      }

      .st16 {
        fill: url(#linear-gradient34);
      }

      .st17 {
        fill: url(#linear-gradient35);
      }

      .st18 {
        fill: url(#linear-gradient33);
      }

      .st19 {
        fill: url(#linear-gradient36);
      }

      .st20 {
        fill: url(#linear-gradient28);
      }

      .st21 {
        fill: url(#linear-gradient29);
      }

      .st22 {
        fill: url(#linear-gradient18);
      }

      .st23 {
        fill: url(#linear-gradient13);
      }

      .st24 {
        fill: url(#linear-gradient12);
      }

      .st25 {
        fill: url(#linear-gradient15);
      }

      .st26 {
        fill: url(#linear-gradient16);
      }

      .st27 {
        fill: url(#linear-gradient11);
      }

      .st28 {
        fill: url(#linear-gradient10);
      }

      .st29 {
        fill: url(#linear-gradient17);
      }

      .st30 {
        fill: url(#linear-gradient14);
      }

      .st31 {
        fill: url(#linear-gradient19);
      }

      .st32 {
        fill: url(#linear-gradient23);
      }

      .st33 {
        fill: url(#linear-gradient22);
      }

      .st34 {
        fill: url(#linear-gradient24);
      }

      .st35 {
        fill: url(#linear-gradient25);
      }

      .st36 {
        fill: url(#linear-gradient21);
      }

      .st37 {
        fill: url(#linear-gradient20);
      }

      .st38 {
        fill: url(#linear-gradient27);
      }

      .st39 {
        fill: url(#linear-gradient26);
      }

      .st40 {
        fill: #919293;
      }

      .st41 {
        fill: url(#linear-gradient);
      }

      .st42 {
        fill: #2b2b30;
      }

      .st43 {
        fill: #7a7d82;
      }

      .st44 {
        fill: #b2b2b3;
      }

      .st2 {
        stroke: #919293;
      }

      .st45 {
        fill: #fff;
      }

      .st46 {
        fill: #67686c;
      }

      .st47 {
        fill: #444549;
      }

      .st48 {
        fill: #3c3d43;
      }

      .st49 {
        fill: #575759;
      }

      .st50 {
        fill: #070607;
      }
    </style>
    <linearGradient id="linear-gradient" x1="663.83" y1="2971" x2="674.49" y2="2992.67" gradientTransform="translate(1404 2448) scale(.5 -.5)" gradientUnits="userSpaceOnUse">
      <stop offset="0" stop-color="#444246"/>
      <stop offset="1" stop-color="#595b5d"/>
    </linearGradient>
    <linearGradient id="linear-gradient1" x1="651.77" y1="3013.46" x2="650.73" y2="3012.92" gradientTransform="translate(1404 2448) scale(.5 -.5)" gradientUnits="userSpaceOnUse">
      <stop offset="0" stop-color="#3f434a"/>
      <stop offset="1" stop-color="#606063"/>
    </linearGradient>
    <linearGradient id="linear-gradient2" x1="654.07" y1="3009.02" x2="653.03" y2="3008.48" gradientTransform="translate(1404 2448) scale(.5 -.5)" gradientUnits="userSpaceOnUse">
      <stop offset="0" stop-color="#3f434a"/>
      <stop offset="1" stop-color="#606063"/>
    </linearGradient>
    <linearGradient id="linear-gradient3" x1="750" y1="3049.72" x2="753.23" y2="3054.82" gradientTransform="translate(1404 2448) scale(.5 -.5)" gradientUnits="userSpaceOnUse">
      <stop offset="0" stop-color="#353539"/>
      <stop offset="1" stop-color="#525151"/>
    </linearGradient>
    <linearGradient id="linear-gradient4" x1="749.53" y1="3050.02" x2="752.76" y2="3055.12" gradientTransform="translate(1404 2448) scale(.5 -.5)" gradientUnits="userSpaceOnUse">
      <stop offset="0" stop-color="#353539"/>
      <stop offset="1" stop-color="#525151"/>
    </linearGradient>
    <linearGradient id="linear-gradient5" x1="691.25" y1="2863.75" x2="687.45" y2="2863.94" gradientTransform="translate(1404 2448) scale(.5 -.5)" gradientUnits="userSpaceOnUse">
      <stop offset="0" stop-color="#404343"/>
      <stop offset="1" stop-color="#686665"/>
    </linearGradient>
    <linearGradient id="linear-gradient6" x1="691.3" y1="2864.59" x2="687.5" y2="2864.78" gradientTransform="translate(1404 2448) scale(.5 -.5)" gradientUnits="userSpaceOnUse">
      <stop offset="0" stop-color="#404343"/>
      <stop offset="1" stop-color="#686665"/>
    </linearGradient>
    <linearGradient id="linear-gradient7" x1="691.59" y1="2870.36" x2="687.79" y2="2870.55" gradientTransform="translate(1404 2448) scale(.5 -.5)" gradientUnits="userSpaceOnUse">
      <stop offset="0" stop-color="#404343"/>
      <stop offset="1" stop-color="#686665"/>
    </linearGradient>
    <linearGradient id="linear-gradient8" x1="691.59" y1="2870.47" x2="687.79" y2="2870.66" gradientTransform="translate(1404 2448) scale(.5 -.5)" gradientUnits="userSpaceOnUse">
      <stop offset="0" stop-color="#404343"/>
      <stop offset="1" stop-color="#686665"/>
    </linearGradient>
    <linearGradient id="linear-gradient9" x1="693.2" y1="2848.2" x2="692.43" y2="2841.35" gradientTransform="translate(1404 2448) scale(.5 -.5)" gradientUnits="userSpaceOnUse">
      <stop offset="0" stop-color="#343134"/>
      <stop offset="1" stop-color="#484b4a"/>
    </linearGradient>
    <linearGradient id="linear-gradient10" x1="693.18" y1="2848.21" x2="692.41" y2="2841.36" gradientTransform="translate(1404 2448) scale(.5 -.5)" gradientUnits="userSpaceOnUse">
      <stop offset="0" stop-color="#343134"/>
      <stop offset="1" stop-color="#484b4a"/>
    </linearGradient>
    <linearGradient id="linear-gradient11" x1="868.41" y1="2933.93" x2="860.49" y2="2957.05" gradientTransform="translate(1404 2448) scale(.5 -.5)" gradientUnits="userSpaceOnUse">
      <stop offset="0" stop-color="#3f3e43"/>
      <stop offset="1" stop-color="#545557"/>
    </linearGradient>
    <linearGradient id="linear-gradient12" x1="876.51" y1="2936.71" x2="868.58" y2="2959.83" gradientTransform="translate(1404 2448) scale(.5 -.5)" gradientUnits="userSpaceOnUse">
      <stop offset="0" stop-color="#3f3e43"/>
      <stop offset="1" stop-color="#545557"/>
    </linearGradient>
    <linearGradient id="linear-gradient13" x1="873.59" y1="2935.71" x2="865.66" y2="2958.83" gradientTransform="translate(1404 2448) scale(.5 -.5)" gradientUnits="userSpaceOnUse">
      <stop offset="0" stop-color="#3f3e43"/>
      <stop offset="1" stop-color="#545557"/>
    </linearGradient>
    <linearGradient id="linear-gradient14" x1="874.91" y1="2936.16" x2="866.98" y2="2959.28" gradientTransform="translate(1404 2448) scale(.5 -.5)" gradientUnits="userSpaceOnUse">
      <stop offset="0" stop-color="#3f3e43"/>
      <stop offset="1" stop-color="#545557"/>
    </linearGradient>
    <linearGradient id="linear-gradient15" x1="874.96" y1="2945.4" x2="867.56" y2="2943.85" gradientTransform="translate(1404 2448) scale(.5 -.5)" gradientUnits="userSpaceOnUse">
      <stop offset="0" stop-color="#111216"/>
      <stop offset="1" stop-color="#333134"/>
    </linearGradient>
    <linearGradient id="linear-gradient16" x1="879.22" y1="2937.63" x2="871.29" y2="2960.75" gradientTransform="translate(1404 2448) scale(.5 -.5)" gradientUnits="userSpaceOnUse">
      <stop offset="0" stop-color="#3f3e43"/>
      <stop offset="1" stop-color="#545557"/>
    </linearGradient>
    <linearGradient id="linear-gradient17" x1="872.64" y1="2956.44" x2="865.24" y2="2954.89" gradientTransform="translate(1404 2448) scale(.5 -.5)" gradientUnits="userSpaceOnUse">
      <stop offset="0" stop-color="#111216"/>
      <stop offset="1" stop-color="#333134"/>
    </linearGradient>
    <linearGradient id="linear-gradient18" x1="876.46" y1="2936.69" x2="868.53" y2="2959.81" gradientTransform="translate(1404 2448) scale(.5 -.5)" gradientUnits="userSpaceOnUse">
      <stop offset="0" stop-color="#3f3e43"/>
      <stop offset="1" stop-color="#545557"/>
    </linearGradient>
    <linearGradient id="linear-gradient19" x1="874.4" y1="2948.03" x2="867" y2="2946.48" gradientTransform="translate(1404 2448) scale(.5 -.5)" gradientUnits="userSpaceOnUse">
      <stop offset="0" stop-color="#111216"/>
      <stop offset="1" stop-color="#333134"/>
    </linearGradient>
    <linearGradient id="linear-gradient20" x1="871.97" y1="2935.15" x2="864.04" y2="2958.27" gradientTransform="translate(1404 2448) scale(.5 -.5)" gradientUnits="userSpaceOnUse">
      <stop offset="0" stop-color="#3f3e43"/>
      <stop offset="1" stop-color="#545557"/>
    </linearGradient>
    <linearGradient id="linear-gradient21" x1="876.84" y1="2936.4" x2="869.44" y2="2934.85" gradientTransform="translate(1404 2448) scale(.5 -.5)" gradientUnits="userSpaceOnUse">
      <stop offset="0" stop-color="#111216"/>
      <stop offset="1" stop-color="#333134"/>
    </linearGradient>
    <linearGradient id="linear-gradient22" x1="876.7" y1="2937.03" x2="869.3" y2="2935.48" gradientTransform="translate(1404 2448) scale(.5 -.5)" gradientUnits="userSpaceOnUse">
      <stop offset="0" stop-color="#111216"/>
      <stop offset="1" stop-color="#333134"/>
    </linearGradient>
    <linearGradient id="linear-gradient23" x1="698.37" y1="2926.32" x2="750.93" y2="2943.75" gradientTransform="translate(1404 2448) scale(.5 -.5)" gradientUnits="userSpaceOnUse">
      <stop offset="0" stop-color="#525057"/>
      <stop offset="1" stop-color="#9c9d98"/>
    </linearGradient>
    <linearGradient id="linear-gradient24" x1="687.9" y1="2957.88" x2="740.46" y2="2975.31" gradientTransform="translate(1404 2448) scale(.5 -.5)" gradientUnits="userSpaceOnUse">
      <stop offset="0" stop-color="#525057"/>
      <stop offset="1" stop-color="#9c9d98"/>
    </linearGradient>
    <linearGradient id="linear-gradient25" x1="688.08" y1="2957.96" x2="688.08" y2="2957.96" gradientTransform="translate(1404 2448) scale(.5 -.5)" gradientUnits="userSpaceOnUse">
      <stop offset="0" stop-color="#525057"/>
      <stop offset="1" stop-color="#9c9d98"/>
    </linearGradient>
    <linearGradient id="linear-gradient26" x1="753.8" y1="2830.36" x2="754.11" y2="2832.72" gradientTransform="translate(1404 2448) scale(.5 -.5)" gradientUnits="userSpaceOnUse">
      <stop offset="0" stop-color="#888789"/>
      <stop offset="1" stop-color="#b0afb0"/>
    </linearGradient>
    <linearGradient id="linear-gradient27" x1="759.98" y1="2829.55" x2="760.29" y2="2831.91" gradientTransform="translate(1404 2448) scale(.5 -.5)" gradientUnits="userSpaceOnUse">
      <stop offset="0" stop-color="#888789"/>
      <stop offset="1" stop-color="#b0afb0"/>
    </linearGradient>
    <linearGradient id="linear-gradient28" x1="759.37" y1="2832.81" x2="760.65" y2="2828.52" gradientTransform="translate(1404 2448) scale(.5 -.5)" gradientUnits="userSpaceOnUse">
      <stop offset="0" stop-color="#69696c"/>
      <stop offset="1" stop-color="#7d7d7c"/>
    </linearGradient>
    <linearGradient id="linear-gradient29" x1="758.53" y1="2832.56" x2="759.81" y2="2828.27" gradientTransform="translate(1404 2448) scale(.5 -.5)" gradientUnits="userSpaceOnUse">
      <stop offset="0" stop-color="#69696c"/>
      <stop offset="1" stop-color="#7d7d7c"/>
    </linearGradient>
    <linearGradient id="linear-gradient30" x1="752.59" y1="2830.79" x2="753.87" y2="2826.5" gradientTransform="translate(1404 2448) scale(.5 -.5)" gradientUnits="userSpaceOnUse">
      <stop offset="0" stop-color="#69696c"/>
      <stop offset="1" stop-color="#7d7d7c"/>
    </linearGradient>
    <linearGradient id="linear-gradient31" x1="756.32" y1="2831.91" x2="757.6" y2="2827.62" gradientTransform="translate(1404 2448) scale(.5 -.5)" gradientUnits="userSpaceOnUse">
      <stop offset="0" stop-color="#69696c"/>
      <stop offset="1" stop-color="#7d7d7c"/>
    </linearGradient>
    <linearGradient id="linear-gradient32" x1="663.11" y1="2976.25" x2="663.86" y2="2966.92" gradientTransform="translate(1404 2448) scale(.5 -.5)" gradientUnits="userSpaceOnUse">
      <stop offset="0" stop-color="#484647"/>
      <stop offset="1" stop-color="#656668"/>
    </linearGradient>
    <linearGradient id="linear-gradient33" x1="649.75" y1="2975.18" x2="650.5" y2="2965.85" gradientTransform="translate(1404 2448) scale(.5 -.5)" gradientUnits="userSpaceOnUse">
      <stop offset="0" stop-color="#484647"/>
      <stop offset="1" stop-color="#656668"/>
    </linearGradient>
    <linearGradient id="linear-gradient34" x1="656.16" y1="2975.69" x2="656.91" y2="2966.36" gradientTransform="translate(1404 2448) scale(.5 -.5)" gradientUnits="userSpaceOnUse">
      <stop offset="0" stop-color="#484647"/>
      <stop offset="1" stop-color="#656668"/>
    </linearGradient>
    <linearGradient id="linear-gradient35" x1="686.3" y1="2958.7" x2="685.62" y2="2956.84" gradientTransform="translate(1404 2448) scale(.5 -.5)" gradientUnits="userSpaceOnUse">
      <stop offset="0" stop-color="#808081"/>
      <stop offset="1" stop-color="#a5a5a4"/>
    </linearGradient>
    <linearGradient id="linear-gradient36" x1="681.96" y1="2960.28" x2="681.28" y2="2958.42" gradientTransform="translate(1404 2448) scale(.5 -.5)" gradientUnits="userSpaceOnUse">
      <stop offset="0" stop-color="#808081"/>
      <stop offset="1" stop-color="#a5a5a4"/>
    </linearGradient>
  </defs>
  <path class="st50" d="M1728.78,959.07v1.51c.2-.62.17-1.04,0-1.51Z"/>
  <path class="st50" d="M1730.6,943.96c-.6-1.13-1.19-2.33-1.8-3.51v.03c.6,1.19,1.2,2.38,1.8,3.5v-.02Z"/>
  <polygon class="st50" points="1772.36 904.93 1772.36 904.92 1772.35 904.93 1772.36 904.93"/>
  <polygon class="st50" points="1746.57 1002.75 1746.56 1002.76 1746.57 1002.76 1746.57 1002.75"/>
  <path class="st50" d="M1833.55,1016.41c.13-.54,2.02-1.94,2.57-2.4-.55.45-2.44,1.85-2.57,2.4Z"/>
  <path class="st50" d="M1843.65,974.22c-1.37-4.64-3.16-9.6-6.35-13.33-2.22-2.61-4.93-5.21-7.53-7.44-2.42-2.08-5.21-3.72-7.89-5.42l-10.57-6.58c-3.36-2.07-7.13-4.54-9.96-7.29-.56-.55-1.39-1.66-1.9-2.32.6-3.46,3.13-5.44,3.22-9.21.1-4.11-3.71-6.06-6.71-3.08-1.43,1.42-1.63,3.87-1.61,5.83-1.63-2.3-4.63-5.65-6.56-7.85-4.1-4.69-8.46-9.14-13.06-13.33-.58-.52-1.19-1.05-1.8-1.57l-.47.26c2.87,2.44,5.62,4.95,8.24,7.5,3.39,3.31,7.41,8.02,10.49,11.68,2.92,3.46,10.38,12.07,10.83,16.47h0c.07.69.26,2.08-.15,2.62-.12-.54-.08-1.98-.09-2.61h0c-.56-1.64-1.03-2.71-2.04-4.13-.62-1.18-4.31-6.23-5.24-7.15-.15-.38-1.91-2.48-2.26-2.9-3.46-4.23-7.1-8.35-10.91-12.27-1.31-1.32-2.83-2.52-4.15-3.83-1.75-1.73-3.56-3.39-5.4-5l-.63.36c.08.08.15.14.23.22-.07-.02-.2-.08-.35-.16l-32.72,18.55c1.01-.33,2.02-.65,3.03-.99,8.49-2.8,16.56-6.03,23.97-11.08,1.45-.99,3.05-1.92,4.43-3,.85-.67,1.75-1.52,2.58-2.25h0s.02-.01.02-.02h0l.19-.19c.5.03,1.57,1.09,1.96,1.45l-.04.3-.08.04c.47.64,1.04.95,1.23,1.66,3.46,3.63,7.09,7.13,10.41,10.92,2.08,2.37,4.08,4.97,6.06,7.43l.02.02h-.01c.75.78,3.12,4.25,3.68,5.29.56.72,1.09,1.68,1.69,2.48h0c.02.09.03.18.04.26.02.25-.03.47-.23.71-1.7,2.01-4.42,3.31-6.5,5.03-1.43,1.18-3.42,3.41-4.76,4.26-1.07.68-3.59,1.82-4.81,2.46-.47.46-2.19,1.21-2.84,1.62-3.08,1.95-6.04,3.11-9.41,4.43-6.76,2.65-13.65,4.82-20.66,6.66-.98.26-2.5.29-3.51.27-1.8-.99-3.68-2.7-4.83-4.41-.79-1.21-1-2.7-1.58-4-1.55-3.48-3.32-6.77-5.13-10.11-1.19-2.19-2.34-4.4-3.46-6.63-.32-.63-.65-1.26-.98-1.9v5.81c.93,1.83,1.8,3.66,2.2,4.51h.02c.09.16.36.62.42.78h0c.61,1.17,1.24,2.33,1.79,3.54,2.79,5.48,5.84,11.01,9.66,15.83.78.98,1.41,1.66,2.05,2.74-.78-.02-1.52-.03-2.3-.12-1.61-3.07-3.24-6.22-5.19-9.11-.25-.38-1.1-.91-1.21-1.29,0,0,0-.01-.01-.02v.03c-.34-.71-.82-1.53-1.2-2.22-.35-.98-.99-2.1-1.4-3.07-.59-1.37-1.14-2.74-1.74-4.1h0c-.39-.48-.74-1.16-.59-1.78,0,0,0-.01-.01-.02v.02c-.16.61.19,1.29.58,1.77.6,1.36,1.16,2.73,1.74,4.1.42.97,1.06,2.09,1.4,3.07-.72-.54-.94-1.35-1.47-2.02-1.94-2.43-3.35-5.12-4.74-7.83v2.42c1.51,3.11,2.97,6.25,4.35,9.43.51,1.14,2.64,5.88,2.64,6.9-.26,0-.16.01-.4-.12-.45-.21-.83-.35-1.05-.82-1.26-2.65-2.1-5.57-3.38-8.21-.72-1.5-1.44-3.01-2.17-4.51v3.34c.04-.78.09-1.43.12-1.74h0l.19.18c.19.79-.19,5.97-.22,7.18-.04-.06-.07-.16-.1-.27v1c1.45.93,5.14,3.27,5.56,3.84.55.25,1.21.47,1.44,1.03v.16h0c.14.57.23.92.21,1.49v.04l-.15.16h0c-2.23-1.08-3.62-2.42-6.24-3.19-.27-.08-.54-.14-.82-.21v10.52c1.37,1.27,2.89,2.73,3.06,3.09l-.38-.28-.06.09c.36.4.63.61,1.04.96.21.18.15.1.25.35-.13-.03-1.7-1.29-3.92-3.12l-.03,22.89c1.3.99,2.6,2,3.86,3.04.71.59,2.17,1.58,2.46,2.43l-.13.08c-.82-.32-3.15-2.34-4.08-3.05l-2.11-1.63v2.26c1.2.91,2.39,1.82,3.59,2.73.8.6,1.56,1.43,2.34,2.05,3.03,2.45,5.78,5.21,8.92,7.5-.03,5.99,2.91,15.42,8.05,19,1.43,1,3.01,2.39,4.58,3.14,3.62,1.73,7.67.07,11.15-1.17,3.31,1.71,5.33,3.24,9.08,3.72,5.91.76,10.73.26,16.51-.72,15.31-2.55,29.75-8.85,42.03-18.35,2.04-1.56,4.16-3.5,6.07-5.24.62-.57,1.04-1.82,1.49-2.57,1.57-2.61,3.07-5.49,3.36-8.57.2-1.96-.96-2.54-.9-4.21.01-.42.42-2.19.53-2.69.3-1.38.54-2.77.73-4.17.41-3.2.38-7.09-.62-10.19-.6-1.8-1.45-3.54-1.99-5.37v.03ZM1796.09,927.63c-.46-.71-.71-2.21-.75-3.07,0,0,0-.02-.01-.03h.01v.03c.31.52.63,2.3,1.04,3.24l-.29-.17h0ZM1795.23,921.07c.81-1.36,1.63-2.31,3.24-2.67h0c5.49-.26,4.24,6.65,1.54,9.5l-.09-.06c.51-1.35,1.44-2.02,1.95-3.92.22-.99.17-3.52-.59-4.25-1.03-.99-2.7,1.63-3.17,2.29h-.14c-.42-.44-.84-1.7-1.05-2.29-.2-.01-1.36,1.13-1.69,1.4h0ZM1798.76,923.9l-.14-.16c-.21-.58-.72-1.2-.78-1.62l.31.16c.87-.35,1.22-1.6,2.43-2.57h.01l.3.08c-.03.28-.59.44-.82.72-.57.7-.72,1.58-1.17,2.41-.22.04-.15-.02-.25.1.15.44.24.51.12.88h-.01ZM1839.58,964.55h0c.37.75.73,1.64,1.06,2.41,3.27,8.45,4.89,12.29-1.62,19.98-.37.54-1.04,1.04-1.56,1.43h0v-1.33h0v-.06h0v.05c-.22-1.83-.13-7.05.29-8.81h.01c.21-1.29.45-2.53.92-3.75.96-2.5,1.31-4.72,1.26-7.39-.11-.83-.23-1.67-.35-2.52h-.01ZM1836.35,991.27c-.16-.35.52-13.22.6-14.63h0c.03-1.06.63-9.37.88-9.88.3.32.43,1.42.39,1.83-.29,2.61-1.01,5.37-1.06,8,.03,1.89-.34,13.59-.81,14.68h0ZM1838.66,966.41l-.15-.02c-.85-1.29-2.29-3.45-3.28-4.56-1.11-1.24-5.77-7.35-6.63-7.62-.18-.15-.21-.3-.3-.53h0c2.19,1.33,11.67,10.33,10.36,12.73h0ZM1823.5,950.81l.12-.02-.09.03c.55.14.33.57,1.04.31l.04-.14c-.29-.09-.42-.15-.69-.27v-.12l.13-.04c1.14.67,2.6,1.46,3.49,2.42.11.1.67.59.74.68.1.23.13.39.31.54.36.48.75.96,1.06,1.47l-.02-.02s.01.02.02.03c-.49-.47-.93-.88-1.39-1.38h0c-.07.17-.06.31-.07.5l-.11.02c-.71-.69-1.41-1.36-2.16-1.99s-1.76-1.31-2.43-2h.04s-.02-.02-.03-.02h0ZM1816,945.84h0c.96.56,3.48,2.06,4.17,2.85h0c.63.53,1.53,1.25,2.11,1.8h-.02s.01.01.02.01c.32.16.31.17.57.42h0c.71.59,1.16,1.06,1.8,1.74h-.01.01c.68.65,2.71,1.83,2.97,2.17h0c.23.19.55.42.79.66.08.08.16.16.22.23l.08.03h0v-.02c.82.69,1.75,1.51,2.47,2.31h-.02l.02.02c.35.25.69.78,1.44,1.3l-.1-.17c1.29.78,3.49,4.77,4.19,6.17-1.1-1.08-2.06-2.62-3.13-3.52-1.53-1.3-3.18-2.59-4.72-3.89-1.02-.86-2.23-1.61-3.12-2.61.48.85.56,1.16.81,2.08l-.34-.12c-2.9-.99-3.22-4.17-4.96-6.46-.31-.37-.93-.57-1.23-.94-1.27-1.51-2.59-2.61-4.1-3.88l.09-.17h-.01l-.09.16h0c-.45-.27-.6-.36-.99-.7.35.06.75.34,1.08.53h0ZM1806.78,940.21h.01c1.48.75,5.62,4.45,6.9,5.6l.32-.11.17.13c.67.42,2.26,1.33,2.8,1.79,3.37,2.91,4.53,5.85,6.08,9.71,0,0-.01-.02-.02-.02v.02c-.79-.85-1.51-1.77-2.15-2.72l-.12.13c4.43,6.54,8.67,13.14,11.13,20.7.38,1.18,1.08,3.06,1.03,4.27l-.09-.09c-.08-1.31-.56-1.84-.92-3.03-2.92-9.56-11.01-22.42-17.76-29.79-1.11-1.21-2.32-2.33-3.6-3.35-1.32-1.07-2.62-1.98-3.78-3.23,0,0-.02,0-.02-.01h.02ZM1809.88,1005.66c4.1-2.74,21.52-13.59,25.51-13.15-.06.11-.9.29-1.1.35-1.71.52-3.4,1.15-5.04,1.88-3.54,1.59-6.85,3.68-10.15,5.63-6.1,3.61-12.02,7.05-17.22,11.93-1.88,1.76-5.07,3.19-3.52,6.49l.06.12h-.01c1.89,2.09,5.54,3.26,8.25,2.64,5.54-1.25,11.62-4.28,16.62-6.98,3.68-1.98,11.06-6.21,13.81-9.3,1.44-1.66,2.51-3.61,3.13-5.73.42-1.49.58-3.9-.2-5.31-.57-1.02-1.78-1.28-2.82-1.54-1.1,1.28-1.67,2.26-2.98,3.48-2.28,2.12-6.3,4.27-8.42,6.3-.42,1.53-.69,2.53-1.22,4-1.47-.88-1.88-1.6-3.64-2.25-1.3.38-3.87,1.6-5.27,2.17-3.58,1.44-6.4,2.31-10.09,3.27,1.31-1.02,1.95-1.12,3.52-1.53,1.15-.3,2.37-.7,3.5-1.1,1.38-.49,2.74-1.01,4.09-1.57,1.22-.52,2.81-1.27,4.03-1.63,1.38.4,2.21,1.11,3.33,1.96.08-.55.13-1.14.17-1.7,0-.03,0-.05.01-.07-.11-.73-.39-3.35-.28-3.95.21.26.36,2.37.42,2.95.17-1.05.32-2.11.52-3.15.17.6.4,1.36.52,1.96,4.22-3.02,8.18-5.2,11.26-9.44h.02c1.26.12,2.56.34,3.41,1.38.94,1.16.87,3.06.67,4.47-.57,4.16-3.09,7.24-6.35,9.68-5.74,4.3-23.85,15.03-30.67,14.02-1.98-.29-4.16-1.1-5.4-2.76-.05-.06-.09-.13-.13-.19h.01c-.65-.91-.67-2.82,0-3.72.79-1.06,1.96-1.92,2.97-2.78,1.34-1.17,2.7-2.32,4.08-3.44,1.48-1.2,3.02-2.33,4.6-3.39h0ZM1800.17,1019.61c-.66-.26-1.11-.89-1.53-1.44.58.22,1.17.95,1.53,1.44ZM1841.03,1003.31h0l.11.19c-.31,1.13-2.1,3.63-2.83,4.68-.34-.63.4-1.36.79-1.93.66-.97,1.27-1.97,1.93-2.94h0ZM1793.38,1027.52c.15-.05.06-.04.27,0-1.05.62-7.56.57-9.19.57-.26-.02-.15.02-.35-.1.25-.13,8.27-.41,9.27-.47h0ZM1786.91,1025.34c-.75.04-1.45.08-2.18-.13.82-.13,3.13-.12,4.11-.14,1.93-.05,3.86-.16,5.79-.32h-.01c.79-.09,1.58-.27,1.95.63l-.08.11c-.18-.17-.6-.62-.83-.59-2.94.41-5.79.44-8.75.44h0ZM1791.92,1009.12c-3.51-.22-7.08-.31-10.58-.61h0c-.91-.11-4.42-.9-4.96-1.56-.03.02,4.12,1.2,4.77,1.22,3.9.13,8.87,1.07,12.66.36,1.21-.23,4.07-1.73,5.62-2.21-1.2,1.19-5.72,2.91-7.51,2.8h0ZM1792.06,1005.21l-.09.1c-1.08.05-2.18.07-3.28.08-1.1,0-2.21-.02-3.28-.06-.69-.03-1.56-.02-2.02-.52h0c-.1-.04-1.1-.25-1.36-.33-.98-.3-1.74-.61-2.66-1.01h0c-1.05-.26-1.88-.67-2.85-1.14h-.27c-.41-.27-.43-.31-.9-.35l.13-.27h0c.18-.11.46-.3.66-.19.54.28,2.32,1.17,2.65,1.53.24.09.48.18.73.27h0c3.63,1.36,5.15,1.32,9.01,1.35.85,0,2.3.03,3.14.18.58.11,1.48-.18,1.68.14-.78.07-1.33-.02-2.03.05.31.12.42.12.75.18h-.01ZM1800.26,1029.61h0l.49.1.05.13-.35.27c-.41-.07-.35.03-.52-.19l.33-.31ZM1796.83,1028.78c1.27-.13,2-.12,3.12.56-.7.06-2.48-.28-3.12-.56ZM1801.99,935.58h0c.6.31,2.36,1.83,2.87,2.32-.26.6-.65,1.26-.96,1.85-.18.26-.47.62-.79.66.41-2.25-.41-2.84-1.12-4.83h0ZM1803.26,942.95l-.12-.11c-.1-.32.03-.99.07-1.35h0l.15.16c.08.48-.02.82-.1,1.3ZM1804.19,1008.54c-1.14.25-2.06.41-3.22.53-1.31.08-2.62.12-3.92.1,1.17-.73,2.56-1.74,3.59-2.67h0c1.19.53,2.44,1.34,3.55,2.04ZM1788.76,921.08c-1.62-2.03-12.98-14.07-14.29-14.61l.04-.3h0c2.22,2.05,4.5,4.05,6.63,6.2,3.25,3.26,6.32,6.69,9.26,10.23.87,1.05,2.79,3.18,3.31,4.34-.12-.07-4.42-5.2-4.95-5.86h0ZM1795.17,928.91l.06-.1c.48.45,1.26,2.02,1.7,2.18.2-.66-2.1-2.51-2.43-3.71h0c.94.92,4.63,5.97,5.24,7.15-.03,0-.31-.08-.34-.1-.96-.6-3.77-4.55-4.23-5.42h0ZM1798.48,941.21c1.37.56,1.36.54,1.48,2.01h0c.6-.62,1.27-1.33,1.91-1.9-.77,1.24-3.32,4.05-4.57,4.49.6-.67,1.31-1.24,1.96-1.87-.8-.02-2.2.93-2.42,1.61l.11.1v.04h.02l-.02.02h0c-.51.48-1.31.89-1.93,1.25h0c-.25.21-.3.2-.62.31-.49-.07-.83-.09-1.16-.45.1-.79,4.35-4.93,5.24-5.6h0ZM1793.19,947.28h0l.03.16c-.71.76-10.76,5.62-12.54,6.61l-.06-.09c.69-.77,11.03-5.96,12.56-6.68h.01ZM1789.02,946.96c1.16-.07,1.73,0,2.87.22-.66.09-1.03.14-1.7.15-1-.1-1.57.15-2.18.07.38-.3.53-.3,1.01-.44ZM1786.18,947.99h0l.12.05c-.2.37-1.61,1.12-2.07,1.48-.71.56-1.15,1-1.79,1.65l-.12-.02c.26-.9,3.08-2.67,3.86-3.16ZM1766.01,961.88c3.37-1.23,6.04-2.93,8.99-4.93,2.39-1.63,4.96-3.38,7.44-4.89h.04s-.02.17-.02.17c-2.76,2.13-5.56,3.74-8.41,5.69-.52.36-1.04.71-1.58,1.05-2.59,1.63-5.39,2.92-8.31,3.82l-.09-.08c.23-.25,1.54-.68,1.95-.83h0ZM1763.56,962.37l.07.13c-.39.37-3.94,1.06-4.73,1.24l-.07-.14c.69-.3,3.88-1.02,4.73-1.22h0ZM1749.83,964.84c2.09-.54,4.35-.74,6.46-1.18,1.16-.25,2.68-.73,3.84-1.08h0c-.27-.41-.42-.62-.33-1.09l.23-.07c.51.17.75.45.86.95h0c.58-.21.88-.37,1.5-.37l.08.06c-.82.42-1.74.63-2.63.92-3.43,1.12-6.99,1.55-10.54,2.08-.39.06-1,.12-1.36.1.81-.3,1.19-.14,1.89-.32h0ZM1747.47,966.6c-1.09.03-1.33,0-1.97-.88.71-.05,1.51.34,1.97.88ZM1735.58,960.84c.81,1.28,2.67,4.75,3.49,5.66,1.5.52,2.72.34,4.24.49,4.66.47,8.8-.42,13.28-1.51,8.79-2.15,17.14-5.85,25.48-9.36h-.01c.62-.23,1.92-.77,2.51-.89h0c3.24-2.28,8.01-4.14,11.37-6.6,2.31-1.69,3.69-3.96,5.84-5.47-.97,1.2-4.35,4.55-5.64,5.78-.08.07.16.58-.78,1.17.08-.34.52-.86.76-1.18-1.31.69-2.56,1.51-3.85,2.25l-7.47,4.2h0c-.92.31-1.74.92-2.65.96-2.58,1.55-6.53,2.91-9.38,4.05-8.1,3.21-16.69,6.29-25.41,7.11-1.95.18-6.69-.12-8.53-.78-1.03-1.15-2.7-4.43-3.24-5.88h0ZM1769.21,984.94c-1.05-1.51-1.05-1.63-2.35-3.06h.01c1.44.41,5.9,2.72,7.2,3.75.3.23.57.65.76.98-1.14-.16-4.47-1.25-5.62-1.67ZM1774.33,995.62c-.67-.24-3.07-2.53-3.57-3.14.58.19,3.45,2.73,3.57,3.14ZM1770.58,992.38c-.43-.06-3.27-2.61-3.66-3.09.61.2,3.32,2.52,3.66,3.09ZM1766.86,979.93c-5.71-3.28-12.35-5.53-17.97-9.36l.04-.09c-.28-.71-1.29-.63-.88-1.46h0c-.41.83.6.75.88,1.46l-.04.09c-1.23-.67-2.84-1.83-3.87-2.74h-.02.02c1.05.31,2.05.95,3.03,1.19h0c1.38.19,2.73.15,4.12.13h0c.65.32,1.07.65,1.25,1.39l-.02.17c-.37.21-1.06.24-1.53.3,1.09.88,2.58,1.6,3.81,2.28,1.86,1.02,3.74,2.01,5.61,3,3.95,2.08,7.7,4.55,11.42,7,4.03,2.66,8.36,5.28,12.08,8.35l-.17.29c-5.8-3.83-11.78-8.56-17.76-12ZM1766.57,988.93c-.65-.16-2.66-1.97-3.33-2.5.73.09,2.85,1.93,3.33,2.5ZM1762.3,985.51c-.48-.14-3.87-2.84-4.2-3.32.57.14,3.89,2.76,4.2,3.32ZM1755.4,979.24c-1.17-.49-6.36-2.87-6.91-3.76.05-1.13-.51-1.44-1.1-2.57,1.23.22,6.22,2.25,7.26,2.98.58,1.46.34,2.12.75,3.35h0ZM1762.48,974.22h0c1.52.17,8.54,3.52,10.28,4.57,1.42,1.24,3.16,2.64,4.48,3.95,2.43,2.41,5.47,4.85,7.73,7.35-.55-.21-2.62-1.77-3.2-2.19-3.83-2.8-7.49-5.71-11.34-8.49-2.78-2.01-5.53-2.91-7.96-5.19h0ZM1784.79,991.65h0c1.48,1.1,2.69,2.1,4.11,3.29.83.64,4.54,3.53,4.8,4.22-1.68-1.34-3.34-2.7-4.99-4.08-1.38-1.13-2.65-2.09-4.09-3.14l.17-.29h0ZM1735.05,1000.44c-.4-.44-.33-1.57-.33-2.18,0-6.38-1.49-13.96-.63-20.28h0c.27.46.11,4.28.06,5.11-.3,5.21,1.42,12.39.9,17.35h0ZM1735.88,968.62h0c-.12.44-.18,1.14-.31,1.65-.62,2.52-.93,4.88-1.26,7.44-.28-2.65.41-5.56,1.08-8.11-.47-.48-.81-.82-1.32-1.24-.75-.62-2.97-1.85-3.22-2.71.96-.4,1.82.45,2.52.95.8.58,1.62,1.14,2.45,1.67,0-.37-.05-.65.15-.96.17.44.02.85-.09,1.31ZM1741.06,984.86c-.02-.66-2.26-3.53-2.74-4.97h0c-.21-.32-.38-.43-.36-.72.1.04,4.93,4.04,5.1,4.25.06.92-1.28,1.29-2,1.44h0ZM1761.92,1027.11c-.42,1.17-.76,2.26-1.6,3.2h0s0-.01,0,0h0c-.37.42-.74.75-1.3.91-.67.2-1.48.36-2.17.15-.95-.33-1.43-.64-2.23-1.23h.01-.01c-.84-.38-2.66-1.95-3.28-2.64-.97-.94-1.72-2.23-2.4-3.37h0c-.25-.47-.49-.95-.72-1.43-.14-.3-.37-.75-.4-1.13h0c-.01-.14,0-.26.03-.37h0s.32-.17.32-.17l.02-.26h0l-.26-.35-.06-.15-.14-.03-.33.39-.15-.1c-1.13-3.32-2.04-6.33-2.11-9.89l.06-.57h0v-.03h0l.52-.34c.12-.64.14-1.49.19-2.16.11-1.2.36-2.39.75-3.54h0c.73.9,1.43,1.75,2.12,2.68-.58,1.63-.66,3.29-.05,4.93.2.11.78.43.91.56h.02c.71.23,1.37.41,2.09.61h0l1.55.5c-.41-2.6-2.99-4.88-4.49-7.07-.74-1.08-1.54-2.43-2.26-3.45-1.12,2.27-1.03,3.71-1.11,6.12-.39-.13-.26-.82-.26-1.19.03-4.61,2.86-10.64,8.34-7.06,4.9,3.2,7.07,8.98,8.46,14.43,1,4.2.99,7.86-.08,12.02h0l.02.03ZM1755.39,991.15c.1.19.07.12,0,.34-.61.26-1.65-.43-2.18-.77-.87-.64-1.69-1.71-2.52-2.45-.55-.49-1.85-1.64-1.41-2.42.49-.26,1.41-.36,2.05-.53.46-.78.92-1.77,1.42-2.63h0c.27.02.62.09.88.22,2.37,1.16,1.91,3.85,1.79,6.02-.05.89-.44,1.41-.03,2.22h0ZM1768.11,1003.11v-.02c-1.54-.78-3-.68-4.46-1.32-2.56-1.18-3.83-3.83-5.45-5.97-.48-.63-2.58-2.77-2.49-3.3.32-.14,1.35-.13,1.75-.16,3.19-.3,6.19.7,9.24,1.49,1.16.3,2.67.79,3.87.92l.18.02c-.78-.71-3.5-2.56-4.47-3.26l-7.5-5.49c-1.62-1.17-14.88-11.45-15.22-11.47-.24.16-.26.2-.53.28-.6-.32-5-3.33-5.34-3.69-.68-.44-1.09-.72-1.5-1.43-.18-.5-.15-.66.07-1.1h0c.71.09,1.68.52,2.36.81,1.2.44,7.28,2.88,7.7,3.68,3.13,5.99,7.52,8.49,12.52,12.3,1.23.93,12.33,9.33,12.47,9.57-.32.04-.19.04-.54-.18.35.22.22.23.54.18,1.19.57,4.74,3.73,5.6,4.81-1.32-.19-5.64-1.32-6.57-1.09l-.28.26c7.36,1.88,14.22,2.28,21.67,3.18.17.02,7.29,3.56,7.76,3.89l.06.22c-1.19-.58-2.59-1.06-3.81-1.62-1.36-.58-2.84-1.61-4.32-1.87-3.17-.56-6.45-.61-9.65-.99-.62-.07-1.58-.13-2.15-.3-1.51-.08-3.03-.24-4.53-.49l-.02.33.4.39-.13.27h-.02s-.36.17-.36.17l-.15-.06.1-.39c-.15.02-.19.02-.23.04-.03.03-.06.08-.19.2-.48,1.33,1,3.64,1.58,4.92-.02-.02-.04-.04-.06-.07.01.02.03.05.04.08-1.84-2.15-2.44-3.04-3.48-5.6-.67-.39-1.14-.64-1.85-.91l-.06.17c.72.4,1.13.72,1.79,1.22.39,1.09.69,1.92,1.28,2.93-.02,0-.03-.01-.05-.02v.02c2.15,3.16,4.12,3.19,7.61,4.3h.03c.42.06,1.3.12,1.48.52-.88.39-4.17-.05-5.17-.22-5.29-.89-6.81-4.09-9.6-8.22-.34.53-.04,1.28.08,2.06h.01-.01ZM1768.77,1009.17c2.64.46,2.76,1.63,5.6,1.39-1.12-.75-2.08-1.02-3.35-1.43.93-.08,1.09-.11,1.99-.35h0c.42,0,3.8,1.75,4.75,2.01,4.91,1.34,9.69,2.34,14.65,3.36-1.98.57-6.51.35-8.73.34-3.8-.19-8.76-.73-12.01-2.8-.99-.63-2.05-1.69-2.9-2.52h0ZM1782.56,1031.33c-.88.59-4.01,0-5.01-.44v.03c-1.34-.2-2.29-2.51-2.73-3.63h0c1.08,1.25,1.47,2.11,2.81,3.41v-.03.03h.01l.2.03c1.3.22,3.87.18,4.79.61l-.03.08-.22.04.24-.1-.05-.03h-.01ZM1774.35,1025.82c-.57-.75-.78-2.4-.87-3.32.44.34.75,2.64.87,3.32ZM1778.38,1033.72c-1.23.24-4.41-.59-5.32-1.48-.06-.06-.07-.14-.07-.22s.03-.17.04-.26h0c1.76-.24,14.79.16,15.88,1.11l-.07.17-.18.05c-1.33.18-3.52.4-4.84.45-1.06.31-4.32.23-5.44.18h0ZM1843.61,1002.89c-2.2,7.2-4.65,9.14-10.03,13.6h0c-1.23.82-2.78,2.25-4.12,3.13-2.05,1.36-5.43,3.47-7.56,4.47-7.24,3.37-25.63,10.65-33.45,9.31,3.73-.99,8.54-1.23,12.49-2.24,7.09-1.81,13.9-4.48,20.37-7.93,1.87-1,3.46-2.28,5.21-3.38,3.29-2.06,5.88-3.92,8.86-6.38v-.02h.01c.19.17.54.39.75.54h0c1.22-1.08,1.77-1.58,2.73-2.87-.24-.26-.25-.25-.4-.57h0c.46-.68.93-1.29,1.38-1.98.61-.92,1.23-2.05,1.87-2.93h0c.26-.58,1.07-2.28,1.1-2.79l-.52.46c.02-.2.44-1.43.52-1.57.47-.83,1.19-4.38,1.77-4.85.46.82-.67,4.97-.98,6h0ZM1845.5,989.26c-.26,2.59-2.72,11.04-4.58,12.58.28-.87,1.06-2.23,1.3-2.93.31-.89,2.29-7.33,1.94-7.81-.14.39-.55.78-.85,1.05,0,0,1.96-5.08,2.15-5.64h0c.1.61.1.98.1,1.59,0,.39-.03.78-.06,1.16ZM1845.57,988.1c0-.61,0-.98-.1-1.59l-.08-.05c0-.13.26-1.05.31-1.4-.08-.27-.15-.5-.37-.67-1.06.24-1,1.15-1.29,2.03-.02-.1.24-1.85.28-2.05l.07.26c.06,0,.11-.03.16-.08-.04.04-.09.07-.14.07l-.07-.26.07-.81c-.98,1.2-2.5,4.57-3.51,5.19l-.13-.09c-.13-1.6,2.06-4.96,2.62-6.63.47-1.4.58-2.3.82-3.76-.05-.3-.14-.55,0-.82.96.83,1.14,4.01,1.42,5.02h0c.27,1.15.15,4.49-.04,5.63h-.02Z"/>
  <path class="st50" d="M1745.63,922.62c1.06-.42,2.07-.86,3.15-1.21,1.26.69,4.9,3.69,5.74,4.82,3.07-1.43,5.21-1.43,8.25-4.01-.37-1.76-1.92-3.19-2.53-5.37l.08-.06c1.04-.8,2.95-1.68,3.55-2.16.46-.38,3.7-2.59,4.53-2.99.06-.03.1-.05.14-.06.88-.76,1.7-1.39,2.68-2h.03c.26-.04.23-.04.51-.16l-.32-.55c.11-.47.36-.51.2-1.01-.73-.12-.89-.12-1.23-.79-1.63,1.3-3.06,2.2-4.76,3.33-8.21,5.5-17.61,9.06-26.98,12.03-.42.13-.96.31-1.54.5l-8.32,4.72v.12c1.97-.58,3.94-1.11,5.91-1.68,3.65-1.05,7.37-2.07,10.9-3.46h0ZM1755.43,921.04c.37.37.68.74,1.19.49.22-.36.16-.72.16-1.16h-.02.02s0,0,0,.01c1.55.55,2.71,1.19,4.1,2.01-1.29.82-2.28,1.27-3.66,1.86-.8.29-1.19.42-2.01.59-.3-.92-.53-2.23-.71-3.2.3-.18.63-.4.93-.59h0Z"/>
  <path class="st48" d="M1730.61,943.97h0s0,0,0,.01c-.59-1.12-1.19-2.31-1.8-3.5v3.13c1.39,2.71,2.8,5.4,4.74,7.83.53.67.75,1.48,1.47,2.02-.34-.98-.98-2.1-1.4-3.07-.58-1.37-1.14-2.74-1.74-4.1-.39-.48-.74-1.16-.59-1.77v-.02c-.19-.35-.21-.42-.58-.33l-.08-.18h0c.04-.19.07-.37.09-.56l.29-.12h0l-.3.12c-.02.19-.04.37-.09.55h-.01Z"/>
  <path class="st48" d="M1730.62,943.97h0l.08.19c.37-.09.39-.02.59.33,0,0,0,.01.01.02l.14-.43c-.06-.16-.33-.62-.42-.79h-.02l-.29.13c-.02.19-.05.37-.09.55h0Z"/>
  <path class="st44" d="M1777.19,908.28c1.32,1.31,2.84,2.51,4.15,3.83,3.81,3.92,7.45,8.04,10.91,12.27.35.42,2.11,2.52,2.26,2.9.93.92,4.62,5.97,5.24,7.15,1.01,1.42,1.48,2.49,2.04,4.13h0s.24-.01.24-.01c-.45-4.4-7.91-13.01-10.83-16.47-3.08-3.66-7.1-8.37-10.49-11.68-2.62-2.56-5.38-5.07-8.24-7.5l-.68.38c1.84,1.61,3.65,3.27,5.4,5h0Z"/>
  <path class="st50" d="M1734.66,951.8c.38.77,1.69,3.03,1.57,3.85,0,0,0,.01.01.02.11.38.96.91,1.21,1.29,1.95,2.89,3.58,6.04,5.19,9.11.78.09,1.52.1,2.3.12-.64-1.08-1.27-1.76-2.05-2.74-3.82-4.82-6.87-10.35-9.66-15.83l-.68-.31c.69,1.5,1.4,3,2.11,4.49h0Z"/>
  <path class="st41" d="M1734.66,951.8c.38.77,1.69,3.03,1.57,3.85,0,0,0,.01.01.02.11.38.96.91,1.21,1.29,1.95,2.89,3.58,6.04,5.19,9.11.78.09,1.52.1,2.3.12-.64-1.08-1.27-1.76-2.05-2.74-3.82-4.82-6.87-10.35-9.66-15.83l-.68-.31c.69,1.5,1.4,3,2.11,4.49h0Z"/>
  <path class="st40" d="M1732.55,947.31c.01-.44-.25-.87-.66-1.03h0c.6,1.37,1.15,2.74,1.74,4.11.41.97,1.05,2.09,1.4,3.07.38.69.86,1.51,1.2,2.22v-.03c.12-.82-1.19-3.08-1.57-3.85-.71-1.49-1.42-2.99-2.11-4.49h0Z"/>
  <path class="st50" d="M1730.6,943.96c.04-.18.07-.35.09-.54l.31-.13h0c-.4-.85-1.27-2.69-2.2-4.52v1.66c.6,1.19,1.2,2.39,1.8,3.51v.02Z"/>
  <path class="st4" d="M1730.6,943.96c.04-.18.07-.35.09-.54l.31-.13h0c-.4-.85-1.27-2.69-2.2-4.52v1.66c.6,1.19,1.2,2.39,1.8,3.51v.02Z"/>
  <path class="st48" d="M1730.69,943.42c-.02.18-.05.36-.09.54h0c.05-.17.07-.35.09-.54l.3-.13h0l-.31.13h.01Z"/>
  <path class="st3" d="M1730.69,943.42c-.02.18-.05.36-.09.54h0c.05-.17.07-.35.09-.54l.3-.13h0l-.31.13h.01Z"/>
  <path class="st12" d="M1799.4,934.33s.31.1.34.1c-.61-1.18-4.3-6.23-5.24-7.15h0c.33,1.2,2.63,3.05,2.43,3.71-.44-.16-1.22-1.73-1.7-2.18l-.06.1c.46.87,3.27,4.82,4.23,5.42h0Z"/>
  <path class="st47" d="M1731.89,946.28c.41.16.67.59.66,1.03l.68.31c-.55-1.21-1.18-2.37-1.79-3.54h0l-.14.43c-.15.62.2,1.3.59,1.77h0Z"/>
  <path class="st47" d="M1771.39,903.86c-.08-.08-.15-.15-.23-.22l-.12.07c.15.08.28.14.35.16h0Z"/>
  <path class="st47" d="M1801.79,938.56c0,.63-.03,2.07.09,2.61.41-.54.22-1.93.15-2.62h-.24Z"/>
  <polygon class="st12" points="1772.36 904.93 1772.35 904.93 1772.35 904.93 1772.36 904.93 1772.36 904.93"/>
  <path class="st12" d="M1768.56,911.6c.88-.76,1.7-1.39,2.68-2h-.02.02-.03c-.98.61-1.8,1.24-2.68,2h.01s0,.01.01.02v-.02Z"/>
  <path class="st12" d="M1771.64,907.86c.16.5-.09.54-.2,1.01l.32.55c-.28.12-.26.12-.51.16h0c.26-.04.23-.04.52-.16l-.32-.55c.11-.47.36-.51.2-1.01-.73-.12-.89-.12-1.23-.8h0c.34.67.5.67,1.23.79h-.01Z"/>
  <path class="st12" d="M1794.12,932.08c-1.21-1.3-6.85-8.52-7.91-8.45l-.31.4h-.18c-.69-.28-1.58-1.02-2.17-1.49-3.89-3.14-8.1-5.84-12.1-8.83-.72-.54-1.49-1.11-2.26-1.58h-.02c-.27.35-.39.57-.62.98,1.23.2,3.45,2.04,4.55,2.82l6.04,4.25c2.95,2.1,6.33,4.05,8.79,6.7.93,1,2.75,2.8,3.44,3.95-.25.08-.3,0-.6-.15-.1.37-.21,1.06-.28,1.46-.23-.15-1.22-.77-1.4-.83-1.03-.32-2.02-.38-3.02-.9-1.8-.95-3.42-2.18-5.27-3.07-.28-.14-1.02-.51-1.31-.57-2.43-.54-2.2.53-4.74-.62-.41.41-.66.68-1.21.87-.78.27-1.64.21-2.37-.16-.65-.32-1.5-1.16-.93-1.89.66-.86,2.29-.37,3.28-.5l.05-.18-.17-.23c-.21-.67-.66-1.25-1.07-1.83-.02-.21.02-.11-.17-.28-.99-1.45-2.62-2.71-4.09-3.64-1.06-.57-3.09-1.74-3.95-2.61-.21-.21-.15-.4-.1-.62.34-.29.23-.2.75-.25h-.01c.88.08,1.47-.92,2.41-.92-.94,0-1.53,1-2.42.91-.42-.04-.48-.04-.86-.19h0c.46-.38,3.65-2.56,4.51-2.98-.83.4-4.07,2.6-4.53,2.99-.6.48-2.51,1.36-3.55,2.16l-.08.06c.61,2.18,2.16,3.61,2.53,5.37-3.04,2.58-5.18,2.58-8.25,4.01-.84-1.13-4.48-4.13-5.74-4.82-1.08.35-2.09.79-3.15,1.21-3.53,1.39-7.25,2.41-10.9,3.46-1.97.57-3.94,1.1-5.91,1.68v5.2c.32.64.65,1.27.97,1.9,1.12,2.23,2.27,4.44,3.46,6.63,1.81,3.34,3.58,6.63,5.13,10.11.58,1.3.79,2.79,1.58,4,1.15,1.71,3.03,3.42,4.83,4.41,1.01.02,2.53-.01,3.51-.27,7.01-1.84,13.9-4.01,20.66-6.66,3.37-1.32,6.33-2.48,9.41-4.43.65-.41,2.37-1.16,2.84-1.62,1.22-.64,3.74-1.78,4.81-2.46,1.34-.85,3.33-3.08,4.76-4.26,2.08-1.72,4.8-3.02,6.5-5.03.2-.24.25-.46.23-.71.02.25-.03.47-.23.71-1.7,2.01-4.42,3.31-6.5,5.03-1.43,1.18-3.42,3.41-4.76,4.26-1.07.68-3.59,1.82-4.81,2.46.18-1.55,3.78-2.85,5.03-3.64-.41-.37-.81-.72-1.2-1.11-1.46.91-10.3,6.17-11.35,6.19h0c-.32-.18-.38,0-.64-.34.69-.77,4.23-2.36,5.38-3.05,3.87-2.32,7.62-4.81,11.44-7.22.62-.39,2.51-1.82,3.08-1.79.31.17.32.29.46.62-4.5,2.58-8.92,5.3-13.36,7.99-.82.49-6.17,3.38-6.36,3.77h0c.27-.41,5.55-3.25,6.35-3.75,4.44-2.69,8.86-5.41,13.36-7.99,2.33-1.02,1.81.21,4.06-2.39h0c-.6-.81-1.13-1.77-1.69-2.49l-.06.05c-.38-.2-1.17.08-1.6.2h.01ZM1773.38,924.06c-.45-.31-1.05-1.27-1.07-1.83.4.58.86,1.16,1.07,1.83ZM1745.77,957.7h-.05c-.46.15-.92.18-1.42.22-.54.07-.89.17-1.42.06v-.11c.52-.25.99-.23,1.57-.27h0c.33-.04.85-.04,1.19-.05l.08.15c.06-.02.12-.03.18-.06l-.15.06h.02ZM1768.18,918.58c-.04-.09-.08-.18-.12-.28,1.47.93,3.1,2.19,4.09,3.64-.46-.1-3.11-2.98-3.97-3.36Z"/>
  <polygon class="st12" points="1772.33 904.93 1772.33 904.94 1772.34 904.93 1772.33 904.93"/>
  <path class="st50" d="M1783.48,925.36c-2.04-1.43-4.3-3.08-6.36-4.51-3.31-2.3-6.37-4.35-9.53-6.88h0c-.15-.05-.29-.07-.42-.07-.94,0-1.53,1-2.41.91h.01c-.52.06-.41-.03-.75.26-.05.22-.11.41.1.62.86.87,2.89,2.04,3.95,2.61,1.47.93,3.1,2.19,4.09,3.64.19.17.15.07.17.28.41.58.86,1.16,1.07,1.83l.17.23-.05.18c-.99.13-2.62-.36-3.28.5-.57.73.28,1.57.93,1.89.73.37,1.59.43,2.37.16.55-.19.8-.46,1.21-.87,2.54,1.15,2.31.08,4.74.62.29.06,1.03.43,1.31.57,1.85.89,3.47,2.12,5.27,3.07,1,.52,1.99.58,3.02.9.18.06,1.17.68,1.4.83.07-.4.18-1.09.28-1.46h0c-.64-.79-6.09-4.48-7.28-5.31h0Z"/>
  <path class="st49" d="M1771.24,909.6h-.02.02Z"/>
  <polygon class="st49" points="1785.72 924.03 1785.72 924.03 1785.72 924.03 1785.72 924.03"/>
  <path class="st49" d="M1772.36,904.93h0c-.08.67-1.37,1.53-1.92,2.12,0,0-.01,0-.02.01.34.68.5.68,1.23.8.16.5-.09.54-.2,1.01l.32.55c-.29.12-.25.12-.52.16,1.65.37,14.2,13.24,14.48,14.45h.16l.31-.4c1.06-.07,6.7,7.15,7.91,8.45.43-.12,1.22-.4,1.6-.2l.06-.05c-.56-1.04-2.93-4.51-3.68-5.29h0l-.32-.07c-1.34-1.12-2.32-2.5-3.5-3.76-.7-.69-1.54-1.27-2.21-1.99-3.71-3.99-7.39-8-11.29-11.8-.4-.4-.86-.87-.54-1.44l.22-.03c.55.17.72.36,1.16.72h0c-.2-.72-.77-1.02-1.23-1.66l.08-.04.04-.3c-.39-.36-1.46-1.42-1.96-1.45l-.19.2h0ZM1773.09,907.93c-.3.39-1.17,1.28-1.3,1.48l-.32-.55h0c.65-.32,1.01-.54,1.62-.93Z"/>
  <line class="st2" x1="1792.11" y1="926.54" x2="1792.11" y2="926.54"/>
  <path class="st40" d="M1774.46,907.45l-.22.03c-.32.57.14,1.04.54,1.44,3.9,3.8,7.58,7.81,11.29,11.8.67.72,1.51,1.3,2.21,1.99,1.18,1.26,2.16,2.64,3.5,3.76l.32.07h.01l-.02-.02c-1.98-2.46-3.98-5.06-6.06-7.43-3.32-3.79-6.95-7.29-10.41-10.92h0c-.44-.36-.61-.55-1.16-.72h0Z"/>
  <polygon class="st12" points="1771.47 908.86 1771.47 908.86 1771.47 908.86 1771.47 908.86"/>
  <path class="st12" d="M1771.79,909.41c.13-.2,1-1.09,1.3-1.48-.61.39-.97.61-1.62.93l.32.55Z"/>
  <path class="st12" d="M1767.59,913.97h0c3.16,2.53,6.22,4.57,9.53,6.88,2.06,1.43,4.32,3.09,6.36,4.51,1.19.83,6.64,4.52,7.28,5.31h0c.3.14.35.22.6.15-.69-1.15-2.51-2.95-3.44-3.95-2.46-2.65-5.84-4.6-8.79-6.7l-6.04-4.25c-1.1-.78-3.32-2.62-4.55-2.82-.44.28-.61.5-.96.87h.01Z"/>
  <path class="st6" d="M1767.59,913.97h0c3.16,2.53,6.22,4.57,9.53,6.88,2.06,1.43,4.32,3.09,6.36,4.51,1.19.83,6.64,4.52,7.28,5.31h0c.3.14.35.22.6.15-.69-1.15-2.51-2.95-3.44-3.95-2.46-2.65-5.84-4.6-8.79-6.7l-6.04-4.25c-1.1-.78-3.32-2.62-4.55-2.82-.44.28-.61.5-.96.87h.01Z"/>
  <path class="st50" d="M1783.49,925.36c-2.04-1.42-4.3-3.08-6.36-4.51-3.31-2.31-6.37-4.35-9.53-6.88h0c3.16,2.53,6.22,4.58,9.53,6.88,2.06,1.43,4.32,3.08,6.36,4.51,1.19.83,6.64,4.52,7.28,5.31h0c-.64-.79-6.09-4.48-7.28-5.31Z"/>
  <path class="st11" d="M1783.49,925.36c-2.04-1.42-4.3-3.08-6.36-4.51-3.31-2.31-6.37-4.35-9.53-6.88h0c3.16,2.53,6.22,4.58,9.53,6.88,2.06,1.43,4.32,3.08,6.36,4.51,1.19.83,6.64,4.52,7.28,5.31h0c-.64-.79-6.09-4.48-7.28-5.31Z"/>
  <path class="st40" d="M1771.24,909.58h0v.02h0c-.98.61-1.8,1.24-2.68,2,.31.38.21.39.62.51h0s.01.01.02.01c.77.47,1.54,1.04,2.26,1.58,4,2.99,8.21,5.69,12.1,8.83.58.47,1.48,1.21,2.17,1.49h.02c-.28-1.2-12.83-14.08-14.48-14.45h-.03Z"/>
  <polygon class="st40" points="1771.24 909.58 1771.24 909.58 1771.24 909.58 1771.24 909.58"/>
  <path class="st47" d="M1793.41,936.71c-4.5,2.58-8.92,5.3-13.36,7.99-.8.5-6.08,3.34-6.35,3.76h0c1.05-.01,9.89-5.27,11.35-6.18.39.39.79.74,1.2,1.11-1.25.79-4.85,2.09-5.03,3.64,1.22-.64,3.74-1.78,4.81-2.46,1.34-.85,3.33-3.08,4.76-4.26,2.08-1.72,4.8-3.02,6.5-5.03.2-.24.25-.46.23-.71,0-.08-.02-.17-.04-.26h0c-2.25,2.61-1.73,1.38-4.06,2.4h0Z"/>
  <path class="st42" d="M1773.7,948.46h0c.19-.4,5.54-3.29,6.36-3.78,4.44-2.69,8.86-5.41,13.36-7.99-.14-.33-.15-.45-.46-.62-.57-.03-2.46,1.4-3.08,1.79-3.82,2.41-7.57,4.9-11.44,7.22-1.15.69-4.69,2.28-5.38,3.05.26.34.32.16.64.33h0Z"/>
  <path class="st42" d="M1768.56,911.6s0-.01-.01-.02h-.01s-.08.03-.14.06c-.86.42-4.05,2.59-4.51,2.98h0c.38.15.44.15.86.19.89.09,1.48-.91,2.42-.91.13,0,.27.02.42.07h0c.35-.37.52-.59.96-.87.23-.4.35-.63.62-.98h0c-.4-.14-.31-.14-.62-.52h.01Z"/>
  <path class="st40" d="M1768.06,918.3c.04.1.08.19.12.28.86.38,3.51,3.26,3.97,3.36-.99-1.45-2.62-2.71-4.09-3.64Z"/>
  <path class="st44" d="M1773.38,924.06c-.21-.67-.67-1.25-1.07-1.83.02.56.62,1.52,1.07,1.83Z"/>
  <line class="st1" x1="1745.77" y1="957.7" x2="1745.75" y2="957.7"/>
  <path class="st48" d="M1744.45,957.61h0c-.58.03-1.05.01-1.57.26v.11c.53.11.88.01,1.42-.06.5-.04.96-.07,1.42-.22l-.08-.15c-.34.01-.86.01-1.19.06h0Z"/>
  <path class="st48" d="M1745.72,957.7h.03l.15-.06c-.06.03-.12.04-.18.06Z"/>
  <path class="st0" d="M1735.4,962.23c-.45-.21-.83-.35-1.05-.82-1.26-2.65-2.1-5.57-3.38-8.21-.73-1.51-1.45-3.02-2.18-4.53v.02c.72,1.51,1.44,3.01,2.17,4.51,1.28,2.64,2.12,5.56,3.38,8.21.22.47.6.61,1.05.82.24.13.14.12.4.12,0-1.02-2.13-5.76-2.64-6.9-1.38-3.17-2.84-6.31-4.35-9.43v1.14c3.39,6.77,6.11,12.88,6.6,15.07Z"/>
  <path class="st46" d="M1734.35,961.41c.22.47.6.61,1.05.82-.49-2.19-3.22-8.3-6.61-15.07v1.51c.72,1.51,1.45,3.02,2.18,4.53,1.28,2.64,2.12,5.56,3.38,8.21h0Z"/>
  <path class="st50" d="M1753.35,1013.31c-.41-2.61-2.99-4.9-4.49-7.08-.75-1.09-1.55-2.45-2.28-3.47h-.01s0,.01-.01.02c.73,1.02,1.52,2.36,2.26,3.45,1.5,2.19,4.07,4.48,4.49,7.07h.04Z"/>
  <path class="st50" d="M1749.58,1006.44c-.8-1.35-1.72-2.14-2.53-3.91.81,1.78,1.73,2.56,2.53,3.91Z"/>
  <path class="st50" d="M1756.11,1023.56v-1.52h-.01v1.52h.01Z"/>
  <path class="st50" d="M1745.21,1010.06l.52-.34c.12-.64.14-1.49.19-2.16.11-1.2.36-2.38.75-3.53h0c-.39,1.15-.64,2.34-.75,3.54-.05.67-.07,1.52-.19,2.16l-.52.34h0Z"/>
  <path class="st50" d="M1761.72,1026.75v-.02c.5-2.21.65-3.59.65-5.88-.82-.47-2.72-1.54-3.31-2.24.33.12.33.16.65.11-.13-.34-1.07-1.2-1.38-1.52.24,0,1.08.86,1.37,1.07.86.65,1.76,1.24,2.63,1.88-.15-3.01-.73-5.98-1.72-8.83l-.14-.3c-.23-1.22-2.59-6.28-3.58-6.7l-.22-.27c0-.35-.75-1.06-1.03-1.34-.03.91-.01,2.78-.3,3.55-.18-.44.13-3.15.17-3.81-.98-.82-3.38-2.74-4.76-2.42-.17.91.5,3.06.78,3.95l.13.08c1.5.92,1.4,2.68,2.41,4.32-.27.26-.11.19-.48.22-.35-.17-.35-.16-.66-.44h-.21c-.41-.53-.4-1.37-.88-2.16-.41-.71-1.24-4.97-1.37-5.98-.46.05-.58.04-1.01.2l.07.13h0c.14.06.3.09.3.24-.03,3.31-.4,4.87,1.65,7.7-.69-.58-1.15-1.01-1.78-1.65.13.66,1.48,2.3,2.01,2.78l.18.03.2-.2c.23.17.17.06.24.32-.19.14-.22.11-.31.32.7,1.08,1.47,2.12,1.55,3.43h-.01c.22.33.36.36.71.53-.11.54-.59.68-.61,1.18.12.14.34.17.57.15.23-.03.47-.11.63-.2l.15-.04v-.02l-.13.04h0c-.13-.59-.27-1.03.35-1.35l.2.1c.14.33.06.52-.01.87l-.13-.26-.14.04v.02l.14-.04h0l.13.26-.03.74-.18.02c-.95.11-1.01,0-1.79.85-.18.19-.41.39-.62.55h0c-.02.65-.15,1.47-.36,2.08-.28.27-1.21.99-1.27,1.21v.04h0s0,.01.01,0h0c.06.11.14.24.22.37.47.75,1.17,1.86,1.32,2.48.04.19.01.15.06.2.4-1.51,1.69-5.06,1.8-6.37-.16-.18-.13-.13-.25-.35.24-.06.39-.11.63-.18.27-.23.26-.35.34-.69l.07-.16.02.02h0c.32.45.73,1.59.8,2.13l.61-.08c.14.19.1.09.14.28.37.52,1.06,1.16,1.07,1.73l-.17.23-.18.17v.48c-.21-.11-.32-.18-.53-.31-.05-.22-.08-.44-.09-.67l-.17-.25c-.1.97.27,1.7.33,2.64.04.54-.34.83-.18,1.55l-.21-.02c-.35-.44-.03-1.57-.35-2.02-.21.2-.26.46-.36.74h0c.09-.27.14-.52.35-.72.32.45,0,1.59.35,2.02l.21.02c.2.77-.17,5.39-.13,6.69-.82.81-1.43.05-2.27.12-.84-.37-2.66-1.94-3.28-2.63h-.01c-.97-.94-1.72-2.23-2.4-3.37h0c.68,1.15,1.43,2.44,2.4,3.37.62.69,2.44,2.26,3.28,2.63h.01c.83-.05,1.44.69,2.26-.11.27,0,.21,0,.47-.09.18-.31.19-.44.28-.79h.01c.28-1.22.21-2.75.19-4.02.95,1.99.38,2.12.75,3.47.48-.33,1.35-1.11,1.82-.46,0,.58-.37.92-.73,1.39-.32.48-1.23.74-1.79.64.56.1,1.47-.15,1.79-.64l.17.08.31-.18c.08.3.06.65.16.88h0c-.1-.24-.08-.58-.16-.89.48-.88,1.05-1.77,1.56-2.67h.02ZM1751.84,1006h0c.48.79.47,1.64.88,2.17.05.33.11.28,0,.49l-.15-.09c-.39-.9-.55-1.62-.73-2.57h0ZM1753.14,1010.87l-.07-.14c-.25-.51-.28-.59-.4-1.16.43.3,1.55,1.98,1.47,2.54-.5-.47-.71-.63-1-1.24ZM1755.11,1011.84c-.36-.65-.09-4.48.2-5.24.13.43-.15,4.48-.2,5.24ZM1756.82,1011.55c-.3.02-.52-.16-.79-.31-.05-.19.61-6.22.64-7.16h0l.22.26c-.01.87.15,6.91-.07,7.21h0ZM1759.75,1017.57c-.31-.17-1.08-.75-1.29-1.04-.39-.55-.27-.68-.17-1.27h0c1.46.43,1.73.88,1.46,2.31h0ZM1760.76,1013.97c-.12.37-.16.39-.38.69-.14.16-.26.31-.4.47-.36.06-.2.09-.5-.11-.31-.59-.23-1.23-.19-1.88h.01c.6.04,1.28.2,1.46.83ZM1757,1012.97h0c.82-.56,2.55-1.57,3.46-1.94l.14.3c-.57.76-1.26,1.67-2.13,1.84-.55.11-.42.58-.72,1.22l-.13.04c-.22-.48-.43-.97-.63-1.46h.01ZM1757.38,1016.64l.13-.07c.47.08.63.31.82.71-.36-.2-.72-.33-.95-.64ZM1757.67,1019.87l.17-.17h0c.84,1.26,1.51,2.67,2.47,3.91,1.25,1.61,1.46,1.91.67,3.78-.1-.08-.32-.21-.36-.33-.63-1.76-1.31-3.44-2.19-5.1-.27-.51-.52-1.08-.76-1.61v-.48h0ZM1757.13,1020.07v-.02h0c.21.13.32.2.54.31.24.53.49,1.1.76,1.61.88,1.65,1.56,3.34,2.19,5.1.04.12.26.25.36.33l-.18.34-.16.03c-.54-.83-3.22-6.69-3.51-7.7h0Z"/>
  <polygon class="st50" points="1745.2 1010.06 1745.2 1010.08 1745.2 1010.07 1745.2 1010.06"/>
  <path class="st50" d="M1756.13,1028.88h0s.01-.01.01-.01c0-.5,0-1.01-.01-1.52v1.53h0Z"/>
  <polygon class="st50" points="1747.81 1021.57 1747.81 1021.58 1747.81 1021.57 1747.81 1021.57"/>
  <path class="st50" d="M1752.05,1026.57h.01c.04-.71,2.27-7.69,2.64-8.49l.22-.02c.41.21.55.43.85.79h0c-.31-.38-.44-.6-.86-.81l-.22.02c-.37.8-2.6,7.77-2.64,8.49l-.29.19v.02h0l.29-.19h0Z"/>
  <polygon class="st50" points="1751.81 1027.52 1751.81 1027.53 1751.81 1027.53 1751.81 1027.52 1751.81 1027.52"/>
  <polygon class="st50" points="1751.82 1027.53 1751.82 1027.52 1751.81 1027.53 1751.82 1027.53"/>
  <path class="st50" d="M1749.45,1000.39c-1.62.79-1.33.78-2.41,2.06,1.08-1.27.79-1.27,2.41-2.06Z"/>
  <path class="st50" d="M1758.16,1028.94c.25-.12.23-.13.42-.34h0c-.19.21-.17.22-.42.34l-.52.2h0l.52-.2h0Z"/>
  <path class="st50" d="M1748.02,1020.19l.19-.28c1.47-1.31,3.89-3.45,5.16-4.85-1.29-.8-3.02-1.56-4.46-2.4v.28h-.01v.02h0c.13,1.91.46,3.33.96,5.16-.28.22-.56.43-.82.68l-.61-.85c0,.42.34.88.18,1.15-.19.35-.35.34-.39.8l-.19.28-.09.25-.06-.15-.14-.03-.33.39-.15-.1c-1.13-3.32-2.04-6.33-2.11-9.89h.02l.06-.57h-.01v.03l-.06.57c.07,3.56.98,6.57,2.11,9.89l.15.1.33-.39.14.03.06.15.26.35h0l-.26-.35.09-.25-.02-.02Z"/>
  <path class="st50" d="M1754.87,1014.98l.15-.04c.03-.27.05-.29.13-.56l.13-.04h0l-.14.04c-.07.25-.1.27-.12.54h0v.02l-.15.04c-.15.08-.39.17-.63.2.24-.03.48-.11.64-.2h-.01Z"/>
  <polygon class="st50" points="1745.21 1010.06 1745.21 1010.06 1745.21 1010.06 1745.21 1010.06"/>
  <path class="st50" d="M1750.1,1012.76h.02c-.26-.23-.34-.25-.46-.58h-.01c.13.31.2.35.45.57h0Z"/>
  <path class="st48" d="M1745.14,1010.64c.07,3.56.98,6.57,2.11,9.89l.15.1.33-.39.14.03.06.15.09-.25.19-.28c.04-.46.2-.45.39-.8.16-.28-.18-.74-.18-1.15v-.02c-.05-.7-.57-2.83-.75-3.74,0,.05-.01.03-.08.16-.23-.3-.44-1.67-.67-2.29-.42-.29-.85-.61-1.26-.92-.14-.08-.23-.31-.32-.48h-.19s0-.01,0-.01Z"/>
  <path class="st50" d="M1745.66,1011.13c.41.31.84.63,1.26.92.23.62.44,1.99.67,2.29.07-.13.08-.1.08-.16v-.04c.04-.38-.01-.27.16-.58l.25.15c.16-.39-.14-.71-.07-1.19h0l-.03-.44c-.89-.47-1.73-1.03-2.64-1.43.1.17.19.4.32.48Z"/>
  <path class="st42" d="M1745.73,1009.72l-.52.34c.93.71,3.76,2.22,4.89,2.7-.25-.22-.32-.26-.45-.57-.13-.13-.71-.45-.91-.56-.61-1.64-.53-3.3.05-4.93-.69-.93-1.39-1.78-2.12-2.68h0c-.39,1.15-.64,2.33-.75,3.53-.05.67-.07,1.52-.19,2.16h0Z"/>
  <polygon class="st42" points="1745.22 1010.08 1745.22 1010.07 1745.21 1010.06 1745.21 1010.06 1745.21 1010.06 1745.2 1010.06 1745.2 1010.06 1745.2 1010.06 1745.2 1010.07 1745.22 1010.08"/>
  <path class="st49" d="M1748.19,1020.75h0s.17-.12.17-.12v.02c.23-.31,3.98-3.58,4.43-3.91v.02h0c.21-.16.44-.36.62-.55.78-.85.84-.74,1.79-.85l.18-.02.03-.74-.13-.26h0l-.13.04c-.08.27-.1.29-.13.56l-.15.04c-.16.09-.4.17-.64.2-.23.03-.45,0-.57-.15.02-.5.5-.64.61-1.18-.36-.17-.5-.2-.71-.53h-.25l-1.55-.51c-.55.45.06.06-.19.59-.42-.04-1.03-.41-1.43-.62h-.01c-.26-.23-.34-.25-.46-.58h-.01c.12.33.2.35.46.58h-.02c-1.13-.48-3.96-1.99-4.89-2.7h0s-.06.58-.06.58h.17c.92.41,1.75.97,2.64,1.44l.03.45h0c.08.03.18.07.27.11-.09-.03-.18-.07-.26-.1l-.03-.45h-.01.01c.33.18.64.31.92.57v.02c1.44.85,3.17,1.61,4.46,2.4-1.27,1.4-3.69,3.54-5.16,4.85l-.19.28-.09.25.26.35h0v-.04l.02-.04Z"/>
  <path class="st49" d="M1748.89,1012.94h0v-.02c-.11-.07-.24-.14-.38-.19.13.06.26.12.37.2h.01Z"/>
  <path class="st42" d="M1750.13,1012.77h.01c.4.21,1.01.58,1.43.62.25-.53-.37-.14.19-.59h0c-.72-.2-1.38-.38-2.09-.61h0c.12.33.2.35.46.58Z"/>
  <path class="st12" d="M1748.9,1012.94h.01v-.3c-.28-.26-.59-.39-.92-.56l.03.45c.08.03.17.07.26.1.09.03.16.07.25.11.13.06.27.12.38.19h-.01Z"/>
  <polygon class="st12" points="1747.98 1012.07 1747.99 1012.08 1747.99 1012.07 1747.98 1012.07"/>
  <path class="st48" d="M1747.67,1014.15v.03c.18.9.7,3.04.74,3.74v.02h0c-.04-.71-.58-2.9-.75-3.78h.01Z"/>
  <path class="st10" d="M1747.67,1014.15v.03c.18.9.7,3.04.74,3.74v.02h0c-.04-.71-.58-2.9-.75-3.78h.01Z"/>
  <path class="st50" d="M1748.07,1013.71l-.25-.15c-.17.31-.12.2-.16.58v.04-.03c.17.88.71,3.07.75,3.78h0l.61.85c.26-.25.54-.46.82-.68-.5-1.84-.83-3.26-.96-5.16-.25-.17-.6-.29-.88-.41h0v-.02c-.07.48.23.8.07,1.19h0Z"/>
  <path class="st7" d="M1748.07,1013.71l-.25-.15c-.17.31-.12.2-.16.58v.04-.03c.17.88.71,3.07.75,3.78h0l.61.85c.26-.25.54-.46.82-.68-.5-1.84-.83-3.26-.96-5.16-.25-.17-.6-.29-.88-.41h0v-.02c-.07.48.23.8.07,1.19h0Z"/>
  <path class="st49" d="M1748.89,1012.95h0c-.1-.08-.23-.14-.37-.2-.09-.04-.16-.07-.25-.11s-.18-.07-.27-.1h0c.28.13.63.25.88.42h.01Z"/>
  <path class="st9" d="M1748.89,1012.95h0c-.1-.08-.23-.14-.37-.2-.09-.04-.16-.07-.25-.11s-.18-.07-.27-.1h0c.28.13.63.25.88.42h.01Z"/>
  <path class="st12" d="M1748.27,1012.64c.09.03.16.07.25.11-.08-.04-.16-.07-.25-.11Z"/>
  <path class="st8" d="M1748.27,1012.64c.09.03.16.07.25.11-.08-.04-.16-.07-.25-.11Z"/>
  <path class="st48" d="M1761.99,1015.08c-1.39-5.45-3.56-11.23-8.46-14.43-5.48-3.58-8.31,2.45-8.34,7.06,0,.37-.13,1.06.26,1.19.08-2.41-.02-3.85,1.11-6.12,0,0,0-.01.01-.02h0s.01,0,.01,0c.73,1.02,1.53,2.38,2.28,3.47,1.5,2.18,4.07,4.47,4.49,7.08h.22c-.08-1.31-.85-2.35-1.55-3.43.09-.21.12-.18.31-.32-.07-.26-.01-.15-.24-.32l-.2.2-.18-.03c-.53-.48-1.88-2.12-2.01-2.78h0c-.04-.07-.08-.13-.12-.2-.8-1.35-1.72-2.13-2.53-3.91,0-.02-.02-.04-.03-.06l.02-.02c1.08-1.28.79-1.27,2.41-2.06.03-.01.05-.02.08-.04h0l-.07-.13c.43-.16.55-.15,1.01-.2.13,1.01.96,5.27,1.37,5.98.48.79.47,1.63.88,2.16h.21c.31.28.31.27.66.44.37-.03.21.04.48-.22-1.01-1.64-.91-3.4-2.41-4.32l-.13-.08c-.28-.89-.95-3.04-.78-3.95,1.38-.32,3.78,1.6,4.76,2.42-.04.66-.35,3.37-.17,3.81.29-.77.27-2.64.3-3.55.28.28,1.03.99,1.03,1.34l.22.27c.99.42,3.35,5.48,3.58,6.7l.14.3c.99,2.85,1.57,5.82,1.72,8.83-.87-.64-1.77-1.23-2.63-1.88-.29-.21-1.13-1.07-1.37-1.07.31.32,1.25,1.18,1.38,1.52-.32.05-.32.01-.65-.11.59.7,2.49,1.77,3.31,2.24,0,2.29-.15,3.67-.66,5.88v.02h.02l.19.36c1.07-4.15,1.08-7.82.08-12.02h0Z"/>
  <polygon class="st42" points="1748.17 1021.05 1747.85 1021.2 1747.85 1021.21 1748.17 1021.05 1748.17 1021.05"/>
  <path class="st42" d="M1752.77,1023.15h0s-.01-.01-.06-.2c-.14-.62-.84-1.73-1.32-2.48.47.75,1.17,1.87,1.32,2.49.04.18.02.15.05.2h.01Z"/>
  <path class="st42" d="M1752.8,1016.74c-.45.33-4.2,3.6-4.43,3.91v-.02l-.17.11h0l.16-.1v.02c.19.67,2.28,4.03,2.81,4.92.44.51.13,1.06.57,1.27h0v-.07h.02v-.04l-.02.02c.03-.25.11-.55.16-.81v-.02c-.05-1.5-1.47-2.82-1.83-4.37h.01c.56.64,1.26,1.44,1.77,2.13.06.08.06.75.05.88.08-.04.14-.08.2-.13-.05.05-.11.09-.19.12,0-.14,0-.81-.05-.88-.51-.7-1.21-1.49-1.77-2.13-.21-.12-.13-.06-.27-.27.47-.38.95-.73,1.35-1.18h0v-.05c.06-.22.99-.94,1.27-1.21.21-.61.34-1.43.36-2.08v-.02h0Z"/>
  <path class="st49" d="M1747.84,1021.23l.33-.16c.33,1.02.54,1.67,1.13,2.56h0c.36.51,1.32,2.01,1.8,2.22l.07-.26c.44.51.13,1.06.57,1.27,0,.1.02.2.03.31,0-.11-.02-.21-.03-.31h0c-.44-.21-.13-.76-.57-1.27-.53-.89-2.62-4.25-2.81-4.92v-.02l-.16.1h0v.04l-.02.26h0l-.32.16h0c-.04.11-.04.23-.03.36h0c-.01-.12,0-.24.03-.34h-.02Z"/>
  <path class="st49" d="M1751.77,1027.24c0,.1.02.2.04.29h0c-.02-.09-.03-.19-.04-.29Z"/>
  <path class="st50" d="M1751.81,1027.53h0l-.48-.02c-.97-.94-1.72-2.22-2.39-3.37h0c.68,1.15,1.43,2.44,2.4,3.38h.01l.47.02h-.01Z"/>
  <path class="st5" d="M1751.81,1027.53h0l-.48-.02c-.97-.94-1.72-2.22-2.39-3.37h0c.68,1.15,1.43,2.44,2.4,3.38h.01l.47.02h-.01Z"/>
  <path class="st49" d="M1751.81,1027.52c-.02-.09-.03-.19-.04-.29v-.06c0-.11-.02-.21-.03-.31-.44-.21-.13-.76-.57-1.27l-.07.26c-.48-.21-1.44-1.71-1.8-2.22h0l-.36.49c.68,1.15,1.43,2.43,2.39,3.37l.48.02h0Z"/>
  <path class="st28" d="M1751.81,1027.52c-.02-.09-.03-.19-.04-.29v-.06c0-.11-.02-.21-.03-.31-.44-.21-.13-.76-.57-1.27l-.07.26c-.48-.21-1.44-1.71-1.8-2.22h0l-.36.49c.68,1.15,1.43,2.43,2.39,3.37l.48.02h0Z"/>
  <path class="st42" d="M1748.93,1024.14l.36-.49h0c-.59-.9-.8-1.55-1.13-2.56l-.33.16c-.04.1-.04.22-.03.34h0c.04.38.26.83.4,1.13.23.48.47.96.72,1.43h.01Z"/>
  <path class="st48" d="M1750.1,1021.55c.56.64,1.26,1.43,1.77,2.13.05.07.05.74.05.88.07-.03.13-.08.19-.12.15-.14.24-.32.42-.5,0-.02.01-.03.02-.05.17-.27.16-.41.23-.73h0c-.04-.06,0-.02-.05-.21-.14-.62-.85-1.74-1.32-2.49-.08-.13-.16-.26-.22-.36h-.01c-.4.44-.88.8-1.35,1.18.14.21.06.15.27.27h0Z"/>
  <path class="st50" d="M1752.52,1023.94c-.18.18-.27.36-.42.5-.06.05-.12.1-.2.13.01-.13.01-.8-.05-.88-.51-.69-1.21-1.49-1.77-2.13h-.01c.36,1.56,1.77,2.87,1.83,4.37.22-.66.42-1.33.62-1.99h0Z"/>
  <path class="st12" d="M1755.77,1020.59c0-.57.02-1.16,0-1.74-.3-.36-.44-.58-.85-.79l-.22.02c-.37.8-2.6,7.78-2.64,8.49l.12.13h0c.14.08.78.45.89.48h.02c.4-.1,1.29.27,1.74.43h.01c-.02-.85-.16-1.81-.21-2.63-.06-.93.04-5.59.83-5.97-.09.68.09.89.31,1.58.19.49.26.9.33,1.43h0v-.02h0c-.07-.52-.14-.92-.33-1.42h0Z"/>
  <path class="st12" d="M1755.86,1028.87h.01s.26.01.26.01v-1.53c0-.51-.01-1.01-.01-1.52v3.04h-.26Z"/>
  <path class="st12" d="M1756.11,1025.07v-3.03h0v3.02h0Z"/>
  <polygon class="st12" points="1752.05 1026.57 1752.05 1026.57 1752.05 1026.57 1752.05 1026.57"/>
  <path class="st50" d="M1756.12,1028.87c-.01-1.01,0-2.02,0-3.04v-.76c0-1.01-.02-2.02,0-3.03h0c-.07-.53-.14-.94-.33-1.43-.22-.69-.4-.9-.31-1.58-.79.38-.89,5.04-.83,5.97.05.82.19,1.78.21,2.62h-.01c-.45-.15-1.35-.52-1.74-.42.71.38,2.32,1.13,2.77,1.68h.26-.02Z"/>
  <path class="st47" d="M1756.11,1022.03h.01v3.8c0,.51,0,1.01.01,1.52,0,.51,0,1.02.01,1.53h0c0,.39.06.54-.1.87-.16-.29-.14-.53-.16-.87h-.01c-.46-.56-2.06-1.31-2.77-1.69h-.02c-.11-.03-.75-.4-.89-.48-.09.33-.12.61-.36.82h0l-.47-.02h0c.62.69,2.44,2.26,3.28,2.63.84-.07,1.45.69,2.27-.12-.04-1.3.33-5.92.13-6.69l-.21-.02c-.35-.43-.03-1.57-.35-2.02-.21.2-.26.45-.35.73h0s-.02.01-.02.01Z"/>
  <polygon class="st47" points="1756.1 1022.04 1756.1 1022.03 1756.1 1022.03 1756.1 1022.04 1756.1 1022.04"/>
  <path class="st12" d="M1751.81,1027.52h0c.24-.21.27-.49.36-.82h0l-.12-.13h-.01l-.29.2h-.02v.08h0c0,.11.02.21.03.32v.06c0,.1.02.2.04.29h.01Z"/>
  <polygon class="st12" points="1756.13 1028.88 1756.14 1028.88 1756.13 1028.87 1756.13 1028.88"/>
  <path class="st12" d="M1755.87,1028.88c.02.34,0,.58.16.87.16-.33.1-.48.1-.87h-.26Z"/>
  <path class="st49" d="M1752.77,1023.16c-.07.32-.06.46-.23.73,0,.02-.01.03-.02.05-.2.67-.4,1.34-.62,1.99v.02c-.05.26-.13.56-.16.81l.02-.02.29-.19c.04-.72,2.27-7.69,2.64-8.49l.22-.02c.42.21.55.43.86.8h0c.02.59,0,1.18,0,1.75.19.5.26.9.33,1.43h0c.1-.29.15-.55.36-.75.32.45,0,1.58.35,2.02l.21.02c-.16-.72.22-1.01.18-1.55-.06-.94-.43-1.67-.33-2.64l.17.25c.01.23.04.45.09.67.21.13.32.2.53.31v-.48l.18-.17.17-.23c0-.57-.7-1.21-1.07-1.73-.1.21-.18.37-.29.57-.38.18-.31.23-.64.16l-.07-.14.11-.32.14-.47h0l-.14.47c-1.52-1.21-.73-1.02-.73-2.44l.07-.16h0l-.02-.02-.07.16c-.08.34-.07.46-.34.69-.24.07-.39.12-.63.18.12.22.09.17.25.35-.11,1.32-1.41,4.86-1.8,6.37h0s-.01.02-.01.02Z"/>
  <path class="st49" d="M1756.05,1018.01l.14-.47c-.07-.54-.48-1.68-.8-2.13l-.07.16c0,1.42-.79,1.23.73,2.44Z"/>
  <path class="st12" d="M1756.05,1018.01l-.11.32.07.14c.33.07.26.02.64-.16.11-.2.19-.36.29-.57-.04-.19,0-.09-.14-.28l-.61.08h0l-.14.47Z"/>
  <path class="st49" d="M1749.83,1000.59c0-.15-.16-.18-.3-.25h0s-.05.04-.08.05c-1.62.79-1.33.79-2.41,2.06l-.02.02s.02.04.03.06c.81,1.77,1.73,2.56,2.53,3.91.04.07.08.13.12.2h0c.63.64,1.09,1.07,1.78,1.65-2.05-2.83-1.68-4.39-1.65-7.7Z"/>
  <path class="st46" d="M1760.62,1027.06c.04.12.26.25.36.33.79-1.87.58-2.17-.67-3.78-.96-1.24-1.63-2.65-2.47-3.9h0l-.17.16v.48c.24.53.49,1.1.76,1.61.88,1.66,1.56,3.34,2.19,5.1h0Z"/>
  <path class="st42" d="M1759.84,1029.61l-.17-.08c-.32.49-1.23.74-1.79.64h0c-.04-.65.33-.35.28-1.23l-.52.2h-.01c-.09.36-.1.49-.28.8-.26.09-.2.09-.47.09-.82.81-1.42.06-2.26.12h-.01c.8.59,1.28.9,2.23,1.23.69.21,1.5.05,2.17-.15.56-.16.93-.49,1.3-.91h0c-.1-.23-.08-.58-.16-.88l-.31.18h0ZM1759.01,1031.22c-.67.2-1.48.36-2.17.15.36-.22,1.77-.35,2.17-.15Z"/>
  <path class="st49" d="M1759.01,1031.22c-.4-.2-1.81-.07-2.17.15.69.21,1.5.05,2.17-.15Z"/>
  <path class="st49" d="M1756.67,1004.07h0c-.03.95-.69,6.98-.64,7.17.27.15.49.33.79.31.22-.3.06-6.34.07-7.21l-.22-.27h0Z"/>
  <path class="st49" d="M1757.75,1014.39c.3-.64.17-1.11.72-1.22.87-.17,1.56-1.08,2.13-1.84l-.14-.3c-.91.37-2.64,1.38-3.46,1.95h-.01c.2.49.41.98.63,1.46l.13-.04h0Z"/>
  <path class="st47" d="M1760.8,1027.74l.18-.34c-.1-.08-.32-.21-.36-.33-.63-1.76-1.31-3.45-2.19-5.1-.27-.51-.52-1.08-.76-1.61-.22-.11-.33-.18-.54-.31h0v.02c.29,1.01,2.97,6.87,3.51,7.7l.16-.03h0Z"/>
  <path class="st47" d="M1758.16,1028.94h0c.05.88-.32.58-.28,1.23h0c.56.1,1.47-.16,1.79-.64.36-.47.73-.81.73-1.39-.47-.65-1.34.13-1.82.46h0c-.19.21-.17.22-.42.34h0Z"/>
  <polygon class="st42" points="1757.64 1029.14 1757.64 1029.14 1757.64 1029.14 1757.64 1029.14"/>
  <path class="st42" d="M1758.58,1028.6c-.37-1.35.2-1.48-.75-3.47.02,1.27.09,2.8-.19,4.01l.52-.2c.25-.12.23-.13.42-.34h0Z"/>
  <polygon class="st49" points="1761.72 1026.73 1761.72 1026.74 1761.73 1026.73 1761.72 1026.73"/>
  <path class="st49" d="M1761.72,1026.75c-.51.9-1.08,1.79-1.56,2.67.08.31.06.65.16.88h0c.84-.93,1.18-2.02,1.6-3.19h0l-.19-.37h-.01Z"/>
  <polygon class="st42" points="1754.88 1014.96 1754.88 1014.96 1754.87 1014.96 1754.88 1014.96"/>
  <polygon class="st42" points="1754.88 1014.96 1754.88 1014.96 1754.88 1014.97 1754.88 1014.96"/>
  <path class="st42" d="M1755.14,1014.38v-.02l.14-.04.13.26c.07-.35.15-.54.01-.87l-.2-.1c-.63.32-.48.76-.35,1.35l.13-.04h0c.03-.27.05-.3.12-.54h.02Z"/>
  <path class="st46" d="M1752.72,1008.17c-.41-.53-.4-1.38-.88-2.17h0c.18.95.34,1.67.73,2.57l.15.09c.11-.21.05-.16,0-.49h0Z"/>
  <path class="st12" d="M1759.3,1013.15h-.01c-.04.64-.12,1.28.19,1.87.3.2.14.17.5.11.14-.16.26-.31.4-.47.22-.3.26-.32.38-.69-.18-.63-.86-.79-1.46-.82Z"/>
  <path class="st42" d="M1758.29,1015.26h0c-.1.59-.22.72.17,1.27.21.29.98.87,1.29,1.04.27-1.43,0-1.88-1.46-2.31h0Z"/>
  <path class="st47" d="M1755.11,1011.84c.05-.76.33-4.81.2-5.24-.29.76-.56,4.59-.2,5.24Z"/>
  <path class="st49" d="M1752.67,1009.57c.12.57.15.65.4,1.16l.07.14c.29.61.5.77,1,1.24.08-.56-1.04-2.24-1.47-2.54Z"/>
  <path class="st12" d="M1757.51,1016.57l-.13.07c.23.31.59.44.95.64-.19-.4-.35-.63-.82-.71Z"/>
  <path class="st12" d="M1768.11,1003.11h.01s0-.01-.01-.02v.02Z"/>
  <path class="st12" d="M1768.03,1001.04s-.02-.03-.03-.04c-.75-1.12-1.34-1.93-1.85-3.18h.04c1.22.32,2.63.78,3.86,1.14h0l.28-.26c.93-.23,5.25.9,6.57,1.09-.86-1.08-4.41-4.24-5.6-4.81-.32.05-.19.04-.54-.18t-.02-.02h0l-.18-.02c-1.2-.13-2.71-.62-3.87-.92-3.05-.79-6.05-1.79-9.24-1.49-.4.03-1.43.02-1.75.16-.09.53,2.01,2.67,2.49,3.3,1.62,2.14,2.89,4.79,5.45,5.97,1.46.65,2.92.54,4.46,1.32-.12-.78-.42-1.53-.08-2.06h.01Z"/>
  <polygon class="st45" points="1837.46 987.04 1837.46 987.04 1837.46 987.04 1837.46 987.04"/>
  <path class="st45" d="M1838.67,974.47c-.47,1.22-.71,2.46-.92,3.75l.24-.05.14-.45h.01c.27.91.15,1.26.88,1.98.37.37.64,1.16.83,1.66v.11c-.13.7-.63,1.76-.68,2.24.05-.48.55-1.54.69-2.23h0v-.11h0c-.19-.5-.46-1.29-.83-1.66-.73-.72-.61-1.07-.88-1.97.95-2.97,1.79-4.8,2.23-7.94,0-.02,0-.03-.01-.05-.07-.41-.18-2.39.02-2.71h.01c.78,2.37,2.18,5.69,2.45,8.04h0c.1.67.13,1.25.11,1.79-.06,1.61-.63,2.81-1.5,4.62-.3.62-.76,1.61-1.12,2.16l-.37.05c-.26.35-.57.78-.87,1.08h0c-.58.42-1.14.7-1.28,1.39h.01l-.02.16c.4.13,1.02.28,1.22.61-.37.54-1.04,1.04-1.56,1.43h0c.52-.39,1.19-.89,1.56-1.43,6.51-7.69,4.89-11.53,1.62-19.98-.33-.77-.69-1.66-1.06-2.4.12.84.24,1.68.35,2.52.05,2.67-.3,4.89-1.26,7.39h0Z"/>
  <path class="st45" d="M1837.45,986.98v.06c.01-.3.04-.6.07-.9l.09.02-.1-.03c-.03.28-.05.57-.07.85h.01Z"/>
  <polygon class="st45" points="1837.45 986.98 1837.45 986.98 1837.45 986.98 1837.45 986.98 1837.45 986.98"/>
  <path class="st45" d="M1839.58,964.55h0s0,.01,0,0Z"/>
  <path class="st45" d="M1839.18,983.87c-.2.3-.3.34-.31.65h0c.01-.3.11-.34.31-.64h0Z"/>
  <polygon class="st45" points="1839.18 983.88 1839.18 983.87 1839.18 983.87 1839.18 983.88 1839.18 983.88"/>
  <polygon class="st27" points="1839.18 983.88 1839.18 983.87 1839.18 983.87 1839.18 983.88 1839.18 983.88"/>
  <path class="st45" d="M1840.38,969.75h.01v.03c.29,1.22.41,1.93.79,3.2-1.06,2.52-.6,3.07-.86,5.54v.02c.03,1.08-.02,2.45.23,3.46.46-1,.57-2.06.44-3.1-.04-.27-.02-.45.15-.65.34.1.32.08.54.35.13.5-.07.63-.14,1.12.4-.46.33-1.46,1.07-2.13h.01c.36-.67-.19-1.95.24-2.52-.27-2.35-1.67-5.67-2.45-8.04h-.01c-.2.32-.09,2.3-.02,2.71,0,.02,0,.03.01.05v-.06.02Z"/>
  <path class="st24" d="M1840.38,969.75h.01v.03c.29,1.22.41,1.93.79,3.2-1.06,2.52-.6,3.07-.86,5.54v.02c.03,1.08-.02,2.45.23,3.46.46-1,.57-2.06.44-3.1-.04-.27-.02-.45.15-.65.34.1.32.08.54.35.13.5-.07.63-.14,1.12.4-.46.33-1.46,1.07-2.13h.01c.36-.67-.19-1.95.24-2.52-.27-2.35-1.67-5.67-2.45-8.04h-.01c-.2.32-.09,2.3-.02,2.71,0,.02,0,.03.01.05v-.06.02Z"/>
  <path class="st45" d="M1840.34,983.65l-.37.05c-.26.35-.57.78-.87,1.08h0c.3-.29.61-.72.87-1.07l.37-.05c.36-.55.82-1.54,1.12-2.16.87-1.82,1.44-3.01,1.5-4.62-.06,1.61-.63,2.81-1.5,4.62-.3.62-.76,1.61-1.12,2.16h0Z"/>
  <path class="st23" d="M1840.34,983.65l-.37.05c-.26.35-.57.78-.87,1.08h0c.3-.29.61-.72.87-1.07l.37-.05c.36-.55.82-1.54,1.12-2.16.87-1.82,1.44-3.01,1.5-4.62-.06,1.61-.63,2.81-1.5,4.62-.3.62-.76,1.61-1.12,2.16h0Z"/>
  <path class="st45" d="M1840.41,982.53v.03l.12-.07c.63-1.11,1.85-3.66,2.09-4.85v-.02h-.01c-.24,1.2-1.46,3.75-2.09,4.85l-.11.06Z"/>
  <path class="st30" d="M1840.41,982.53v.03l.12-.07c.63-1.11,1.85-3.66,2.09-4.85v-.02h-.01c-.24,1.2-1.46,3.75-2.09,4.85l-.11.06Z"/>
  <path class="st12" d="M1839.99,981.57c.01.56-.03.87-.1,1.42-.21.29-.46.65-.71.89h0c-.2.3-.3.34-.31.64l.23.25h0c.3-.29.61-.72.87-1.07l.37-.05c.36-.55.82-1.54,1.12-2.16.87-1.82,1.44-3.01,1.5-4.62.02-.54-.01-1.12-.11-1.79h0c-.43.57.12,1.85-.24,2.53h.01v.02c-.24,1.19-1.46,3.74-2.09,4.85l-.12.07v-.03h-.01c.04-.26.03-.26.14-.5h0c-.25-1.02-.21-2.4-.23-3.47-.64,1.41-.18,1.59-.45,2.83h0v.11h0l.13.09h0Z"/>
  <polygon class="st0" points="1839.86 981.48 1839.86 981.48 1839.86 981.48 1839.86 981.48"/>
  <path class="st0" d="M1839.18,983.87h0c.25-.24.5-.6.71-.89.07-.55.11-.86.1-1.42l-.13-.09c-.14.69-.63,1.75-.69,2.23v.16h.01Z"/>
  <path class="st40" d="M1842.6,977.6c-.74.67-.67,1.67-1.07,2.13.07-.49.27-.62.14-1.12-.22-.27-.2-.25-.54-.35-.17.2-.19.38-.15.65.14,1.04.02,2.1-.44,3.1h0c-.11.25-.1.25-.14.52h.01l.11-.07c.63-1.1,1.85-3.65,2.09-4.85h-.01Z"/>
  <path class="st45" d="M1839.94,980.02c0-.38.05-.78.37-1.5h0c.27-2.48-.19-3.03.86-5.54-.37-1.26-.5-1.96-.79-3.18-.44,3.14-1.28,4.97-2.23,7.94.27.9.15,1.25.88,1.97.37.37.64,1.16.83,1.66.07-.31.09-.55.09-.77v-.59h0Z"/>
  <path class="st25" d="M1839.94,980.02c0-.38.05-.78.37-1.5h0c.27-2.48-.19-3.03.86-5.54-.37-1.26-.5-1.96-.79-3.18-.44,3.14-1.28,4.97-2.23,7.94.27.9.15,1.25.88,1.97.37.37.64,1.16.83,1.66.07-.31.09-.55.09-.77v-.59h0Z"/>
  <path class="st45" d="M1840.38,969.75h0v.03-.03h-.01.01Z"/>
  <path class="st26" d="M1840.38,969.75h0v.03-.03h-.01.01Z"/>
  <path class="st29" d="M1840.38,969.75h0v.03-.03h-.01.01Z"/>
  <path class="st45" d="M1840.31,978.52v.02-.02c.26-2.47-.2-3.02.86-5.54-.39-1.27-.51-1.98-.79-3.2v.03c.29,1.22.41,1.92.79,3.18-1.05,2.51-.59,3.06-.86,5.54h0Z"/>
  <path class="st22" d="M1840.31,978.52v.02-.02c.26-2.47-.2-3.02.86-5.54-.39-1.27-.51-1.98-.79-3.2v.03c.29,1.22.41,1.92.79,3.18-1.05,2.51-.59,3.06-.86,5.54h0Z"/>
  <path class="st31" d="M1840.31,978.52v.02-.02c.26-2.47-.2-3.02.86-5.54-.39-1.27-.51-1.98-.79-3.2v.03c.29,1.22.41,1.92.79,3.18-1.05,2.51-.59,3.06-.86,5.54h0Z"/>
  <path class="st45" d="M1839.95,980.61v-.59c0,.19.01.37,0,.59Z"/>
  <path class="st37" d="M1839.95,980.61v-.59c0,.19.01.37,0,.59Z"/>
  <path class="st36" d="M1839.95,980.61v-.59c0,.19.01.37,0,.59Z"/>
  <path class="st12" d="M1840.31,978.55v-.02h0c-.32.71-.37,1.12-.37,1.5,0,.19.01.37,0,.59,0,.21-.02.46-.09.77.27-1.23-.19-1.42.45-2.83h.01Z"/>
  <path class="st33" d="M1840.31,978.55v-.02h0c-.32.71-.37,1.12-.37,1.5,0,.19.01.37,0,.59,0,.21-.02.46-.09.77.27-1.23-.19-1.42.45-2.83h.01Z"/>
  <path class="st50" d="M1837.75,978.23l.25-.05c-.62,2.45-.18,5.45-.35,7.98l-.13-.03h0l.1.03h.19c.14-.69.71-.97,1.28-1.4h0l-.23-.25h0c.01-.31.11-.35.31-.65h0s-.01-.1,0-.16c.05-.48.54-1.54.68-2.24v-.11c-.19-.5-.46-1.29-.83-1.66-.73-.72-.61-1.07-.88-1.97h-.01s-.14.44-.14.44l-.24.05h-.01c-.42,1.76-.51,6.98-.29,8.81v-.05h0c-.21-1.88-.12-7.01.3-8.75h0Z"/>
  <path class="st40" d="M1837.45,986.98h0v.05h0v-.05Z"/>
  <path class="st40" d="M1837.52,986.13l.13.03c.17-2.53-.27-5.53.35-7.98l-.25.05c-.42,1.74-.51,6.87-.3,8.75h0c.02-.28.04-.57.07-.85h0Z"/>
  <path class="st0" d="M1839.02,986.94c-.2-.33-.82-.48-1.22-.61l.02-.16h-.2l-.09-.03c-.03.3-.06.6-.07.9h0v1.33h0c.52-.39,1.19-.89,1.56-1.43h0Z"/>
  <path class="st0" d="M1774.83,1002.06l.1-.39c-.17.02-.21.02-.25.05.03-.02.08-.02.23-.04l-.1.39.15.06.36-.16h0l-.34.15-.15-.06h0Z"/>
  <path class="st0" d="M1770.7,1000.31h0l.02.02h0c.71.28,1.18.53,1.85.92,1.04,2.56,1.64,3.45,3.48,5.6-.01-.02-.03-.05-.04-.08-1.79-2.1-2.39-3-3.42-5.53-.68-.4-1.16-.65-1.89-.93h0Z"/>
  <path class="st0" d="M1766.19,997.82h-.04c.51,1.25,1.1,2.06,1.85,3.18,0,.01.02.03.03.04,2.79,4.13,4.31,7.33,9.6,8.22,1,.17,4.29.61,5.17.22-.18-.4-1.06-.46-1.48-.52h-.03c-3.49-1.11-5.46-1.14-7.61-4.3v-.02c-1.84-.43-3.83-2.64-3.9-4.5h-.01c-.26-.16-.4-.28-.64-.46h0l-.02-.02h0c-.31-.22-.99-.62-1.08-.85.41.09,1.79,1.01,2.58,1.24.09-.24.02-.14.2-.3,1.34.24,2.61.83,4.16,1.05.93.13,4.1.38,4.67.65-1.52-.08-3.04-.24-4.55-.49h0c1.5.26,3.02.42,4.53.5.57.17,1.53.23,2.15.3,3.2.38,6.48.43,9.65.99,1.48.26,2.96,1.29,4.32,1.87,1.22.56,2.62,1.04,3.81,1.62l-.06-.22c-.47-.33-7.59-3.87-7.76-3.89-7.45-.9-14.31-1.3-21.67-3.18h0c-1.23-.36-2.64-.82-3.86-1.13h0Z"/>
  <path class="st45" d="M1770.82,999.94c1.5.47,2.75.73,4.27,1.03h0c1.51.24,3.03.4,4.55.48-.57-.27-3.74-.52-4.67-.65-1.55-.22-2.82-.81-4.16-1.05-.18.16-.11.06-.2.3-.79-.23-2.17-1.15-2.58-1.24.09.23.77.63,1.08.85h0s.01,0,.02.02h0c.5.18,1.1.39,1.58.64h0c.73.27,1.21.52,1.89.92,1.03,2.53,1.63,3.43,3.42,5.53.02.02.04.04.06.07-.58-1.28-2.06-3.59-1.58-4.92.13-.12.16-.17.19-.2.04-.03.08-.03.25-.05l-.1.39.15.06.34-.15h.02l.13-.28-.4-.39h0c-1.28-.54-2.6-.46-4.25-1.36h-.01Z"/>
  <path class="st47" d="M1775.09,1000.97c-1.52-.3-2.77-.56-4.27-1.03,1.65.9,2.97.82,4.25,1.37h0l.02-.34h0Z"/>
  <path class="st47" d="M1770.69,1000.32c-.48-.25-1.07-.46-1.58-.65h0c.24.19.38.31.64.46h.01-.01.01l.88.38h0l.06-.17h0s-.02-.01-.02-.02h0Z"/>
  <path class="st44" d="M1769.77,1000.13h0c.07,1.87,2.06,4.08,3.9,4.51.02,0,.03.01.05.02-.59-1.01-.89-1.84-1.28-2.93-.66-.5-1.07-.82-1.79-1.22h0l-.88-.38h0Z"/>
  <polygon class="st44" points="1769.77 1000.12 1769.76 1000.12 1769.76 1000.12 1769.77 1000.13 1769.77 1000.12"/>
  <path class="st49" d="M1770.77,994.79c.35.22.22.22.54.18-.14-.24-11.24-8.64-12.47-9.57-5-3.81-9.39-6.31-12.52-12.3-.42-.8-6.5-3.24-7.7-3.68-.64.18-1.66-.31-2.28-.57l-.08-.25h0c-.22.45-.25.61-.07,1.11.41.71.82.99,1.5,1.43.34.36,4.74,3.37,5.34,3.69.27-.08.29-.12.53-.28.34.02,13.6,10.3,15.22,11.47l7.5,5.49c.97.7,3.69,2.55,4.47,3.26h0s.01,0,.02.02h0ZM1736.2,969.7h-.01l.18-.05c.37.27,1.26,1.02,1.33,1.48-.68-.44-1.09-.72-1.5-1.43Z"/>
  <path class="st40" d="M1738.62,969.42c-.68-.29-1.65-.72-2.36-.82l.08.25c.62.26,1.64.75,2.28.57Z"/>
  <path class="st40" d="M1736.37,969.65l-.18.05h0c.41.71.82.99,1.5,1.43-.07-.46-.96-1.21-1.33-1.48h.01Z"/>
  <polygon class="st40" points="1736.19 969.7 1736.19 969.7 1736.19 969.7 1736.19 969.7"/>
  <path class="st49" d="M1730.84,998.7c.93.71,3.26,2.73,4.08,3.05l.13-.08c-.29-.85-1.75-1.84-2.46-2.43-1.26-1.04-2.56-2.04-3.86-3.04v.87l2.11,1.63Z"/>
  <path class="st12" d="M1792.41,1014.15c-4.96-1.02-9.74-2.02-14.65-3.36-.95-.26-4.33-2.02-4.75-2h0c-.9.23-1.06.26-1.99.34,1.27.41,2.23.68,3.35,1.43-2.84.24-2.96-.93-5.6-1.39.85.83,1.91,1.89,2.9,2.52,3.25,2.07,8.21,2.61,12.01,2.8,2.22.01,6.75.23,8.73-.34Z"/>
  <path class="st42" d="M1833.54,1016.43s.01-.02.01-.03c.13-.54,2.02-1.95,2.57-2.4,0,0,.01-.01.02-.01-.21-.15-.56-.37-.75-.54h-.01v.02c-2.98,2.46-5.57,4.32-8.86,6.38-1.75,1.1-3.34,2.38-5.21,3.38-6.47,3.45-13.28,6.12-20.37,7.93-3.95,1.01-8.76,1.25-12.49,2.24,7.82,1.34,26.21-5.94,33.45-9.31,2.13-1,5.51-3.11,7.56-4.47,1.34-.88,2.89-2.31,4.12-3.13h0l-.04-.06h0Z"/>
  <path class="st0" d="M1798.24,1019h0s-.01-.01-.01-.01c.04.07.08.13.13.2,1.24,1.66,3.42,2.47,5.4,2.76,6.82,1.01,24.93-9.72,30.67-14.02,3.26-2.44,5.78-5.52,6.35-9.68.2-1.41.27-3.31-.67-4.47-.85-1.04-2.15-1.26-3.41-1.39h-.02c-3.08,4.25-7.04,6.43-11.26,9.45-.12-.6-.35-1.36-.52-1.96-.21,1.04-.36,2.1-.52,3.15v.03c-.03.36-.07.64-.13,1v.03h-.01v-.06s0,.05-.01.07c-.04.56-.09,1.15-.17,1.7-1.12-.85-1.95-1.56-3.33-1.96-1.22.36-2.81,1.11-4.03,1.63-1.35.56-2.71,1.08-4.09,1.57-1.13.4-2.35.8-3.5,1.1-1.57.41-2.21.51-3.52,1.53,3.69-.96,6.51-1.83,10.09-3.27,1.4-.57,3.97-1.79,5.27-2.17,1.76.65,2.17,1.37,3.64,2.25.53-1.47.8-2.47,1.22-4,2.12-2.03,6.14-4.18,8.42-6.3,1.31-1.22,1.88-2.2,2.98-3.48,1.04.26,2.25.52,2.82,1.54.78,1.41.62,3.82.2,5.31-.62,2.12-1.69,4.07-3.13,5.73-2.75,3.09-10.13,7.32-13.81,9.3-5,2.7-11.08,5.73-16.62,6.98-2.72.62-6.36-.55-8.25-2.63l-.17.07h0Z"/>
  <path class="st49" d="M1816.01,945.85l-.09.17c1.51,1.27,2.83,2.37,4.1,3.88.3.37.92.57,1.23.94,1.74,2.29,2.06,5.47,4.96,6.46l.34.12c-.25-.92-.33-1.23-.81-2.08.89,1,2.1,1.75,3.12,2.61,1.54,1.3,3.19,2.59,4.72,3.89,1.07.9,2.03,2.44,3.13,3.52-.7-1.4-2.9-5.39-4.19-6.17l.1.17c-.75-.52-1.09-1.05-1.44-1.3l-.02-.02c-.48-.09-2.33-1.83-2.45-2.29h0l-.08-.03c-.06-.08-.14-.15-.22-.23.08.07.15.15.21.22-.54-.02-.81-.43-1-.88-.26-.34-2.3-1.53-2.97-2.16h-.01c-.68.02-1.64-1.12-1.78-1.74h0c-.26-.25-.25-.26-.57-.42,0,0-.01-.01-.02-.01-.64-.11-1.92-1.12-2.09-1.79h0c-.69-.79-3.21-2.29-4.17-2.85h.01s-.01-.01-.01-.01Z"/>
  <path class="st40" d="M1824.64,952.66h.01c-.64-.68-1.09-1.15-1.8-1.75h0c.14.63,1.1,1.77,1.78,1.74h.01Z"/>
  <path class="st40" d="M1831.16,958.05h.02c-.72-.8-1.65-1.62-2.47-2.31v.02c.11.46,1.97,2.2,2.45,2.29Z"/>
  <path class="st40" d="M1822.26,950.49h.02c-.58-.55-1.48-1.27-2.11-1.81h0c.16.68,1.45,1.69,2.09,1.8h0Z"/>
  <path class="st40" d="M1828.62,955.71c-.06-.07-.13-.15-.21-.22-.24-.23-.56-.47-.79-.66h0c.19.45.46.86,1,.88h0Z"/>
  <path class="st12" d="M1753.63,982.91c-.26-.13-.61-.2-.88-.23h0c-.5.87-.96,1.86-1.42,2.64-.64.17-1.56.27-2.05.53-.44.78.86,1.93,1.41,2.42.83.74,1.65,1.81,2.52,2.45.53.34,1.57,1.03,2.18.77.07-.22.1-.15,0-.34-.41-.81-.02-1.33.03-2.22.12-2.17.58-4.86-1.79-6.02h0Z"/>
  <path class="st50" d="M1784.79,991.64c-3.72-3.07-8.05-5.69-12.08-8.35-3.72-2.45-7.47-4.92-11.42-7-1.87-.99-3.75-1.98-5.61-3-1.23-.68-2.72-1.4-3.81-2.28-.41-.3-.52-.88-.3-1.32h0c.21-.07.27-.03.49,0,.07-.25.07-.28.11-.54-1.39.02-2.74.06-4.12-.13-.41.83.6.75.88,1.46l-.04.09c5.62,3.83,12.26,6.08,17.97,9.36,5.98,3.44,11.96,8.17,17.76,12l.17-.29h0Z"/>
  <path class="st32" d="M1784.79,991.64c-3.72-3.07-8.05-5.69-12.08-8.35-3.72-2.45-7.47-4.92-11.42-7-1.87-.99-3.75-1.98-5.61-3-1.23-.68-2.72-1.4-3.81-2.28-.41-.3-.52-.88-.3-1.32h0c.21-.07.27-.03.49,0,.07-.25.07-.28.11-.54-1.39.02-2.74.06-4.12-.13-.41.83.6.75.88,1.46l-.04.09c5.62,3.83,12.26,6.08,17.97,9.36,5.98,3.44,11.96,8.17,17.76,12l.17-.29h0Z"/>
  <polygon class="st50" points="1748.04 969.02 1748.05 969.03 1748.05 969.02 1748.04 969.02"/>
  <polygon class="st34" points="1748.04 969.02 1748.05 969.03 1748.05 969.02 1748.04 969.02"/>
  <polygon class="st50" points="1748.04 969.02 1748.04 969.02 1748.04 969.02 1748.04 969.02"/>
  <polygon class="st35" points="1748.04 969.02 1748.04 969.02 1748.04 969.02 1748.04 969.02"/>
  <path class="st47" d="M1751.57,969.69h0c-.22.44-.11,1.02.3,1.32.47-.06,1.16-.09,1.53-.3l.02-.17c-.66-.29-1.21-.34-1.79-.58l-.06-.27Z"/>
  <path class="st12" d="M1751.57,969.69h0l.06.27c.58.24,1.13.29,1.79.58-.18-.74-.6-1.07-1.25-1.39h0c-.04.26-.04.29-.11.54-.22-.03-.28-.07-.49,0h0Z"/>
  <path class="st46" d="M1784.98,990.09c-2.26-2.5-5.3-4.94-7.73-7.35-1.32-1.31-3.06-2.71-4.48-3.95-1.74-1.05-8.76-4.4-10.28-4.58h0c2.43,2.29,5.18,3.19,7.96,5.2,3.85,2.78,7.51,5.69,11.34,8.49.58.42,2.65,1.98,3.2,2.19h0Z"/>
  <path class="st40" d="M1806.78,940.21h-.01s.02,0,.02.01h-.01Z"/>
  <path class="st40" d="M1816.97,947.62c3.36,2.9,4.53,5.84,6.07,9.69,0,0,.01.02.02.02-1.55-3.86-2.71-6.8-6.08-9.71-.54-.46-2.13-1.37-2.8-1.79h0c.68.43,2.25,1.33,2.78,1.79h.01Z"/>
  <path class="st40" d="M1814.17,946.8c6.75,7.37,14.84,20.23,17.76,29.79.36,1.19.84,1.72.92,3.03l.09.09c.05-1.21-.65-3.09-1.03-4.27-2.46-7.56-6.7-14.16-11.13-20.7l.12-.13h0l-.13.14c-2.46-3.4-4.28-5.84-7.08-8.92h0c-1.27-1.15-5.42-4.85-6.9-5.6,1.16,1.24,2.46,2.16,3.78,3.23,1.28,1.02,2.49,2.14,3.6,3.35h0Z"/>
  <path class="st46" d="M1816.97,947.62c-.54-.46-2.11-1.36-2.78-1.78.28.53,2.27,2.75,2.8,3.47,1.31,1.72,2.73,3.47,3.91,5.29h0c.64.96,1.36,1.88,2.15,2.72v-.02c-1.55-3.85-2.71-6.78-6.07-9.69h-.01Z"/>
  <path class="st12" d="M1820.77,954.74l.13-.14h0c-1.18-1.82-2.6-3.57-3.91-5.29-.54-.72-2.53-2.94-2.8-3.47h0s-.17-.14-.17-.14l-.32.11h0c2.8,3.09,4.62,5.53,7.08,8.93h0Z"/>
  <path class="st47" d="M1732.68,976.43c-.1-.25-.04-.17-.25-.35-.41-.35-.68-.56-1.04-.96l.06-.09.38.28c-.17-.36-1.68-1.81-3.07-3.09v1.09c2.22,1.83,3.79,3.09,3.92,3.12h0Z"/>
  <path class="st50" d="M1788.84,1033.04l.07-.17c-1.09-.95-14.12-1.35-15.88-1.11h0c.71.34,5.32.7,6.41.78l.52-.16-.33-.12c.35-.05,1.05.15,1.43.23,2.43.46,5.12.55,7.59.6-1.33.18-3.52.4-4.84.45h-.02c-1.09.3-4.3.22-5.41.17h0c-1.23.24-4.41-.59-5.32-1.48-.06-.06-.07-.13-.07-.21,0,.08,0,.16.07.22.91.89,4.09,1.72,5.32,1.48,1.12.05,4.38.13,5.44-.18,1.32-.05,3.51-.27,4.84-.45l.18-.05h0Z"/>
  <path class="st39" d="M1788.84,1033.04l.07-.17c-1.09-.95-14.12-1.35-15.88-1.11h0c.71.34,5.32.7,6.41.78l.52-.16-.33-.12c.35-.05,1.05.15,1.43.23,2.43.46,5.12.55,7.59.6-1.33.18-3.52.4-4.84.45h-.02c-1.09.3-4.3.22-5.41.17h0c-1.23.24-4.41-.59-5.32-1.48-.06-.06-.07-.13-.07-.21,0,.08,0,.16.07.22.91.89,4.09,1.72,5.32,1.48,1.12.05,4.38.13,5.44-.18,1.32-.05,3.51-.27,4.84-.45l.18-.05h0Z"/>
  <path class="st12" d="M1778.38,1033.71h0c1.11.05,4.32.13,5.41-.17h0c-1.09.3-4.3.22-5.41.17Z"/>
  <path class="st12" d="M1778.38,1033.71c.74-.58,2.11,0,2.97-.33-.77-.45-1.04-.63-1.91-.83h0c-1.09-.09-5.7-.45-6.41-.79h0c-.01.08-.03.17-.04.26,0,.08,0,.15.07.21.91.89,4.09,1.72,5.32,1.48h0Z"/>
  <path class="st49" d="M1783.79,1033.54c-.46-.09-2-.18-2.43-.15h0c-.86.32-2.23-.25-2.97.33,1.11.05,4.32.13,5.41-.17h-.01Z"/>
  <path class="st50" d="M1781.37,1033.38h0c.43-.03,2.01.06,2.45.15h-.03.02c1.32-.05,3.51-.27,4.84-.45-2.47-.05-5.16-.14-7.59-.6-.38-.08-1.08-.28-1.43-.23l.33.12-.52.16h0c.87.21,1.14.4,1.92.84h.01Z"/>
  <path class="st38" d="M1781.37,1033.38h0c.43-.03,2.01.06,2.45.15h-.03.02c1.32-.05,3.51-.27,4.84-.45-2.47-.05-5.16-.14-7.59-.6-.38-.08-1.08-.28-1.43-.23l.33.12-.52.16h0c.87.21,1.14.4,1.92.84h.01Z"/>
  <path class="st20" d="M1781.37,1033.38h0c.43-.03,2.01.06,2.45.15h-.03.02c1.32-.05,3.51-.27,4.84-.45-2.47-.05-5.16-.14-7.59-.6-.38-.08-1.08-.28-1.43-.23l.33.12-.52.16h0c.87.21,1.14.4,1.92.84h.01Z"/>
  <path class="st12" d="M1783.82,1033.53h-.03.03Z"/>
  <path class="st21" d="M1783.82,1033.53h-.03.03Z"/>
  <path class="st12" d="M1779.44,1032.55c.87.21,1.14.39,1.91.83h.02c-.78-.44-1.05-.63-1.92-.84h-.01Z"/>
  <path class="st14" d="M1779.44,1032.55c.87.21,1.14.39,1.91.83h.02c-.78-.44-1.05-.63-1.92-.84h-.01Z"/>
  <path class="st49" d="M1783.79,1033.54h.03c-.44-.09-2.02-.18-2.45-.15h-.02c.42-.03,1.96.06,2.43.15h0Z"/>
  <path class="st13" d="M1783.79,1033.54h.03c-.44-.09-2.02-.18-2.45-.15h-.02c.42-.03,1.96.06,2.43.15h0Z"/>
  <path class="st50" d="M1735.78,963.42c.13.56.23.91.21,1.48.02-.57-.07-.92-.21-1.48Z"/>
  <path class="st15" d="M1735.78,963.42c.13.56.23.91.21,1.48.02-.57-.07-.92-.21-1.48Z"/>
  <path class="st50" d="M1728.78,959.03v.03c.17.47.2.89,0,1.51v.04c.22-.66.19-1.09,0-1.59h0Z"/>
  <path class="st18" d="M1728.78,959.03v.03c.17.47.2.89,0,1.51v.04c.22-.66.19-1.09,0-1.59h0Z"/>
  <path class="st50" d="M1728.77,960.7c1.83.32,3.76.97,5.55,1.52.55.25,1.21.47,1.44,1.03-.7-.14-3.64-1.36-4.84-1.67-.81-.21-1.51-.36-2.15-.47v.59c.27.06.54.13.81.21,2.62.77,4.01,2.11,6.24,3.19h0c-.02-.09-.04-.18-.07-.27-.13-.55-.28-.94.01-1.43h0v-.16c-.23-.56-.89-.78-1.44-1.03-1.79-.56-3.72-1.21-5.56-1.53h0v.02Z"/>
  <path class="st16" d="M1728.77,960.7c1.83.32,3.76.97,5.55,1.52.55.25,1.21.47,1.44,1.03-.7-.14-3.64-1.36-4.84-1.67-.81-.21-1.51-.36-2.15-.47v.59c.27.06.54.13.81.21,2.62.77,4.01,2.11,6.24,3.19h0c-.02-.09-.04-.18-.07-.27-.13-.55-.28-.94.01-1.43h0v-.16c-.23-.56-.89-.78-1.44-1.03-1.79-.56-3.72-1.21-5.56-1.53h0v.02Z"/>
  <path class="st49" d="M1728.77,960.62v.07c1.85.32,3.78.97,5.56,1.53-.42-.57-4.11-2.91-5.56-3.84v.65c.18.5.22.93,0,1.59h0Z"/>
  <path class="st45" d="M1735.77,963.25c-.23-.56-.89-.78-1.44-1.03-1.79-.56-3.72-1.2-5.55-1.52v.42c.64.11,1.34.26,2.15.47,1.2.31,4.14,1.53,4.84,1.67h0Z"/>
  <polygon class="st44" points="1735.84 965.1 1735.84 965.1 1735.84 965.11 1735.84 965.1"/>
  <polygon class="st44" points="1735.84 965.1 1735.83 965.1 1735.83 965.1 1735.84 965.1"/>
  <path class="st44" d="M1735.77,964.83c.03.09.05.18.07.26h0l.15-.16v-.04c.02-.57-.08-.92-.21-1.48h0c-.29.48-.14.87-.01,1.42h0Z"/>
  <path class="st47" d="M1748.49,975.48c.55.89,5.74,3.27,6.91,3.76-.41-1.23-.17-1.89-.75-3.35-1.04-.73-6.03-2.76-7.26-2.98.59,1.13,1.15,1.44,1.1,2.57h0Z"/>
  <path class="st40" d="M1747.35,967.5c8.72-.82,17.31-3.9,25.41-7.11,2.85-1.14,6.8-2.5,9.38-4.05l-.08-.21h.01c-8.34,3.5-16.69,7.2-25.48,9.35-4.48,1.09-8.62,1.98-13.28,1.51-1.52-.15-2.74.03-4.24-.49-.82-.91-2.68-4.38-3.49-5.66.54,1.45,2.21,4.73,3.24,5.88,1.84.66,6.58.96,8.53.78h0Z"/>
  <path class="st46" d="M1842.82,1001.74c-.08.14-.5,1.37-.52,1.57l.52-.46c-.03.51-.84,2.2-1.1,2.79.23.7.03.96-.32,1.63-.47.9-1.83,3.19-2.53,3.84-.24-.26-.25-.25-.4-.56h0c.15.32.16.31.4.57-.96,1.29-1.51,1.79-2.73,2.87h0s-.01.01-.02.01c-.55.46-2.44,1.86-2.57,2.4,0,0-.01.02-.01.03l.04.06h0c5.38-4.46,7.83-6.4,10.03-13.6.31-1.03,1.44-5.18.98-6-.58.47-1.3,4.02-1.77,4.85h0Z"/>
  <path class="st42" d="M1841.4,1007.27c.35-.68.55-.93.32-1.63h0c-.64.88-1.26,2.01-1.87,2.93-.45.69-.92,1.3-1.38,1.98h0c.15.31.16.31.4.56.7-.65,2.06-2.94,2.53-3.84h0Z"/>
  <path class="st12" d="M1795.02,946.94h0c.62-.35,1.42-.76,1.93-1.24h0c-.51.47-1.3.87-1.91,1.23h-.01v-.2c.41-.32,1.39-.93,1.92-1.04v-.04l-.11-.1c.22-.68,1.62-1.63,2.42-1.61h.01c.2-.19.5-.52.69-.72-.12-1.47-.11-1.45-1.48-2.01-.89.67-5.14,4.81-5.24,5.6.33.36.67.38,1.16.45.32-.11.37-.1.62-.32h0Z"/>
  <path class="st49" d="M1795.03,946.93h.01c.61-.36,1.4-.76,1.91-1.23l.02-.02h-.02c-.53.11-1.51.73-1.92,1.04v.2h0Z"/>
  <path class="st48" d="M1844.21,978.26h0c-.24,1.47-.35,2.37-.82,3.76-.56,1.67-2.75,5.03-2.62,6.63l.13.09c1.01-.62,2.53-3.99,3.51-5.19.53-1.05.11-4.13-.2-5.29h0Z"/>
  <path class="st40" d="M1845.6,982.45h.01v.02h0c-.28-1.01-.46-4.19-1.42-5.02-.13.27-.04.52,0,.82h0c.31,1.16.73,4.24.2,5.29l-.07.81.07.26c.05,0,.1-.03.14-.07.34-.32.47-1.5,1.05-2.08v-.02h.02Z"/>
  <path class="st12" d="M1756.76,920.35h0s.01.02.02.02v-.02h-.02Z"/>
  <path class="st12" d="M1757.22,924.24c1.38-.59,2.37-1.04,3.66-1.86-1.39-.83-2.55-1.46-4.1-2.01,0,.44.06.8-.16,1.16-.51.25-.82-.12-1.19-.49-.3.19-.63.41-.93.59.18.97.41,2.28.71,3.2.82-.17,1.21-.3,2.01-.59Z"/>
  <path class="st40" d="M1798.23,1015.27c-.67.9-.65,2.81,0,3.72h0s.17-.07.17-.07h.01l-.06-.13c-1.55-3.3,1.64-4.73,3.52-6.49,5.2-4.88,11.12-8.32,17.22-11.93,3.3-1.95,6.61-4.04,10.15-5.63,1.64-.73,3.33-1.36,5.04-1.88.2-.06,1.04-.24,1.1-.35-3.99-.44-21.41,10.41-25.51,13.15-1.58,1.06-3.12,2.19-4.6,3.39-1.38,1.12-2.74,2.27-4.08,3.44-1.01.86-2.18,1.72-2.97,2.78h0Z"/>
  <path class="st43" d="M1835.23,961.83c.99,1.11,2.43,3.27,3.28,4.56l.15.02c1.31-2.4-8.17-11.4-10.36-12.73.09.22.13.38.3.53.86.27,5.52,6.38,6.63,7.62h0Z"/>
  <path class="st43" d="M1828.29,953.68h0s0,0,0,0Z"/>
  <path class="st43" d="M1738.68,922.43c9.37-2.97,18.77-6.53,26.98-12.03,1.69-1.13,3.13-2.03,4.76-3.33h0s.01,0,.02-.01c.55-.59,1.84-1.45,1.92-2.12h0s-.02-.01-.02,0h-.01c-.83.73-1.73,1.58-2.58,2.25-1.38,1.08-2.98,2.01-4.43,3-7.41,5.05-15.48,8.28-23.97,11.08-1.01.33-2.02.66-3.03.99l-1.18.67c.59-.19,1.12-.36,1.54-.5h0Z"/>
  <path class="st0" d="M1798.11,921.96c.47-.66,2.14-3.28,3.17-2.29.76.73.81,3.26.59,4.25-.51,1.9-1.44,2.57-1.95,3.92l.09.06c2.7-2.85,3.95-9.76-1.54-9.51h0c-1.61.37-2.43,1.32-3.24,2.68.33-.27,1.49-1.41,1.69-1.4.21.59.63,1.85,1.05,2.29h.14Z"/>
  <path class="st46" d="M1845.46,986.51c-.19.56-2.15,5.64-2.15,5.64.3-.27.71-.66.85-1.05.35.48-1.63,6.92-1.94,7.81-.24.7-1.02,2.06-1.3,2.93,1.86-1.54,4.32-9.99,4.58-12.58.03-.38.06-.77.06-1.16,0-.61,0-.98-.1-1.59h0Z"/>
  <path class="st12" d="M1774.07,985.63c-1.3-1.03-5.76-3.34-7.2-3.76h-.01c1.3,1.43,1.3,1.55,2.35,3.06,1.15.42,4.48,1.51,5.62,1.67-.19-.33-.46-.75-.76-.98h0Z"/>
  <path class="st12" d="M1800.64,1006.5c-1.03.93-2.42,1.94-3.59,2.67,1.3.02,2.61-.02,3.92-.1,1.16-.12,2.08-.28,3.22-.53-1.11-.7-2.36-1.51-3.55-2.03h0Z"/>
  <path class="st48" d="M1742.48,983.56c-.31-.35-3.7-3.32-4.16-3.68h0c.48,1.45,2.72,4.32,2.74,4.98.44-.47,1.16-.68,1.42-1.3Z"/>
  <path class="st0" d="M1738.32,979.88h0c.46.36,3.85,3.33,4.16,3.68-.26.62-.98.83-1.42,1.3.72-.15,2.06-.52,2-1.44-.17-.21-5-4.21-5.1-4.25-.02.29.15.4.36.71Z"/>
  <path class="st49" d="M1735.82,968.27c-.83-.53-1.65-1.09-2.45-1.67-.7-.5-1.56-1.35-2.52-.95.25.86,2.47,2.09,3.22,2.71.51.42.85.76,1.32,1.24-.67,2.55-1.36,5.46-1.08,8.11.33-2.56.64-4.92,1.26-7.44.13-.51.19-1.21.31-1.65l-.06-.35h0Z"/>
  <polygon class="st40" points="1774.51 906.17 1774.51 906.17 1774.51 906.17 1774.51 906.17"/>
  <path class="st40" d="M1781.14,912.37c-2.13-2.15-4.41-4.15-6.63-6.2l-.04.3c1.31.54,12.67,12.58,14.29,14.61.53.66,4.83,5.79,4.95,5.86-.52-1.16-2.44-3.29-3.31-4.34-2.94-3.54-6.01-6.97-9.26-10.23h0Z"/>
  <path class="st0" d="M1793.81,1008.53c-3.79.71-8.76-.23-12.66-.36-.65-.02-4.8-1.2-4.77-1.22.54.66,4.05,1.45,4.96,1.56h0c3.5.3,7.07.39,10.58.61,1.79.11,6.31-1.61,7.51-2.8-1.55.48-4.41,1.98-5.62,2.21h0Z"/>
  <path class="st0" d="M1793.34,1004.98c-.2-.32-1.1-.03-1.68-.14-.84-.15-2.29-.18-3.14-.18-3.86-.03-5.38.01-9.01-1.35h0l-.14.15c.93.4,1.69.71,2.66,1.01.26.08,1.26.29,1.36.33h.01c1.87.15,3.58.15,5.46.17.43,0,2.15,0,2.45.05.31.12.42.12.75.18l-.09.1c-1.07.05-2.18.07-3.28.08,1.1,0,2.21-.03,3.28-.08l.09-.1c-.33-.06-.44-.06-.75-.18.7-.07,1.25.02,2.03-.05h0Z"/>
  <path class="st12" d="M1792.06,1005.21c-.33-.06-.44-.06-.75-.18-.3-.05-2.02-.05-2.45-.05-1.88-.02-3.59-.02-5.46-.18h0c.46.51,1.33.5,2.02.53,1.08.04,2.18.06,3.28.06s2.2-.03,3.28-.08l.09-.1h-.01Z"/>
  <path class="st47" d="M1734.15,983.09c.05-.83.21-4.65-.06-5.1h0c-.86,6.31.63,13.89.63,20.27,0,.61-.07,1.74.33,2.18.52-4.96-1.2-12.14-.9-17.35h0Z"/>
  <path class="st43" d="M1772.46,958.97c.54-.34,1.06-.69,1.58-1.05,2.85-1.95,5.65-3.56,8.41-5.69l.02-.16-.04-.02h0c-2.48,1.52-5.05,3.27-7.44,4.9-2.95,2-5.62,3.7-8.99,4.93-.41.15-1.72.58-1.95.83l.09.08c2.92-.9,5.72-2.19,8.31-3.82h0Z"/>
  <path class="st40" d="M1784.81,955.37h-.02l7.47-4.2c1.29-.74,2.54-1.56,3.85-2.25-.24.32-.68.84-.76,1.18.94-.59.7-1.1.78-1.17,1.29-1.23,4.67-4.58,5.64-5.78-2.15,1.51-3.53,3.78-5.84,5.47-3.36,2.46-8.13,4.32-11.37,6.6h.01l.23.14h.01Z"/>
  <path class="st48" d="M1825.92,952.83c.75.63,1.45,1.3,2.16,1.99l.11-.02c0-.19,0-.33.07-.5-.26-.37-.69-.89-.72-1.31.11.1.67.59.74.68.1.23.13.39.31.54.35.47.73.94,1.04,1.44l.02.02c-.31-.51-.7-.99-1.06-1.47-.18-.15-.21-.31-.31-.54-.07-.09-.63-.58-.74-.68-.89-.96-2.35-1.75-3.49-2.42l-.13.04v.12c.27.12.4.18.69.27l-.04.14c-.72.26-.49-.17-1.04-.31h-.04c.67.7,1.68,1.38,2.43,2.01h0Z"/>
  <path class="st48" d="M1823.5,950.81h.03l.09-.03-.12.02h0Z"/>
  <path class="st40" d="M1828.28,953.67c-.07-.09-.63-.58-.74-.68.03.42.46.94.72,1.31h0c.46.5.9.91,1.39,1.38,0-.01-.01-.02-.02-.03-.31-.5-.69-.97-1.04-1.44-.18-.15-.21-.31-.31-.54h0Z"/>
  <path class="st40" d="M1803.12,940.4c.32-.04.61-.4.79-.66.31-.59.7-1.25.96-1.85-.52-.49-2.27-2.01-2.87-2.32.72,1.99,1.53,2.57,1.12,4.83h0Z"/>
  <path class="st40" d="M1801.99,935.57h0s0,0,0,0Z"/>
  <path class="st46" d="M1836.95,976.65h0c-.08,1.4-.76,14.27-.6,14.62.47-1.09.84-12.79.81-14.68h0l-.21.06h0Z"/>
  <path class="st0" d="M1780.68,954.05c1.78-.99,11.83-5.85,12.54-6.61l-.03-.17h-.01c-1.53.73-11.87,5.92-12.56,6.69l.06.09h0Z"/>
  <path class="st12" d="M1837.83,966.76c-.25.51-.85,8.82-.88,9.88h0l.21-.05h0c.05-2.63.77-5.39,1.06-8,.04-.41-.09-1.51-.39-1.83Z"/>
  <path class="st49" d="M1749.3,965.06c3.55-.53,7.11-.96,10.54-2.08.89-.29,1.81-.5,2.63-.92l-.08-.06c-.62,0-.92.16-1.5.37h0l-.76.21h0c-1.16.35-2.68.83-3.84,1.08-2.11.44-4.37.64-6.46,1.18-.7.18-1.08.02-1.89.32.36.02.97-.04,1.36-.1h0Z"/>
  <path class="st40" d="M1796.49,1025.49l.08-.11c-.37-.9-1.16-.72-1.95-.63h.01c-1.93.16-3.86.27-5.79.32-.98.02-3.29.01-4.11.14.73.21,1.43.17,2.18.13,2.96,0,5.81-.03,8.75-.44.23-.03.65.42.83.59h0Z"/>
  <path class="st47" d="M1784.46,1028.09c1.63,0,8.14.05,9.19-.57-.21-.04-.12-.05-.27,0h0c-1,.06-9.02.34-9.27.47.2.12.09.08.35.1h0Z"/>
  <path class="st46" d="M1782.59,1031.42l.03-.08c-.92-.43-3.49-.39-4.79-.61l-.2-.03-.08.19c1,.44,4.13,1.03,5.01.44l.05.03-.24.1.22-.04h0Z"/>
  <polygon class="st46" points="1777.63 1030.7 1777.64 1030.7 1777.64 1030.67 1777.63 1030.7 1777.63 1030.7 1777.63 1030.7"/>
  <path class="st42" d="M1845.61,982.45h-.01v.02c-.58.58-.71,1.76-1.05,2.08-.05.05-.1.07-.16.08l-.07-.26c-.04.2-.3,1.95-.28,2.05.29-.88.23-1.79,1.29-2.03.22.17.29.4.37.67-.05.35-.31,1.27-.31,1.4l.08.05c.1.61.1.98.1,1.59.19-1.14.31-4.48.04-5.63v-.02h0Z"/>
  <polygon class="st40" points="1800.57 919.71 1800.57 919.71 1800.58 919.72 1800.58 919.71 1800.57 919.71"/>
  <path class="st40" d="M1798.89,922.92c.45-.83.6-1.71,1.17-2.41.23-.28.79-.44.82-.72l-.3-.08c-1.21.97-1.56,2.22-2.43,2.57l-.31-.16c.06.42.57,1.04.78,1.62l.14.16c.12-.37.03-.44-.12-.88.1-.12.03-.06.25-.1h0Z"/>
  <polygon class="st42" points="1841.03 1003.31 1841.03 1003.31 1841.03 1003.31 1841.03 1003.31"/>
  <path class="st42" d="M1838.31,1008.18c.73-1.05,2.52-3.55,2.83-4.68l-.11-.19c-.66.97-1.27,1.97-1.93,2.94-.39.57-1.13,1.3-.79,1.93h0Z"/>
  <path class="st50" d="M1748.88,970.57l.04-.09c-.28-.71-1.29-.63-.88-1.46-.98-.24-1.98-.88-3.03-1.19,1.03.91,2.64,2.08,3.87,2.74h0Z"/>
  <path class="st17" d="M1748.88,970.57l.04-.09c-.28-.71-1.29-.63-.88-1.46-.98-.24-1.98-.88-3.03-1.19,1.03.91,2.64,2.08,3.87,2.74h0Z"/>
  <path class="st50" d="M1744.99,967.82h.02s-.02-.01-.02-.02h0v.02Z"/>
  <path class="st19" d="M1744.99,967.82h.02s-.02-.01-.02-.02h0v.02Z"/>
  <path class="st47" d="M1728.88,957.65c.03-1.21.41-6.39.22-7.18l-.19-.18h0c-.02.32-.07.96-.12,1.74v5.34c.02.12.05.22.09.27h0Z"/>
  <path class="st12" d="M1778.78,1003.05c.24.09.48.18.72.27h0c-.25-.1-.49-.19-.73-.28-.33-.36-2.11-1.25-2.65-1.53-.2-.11-.48.08-.66.19h0l-.13.27c.47.04.49.08.9.35h.27c.63-.27,1.57.49,2.27.73h.01Z"/>
  <path class="st46" d="M1779.5,1003.32c-.25-.09-.49-.18-.72-.27-.7-.24-1.64-1-2.27-.73h0c.97.48,1.8.89,2.85,1.16h0l.14-.16h0Z"/>
  <path class="st12" d="M1777.63,1030.7h0c-1.34-1.3-1.73-2.16-2.81-3.41.44,1.12,1.39,3.43,2.72,3.63v-.03l.09-.19h0Z"/>
  <polygon class="st12" points="1774.82 1027.29 1774.82 1027.29 1774.82 1027.29 1774.82 1027.29"/>
  <path class="st49" d="M1793.7,999.16c-.26-.69-3.97-3.58-4.8-4.22l-.19.14c1.65,1.38,3.31,2.74,4.99,4.08h0Z"/>
  <path class="st44" d="M1799.27,943.93h-.01c-.65.64-1.36,1.21-1.96,1.88,1.25-.44,3.8-3.25,4.57-4.49-.64.57-1.31,1.28-1.91,1.9h0c-.19.2-.49.53-.69.71h0Z"/>
  <path class="st40" d="M1788.9,994.94c-1.42-1.19-2.63-2.19-4.11-3.3h0l-.17.3c1.44,1.05,2.71,2.01,4.09,3.14l.19-.14h0Z"/>
  <path class="st12" d="M1762.3,985.51c-.31-.56-3.63-3.18-4.2-3.32.33.48,3.72,3.18,4.2,3.32Z"/>
  <path class="st49" d="M1758.9,963.74c.79-.18,4.34-.87,4.73-1.24l-.07-.13h0c-.85.21-4.04.93-4.73,1.23l.07.14Z"/>
  <path class="st42" d="M1790.19,947.33c.67-.01,1.04-.06,1.7-.15-1.14-.22-1.71-.29-2.87-.22-.48.14-.63.14-1.01.44.61.08,1.18-.17,2.18-.07Z"/>
  <path class="st42" d="M1774.33,995.62c-.12-.41-2.99-2.95-3.57-3.14.5.61,2.9,2.9,3.57,3.14Z"/>
  <path class="st48" d="M1770.58,992.38c-.34-.57-3.05-2.89-3.66-3.09.39.48,3.23,3.03,3.66,3.09Z"/>
  <path class="st48" d="M1784.23,949.52c.46-.36,1.87-1.11,2.07-1.48l-.12-.06h0c-.78.5-3.6,2.27-3.86,3.17l.12.02c.64-.65,1.08-1.09,1.79-1.65Z"/>
  <path class="st40" d="M1796.83,1028.78c.64.28,2.42.62,3.12.56-1.12-.68-1.85-.69-3.12-.56Z"/>
  <path class="st48" d="M1766.57,988.93c-.48-.57-2.6-2.41-3.33-2.5.67.53,2.68,2.34,3.33,2.5Z"/>
  <path class="st12" d="M1760.89,962.37h0c-.11-.5-.35-.78-.86-.95l-.23.07c-.09.47.06.68.33,1.09h0l.76-.21Z"/>
  <path class="st42" d="M1784.79,955.38h.02l-.23-.14h-.01c-.59.11-1.89.66-2.51.9l.08.21c.91-.04,1.73-.65,2.65-.96h0Z"/>
  <path class="st12" d="M1747.47,966.6c-.46-.54-1.26-.93-1.97-.88.64.88.88.91,1.97.88Z"/>
  <path class="st47" d="M1824.37,1003.05v-.03c-.06-.58-.21-2.69-.42-2.95-.11.6.18,3.22.28,3.95v.03c.07-.35.11-.64.13-1h.01Z"/>
  <path class="st47" d="M1824.24,1004.08v-.03.03h.01-.01Z"/>
  <path class="st42" d="M1773.48,1022.5c.09.92.3,2.57.87,3.32-.12-.68-.43-2.98-.87-3.32Z"/>
  <path class="st48" d="M1796.09,927.63l.29.17c-.4-.95-.73-2.73-1.04-3.24.04.87.28,2.36.75,3.07Z"/>
  <path class="st48" d="M1795.33,924.52h0s0,.03.01.04v-.04h-.01Z"/>
  <path class="st40" d="M1800.17,1019.61c-.36-.49-.95-1.22-1.53-1.44.42.55.87,1.18,1.53,1.44Z"/>
  <path class="st42" d="M1803.21,941.49c-.04.36-.17,1.03-.07,1.35l.12.11c.08-.48.18-.82.1-1.3l-.15-.16h0Z"/>
  <path class="st12" d="M1735.82,968.27h0l.06.35h0c.11-.46.26-.87.09-1.31-.2.31-.15.59-.15.96Z"/>
  <path class="st43" d="M1800.45,1030.11l.35-.27-.05-.13-.49-.11h0l-.33.32c.17.22.11.12.52.19h0Z"/>
  <path class="st42" d="M1815.91,946.01l.09-.17c-.33-.19-.73-.47-1.08-.53.39.34.54.43.99.7h0Z"/>
</svg>