<?xml version="1.0" encoding="UTF-8"?>
<svg id="Layer_1" xmlns="http://www.w3.org/2000/svg" xmlns:xlink="http://www.w3.org/1999/xlink" version="1.1" viewBox="0 0 2048 1650">
  <!-- Generator: Adobe Illustrator 30.4.0, SVG Export Plug-In . SVG Version: 2.1.4 Build 226)  -->
  <defs>
    <style>
      .st0 {
        fill: #451f1e;
      }

      .st1 {
        fill: #e1e1e2;
      }

      .st2 {
        fill: url(#linear-gradient2);
      }

      .st3 {
        fill: url(#linear-gradient1);
      }

      .st4 {
        fill: url(#linear-gradient9);
      }

      .st5 {
        fill: url(#linear-gradient3);
      }

      .st6 {
        fill: url(#linear-gradient6);
      }

      .st7 {
        fill: url(#linear-gradient8);
      }

      .st8 {
        fill: url(#linear-gradient7);
      }

      .st9 {
        fill: url(#linear-gradient5);
      }

      .st10 {
        fill: url(#linear-gradient4);
      }

      .st11 {
        fill: #1e2025;
      }

      .st12 {
        fill: url(#linear-gradient18);
      }

      .st13 {
        fill: url(#linear-gradient13);
      }

      .st14 {
        fill: url(#linear-gradient12);
      }

      .st15 {
        fill: url(#linear-gradient15);
      }

      .st16 {
        fill: url(#linear-gradient16);
      }

      .st17 {
        fill: url(#linear-gradient11);
      }

      .st18 {
        fill: url(#linear-gradient10);
      }

      .st19 {
        fill: url(#linear-gradient17);
      }

      .st20 {
        fill: url(#linear-gradient14);
      }

      .st21 {
        fill: url(#linear-gradient19);
      }

      .st22 {
        fill: url(#linear-gradient23);
      }

      .st23 {
        fill: url(#linear-gradient22);
      }

      .st24 {
        fill: url(#linear-gradient24);
      }

      .st25 {
        fill: url(#linear-gradient25);
      }

      .st26 {
        fill: url(#linear-gradient21);
      }

      .st27 {
        fill: url(#linear-gradient20);
      }

      .st28 {
        fill: url(#linear-gradient26);
      }

      .st29 {
        fill: #919293;
      }

      .st30 {
        fill: url(#linear-gradient);
      }

      .st31 {
        fill: #2b2b30;
      }

      .st32 {
        fill: #7a7d82;
      }

      .st33 {
        fill: #b2b2b3;
      }

      .st34 {
        fill: #fff;
      }

      .st35 {
        fill: #67686c;
      }

      .st36 {
        fill: #444549;
      }

      .st37 {
        fill: #3c3d43;
      }

      .st38 {
        fill: #575759;
      }

      .st39 {
        fill: #070607;
      }
    </style>
    <linearGradient id="linear-gradient" x1="1401.13" y1="-904.45" x2="1504.91" y2="-793.01" gradientTransform="translate(1072 1390.5) scale(.5)" gradientUnits="userSpaceOnUse">
      <stop offset="0" stop-color="#010000"/>
      <stop offset="1" stop-color="#2b2d34"/>
    </linearGradient>
    <linearGradient id="linear-gradient1" x1="1488.61" y1="-793.68" x2="1475.42" y2="-789.93" gradientTransform="translate(1072 1390.5) scale(.5)" gradientUnits="userSpaceOnUse">
      <stop offset="0" stop-color="#80858a"/>
      <stop offset="1" stop-color="#a7a2a6"/>
    </linearGradient>
    <linearGradient id="linear-gradient2" x1="1460.39" y1="-823.87" x2="1457.11" y2="-821.54" gradientTransform="translate(1072 1390.5) scale(.5)" gradientUnits="userSpaceOnUse">
      <stop offset="0" stop-color="#6a706f"/>
      <stop offset="1" stop-color="#918c93"/>
    </linearGradient>
    <linearGradient id="linear-gradient3" x1="1462.26" y1="-876.76" x2="1449.24" y2="-912.29" gradientTransform="translate(1072 1390.5) scale(.5)" gradientUnits="userSpaceOnUse">
      <stop offset="0" stop-color="#000"/>
      <stop offset="1" stop-color="#282628"/>
    </linearGradient>
    <linearGradient id="linear-gradient4" x1="1511.42" y1="-722" x2="1522.08" y2="-743.67" gradientTransform="translate(1072 1390.5) scale(.5)" gradientUnits="userSpaceOnUse">
      <stop offset="0" stop-color="#444246"/>
      <stop offset="1" stop-color="#595b5d"/>
    </linearGradient>
    <linearGradient id="linear-gradient5" x1="1497.79" y1="-768.82" x2="1496.75" y2="-768.28" gradientTransform="translate(1072 1390.5) scale(.5)" gradientUnits="userSpaceOnUse">
      <stop offset="0" stop-color="#3f434a"/>
      <stop offset="1" stop-color="#606063"/>
    </linearGradient>
    <linearGradient id="linear-gradient6" x1="1598.54" y1="-800.26" x2="1601.77" y2="-805.36" gradientTransform="translate(1072 1390.5) scale(.5)" gradientUnits="userSpaceOnUse">
      <stop offset="0" stop-color="#353539"/>
      <stop offset="1" stop-color="#525151"/>
    </linearGradient>
    <linearGradient id="linear-gradient7" x1="1373.53" y1="-800.53" x2="1436.89" y2="-789.41" gradientTransform="translate(1072 1390.5) scale(.5)" gradientUnits="userSpaceOnUse">
      <stop offset="0" stop-color="#080809"/>
      <stop offset="1" stop-color="#262930"/>
    </linearGradient>
    <linearGradient id="linear-gradient8" x1="1379.41" y1="-836.35" x2="1426.3" y2="-844.09" gradientTransform="translate(1072 1390.5) scale(.5)" gradientUnits="userSpaceOnUse">
      <stop offset="0" stop-color="#5f5d61"/>
      <stop offset="1" stop-color="#727372"/>
    </linearGradient>
    <linearGradient id="linear-gradient9" x1="1539.82" y1="-615.11" x2="1536.02" y2="-615.3" gradientTransform="translate(1072 1390.5) scale(.5)" gradientUnits="userSpaceOnUse">
      <stop offset="0" stop-color="#404343"/>
      <stop offset="1" stop-color="#686665"/>
    </linearGradient>
    <linearGradient id="linear-gradient10" x1="1541.7" y1="-598.75" x2="1540.93" y2="-591.9" gradientTransform="translate(1072 1390.5) scale(.5)" gradientUnits="userSpaceOnUse">
      <stop offset="0" stop-color="#343134"/>
      <stop offset="1" stop-color="#484b4a"/>
    </linearGradient>
    <linearGradient id="linear-gradient11" x1="1360.85" y1="-778.64" x2="1342.73" y2="-759.64" gradientTransform="translate(1072 1390.5) scale(.5)" gradientUnits="userSpaceOnUse">
      <stop offset="0" stop-color="#141515"/>
      <stop offset="1" stop-color="#3d3d40"/>
    </linearGradient>
    <linearGradient id="linear-gradient12" x1="1365.05" y1="-743.23" x2="1357.76" y2="-743.54" gradientTransform="translate(1072 1390.5) scale(.5)" gradientUnits="userSpaceOnUse">
      <stop offset="0" stop-color="#080808"/>
      <stop offset="1" stop-color="#313133"/>
    </linearGradient>
    <linearGradient id="linear-gradient13" x1="1364.8" y1="-743.91" x2="1366.32" y2="-743.95" gradientTransform="translate(1072 1390.5) scale(.5)" gradientUnits="userSpaceOnUse">
      <stop offset="0" stop-color="#3a3b3c"/>
      <stop offset="1" stop-color="#565657"/>
    </linearGradient>
    <linearGradient id="linear-gradient14" x1="1355.14" y1="-743.57" x2="1353.36" y2="-742.36" gradientTransform="translate(1072 1390.5) scale(.5)" gradientUnits="userSpaceOnUse">
      <stop offset="0" stop-color="#252527"/>
      <stop offset="1" stop-color="#3d3e3e"/>
    </linearGradient>
    <linearGradient id="linear-gradient15" x1="1356.34" y1="-747.43" x2="1354.18" y2="-743.36" gradientTransform="translate(1072 1390.5) scale(.5)" gradientUnits="userSpaceOnUse">
      <stop offset="0" stop-color="#3f3f41"/>
      <stop offset="1" stop-color="#575757"/>
    </linearGradient>
    <linearGradient id="linear-gradient16" x1="1375.5" y1="-749.04" x2="1369.23" y2="-746.07" gradientTransform="translate(1072 1390.5) scale(.5)" gradientUnits="userSpaceOnUse">
      <stop offset="0" stop-color="#1b1b1c"/>
      <stop offset="1" stop-color="#38383a"/>
    </linearGradient>
    <linearGradient id="linear-gradient17" x1="1349.6" y1="-848.06" x2="1333.69" y2="-852.37" gradientTransform="translate(1072 1390.5) scale(.5)" gradientUnits="userSpaceOnUse">
      <stop offset="0" stop-color="#999a99"/>
      <stop offset="1" stop-color="#bab9ba"/>
    </linearGradient>
    <linearGradient id="linear-gradient18" x1="1722.75" y1="-686.46" x2="1714.82" y2="-709.58" gradientTransform="translate(1072 1390.5) scale(.5)" gradientUnits="userSpaceOnUse">
      <stop offset="0" stop-color="#3f3e43"/>
      <stop offset="1" stop-color="#545557"/>
    </linearGradient>
    <linearGradient id="linear-gradient19" x1="1723.48" y1="-695.98" x2="1716.08" y2="-694.43" gradientTransform="translate(1072 1390.5) scale(.5)" gradientUnits="userSpaceOnUse">
      <stop offset="0" stop-color="#111216"/>
      <stop offset="1" stop-color="#333134"/>
    </linearGradient>
    <linearGradient id="linear-gradient20" x1="1484.27" y1="-732.69" x2="1472.69" y2="-743.31" gradientTransform="translate(1072 1390.5) scale(.5)" gradientUnits="userSpaceOnUse">
      <stop offset="0" stop-color="#9d9f9f"/>
      <stop offset="1" stop-color="#bdbbbd"/>
    </linearGradient>
    <linearGradient id="linear-gradient21" x1="1546.89" y1="-676.87" x2="1599.45" y2="-694.3" gradientTransform="translate(1072 1390.5) scale(.5)" gradientUnits="userSpaceOnUse">
      <stop offset="0" stop-color="#525057"/>
      <stop offset="1" stop-color="#9c9d98"/>
    </linearGradient>
    <linearGradient id="linear-gradient22" x1="1602.33" y1="-580.9" x2="1602.64" y2="-583.26" gradientTransform="translate(1072 1390.5) scale(.5)" gradientUnits="userSpaceOnUse">
      <stop offset="0" stop-color="#888789"/>
      <stop offset="1" stop-color="#b0afb0"/>
    </linearGradient>
    <linearGradient id="linear-gradient23" x1="1607.88" y1="-583.36" x2="1609.16" y2="-579.07" gradientTransform="translate(1072 1390.5) scale(.5)" gradientUnits="userSpaceOnUse">
      <stop offset="0" stop-color="#69696c"/>
      <stop offset="1" stop-color="#7d7d7c"/>
    </linearGradient>
    <linearGradient id="linear-gradient24" x1="1499.21" y1="-725.79" x2="1499.96" y2="-716.46" gradientTransform="translate(1072 1390.5) scale(.5)" gradientUnits="userSpaceOnUse">
      <stop offset="0" stop-color="#484647"/>
      <stop offset="1" stop-color="#656668"/>
    </linearGradient>
    <linearGradient id="linear-gradient25" x1="1494.69" y1="-733.18" x2="1491.67" y2="-732.21" gradientTransform="translate(1072 1390.5) scale(.5)" gradientUnits="userSpaceOnUse">
      <stop offset="0" stop-color="#6f7074"/>
      <stop offset="1" stop-color="#979797"/>
    </linearGradient>
    <linearGradient id="linear-gradient26" x1="1534.8" y1="-709.25" x2="1534.12" y2="-707.39" gradientTransform="translate(1072 1390.5) scale(.5)" gradientUnits="userSpaceOnUse">
      <stop offset="0" stop-color="#808081"/>
      <stop offset="1" stop-color="#a5a5a4"/>
    </linearGradient>
  </defs>
  <path class="st39" d="M1774.88,937.94c5.03-.79,8.75-.9,13.61,1.09,1.82-.55,6.2-.25,8.06.27.71.2,2.97.88,3.56.92,2.45.16,4.79.2,7.25.4,6.03.49,10.55,1.92,16.14,3.98,14.91,5.6,31.64,16.23,43.49,26.83,4.6,4.19,8.96,8.64,13.06,13.33,1.93,2.2,4.93,5.55,6.56,7.85-.02-1.96.18-4.41,1.61-5.83,3-2.98,6.81-1.03,6.71,3.08-.09,3.77-2.62,5.75-3.22,9.21.51.66,1.34,1.77,1.9,2.32,2.83,2.75,6.6,5.22,9.96,7.29l10.57,6.58c2.68,1.7,5.47,3.34,7.89,5.42,2.6,2.23,5.31,4.83,7.53,7.44,3.19,3.73,4.98,8.69,6.35,13.33.54,1.83,1.39,3.57,1.99,5.37,1,3.1,1.03,6.99.62,10.19-.19,1.4-.43,2.79-.73,4.17-.11.5-.52,2.27-.53,2.69-.06,1.67,1.1,2.25.9,4.21-.29,3.08-1.79,5.96-3.36,8.57-.45.75-.87,2-1.49,2.57-1.91,1.74-4.03,3.68-6.07,5.24-12.28,9.5-26.72,15.8-42.03,18.35-5.78.98-10.6,1.48-16.51.72-3.75-.48-5.77-2.01-9.08-3.72-3.48,1.24-7.53,2.9-11.15,1.17-1.57-.75-3.15-2.14-4.58-3.14-5.14-3.58-8.08-13.01-8.05-19-3.14-2.29-5.89-5.05-8.92-7.5-.78-.62-1.54-1.45-2.34-2.05-4.7-3.53-9.37-7.12-14.05-10.68l-21.95-16.83c-4.2-3.25-9.03-7.07-13.37-10.07-1.55-1.08-3.12-2.12-4.72-3.14-1.09-.69-2.74-1.63-3.69-2.41-1.39.99-3.53,1.62-5.19,1.94-11.62,2.25-18.12-13.44-18.44-22.72-.66-.42-1.5-.87-1.93-1.54-.96-1.5-4.04-11.41-4.5-13.5-.45-2-.89-4.08-1.06-6.13-.17-1.96.19-3.82.2-5.77,0-4.82-1.2-11.86,1.51-16.04,1.66-2.56,4.35-4.36,6.02-6.91,0-2.14.58-3.52,2.33-4.82.65-.84,4.17-3.52,5.15-4.04,1.84-1.67,9.35-5.05,11.77-5.7,2.43-1.21,9.56-2.76,12.22-3.02h0v.03h0Z"/>
  <path class="st11" d="M1818.98,963.11c1.46-.1,2.92-.35,4.38-.48,3.83-.33,7.59.38,11.38.82.68.08,1.66.17,2.35.16.38,0,1.43,0,1.72.19l1.1.08c1.41.56,4.18,2.63,5.68,3.45-.37-.95-.78-1.84-1.19-2.77.72.02,1.79.27,2.5.47,3.46.75,5.83,1.19,8.21,3.9.34.39.79.95,1.3.98l-.02.06c-2.74,1.46-5.73,2.8-8.52,4.19-.74.37-3.53,1.75-4.22,1.92-.87.18-5.14,2.1-6.29,2.59-4.84,2.02-9.71,3.96-14.6,5.83-1.77.68-3.83,1.54-5.64,2.08-.98.3-3.36-3.12-4.43-3.69-2.93-2.91-7.18-6.01-10.43-8.62-1.24-.99-3.6-2.25-4.66-3.3l.28-.09c.78,0,10.06-5.12,11.82-5.84,3.31-1.34,6.01-1.06,9.16-1.89l.17-.04h-.05,0Z"/>
  <path class="st36" d="M1837.08,963.61c.38,0,1.43,0,1.72.19.16.46,1.51,1.04,2.01,1.34,1.63,1,3.24,2.03,4.85,3.06.36.73.56,1.36.82,2.14-.28-.11-.55-.22-.83-.35-.52-.24-1.76-1.03-2.22-1.4-1.5-1.21-5.74-3.33-6.34-4.99h-.01Z"/>
  <path class="st36" d="M1837.49,965.62c.15,0,.22,0,.36.07,1.9.99,2.54,1.56,3.25,3.52-.82-.4-.97-1.17-1.27-2-.64-.38-1.91-1.07-2.34-1.58h0Z"/>
  <path class="st35" d="M1801.56,949.37c2.88-.41,5.67-.52,8.53-.8,4.01-.38,6.9.05,10.83.72,1.32.21,2.62.49,3.91.83.6.15,1.99.55,2.49.6.32.31,1.24.82,1.64.93.43.18.87.36,1.29.57.51.55.58.9.17,1.53-.18.06-.35.14-.52.22-.71.21-1.42.41-2.13.59-.79.24-3.7,1.07-4.28,1.44l-1.25.28c-2.42.9-12.99,4.91-14.57,6.21l.03.2-.14.16c-.22.24-.39.4-.47.72.69.55,1.06.63,1.93.79-.85.62-2.84,1.45-3.92,2.05-3.5,1.93-7.19,3.72-10.52,5.95l-.25-.07c-.21-.26-1.43-1.09-1.81-1.35-4.92-3.47-9.82-6.09-15.28-8.59-.17-.09-1.39-.47-1.7-.58-1.27-.45-2.52-.93-3.77-1.42,1.72-1.01,3.32-2.26,5.13-3.17,6.15-3.45,11.33-6.01,17.98-8.51.13.61.23.82.96.9,1.87.21,3.83-.25,5.72-.19h0Z"/>
  <path class="st37" d="M1776.9,957.17c.48.67.92.9,1.75.81,1.84-.2,3.81-.64,5.62-1.01-1.48.85-5.66,2.67-1.52,3.53,4.55.95,9.23.21,13.8.13,1.94-.04,3.89.04,5.82.25.89.09,2.62.18,3.08.99-.1.83-1.75,1.73-2.45,2.55l.12.15h.07c1.09.09,2.9-.52,3.87-1.02.69.55,1.06.63,1.93.79-.85.62-2.84,1.45-3.92,2.05-3.5,1.93-7.19,3.72-10.52,5.95l-.25-.07c-.21-.26-1.43-1.09-1.81-1.35-4.92-3.47-9.82-6.09-15.28-8.59-.17-.09-1.39-.47-1.7-.58-1.27-.45-2.52-.93-3.77-1.42,1.72-1.01,3.32-2.26,5.13-3.17h.03Z"/>
  <path class="st31" d="M1779.44,960.39c4.41.72,8.79,3.56,12.69,5.72,1.2.67,2.63,1.7,3.88,2.19,1.16-.56,6.61-3.03,7.13-3.72h.07c1.09.09,2.9-.52,3.87-1.02.69.55,1.06.63,1.93.79-.85.62-2.84,1.45-3.92,2.05-3.5,1.93-7.19,3.72-10.52,5.95l-.25-.07c-.21-.26-1.43-1.09-1.81-1.35-4.92-3.47-9.82-6.09-15.28-8.59,2.31-.48,5.75,3.26,7.44,1.41-.26-.88-4.23-2.77-5.25-3.36h.02Z"/>
  <path class="st32" d="M1801.56,949.37c2.88-.41,5.67-.52,8.53-.8,4.01-.38,6.9.05,10.83.72,1.32.21,2.62.49,3.91.83.6.15,1.99.55,2.49.6.32.31,1.24.82,1.64.93.43.18.87.36,1.29.57.51.55.58.9.17,1.53-.18.06-.35.14-.52.22-.71.21-1.42.41-2.13.59-.79.24-3.7,1.07-4.28,1.44l-1.25.28c-.77-.27-1-1.42-1.55-1.65-1.91-.79-4.28-.83-6.3-.91-.94-.03-4.91.17-5.44-.29.04-.3.42-.56.68-.81l-.79-1c-.42-.11-2.44.12-2.94.17-3.9.38-8.26,1.4-11.99,2.51-4.15,1.24-5.3,2.41-9.76,2.8,3.3-2.15,8.79-4.34,12.47-5.91,1.22-.52,3.96-1.22,4.95-1.82h-.01Z"/>
  <path class="st29" d="M1827.77,954.56c.04-.37.25-1.16.34-1.55.49.25,1.51.59,1.8.96-.71.21-1.42.41-2.13.59h-.01Z"/>
  <path class="st33" d="M1820.23,950.24c1.56-.03,4.73,1.48,6.3,2.13-.18.7-.35,1.58-.5,2.29-.17-.08-1.15-.72-1.33-.84-.87-.61-4.52-2.25-4.7-3.38l.22-.2h0Z"/>
  <path class="st36" d="M1807.66,962.49l.03.2-.14.16c-.22.24-.39.4-.47.72-.97.5-2.78,1.11-3.87,1.01.13-.15,3.85-1.78,4.45-2.08h0Z"/>
  <path class="st30" d="M1787.47,941.95h.2c1.52-.08,3.41-.38,5.15-.47,5.28-.28,10.58-.07,15.82.64-.5.56-1.65.97-2.39,1.05-1.74.34-4.04.73-5.75,1.15-3.15.82-6.22,1.74-9.31,2.73-.92.29-5.38,2.14-5.99,2.22-.33.14-.62.22-.84.46.31.21.84.12,1.27.11.62-.17,1.37-.28,2.01-.39,1.14-.07,3.95-.89,5.25-1.19,1.55-.35,3.3-.62,4.79-.98l.04.16c-1.06.34-2.13.68-3.17,1.07l.33.18c-6.65,2.5-11.83,5.06-17.98,8.51-1.8.91-3.4,2.15-5.13,3.17,1.25.49,2.51.97,3.77,1.42.3.11,1.52.49,1.7.58,5.45,2.5,10.36,5.12,15.28,8.59.38.27,1.6,1.09,1.81,1.35l.03.11c.29.27.16.22.5.3.52-.94,1.82-1,2.45-1.46l.25-.26c1.06,1.05,3.43,2.31,4.66,3.3,3.25,2.61,7.5,5.71,10.43,8.62,1.07.57,3.45,3.99,4.43,3.69,1.81-.54,3.87-1.4,5.64-2.08,4.9-1.87,9.76-3.82,14.6-5.83,1.16-.49,5.42-2.4,6.29-2.59l.05.33-.18.1c-.79.41-2.09.92-2.93,1.27-1.98.86-3.98,1.69-5.99,2.49-4.7,1.92-9.43,3.77-14.18,5.58-2.6,1.01-5.18,2.12-7.8,3.08-.19.07-.75-.08-.97-.13.03.46,1.54,2.63,1.43,2.94l-.27-.39c.18.44.89,1.94.96,2.2-.86-.72-2.2-3.18-2.89-4.2-.61-.9-1.18-1.55-1.89-2.36-.8-.6-1.35-1.82-2.39-1.78l-.7-.85c.12-.23.18-.52.25-.78-2.28-2.21-4.99-4.96-7.32-7.04-1.08.52-2.13-1.65-3.21-1.68-.44-.24-1.57-1.12-2.04-1.46-1.34-.98-2.64-1.89-4.01-2.81-6.34-4.26-12.43-7.03-19.73-9.24-.99.38-1.85,1.12-2.68,1.48l-.35-.12c.89-.64,1.57-1.08,2.55-1.56-1.71-.39-3.59-.91-5.31-1.34l.44-.17c.57.05,1.33.13,1.88.15-.06-.07-.12-.15-.18-.23-.71-.99-10.97-1.79-11.91-2.56-.34-.27-.28-.55-.32-.96.06-.11.11-.23.18-.34.79-1.37,2.67-2.82,3.95-3.73,5.84-4.13,11.99-6.42,18.85-8.32l1.91-.47c.35-.01,1.61-.35,2.01-.44,1.15-.27,2.3-.52,3.45-.75l.21.26c1.18-.2,1.79-.34,2.99-.31h0v-.02h0Z"/>
  <path class="st31" d="M1787.47,941.95h.2c1.52-.08,3.41-.38,5.15-.47,5.28-.28,10.58-.07,15.82.64-.5.56-1.65.97-2.39,1.05-1.74.34-4.04.73-5.75,1.15-3.15.82-6.22,1.74-9.31,2.73-.92.29-5.38,2.14-5.99,2.22-.33.14-.62.22-.84.46-2.67,1-6.68,2.84-9.07,4.17-4.13,2.29-6.57,3.72-11.52,2.56-.78-.18-2.66-.24-3.25-.66l-.7.14c-.74-.38-2.18-.06-2.53-.76.23-.9,1.13-.98,1.37-1.7-.7.16-1.41.24-2.12.32.35-.28.78-.58,1.15-.84,5.38-4.31,14.74-7.74,21.34-9.4.57-.19,4.96-1.26,5.45-1.31,1.18-.2,1.79-.34,2.99-.31h0Z"/>
  <path class="st35" d="M1787.47,941.95h.2c1.52-.08,3.41-.38,5.15-.47,5.28-.28,10.58-.07,15.82.64-.5.56-1.65.97-2.39,1.05-1.74.34-4.04.73-5.75,1.15-5.54-.13-10.65.51-16.05,1.61-7.56,1.55-15.14,3.14-22.23,6.27-1.12.49-2.44.77-3.57,1.29-.7.16-1.41.24-2.12.32.35-.28.78-.58,1.15-.84,5.38-4.31,14.74-7.74,21.34-9.4.57-.19,4.96-1.26,5.45-1.31,1.18-.2,1.79-.34,2.99-.31h.01Z"/>
  <path class="st37" d="M1779.02,943.56c.38.03.54.06.92-.02l.07.03.13-.03-.41.15.03.09-.2.07c-1.23.45-2.71.68-3.95,1.06-6.07,1.85-11.46,4.89-17.01,7.87-.25.14-.64.17-.93.16,5.38-4.31,14.74-7.74,21.34-9.4h0v.02h.01Z"/>
  <path class="st31" d="M1784.48,942.25c1.18-.2,1.79-.34,2.99-.31-1.01.44-6.39,1.61-7.7,1.84l-.03-.09.41-.15-.13.03-.07-.03c-.38.08-.54.05-.92.02.57-.19,4.96-1.26,5.45-1.31h0Z"/>
  <path class="st29" d="M1775.66,951.78c.64,0,7.25-2.08,8.53-2.45l.17.39c-2.67,1-6.68,2.84-9.07,4.17-4.13,2.29-6.57,3.72-11.52,2.56-.78-.18-2.66-.24-3.25-.66,1.04-.34,2.2-.56,3.38-.95,2.24-.75,4.66-1.7,6.97-2.23.14-.03.37.22.52.35l.59.11c.08-.05.16-.1.24-.15.77-.46,1-.05,1.84-.02.3-.16.36-.37.53-.69l.07-.14c.31-.06.15-.06.52.16.29-.09.27-.17.5-.47h0l-.02.02h0Z"/>
  <path class="st35" d="M1771.38,952.96c.32-.34.66-.36,1.12-.75-.17-.29-.44.07-.81-.18.66-.57,2.88-.21,3.75-.24h.21c-.23.28-.21.37-.5.45-.37-.22-.21-.22-.52-.16l-.07.14c-.17.32-.22.53-.53.69-.83-.03-1.07-.44-1.84.02-.08.05-.16.1-.24.15l-.59-.11h.02Z"/>
  <path class="st35" d="M1784.19,949.32c.49-.11.52-.12,1.01-.07-.33.14-.62.22-.84.46l-.17-.39h0Z"/>
  <path class="st35" d="M1797.69,947.26l.04.16c-1.06.34-2.13.68-3.17,1.07-8.5,2.88-15.84,6.91-23.32,11.75-4.47-1.27-10.26-2.82-14.94-3.04,1.14-.45,2.34-.98,3.52-1.27l.7-.14c.6.42,2.47.47,3.25.66,4.95,1.16,7.39-.27,11.52-2.56,2.4-1.33,6.4-3.17,9.07-4.17.31.21.84.12,1.27.11.62-.17,1.37-.28,2.01-.39,1.14-.07,3.95-.89,5.25-1.19,1.55-.35,3.3-.62,4.79-.98h0Z"/>
  <path class="st29" d="M1785.63,949.82c.62-.17,1.37-.28,2.01-.39l.47.13c-.18.25-.03.14-.3.26-3.4,1.44-6.91,3.12-10.16,4.86-1.83.98-3.36,1.98-5.14,2.85.12-.23.37-.69.58-.84,2.66-1.97,5.91-3.61,8.91-4.99.98-.45,2.91-1.27,3.62-1.87h.01Z"/>
  <path class="st33" d="M1770.95,960.65c8.73,2.73,15.5,6.45,22.86,11.92,1.68,1.25,3.49,2.51,4.97,3.96-1.08.52-2.13-1.65-3.21-1.68-.44-.24-1.57-1.12-2.04-1.46-1.34-.98-2.64-1.89-4.01-2.81-6.34-4.26-12.43-7.03-19.73-9.24l1.16-.69h0Z"/>
  <path class="st37" d="M1797.56,970.98c1.06,1.05,3.43,2.31,4.66,3.3,3.25,2.61,7.5,5.71,10.43,8.62-.62-.04-2-1.41-2.55-1.91-2.46-2.17-5.02-4.22-7.66-6.16-.85-.61-4.68-3.09-5.13-3.59l.25-.26h0Z"/>
  <path class="st33" d="M1764.01,959.8l.44-.17c.57.05,1.33.13,1.88.15,1.4.12,2.78.34,4.15.64-.4.26-.74.49-1.16.72-1.71-.39-3.59-.91-5.31-1.34h0Z"/>
  <path class="st38" d="M1806.12,983.57c.69.67,2.78,2.55,2.84,3.4-.8-.6-1.35-1.82-2.39-1.78l-.7-.85c.12-.23.18-.52.25-.78h0Z"/>
  <path class="st38" d="M1797.85,970.89c.93-.71,4.71-2.7,5.81-3.28,6.76-3.64,13.76-6.84,20.93-9.57,3.26-1.27,8.15-3.06,11.56-3.59,6.66,4.36,13.58,8.99,19.58,14.31.37.33.72.66.65,1.16-.51-.03-.95-.59-1.3-.98-2.38-2.71-4.75-3.15-8.21-3.9-.7-.2-1.78-.44-2.5-.47.42.93.83,1.82,1.19,2.77-1.5-.82-4.26-2.9-5.68-3.45l-1.1-.08c-.28-.18-1.34-.18-1.72-.19-.68.01-1.67-.08-2.35-.16-3.79-.43-7.55-1.15-11.38-.82-1.45.13-2.91.37-4.38.48l-.17.04c-3.15.83-5.85.55-9.16,1.89-1.76.71-11.04,5.85-11.82,5.84h.05,0Z"/>
  <path class="st35" d="M1818.98,963.11c.14-.04.24-.07.35-.17,1.22-1.04,9.7-4.14,11.73-4.86,1.99,1.33,3.98,2.64,5.99,3.93.72.47,2.25,1.36,2.84,1.87l-1.1-.08c-.28-.18-1.34-.18-1.72-.19-.68.01-1.67-.08-2.35-.16-3.79-.43-7.55-1.15-11.38-.82-1.45.13-2.91.37-4.38.48h.02Z"/>
  <path class="st29" d="M1835.15,956.76c1.86.74,3.68,2.3,5.37,3.43.81.54,2.08,1.37,2.81,1.95.53.73.61,1.61,1.05,2.43.42.93.83,1.82,1.19,2.77-1.5-.82-4.26-2.9-5.68-3.45-.59-.51-2.12-1.4-2.84-1.87-2.01-1.3-4-2.61-5.99-3.93,1.31-.45,2.76-1,4.09-1.33h0Z"/>
  <path class="st35" d="M1843.33,962.14c1.09.49,2.51,1.7,3.43,2.49.08.22.07.18.11.4-.7-.2-1.78-.44-2.5-.47-.44-.81-.51-1.7-1.05-2.43h.01Z"/>
  <path class="st37" d="M1767.11,962.82c.83-.36,1.69-1.1,2.68-1.48,7.3,2.21,13.39,4.98,19.73,9.24,1.37.92,2.68,1.83,4.01,2.81.47.34,1.6,1.22,2.04,1.46,1.08.03,2.12,2.21,3.21,1.68,2.34,2.09,5.04,4.83,7.32,7.04-.07.25-.14.55-.25.78l.7.85c1.04-.04,1.59,1.18,2.39,1.78.71.82,1.27,1.47,1.89,2.36.69,1.02,2.03,3.48,2.89,4.2.38.67,1.19,1.66,1.45,2.24.65,1.44,2.65,4.18,3.08,5.54.28,1.02.83,1.71,1.06,2.62-.12.13-.05.1-.18.13,1.28,2.23,2.51,4.83,3.73,7.13.04-.18.07-.36.09-.55l.31-.13c.09.17.36.63.42.79l-.14.43c-.15.61.2,1.29.59,1.77.6,1.36,1.16,2.73,1.74,4.1.42.97,1.06,2.09,1.4,3.07-.72-.54-.94-1.35-1.47-2.02-3.02-3.78-4.76-8.21-7.14-12.33-2.16-3.82-4.42-7.59-6.79-11.29-1.55-2.46-3.47-5.37-5.41-7.55-4.94-5.57-10.71-10.4-16.98-14.41-2.03-1.26-4.14-2.83-6.3-3.87-5-2.4-10.61-4.99-16-6.21l-.11-.18h.04Z"/>
  <path class="st3" d="M1806.56,985.2c1.04-.04,1.59,1.18,2.39,1.78.71.82,1.27,1.47,1.89,2.36.69,1.02,2.03,3.48,2.89,4.2.38.67,1.19,1.66,1.45,2.24.65,1.44,2.65,4.18,3.08,5.54.28,1.02.83,1.71,1.06,2.62-.12.13-.05.1-.18.13-.83-1.17-1.51-2.75-2.22-4.01-2.28-4.03-4.43-8.17-7.65-11.55-.78-.82-2.24-2.34-2.71-3.31h0Z"/>
  <path class="st2" d="M1795.59,974.85c1.08.03,2.12,2.21,3.21,1.68,2.34,2.09,5.04,4.83,7.32,7.04-.07.25-.14.55-.25.78-1.83-2.2-3.92-4.44-6.12-6.25-.76-.62-3.76-2.78-4.16-3.25h0Z"/>
  <path class="st37" d="M1822.88,1011.2c.04-.18.07-.36.09-.55l.31-.13c.09.17.36.63.42.79l-.14.43c-.21-.37-.22-.44-.6-.35l-.08-.18h0Z"/>
  <path class="st31" d="M1774.88,937.94l.09.2c.72.16,6.01-.72,7.14-.23.45.3,3.03.76,3.72.9-.51.33-1.7.21-2.37.28-2.18.2-4.36.41-6.54.63-9.35,1.44-18.57,4.69-26.25,10.3-1.98,1.45-4.63,4.39-6.03,6.24-.21-1.55-.34-2.67.41-4.11l-.17-.2c.33-.38.61-.65.97-1l-.12-.25c.65-.84,4.17-3.52,5.15-4.04,1.84-1.67,9.35-5.05,11.77-5.7,2.43-1.21,9.56-2.76,12.22-3.02h.01Z"/>
  <path class="st39" d="M1750.88,946.66c1.84-1.67,9.35-5.05,11.77-5.7v.17l-.12.04c-1.61.55-3.34,1.56-4.95,1.98-1.57.41-5.56,3.38-6.71,3.51h0Z"/>
  <path class="st35" d="M1745.85,950.95l.06.13c-.26.44-.52.7-.86,1.07l-.17-.2c.33-.38.61-.65.97-1Z"/>
  <path class="st36" d="M1749.61,957.14c2.38-.81,3.3-1.62,5.13-3.23-.37.49-1.6,2.06-1.08,2.65l.17-.08.09-.44c.04.41-.02.68.32.96.95.77,11.2,1.58,11.91,2.56.06.08.12.15.18.23-.55-.01-1.31-.1-1.88-.15l-.44.17c1.72.44,3.6.96,5.31,1.34-.98.48-1.67.92-2.55,1.56-.05.03-.28.15-.32.14-4.77-.97-9.62-1.8-14.49-1.95-.64-.02-1.26-.02-1.62.54-.32.22-.29.23-.68.24-.81-.3-1.3-1.78-2.02-2.53l-.29-.35c-.13-.24-.2-.48-.3-.73l.24-.13c.45-.21,1.02-.31,1.52-.42.11-.07.67-.31.82-.38h-.02Z"/>
  <path class="st31" d="M1749.61,957.14c2.38-.81,3.3-1.62,5.13-3.23-.37.49-1.6,2.06-1.08,2.65l.17-.08.09-.44c.04.41-.02.68.32.96.95.77,11.2,1.58,11.91,2.56.06.08.12.15.18.23-.55-.01-1.31-.1-1.88-.15l-.44.17c-.43-.06-1.07-.11-1.36-.42-.41-.19-1.46-.18-1.94-.28-3.36-.69-7.24-.3-10.51-.77.38,0,.61.03.93-.17-.21-.2-.29-.14-.64-.18-.39-.31-.54-.47-.88-.83h0v-.02h0Z"/>
  <path class="st29" d="M1762.66,959.38c.28.03,1.58.18,1.8.25l-.44.17c-.43-.06-1.07-.11-1.36-.42h0Z"/>
  <path class="st11" d="M1748.79,957.52c.11-.07.67-.31.82-.38.34.37.49.53.88.83.35.04.43-.01.64.18-.32.2-.55.16-.93.17-.53,0-1.05-.08-1.57-.14h-.38c-.39-.06-.63-.06-.98-.25.45-.21,1.02-.31,1.52-.42h0Z"/>
  <path class="st39" d="M1748.63,958.19c.82-.23,1.03-.24,1.86-.22.35.04.43-.01.64.18-.32.2-.55.16-.93.17-.53,0-1.05-.08-1.57-.14h0Z"/>
  <path class="st33" d="M1800.81,940.66c7.42.11,15.66,1.41,22.57,4.2,18.09,6.98,35.73,19.25,49.59,32.77,3.39,3.31,7.41,8.02,10.49,11.68,2.92,3.46,10.39,12.08,10.83,16.48h-.24c-.56-1.64-1.03-2.71-2.04-4.13-.62-1.18-4.31-6.23-5.24-7.15-.15-.38-1.91-2.48-2.26-2.9-3.46-4.23-7.1-8.35-10.91-12.27-1.31-1.32-2.83-2.52-4.15-3.83-9.34-9.26-20.07-16.79-31.58-23.12-1.59-.87-3.21-1.89-4.82-2.7-4.95-2.49-10.13-4.75-15.45-6.29-5.87-1.66-11.94-2.51-18.03-2.51l-.39-.13.03-.06c.52-.06,1.09-.04,1.61-.05h0Z"/>
  <path class="st35" d="M1830.92,951.51c1.91.18,5.14,1.64,6.41,1.44.12-.02.34-.07.45-.06,1.21.06,16.05,9.91,18.01,11.41,1.56,1.18,3.11,2.39,4.63,3.63-.44.35-.66.62-1.21.61-.22-.12-.44-.31-.64-.47-.58,0-3.22-1.06-4.38-1.22-1.58-.95-3.49-2.66-5.03-3.83-3.15-2.41-6.41-4.69-9.75-6.84-3.3-2.13-4.78-3.28-8.49-4.66h0Z"/>
  <path class="st33" d="M1765.57,943.21c2.07-.61,11.76-3.36,13.33-2.78-.4.45-1.08.31-1.2.3-.77-.09-7.46,1.53-7.58,1.85-.98,2.7-6.14,4.27-7.86,6.17,1.73-.64,3.44-1.63,5.06-2.24,3.02-1.13,6.45-2.3,9.54-3.13l.03.26c-6.86,1.9-13.01,4.19-18.85,8.32-1.28.9-3.16,2.36-3.95,3.73-.06.11-.12.22-.18.34l-.09.44-.17.08c-.51-.59.71-2.16,1.08-2.65-1.82,1.61-2.75,2.43-5.13,3.23-.15.07-.71.31-.82.38-.49.11-1.07.21-1.52.42l-.24.13c-.43-.11-.77-.37-1.15-.61,2.44-1.26,5.14-2.15,7.48-3.73,1.37-.93,2.35-2.12,3.55-3.21,1.8-1.64,3.72-3.14,5.5-4.8.82-.76,2.71-1.46,3.15-2.49h.02,0Z"/>
  <path class="st29" d="M1745.13,956.93c.15-.46,1.46-1.83,1.84-2.25,4.83-5.35,11.76-9.36,18.61-11.47-.44,1.03-2.33,1.74-3.15,2.49-1.78,1.66-3.7,3.17-5.5,4.8-1.2,1.09-2.19,2.28-3.55,3.21-2.33,1.59-5.03,2.47-7.48,3.73.38.24.72.51,1.15.61.1.26.18.49.3.73-.63-.07-1.21-.08-1.79-.33-.39-.47-.1-.95-.43-1.54h0v.02h0Z"/>
  <path class="st5" d="M1788.49,939.02c1.82-.55,6.2-.25,8.06.27.71.2,2.97.88,3.56.92,2.45.16,4.79.2,7.25.4,6.03.49,10.55,1.92,16.14,3.98l-.11.27c-6.91-2.8-15.15-4.1-22.57-4.2-.53,0-1.09,0-1.61.05l-.03.06.39.13-1.26-.02c-3.77,0-10.39.3-14.04,1.12-1.16.23-2.3.48-3.45.75-.4.09-1.66.42-2.01.44l-1.91.47-.03-.26c.41-1.13,2.12-1.13,2.65-2.38l-.21-.16c1-1.17,7.92-.31,9.19-1.82h0v-.02h-.01Z"/>
  <path class="st36" d="M1796.9,940.74c1.25-.16,2.66-.22,3.91-.07-.53,0-1.09,0-1.61.05l-.03.06.39.13-1.26-.02c-.42-.06-.97-.1-1.41-.14h.01Z"/>
  <path class="st38" d="M1776.87,943.39c.65-.17,1.36-.44,1.94-.21l-1.91.47-.03-.26h0Z"/>
  <path class="st38" d="M1822.24,956.28l1.25-.28c1.35.2,3.45-.31,4.51.34-4.37,1.64-8.2,3.12-12.48,5.03-1.83.82-4.83,2.36-6.5,2.98-.87-.17-1.24-.25-1.93-.79.07-.32.25-.47.47-.72l.14-.16-.03-.2c1.59-1.3,12.15-5.3,14.57-6.21h0Z"/>
  <path class="st10" d="M1824.15,1013.51c.41.16.67.58.66,1.03l.68.31c2.79,5.48,5.84,11.01,9.66,15.83.78.98,1.41,1.66,2.05,2.74-.78-.02-1.52-.03-2.3-.12-1.61-3.07-3.24-6.22-5.19-9.11-.25-.38-1.1-.91-1.21-1.29-.34-.71-.82-1.53-1.2-2.22-.35-.98-.99-2.1-1.4-3.07-.59-1.37-1.14-2.74-1.74-4.1h-.01Z"/>
  <path class="st29" d="M1824.15,1013.51c.41.16.67.58.66,1.03.69,1.5,1.4,3,2.11,4.49.38.78,1.72,3.08,1.57,3.88-.34-.71-.82-1.53-1.2-2.22-.35-.98-.99-2.1-1.4-3.07-.59-1.37-1.14-2.74-1.74-4.1h0Z"/>
  <path class="st29" d="M1743.54,956.01c.36.75.72,1.37,1.59.92.33.59.04,1.08.43,1.54.58.25,1.16.25,1.79.33l.29.35c-.83,1.17-1.59,0-.66,2.84l-.05.08c-1.94-.65-3.85-1.38-5.79-2.04.79-1.56,1.43-2.62,2.4-4.03h0Z"/>
  <path class="st35" d="M1830.25,952.23c1.31-.28,3.2.57,4.3,1.27l.81.54c-2.47.7-4.92,1.47-7.36,2.3-1.06-.66-3.17-.14-4.51-.34.57-.37,3.48-1.2,4.28-1.44.72-.18,1.43-.37,2.13-.59.17-.08.34-.15.52-.22.42-.63.35-.98-.17-1.53h0Z"/>
  <path class="st35" d="M1747.64,959.15c.72.75,1.21,2.23,2.02,2.53.38-.01.36-.01.68-.24.22,1.03.41,1.13,1.16,1.85-1.53-.22-3.17-.52-4.57-1.21l.05-.08c-.93-2.84-.17-1.67.66-2.84h0Z"/>
  <path class="st9" d="M1818.26,1001.32c1.19,1.15,4.17,7.4,5.01,9.2l-.31.13c-.02.19-.04.37-.09.55-1.22-2.31-2.45-4.91-3.73-7.13.12-.03.06,0,.18-.13-.23-.91-.78-1.6-1.06-2.62h0Z"/>
  <path class="st38" d="M1808.64,942.11c1.99.3,4.08.57,6,1.14-3.53.46-4.8.15-8.39-.1.73-.08,1.88-.49,2.39-1.05h0Z"/>
  <path class="st38" d="M1854.2,966.85c1.16.16,3.8,1.22,4.38,1.22.2.16.42.35.64.47v.06l-.13.17c-.66.49-1.78.98-2.57,1.41l-.16-.19.02-.06c.14-.04.26-.11.4-.18l.08-.22c-.17-.48-2.06-2.03-2.65-2.67h-.01Z"/>
  <path class="st11" d="M1859.09,968.76c-.4-.18-1-.22-1.18-.34.23-.25.35-.25.68-.35.2.16.42.35.64.47v.06l-.13.17h-.01Z"/>
  <path class="st35" d="M1856.36,969.98l.16.19c-1.71.9-3.76,2.12-5.43,2.91-1.56.73-3.12,1.44-4.7,2.14-.82.36-1.96.8-2.72,1.2l-.05-.33c.69-.17,3.48-1.55,4.22-1.92,2.79-1.38,5.78-2.73,8.52-4.19h0Z"/>
  <path class="st11" d="M1886.76,994.51c.94.92,4.63,5.97,5.24,7.15-.03,0-.31-.08-.34-.1-.96-.6-3.77-4.55-4.23-5.42l.06-.1c.48.45,1.26,2.02,1.7,2.18.2-.66-2.1-2.51-2.43-3.71h0Z"/>
  <path class="st29" d="M1744.88,951.95l.17.2c-.74,1.44-.62,2.56-.41,4.11l-.27.19-.23-.06c-.22-.28-.28-.69-.28-1.04,0-1.42.07-2.34,1.02-3.4h0Z"/>
  <path class="st36" d="M1823.7,1011.31c.61,1.17,1.24,2.33,1.79,3.54l-.68-.31c.01-.44-.25-.87-.66-1.03-.39-.47-.74-1.15-.59-1.77l.14-.43h0Z"/>
  <path class="st36" d="M1860.87,968.32c1.05,1.14,1.69,1.71,2.78,2.77-.38-.08-1.92-1.15-2.53-1.45-.2-.54-.3-.74-.25-1.32h0Z"/>
  <path class="st38" d="M1860.43,967.93c.14.12.31.26.44.39-.05.58.06.78.25,1.32-.62-.24-1.54-.94-1.89-1.05v-.06c.54,0,.76-.27,1.2-.61h0Z"/>
  <path class="st29" d="M1782.1,937.91c1.35.03,3.66.58,4.95,1.02l.06.08c-.54-.04-.76-.04-1.29-.2-.69-.14-3.27-.6-3.72-.9h0Z"/>
  <path class="st38" d="M1827.32,950.73c.54.07,1.83.24,2.29.42-.06.3-.26.3-.55.36l-.11.14c-.4-.1-1.32-.62-1.64-.93h.01Z"/>
  <path class="st36" d="M1894.05,1005.78h.24c.07.69.26,2.08-.15,2.62-.12-.54-.08-1.99-.09-2.62h0Z"/>
  <path class="st11" d="M1797.69,947.26c.37-.15,1.05-.42,1.42-.35-.22.31-1.01.47-1.38.5l-.04-.16h0Z"/>
  <path class="st11" d="M1864.62,972.15l.19-.2c.5.03,1.57,1.09,1.96,1.45l-.04.3-.08.04c.47.65,1.05.95,1.24,1.68,3.46,3.63,7.09,7.13,10.41,10.92,2.08,2.37,4.08,4.97,6.06,7.43.75.78,3.12,4.25,3.68,5.29.56.72,1.09,1.68,1.69,2.48.07.37.08.65-.19.97-1.7,2.01-4.42,3.31-6.5,5.03-1.43,1.18-3.42,3.41-4.76,4.26-1.07.68-3.59,1.82-4.81,2.46-.47.46-2.19,1.21-2.84,1.62-3.08,1.95-6.04,3.11-9.41,4.43-6.76,2.65-13.65,4.82-20.66,6.66-.98.26-2.5.29-3.51.27-1.8-.99-3.68-2.7-4.83-4.41-.79-1.21-1-2.7-1.58-4-1.55-3.48-3.32-6.77-5.13-10.11-1.19-2.19-2.34-4.4-3.46-6.63-.72-1.4-1.49-2.83-2.11-4.27-.3-.69-.46-1.27-.15-2,.17-.4.65-.65,1.05-.76,2.05-.61,4.1-1.16,6.15-1.75,3.65-1.05,7.37-2.07,10.9-3.46,1.06-.42,2.07-.86,3.15-1.21,1.26.69,4.9,3.69,5.74,4.82,3.07-1.43,5.21-1.43,8.25-4.01-.37-1.76-1.92-3.19-2.53-5.37l.08-.06c1.04-.8,2.95-1.68,3.55-2.16.49-.41,4.14-2.89,4.66-3.04.88-.76,1.7-1.39,2.68-2,.31-.05.25-.04.55-.17l-.32-.55c.11-.47.36-.51.2-1.01-.73-.12-.89-.12-1.23-.8.55-.59,1.84-1.46,1.92-2.13h.03,0Z"/>
  <path class="st39" d="M1857.02,982.04c1.01.1,1.64-1.22,2.84-.84,3.16,2.53,6.22,4.57,9.53,6.88,2.06,1.43,4.32,3.09,6.36,4.51,1.19.83,6.64,4.52,7.28,5.31-.1.37-.21,1.06-.28,1.46-.23-.15-1.22-.77-1.4-.83-1.03-.32-2.02-.38-3.02-.9-1.8-.95-3.42-2.18-5.27-3.07-.28-.14-1.02-.51-1.31-.57-2.43-.54-2.2.53-4.74-.62-.41.41-.66.68-1.21.87-.78.27-1.64.21-2.37-.16-.65-.32-1.5-1.16-.93-1.89.66-.86,2.29-.37,3.28-.5l.05-.18-.17-.23c-.21-.67-.66-1.25-1.07-1.83-.02-.21.02-.11-.17-.28-.99-1.45-2.62-2.71-4.09-3.64-1.06-.57-3.09-1.74-3.95-2.61-.21-.21-.15-.4-.1-.62.34-.29.23-.2.75-.25h-.01Z"/>
  <path class="st38" d="M1864.62,972.15l.19-.2c.5.03,1.57,1.09,1.96,1.45l-.04.3-.08.04c.47.65,1.05.95,1.24,1.68,3.46,3.63,7.09,7.13,10.41,10.92,2.08,2.37,4.08,4.97,6.06,7.43.75.78,3.12,4.25,3.68,5.29l-.06.05c-.38-.2-1.17.08-1.6.2-1.21-1.3-6.85-8.52-7.91-8.45l-.31.4h-.18c-.23-1.15-12.89-14.14-14.5-14.44.31-.05.25-.04.55-.17l-.32-.55c.11-.47.36-.51.2-1.01-.73-.12-.89-.12-1.23-.8.55-.59,1.84-1.46,1.92-2.13h.02Z"/>
  <path class="st29" d="M1884.37,993.77l-.33-.07c-1.34-1.12-2.32-2.5-3.5-3.76-.7-.69-1.54-1.27-2.21-1.99-3.71-3.99-7.39-8-11.29-11.8-.4-.4-.86-.87-.54-1.44l.22-.03c.55.17.72.36,1.16.72,3.46,3.63,7.09,7.13,10.41,10.92,2.08,2.37,4.08,4.97,6.06,7.43h0l.02.02h0Z"/>
  <path class="st11" d="M1863.73,976.09c.65-.32,1.01-.54,1.62-.93-.3.39-1.17,1.28-1.3,1.48l-.32-.55h0Z"/>
  <path class="st6" d="M1860.81,980.33c1.23.2,3.45,2.04,4.55,2.82l6.04,4.25c2.95,2.1,6.33,4.05,8.79,6.7.93,1,2.75,2.8,3.44,3.95-.25.08-.3-.01-.61-.15-.64-.79-6.09-4.48-7.28-5.31-2.04-1.43-4.3-3.08-6.36-4.51-3.31-2.3-6.37-4.35-9.53-6.88.35-.38.52-.59.96-.87h0Z"/>
  <path class="st29" d="M1863.5,976.81c1.61.31,14.27,13.3,14.5,14.46-.69-.27-1.6-1.03-2.19-1.5-3.89-3.14-8.1-5.84-12.1-8.83-.72-.54-1.49-1.11-2.26-1.58-.41-.13-.3-.13-.63-.53.88-.76,1.7-1.39,2.68-2h0v-.02h0Z"/>
  <path class="st36" d="M1889.73,1001.54c.07.37.08.65-.19.97-1.7,2.01-4.42,3.31-6.5,5.03-1.43,1.18-3.42,3.41-4.76,4.26-1.07.68-3.59,1.82-4.81,2.46.18-1.55,3.78-2.85,5.03-3.64-.41-.37-.81-.72-1.2-1.11-1.46.91-10.3,6.17-11.35,6.19.2-.39,5.55-3.27,6.36-3.77,4.44-2.69,8.86-5.41,13.36-7.99,2.33-1.02,1.81.21,4.06-2.39h0Z"/>
  <path class="st31" d="M1865.96,1015.69c-.32-.17-.38.01-.64-.33.69-.77,4.23-2.36,5.38-3.05,3.87-2.32,7.62-4.81,11.44-7.22.62-.39,2.51-1.82,3.08-1.79.31.17.32.29.46.62-4.5,2.58-8.92,5.3-13.36,7.99-.82.49-6.17,3.38-6.36,3.77h0Z"/>
  <path class="st31" d="M1856.15,981.85c.49-.41,4.14-2.89,4.66-3.04.33.4.22.4.63.53-.28.36-.4.58-.63.99-.44.28-.61.5-.96.87-1.2-.38-1.83.94-2.84.84-.42-.04-.48-.04-.86-.19h0Z"/>
  <path class="st29" d="M1860.32,985.53c1.47.93,3.1,2.19,4.09,3.64-.46-.1-3.11-2.98-3.97-3.36-.04-.09-.08-.18-.12-.28h0Z"/>
  <path class="st33" d="M1864.57,989.46c.4.58.86,1.16,1.07,1.83-.45-.31-1.05-1.27-1.07-1.83Z"/>
  <path class="st37" d="M1836.71,1024.84c.33-.05.85-.05,1.19-.06l.08.15h.05-.02l.15-.06c-.52.22-1.03.23-1.6.28-.54.07-.89.17-1.42.06v-.11c.52-.25.99-.23,1.57-.27h0Z"/>
  <path class="st8" d="M1760.27,964.04c.36-.33,1.09-.2,1.61-.18,9.06.36,20.47,5.16,28.01,10.11,5.98,4,11.44,8.72,16.24,14.07,3,3.35,5.47,7.5,7.7,11.37,4.26,7.55,8.12,15.32,11.58,23.27.51,1.14,2.64,5.88,2.64,6.9-.26,0-.16.01-.4-.12-.45-.21-.83-.35-1.05-.82-1.26-2.65-2.1-5.57-3.38-8.21-4.61-9.56-9.07-19.35-15.33-27.97-.47-.64-1.09-1.32-1.34-2.07-4.45-5.51-9.67-10.35-15.5-14.37-.61.03-2.08-1.15-2.68-1.55-1.25-.85-2.56-1.63-3.91-2.32l-.18.35c.9.59,1.89.98,2.72,1.6,2.14,1.56,4.75,2.96,6.61,4.84-.67,2.24-1.16,4.39-1.64,6.68-.3,1.41-.71,2.8-.99,4.22l-.36,1.43c-4.33-3.62-8.75-7.89-13.07-11.69-.54-.13-4.23-3.22-5.24-3.87.29-.4.62-.76.75-1.22l-.13-.23c-1.13,1.56-2.58,4.02-3.59,5.3-.14.11-.2.16-.34.28-.77-.95-1.52-1.92-2.24-2.91l-.17-.18-.67.35c-.13.1-.31.23-.42.34l-.22-.04c-.73-.56-2.45-3.9-2.81-4.85-.37-.45-1.11-2.71-1.26-3.38-.55-2.04-.64-3.08-.97-5.11h0l.03-.02h0Z"/>
  <path class="st1" d="M1760.27,964.04c.36-.33,1.09-.2,1.61-.18,9.06.36,20.47,5.16,28.01,10.11,5.98,4,11.44,8.72,16.24,14.07,3,3.35,5.47,7.5,7.7,11.37,4.26,7.55,8.12,15.32,11.58,23.27.51,1.14,2.64,5.88,2.64,6.9-.26,0-.16.01-.4-.12-.45-.21-.83-.35-1.05-.82-1.26-2.65-2.1-5.57-3.38-8.21-4.61-9.56-9.07-19.35-15.33-27.97-.47-.64-1.09-1.32-1.34-2.07-4.45-5.51-9.67-10.35-15.5-14.37-.61.03-2.08-1.15-2.68-1.55-1.25-.85-2.56-1.63-3.91-2.32-5.14-3.3-14.45-6.53-20.59-6.54-.24.28-.46.53-.72.8-.43.28-.5.4-.74.87l-.24.21-.13-.05c-.4.58-.39.95-.47,1.66l-.34.06c-.55-2.04-.64-3.08-.97-5.11h.01Z"/>
  <path class="st7" d="M1760.27,964.04c1.68.44,4.37.33,6.3.73,7.28,1.46,14.23,4.27,20.48,8.28,1,.64,3.18,2.1,4.01,2.95-.61.03-2.08-1.15-2.68-1.55-1.25-.85-2.56-1.63-3.91-2.32-5.14-3.3-14.45-6.53-20.59-6.54-.24.28-.46.53-.72.8-.43.28-.5.4-.74.87l-.24.21-.13-.05c-.4.58-.39.95-.47,1.66l-.34.06c-.55-2.04-.64-3.08-.97-5.11h0Z"/>
  <path class="st35" d="M1806.56,990.38c4.63,3.49,19.86,33.6,21.1,39.08-.45-.21-.83-.35-1.05-.82-1.26-2.65-2.1-5.57-3.38-8.21-4.61-9.56-9.07-19.35-15.33-27.97-.47-.64-1.09-1.32-1.34-2.07h0Z"/>
  <path class="st1" d="M1762.42,967.28l.16.19c-.15,2.44,1.29,5.28,2.68,7.18.3.41,1.17,1.68,1.35,2.09l-.67.35c-.13.1-.31.23-.42.34l-.22-.04c-.73-.56-2.45-3.9-2.81-4.85-.37-.45-1.11-2.71-1.26-3.38l.34-.06c.09-.71.08-1.08.47-1.66l.13.05.24-.21h.01Z"/>
  <path class="st38" d="M1762.5,972.53l.05-.24-.07-.02-.08-.13.1-.25-.11.08.11-.12.04.29c.22.24.09.16.4.26.68.97,2.22,3.96,3.02,4.68-.13.1-.31.23-.42.34l-.22-.04c-.73-.56-2.45-3.9-2.81-4.85h-.01Z"/>
  <path class="st36" d="M1761.24,969.15l.34-.06c.09-.71.08-1.08.47-1.66l.13.05c-.73,1.95-.08,3.09.75,4.92-.31-.1-.18-.01-.4-.26l-.04-.29-.11.12.11-.08-.1.25.08.13.07.02-.05.24c-.37-.45-1.11-2.71-1.26-3.38h.01Z"/>
  <path class="st37" d="M1777.57,979.56c.66.01,3.4,2.34,4.07,2.85,2.18,1.65,4.4,3.33,6.49,5.11.55.47,2.61,1.84,2.87,2.3l-.36,1.43c-4.33-3.62-8.75-7.89-13.07-11.69h0Z"/>
  <path class="st38" d="M1776.77,968.85c-.28.75-3.1,4.27-3.82,5.39-1.13,1.56-2.58,4.02-3.59,5.3-.02-.04-.04-.07-.05-.11-.12-.93,6.35-9.39,7.46-10.58h0Z"/>
  <path class="st33" d="M1762.42,967.28c.24-.48.31-.59.74-.87-.18.32-.43.74-.58,1.06l-.16-.19h0Z"/>
  <path class="st11" d="M1767.87,968c2.07.21,4.65.83,6.59,1.63-.5.65-3.2,4.13-3.38,4.59-.1.09-.22.19-.32.27-.49-.04-.9-.49-1.29-.83-1.12-.49-1.08-1.09-2.39-1.16l-.22.12c-.24,1.16,2.64,2.8,2.51,3.78-1.21.72-3.73-4.1-4.16-4.99.84-1.54,1.31-2.32,2.67-3.42h-.01Z"/>
  <path class="st37" d="M1769.46,973.66c.18-.21.18-.31.37-.31.4,0,.95.58,1.25.86-.1.09-.22.19-.32.27-.49-.04-.9-.49-1.29-.83h-.01Z"/>
  <path class="st39" d="M1838.83,1069.98c-1.14,2.29-1.04,3.73-1.12,6.15-.39-.13-.26-.82-.26-1.19.03-4.61,2.86-10.64,8.34-7.06,4.9,3.2,7.07,8.98,8.46,14.43,1,4.2.99,7.87-.08,12.03-.42,1.17-.76,2.26-1.6,3.2-.37.42-.74.75-1.3.91-.67.2-1.48.36-2.17.15-.95-.33-1.43-.64-2.23-1.23-.84-.37-2.66-1.94-3.28-2.63-.97-.94-1.72-2.23-2.4-3.38-.25-.47-.49-.95-.72-1.43-.19-.4-.52-1.06-.37-1.48l.33-.16.02-.3-.26-.35-.06-.15-.14-.03-.33.39-.15-.1c-1.13-3.32-2.04-6.33-2.11-9.89l.06-.57.52-.34c.12-.64.14-1.49.19-2.16.11-1.2.36-2.39.75-3.54.73.9,1.43,1.75,2.12,2.68-.58,1.63-.66,3.29-.05,4.93.2.11.78.43.91.56.71.23,1.37.41,2.09.61l1.58.51c-.41-2.6-2.99-4.89-4.49-7.08-.75-1.09-1.55-2.45-2.28-3.47h.03Z"/>
  <path class="st39" d="M1837.47,1077.29l.52-.34c.12-.64.14-1.49.19-2.16.11-1.2.36-2.39.75-3.54.73.9,1.43,1.75,2.12,2.68-.58,1.63-.66,3.29-.05,4.93.2.11.78.43.91.56.71.23,1.37.41,2.09.61l1.58.51h.22c.22.34.36.37.72.54-.11.54-.59.68-.61,1.18.25.29.9.12,1.21-.05l.15-.04c.03-.27.05-.29.13-.56l.14-.04.13.26-.03.74-.18.02c-.95.11-1.01,0-1.79.85-.18.19-.41.39-.62.55-.45.33-4.27,3.66-4.44,3.92l-.17.11-.26-.35-.06-.15-.14-.03-.33.39-.15-.1c-1.13-3.32-2.04-6.33-2.11-9.89l.06-.57h0l.02-.03h0Z"/>
  <path class="st37" d="M1837.59,1077.87c.92.4,1.76.97,2.65,1.43l.03.46c-.07.48.23.8.07,1.19l-.25-.15c-.18.31-.12.19-.16.58.17.88.71,3.07.75,3.78,0,.42.34.88.18,1.16-.19.35-.35.34-.39.8l-.19.28-.09.25-.06-.15-.14-.03-.33.39-.15-.1c-1.13-3.32-2.04-6.33-2.11-9.89h.19,0Z"/>
  <path class="st39" d="M1837.59,1077.87c.92.4,1.76.97,2.65,1.43l.03.46c-.07.48.23.8.07,1.19l-.25-.15c-.18.31-.12.19-.16.58,0,.11,0,.04-.08.19-.23-.3-.44-1.67-.67-2.29-.42-.29-.85-.61-1.26-.92-.14-.08-.23-.32-.33-.49h0Z"/>
  <path class="st31" d="M1837.47,1077.29l.52-.34c.12-.64.14-1.49.19-2.16.11-1.2.36-2.39.75-3.54.73.9,1.43,1.75,2.12,2.68-.58,1.63-.66,3.29-.05,4.93.2.11.78.43.91.56.13.32.2.35.46.58-1.12-.47-3.98-2-4.91-2.71h.01Z"/>
  <path class="st38" d="M1837.47,1077.29c.93.71,3.79,2.24,4.91,2.71-.26-.23-.34-.25-.46-.58.71.23,1.37.41,2.09.61l1.58.51h.22c.22.34.36.37.72.54-.11.54-.59.68-.61,1.18.25.29.9.12,1.21-.05l.15-.04c.03-.27.05-.29.13-.56l.14-.04.13.26-.03.74-.18.02c-.95.11-1.01,0-1.79.85-.18.19-.41.39-.62.55-.45.33-4.27,3.66-4.44,3.92l-.17.11-.26-.35.09-.25.19-.28c1.47-1.31,3.89-3.45,5.16-4.85-1.29-.8-3.03-1.56-4.47-2.41v.3c-.25-.17-.61-.29-.89-.41l-.03-.46c-.89-.47-1.73-1.03-2.65-1.43h-.17l.06-.58h0Z"/>
  <path class="st31" d="M1842.39,1080c-.26-.23-.34-.25-.46-.58.71.23,1.37.41,2.09.61-.56.45.06.06-.19.59-.42-.04-1.03-.41-1.43-.62h-.01Z"/>
  <path class="st11" d="M1840.24,1079.3c.33.18.65.31.93.57v.3c-.25-.17-.61-.29-.89-.41l-.03-.46h-.01Z"/>
  <path class="st4" d="M1840.27,1079.76c.28.11.64.23.88.41.13,1.91.46,3.33.96,5.17-.28.22-.56.43-.82.68l-.62-.87c-.04-.71-.58-2.9-.75-3.78.04-.38-.01-.27.16-.58l.25.15c.16-.39-.14-.71-.07-1.19h0Z"/>
  <path class="st37" d="M1838.83,1069.98c-1.14,2.29-1.04,3.73-1.12,6.15-.39-.13-.26-.82-.26-1.19.03-4.61,2.86-10.64,8.34-7.06,4.9,3.2,7.07,8.98,8.46,14.43,1,4.2.99,7.87-.08,12.03l-.2-.38c.51-2.21.66-3.59.66-5.88-.82-.47-2.72-1.54-3.31-2.24.33.12.33.16.65.11-.13-.34-1.07-1.2-1.38-1.52.24,0,1.08.86,1.37,1.07.86.65,1.76,1.24,2.63,1.88-.15-3.01-.73-5.98-1.72-8.83l-.14-.3c-.23-1.22-2.59-6.28-3.58-6.7l-.22-.27c0-.35-.75-1.06-1.03-1.34-.03.91-.01,2.78-.3,3.55-.18-.44.13-3.15.17-3.81-.98-.82-3.38-2.74-4.76-2.42-.17.91.5,3.06.78,3.95l.13.08c1.5.92,1.4,2.68,2.41,4.32-.27.26-.11.19-.48.22-.35-.17-.35-.16-.66-.44h-.21c-.41-.53-.4-1.37-.88-2.16-.41-.71-1.24-4.97-1.37-5.98-.46.05-.58.04-1.01.2l.07.13c-1.73.84-1.38.79-2.51,2.12.86,1.91,1.84,2.67,2.68,4.17.13.66,1.48,2.3,2.01,2.78l.18.03.2-.2c.23.17.17.06.24.32-.19.14-.22.11-.31.32.7,1.08,1.47,2.12,1.55,3.43h-.22c-.41-2.61-2.99-4.91-4.49-7.09-.75-1.09-1.55-2.45-2.28-3.47h-.01Z"/>
  <path class="st31" d="M1840.62,1087.89c.17-.26,3.99-3.59,4.44-3.92-.02.65-.15,1.48-.36,2.1-.28.27-1.21.99-1.27,1.21v.04c.43.69,1.38,2.12,1.55,2.85.05.21,0,.13.07.22-.07.32-.07.46-.23.73-.21.69-.4,1.38-.64,2.06-.06.25-.13.56-.16.81v.08c.01.21.02.46.06.67l-.48-.02c-.97-.94-1.72-2.23-2.4-3.38-.25-.47-.49-.95-.72-1.43-.19-.4-.52-1.06-.37-1.48l.33-.16.02-.3.17-.11h0v.03h-.01Z"/>
  <path class="st38" d="M1840.62,1087.89c.19.67,2.28,4.03,2.81,4.92.44.51.13,1.06.57,1.27.02.21.03.46.07.67l-.48-.02c-.97-.94-1.72-2.23-2.4-3.38-.25-.47-.49-.95-.72-1.43-.19-.4-.52-1.06-.37-1.48l.33-.16.02-.3.17-.11h0v.02Z"/>
  <path class="st18" d="M1841.56,1090.86c.36.51,1.32,2.01,1.8,2.22l.07-.26c.44.51.13,1.06.57,1.27.02.21.03.46.07.67l-.48-.02c-.97-.94-1.72-2.23-2.4-3.38l.37-.5h0Z"/>
  <path class="st31" d="M1841.19,1091.37c-.25-.47-.49-.95-.72-1.43-.19-.4-.52-1.06-.37-1.48l.33-.16c.33,1.02.54,1.67,1.13,2.57l-.37.5h0Z"/>
  <path class="st37" d="M1843.44,1087.33c.42.69,1.37,2.12,1.54,2.85.05.21,0,.13.07.22-.07.32-.07.46-.23.73-.27.26-.34.52-.64.66,0-.14,0-.81-.05-.88-.51-.7-1.21-1.49-1.77-2.13-.21-.12-.13-.06-.27-.27.47-.38.96-.74,1.36-1.19h0Z"/>
  <path class="st39" d="M1842.35,1088.79c.56.64,1.26,1.44,1.77,2.13.06.08.06.75.05.88.3-.14.37-.4.64-.66-.21.69-.4,1.38-.64,2.06-.03-1.52-1.47-2.84-1.83-4.41h0Z"/>
  <path class="st11" d="M1844.32,1093.8c.04-.71,2.27-7.69,2.64-8.49l.22-.02c.42.21.55.43.86.8.02.57,0,1.17,0,1.75.19.49.26.9.33,1.43-.02,2.28-.01,4.56.02,6.84h-.27c-.45-.55-2.08-1.3-2.8-1.68-.1-.03-.75-.41-.89-.48l-.12-.13h0v-.02h.01Z"/>
  <path class="st39" d="M1847.1,1094.84c-.02-.84-.16-1.8-.21-2.62-.06-.93.04-5.59.83-5.97-.09.68.09.89.31,1.58.19.49.26.9.33,1.43-.02,2.28-.01,4.56.02,6.84h-.27c-.45-.55-2.08-1.3-2.8-1.68.38-.13,1.32.27,1.78.43h.01Z"/>
  <path class="st36" d="M1848.36,1089.27c.1-.29.14-.55.36-.75.32.45,0,1.59.35,2.02l.21.02c.2.77-.17,5.39-.13,6.69-.82.81-1.43.05-2.27.12-.84-.37-2.66-1.94-3.28-2.63l.48.02c-.04-.21-.05-.46-.07-.67v-.08l.31-.21.12.13c.14.08.78.45.89.48.71.38,2.35,1.14,2.8,1.7h.27c-.04-2.29-.04-4.57-.02-6.85h-.02Z"/>
  <path class="st11" d="M1844.32,1093.8l.12.13c-.09.33-.12.62-.37.83-.04-.21-.05-.46-.07-.67v-.08l.31-.21h0Z"/>
  <path class="st11" d="M1848.39,1096.1c0,.4.06.55-.1.88-.16-.29-.14-.53-.16-.87h.27-.01Z"/>
  <path class="st38" d="M1847.65,1082.64c.32.45.73,1.59.8,2.13l.61-.08c.14.19.1.09.14.28.37.52,1.06,1.16,1.07,1.73l-.17.23-.18.17v.48c-.21-.11-.32-.18-.53-.31-.05-.22-.08-.44-.09-.67l-.17-.25c-.1.97.27,1.7.33,2.64.04.54-.34.83-.18,1.55l-.21-.02c-.35-.44-.03-1.57-.35-2.02-.21.2-.26.47-.36.75-.07-.53-.14-.93-.33-1.43,0-.57.02-1.17,0-1.75-.31-.37-.44-.59-.86-.8l-.22.02c-.37.8-2.6,7.77-2.64,8.49l-.31.21c.03-.25.11-.55.16-.81.23-.68.43-1.37.64-2.06.17-.27.16-.41.23-.73.39-1.5,1.7-5.07,1.81-6.39-.16-.18-.13-.13-.25-.35.24-.06.39-.11.63-.18.27-.23.26-.35.34-.69l.07-.16h0l.02.02h0Z"/>
  <path class="st38" d="M1847.65,1082.64c.32.45.73,1.59.8,2.13l-.14.47c-1.52-1.21-.73-1.02-.73-2.44l.07-.16h0Z"/>
  <path class="st11" d="M1848.45,1084.77l.61-.08c.14.19.1.09.14.28-.1.21-.18.37-.29.57-.38.18-.31.23-.64.16l-.07-.14.11-.32.14-.47h0Z"/>
  <path class="st38" d="M1841.79,1067.57c.14.07.3.1.3.25-.03,3.31-.4,4.87,1.65,7.7-.69-.58-1.15-1.01-1.78-1.65-.84-1.5-1.82-2.27-2.68-4.17,1.13-1.32.78-1.28,2.51-2.12h0Z"/>
  <path class="st35" d="M1850.1,1086.94c.84,1.25,1.51,2.66,2.47,3.9,1.25,1.61,1.46,1.91.67,3.78-.1-.08-.32-.21-.36-.33-.63-1.76-1.31-3.44-2.19-5.1-.27-.51-.52-1.08-.76-1.61v-.48l.17-.17h0Z"/>
  <path class="st31" d="M1849.9,1096.37l.52-.2c.06.88-.31.58-.28,1.23.56.1,1.47-.15,1.79-.64l.17.08.31-.18c.08.3.06.66.16.89-.37.42-.74.75-1.3.91-.67.2-1.48.36-2.17.15-.95-.33-1.43-.64-2.23-1.23.84-.07,1.45.69,2.27-.12.27,0,.21,0,.47-.09.18-.31.19-.44.28-.79h0Z"/>
  <path class="st38" d="M1849.1,1098.6c.36-.22,1.77-.35,2.17-.15-.67.2-1.48.36-2.17.15Z"/>
  <path class="st38" d="M1848.93,1071.3l.22.27c-.01.87.15,6.91-.07,7.21-.3.02-.52-.16-.79-.31-.05-.19.61-6.22.64-7.16h0Z"/>
  <path class="st38" d="M1849.26,1080.21c.82-.57,2.55-1.58,3.46-1.95l.14.3c-.57.76-1.26,1.67-2.13,1.84-.55.11-.42.58-.72,1.22l-.13.04c-.22-.48-.43-.97-.63-1.46h.01Z"/>
  <path class="st36" d="M1849.39,1087.28c.21.13.32.2.54.31.24.53.49,1.1.76,1.61.88,1.65,1.56,3.34,2.19,5.1.04.12.26.25.36.33l-.18.34-.16.03c-.54-.83-3.22-6.69-3.51-7.7h0v-.02h0Z"/>
  <path class="st36" d="M1850.84,1095.83c.48-.33,1.35-1.11,1.82-.46,0,.58-.37.92-.73,1.39-.32.48-1.23.74-1.79.64-.04-.65.33-.35.28-1.23.25-.12.23-.13.42-.34h0Z"/>
  <path class="st31" d="M1849.9,1096.37c.28-1.21.21-2.74.19-4.01.95,1.99.38,2.12.75,3.47-.19.21-.17.22-.42.34l-.52.2h0Z"/>
  <path class="st38" d="M1853.98,1093.96l.2.38c-.42,1.17-.76,2.26-1.6,3.2-.1-.23-.08-.58-.16-.89.48-.89,1.06-1.78,1.57-2.69h0Z"/>
  <path class="st31" d="M1847.14,1082.2c-.13-.59-.28-1.04.35-1.36l.2.1c.14.33.06.52-.01.87l-.13-.26-.14.04c-.08.27-.1.28-.13.56l-.15.04h.01Z"/>
  <path class="st35" d="M1844.1,1073.23c.48.79.47,1.64.88,2.17.05.33.11.28,0,.49l-.15-.09c-.39-.9-.55-1.62-.73-2.57h0Z"/>
  <path class="st11" d="M1851.56,1080.38c.6.03,1.28.19,1.46.82-.12.37-.16.39-.38.69-.14.16-.26.31-.4.47-.36.06-.2.09-.5-.11-.31-.59-.23-1.23-.19-1.88h.01Z"/>
  <path class="st31" d="M1850.55,1082.49c1.46.43,1.73.88,1.46,2.31-.31-.17-1.08-.75-1.29-1.04-.39-.55-.27-.68-.17-1.27h0Z"/>
  <path class="st36" d="M1847.57,1073.83c.13.43-.15,4.48-.2,5.24-.36-.65-.09-4.48.2-5.24Z"/>
  <path class="st38" d="M1844.93,1076.8c.43.3,1.55,1.98,1.47,2.54-.5-.47-.71-.63-1-1.24l-.07-.14c-.25-.51-.28-.59-.4-1.16h0Z"/>
  <path class="st11" d="M1849.64,1083.87l.13-.07c.47.08.63.31.82.71-.36-.2-.72-.33-.95-.64h0Z"/>
  <path class="st36" d="M1744.5,1005.85c.01-2.82-.12-6.54,2-8.7,2.27-2.31,5.59-.62,7.37,1.44,4.23,4.9,6.56,12.05,6.47,18.49-.06,2.13-.52,5.46-2.19,6.93-.96.85-1.66.92-2.84.92-.12-.04-.48-.12-.63-.16-1.92-.64-2.78-1.41-4.16-2.91-.17-.18-.43-.51-.59-.72-1-1.22-1.67-2.42-2.38-3.81-.22-.44-.48-.87-.53-1.34l-.23-.42c-1.04-1.9-2.03-6.44-2.22-8.61-.09-.36-.07-.72-.07-1.1h0Z"/>
  <path class="st17" d="M1748.29,996.75l.68-.03.26.07c1.67,0,3.07,1.05,4.24,2.16-.24,1.36-.25,4.45-.26,5.92-.1,1.32-.43,2.63.23,3.62-.08.35-.07.25-.37.55l-.25.09c-.37-.25-.39-.27-.67-.63l-.19.06c-.43-.11-1.09-.37-1.52-.52-.16.43-.1.34.02.88l.09.03.04-.49.14-.1c.62.11,1.14.35,1.62.74l.06.17c-.25.16-.3.12-.61.11-.16-.16-.25-.25-.43-.39.33.43,1.01,1.18.99,1.68-.66.6-2.35,2.01-2.79,2.65-.45.55-1.69,1.54-2.39,1.66-.15-.1-.14-.14-.24-.32-.02.24-.03.47-.02.7l-.11.2c-1.04-1.9-2.03-6.44-2.22-8.61-.09-.36-.07-.72-.07-1.1l.21-.3c-.19-2.52.32-4.66,1.28-6.94.7-1.05,1.19-1.34,2.28-1.86h0Z"/>
  <path class="st39" d="M1749.22,996.79c1.67,0,3.07,1.05,4.24,2.16-.24,1.36-.25,4.45-.26,5.92-.1,1.32-.43,2.63.23,3.62-.08.35-.07.25-.37.55l-.25.09c-.37-.25-.39-.27-.67-.63.02-.51-.23-.43-.05-.87l.49-.16-.22-.04c-.2-.19-.26-.3-.35-.57-.15-.48-.87-1.5-1.2-1.87l-.1.06c.16-.31.09-.17.43-.41-.8-1.95-1.14-4.18-1.82-6.12-.04-.51-.23-1.29-.35-1.81l.26.07h-.01Z"/>
  <path class="st37" d="M1748.96,996.72l.26.07c.11.63.35,2.52.74,2.91l.24-.13.03.19-.28.13c.06,1.35,1.41,4.15,1.17,4.76-.8-1.95-1.14-4.18-1.82-6.12-.04-.51-.23-1.29-.35-1.81h0Z"/>
  <path class="st37" d="M1750.8,1005c.31-.01.29-.07.45.1.55.59,1.23,1.4,1.4,2.19l-.08.19-.22-.04c-.2-.19-.26-.3-.35-.57-.15-.48-.87-1.5-1.2-1.87h0Z"/>
  <path class="st36" d="M1744.57,1006.95c.84-.24.83-.07,1.5.48.2.56.4,1.12.59,1.68-.05.93-.34,2.72.65,3.19-.11.29.29,1,.45,1.31l-.34.3-.33.6-.18.16c-.02.24-.03.47-.02.7l-.11.2c-1.04-1.9-2.03-6.44-2.22-8.61h.01Z"/>
  <path class="st36" d="M1747.1,1014.5c-.14-.31-.24-.84-.03-1.13.29.16.2.14.35.53l-.33.6h.01Z"/>
  <path class="st31" d="M1745.39,1010.32c.46.31.82,1.72.96,2.28-.06.18-.06.25-.05.44l-.03.04c-.26-.2-.77-2.3-.88-2.75h0Z"/>
  <path class="st39" d="M1748.06,1008.14c.76.42,3.21,1.48,3.45,2.1-.18.7-1.8,2.06-2.39,2.63l-.17-.28c-.63-1.63-.8-2.71-.88-4.45h0Z"/>
  <path class="st39" d="M1746,998.61l.19.44c-.2.29-.22.33-.24.67.16.4.65,1.03.95,1.65l-.1-.04.07-.05-.18-.03c-.34-.28-.37-.41-.57-.82l-.2-.13c-1.15,1.1-.52,4.69-.96,5.22l-.24.02c-.19-2.52.32-4.66,1.28-6.94h0Z"/>
  <path class="st39" d="M1748.29,996.75l.68-.03c.12.52.31,1.3.35,1.81-.09-.06-.04-.02-.15-.15l-.09-.11-.07.05.11.28c-.62,1.72-.14,2.69.31,4.27-1.34-1.05-.54-4.8-1.13-6.11h-.01Z"/>
  <path class="st39" d="M1750.42,1008.05c-1.02-.4-1.54-.6-2.48-1.14,1.01.17,1.66,1.1,2.37.6.31-.22.57-.57.91-.58.33.22.65,1.28.72,1.64-.43-.11-1.09-.37-1.52-.52Z"/>
  <path class="st31" d="M1746.66,1009.1c.23.15.14.14.39.18-.3,1.03.48,2.08.27,3.01-1-.48-.71-2.26-.65-3.19h-.01Z"/>
  <path class="st38" d="M1747.04,1009.28c.3.8.72,3.15.94,4.13l-.22.2c-.16-.31-.56-1.03-.45-1.31.22-.94-.56-1.99-.27-3.01h0Z"/>
  <path class="st11" d="M1748.95,1012.6l.17.28c-.29.31-1.78,1.84-1.95,2.11-.15-.1-.14-.14-.24-.32l.18-.16.33-.6.34-.3.22-.2c.35-.21.74-.48.96-.82h-.01Z"/>
  <path class="st38" d="M1746.32,1006.94c.6.17.8.25,1.16.76-.49-.2-.79-.39-1.16-.76Z"/>
  <path class="st39" d="M1746.69,1000.13c.43.29.45.58.52,1.05-.22-.33-.51-.68-.52-1.05Z"/>
  <path class="st14" d="M1750.78,1021.75c-.04-.12-.13-.37-.1-.48.33-1.17,2.12-7.91,2.57-8.35l.59.43c.14-.09.11-.08.21-.24.46-.19.4.11.98.18.03.26.07.51.11.77h.11c.65,1.77,1.56,3.6,2.15,5.23.38.81.74,1.6,1.09,2.43-.19-.03-.41-.1-.58-.06-.53.52-1.96,2.06-2.76,1.68-.03.17-.04.33-.04.51-.15.17-.11.07-.11.3l.07-.12-.06.18h-.05c-.13-.52-.07-.9-.19-1.39l-.06.31-.12.08c-.14-.38-.12-.44-.09-.83-.21-.11-.54-.25-.76-.36.62.5.77,1.38.94,2.12.05.21-.06.37.03.66-1.92-.64-2.78-1.41-4.16-2.91l.25-.11h0l-.02-.03h0Z"/>
  <path class="st39" d="M1755.13,1014.05h.11c.65,1.77,1.56,3.6,2.15,5.23.38.81.74,1.6,1.09,2.43-.19-.03-.41-.1-.58-.06-.53.52-1.96,2.06-2.76,1.68l-.03-1.06-.12-2.59c-.02-1.21.03-2.92.13-4.14l-.06-.5c-.06-.48-.09-.54.08-.98h0Z"/>
  <path class="st11" d="M1755.11,1015.53c.81,1.31.52,4.61.17,6.1-.05.22-.11.43-.19.64l-.12-2.59c-.02-1.21.03-2.92.13-4.14h0Z"/>
  <path class="st36" d="M1751.52,1020.64c.67.52,1.44.96,2.2,1.35.62.5.77,1.38.94,2.12.05.21-.06.37.03.66-1.92-.64-2.78-1.41-4.16-2.91l.25-.11c.32-.32.51-.71.74-1.11h0Z"/>
  <path class="st13" d="M1753.25,1012.91l.59.43c.14-.09.11-.08.21-.24.46-.19.4.11.98.18.03.26.07.51.11.77-.18.43-.14.49-.08.98l.06.5c-.1,1.22-.15,2.93-.13,4.14l.12,2.59.03,1.06c-.03.17-.04.33-.04.51-.15.17-.11.07-.11.3l.07-.12-.06.18h-.05c-.13-.52-.07-.9-.19-1.39l-.06.31-.12.08c-.14-.38-.12-.44-.09-.83.17-.49-.1-1.81,0-2.77-.04-1.57-.13-4.25-.49-5.72-.2.34-.4.68-.6,1.02.51-1.24.54-.97-.16-1.97h.01Z"/>
  <path class="st36" d="M1755.04,1015.02l.06.5c-.1,1.22-.15,2.93-.13,4.14-.25-.43-.15-3.28-.18-3.95,0-.16.17-.53.25-.69h0Z"/>
  <path class="st11" d="M1754.49,1019.58c.17.81.19,2.33.27,3.22l-.06.31-.12.08c-.14-.38-.12-.44-.09-.83.17-.49-.1-1.81,0-2.77h0Z"/>
  <path class="st37" d="M1754.74,1000.75l.27-.05c-.34,1.55-.03,4.44-.28,6.12-.53.12-.69-.75-1.24-.12-.02.08-.14.58-.11.68.44,1.42.4,2.84.81,4.22.16.52.04-.16.22.3.14.35.25.76.34,1.11.4-.08.25.02.48-.26.05-.44,0-.56-.09-1,.17-.25.2-.3.25-.59v.02c.29.93,1.09,1.03,1.36,1.51-.38.53-.4.3-.82.62-.17-.05-.45-.37-.6-.52-.23.1-.19.2-.32.51-.58-.07-.51-.38-.98-.18-.1.16-.06.16-.21.24l-.59-.43c-.45.44-2.24,7.18-2.57,8.35-.03.11.06.37.1.48l-.25.11c-.17-.18-.43-.51-.59-.72-1-1.22-1.67-2.42-2.38-3.81-.22-.44-.48-.87-.53-1.34l-.23-.42.11-.2c0-.24,0-.47.02-.7.11.18.1.23.24.32.7-.12,1.94-1.11,2.39-1.66.44-.65,2.12-2.05,2.79-2.65.01-.5-.66-1.25-.99-1.68.18.14.27.23.43.39.32.01.36.06.61-.11l-.06-.17c-.48-.4-1-.64-1.62-.74l-.14.1-.04.49-.09-.03c-.11-.54-.18-.44-.02-.88.44.16,1.09.41,1.52.52l.19-.06c.28.36.3.38.67.63l.25-.09c.3-.3.29-.19.37-.55-.65-.99-.33-2.31-.23-3.62l.1.74c.13-.1.08-.03.12-.21.26-.03.23-.06.45-.2l.17.08v.54l.14.02c.27-.88.18-4.38.57-5.1h0Z"/>
  <path class="st39" d="M1751.53,1012.88c0-.64.03-1.3.76-1.52l.25.16c.24.42.23.51.28,1.01-.42,1.47-.93,3.12-1.28,4.6-.41-.57-1.2-1.98-1.48-2.3l-.06-.14c.61-.62,1.14-1.03,1.54-1.81h-.01Z"/>
  <path class="st31" d="M1751.2,1011.96l.33.92c-.4.78-.93,1.18-1.54,1.81l.06.14c-.41.31-.98.85-1.46.85-.26-.18-.25-.16-.42-.43-.6-.17-.79.29-1.16.74l-.23-.42.11-.2c0-.24,0-.47.02-.7.11.18.1.23.24.32.7-.12,1.94-1.11,2.39-1.66.51-.3,1.19-.95,1.65-1.36h.01Z"/>
  <path class="st20" d="M1747.56,1017.33c.57-.3.62-.08,1.1.35.64.71,1.18,1.48,1.78,2.22l.17.16c0,.55-.15.89-.66,1.09-1-1.22-1.67-2.42-2.38-3.81h-.01Z"/>
  <path class="st15" d="M1748.73,1017.05v-.11c.03-.44.03-.46-.08-.87l.09-.2c.25.16,1.24,2.15,1.55,2.54.39.48.49.92.13,1.47-.6-.74-1.13-1.5-1.78-2.22-.03-.33-.06-.34.07-.63l.02.02h0Z"/>
  <path class="st36" d="M1747.02,1015.98c.36-.45.56-.9,1.16-.74.04.84-.05,1.24.55,1.81-.13.29-.1.3-.07.63-.48-.43-.53-.65-1.1-.35-.22-.44-.48-.87-.53-1.34h-.01Z"/>
  <path class="st11" d="M1751.2,1011.96c.45-.42,1.66-1.89,2.21-1.31.05.32.07.36,0,.68-.15.06-.31.11-.46.16-.16.4-.06.65-.13,1.04-.06-.5-.04-.59-.28-1.01l-.25-.16c-.73.22-.75.88-.76,1.52l-.33-.92h0Z"/>
  <path class="st11" d="M1752.81,1009.14l.25-.09c.33.63-.06,1.19-.61,1l-.06-.27c.13-.31.21-.39.42-.64Z"/>
  <path class="st39" d="M1755.01,1000.7c1.3,1.47,2.29,3.85,2.98,5.68-.67.38-1.42.79-2.03,1.24.08.25.17.5.26.75.66-.16,1.05-.63,1.55-1.1l.28-.26.17.07c.06.17.11.33.16.5.94,3.04.91,4.01,1.43,6.85-1.92-.91-2.74-2-4.4-3.24v-.02c-.06.3-.08.34-.25.59.09.44.14.56.09,1-.23.28-.08.18-.48.26-.1-.35-.21-.75-.34-1.11-.18-.46-.06.23-.22-.3-.41-1.38-.37-2.8-.81-4.22-.03-.09.09-.59.11-.68.55-.63.71.23,1.24.12.24-1.68-.06-4.57.28-6.12h-.02Z"/>
  <path class="st11" d="M1757.76,1007.25l.28-.26.17.07c.06.17.11.33.16.5-.48.78.1,1.71-.66,2.26-.24-.43.3-1.87.04-2.56h0Z"/>
  <path class="st38" d="M1756.21,1008.36c-.55.72-.11.55-.3,1.37h-.12c-.56-.98-1.04-1.44.16-2.12.08.25.17.5.26.75h0Z"/>
  <path class="st11" d="M1755.69,1010.46c1.71-.03,2.12.02,1.79,1.76h-.16c-.63-.48-1.16-1.12-1.63-1.76h0Z"/>
  <path class="st16" d="M1755.02,1013.28c.13-.31.1-.41.32-.51.15.15.43.47.6.52.42-.32.44-.09.82-.62.75.68,2.1,1.68,2.96,2.23.75.96-.07,5.45-.72,6.72-.35.02-.18.16-.53.08-.34-.83-.71-1.62-1.09-2.43-.58-1.63-1.5-3.45-2.15-5.23h-.11c-.04-.25-.08-.5-.11-.76h.01Z"/>
  <path class="st36" d="M1755.24,1014.04c1.19.01,3.1,5.61,4.01,5.86-.01.38,0,.36-.18.69l-.15-.04c-.27-.64-.41-1.71-1-1.99-.39.16-.29.21-.53.72-.58-1.63-1.5-3.45-2.15-5.23h0Z"/>
  <path class="st35" d="M1755.02,1013.28c.13-.31.1-.41.32-.51.15.15.43.47.6.52.13.1.35.3.49.35.2.45,1.14,2.69,1.32,3,.37.85.77,1.41,1.12,2.15.23.43.4.65.39,1.12-.92-.25-2.83-5.85-4.01-5.86h-.11c-.04-.25-.08-.5-.11-.76h0Z"/>
  <path class="st39" d="M1755.94,1013.29c.42-.32.44-.09.82-.62.75.68,2.1,1.68,2.96,2.23l-.08.69-.17.02c-.88-.73-2-1.53-3.05-1.97-.14-.06-.35-.25-.49-.35h.01Z"/>
  <path class="st11" d="M1757.75,1016.64h.15l.07.14c.27.51.32.6.73.99v-.07c.27.31.35.36.39.77l-.23.32c-.35-.74-.75-1.3-1.12-2.15h.01Z"/>
  <path class="st37" d="M1757.89,1021.64c.65.61.05,1.48-.3,2.13v.24c-.42.28-1.74.74-2.28.91-.12-.04-.48-.12-.63-.16-.09-.29.01-.45-.03-.66-.17-.74-.32-1.62-.94-2.12.22.1.56.25.76.36-.03.4-.05.45.09.83l.12-.08.06-.31c.12.49.05.87.19,1.39h.05l.06-.19-.07.12c0-.22-.04-.12.11-.3,0-.17,0-.33.04-.51.8.37,2.23-1.16,2.76-1.68h0v.03h0Z"/>
  <path class="st39" d="M1753.68,999.16l.48.57c.35.41.55.5.58,1.02-.39.71-.3,4.21-.57,5.1l-.15-.02v-.54l-.16-.08c-.22.14-.19.17-.45.2,0-1.99.14-4.25.27-6.25h0Z"/>
  <path class="st11" d="M1757.89,1021.64c.17-.03.4.03.58.06.35.08.18-.06.53-.08-.61,1.25-.39,1.63-1.4,2.38v-.24c.34-.65.94-1.53.29-2.13h0Z"/>
  <path class="st35" d="M1740.01,960.42c2.28.34,3.47.83,5.58,1.67,2.79,1.02,3.13,1.23,6.16,1.66l-.06.24-.09.17c.44,1.14,5.08,5.33,6.21,6.44,1.43,1.41,4.04,4.73,5.56,5.58.02-.33.06-.37.2-.66.46.81.88,1.42,1.41,2.19-.66.36-1.33.71-2.01,1.05-1.69.72-2.63.68-4.61,1.68l-.48.53c-.66-.17-10.95-9.28-12.18-10.43-1.84-1.68-5.56-5.04-6.19-7.44-.29-1.09,0-1.77.51-2.67h-.01Z"/>
  <path class="st36" d="M1752.86,971.07c-.56-.89-2.22-3.21-2.11-4.21l.13-.13c.85.07,8.18,7.13,9.03,8.29.65.88,2.4,2.81,3.05,3.73-1.69.72-2.63.68-4.61,1.68l-.48.53c-.66-.17-10.95-9.28-12.18-10.43l.24-.24c.68.59,1.45,1.41,2.31,1.57-.51-.7-.88-1.17-1.27-1.93l-.08-.16c.25,0,1.31-.03,1.5.02,1.69.43,2.69,1.06,4.48,1.29h-.01Z"/>
  <path class="st29" d="M1745.93,970.28c.68.59,1.45,1.41,2.31,1.57,2.45,2.53,5.56,4.71,8.14,7.14.59.56,1.29,1.02,1.98,1.44l-.48.53c-.66-.17-10.95-9.28-12.18-10.43l.24-.24h-.01Z"/>
  <path class="st19" d="M1740.01,960.42c2.28.34,3.47.83,5.58,1.67-.55.38-.96.5-1.53.84-.95.56-1.84,1.27-2.82,1.77,1.01,1.7,3.01,4.6,4.69,5.58l-.24.24c-1.84-1.68-5.56-5.04-6.19-7.44-.29-1.09,0-1.77.51-2.67h0Z"/>
  <path class="st11" d="M1764.8,978.4l.42-.21c.35.13,4.48,5.68,5.17,6.45,4.4,4.95,9.09,9.64,14.06,14.02,1.6,1.42,3.21,2.83,4.84,4.22.51.45,2.05,1.74,2.44,2.19l.19.12c-.35.42-.52,1.4-.65,1.98-.08-.03-.16-.06-.24-.09-3.93-2.81-7.47-6.16-11.38-9.02-3.15-2.3-6.51-4.24-9.61-6.59-.79-.6-2.38-1.93-2.67-2.86-.29-.41-2.55-1.98-3.08-2.48-1.74-1.66-4.13-3.16-5.85-4.77,0-.32.06-.27.28-.59,1.12-1.01,3.12-1.34,4.6-1.71l1.48-.65h0Z"/>
  <path class="st36" d="M1764.8,978.4c.61.82,1.31,1.95,1.87,2.82,1.13,1.75,3.95,5.65,2.91,7.81-.43.25-.65.17-1.19.15-.34-.2-.69-.39-1.03-.58-.29-.41-2.55-1.98-3.08-2.48-1.74-1.66-4.13-3.16-5.85-4.77,0-.32.06-.27.28-.59,1.12-1.01,3.12-1.34,4.6-1.71l1.48-.65h0Z"/>
  <path class="st29" d="M1764.8,978.4c.61.82,1.31,1.95,1.87,2.82,1.13,1.75,3.95,5.65,2.91,7.81-.43.25-.65.17-1.19.15-.34-.2-.69-.39-1.03-.58-.29-.41-2.55-1.98-3.08-2.48-1.74-1.66-4.13-3.16-5.85-4.77,0-.32.06-.27.28-.59l.16.08c.99,1.13,8.19,7.44,9.26,7.21,1.03-1.69-3.7-7.25-4.78-8.81l.04-.06-.08-.13,1.48-.65h0Z"/>
  <path class="st29" d="M1758.72,980.77c1.12-1.01,3.12-1.34,4.6-1.71l.08.13-.04.06c-1.48.55-3.13.86-4.48,1.6l-.16-.08h0Z"/>
  <path class="st35" d="M1764.8,978.4l.42-.21c.35.13,4.48,5.68,5.17,6.45,4.4,4.95,9.09,9.64,14.06,14.02,1.6,1.42,3.21,2.83,4.84,4.22.51.45,2.05,1.74,2.44,2.19-.58.06-3.8-2.97-4.47-3.54-3.9-3.36-8.22-6.61-12.69-9.17-1.93-1.11-4.51-1.91-6.18-3.18.55.03.76.1,1.19-.15,1.04-2.17-1.78-6.06-2.91-7.81-.56-.86-1.26-2-1.87-2.82h0Z"/>
  <path class="st11" d="M1860.38,1070.33c-1.54-.79-3.01-.68-4.47-1.33-2.56-1.18-3.83-3.83-5.45-5.97-.48-.63-2.58-2.77-2.49-3.3.32-.14,1.35-.13,1.75-.16,3.19-.3,6.19.7,9.24,1.49,1.16.3,2.67.79,3.87.92l.18.02c.39.24.23.25.56.2,1.19.57,4.74,3.73,5.6,4.81-1.32-.19-5.64-1.32-6.57-1.09l-.29.27c-1.23-.36-2.64-.82-3.86-1.13.51,1.25,1.1,2.06,1.85,3.18-.37.54-.05,1.3.07,2.1h0Z"/>
  <path class="st34" d="M1931.84,1031.79c.37.74.73,1.63,1.06,2.4,3.27,8.45,4.89,12.29-1.62,19.98-.37.54-1.04,1.04-1.56,1.43v-1.33c-.22-1.83-.13-7.05.29-8.81.21-1.29.45-2.54.92-3.76.96-2.5,1.31-4.72,1.26-7.39-.11-.84-.23-1.68-.35-2.53h0Z"/>
  <path class="st12" d="M1932.66,1034.27c.78,2.37,2.18,5.69,2.45,8.04.39,2.67-.23,3.99-1.39,6.41-.3.62-.76,1.61-1.12,2.16l-.37.05c-.26.35-.57.78-.87,1.08l-.23-.25c.01-.31.11-.35.31-.65-.1-.34.52-1.61.68-2.4v-.11c.26-1.24-.2-1.42.45-2.85.27-2.48-.19-3.03.86-5.54-.38-1.28-.5-1.98-.8-3.23-.07-.41-.18-2.39.02-2.71h.01Z"/>
  <path class="st11" d="M1934.87,1044.84c.36-.68-.19-1.96.24-2.53.39,2.67-.23,3.99-1.39,6.41-.3.62-.76,1.61-1.12,2.16l-.37.05c-.26.35-.57.78-.87,1.08l-.23-.25c.01-.31.11-.35.31-.65-.1-.34.52-1.61.68-2.4v-.11c.26-1.24-.2-1.42.45-2.85.03,1.09-.02,2.5.24,3.52-.12.24-.11.24-.14.51l.12-.07c.63-1.11,1.85-3.66,2.09-4.85h0v-.02h-.01Z"/>
  <path class="st1" d="M1932.12,1048.71l.13.09c.01.56-.03.87-.1,1.42-.21.29-.46.65-.71.89-.1-.34.52-1.61.68-2.4h0Z"/>
  <path class="st29" d="M1934.87,1044.84c-.24,1.2-1.46,3.75-2.09,4.85l-.12.07c.04-.27.03-.27.14-.51.46-1,.58-2.07.44-3.11-.04-.27-.02-.45.15-.65.34.1.32.08.54.35.13.5-.07.63-.14,1.12.4-.46.33-1.46,1.07-2.13h.01Z"/>
  <path class="st21" d="M1932.64,1036.98c.29,1.24.41,1.95.8,3.23-1.06,2.52-.6,3.07-.86,5.54-.66,1.43-.19,1.61-.46,2.85-.19-.5-.46-1.29-.83-1.66-.73-.72-.61-1.07-.88-1.97.96-2.99,1.8-4.82,2.24-7.99h-.01Z"/>
  <path class="st39" d="M1930.4,1044.96c.27.9.15,1.25.88,1.97.37.37.64,1.16.83,1.66v.11c-.15.79-.77,2.06-.67,2.4-.2.3-.3.34-.31.65l.23.25c-.58.43-1.15.71-1.29,1.4h-.16l-.13-.04c-.03.3-.05.6-.07.9-.22-1.83-.13-7.05.29-8.81l.25-.05.14-.45h.01Z"/>
  <path class="st29" d="M1929.72,1054.27c-.22-1.83-.13-7.05.29-8.81l.25-.05c-.62,2.45-.18,5.45-.35,7.98l-.13-.03c-.03.3-.05.6-.07.9h0Z"/>
  <path class="st1" d="M1929.72,1054.27c.01-.3.04-.6.07-.9l.13.03h.16l-.02.16c.4.13,1.02.28,1.22.61-.37.54-1.04,1.04-1.56,1.43v-1.33h0Z"/>
  <path class="st1" d="M1858.45,1065.05c1.22.31,2.63.77,3.86,1.13,7.36,1.88,14.23,2.28,21.68,3.18.17.02,7.29,3.56,7.76,3.89l.06.22c-1.19-.58-2.59-1.06-3.81-1.62-1.36-.58-2.84-1.61-4.32-1.87-3.17-.56-6.45-.61-9.65-.99-.62-.07-1.58-.13-2.15-.3-1.52-.08-3.04-.24-4.55-.49l-.02.34.4.39-.13.27-.36.16-.15-.06.1-.39c-.33.04-.17,0-.44.25-.48,1.33,1,3.64,1.58,4.92-1.84-2.15-2.44-3.04-3.48-5.6-.68-.4-1.16-.65-1.89-.93l-.07.18c.72.4,1.13.72,1.79,1.22.39,1.09.69,1.92,1.28,2.93,2.15,3.16,4.12,3.19,7.61,4.3h.03c.42.06,1.3.12,1.48.52-.88.39-4.17-.05-5.17-.22-5.31-.89-6.82-4.11-9.63-8.26-.75-1.12-1.34-1.93-1.85-3.18h.04,0Z"/>
  <path class="st34" d="M1861.38,1066.9c-.3-.22-1-.63-1.09-.86.41.09,1.79,1.01,2.58,1.24.09-.24.02-.14.2-.3,1.34.24,2.61.83,4.16,1.05.93.13,4.1.38,4.67.65-1.52-.08-3.04-.24-4.55-.49l-.02.34.4.39-.13.27-.36.16-.15-.06.1-.39c-.33.04-.17,0-.44.25-.48,1.33,1,3.64,1.58,4.92-1.84-2.15-2.44-3.04-3.48-5.6-.68-.4-1.16-.65-1.89-.93l-.07.18-.89-.38c-.26-.15-.4-.27-.64-.45h.02Z"/>
  <path class="st36" d="M1867.33,1068.54c-1.28-.55-2.6-.47-4.25-1.37,1.5.47,2.75.73,4.27,1.03l-.02.34h0Z"/>
  <path class="st36" d="M1861.38,1066.9c.51.19,1.12.4,1.6.66l-.07.18-.89-.38c-.26-.15-.4-.27-.64-.45h0Z"/>
  <path class="st33" d="M1862.02,1067.35l.89.38c.72.4,1.13.72,1.79,1.22.39,1.09.69,1.92,1.28,2.93-1.86-.4-3.89-2.65-3.95-4.53h-.01Z"/>
  <path class="st1" d="M1766.62,976.73l.17.18c.72.99,1.47,1.96,2.24,2.91,5.2,6.68,11.35,12.43,17.61,18.09,1.9,1.72,3.91,3.31,5.84,5l-.25,1.08c-.02.28-.02.27-.13.53l-.22.03c-.54-.28-.83-.69-1.28-1.08-8.27-7.18-16.67-14.49-23.29-23.28-.4-.54-1.64-1.92-1.63-2.47l-.15-.29c.11-.11.29-.24.42-.34l.67-.35h0Z"/>
  <path class="st35" d="M1766.05,977.52c1.59,2.08,3.21,4.28,4.94,6.24,4.01,4.53,8.33,8.91,12.82,12.96,2.75,2.48,5.65,4.79,8.41,7.27-.02.28-.02.27-.13.53l-.22.03c-.54-.28-.83-.69-1.28-1.08-8.27-7.18-16.67-14.49-23.29-23.28-.4-.54-1.64-1.92-1.63-2.47l.37-.19h.01Z"/>
  <path class="st11" d="M1766.62,976.73l.17.18c-.24.18-.56.38-.74.62l-.37.19-.15-.29c.11-.11.29-.24.42-.34l.67-.35h0Z"/>
  <path class="st38" d="M1828.52,1035.83c.71.1,1.68.53,2.36.82,1.2.44,7.28,2.88,7.7,3.68,3.13,5.99,7.52,8.49,12.52,12.3,1.23.93,12.33,9.33,12.47,9.57-.33.04-.17.04-.56-.2-.78-.71-3.5-2.56-4.47-3.26l-7.5-5.49c-1.62-1.17-14.88-11.45-15.22-11.47-.24.16-.26.2-.53.28-.6-.32-5-3.33-5.34-3.69-.68-.44-1.09-.72-1.5-1.43-.18-.5-.15-.66.07-1.1h0Z"/>
  <path class="st29" d="M1828.52,1035.83c.71.1,1.68.53,2.36.82-.64.18-1.66-.31-2.28-.57l-.08-.25h0Z"/>
  <path class="st29" d="M1828.45,1036.93l.18-.05c.37.27,1.26,1.02,1.33,1.48-.68-.44-1.09-.72-1.5-1.43h-.01Z"/>
  <path class="st31" d="M1775.95,1024.64c-.84-.45-4.08-2.97-4.42-3.74l.04-.23c1.63-.9,7.65,3.66,9.06,4.71,1.19.89,9.59,8.84,10.13,8.88-.24,1.07-.55,1.39-.62,2.54-.15-1.48-1.51-1.8-2.47-2.81-.81-.45-2.44-1.79-3.24-2.42-1.75-1.36-3.48-2.74-5.19-4.14-1.13-.94-2.15-1.89-3.3-2.81h0v.02h0Z"/>
  <path class="st36" d="M1775.95,1024.64c.75.01,2.87,1.07,3.41,1.55,1.18,1.04,8.15,6.79,8.32,7.81-.81-.45-2.44-1.79-3.24-2.42-1.75-1.36-3.48-2.74-5.19-4.14-1.13-.94-2.15-1.89-3.3-2.81h0Z"/>
  <path class="st38" d="M1790.77,1034.27c.41-3.33-.11-5.55-.43-8.85-.24-2.54-.37-5.09-.38-7.64,0-.75-.06-2.57.09-3.24l.09-.04c.15.78.13,2.71.14,3.59.03,1.49.09,2.98.18,4.47.12,1.93.28,3.86.48,5.78.25,2.67.66,5.54-.63,8.04.32,1.45.61,2.69.71,4.18,1.39,1.29,3.69,2.8,5.25,3.99l19.37,14.83c3.07,2.35,6.22,4.63,9.21,7.09.71.59,2.17,1.58,2.46,2.43l-.13.08c-.82-.32-3.15-2.34-4.08-3.05l-12.13-9.36-24.47-18.97c-3.34-2.6-6.74-5.12-10.06-7.74-.71-.56-1.22-1.07-1.78-1.78,1.8,1.07,3.95,2.79,5.63,4.08l6.98,5.36c.54.41,3.05,2.48,3.49,2.7l.03-.14c-.15-.23-.13-.11-.13-.3,0-.81-.31-2.15-.51-2.97.07-1.16.38-1.47.62-2.54h0Z"/>
  <path class="st11" d="M1865.27,1076.02c.42-.02,3.8,1.74,4.75,2,4.91,1.34,9.69,2.34,14.65,3.36-1.98.57-6.51.35-8.73.34-3.8-.19-8.76-.73-12.01-2.8-.99-.63-2.05-1.69-2.9-2.52,2.64.46,2.76,1.63,5.6,1.39-1.12-.75-2.08-1.02-3.35-1.43.93-.08,1.09-.11,1.99-.35h0Z"/>
  <path class="st31" d="M1927.65,1080.68c.19.17.54.39.75.54-.54.44-2.52,1.91-2.6,2.44l.04.06c-1.23.82-2.78,2.25-4.12,3.13-2.05,1.36-5.43,3.47-7.56,4.47-7.24,3.37-25.63,10.65-33.45,9.31,3.73-.99,8.54-1.23,12.49-2.24,7.09-1.81,13.9-4.48,20.37-7.93,1.87-1,3.46-2.28,5.21-3.38,3.29-2.06,5.88-3.92,8.86-6.38h0v-.02h.01Z"/>
  <path class="st1" d="M1928.95,1059.61c1.26.13,2.56.35,3.41,1.39.94,1.16.87,3.06.67,4.47-.57,4.16-3.09,7.24-6.35,9.68-5.74,4.3-23.85,15.03-30.67,14.02-1.98-.29-4.16-1.1-5.4-2.76-.05-.06-.09-.13-.13-.19l.18-.08c1.89,2.09,5.54,3.26,8.26,2.64,5.54-1.25,11.62-4.28,16.62-6.98,3.68-1.98,11.06-6.21,13.81-9.3,1.44-1.66,2.51-3.61,3.13-5.73.42-1.49.58-3.9-.2-5.31-.57-1.02-1.78-1.28-2.82-1.54-1.1,1.28-1.67,2.26-2.98,3.48-2.28,2.12-6.3,4.27-8.42,6.3-.42,1.53-.69,2.53-1.22,4-1.47-.88-1.88-1.6-3.64-2.25-1.3.38-3.87,1.6-5.27,2.17-3.58,1.44-6.4,2.31-10.09,3.27,1.31-1.02,1.95-1.12,3.52-1.53,1.15-.3,2.37-.7,3.5-1.1,1.38-.49,2.74-1.01,4.09-1.57,1.22-.52,2.81-1.27,4.03-1.63,1.38.4,2.21,1.11,3.33,1.96.08-.55.13-1.14.17-1.7.06-.36.1-.66.14-1.03.17-1.06.32-2.14.53-3.19.17.6.4,1.36.52,1.96,4.22-3.02,8.18-5.2,11.26-9.44h.02,0Z"/>
  <path class="st11" d="M1813.29,1018.6c-5.22-4.2-10.57-8.21-15.7-12.52-.33-.28-1.04-.77-1.03-1.19.09-.11.44-.54.44-.63,0-1.25-.17-3.19.07-4.38-.01.78-.16,4.24.17,4.69.47.11.6.09,1.1.08.78,1.03,4.59,4,5.67,4.84,5.21,4.11,10.63,7.89,16.08,11.68.33,1.09.3,1.97.34,3.09-1.08-1.5-2.43-3.39-3.76-4.66-1.09-1.04-1.99-1.09-3.36-1.01h-.02,0Z"/>
  <path class="st1" d="M1792.58,1004.19c.12-.31.17-.62.44-.79.95.61,2.19,1.81,3.1,2.58,4.03,3.38,8.17,6.58,12.26,9.88,1.2.97,2.45,1.86,3.63,2.88l.03.18-.3.23c-.53.02-1.07.23-1.59.38-1.37-1.28-3.96-3.25-5.47-4.45-2.73-2.16-5.44-4.35-8.13-6.57-1.28-1.06-2.78-2.22-3.96-3.39-.17-.17-.05-.67,0-.93h-.01Z"/>
  <path class="st35" d="M1792.58,1004.19c6.11,4.99,12.14,10.23,18.58,14.82.11.08.44.12.57.14-.53.02-1.07.23-1.59.38-1.37-1.28-3.96-3.25-5.47-4.45-2.73-2.16-5.44-4.35-8.13-6.57-1.28-1.06-2.78-2.22-3.96-3.39-.17-.17-.05-.67,0-.93h0Z"/>
  <path class="st37" d="M1807.91,1023.38c-.34-.02-2.33-1.16-2.47-1.4.2-1.52,7.69-2.73,9.11-2.8,1.18.67,1.62,1.01,2.61,1.94l-.44.18c.49.59,1.28,1.49,1.53,2.21-1.28.54-1.05-.09-2.02.01-2.81.31-5.17.18-7.94-.41-.17-.04-.24.12-.37.25h0v.02h-.01Z"/>
  <path class="st27" d="M1807.91,1023.38c-.34-.02-2.33-1.16-2.47-1.4.2-1.52,7.69-2.73,9.11-2.8,1.18.67,1.62,1.01,2.61,1.94l-.44.18c-.58-.62-.95-1.15-1.87-1.21-1.25-.08-6.95,1.66-7.61,2.11l-.04.16c.17.25.64.8.72,1.01h-.01Z"/>
  <path class="st38" d="M1908.26,1013.07c.96.56,3.48,2.06,4.17,2.85.63.54,1.53,1.26,2.11,1.81.32.16.31.17.57.42.71.6,1.16,1.07,1.8,1.75.68.64,2.74,1.84,2.98,2.17.31.25.76.58,1,.88l.08.03c.82.69,1.75,1.51,2.47,2.31.35.25.69.78,1.44,1.3l-.1-.17c1.29.78,3.49,4.77,4.19,6.17-1.1-1.08-2.06-2.62-3.13-3.52-1.53-1.3-3.18-2.59-4.72-3.89-1.02-.86-2.23-1.61-3.12-2.61.48.85.56,1.16.81,2.08l-.34-.12c-2.9-.99-3.22-4.17-4.96-6.46-.31-.37-.93-.57-1.23-.94-1.27-1.51-2.59-2.61-4.1-3.88l.09-.17h-.01Z"/>
  <path class="st29" d="M1915.11,1018.14c.71.6,1.16,1.07,1.8,1.75-.69.04-1.67-1.13-1.8-1.75Z"/>
  <path class="st29" d="M1920.97,1022.97c.82.69,1.75,1.51,2.47,2.31-.46-.06-2.39-1.87-2.47-2.31Z"/>
  <path class="st29" d="M1912.43,1015.91c.63.54,1.53,1.26,2.11,1.81-.64-.1-1.96-1.14-2.11-1.81Z"/>
  <path class="st29" d="M1919.88,1022.06c.31.25.76.58,1,.88-.54-.02-.81-.43-1-.88Z"/>
  <path class="st11" d="M1845.01,1049.91c.27.03.62.1.88.23,2.37,1.16,1.91,3.85,1.79,6.02-.05.89-.44,1.41-.03,2.22.1.19.07.12,0,.34-.61.26-1.65-.43-2.18-.77-.87-.64-1.69-1.71-2.52-2.45-.55-.49-1.85-1.64-1.41-2.42.49-.26,1.41-.36,2.05-.53.46-.78.92-1.77,1.42-2.63h0Z"/>
  <path class="st38" d="M1797.39,995.38c.07-1.76.63-8.46,1.78-9.46.13-.12.28-.17.44-.24.35.08.2-.01.43.31.04.37-.45,2.9-.53,3.73-.15,1.57-.27,3.14-.35,4.71-.03.72-.02,1.88-.08,2.53.01.44.09,1.98-.07,2.32.04.85.37,4.55.05,5.03-.34.22-.35.22-.73.34-.49,0-.63.03-1.1-.08-.33-.45-.18-3.91-.17-4.69l.15-2.53c.15-.59.18-1.36.17-1.98h0Z"/>
  <path class="st26" d="M1840.3,1036.25c1.38.19,2.74.15,4.13.13.65.32,1.07.65,1.25,1.39l-.02.17c-.37.21-1.06.24-1.53.3,1.09.88,2.58,1.6,3.81,2.28,1.86,1.02,3.74,2.01,5.61,3,3.95,2.08,7.7,4.55,11.42,7,4.03,2.66,8.36,5.28,12.08,8.35l-.17.29c-5.8-3.83-11.78-8.56-17.76-12-5.71-3.28-12.35-5.53-17.97-9.36l.04-.09c-.28-.71-1.29-.63-.88-1.46h-.01Z"/>
  <path class="st36" d="M1844.43,1036.38c.65.32,1.07.65,1.25,1.39l-.02.17c-.37.21-1.06.24-1.53.3-.41-.3-.52-.88-.3-1.32.21-.07.27-.03.49,0,.07-.25.07-.28.11-.54h0Z"/>
  <path class="st11" d="M1844.43,1036.38c.65.32,1.07.65,1.25,1.39-.66-.29-1.21-.34-1.79-.58l-.06-.27c.21-.07.27-.03.49,0,.07-.25.07-.28.11-.54h0Z"/>
  <path class="st35" d="M1854.75,1041.44c1.52.18,8.54,3.53,10.28,4.58,1.42,1.24,3.16,2.64,4.48,3.95,2.43,2.41,5.47,4.85,7.73,7.35-.55-.21-2.62-1.77-3.2-2.19-3.83-2.8-7.49-5.71-11.34-8.49-2.78-2.01-5.53-2.91-7.96-5.19h0Z"/>
  <path class="st29" d="M1899.03,1007.44c1.46.72,5.64,4.45,6.92,5.6l.32-.11.17.13c.67.42,2.26,1.33,2.8,1.79,3.37,2.91,4.53,5.85,6.08,9.71-.79-.85-1.51-1.77-2.15-2.73l-.13.14c4.43,6.54,8.67,13.14,11.13,20.7.38,1.18,1.08,3.06,1.03,4.27l-.09-.09c-.08-1.31-.56-1.84-.92-3.03-2.92-9.56-11.01-22.42-17.76-29.79-1.11-1.21-2.32-2.33-3.6-3.35-1.32-1.07-2.63-1.99-3.79-3.24h-.01Z"/>
  <path class="st35" d="M1906.43,1013.06c.67.42,2.26,1.33,2.8,1.79,3.37,2.91,4.53,5.85,6.08,9.71-.79-.85-1.51-1.77-2.15-2.73-1.19-1.82-2.61-3.57-3.91-5.29-.54-.72-2.56-2.96-2.81-3.48h0Z"/>
  <path class="st11" d="M1905.95,1013.04l.32-.11.17.13c.26.52,2.27,2.76,2.81,3.48,1.31,1.72,2.73,3.47,3.91,5.29l-.13.14c-2.46-3.4-4.28-5.84-7.08-8.92h0Z"/>
  <path class="st36" d="M1790.12,1014.33c-4.17-3.58-8.02-6.99-12.31-10.49l-9.01-7.22c-.63-.49-3.3-2.4-3.64-2.9,1.13.17,5.05,3.29,6.15,4.11,6.32,4.74,13.29,9.49,18.96,15.02l.19.24c-.08.41-.21.84-.33,1.24h0Z"/>
  <path class="st36" d="M1797.69,982.07c1.16.9,2.77,2.4,3.8,3.45-.28.18-.68.38-.98.55l-.07-.12c-.27-.49-.34-.73-.88-.89-1.9.12-2.6,7.96-2.8,9.62.19.24.42.47.62.7.01.61-.02,1.38-.17,1.98l-.47-.54-.12.02c-.08.53.31.56.26.98-.22-.13-.11-.09-.33-.13-.43,1.25-.07,5.4-.28,7.12l-.18-.02c-.85-.76-.55-3.51-.46-4.72.42-5.69.6-12.49,2.06-17.99h0Z"/>
  <path class="st11" d="M1770.36,979.83c.71.08,7.39,7.28,8.4,8.2,2.92,2.64,5.86,5.64,8.95,8.16.79.65,1.24,1.1,2.2,1.55-.08.48-.16.96-.23,1.44-.1.1-.03.06-.22.08-1.13-.93-3.85-3.18-4.76-4.11-2.24-2.28-14.11-13.29-14.34-15.32h0Z"/>
  <path class="st31" d="M1791.19,1034.91c1.14.66,3.23,2.71,4.3,3.63,3.41,2.93,6.91,5.79,9.99,9.07.44.47,1.63,1.47,1.9,1.98l-.16.04c-4.03-2.85-7.61-5.64-11.37-8.85-1.52-1.3-3.56-2.72-4.96-4.03l.3-1.84h0Z"/>
  <path class="st36" d="M1805.08,1026.78c5.12,1.75,9.64,7.2,13.72,10.68.78.66,5,4.46,5.29,5.08l-.38-.28-.06.09c.36.4.63.61,1.04.96.21.18.15.1.25.35-.45-.09-19.29-15.87-19.86-16.88h0Z"/>
  <path class="st23" d="M1865.29,1098.99c1.76-.24,14.79.16,15.88,1.11l-.07.17-.18.05c-1.33.18-3.52.4-4.84.45-1.06.31-4.32.23-5.44.18-1.23.24-4.41-.59-5.32-1.48-.12-.12-.05-.31-.03-.47h0Z"/>
  <path class="st11" d="M1870.64,1100.94c-1.23.24-4.41-.59-5.32-1.48-.12-.12-.05-.31-.03-.47.71.34,5.34.7,6.42.78.87.21,1.14.4,1.92.84.43-.03,2.01.06,2.45.15-1.06.31-4.32.23-5.44.18h0Z"/>
  <path class="st38" d="M1873.63,1100.61c.43-.03,2.01.06,2.45.15-1.06.31-4.32.23-5.44.18.75-.58,2.13,0,2.99-.33h0Z"/>
  <path class="st22" d="M1871.7,1099.77l.52-.16-.33-.12c.35-.05,1.05.15,1.43.23,2.43.46,5.12.55,7.59.6-1.33.18-3.52.4-4.84.45-.44-.09-2.02-.18-2.45-.15-.78-.45-1.05-.63-1.92-.84h0Z"/>
  <path class="st24" d="M1820.63,1025.34c.97.63,5.5,3.47,5.97,4.1.55.25,1.21.47,1.44,1.03v.16c.14.58.24.93.21,1.53l-.16.17c-2.23-1.08-3.62-2.42-6.24-3.19-.59-.17-1.19-.3-1.8-.39-.66-.1-4.42-.34-4.72-.62l.02-.32c.28-.28.34-.29.84-.27,1.6.06,3.22.25,4.82.37.36-1.01.14-1.45-.3-2.4l-.08-.18h0Z"/>
  <path class="st38" d="M1820.63,1025.34c.97.63,5.5,3.47,5.97,4.1-1.79-.56-3.73-1.21-5.58-1.53.36-1.01.14-1.45-.3-2.4l-.08-.18h-.01Z"/>
  <path class="st34" d="M1815.35,1027.82c.28-.28.34-.29.84-.27,1.6.06,3.22.25,4.82.37,1.84.32,3.78.97,5.58,1.53.55.25,1.21.47,1.44,1.03-.7-.14-3.64-1.36-4.84-1.67-3.27-.84-4.75-.71-7.85-.99h.01Z"/>
  <path class="st33" d="M1828.1,1032.34c-.02-.09-.04-.18-.07-.28-.13-.55-.28-.94.01-1.43.13.58.24.93.21,1.53l-.16.17h.01Z"/>
  <path class="st37" d="M1799.08,996.97c1.29,1.25,9.83,9.1,9.88,10.01,0,.1-.01.18-.03.28-.38.32-1.04-.02-1.36-.3-2.5-2.18-5.1-4.29-7.47-6.63-.34-.34-.72-.77-1.09-1.04.15-.33.08-1.88.07-2.32h0Z"/>
  <path class="st36" d="M1839.65,1040.14c1.23.22,6.22,2.25,7.26,2.98.58,1.46.34,2.12.75,3.35-1.17-.49-6.36-2.87-6.91-3.76.05-1.13-.51-1.44-1.1-2.57h0Z"/>
  <path class="st36" d="M1790.94,1013.4c1.39,1.4,3.84,3.4,5.37,4.65,2.34,1.9,5.17,4.47,7.59,6.2-.08.56-.15.84-.04,1.41l-.21.12c-2.81-2.58-6.11-5.12-9-7.64-1.38-1.2-2.91-2.32-4.19-3.63l.49-1.1h-.01Z"/>
  <path class="st29" d="M1874.32,1023.36l.08.21c-2.58,1.55-6.53,2.91-9.38,4.05-8.1,3.21-16.69,6.29-25.41,7.11-1.95.18-6.69-.12-8.53-.78-1.03-1.15-2.7-4.43-3.24-5.88.81,1.28,2.67,4.75,3.49,5.66,1.5.52,2.72.34,4.24.49,4.66.47,8.8-.42,13.28-1.51,8.79-2.15,17.14-5.85,25.48-9.36h0Z"/>
  <path class="st37" d="M1739.3,996.76c-1.44-2.88-2.48-8.64-2.93-11.81,1.15,2.32,1.48,4,3.02,6.46l.12.25c.13-.43.28-1.14.39-1.59.4.17.6.24,1.02.36-.7,2.77-1.03,6.01-.72,8.86-.28-.81-.58-1.75-.89-2.53h-.01Z"/>
  <path class="st38" d="M1739.89,990.07c.4.17.6.24,1.02.36-.7,2.77-1.03,6.01-.72,8.86-.28-.81-.58-1.75-.89-2.53.18-.54.17-4.1.2-5.1.13-.43.28-1.14.39-1.59h0Z"/>
  <path class="st36" d="M1772.93,1026.95c-2.66-2.98-3.46-7.11-5.18-10.53-2.64-5.26-5.6-10.77-7.38-16.41-1.31-4.15-4.19-14.86-2.71-18.83l.12-.04c.08.5-.13,1.05-.16,1.56-.03.55-.02,1.15.02,1.7.28,4.28.93,8.55,2.2,12.66.09-.34.05-.33.25-.58l-.04.09h.16c.09.44.11.63.14,1.08-.13.17-.14.19-.22.38,1.27,4.01,2.83,7.92,4.65,11.71.87,1.81,1.9,3.49,2.73,5.36,1.02,2.3,1.87,4.67,2.85,7,.52,1.24,2.41,4.23,2.57,4.86h0Z"/>
  <path class="st11" d="M1759.85,997.06c.09-.34.05-.33.25-.58l-.04.09h.16c.09.44.11.63.14,1.08-.13.17-.14.19-.22.38l-.29-.97h0Z"/>
  <path class="st36" d="M1739.06,961.03c-.83,2.09-.89,2.31-.8,4.54.08.73.56,4.48.37,4.85-.51-.02-.51-.11-.82.13-.25.72-.08,1.98-.12,2.93-.25-.45-1.24-2.35-1.5-2.59-.21-1.09,0-2.63.13-3.75.29-2.78.9-4.06,2.73-6.12h.01Z"/>
  <path class="st33" d="M1739.06,961.03c-.83,2.09-.89,2.31-.8,4.54l-.32.05c-.08-.41-.1-.81-.37-1.11h-.21c-.99.93-.82,5.89-1.15,6.39-.21-1.09,0-2.63.13-3.75.29-2.78.9-4.06,2.73-6.12h-.01Z"/>
  <path class="st33" d="M1737.94,965.62l.32-.05c.08.73.56,4.48.37,4.85-.26-.54-.59-3.97-.69-4.8h0Z"/>
  <path class="st35" d="M1933.98,1072.87c.26-.58,1.07-2.28,1.1-2.79l-.52.46c.02-.2.44-1.43.52-1.57.47-.83,1.19-4.38,1.77-4.85.46.82-.67,4.97-.98,6-2.2,7.2-4.65,9.14-10.03,13.6l-.04-.06c.08-.52,2.06-1.99,2.6-2.44,1.22-1.08,1.77-1.58,2.73-2.87-.24-.26-.25-.25-.4-.57.46-.68.93-1.29,1.38-1.98.61-.92,1.23-2.05,1.87-2.93h0Z"/>
  <path class="st31" d="M1931.13,1078.34c-.24-.26-.25-.25-.4-.57.46-.68.93-1.29,1.38-1.98.61-.92,1.23-2.05,1.87-2.93.23.71.03.96-.32,1.64-.47.9-1.83,3.19-2.53,3.84h0Z"/>
  <path class="st11" d="M1736.47,980.08c.87,2.01,2.09,3.98,2.95,6,.56,1.31,1.4,2.66,1.88,3.97l-.39.38c-.42-.12-.62-.19-1.02-.36-.11.45-.26,1.16-.39,1.59l-.12-.25c.1-.39.14-.58.19-.98-.99-2.28-1.92-5.05-3.39-7.05-.37-.51.15-2.73.29-3.29h0Z"/>
  <path class="st11" d="M1887.29,1014.16c-.26.23-.3.22-.63.33-.49-.07-.83-.09-1.16-.45.1-.79,4.35-4.93,5.24-5.6,1.37.56,1.36.54,1.48,2.02-.2.2-.49.53-.69.71-.8-.03-2.21.93-2.43,1.61l.11.1v.05c-.51.48-1.31.89-1.93,1.25h0v-.02h.01Z"/>
  <path class="st38" d="M1887.29,1014.16v-.2c.41-.32,1.41-.95,1.94-1.05-.51.48-1.31.89-1.93,1.25h0Z"/>
  <path class="st37" d="M1936.47,1045.49c-.05-.3-.14-.55-.01-.82.96.83,1.14,4.01,1.42,5.02-.66.66-.75,2.12-1.21,2.16l-.07-.26.07-.81c-.98,1.2-2.5,4.57-3.51,5.19l-.13-.09c-.13-1.6,2.06-4.96,2.62-6.63.47-1.4.58-2.3.82-3.77h0Z"/>
  <path class="st29" d="M1936.47,1045.49c-.05-.3-.14-.55-.01-.82.96.83,1.14,4.01,1.42,5.02-.66.66-.75,2.12-1.21,2.16l-.07-.26.07-.81c.53-1.05.11-4.13-.2-5.29h0Z"/>
  <path class="st11" d="M1849.02,987.59c1.56.55,2.72,1.19,4.12,2.02-1.29.82-2.28,1.27-3.66,1.86-.8.29-1.19.42-2.01.59-.3-.92-.53-2.23-.71-3.2.3-.18.63-.4.93-.59.37.37.68.74,1.19.49.22-.37.16-.73.16-1.18h-.02Z"/>
  <path class="st35" d="M1793.94,1013.01c.23-.07.28-.14.53.04,1.22.89,4.32,3.44,5.13,4.53.43.57.74,1.21.92,1.9.09.37.1.25,0,.56-.27.12-.16.13-.4.1-.97-.61-4.86-4-5.73-4.89-.2-.74-.35-1.49-.46-2.24h0Z"/>
  <path class="st34" d="M1793.94,1013.01c.23-.07.28-.14.53.04,1.22.89,4.32,3.44,5.13,4.53.43.57.74,1.21.92,1.9.09.37.1.25,0,.56-.27.12-.16.13-.4.1-.15-.55-.42-1.6-.7-2.04-1.06-1.68-3.88-3.88-5.49-5.09h0Z"/>
  <path class="st29" d="M1890.5,1086.23c-.66-.9-.68-2.83-.01-3.73.79-1.06,1.96-1.92,2.97-2.78,1.34-1.17,2.7-2.32,4.08-3.44,1.48-1.2,3.02-2.33,4.6-3.39,4.1-2.74,21.52-13.59,25.51-13.15-.06.11-.9.29-1.1.35-1.71.52-3.4,1.15-5.04,1.88-3.54,1.59-6.85,3.68-10.15,5.63-6.1,3.61-12.02,7.05-17.22,11.93-1.88,1.76-5.07,3.19-3.52,6.49l.06.12-.18.08h0Z"/>
  <path class="st32" d="M1920.55,1020.91c2.18,1.32,11.68,10.33,10.37,12.73l-.15-.02c-.85-1.29-2.29-3.45-3.28-4.56-1.11-1.24-5.77-7.35-6.63-7.62-.18-.15-.21-.31-.31-.54h0Z"/>
  <path class="st35" d="M1761.68,987.51c.22-.05.3-.09.51.1,1.67,1.46,3.62,2.7,5.18,4.26.23.23.76,2.07.64,2.39h-.17l-.09-.08c-1.3-1.12-3.1-2.26-4.44-3.41-1.34-1.16-1.47-1.62-1.63-3.26h0Z"/>
  <path class="st34" d="M1761.68,987.51c.22-.05.3-.09.51.1,1.67,1.46,3.62,2.7,5.18,4.26.23.23.76,2.07.64,2.39h-.17l-.09-.08c-.54-3.28-3.66-4.2-5.98-6.58l-.08-.09h-.01Z"/>
  <path class="st32" d="M1864.62,972.15c-.07.67-1.37,1.54-1.92,2.13-1.64,1.31-3.08,2.21-4.78,3.35-8.21,5.5-17.61,9.06-26.98,12.03-1.84.58-5.71,1.92-7.52,2.11.43-.25,2.99-.93,3.65-1.14,2.19-.7,4.37-1.41,6.54-2.13,8.49-2.8,16.56-6.03,23.97-11.08,1.45-.99,3.05-1.92,4.43-3,.86-.68,1.77-1.54,2.61-2.28h0Z"/>
  <path class="st1" d="M1890.73,985.62c5.49-.25,4.24,6.66,1.54,9.51l-.09-.06c.51-1.35,1.44-2.02,1.95-3.92.22-.99.17-3.52-.59-4.25-1.03-.99-2.7,1.63-3.17,2.29h-.14c-.42-.44-.84-1.7-1.05-2.29-.2-.01-1.36,1.13-1.69,1.4.81-1.36,1.63-2.31,3.24-2.67h0Z"/>
  <path class="st35" d="M1937.72,1053.74c.1.61.1.98.1,1.59,0,.39-.03.78-.06,1.16-.26,2.59-2.72,11.04-4.58,12.58.28-.87,1.06-2.23,1.3-2.93.31-.89,2.29-7.33,1.94-7.81-.14.39-.55.78-.85,1.05,0,0,1.96-5.08,2.15-5.64h0Z"/>
  <path class="st11" d="M1859.13,1049.1c1.44.42,5.9,2.73,7.2,3.76.3.23.57.65.76.98-1.14-.16-4.47-1.25-5.62-1.67-1.05-1.51-1.05-1.63-2.35-3.06h.01Z"/>
  <path class="st11" d="M1892.9,1073.74c1.19.52,2.44,1.33,3.55,2.03-1.14.25-2.06.41-3.22.53-1.31.08-2.62.12-3.92.1,1.17-.73,2.56-1.74,3.59-2.67h0Z"/>
  <path class="st37" d="M1830.58,1047.11c-.21-.31-.38-.42-.36-.71.1.04,4.93,4.04,5.1,4.25.06.92-1.28,1.29-2,1.44-.02-.66-2.26-3.53-2.74-4.97h0Z"/>
  <path class="st1" d="M1830.58,1047.11c-.21-.31-.38-.42-.36-.71.1.04,4.93,4.04,5.1,4.25.06.92-1.28,1.29-2,1.44.44-.47,1.16-.68,1.42-1.3-.31-.35-3.7-3.32-4.16-3.68h0Z"/>
  <path class="st38" d="M1827.65,1036.83c-.47-.48-.81-.82-1.32-1.24-.75-.62-2.97-1.85-3.22-2.71.96-.4,1.82.45,2.52.95.8.58,1.62,1.14,2.45,1.67l.06.35c-.12.44-.18,1.14-.31,1.65-.62,2.52-.93,4.88-1.26,7.44-.28-2.65.41-5.57,1.08-8.12h0Z"/>
  <path class="st34" d="M1804.63,1025.48c-.18-.4-.21-.25-.12-.55.42.12.94.59,1.33.82,2.17,1.27,4.62,1.42,7.07,1.58.55.04,1.82.02,2.24.33l-.16.47c-.49.23-4.2-.17-4.91-.28-1.37.13-4.89-1.05-5.46-2.37h.01Z"/>
  <path class="st35" d="M1804.63,1025.48c1.36.78,2.3,1.31,3.86,1.65.32.07,1.53.26,1.72.32.4.35,1.42.33,1.98.38-.7.03-1.57-.1-2.1.02-1.37.13-4.89-1.05-5.46-2.37h0Z"/>
  <path class="st35" d="M1810.21,1027.45c1.06.1,4.1.47,4.94.22l-.16.47c-.49.23-4.2-.17-4.91-.28.54-.12,1.4,0,2.1-.02-.56-.06-1.59-.04-1.98-.38h.01Z"/>
  <path class="st29" d="M1866.77,973.4c2.22,2.05,4.5,4.05,6.63,6.2,3.25,3.26,6.32,6.69,9.26,10.23.87,1.05,2.79,3.18,3.31,4.34-.12-.07-4.42-5.2-4.95-5.86-1.62-2.03-12.98-14.07-14.29-14.61l.04-.3h0Z"/>
  <path class="st1" d="M1873.6,1075.74c-.91-.11-4.42-.9-4.96-1.56-.03.02,4.12,1.2,4.77,1.22,3.9.13,8.87,1.07,12.66.36,1.21-.23,4.07-1.73,5.62-2.21-1.2,1.19-5.72,2.91-7.51,2.8-3.51-.22-7.08-.31-10.58-.61h0Z"/>
  <path class="st36" d="M1793.94,979.52c.26.39-.42,2.7-.58,3.31-1.46,5.79-2.31,11.48-3.19,17.36l-.16-.21c-.03-1.18.38-3.32.56-4.58.51-3.58,1.1-7.07,1.93-10.6.44-1.86.69-3.5,1.44-5.29h0Z"/>
  <path class="st1" d="M1871.77,1070.54c3.63,1.36,5.15,1.32,9.01,1.35.85,0,2.3.03,3.14.18.58.11,1.48-.18,1.68.14-.78.07-1.33-.02-2.03.05.31.12.42.12.75.18l-.09.1c-2.15.1-4.41.1-6.56.02-.69-.03-1.56-.02-2.02-.52-.1-.04-1.1-.25-1.36-.33-.98-.3-1.74-.61-2.67-1.01l.15-.16h0Z"/>
  <path class="st11" d="M1875.66,1072.03c1.87.16,3.58.16,5.46.18.43,0,2.15,0,2.45.05.31.12.42.12.75.18l-.09.1c-2.15.1-4.41.1-6.56.02-.69-.03-1.56-.02-2.02-.52h.01Z"/>
  <path class="st11" d="M1809.83,1024.42c.92-.06,2.16-.01,3.08.07,1.52.13,5.1-.4,5.28,1.72-.38-.07-1.05-.34-1.59-.42-1.29-.21-6.06-.59-6.77-1.36h0Z"/>
  <path class="st36" d="M1796.88,981.62l.15.14c.15.64-.72,6.09-.87,7.14-.77,5.36-1.04,10.21-1.14,15.59-.97-1.54,1.28-20.02,1.87-22.87h-.01Z"/>
  <path class="st36" d="M1826.35,1045.22c.27.45.11,4.27.06,5.1-.3,5.21,1.42,12.39.9,17.35-.4-.44-.33-1.57-.33-2.18,0-6.38-1.49-13.96-.63-20.28h0Z"/>
  <path class="st32" d="M1874.69,1019.28l.04.02-.02.16c-2.76,2.13-5.56,3.74-8.41,5.69-.52.36-1.04.71-1.58,1.05-2.59,1.63-5.39,2.92-8.31,3.82l-.09-.08c.23-.25,1.54-.68,1.95-.83,3.37-1.23,6.04-2.93,8.99-4.93,2.39-1.63,4.96-3.38,7.44-4.89h0Z"/>
  <path class="st29" d="M1876.83,1022.46c3.24-2.28,8.01-4.14,11.37-6.6,2.31-1.69,3.69-3.96,5.84-5.47-.97,1.2-4.35,4.55-5.64,5.78-.08.07.16.58-.78,1.17.08-.34.52-.86.76-1.18-1.31.69-2.56,1.51-3.85,2.25l-7.47,4.2-.23-.14h0Z"/>
  <path class="st37" d="M1920.52,1021.53c-.07.17-.06.31-.07.5l-.11.02c-.71-.69-1.41-1.36-2.16-1.99s-1.76-1.31-2.43-2l.13-.04-.12.02c.59.13.34.58,1.07.32l.04-.14c-.29-.09-.42-.15-.69-.27v-.12l.13-.04c1.14.67,2.6,1.46,3.49,2.42.11.1.67.59.74.68.1.23.13.39.31.54.36.48.75.96,1.06,1.47-.49-.47-.93-.88-1.39-1.38h0Z"/>
  <path class="st29" d="M1920.52,1021.53c-.26-.37-.69-.89-.72-1.31.11.1.67.59.74.68.1.23.13.39.31.54.36.48.75.96,1.06,1.47-.49-.47-.93-.88-1.39-1.38h0Z"/>
  <path class="st29" d="M1894.25,1002.8c.6.3,2.36,1.83,2.88,2.32-.26.6-.65,1.26-.96,1.85-.18.26-.47.62-.79.66.41-2.26-.41-2.84-1.13-4.84h0Z"/>
  <path class="st35" d="M1736.45,978.25c.34.36.98,2.13,1.27,2.67,1.3,2.41,3.7,8.21,5.38,10.02-.37-.1-1.38-.86-1.54-1.21-1.57-3.32-3.21-6.63-4.7-9.99-.21-.48-.33-.99-.42-1.49h.01Z"/>
  <path class="st0" d="M1738.09,970.73c.47.2.61.32.77.82.26.79,1.07,3.45.7,4.13-.89-.58-1.28-1.25-1.67-2.21.19-1.01.19-1.7.2-2.73h0Z"/>
  <path class="st31" d="M1741.78,991.46c.75.29.45.91.24,1.6-.73,2.39-.65,4.97-.51,7.44-.33-.28-.44-1.68-.49-2.16-.31-2.6-.07-4.41.76-6.88h0Z"/>
  <path class="st35" d="M1929.42,1043.81c.03,1.87-.34,13.6-.81,14.69-.16-.35.52-13.22.6-14.63l.21-.06h0Z"/>
  <path class="st1" d="M1885.45,1014.5l.03.17c-.71.76-10.76,5.62-12.54,6.61l-.06-.09c.69-.77,11.03-5.96,12.56-6.68h.01Z"/>
  <path class="st11" d="M1929.21,1043.87c.03-1.06.63-9.37.88-9.88.3.32.43,1.42.39,1.83-.29,2.61-1.01,5.37-1.06,8l-.21.06h0Z"/>
  <path class="st38" d="M1853.15,1029.6c.58-.21.88-.37,1.5-.37l.08.06c-.82.42-1.74.63-2.63.92-3.43,1.12-6.99,1.55-10.54,2.08-.39.06-1,.12-1.36.1.81-.3,1.19-.14,1.89-.32,2.09-.54,4.35-.74,6.46-1.18,1.16-.25,2.68-.73,3.84-1.08l.76-.21h0Z"/>
  <path class="st25" d="M1817.15,1021.13c.79,1.01,3.47,4.71,3.27,5.91h-.16c-.43-.4-1.68-2.87-2.03-3.52-.25-.72-1.04-1.62-1.53-2.21l.44-.18h.01Z"/>
  <path class="st29" d="M1886.88,1091.98c.79-.09,1.58-.27,1.95.63l-.08.11c-.18-.17-.6-.62-.83-.59-2.94.41-5.79.44-8.75.44-.75.04-1.45.08-2.18-.13.82-.13,3.13-.12,4.11-.14,1.93-.05,3.86-.16,5.79-.32h-.01Z"/>
  <path class="st36" d="M1885.64,1094.75c.15-.05.06-.04.27,0-1.05.62-7.56.57-9.19.57-.26-.02-.15.02-.35-.1.25-.13,8.27-.41,9.27-.47h0Z"/>
  <path class="st35" d="M1869.89,1097.93l.2.03c1.3.22,3.87.18,4.79.61l-.03.08-.22.04.24-.1-.05-.03c-.88.59-4.01,0-5.01-.44l.09-.22h0v.03h0Z"/>
  <path class="st31" d="M1937.87,1049.68c.27,1.14.15,4.5-.04,5.65,0-.61,0-.98-.1-1.59l-.08-.05c0-.13.26-1.05.31-1.4-.08-.27-.15-.5-.37-.67-1.06.24-1,1.15-1.29,2.03-.02-.1.24-1.85.28-2.05l.07.26c.47-.04.55-1.5,1.21-2.16h0v-.02h.01Z"/>
  <path class="st29" d="M1892.83,986.94l.31.08c-.03.28-.59.44-.82.72-.57.7-.72,1.58-1.17,2.41-.22.04-.15-.02-.25.1.15.44.24.51.12.88l-.14-.16c-.21-.58-.72-1.2-.78-1.62l.31.16c.87-.35,1.22-1.6,2.43-2.57h-.01Z"/>
  <path class="st38" d="M1763.35,976.18c-.11-.99-1.36-3.28-1.83-4.37-.42-.98-.76-1.99-1-3.03-.11-.47-.28-1.18-.16-1.64.37.84.61,2.61.96,3.6.6,1.7,1.44,3.16,2.22,4.78-.14.3-.17.33-.2.66h.01Z"/>
  <path class="st31" d="M1933.29,1070.54l.11.19c-.31,1.13-2.1,3.63-2.83,4.68-.34-.63.4-1.36.79-1.93.66-.97,1.27-1.97,1.93-2.94h0Z"/>
  <path class="st28" d="M1837.25,1035.05c1.06.31,2.06.96,3.05,1.2-.41.83.6.75.88,1.46l-.04.09c-1.24-.67-2.86-1.85-3.89-2.76h0Z"/>
  <path class="st36" d="M1821.17,1017.52l.19.18c.19.79-.19,5.97-.22,7.18-.48-.68-.06-6.2.03-7.36h0Z"/>
  <path class="st11" d="M1867.73,1068.93c.18-.11.46-.3.66-.19.54.28,2.32,1.17,2.65,1.53.24.09.48.18.73.27l-.15.16c-1.05-.27-1.88-.68-2.85-1.15h-.27c-.41-.27-.43-.31-.9-.35l.13-.27h0Z"/>
  <path class="st35" d="M1868.77,1069.55c.63-.27,1.57.49,2.27.73.24.09.48.18.73.27l-.15.16c-1.05-.27-1.88-.68-2.85-1.15h0Z"/>
  <path class="st11" d="M1867.08,1094.52c1.08,1.25,1.47,2.11,2.81,3.41l-.09.22c-1.33-.2-2.28-2.51-2.72-3.63h0Z"/>
  <path class="st38" d="M1751.74,963.75c.69-.04,1.63.05,2.32.08.95.03,4.78-.25,5.4.09-.52.36-4.27-.03-5.13-.02-.8.01-1.83.04-2.65.08l.06-.24h0Z"/>
  <path class="st38" d="M1881.16,1062.17c.83.64,4.54,3.53,4.8,4.22-1.68-1.34-3.34-2.7-4.99-4.08l.19-.14h0Z"/>
  <path class="st33" d="M1894.13,1008.55c-.77,1.24-3.32,4.05-4.57,4.49.6-.67,1.32-1.25,1.97-1.88.2-.18.5-.51.69-.71.6-.62,1.27-1.33,1.91-1.9Z"/>
  <path class="st29" d="M1877.05,1058.87c1.48,1.11,2.69,2.11,4.11,3.3l-.19.14c-1.38-1.13-2.65-2.09-4.09-3.14l.17-.29h0Z"/>
  <path class="st33" d="M1791.91,1005.19c-.02.52-.93,5.27-1.09,5.88l-.17-.28c.26-1.28.27-2.23.6-3.62.13-.58.3-1.55.65-1.98h.01Z"/>
  <path class="st11" d="M1850.36,1049.42c.57.14,3.89,2.76,4.2,3.32-.48-.14-3.87-2.84-4.2-3.32Z"/>
  <path class="st38" d="M1855.82,1029.6l.07.13c-.39.37-3.94,1.06-4.73,1.24l-.07-.14c.69-.3,3.88-1.02,4.73-1.22h0Z"/>
  <path class="st31" d="M1881.28,1014.19c1.16-.07,1.73,0,2.87.22-.66.09-1.03.14-1.7.15-1-.1-1.57.15-2.18.07.38-.3.53-.3,1.01-.44Z"/>
  <path class="st31" d="M1863.02,1059.71c.58.19,3.45,2.73,3.57,3.14-.67-.24-3.07-2.53-3.57-3.14Z"/>
  <path class="st37" d="M1859.18,1056.52c.61.2,3.32,2.52,3.66,3.09-.43-.06-3.27-2.61-3.66-3.09Z"/>
  <path class="st37" d="M1878.44,1015.21l.12.06c-.2.37-1.61,1.12-2.07,1.48-.71.56-1.15,1-1.79,1.65l-.12-.02c.26-.9,3.08-2.67,3.86-3.16h0Z"/>
  <path class="st37" d="M1813.93,1012.33c.67.28,2.37,2.1,2.62,2.81-.5-.23-2.3-2.28-2.62-2.81Z"/>
  <path class="st29" d="M1889.09,1096.01c1.27-.13,2-.12,3.12.56-.7.06-2.48-.28-3.12-.56Z"/>
  <path class="st37" d="M1855.5,1053.66c.73.09,2.85,1.93,3.33,2.5-.65-.16-2.66-1.97-3.33-2.5Z"/>
  <path class="st11" d="M1852.39,1029.81c-.27-.41-.42-.62-.33-1.09l.23-.07c.51.17.75.45.86.95l-.76.21h0Z"/>
  <path class="st31" d="M1874.32,1023.36c.62-.24,1.93-.79,2.52-.9l.23.14c-.93.31-1.75.93-2.67.97l-.08-.21Z"/>
  <path class="st11" d="M1837.76,1032.95c.71-.05,1.51.34,1.97.88-1.09.03-1.33,0-1.97-.88Z"/>
  <path class="st36" d="M1916.5,1071.31c-.1-.65-.4-3.4-.29-4.01.21.26.36,2.44.42,2.98-.03.37-.07.66-.14,1.03h.01Z"/>
  <path class="st31" d="M1865.74,1089.73c.44.34.75,2.64.87,3.32-.57-.75-.78-2.4-.87-3.32Z"/>
  <path class="st37" d="M1792.4,1005.55c.57.42,1.72,1.03,1.63,1.72-.54-.46-1.11-.8-1.73-1.34l.1-.38Z"/>
  <path class="st37" d="M1887.59,991.76c.31.49.64,2.31,1.05,3.27l-.29-.17c-.47-.72-.72-2.25-.75-3.11h-.01Z"/>
  <path class="st31" d="M1814.53,993.53c.51.18.27.33.87.44.48-.17.73-.33,1.17-.17-.86.51-1.53.67-2.05-.27h.01Z"/>
  <path class="st31" d="M1790.27,1012.86c.1-.34.31-1.65.39-2.07l.17.28c-.11.68-.24,1.35-.37,2.02l-.19-.24h0Z"/>
  <path class="st29" d="M1890.9,1085.4c.58.22,1.17.95,1.53,1.44-.66-.26-1.11-.89-1.53-1.44Z"/>
  <path class="st31" d="M1895.47,1008.72l.15.16c.08.48-.02.82-.1,1.3l-.12-.11c-.1-.32.03-.99.07-1.35h0Z"/>
  <path class="st31" d="M1803.86,1025.65c.25.22.56.42.64.72-.3-.03-.61-.38-.85-.6l.21-.12h0Z"/>
  <path class="st11" d="M1828.08,1035.5c0-.37-.05-.65.15-.96.17.44.02.85-.09,1.31l-.06-.35h0Z"/>
  <path class="st32" d="M1892.52,1096.83l.49.11.05.13-.35.27c-.41-.07-.35.03-.52-.19l.33-.31h0Z"/>
  <path class="st31" d="M1908.17,1013.24c-.45-.27-.6-.36-.99-.7.35.06.75.34,1.08.53l-.09.17h0Z"/>
</svg>