<?xml version="1.0" encoding="UTF-8"?>
<svg id="Layer_1" xmlns="http://www.w3.org/2000/svg" version="1.1" viewBox="0 0 867.36 853.81">
  <!-- Generator: Adobe Illustrator 30.5.1, SVG Export Plug-In . SVG Version: 2.1.4 Build 3)  -->
  <path d="M0,306.47"/>
  <g>
    <path d="M471.5,134.71c11.23,1.52,14.94,10.88,19.9,19.13,9.57,15.92,13.08,17.01,30.47,10.01,14.74-5.93,24.67-.59,27.31,15.34.95,5.73,1.33,11.97.11,17.57-5.57,25.56-11.83,50.98-17.79,76.46-1.31,5.6-4.56,11.19,2.64,16.04,1.77,1.19,1.13,7.16.38,10.67-2.82,13.33-5.94,26.61-9.39,39.78-1.08,4.11-3.17,8.11-5.51,11.7-17.55,26.93-35.29,53.74-52.95,80.61-4.19,6.38-8.5,12.7-12.4,19.26-8.22,13.83-19.27,22.6-35.84,25.61-12.16,2.2-23.81,7.66-35.39,12.39-2.84,1.16-6.43,5.26-6.31,7.86.26,5.64,5.42,5.73,10.01,5.24,5.77-.61,11.53-1.23,19.13-2.03-3.01,12.15-10.24,19.04-15.52,26.96-8.64,12.95-7.89,13.66,6.73,20.61,11.14,5.3,22.5,5.58,34.27,6.38,9.76.67,15.58-2.98,19.47-11.24,4.4-9.34,10.24-18.3,12.83-28.12,3.53-13.39,11.19-23.29,20.39-32.86,22.31-23.22,44.51-46.55,66.32-70.24,16.05-17.43,28.5-37.08,35.1-60.24,2.68-9.4,6.91-18.36,10.55-27.48,1-2.5,2.35-6.89,3.66-6.93,13.12-.47,13.85-12.93,22.22-19.27-3.1,9.55-6.21,19.09-9.87,30.36,14.07,22.5,29.34,46.9,45.12,72.13-5.81,5.88-10.38,10.36-14.8,14.98-29.79,31.16-59.41,62.49-89.38,93.48-18.87,19.5-24.73,42.06-21.65,68.96,6.82,59.62,11.94,119.44,17.9,179.16.41,4.1,2.09,8.08,3.31,12.59-16.52,11.2-32.48,23.64-53.56,26.05-3.62.41-8.43,1.77-10.21,4.38-3.48,5.09-6.84,11.26-7.24,17.19-.49,7.1,6.66,10.29,12.54,10.57,17.38.82,34.92,1.66,52.21.26,15.11-1.23,29.83-4.4,45.33-2.52,9.47,1.15,19.48-1.26,29.14-2.78,6.8-1.07,10.93-5.74,9.69-12.8-4.08-23.15,2.19-46.22.17-69.3-4.28-48.92-8.65-97.82-13.39-146.7-.89-9.21-.1-16.28,7.27-23.47,5.9-5.76,8.96-14.69,12.5-22.56,5.99-13.31,11.36-26.9,19.36-39.49-5.56,18.05-11.18,36.08-16.66,54.16-2.53,8.35-4.8,16.77-7.16,25.17-4.79,17.03-1.7,32.36,9.96,45.82,41.1,47.45,82.15,94.93,123.35,142.29,3.13,3.6,7.26,6.33,11.33,9.81-3.01,5.66-6.13,11.4-9.14,17.19-4.2,8.09-9.45,14.41-19.63,15.1-3.6.24-7.31,2.29-10.52,4.25-7.24,4.43-10.47,12.3-8.49,19.61,2.06,7.57,8.06,9.9,14.93,10.5,7.61.66,15.27.69,22.89,1.28,21.21,1.65,38.14-5.66,51.73-22.35,5.72-7.03,13.87-12.04,20.76-18.15,8.12-7.19,16.19-14.45,24.04-21.93,4.6-4.38,4.72-9.55,1.16-14.79-3.98-5.86-7.81-11.83-11.96-17.57-5.88-8.11-15.29-14.17-13.92-26.34.23-2.07-2.63-4.61-4.28-6.75-21.65-28.11-43.02-56.43-65.16-84.14-9.17-11.47-19.99-21.62-30.09-32.35-3.69-3.91-7.46-7.74-11.99-12.43,5.89-9.77,11.17-19.21,17.1-28.22,22.48-34.17,44.99-68.32,67.83-102.25,15.96-23.69,22.35-49.34,18.3-77.69-.94-6.62-3.68-13.13,1.74-20.15,1.86-2.41-1.72-10.2-4.32-14.66-15.33-26.41-30.02-53.3-47-78.64-21.53-32.14-44.42-63.43-67.92-94.17-17.2-22.5-40.54-37.84-66.3-49.41-16.34-7.34-32.37-15.54-49.14-21.7-9.25-3.4-11.03-9.16-11.36-17.31-.49-11.98-.77-23.99-2-35.9-4.15-40.11-37.35-63.74-76.91-54.79-21.1,4.77-39.59,13.8-47.11,35.96-2.92,8.59-3.19,18.08-4.85,28.24-12.25,8.04-25.34,16.64-38.43,25.22q9.11,13.39,47.25,4.4c11.64,10.6,2.67,24.94,7.16,38.99Z"/>
    <path d="M299.08,262.69c-16.02,80.6-31.81,160-48.02,241.55,43.85,8.93,86.88,17.69,130.41,26.55,4.49-7.05,8.5-13.36,13.67-21.48-5.04-.28-8.47-.56-11.91-.64-6.86-.15-11.64-3.02-12.73-10.13-1.04-6.84,2-11.66,8.42-14.14,12.69-4.92,25.08-11.38,38.23-14.16,15.99-3.38,25.74-12.24,33.78-25.61,17.14-28.5,33.93-57.35,53.33-84.28,11.08-15.37,17.29-31.01,18.96-51.08-24.24-7.37-49.33-11.11-75.9-16.59-4.08,17.8-8.03,35.09-12.44,54.34-10.99-1.84-21.44-3.59-34.03-5.7,3.52-18.49,6.83-35.88,10.57-55.5-37.07-7.63-73.62-15.16-112.34-23.13Z"/>
    <path d="M458.79,546.21c19.65,3.97,37.12,7.51,56.85,11.5,7.87-39.22,15.52-77.36,23.6-117.65-12.3,5.56-18.08,15.44-25.97,22.71-8,7.37-15.43,15.37-22.93,23.26-7.81,8.23-15.84,15.97-18.79,27.99-2.53,10.32-7.79,19.97-12.76,32.19Z"/>
  </g>
</svg>