<?xml version="1.0" encoding="UTF-8"?>
<svg id="Layer_1" xmlns="http://www.w3.org/2000/svg" version="1.1" viewBox="0 0 884.49 960.32">
  <!-- Generator: Adobe Illustrator 30.5.1, SVG Export Plug-In . SVG Version: 2.1.4 Build 3)  -->
  <path d="M0,402.19"/>
  <path d="M806.11,887.03c17.93,5.02,37.42,9.42,57.72,3.97,2.74-.73,6.65-1.17,8.64.22,4.55,3.17,10.05,6.94,11.69,11.67,1.27,3.66-1.37,10.7-4.63,13.57-16.29,14.33-35.76,22.78-56.76,27.95-13.13,3.23-26.21,6.69-39.23,10.36-39.05,11.01-36.26,6.83-44.97-24.74-1.9-6.88-1.73-13.64-10.54-16.43-2.86-.91-4.74-6.48-6.1-10.26-19.37-54.02-39.82-107.67-52.1-163.98-8.67-39.73-27.93-75.59-53.84-100.83,1.74,5.02,1.99,8.12,3.62,10.05,10.59,12.59,8.2,25.89,3.87,40.13-5.56,18.28-11.98,35.89-24.35,50.83-34.9,42.13-62.27,89.39-91.93,135.09-4.39,6.77-9.78,12.89-15.45,20.27,1.65,3.4,4.23,8.03,6.18,12.92,4.26,10.63,11.38,16.99,22.83,20.2,16.87,4.73,19.9,11.22,16.47,30.08-30.47,4.6-59.57,3.74-84.25-19.29-6.83-6.37-15.17-11.12-22.84-16.59-10.02-7.16-20.06-14.31-30.19-21.53,1.13-3.91,1.36-6.3,2.45-8.21,30.75-53.76,56.91-110.2,93.32-160.66,9-12.48,19.51-23.91,28-36.7,5.05-7.61,9.8-16.69,10.74-25.53,3.43-32.39,6.46-64.93,7.11-97.46.35-17.44-4.45-34.99-7.03-52.48-.25-1.69-.79-4.29-1.91-4.76-13.64-5.75-9.45-17.39-8.81-27.35,3.46-53.42-1.21-106.58-4.17-159.82-1.45-26.02-2.08-52.1-2.43-78.16-.42-31.38,10.21-59.18,28.94-84.11,3.18-4.24,6.12-8.66,9.09-13.05,9.63-14.25,8.78-28,.67-43.2-6.86-12.86-12.37-26.96-15.49-41.17-5.21-23.66,6.25-47.6,28.01-57.9,11.98-5.67,25.81-9.28,39.03-10.03,18.83-1.07,35.2,6.62,43.27,25.09,4.03,9.24,10.42,11.74,19.29,12.45,11.54.93,23.03,2.51,35.28,3.89q-6.65,14.48-41.56,23.99c-5.56,14.37,9.06,22.07,10.85,31.37-3.32,10.14-7.38,17.93-8.24,26.06-2.51,23.78-2.58,24.39-26.33,25.75-1.17.07-2.32.4-4.42.78-6.74,9.31-7.71,17.72-1.08,29.62,28.13,50.46,43.48,104.61,42.32,163.28-11.22.93-16.49-5.65-19.88-14.35-4.24-10.87-8.08-21.91-13.6-32.56-3.51,9.76.88,18.58,3.49,27.39,4.13,13.9,11.47,23.45,26.85,29.1,21.51,7.9,41.25,20.56,61.86,30.97,10.03,5.07,20.05,10.33,30.55,14.22,5.8,2.15,12.87,3.17,18.87,2.06,17.38-3.21,34.1-.09,51.62,2.18-.97,15.6-17.03,8.1-23.01,17.16,9.3,14.07,26.38,20.7,37.58,34.05-2.36,2.93-3.72,6.36-6,7.15-9.86,3.42-20.05,5.85-30,9.04-11.08,3.55-20.88,1.34-29.79-5.72-4.18-3.31-9.02-6.21-12.11-10.38-10.63-14.33-26-19.17-42.15-23.95-31.15-9.23-61.97-19.62-92.83-29.8-16.96-5.59-30.23-15.41-37.59-32.61-4.87-11.39-11.11-22.22-17.1-33.1-1.68-3.05-4.62-5.4-6.99-8.07-1.25.78-2.5,1.56-3.75,2.34,7.12,14.39,14.46,28.67,21.29,43.2,8.01,17.03,20.71,28.24,38.57,34.36,17.89,6.14,35.43,13.26,55.47,20.84,2.49,21.24,5.08,43.41,7.68,65.58-8.85,13.66-.42,25.99,3.62,38.21,12.08,36.53,25.14,72.74,37.51,109.17,8.95,26.35,17.4,52.84,20.29,80.77,4.31,41.59,17.49,80.85,32.07,119.74,5.8,15.46,10.95,31.17,16.71,47.65Z"/>
</svg>