<?xml version="1.0" encoding="UTF-8"?>
<svg id="Layer_1" xmlns="http://www.w3.org/2000/svg" version="1.1" viewBox="0 0 1024 1024">
  <!-- Generator: Adobe Illustrator 30.4.0, SVG Export Plug-In . SVG Version: 2.1.4 Build 226)  -->
  <defs>
    <style>
      .st0 {
        fill: #b2b3b5;
      }

      .st1 {
        fill: #7d7e80;
      }

      .st2 {
        fill: #c1c2c5;
      }

      .st3 {
        fill: #bfc0c3;
      }

      .st4 {
        fill: #b6b8ba;
      }

      .st5 {
        fill: #f5f5f3;
      }

      .st6 {
        fill: #a0a2a5;
      }

      .st7 {
        fill: #dbdbdd;
      }

      .st8 {
        fill: #8a8b8e;
      }

      .st9 {
        fill: #e1e2e4;
      }

      .st10 {
        fill: #d3d4d8;
      }

      .st11 {
        fill: #b7b8ba;
      }

      .st12 {
        fill: #d7d8da;
      }

      .st13 {
        fill: #c6c7cb;
      }

      .st14 {
        fill: #9da0a1;
      }

      .st15 {
        fill: #999c9f;
      }

      .st16 {
        fill: #c9cacc;
      }

      .st17 {
        fill: #bbbdbf;
      }

      .st18 {
        fill: #9b9ea1;
      }

      .st19 {
        fill: #cbcdd0;
      }

      .st20 {
        fill: #929495;
      }

      .st21 {
        fill: #979b9d;
      }

      .st22 {
        fill: #d7d7db;
      }

      .st23 {
        fill: #a0a3a4;
      }

      .st24 {
        fill: #d1d2d6;
      }

      .st25 {
        fill: #c4c5c9;
      }

      .st26 {
        fill: #c3c4c7;
      }

      .st27 {
        fill: #a5a7a7;
      }

      .st28 {
        fill: #efeff0;
      }

      .st29 {
        fill: #8e8e90;
      }

      .st30 {
        fill: #878b8d;
      }

      .st31 {
        fill: #acaeb1;
      }

      .st32 {
        fill: #cccdd0;
      }

      .st33 {
        fill: #95979a;
      }

      .st34 {
        fill: #b9babc;
      }

      .st35 {
        fill: #dedfe0;
      }

      .st36 {
        fill: #898a8a;
      }

      .st37 {
        fill: #eaebed;
      }

      .st38 {
        fill: #c0c0c4;
      }

      .st39 {
        fill: #f2f3f6;
      }

      .st40 {
        fill: #a8a9ac;
      }

      .st41 {
        fill: #98999a;
      }

      .st42 {
        fill: #cfd0d4;
      }

      .st43 {
        fill: #bbbcbf;
      }

      .st44 {
        fill: #afb1b2;
      }

      .st45 {
        fill: #bcbebf;
      }

      .st46 {
        fill: #b1b2b5;
      }

      .st47 {
        fill: #cdced1;
      }

      .st48 {
        fill: #cbcdcf;
      }

      .st49 {
        fill: #adafb2;
      }
    </style>
  </defs>
  <path class="st36" d="M249.42,514.98c12.93,2.82,24.47,12.49,31.27,23.66-1.7.89-3.43,1.74-5.18,2.54-.51-1.45-.27-3.74-1.7-4.6-1.8-.95-3.87-1.36-5.68-2.31-1.47-3.72-4.6-5.11-7.42-7.63-2.19-1.77-4.48-1.02-7.01-1.1-4.12-2.32-9.38-1.98-14.02-2.66-.49,2.43,2.3,1.69,3.84,2.5-2.75-.45-5.48,2.98-7.38,1.22-2.18,1.37-4.94,2.2-6.73,4.04-1.9,2.48-5.09,2.31-7.15,4.85-1.32,1.57-6.08,2.53-5.37-.77-1.37.99-2.28,2.62-3.43,3.87-3.67,2.24-7.21,3.52-11.4,4.74-2.1,2.8-4.5,5.25-6.87,7.81-2.44-2.44-3.14.75-5.04,2.18-.88,1.83.58,3.09-1.39,4.72-1.4-.53-2.78-1.11-4.2-1.62-1.55-.56-3.27-.8-4.89-1.09-2.47-.46-4.93-.6-7.36-1.3,10.38-5.27,20.19-11.42,30.32-17.15l1.17-.83c.93-.31,1.83-.67,2.72-1.07,4.45-2.28,8.76-4.81,13.18-7.14.65-.32,1.29-.67,1.9-1.05l1.2-.75c3.59-2.02,7.12-4.15,10.6-6.35,5.81-2.19,9.33-6.18,16.02-4.71h0Z"/>
  <path class="st29" d="M239.68,522.88c4.64.68,9.9.34,14.02,2.66,2.53.08,4.82-.67,7.01,1.1,2.82,2.52,5.95,3.91,7.42,7.63,1.81.95,3.88,1.36,5.68,2.31,1.43.86,1.19,3.15,1.7,4.6-3.02,1.68-5.87,3.59-9,5.06-.63-1.56-.89-3.2-1.29-4.82-3.17-.54-7.36-.43-9.91-2.42-3.87-1.08-6.13,3.87-9.61,2.53-3.94-1.35-7.21.3-11.17.26-2.54-.18-3.97.69-6.06,1.89-1.92,1.28-4.13-.65-5.52,1.5-1.63,2.57-4.91,1.99-6.93.2-2.49,1.55-4.28,3.34-7.42,3.52-2.83-.14-1.69,3.5-4.05,3.47-5.28-.79-4.66,9.46-9.91,8.5l-1.93-.45c-1.35-.62-2.71-1.22-4.1-1.73l.15-.65c1.97-1.63.51-2.89,1.39-4.72,1.9-1.43,2.6-4.62,5.04-2.18,2.37-2.56,4.77-5.01,6.87-7.81,4.19-1.22,7.73-2.5,11.4-4.74,1.15-1.25,2.06-2.88,3.43-3.87-.71,3.3,4.05,2.34,5.37.77,2.06-2.54,5.25-2.37,7.15-4.85,1.79-1.84,4.55-2.67,6.73-4.04,1.9,1.76,4.63-1.67,7.38-1.22-1.54-.81-4.33-.07-3.84-2.5h0Z"/>
  <path class="st20" d="M255.31,539c2.55,1.99,6.74,1.88,9.91,2.42.4,1.62.66,3.26,1.29,4.82-8.07,4.9-16.6,9.11-24.8,13.79-1.35-.29-2.7-.57-4.05-.86.47-.76,1-1.47,1.5-2.21-2.45-.48-4.88-1.02-7.33-1.23,2.62,1.59-.77,4.65-2.16,5.69-2.62-2.02-1.51-2-.44-4.54-1.51-1.09-3.37-2.46-5.33-1.89-.21,1.09-.43,2.19-.64,3.28-1.61.06-3.69-1.27-4.53.67-.95,1.87-3.3,2.66-5.08,3.62-.69-1.19-.15-2.92-1.99-2.74-2.03,2.25-3.77,4.69-5.27,7.32-1.9-.88-3.77-1.8-5.66-2.69-.69-.35-1.39-.7-2.08-1.04-1.38-.7-2.79-1.33-4.22-1.9l.21-.64c5.25.96,4.63-9.29,9.91-8.5,2.36.03,1.22-3.61,4.05-3.47,3.14-.18,4.93-1.97,7.42-3.52,2.02,1.79,5.3,2.37,6.93-.2,1.39-2.15,3.6-.22,5.52-1.5,2.09-1.2,3.52-2.07,6.06-1.89,3.96.04,7.23-1.61,11.17-.26,3.48,1.34,5.74-3.61,9.61-2.53h0Z"/>
  <path class="st5" d="M280.69,538.64c.86,1.3,1.63,2.64,2.38,4.01-.96,2.26-2.95,2.78-4.89,3.94-5.29,2.18-9.91,5.4-14.98,8.03-4.07,2.2-7.94,4.72-11.98,7-2.98,1.67-5.96,3.34-8.97,4.95-6.43,3.1-12.7,6.81-18.87,10.4-1.33.66-2.64,1.36-3.92,2.11-1.31-1.83-2.19-3.76-3.7-5.46-2.46-.98-4.37-1.42-6.08-3.63l1.96-.41c5.03.16,9.69,1.06,14.3-1.3,5.71-2.02,10.44-5.48,15.77-8.25,8.2-4.68,16.73-8.89,24.8-13.79,3.13-1.47,5.98-3.38,9-5.06,1.75-.8,3.48-1.65,5.18-2.54h0Z"/>
  <path class="st27" d="M283.07,542.65l.61,1.1c-.16,13.05-.37,26.2.12,39.24-.31.71-.68,1.35-1.11,1.95l-.34-.8c.2-9.7.88-18.66-1.21-28.03-.46-1.71-1.69-2.53-2.9-3.67,2.14-2.67-1.36-2.71-.06-5.85,1.94-1.16,3.93-1.68,4.89-3.94h0Z"/>
  <path class="st49" d="M278.18,546.59c-1.3,3.14,2.2,3.18.06,5.85,1.21,1.14,2.44,1.96,2.9,3.67,2.09,9.37,1.41,18.33,1.21,28.03-1.73-1.24-1.89-3.08-2.95-4.8-1.86.09-3.68.1-5.54.05-.33,1.08-.39,2.43-1.05,3.37-.22-1.61-.32-3.23-.53-4.84-2.02-.09-1.51,1.35-2.25,2.75-3.44-7.59-.13-13.89-4.33-21.06-2.05-1.95-2.97-1.85-2.5-4.99,5.07-2.63,9.69-5.85,14.98-8.03h0Z"/>
  <path class="st0" d="M172.31,554.03c2.43.7,4.89.84,7.36,1.3-5.7,2.5-10.74,7.12-15.53,10.97-7.13,1.95-14.21,5.41-20.06,9.93-2.97,1.32-5.79,2.69-8.23,4.89-2.73,2.8-6.27,3.33-9.56,5.3-3.37.73-8.52,3.05-10.97-.5,19.55-11.18,37.88-21.2,56.99-31.89h0Z"/>
  <path class="st41" d="M223.9,554.99c1.96-.57,3.82.8,5.33,1.89-1.07,2.54-2.18,2.52.44,4.54,1.39-1.04,4.78-4.1,2.16-5.69,2.45.21,4.88.75,7.33,1.23-.5.74-1.03,1.45-1.5,2.21,1.35.29,2.7.57,4.05.86-5.33,2.77-10.06,6.23-15.77,8.25-4.61,2.36-9.27,1.46-14.3,1.3-1.77-.77-3.53-1.55-5.25-2.44,1.5-2.63,3.24-5.07,5.27-7.32,1.84-.18,1.3,1.55,1.99,2.74,1.78-.96,4.13-1.75,5.08-3.62.84-1.94,2.92-.61,4.53-.67.21-1.09.43-2.19.64-3.28h0Z"/>
  <path class="st46" d="M263.2,554.62c-.47,3.14.45,3.04,2.5,4.99,4.2,7.17.89,13.47,4.33,21.06.74-1.4.23-2.84,2.25-2.75.21,1.61.31,3.23.53,4.84.66-.94.72-2.29,1.05-3.37,1.86.05,3.68.04,5.54-.05,1.06,1.72,1.22,3.56,2.95,4.8l.34.8c-1.87,1.52-4.03,2.77-6.14,3.94-3.9,1.62-7.39,3.9-11.09,5.91-.98-1.66-1.4-3.53-2.27-5.21-2.95-.55-2.79-2.75-3.54-5.18,2.77.08,1.66-1.14,1.72-3.2-2.02.01-5.37.12-5.75-2.48-.13-4.51.18-9.16.61-13.65-1.49.07-2.96.27-4.46.29-.22-1.24-.4-2.48-.55-3.74,4.04-2.28,7.91-4.8,11.98-7h0Z"/>
  <path class="st34" d="M179.67,555.33c1.62.29,3.34.53,4.89,1.09-2.92,3.17-7.88,3.16-10.94,6.45-2.96,3.16-6.64,4.45-10.11,6.87-4.87,3.26-11.4,4.37-15.88,8.08-5.19,4.68-11.46,7.11-17.41,10.66-2.09,1.34-5.72,1.81-6.9,4.07-4.18-2.37-8.58-2.45-13-3.84,1.61-1.04,3.29-1.94,5-2.79,2.45,3.55,7.6,1.23,10.97.5,3.29-1.97,6.83-2.5,9.56-5.3,2.44-2.2,5.26-3.57,8.23-4.89,5.85-4.52,12.93-7.98,20.06-9.93,4.79-3.85,9.83-8.47,15.53-10.97h0Z"/>
  <path class="st2" d="M184.56,556.42c1.42.51,2.8,1.09,4.2,1.62l-.15.65c-2.81,2.39-6.24,3.07-9.34,4.84-6.78,4.96-13.94,8.6-21.17,12.68-5.24,1.32-9.07,5.12-14.1,7.12-3.23,2.86-6.89,4.33-10.58,6.41-2.54,2.02-4.94,2.99-8.03,3.87-.69-.35-1.38-.71-2.07-1.06,1.18-2.26,4.81-2.73,6.9-4.07,5.95-3.55,12.22-5.98,17.41-10.66,4.48-3.71,11.01-4.82,15.88-8.08,3.47-2.42,7.15-3.71,10.11-6.87,3.06-3.29,8.02-3.28,10.94-6.45h0Z"/>
  <path class="st32" d="M188.61,558.69c1.39.51,2.75,1.11,4.1,1.73-5.42,1.82-9.47,5.73-14.87,7.63-4.94,1.7-7.03,6.54-12.18,7.91-5.26,1.37-8.28,5.85-13.74,6.31-2.5,1.89-4.55,4.09-7.51,5.33-5.41,2.31-10.25,5.47-15.3,8.41-1.26-.77-2.49-1.6-3.72-2.4,3.09-.88,5.49-1.85,8.03-3.87,3.69-2.08,7.35-3.55,10.58-6.41,5.03-2,8.86-5.8,14.1-7.12,7.23-4.08,14.39-7.72,21.17-12.68,3.1-1.77,6.53-2.45,9.34-4.84h0Z"/>
  <path class="st12" d="M192.71,560.42l1.93.45-.21.64c-4.58,1.88-7.06,6.04-11.97,7.23-3.71,1.86-6.09,5.37-10.3,6.63-3.11,1.1-5.5,3.41-8.62,4.42-6.34,2.22-10.17,7.41-16.65,9.34-4.45,1.24-7.79,4.24-12.05,5.92-1.42.72-2.81.88-3.49,2.49-.76-.49-1.5-1.01-2.24-1.53,5.05-2.94,9.89-6.1,15.3-8.41,2.96-1.24,5.01-3.44,7.51-5.33,5.46-.46,8.48-4.94,13.74-6.31,5.15-1.37,7.24-6.21,12.18-7.91,5.4-1.9,9.45-5.81,14.87-7.63h0Z"/>
  <path class="st9" d="M194.43,561.51c1.43.57,2.84,1.2,4.22,1.9-4.02.58-5.69,3.52-8.91,5.53-3.56,2.32-8.06,3.03-11.29,5.75-3.62,2.91-7.5,4.75-11.9,6.14-3.87,2.2-6.49,5.62-10.87,7.15-4.63,2-8.14,4.96-13,6.04-2.12.42-3,1.94-4.54,3.21-1.94.17-3.31.31-4.95,1.53-.61-.4-1.23-.81-1.84-1.22.68-1.61,2.07-1.77,3.49-2.49,4.26-1.68,7.6-4.68,12.05-5.92,6.48-1.93,10.31-7.12,16.65-9.34,3.12-1.01,5.51-3.32,8.62-4.42,4.21-1.26,6.59-4.77,10.3-6.63,4.91-1.19,7.39-5.35,11.97-7.23h0Z"/>
  <path class="st11" d="M251.22,561.62c.15,1.26.33,2.5.55,3.74,1.5-.02,2.97-.22,4.46-.29-.43,4.49-.74,9.14-.61,13.65.38,2.6,3.73,2.49,5.75,2.48-.06,2.06,1.05,3.28-1.72,3.2.75,2.43.59,4.63,3.54,5.18.87,1.68,1.29,3.55,2.27,5.21-2.29,1.28-4.46,2.72-6.82,3.88-2.79-1.68-3.94-2.04-4.59-5.51-.51-1.59-3.11.1-3.83-2.06-.98-2.03-2.53-1.84-4.37-2.65-.63-2.16-.58-4.25-.77-6.44-1.16-2.6-2.06-5.29-3.02-7.96,1.27-1.49,2.84-1.91,2.48-4.2.56-1.95-1.33.53-1.86.67-.16-1.31-.31-2.63-.43-3.95,3.01-1.61,5.99-3.28,8.97-4.95h0Z"/>
  <path class="st37" d="M198.65,563.41c.69.34,1.39.69,2.08,1.04-.99,1.35-1.44,2.8-3.08,3.48-2.58,1.35-4.53,3.41-6.91,5-6.52,3.52-13.11,4.65-19.08,8.91-5.81,3.99-12.06,6.94-17.48,11.52-3.93.41-5.59.95-8.6,3.5-2.76,2.38-7,2.27-10.36,3.83-.68-.64-1.36-1.28-2.03-1.93,1.64-1.22,3.01-1.36,4.95-1.53,1.54-1.27,2.42-2.79,4.54-3.21,4.86-1.08,8.37-4.04,13-6.04,4.38-1.53,7-4.95,10.87-7.15,4.4-1.39,8.28-3.23,11.9-6.14,3.23-2.72,7.73-3.43,11.29-5.75,3.22-2.01,4.89-4.95,8.91-5.53h0Z"/>
  <path class="st39" d="M200.73,564.45c1.89.89,3.76,1.81,5.66,2.69,1.72.89,3.48,1.67,5.25,2.44l-1.96.41c1.71,2.21,3.62,2.65,6.08,3.63,1.51,1.7,2.39,3.63,3.7,5.46-1.39.87-2.82,1.69-4.24,2.52-6.39,3.23-12.55,6.95-18.86,10.34-1.73.82-3.44,1.67-5.11,2.61-2.32,1.25-4.57,2.66-6.79,4.09-4.98,2.63-9.7,5.67-14.78,8.12-5.33,2.5-10.24,5.88-15.3,8.89-2.34,1.34-4.69,2.65-6.85,4.29l-.82-.26c-2.56-7.14-6.81-13.11-11.49-18.99,3.36-1.56,7.6-1.45,10.36-3.83,3.01-2.55,4.67-3.09,8.6-3.5,5.42-4.58,11.67-7.53,17.48-11.52,5.97-4.26,12.56-5.39,19.08-8.91,2.38-1.59,4.33-3.65,6.91-5,1.64-.68,2.09-2.13,3.08-3.48h0Z"/>
  <path class="st43" d="M242.25,566.57c.12,1.32.27,2.64.43,3.95.53-.14,2.42-2.62,1.86-.67.36,2.29-1.21,2.71-2.48,4.2.96,2.67,1.86,5.36,3.02,7.96.19,2.19.14,4.28.77,6.44,1.84.81,3.39.62,4.37,2.65.72,2.16,3.32.47,3.83,2.06.65,3.47,1.8,3.83,4.59,5.51-7.36,4.09-14.78,8.19-22.22,12.13-.47-2.25-.78-4.53-.87-6.83.96.92,1.87,1.88,2.88,2.76-.22-3.22-.56-6.38-.46-9.61-1.05-.24-2.1-.47-3.16-.7-.37-2.39-.2-4.86-.5-7.26-1.26-.13-2.65.52-3.54-.63-.78-3.11.72-7.79-1.23-10.36-2.46,2.23-3.78-.11-6.16-1.2,6.17-3.59,12.44-7.3,18.87-10.4h0Z"/>
  <path class="st38" d="M223.38,576.97c2.38,1.09,3.7,3.43,6.16,1.2,1.95,2.57.45,7.25,1.23,10.36.89,1.15,2.28.5,3.54.63.3,2.4.13,4.87.5,7.26,1.06.23,2.11.46,3.16.7-.1,3.23.24,6.39.46,9.61-1.01-.88-1.92-1.84-2.88-2.76.09,2.3.4,4.58.87,6.83-.96.65-1.9,1.32-2.86,1.97-2.79,1.14-5.43,2.7-8.11,4.09-.43-1.32-.93-2.5-.91-3.92,1.55-1.66,3.06-2.28,3.08-4.84-.6.42-1.21.83-1.81,1.25-.85-2.83-2.61-4.95-1.69-7.92.85-2.65-1.19-3.74-2.29-5.84-.6-3.14-.97-6.33-1.59-9.47-1.12.07-2.22.24-3.33.29-.63-1.58-1.15-3.2-1.69-4.81,1.42-.83,2.85-1.65,4.24-2.52,1.28-.75,2.59-1.45,3.92-2.11Z"/>
  <path class="st25" d="M215.22,581.6c.54,1.61,1.06,3.23,1.69,4.81,1.11-.05,2.21-.22,3.33-.29.62,3.14.99,6.33,1.59,9.47,1.1,2.1,3.14,3.19,2.29,5.84-.92,2.97.84,5.09,1.69,7.92.6-.42,1.21-.83,1.81-1.25-.02,2.56-1.53,3.18-3.08,4.84-.02,1.42.48,2.6.91,3.92-1.76,1.2-3.56,2.25-5.51,3.1-4.03-5.02-9.27-8.39-12-14.66-2.46-2.58-2.81-3.56-2.89-7.07-1.28-.41-2.57-.68-3.82-1.14-.46-1.26-.71-2.6-1.1-3.89-.71-.75-1.84,1-2.55,1.31-.44-.84-.85-1.69-1.22-2.57,6.31-3.39,12.47-7.11,18.86-10.34h0Z"/>
  <path class="st21" d="M110.32,588.71c4.42,1.39,8.82,1.47,13,3.84.69.35,1.38.71,2.07,1.06,1.23.8,2.46,1.63,3.72,2.4.74.52,1.48,1.04,2.24,1.53.61.41,1.23.82,1.84,1.22.67.65,1.35,1.29,2.03,1.93,4.68,5.88,8.93,11.85,11.49,18.99-.39,20.02-.06,40.08-.17,60.11.09,16.43-.19,32.88.15,49.3l-.3.9c-1.91-4.89-.35-11.76-.86-17.11-.04-7.69.14-15.41-.06-23.1-.69-4.65-1.41-9.23-1.16-13.95.18-1.5-1.67-2.54-1.67-4.08-.15-3.59-.17-7.16-.49-10.74,2.91-4.82,2.25-9.8,3.32-15.21.03-7.19.38-14.54-.2-21.7-2.41-.81-5.81-2.16-8.18-.7-1.49.83-3.13,1.39-4.57,2.28-1.11,1.93-1.86,4.07-4.12,4.92-1.27.69-4.49,1.84-3.42,3.81,1.34,2.47.88,5.22,2.27,7.58,2.35,3.8.74,9.13.98,13.57-1.18,1.89-1.86,3.68-2.51,5.79-1.89,2.44-3.96,4.49-5.5,7.21-2.29.7-5.15-.61-7.51-.76-1.05.69-1.47,2.16-2.23,3.14-2.41-1.69-3.24-2.57-2.91-5.67,1.28.11,2.54.3,3.82.34.66-2.33-1.26-2.66-2.45-4.23-1.03-1.87.46-4.67-.5-6.56-2.47-3.71,1.69-6.49.95-11.02-1.49,1.26-2.24,2.86-3.29,4.5-1.84,4.12,1.24,10.97-2.19,14.32,1.07.12,2.13.25,3.18.39-.33,3.54-.97,6.78-2.14,10.13-1,2.9.16,5.66.65,8.55l-1.81.43c-.51,3.43.19,6.54-1.01,9.88-.58-23.37-.04-46.82-.27-70.21-.09-8.06.38-16.21-.32-24.24.96-4.65,4.35-6.64,8.13-8.84h0Z"/>
  <path class="st1" d="M276.55,588.88c-.06,6.03.09,12.05-.13,18.07l-.89-1.15c.01-1.34.01-2.68.01-4.02-.25-.8.63-5.51-.85-4.77-9.65,1.65-18.06,8.94-27.73,11.32-5.65,3.56-10.85,7.28-17.3,9.41,1.17-1.73,2.59-3.33,3.9-4.97.96-.65,1.9-1.32,2.86-1.97,7.44-3.94,14.86-8.04,22.22-12.13,2.36-1.16,4.53-2.6,6.82-3.88,3.7-2.01,7.19-4.29,11.09-5.91h0Z"/>
  <path class="st16" d="M196.36,591.94c.37.88.78,1.73,1.22,2.57.71-.31,1.84-2.06,2.55-1.31.39,1.29.64,2.63,1.1,3.89,1.25.46,2.54.73,3.82,1.14.08,3.51.43,4.49,2.89,7.07,2.73,6.27,7.97,9.64,12,14.66-4.18,2.33-8.13,4.94-12.53,6.85-.24-1.53-.28-3.08-.54-4.6-3.17-1.75-3.66-2.96-4.94-6.21-.32.36-1.1,4.24-1.2,1.82-.17-3.57-2.15-2.86-4.65-4.27.17-1.91.53-3.71.43-5.66-.64-1.92-3.9-2.53-2.74-4.87,2.83-2.2-1.77-5.99-2.52-8.47,1.67-.94,3.38-1.79,5.11-2.61h0Z"/>
  <path class="st47" d="M191.25,594.55c.75,2.48,5.35,6.27,2.52,8.47-1.16,2.34,2.1,2.95,2.74,4.87.1,1.95-.26,3.75-.43,5.66,2.5,1.41,4.48.7,4.65,4.27.1,2.42.88-1.46,1.2-1.82,1.28,3.25,1.77,4.46,4.94,6.21.26,1.52.3,3.07.54,4.6-2.73,2-5.75,3.4-8.66,5.08-1.41-1.89-.67-3.7-3.02-1.44-.37-2.79-.22-8.02-4.44-7.28-2.76.41-1.48-4.87-1.62-6.39.44-4.14-.38-8.38-.59-12.54-4.23-.59-3.28-2.29-4.62-5.6,2.22-1.43,4.47-2.84,6.79-4.09h0Z"/>
  <path class="st8" d="M274.69,597.01c-.61,1.28-.73,2.2-2.26,2.62-6.41,2.53-12.13,6.31-18.74,8.39-6.64,3.37-13.51,5.86-19.55,10.33-6.6,2.95-13.1,5.72-19,10-11.8,5.17-22.9,12.08-34.55,17.55-4.65,2.56-9.31,5.72-14.35,7.41-.63.12-1.3,0-2-.33,3.52-4.83,8.51-6.02,13.42-9.32,7.01-3.99,14.03-7.89,21.09-11.77,2.91-1.68,5.93-3.08,8.66-5.08,4.4-1.91,8.35-4.52,12.53-6.85,1.95-.85,3.75-1.9,5.51-3.1,2.68-1.39,5.32-2.95,8.11-4.09-1.31,1.64-2.73,3.24-3.9,4.97,6.45-2.13,11.65-5.85,17.3-9.41,9.67-2.38,18.08-9.67,27.73-11.32h0Z"/>
  <path class="st33" d="M274.69,597.01c1.48-.74.6,3.97.85,4.77-2.95,1.15-5.81,2.37-8.65,3.76-4.63-.26-9.38,3.33-13.68,4.9-4.58,1.6-8.45,4.38-12.96,6.09-1.03.26-1.59,1.04-1.67,2.35-3.72.03-6.68,3.35-10.22,4.51-9.5,4.3-18.58,9.68-27.92,14.31-4.11,2.06-8.42,4.06-12.03,6.93-3.37,2.4-7.71,3.47-11.39,5.55-3.51,1.97-7.18,3.59-10.86,5.21-1.41.48-2.59,1.14-4.05.45.44-1.25,1.14-2.03,2.13-2.86.7.33,1.37.45,2,.33,5.04-1.69,9.7-4.85,14.35-7.41,11.65-5.47,22.75-12.38,34.55-17.55,5.9-4.28,12.4-7.05,19-10,6.04-4.47,12.91-6.96,19.55-10.33,6.61-2.08,12.33-5.86,18.74-8.39,1.53-.42,1.65-1.34,2.26-2.62h0Z"/>
  <path class="st24" d="M184.46,598.64c1.34,3.31.39,5.01,4.62,5.6.21,4.16,1.03,8.4.59,12.54.14,1.52-1.14,6.8,1.62,6.39,4.22-.74,4.07,4.49,4.44,7.28,2.35-2.26,1.61-.45,3.02,1.44-7.06,3.88-14.08,7.78-21.09,11.77-.92-.41-1.83-.83-2.73-1.27-.05-1.91,1.16-4.08-.38-5.6-1.88-1.67,2.71-1.55,1.2-3.34-2.81-3.83-2.57-7.94-1.97-12.45.8-1.47,1.97-2.33,1.79-4.17.38-2.35-3.18-2.27-4.66-3.38-.42-2.24-.57-4.49-1.23-6.69,5.08-2.45,9.8-5.49,14.78-8.12h0Z"/>
  <path class="st31" d="M275.54,601.78c0,1.34,0,2.68-.01,4.02-3.56,1.29-6.97,1.64-10.19,3.81-3.64,2.57-8.18,2.52-11.95,4.98-7.12,3.08-13.5,7.27-20.53,10.52-4.62,2.36-8.82,5.34-13.71,7.23-3.3,1.2-5.81,3.61-8.99,4.99-6.65,2.67-12.75,6.93-19.24,9.89-2.49,1.07-4.28,3.05-6.71,4.22-7.64,3.32-14.99,7.21-22.74,10.33l-.35-2.11.19-.82c.67.18,1.35.33,2.03.45,12.59-6.22,25.33-11.91,37.14-19.6,3.32-2.53,7.36-2.87,10.75-5.19,8.6-6.02,19.46-8.9,27.35-15.62,1.38-.25,2.71-.41,3.92-1.17,6.3-3.95,14.16-6.29,20.94-9.05,1.64-.58,2.35-1.88,3.45-3.12,2.84-1.39,5.7-2.61,8.65-3.76h0Z"/>
  <path class="st23" d="M266.89,605.54c-1.1,1.24-1.81,2.54-3.45,3.12-6.78,2.76-14.64,5.1-20.94,9.05-1.21.76-2.54.92-3.92,1.17.08-1.31.64-2.09,1.67-2.35,4.51-1.71,8.38-4.49,12.96-6.09,4.3-1.57,9.05-5.16,13.68-4.9h0Z"/>
  <path class="st17" d="M275.53,605.8l.89,1.15c.04.88.07,1.76.1,2.64-1.81-.72-3.06-.28-4.84.21-2.79.17-5.03,1.46-7.54,2.51-10.86,3.89-21.14,10.48-31.61,15.47-4.27,1.99-7.95,4.87-12.38,6.56-3.23,1.01-4.59,4.14-7.98,5.03-13.79,4.94-24.58,14.58-38.25,19.23-4.02,1.62-7.94,3.91-12.11,5.08l-.34-1.91c7.75-3.12,15.1-7.01,22.74-10.33,2.43-1.17,4.22-3.15,6.71-4.22,6.49-2.96,12.59-7.22,19.24-9.89,3.18-1.38,5.69-3.79,8.99-4.99,4.89-1.89,9.09-4.87,13.71-7.23,7.03-3.25,13.41-7.44,20.53-10.52,3.77-2.46,8.31-2.41,11.95-4.98,3.22-2.17,6.63-2.52,10.19-3.81h0Z"/>
  <path class="st22" d="M169.68,606.76c.66,2.2.81,4.45,1.23,6.69,1.48,1.11,5.04,1.03,4.66,3.38.18,1.84-.99,2.7-1.79,4.17-.6,4.51-.84,8.62,1.97,12.45,1.51,1.79-3.08,1.67-1.2,3.34,1.54,1.52.33,3.69.38,5.6.9.44,1.81.86,2.73,1.27-4.91,3.3-9.9,4.49-13.42,9.32-.99.83-1.69,1.61-2.13,2.86-.34.98-.61,1.98-.8,3l-.19.82c-.66,2.32-.74,4.64-.42,7.03,2.28-.59,4.45-1.51,6.77-2-1.88,2.24-7.34,2.94-6.83,6.28-.14,1.32-.27,2.65-.39,3.98-1.8-2.51-3.56-4.88-4.11-8-2.42,3.24-1.88,7.71-4.81,10.3-.04,2.2-.05,4.33-.38,6.53,3.45,3.93,5.83,8.46,8.48,13,2.11-2.41,1.7-1.2,3.63.43,1.13,4.4.53,8.58,3.96,12.1,2.46-2.98,1.79,1.07,3.02,2.63,2.19.75,1.33,3.18,1.8,5.03-3.23,1.82-6.28,3.87-9.63,5.48-5.34,2.5-9.93,6-15.48,8.12l-.34-.58.3-.9c1.39-3.03.74-7.01.86-10.3.13-13.58-.32-27.23.23-40.79,1.47-4.36.24-8.58,2.13-12.65,1.31-4.09,1.78-8.44,3.21-12.52.36,1.25.36,2.91,1.19,3.95.28-2.8.19-5.57.81-8.35,1.25-5.16-.56-10.59-1.19-16.02-.89-2.61,2.65-4.87,2.59-7.62-.14-3.53,1.21-6.8-2.14-9.14,5.06-3.01,9.97-6.39,15.3-8.89h0Z"/>
  <path class="st35" d="M276.52,609.59c.31.74.65,1.46,1.01,2.17-4.99-1.37-8.41,1.23-12.6,3.46-14.07,7.03-28.48,13.72-41.78,22.16-6.35,3.85-13.09,7.08-19.75,10.35-11.6,7.02-23.44,13.5-35.7,19.29-2.39,1.33-4.39,3.09-7.06,3.95-.51-3.34,4.95-4.04,6.83-6.28,5.73-3.46,12.02-5.71,17.8-9.1,4.56-1.91,8.3-5.07,12.72-7.26,15.98-7.02,30.78-16.7,46.24-24.8,6.01-1.95,10.76-5.98,16.49-8.43,3.92-1.18,7.62-2.91,10.96-5.3,1.78-.49,3.03-.93,4.84-.21h0Z"/>
  <path class="st48" d="M271.68,609.8c-3.34,2.39-7.04,4.12-10.96,5.3-5.73,2.45-10.48,6.48-16.49,8.43-15.46,8.1-30.26,17.78-46.24,24.8-4.42,2.19-8.16,5.35-12.72,7.26-5.78,3.39-12.07,5.64-17.8,9.1-2.32.49-4.49,1.41-6.77,2-.32-2.39-.24-4.71.42-7.03l.35,2.11.34,1.91c4.17-1.17,8.09-3.46,12.11-5.08,13.67-4.65,24.46-14.29,38.25-19.23,3.39-.89,4.75-4.02,7.98-5.03,4.43-1.69,8.11-4.57,12.38-6.56,10.47-4.99,20.75-11.58,31.61-15.47,2.51-1.05,4.75-2.34,7.54-2.51h0Z"/>
  <path class="st28" d="M277.53,611.76c1.79.91,3.59,1.79,5.34,2.79-.51.7-1.01,1.4-1.51,2.09-5.39,2.36-11.21,5.72-16.18,8.88-3.69,1.89-7.18,4.14-10.88,6.01-7.41,3.93-14.63,8.23-22.03,12.19-1.61.95-3.23,1.88-4.81,2.87-4.69,1.72-8.7,4.75-13.19,6.99-4.54,2.34-9,4.82-13.53,7.19-3.51,1.81-6.89,3.88-10.32,5.83-5.15,2.46-10.2,5.4-15.18,8.21-3.19,1.33-5.89,3.24-8.75,5.1-3.65.12-4.4-2.46-6.24-4.96.12-1.33.25-2.66.39-3.98,2.67-.86,4.67-2.62,7.06-3.95,12.26-5.79,24.1-12.27,35.7-19.29,6.66-3.27,13.4-6.5,19.75-10.35,13.3-8.44,27.71-15.13,41.78-22.16,4.19-2.23,7.61-4.83,12.6-3.46h0Z"/>
  <path class="st14" d="M282.87,614.55l.67.39c.14,13-.3,26.05.24,39.04-.3.66-.66,1.3-1.09,1.92-.36-11.37,0-22.76-.17-34.13-.03-1.81-.65-3.42-1.16-5.13.5-.69,1-1.39,1.51-2.09h0Z"/>
  <path class="st7" d="M154.38,615.65c3.35,2.34,2,5.61,2.14,9.14.06,2.75-3.48,5.01-2.59,7.62.63,5.43,2.44,10.86,1.19,16.02-.62,2.78-.53,5.55-.81,8.35-.83-1.04-.83-2.7-1.19-3.95-1.43,4.08-1.9,8.43-3.21,12.52-1.89,4.07-.66,8.29-2.13,12.65-.56-19.33-.07-38.72-.25-58.06,2.16-1.64,4.51-2.95,6.85-4.29h0Z"/>
  <path class="st40" d="M281.36,616.64c.51,1.71,1.13,3.32,1.16,5.13.16,11.37-.19,22.76.17,34.13-1.41,2.04-3.27,3.36-5.28,4.74-2.97.99-5.88,2.11-8.79,3.25,1.23-1.73,2.72-3.28,3.84-5.08-.91-2.88-2.63-6.2-5.45-7.57.18-3.25,1.27-4.96-1.3-7.66-.33-3.85,1.68-7.78,1.41-11.73-.66-2.11-1.36-4.2-1.94-6.33,4.97-3.16,10.79-6.52,16.18-8.88Z"/>
  <path class="st6" d="M238.58,618.88c-7.89,6.72-18.75,9.6-27.35,15.62-3.39,2.32-7.43,2.66-10.75,5.19-11.81,7.69-24.55,13.38-37.14,19.6-.68-.12-1.36-.27-2.03-.45.19-1.02.46-2.02.8-3,1.46.69,2.64.03,4.05-.45,3.68-1.62,7.35-3.24,10.86-5.21,3.68-2.08,8.02-3.15,11.39-5.55,3.61-2.87,7.92-4.87,12.03-6.93,9.34-4.63,18.42-10.01,27.92-14.31,3.54-1.16,6.5-4.48,10.22-4.51h0Z"/>
  <path class="st45" d="M146.71,619.68l.82.26c.18,19.34-.31,38.73.25,58.06-.55,13.56-.1,27.21-.23,40.79-.12,3.29.53,7.27-.86,10.3-.34-16.42-.06-32.87-.15-49.3.11-20.03-.22-40.09.17-60.11h0Z"/>
  <path class="st15" d="M137.09,623.4c2.37-1.46,5.77-.11,8.18.7.58,7.16.23,14.51.2,21.7-1.07,5.41-.41,10.39-3.32,15.21.32,3.58.34,7.15.49,10.74,0,1.54,1.85,2.58,1.67,4.08-.25,4.72.47,9.3,1.16,13.95.2,7.69.02,15.41.06,23.1-3.84,2.35-3.88-1.91-5.36-4.35,1.45-3.65,1.84-7.72,2.21-11.62-1.25-5.12-3.56-9.9-7.93-13.07-2.95.29-6.77,2.49-9.59,1.65-3.56-1.54-3.01-8.16-7.15-6.5-3.79,2.11-7.86,2.34-12.11,2.7-.49-2.89-1.65-5.65-.65-8.55,1.17-3.35,1.81-6.59,2.14-10.13-1.05-.14-2.11-.27-3.18-.39,3.43-3.35.35-10.2,2.19-14.32,1.05-1.64,1.8-3.24,3.29-4.5.74,4.53-3.42,7.31-.95,11.02.96,1.89-.53,4.69.5,6.56,1.19,1.57,3.11,1.9,2.45,4.23-1.28-.04-2.54-.23-3.82-.34-.33,3.1.5,3.98,2.91,5.67.76-.98,1.18-2.45,2.23-3.14,2.36.15,5.22,1.46,7.51.76,1.54-2.72,3.61-4.77,5.5-7.21.65-2.11,1.33-3.9,2.51-5.79-.24-4.44,1.37-9.77-.98-13.57-1.39-2.36-.93-5.11-2.27-7.58-1.07-1.97,2.15-3.12,3.42-3.81,2.26-.85,3.01-2.99,4.12-4.92,1.44-.89,3.08-1.45,4.57-2.28h0Z"/>
  <path class="st44" d="M265.18,625.52c.58,2.13,1.28,4.22,1.94,6.33.27,3.95-1.74,7.88-1.41,11.73,2.57,2.7,1.48,4.41,1.3,7.66,2.82,1.37,4.54,4.69,5.45,7.57-1.12,1.8,1.26,1.92.03,3.65l-4.8,2.56c-2.89,1.21-6.25,3.36-9.22,4.84-.56-1.92-.25-4.72-.16-6.67-.96-.25-4.47.59-2.85-1.39.99-1.86.37-3.54-.6-5.24-1.28-3.35.65-5.26,1.99-8.06-.33-6.04.2-11.38-2.56-16.97,3.7-1.87,7.19-4.12,10.88-6.01Z"/>
  <path class="st4" d="M254.3,631.53c2.76,5.59,2.23,10.93,2.56,16.97-1.34,2.8-3.27,4.71-1.99,8.06.97,1.7,1.59,3.38.6,5.24-1.62,1.98,1.89,1.14,2.85,1.39-.09,1.95-.26,4.42.3,6.34-6.1,3.9-12.83,6.69-19.17,10.19.56-.93,1.16-1.84,1.68-2.8-.98-1.53-2.25-2.77-3.2-4.31.47-1.61,1.23-3.12,1.64-4.76-.68-.96-1.57-1.75-2.37-2.64-1.53-5.99.41-12.74-1.48-18.54-.44-1.9-2.02-1.98-3.45-2.95,7.4-3.96,14.62-8.26,22.03-12.19Z"/>
  <path class="st43" d="M232.27,643.72c1.43.97,3.01,1.05,3.45,2.95,1.89,5.8-.05,12.55,1.48,18.54.8.89,1.69,1.68,2.37,2.64-.41,1.64-1.17,3.15-1.64,4.76.95,1.54,2.22,2.78,3.2,4.31-.52.96-1.12,1.87-1.68,2.8-2.56,1.41-5.18,2.67-7.71,4.14-2.16-5.49-3.04-11.02-3.49-16.86-.38-1.05-3.18-4.03-.44-3.75,1.14.32.57-2.13.55-2.75-2.34-.24-1.5-1.5-2.02-3.32-.85.53-1.64,1.51-2.67,1.48-.19-1.24-.16-2.43.1-3.58,1.11-.76,2.5-.93,3.63-1.7-1.87-.78-2.97-1.08-3.54-3.18,1.64-1.18,3.47-1.21,3.6-3.61,1.58-.99,3.2-1.92,4.81-2.87Z"/>
  <path class="st3" d="M227.46,646.59c-.13,2.4-1.96,2.43-3.6,3.61.57,2.1,1.67,2.4,3.54,3.18-1.13.77-2.52.94-3.63,1.7-.26,1.15-.29,2.34-.1,3.58,1.03.03,1.82-.95,2.67-1.48.52,1.82-.32,3.08,2.02,3.32.02.62.59,3.07-.55,2.75-2.74-.28.06,2.7.44,3.75.45,5.84,1.33,11.37,3.49,16.86-3.53,2.09-6.51,4.47-10.28,6.11-3.07-4.89-2.98-10.27-4.39-15.63-4.16-1.28-2.84-6.57-3.17-9.88-.22-4.07-1.99-7.17.37-10.88,4.49-2.24,8.5-5.27,13.19-6.99h0Z"/>
  <path class="st26" d="M214.27,653.58c-2.36,3.71-.59,6.81-.37,10.88.33,3.31-.99,8.6,3.17,9.88,1.41,5.36,1.41,10.74,4.48,15.63-1.22.86-3.01,1.66-4.11,2.65-1.83.7-3.53,1.66-5.39,2.29-.84-.38-5.65.48-3.5-1.14,1.99-1.36-3.22-2.36-2.93-4.07.26-7.62-.1-15.17-.19-22.83-.41-2.82-2.75-1.62-4.69-1.6,0-1.5.09-3,0-4.5,4.53-2.37,8.99-4.85,13.53-7.19h0Z"/>
  <path class="st13" d="M200.74,660.77c.09,1.5,0,3,0,4.5,1.94-.02,4.28-1.22,4.69,1.6.09,7.66.45,15.21.19,22.83-.29,1.71,4.92,2.71,2.93,4.07-2.15,1.62,3.55.48,4.39.86-2.65,2.01-6.3,3.75-9.32,5.15l-.67.28c.65-2.73-1.45-2.99-2.75-4.94-1.57-1.83-2.01-3.96-4.21-5.14.95-5.6-1.37-10.91-2.06-16.75-.88-1.3-1.9-2.52-2.86-3.77-1.08.01-2.17.16-3.26.21.88-1.01,1.78-2.01,2.61-3.07,3.43-1.95,6.81-4.02,10.32-5.83h0Z"/>
  <path class="st30" d="M279.95,658.73c.4.61-.56-1.44.98,1.72-7.39,1.69-26.2,13.44-33.05,16.67-7.15,3.79-14.08,7.7-21.15,11.64-1.86,1.09-3.31,2.19-6.43,3.82l-.47.37-1.24-.07-1.32-.48c1.1-.99,2.64-1.47,3.86-2.33,3.77-2.1,6.47-3.96,10.61-6.21,2.53-1.47,5.15-2.73,7.71-4.14,6.34-3.5,13.39-7.16,19.54-10.28,2.97-1.48,14.83-7.93,17.97-9.03l2.98-1.68Z"/>
  <path class="st10" d="M156.14,666.95c.55,3.12,2.31,5.49,4.11,8,1.84,2.5,2.59,5.08,6.24,4.96-.81.43-1.62.84-2.43,1.24.95,1.58,1.91,3.18,3.08,4.6.07-1.72-.57-2.76,1.04-3.92.61,3.8,1.17,7.56,2.53,11.18.26.77-1.28,1.59-.51,2.25,2.09,2.38,1.01,5.37,1.49,8.38,2.5,3.17,5.46,5.92,8.1,8.95-2.7,1.38-5.3,2.91-7.95,4.38-.47-1.85.39-4.28-1.8-5.03-1.23-1.56-.56-5.61-3.02-2.63-3.43-3.52-2.83-7.7-3.96-12.1-1.93-1.63-1.52-2.84-3.63-.43-2.65-4.54-5.03-9.07-8.48-13,.33-2.2.34-4.33.38-6.53,2.93-2.59,2.39-7.06,4.81-10.3h0Z"/>
  <path class="st19" d="M190.42,666.6c-.83,1.06-1.73,2.06-2.61,3.07,1.09-.05,2.18-.2,3.26-.21.96,1.25,1.98,2.47,2.86,3.77.69,5.84,3.01,11.15,2.06,16.75,2.2,1.18,2.64,3.31,4.21,5.14,1.3,1.95,3.4,2.21,2.75,4.94-6.02,3.46-12.18,6.6-18.25,9.96-.26-3.9.45-3.43,3.65-4.7-1.79-1.7-4.24-2.79-5.19-5.15-1.45-2.36.24-5.61.36-8.21-.87-1.48-3.15-1.34-4.04-3.04,2.72-2.16,3.32-3.38,3.62-6.86-.83-.81-1.74-1.53-2.58-2.34,1.64-1.99,3.46-2.56,3.09-5.56-1.99,1.54-4.21,1.05-6.23,2.4-.77-.5-1.48-1.08-2.14-1.75,4.98-2.81,10.03-5.75,15.18-8.21Z"/>
  <path class="st42" d="M183.61,674.16c.37,3-1.45,3.57-3.09,5.56.84.81,1.75,1.53,2.58,2.34-.3,3.48-.9,4.7-3.62,6.86.89,1.7,3.17,1.56,4.04,3.04-.12,2.6-1.81,5.85-.36,8.21.95,2.36,3.4,3.45,5.19,5.15-3.2,1.27-3.91.8-3.65,4.7-1.59.95-3.23,1.79-4.91,2.57-2.64-3.03-5.6-5.78-8.1-8.95-.48-3.01.6-6-1.49-8.38-.77-.66.77-1.48.51-2.25-1.36-3.62-1.92-7.38-2.53-11.18-1.61,1.16-.97,2.2-1.04,3.92-1.17-1.42-2.13-3.02-3.08-4.6.81-.4,1.62-.81,2.43-1.24,2.86-1.86,5.56-3.77,8.75-5.1.66.67,1.37,1.25,2.14,1.75,2.02-1.35,4.24-.86,6.23-2.4h0Z"/>
  <path class="st18" d="M117.71,678.99c4.14-1.66,3.59,4.96,7.15,6.5,2.82.84,6.64-1.36,9.59-1.65,4.37,3.17,6.68,7.95,7.93,13.07-.37,3.9-.76,7.97-2.21,11.62,1.48,2.44,1.52,6.7,5.36,4.35.51,5.35-1.05,12.22.86,17.11l.34.58c5.55-2.12,10.14-5.62,15.48-8.12,3.35-1.61,6.4-3.66,9.63-5.48,2.65-1.47,5.25-3,7.95-4.38,1.68-.78,3.32-1.62,4.91-2.57,6.07-3.36,12.23-6.5,18.25-9.96l15.55-8.56-.45.75,3.88-.45c-1.03.22-20.5,11.31-21.49,11.64-14.59,8.2-29.31,16.03-43.9,24.34-6.61,3.12-12.21,7.22-19.11,9.9-3.21.67-6.76-1-9.79-2.01-11.96-5.05-20.86-14.5-25.35-26.68.51-5.66-.02-11.33.49-16.99,1.2-3.34.5-6.45,1.01-9.88l1.81-.43c4.25-.36,8.32-.59,12.11-2.7h0Z"/>
</svg>