<?xml version="1.0" encoding="UTF-8"?>
<svg id="Layer_1" xmlns="http://www.w3.org/2000/svg" version="1.1" viewBox="0 0 2048 1650">
  <!-- Generator: Adobe Illustrator 30.3.0, SVG Export Plug-In . SVG Version: 2.1.3 Build 182)  -->
  <defs>
    <style>
      .st0 {
        fill: #12874b;
      }

      .st1 {
        fill: #414a51;
      }
    </style>
  </defs>
  <path class="st0" d="M1729.24,934.14c-.22,0-.44-.06-.63-.17-.39-.23-.62-.65-.62-1.09.04-3.18.02-6.79-.09-7.68-.07-.16-.12-.34-.12-.52h0c0-.53.32-.97.77-1.16l115.53-65.39c.19-.11.4-.16.62-.16s.44.06.64.17c.38.23.62.65.61,1.09l-.11,7.79c0,.44-.25.85-.63,1.07l-115.34,65.89c-.19.11-.41.17-.62.17Z"/>
  <path class="st1" d="M1844.69,859.21l-.11,7.79-115.34,65.89s.11-8.02-.2-8.22l115.65-65.46M1729.03,924.67s0,0,.01,0h-.01s0,0,0,0M1844.69,856.71c-.42,0-.85.11-1.23.32l-115.47,65.36c-.85.39-1.45,1.25-1.46,2.24h0c0,.3.04.59.14.86.09,1.05.11,4.49.07,7.35-.01.9.46,1.73,1.23,2.19.39.23.83.35,1.27.35s.86-.11,1.24-.33l115.34-65.89c.77-.44,1.25-1.25,1.26-2.14l.11-7.79c.01-.9-.45-1.73-1.23-2.19-.39-.23-.83-.35-1.27-.35h0Z"/>
</svg>