<?xml version="1.0" encoding="UTF-8"?>
<svg id="Layer_1" xmlns="http://www.w3.org/2000/svg" version="1.1" viewBox="0 0 2048 1650">
  <!-- Generator: Adobe Illustrator 30.3.0, SVG Export Plug-In . SVG Version: 2.1.3 Build 182)  -->
  <defs>
    <style>
      .st0 {
        fill: #12874b;
      }

      .st1 {
        fill: #414a51;
      }
    </style>
  </defs>
  <path class="st0" d="M1729.24,944.12c-.22,0-.44-.06-.63-.17-.39-.23-.62-.64-.62-1.09.04-5.82.03-15.33-.13-16.75-.01-.04-.03-.07-.04-.11-.14-.55.1-1.13.59-1.41l115.66-65.47c.19-.11.4-.16.62-.16s.44.06.63.17c.38.23.62.64.62,1.09l-.11,16.77c0,.45-.24.86-.63,1.08l-115.34,65.89c-.19.11-.41.17-.62.17Z"/>
  <path class="st1" d="M1844.69,860.21l-.11,16.77-115.34,65.89s.11-17.19-.21-17.19h0l115.66-65.47M1844.69,857.71c-.42,0-.85.11-1.23.32l-115.66,65.47c-.99.56-1.48,1.71-1.19,2.81,0,.01,0,.03.01.04.13,1.53.16,9.43.12,16.5,0,.89.47,1.72,1.24,2.17.39.23.83.34,1.26.34s.86-.11,1.24-.33l115.34-65.89c.77-.44,1.25-1.26,1.26-2.15l.11-16.77c0-.89-.46-1.72-1.23-2.17-.39-.23-.83-.34-1.27-.34h0Z"/>
</svg>