<?xml version="1.0" encoding="UTF-8"?>
<svg id="Layer_1" xmlns="http://www.w3.org/2000/svg" version="1.1" viewBox="0 0 2048 1650">
  <!-- Generator: Adobe Illustrator 30.3.0, SVG Export Plug-In . SVG Version: 2.1.3 Build 182)  -->
  <defs>
    <style>
      .st0 {
        fill: #12874b;
      }

      .st1 {
        fill: #414a51;
      }
    </style>
  </defs>
  <g>
    <path class="st0" d="M1728.98,976.04c-.22,0-.44-.06-.63-.17-.38-.23-.62-.64-.62-1.09.04-5.82.03-15.33-.13-16.75-.01-.04-.03-.07-.04-.11-.14-.55.1-1.13.59-1.41l115.66-65.47c.19-.11.4-.16.62-.16s.44.06.63.17c.38.23.62.64.62,1.09l-.11,17.22c0,.45-.24.86-.63,1.08l-115.34,65.44c-.19.11-.4.16-.62.16Z"/>
    <path class="st1" d="M1844.43,892.13l-.11,17.22-115.34,65.44s.11-17.19-.21-17.19h0l115.66-65.47M1844.43,889.63c-.42,0-.85.11-1.23.32l-115.66,65.47c-.99.56-1.48,1.71-1.19,2.81,0,.01,0,.03.01.04.13,1.53.16,9.43.12,16.5,0,.89.46,1.72,1.23,2.17.39.23.83.34,1.27.34s.85-.11,1.23-.33l115.34-65.44c.78-.44,1.26-1.26,1.27-2.16l.11-17.22c0-.89-.46-1.72-1.23-2.17-.39-.23-.83-.34-1.27-.34h0Z"/>
  </g>
  <g>
    <path class="st0" d="M1729.15,996.15c-.22,0-.44-.06-.63-.17-.38-.23-.62-.64-.62-1.09.04-5.82.03-15.33-.13-16.75-.01-.04-.03-.07-.04-.11-.14-.55.1-1.13.59-1.41l115.66-65.47c.19-.11.4-.16.62-.16s.44.06.63.17c.38.23.62.64.62,1.09l-.11,17.31c0,.45-.24.86-.63,1.08l-115.34,65.35c-.19.11-.4.16-.62.16Z"/>
    <path class="st1" d="M1844.6,912.24l-.11,17.31-115.34,65.35s.11-17.19-.21-17.19h0s115.66-65.47,115.66-65.47M1844.6,909.74c-.42,0-.85.11-1.23.32l-115.66,65.47c-.99.56-1.48,1.71-1.19,2.81,0,.01,0,.03.01.04.13,1.53.16,9.43.12,16.5,0,.89.46,1.72,1.23,2.17.39.23.83.34,1.27.34s.85-.11,1.23-.32l115.34-65.35c.78-.44,1.26-1.26,1.27-2.16l.11-17.31c0-.89-.46-1.72-1.23-2.17-.39-.23-.83-.34-1.27-.34h0Z"/>
  </g>
  <g>
    <path class="st0" d="M1729.24,1016.3c-.22,0-.44-.06-.63-.17-.39-.23-.62-.64-.62-1.09.04-5.82.03-15.33-.13-16.75-.01-.04-.03-.07-.04-.11-.14-.55.1-1.13.59-1.41l115.66-65.47c.19-.11.4-.16.62-.16s.44.06.63.17c.38.23.62.64.62,1.09l-.11,16.77c0,.45-.24.86-.63,1.08l-115.34,65.89c-.19.11-.41.17-.62.17Z"/>
    <path class="st1" d="M1844.69,932.39l-.11,16.77-115.34,65.89s.11-17.19-.21-17.19h0s115.66-65.47,115.66-65.47M1844.69,929.89c-.42,0-.85.11-1.23.32l-115.66,65.47c-.99.56-1.48,1.71-1.19,2.81,0,.01,0,.03.01.04.13,1.53.16,9.43.12,16.5,0,.89.47,1.72,1.24,2.17.39.23.83.34,1.26.34s.86-.11,1.24-.33l115.34-65.89c.77-.44,1.25-1.26,1.26-2.15l.11-16.77c0-.89-.46-1.72-1.23-2.17-.39-.23-.83-.34-1.27-.34h0Z"/>
  </g>
  <g>
    <path class="st0" d="M1729.24,935.44c-.22,0-.44-.06-.64-.17-.38-.23-.62-.64-.61-1.09.04-3.64.02-7.74-.1-8.68-.07-.16-.11-.33-.11-.5h0c0-.53.32-.97.77-1.16l115.53-65.4c.19-.11.4-.16.62-.16s.44.06.64.17c.39.23.62.64.61,1.09l-.11,9.23c0,.45-.25.85-.63,1.07l-115.34,65.44c-.19.11-.4.16-.62.16Z"/>
    <path class="st1" d="M1844.69,859.52l-.11,9.23-115.34,65.44s.11-9-.2-9.21l115.65-65.46M1729.03,924.98s0,0,.01,0h-.01s0,0,0,0M1844.69,857.02c-.42,0-.85.11-1.23.32l-115.47,65.36c-.85.39-1.45,1.25-1.46,2.24h0c0,.3.04.58.13.84.1,1.12.12,5.07.08,8.37-.01.9.46,1.73,1.23,2.18.39.23.83.35,1.27.35s.85-.11,1.23-.33l115.34-65.44c.77-.44,1.26-1.26,1.27-2.14l.11-9.23c.01-.89-.46-1.73-1.23-2.18-.39-.23-.83-.35-1.27-.35h0Z"/>
  </g>
  <g>
    <path class="st0" d="M1729.24,955.5c-.22,0-.44-.06-.63-.17-.38-.23-.62-.64-.62-1.09.04-5.82.03-15.33-.13-16.75-.01-.04-.03-.07-.04-.11-.14-.55.1-1.13.59-1.41l115.66-65.47c.19-.11.4-.16.62-.16s.44.06.63.17c.38.23.62.64.62,1.09l-.11,17.31c0,.45-.24.86-.63,1.08l-115.34,65.35c-.19.11-.4.16-.62.16Z"/>
    <path class="st1" d="M1844.69,871.59l-.11,17.31-115.34,65.35s.11-17.19-.21-17.19h0s115.66-65.47,115.66-65.47M1844.69,869.09c-.42,0-.85.11-1.23.32l-115.66,65.47c-.99.56-1.48,1.71-1.19,2.81,0,.01,0,.03.01.04.13,1.53.16,9.43.12,16.5,0,.89.46,1.72,1.23,2.17.39.23.83.34,1.27.34s.85-.11,1.23-.32l115.34-65.35c.78-.44,1.26-1.26,1.27-2.16l.11-17.31c0-.89-.46-1.72-1.23-2.17-.39-.23-.83-.34-1.27-.34h0Z"/>
  </g>
</svg>