<?xml version="1.0" encoding="UTF-8"?>
<svg id="Layer_1" xmlns="http://www.w3.org/2000/svg" version="1.1" viewBox="0 0 2048 1650">
  <!-- Generator: Adobe Illustrator 30.3.0, SVG Export Plug-In . SVG Version: 2.1.3 Build 182)  -->
  <defs>
    <style>
      .st0 {
        fill: #12874b;
      }

      .st1 {
        fill: #414a51;
      }
    </style>
  </defs>
  <g>
    <path class="st0" d="M1728.96,934.54c-.22,0-.44-.06-.64-.17-.39-.23-.62-.64-.61-1.09.04-3.01.02-6.57-.09-7.44-.03-.07-.06-.14-.08-.21-.14-.55.1-1.13.59-1.41l115.66-65.47c.19-.11.4-.16.62-.16s.44.06.64.17c.39.23.62.64.61,1.09l-.11,8.1c0,.44-.25.85-.63,1.07l-115.34,65.35c-.19.11-.4.16-.62.16Z"/>
    <path class="st1" d="M1844.41,859.84l-.11,8.1-115.34,65.35s.11-7.98-.21-7.98h0s115.66-65.47,115.66-65.47M1844.41,857.34c-.42,0-.85.11-1.23.32l-115.66,65.47c-.99.56-1.48,1.71-1.19,2.81.02.06.04.13.06.19.09,1.01.11,4.35.07,7.12-.01.9.46,1.73,1.23,2.19.39.23.83.35,1.27.35s.85-.11,1.23-.32l115.34-65.35c.77-.44,1.26-1.25,1.27-2.14l.11-8.1c.01-.9-.46-1.73-1.23-2.19-.39-.23-.83-.35-1.27-.35h0Z"/>
  </g>
  <g>
    <path class="st0" d="M1729.24,954.54c-.22,0-.44-.06-.63-.17-.39-.23-.62-.64-.62-1.09.04-5.82.03-15.33-.13-16.75-.01-.04-.03-.07-.04-.11-.14-.55.1-1.13.59-1.41l115.66-65.47c.19-.11.4-.16.62-.16s.44.06.63.17c.38.23.62.64.62,1.09l-.11,16.77c0,.45-.24.86-.63,1.08l-115.34,65.89c-.19.11-.41.17-.62.17Z"/>
    <path class="st1" d="M1844.69,870.63l-.11,16.77-115.34,65.89s.11-17.19-.21-17.19h0s115.66-65.47,115.66-65.47M1844.69,868.13c-.42,0-.85.11-1.23.32l-115.66,65.47c-.99.56-1.48,1.71-1.19,2.81,0,.01,0,.03.01.04.13,1.53.16,9.43.12,16.5,0,.89.47,1.72,1.24,2.17.39.23.83.34,1.26.34s.86-.11,1.24-.33l115.34-65.89c.77-.44,1.25-1.26,1.26-2.15l.11-16.77c0-.89-.46-1.72-1.23-2.17-.39-.23-.83-.34-1.27-.34h0Z"/>
  </g>
</svg>