<?xml version="1.0" encoding="UTF-8"?>
<svg id="Layer_1" xmlns="http://www.w3.org/2000/svg" version="1.1" viewBox="0 0 2048 1650">
  <!-- Generator: Adobe Illustrator 30.3.0, SVG Export Plug-In . SVG Version: 2.1.3 Build 182)  -->
  <defs>
    <style>
      .st0 {
        fill: #12874b;
      }
    </style>
  </defs>
  <path class="st0" d="M1729.25,1045.36c37.73-22,78.89-44.02,115.72-66.52l-.15,19c-34.7,19.94-78.95,46.92-113.79,65.11l-.91.31-1.22-.82c-.83-4.59-.84-12.55.35-17.08h0Z"/>
  <path class="st0" d="M1842.51,900.93l1.66.47c1.33,4.37.75,10.26.62,14.99-12.47,7.9-27.78,16.09-40.72,23.49l-73.36,42.05-.85-.61c-1.22-3.46-.69-11.71-.62-15.76,37-20.32,76.72-43.43,113.27-64.63h0Z"/>
  <path class="st0" d="M1843.62,939.98l.6.58c1.15,3.58.65,11.33.57,15.5-35.8,21.42-77.1,44.71-113.5,64.76-2.91-3.07-1.85-11.08-1.78-15.96l114.11-64.88h0Z"/>
  <path class="st0" d="M1843.23,860.9l1.05.51c1.05,3.74.67,11.2.63,15.45l-114.23,64.99-.61-.3c-1.41-2.5-.74-12.53-.67-16.08,12.35-6.36,27.33-15.52,39.63-22.51l74.2-42.05h0Z"/>
  <path class="st0" d="M1843.57,959.99c1.86,1.88,1.34,12.78,1.36,16.08l-114.54,65.36c-1.57-4.34-.93-11.58-.77-16.37,37.36-22.09,76.21-43.36,113.95-65.06h0Z"/>
  <path class="st0" d="M1843.93,920.03c1.42,3.03.99,12.4.98,16.32l-114.46,65.26c-1.93-2.76-1.26-12.18-1.22-16.14l114.7-65.44Z"/>
  <path class="st0" d="M1843.15,880.8l1.16.51c1.04,3.88.58,10.71.49,15.03-33.82,21.26-78.72,45.37-114.06,65.33l-.69-.4c-1.29-2.77-.79-11.97-.76-15.51,37.47-21.38,76.98-42.98,113.86-64.96Z"/>
</svg>