<?xml version="1.0" encoding="UTF-8"?>
<svg id="Layer_1" xmlns="http://www.w3.org/2000/svg" version="1.1" viewBox="0 0 2048 1650">
  <!-- Generator: Adobe Illustrator 30.3.0, SVG Export Plug-In . SVG Version: 2.1.3 Build 182)  -->
  <defs>
    <style>
      .st0 {
        fill: #12874b;
      }
    </style>
  </defs>
  <path class="st0" d="M1728.77,998.23l115.66-65.47-.11,17.22-115.34,65.44s.11-17.19-.21-17.19h0Z"/>
  <path class="st0" d="M1728.97,1018.25l115.66-65.47-.11,17.31-115.34,65.35s.11-17.19-.21-17.19h0Z"/>
  <path class="st0" d="M1729.03,1038.48l115.66-65.47-.11,16.77-115.34,65.89s.11-17.19-.21-17.19h0Z"/>
  <path class="st0" d="M1729.03,957.63l115.66-65.47-.11,17.22-115.34,65.44s.11-17.19-.21-17.19h0Z"/>
  <path class="st0" d="M1729.03,977.68l115.66-65.47-.11,17.31-115.34,65.35s.11-17.19-.21-17.19h0Z"/>
  <path class="st0" d="M1729.03,925.48l115.66-65.47-.11,8.94-115.34,65.44s.11-8.92-.21-8.92h0Z"/>
  <path class="st0" d="M1729.03,937.45l115.66-65.47-.11,17.31-115.34,65.35s.11-17.19-.21-17.19h0Z"/>
</svg>