<?xml version="1.0" encoding="UTF-8"?>
<svg id="Layer_1" xmlns="http://www.w3.org/2000/svg" version="1.1" viewBox="0 0 2048 1650">
  <!-- Generator: Adobe Illustrator 30.3.0, SVG Export Plug-In . SVG Version: 2.1.3 Build 182)  -->
  <defs>
    <style>
      .st0 {
        fill: #12874b;
      }
    </style>
  </defs>
  <path class="st0" d="M1728.77,986.98l115.66-65.47-.11,17.22-115.34,65.44s.11-17.19-.21-17.19h0Z"/>
  <path class="st0" d="M1729.01,1007.15l115.66-65.47-.11,17.31-115.34,65.35s.11-17.19-.21-17.19h0Z"/>
  <path class="st0" d="M1729.03,1027.23l115.66-65.47-.11,16.77-115.34,65.89s.11-17.19-.21-17.19h0Z"/>
  <path class="st0" d="M1729.03,946.38l115.66-65.47-.11,17.22-115.34,65.44s.11-17.19-.21-17.19h0Z"/>
  <path class="st0" d="M1729.03,966.43l115.66-65.47-.11,17.31-115.34,65.35s.11-17.19-.21-17.19h0Z"/>
  <path class="st0" d="M1729.03,926.2l115.66-65.47-.11,17.31-115.34,65.35s.11-17.19-.21-17.19h0Z"/>
</svg>