<?xml version="1.0" encoding="UTF-8"?>
<svg xmlns="http://www.w3.org/2000/svg" xmlns:xlink="http://www.w3.org/1999/xlink" version="1.1" viewBox="0 0 2048 1650">
  <!-- Generator: Adobe Illustrator 30.3.0, SVG Export Plug-In . SVG Version: 2.1.3 Build 182)  -->
  <defs>
    <style>
      .st0 {
        fill: #d7d6d5;
      }

      .st1 {
        fill: url(#linear-gradient2);
      }

      .st2 {
        fill: url(#linear-gradient1);
      }

      .st3 {
        fill: url(#linear-gradient3);
      }

      .st4 {
        fill: url(#linear-gradient6);
      }

      .st5 {
        fill: url(#linear-gradient7);
      }

      .st6 {
        fill: url(#linear-gradient5);
      }

      .st7 {
        fill: url(#linear-gradient4);
      }

      .st8 {
        fill: #343636;
      }

      .st9 {
        fill: #3a3939;
      }

      .st10 {
        fill: #1a6546;
      }

      .st11 {
        fill: url(#linear-gradient);
      }

      .st12 {
        fill: #7c7b7b;
      }

      .st13 {
        fill: #f8f9f9;
      }

      .st14 {
        fill: #646365;
      }

      .st15 {
        fill: #d2d4d7;
      }

      .st16 {
        fill: #949598;
      }

      .st17 {
        fill: #414a51;
      }

      .st18 {
        fill: #a4a6a9;
      }

      .st19 {
        fill: #00964b;
      }

      .st20 {
        fill: #737478;
      }

      .st21 {
        fill: #b2afa8;
      }

      .st22 {
        fill: #5a6166;
      }

      .st23 {
        display: none;
      }

      .st24 {
        fill: #1b1b1b;
      }
    </style>
    <linearGradient id="linear-gradient" x1="26.73" y1="1246.08" x2="2026.88" y2="1246.08" gradientUnits="userSpaceOnUse">
      <stop offset="0" stop-color="#e0e0e0"/>
      <stop offset="1" stop-color="#e3e3e3"/>
    </linearGradient>
    <linearGradient id="linear-gradient1" x1="78.95" y1="1112.12" x2="1719.68" y2="164.85" gradientTransform="translate(942.01 -167.05) rotate(45) scale(.96 1.14)" gradientUnits="userSpaceOnUse">
      <stop offset="0" stop-color="#90b09c"/>
      <stop offset=".46" stop-color="#749988"/>
      <stop offset="1" stop-color="#357d52" stop-opacity=".8"/>
    </linearGradient>
    <linearGradient id="linear-gradient2" x1="1619.41" y1="2004.38" x2="1623.31" y2="1997.94" gradientTransform="translate(0 -940)" gradientUnits="userSpaceOnUse">
      <stop offset="0" stop-color="#51595f"/>
      <stop offset="1" stop-color="#737679"/>
    </linearGradient>
    <linearGradient id="linear-gradient3" x1="1571.25" y1="1794.75" x2="1574.39" y2="1789.36" gradientTransform="translate(0 -940)" gradientUnits="userSpaceOnUse">
      <stop offset="0" stop-color="#323b44"/>
      <stop offset="1" stop-color="#696669"/>
    </linearGradient>
    <linearGradient id="linear-gradient4" x1="2623.62" y1="-570.24" x2="2623.04" y2="-570.71" gradientTransform="translate(80 383.64) rotate(9) scale(.51 -.49) skewX(-8.78)" gradientUnits="userSpaceOnUse">
      <stop offset="0" stop-color="#2d2c28"/>
      <stop offset="1" stop-color="#444343"/>
    </linearGradient>
    <linearGradient id="linear-gradient5" x1="2621.98" y1="-570.87" x2="2622.09" y2="-571.52" gradientTransform="translate(80 383.64) rotate(9) scale(.51 -.49) skewX(-8.78)" gradientUnits="userSpaceOnUse">
      <stop offset="0" stop-color="#1b1913"/>
      <stop offset="1" stop-color="#313130"/>
    </linearGradient>
    <linearGradient id="linear-gradient6" x1="1397.75" y1="-746.07" x2="1397.18" y2="-746.53" xlink:href="#linear-gradient4"/>
    <linearGradient id="linear-gradient7" x1="1396.11" y1="-746.7" x2="1396.22" y2="-747.35" xlink:href="#linear-gradient5"/>
  </defs>
  <g id="Layer_2">
    <path class="st11" d="M26.73,989.99v40.01s6.82,13.68,45,36.18l908.58,469.62s61.34,25.17,138.23-23.25l901.22-504.33s7.12-2.85,7.12-18.51v-39.87L26.73,989.99Z"/>
    <path class="st2" d="M952.73,1491.53L94.05,1050.25c-81.73-43.01-81.04-68.01-28.42-99.82L1006.83,428.22c35.12-35.12,92.58-35.12,127.7,0l858.07,478.41c54.42,38.98,47.73,62.41,1.28,88.85l-865.86,483.6c-63.6,38.18-111.26,44.83-175.29,12.45Z"/>
  </g>
  <g id="Layer_1" class="st23">
    <path class="st17" d="M152.84,693.32l129.45-119.15c17.26-15.76,42.67-39.99,60.16-54.01,8.77-7.03,48.47-28.89,59.69-35.35l114.69-66.06,394.74-227.53c26.66,51.78,55.65,104.65,82.95,156.36,23.18-36.11,47.8-71.54,71.1-107.59,6.27-9.69,12.87-19.8,19.8-29,13.3,7.62,27.99,14.64,41.64,22.34,1.22.61,4.35,2.03,5.2,2.81l15.85,8.51c4.56,2.3,7.66,3.8,11.91,6.66,18.26,9.33,47.96,24.73,65.11,35.39l1.96,1.03c22.88,11.55,46.46,24.7,68.98,37.1,1.27.7,4.01,2.09,5.04,2.89,41.43,21.04,89.97,48.71,130.88,71.67,5.93,3.01,10.44,5.28,16,8.88,29.52,15.12,67.98,40.27,96.66,58.09l148.36,90.97c-.04,5.9,1.22,8.84-4.02,12.76-1.29,8.03-.93,16.09-.84,24.22-13.83-6.79-27.77-13.78-41.68-20.38l.08,63.96,202.86,111.13c23.68,13.07,48.59,26.16,71.94,39.5-.11,7.46,1.03,7.03-3.55,12.63-1.35,6.79-.7,15.1-.72,22.25l-36.03-17.39.08,168,7.92,4.77v13.58c-19.72,11.24-199.47,114.47-201.93,113.86-5.6-.75-19.58-.22-26.12-.19l-51.1.05c-31.2-19.26-62.52-38.34-93.95-57.24l-61.66,35.4-17.3-10.92c-5.56-2.96-8.74-5.06-13.94-8.67-5.74-3.26-11.39-6.65-16.96-10.19-25.87,14.16-51.62,28.53-77.25,43.11-17.15-10.81-34.43-21.4-51.84-31.78-5.23,2.92-32.42,18.57-36.83,19.39-7.56-.66-19.75-.29-27.68-.32l-55.76.1c-50.21.23-34.39-.83-70.96-17.77-19.12-8.86-181.57-94.08-185.42-93.62-.14,2.62-.37,5.24-.7,7.84-32.75,20.36-68.47,44.12-101.29,63.27-17.63-9.43-36.04-19.85-53.65-28.96-40.2,25.77-80.55,51.31-121.04,76.62-25.75,16.31-51.41,32.83-77.4,48.74-2.32,1.42-3.6,1.98-6.17,1.06-38.36,1.33-78.33.78-116.83.81-29.26-18.47-64.94-37.31-95.38-55.33-78.05-46.23-158.11-91.01-235.49-138.22,33.3-20.53,67.3-42.54,100.91-62.26l.31-174.18c-11.19,5.36-23.4,12-34.52,17.75.09-6.99.59-16.17-.75-22.92-.45-2.28-1.77-2.29-4.38-3.78-1.96-2.97-1.26-6.87-1.13-10.68h0Z"/>
    <path class="st20" d="M1085.71,214.42c10.46,4.14,19.82,9.47,29.4,15.34,3.67,2.25,7.79,5.66,11.95,3.58,1.22.61,4.35,2.03,5.2,2.81l15.85,8.51c4.56,2.3,7.66,3.8,11.91,6.66,18.26,9.33,47.96,24.73,65.11,35.39l1.96,1.03c22.88,11.55,46.46,24.7,68.98,37.1,1.27.7,4.01,2.09,5.04,2.89,41.43,21.04,89.97,48.71,130.88,71.67,5.93,3.01,10.44,5.28,16,8.88l-.85,1.6c5.22,3.27,9.46,6.44,15.56,7.48,3.85,7.23-15.72,32.69-20.28,39.64-9.17,14.1-18.26,28.25-27.28,42.45l-114.56,177.58c-20.94,32.31-43.87,66.62-63.99,99.22l-30.75-18.93c11.13-71.3,20.45-145.38,30.41-217l15.88-116.92c3.19-23.01,7.26-47.81,9.88-70.72-46.46,24.14-93.23,49.61-139.39,74.43l-42.96,23.09c-9.09,4.86-25.76,12.85-32.79,19.35-45.89,42.44-95.67,83.08-140.62,126.37-5.34-3.09-23.01-13.57-28.12-15.12l-.43-.58c-1.3-.96-2.98-1.85-4.41-2.67-2-1.54-3.79-2.49-5.96-3.77l-.93-.33c-1.93-1.63-4.12-2.64-6.36-3.83l-1.36-.51-1.37-.45c-1.81-1.34-1.34-.96-2.78-2.72.91-5.61,31.47-49.95,37.25-58.73l118.73-178.53c24.27-36.64,49.7-78.76,75.2-114.25h0Z"/>
    <path class="st17" d="M1301.11,327.72c41.43,21.04,89.97,48.71,130.88,71.67l-1.07.76c-6.46-.51-117.4-63.13-130.01-70.22l.2-2.21h0Z"/>
    <path class="st17" d="M1227.09,287.74c22.88,11.55,46.46,24.7,68.98,37.1l-.56,1.3c-10.36-1.34-51.99-29.64-64.37-33.98-2.31-.81-2.24-.51-4.25-2.23l.2-2.18h0Z"/>
    <path class="st17" d="M1160.02,251.32c18.26,9.33,47.96,24.73,65.11,35.39-8.03.14-54.35-28.46-66.14-33.79l1.03-1.6Z"/>
    <path class="st17" d="M1132.26,236.15l15.85,8.51c-.74.42-1.79.71-2.63,1-6.41-2.28-7.44-2.71-12.89-6.71l-.33-2.8h0Z"/>
    <path class="st15" d="M193.3,887.15l.07,62.79c5.19,2.94,12.19,7.2,17.59,9.27l.47.52c2.52,1.51,4.79,3.25,7.53,3.83,7.18,5.17,24.93,14.63,33.48,19.17,14.21,7.54,29.46,16.67,43.63,23.89.48.3,2.47,1.59,2.92,1.74l22.17,12.31c2.19,1.3,4.3,2.72,6.69,3.54l.76.49c2.65,1.65,5.3,3.52,8.23,4.53l1.89.89.65.55c9.46,5.63,24.34,14.22,34.28,19.08,3.42,2.32,4.56,3.06,8.34,4.67,32.98,18.14,70.8,40.32,103.78,57.24,4.15,2.7,5.56,3.55,10.24,5.58l.89.61,2.89,1.5c13.35,7.74,26.78,15.34,40.3,22.8-38.36,1.33-78.33.78-116.83.81-29.26-18.47-64.94-37.31-95.38-55.33-78.05-46.23-158.11-91.01-235.49-138.22,33.3-20.53,67.3-42.54,100.91-62.26h-.01Z"/>
    <path class="st15" d="M908.09,888.9l213.88,126.41c36.8,21.92,81.2,50.02,118.2,69.88-7.56-.66-19.75-.29-27.68-.32l-55.76.1c-50.21.23-34.39-.83-70.96-17.77-19.12-8.86-181.57-94.08-185.42-93.62-.14,2.62-.37,5.24-.7,7.84-.6-5.15-.66-6.69-.48-11.87l-13.57-7.88.07-12.05c-5.13-2.89-11.94-6.46-16.57-9.83,11.56-8.73,26.54-17.8,38.96-25.81l.03-25.08h0Z"/>
    <path class="st20" d="M196,920.36c35.36,21.34,342.97,186.91,344.51,192.45,2,7.18.5,19.2.61,27-8.11-4.75-33.98-21.27-41.32-20.46l-2.89-1.5-.89-.61c-4.68-2.03-6.09-2.88-10.24-5.58-32.98-16.92-70.8-39.1-103.78-57.24-3.78-1.61-4.92-2.35-8.34-4.67-9.94-4.86-24.82-13.45-34.28-19.08l-.65-.55-1.89-.89c-2.93-1.01-5.58-2.88-8.23-4.53l-.76-.49c-2.4-.82-4.5-2.24-6.69-3.54l-22.17-12.31c-.45-.15-2.43-1.44-2.92-1.74-14.17-7.22-29.41-16.35-43.63-23.89-8.55-4.54-26.3-13.99-33.48-19.17-2.74-.58-5.01-2.32-7.53-3.83l-.47-.52c-1.79-5.05-13.51-8.84-14.17-11.21-1.58-5.68-.66-21.46-.8-27.64h.01Z"/>
    <path class="st17" d="M381.99,1054.42c4.9-1.48,102.55,50.9,103.78,57.24-32.98-16.92-70.8-39.1-103.78-57.24Z"/>
    <path class="st17" d="M218.96,963.56c2.04-.09,4.6-.11,6.43.91,23.24,12.97,46.25,26.19,69.62,38.93.54,1.35.85,1.8,1.06,3.22-14.17-7.22-29.41-16.35-43.63-23.89-8.55-4.54-26.3-13.99-33.48-19.17h0Z"/>
    <path class="st17" d="M339.37,1030.67l2.11-.95c7.87,3.13,29.68,12.26,32.17,20.03-9.94-4.86-24.82-13.45-34.28-19.08h0Z"/>
    <path class="st17" d="M298.98,1008.36c5.65-1.61,21.14,6.11,22.17,12.31l-22.17-12.31Z"/>
    <path class="st17" d="M211.43,959.73c3.53-.28,3.34-.24,6.52,1.47.56,1.03.88,1.3,1.01,2.36-2.74-.58-5.01-2.32-7.53-3.83h0Z"/>
    <path class="st17" d="M336.83,1029.23l1.13-1.7c.78,1.58.74.98.76,2.59l-1.89-.89Z"/>
    <path class="st17" d="M327.85,1024.21l1.17-1.66c.05,1.66.26.96-.41,2.15l-.76-.49Z"/>
    <path class="st18" d="M1052.81,479.37c3.15,8.36,14.18,28.53,19.01,37.35,6.1,11.15,14.1,27.96,20.44,38.39l73.87,140.97c11.7,22.39,25.92,47.89,36.64,70.43,11.25,6.36,22.4,12.9,33.43,19.62.11,6.9.32,14.02.29,20.9-11.6-7.27-24.08-14.78-35.45-22.28-48.8-94.54-98.15-188.79-148.06-282.75-33.51,29.52-66.82,59.25-99.95,89.21-12.71,11.41-26.49,24.63-39.29,35.52l-54.7-32.93c-.24-4.62-1.26-9.33,1.47-12.65l3.56.06c2.65,4.42,17.28,11.57,22.55,14.31.68.44,3.82,2.53,4.33,2.74,6.08,3.6,14.09,9.81,20.26,8.54,1.45-2.03,9.95-9.68,12.21-11.78,35.68-30.53,73.78-66.14,108.91-97.69,2.06-1.47,4.2-3.65,6.09-5.43l14.39-12.53h0Z"/>
    <path class="st15" d="M1415.8,960.07c11.78,4.68,28.39,13.78,40.2,19.62,7.87,3.89,24.15,11.61,30.93,15.77-8.2,4.5-57.16,33.9-61.88,32.3-1.61-.55-3.34-1.79-4.82-2.66l-2.26-1.41c-3.93-2.46-5.67-3.49-10.01-5.41l-50.63,28.75c-15.48-9.29-31.81-20.05-47.16-29.76l50.51-26.18c5.81-2.95,15.99-7.03,20.58-9.83.67-1.38,1.88-4.08,3.15-4.77,10.19-5.44,21.24-11.13,31.39-16.43h0Z"/>
    <path class="st15" d="M1515.95,1048.85l37.93-21.59c10.18,5.96,20.75,12.36,31.08,17.95l2.18,1.38c11.61,7.27,31.67,19.95,43.75,26.11,4.1,2.97,13.23,8.46,17.96,10.88,10.2,6.57,27.39,17.11,38.27,22.65-5.6-.75-19.58-.22-26.12-.19l-51.1.05c-31.2-19.26-62.52-38.34-93.95-57.24h0Z"/>
    <path class="st18" d="M1415.8,960.07c4.89-2.51,24.28-13.26,27.76-14.27l1.3.63c1.39.66,3.29,1.56,4.71.96,7-2.95,14.66-8.13,21.21-12.17,16.73,8.41,42.48,25.45,59.1,35.84-13.98,7.93-29.21,16.24-42.95,24.4-6.78-4.16-23.06-11.88-30.93-15.77-11.81-5.85-28.42-14.95-40.2-19.62h0Z"/>
    <path class="st22" d="M911.22,606.8c-2.17-2.86-2.09-2.82-3.31-6.24.2-.85.4-1.7.61-2.54,40.63-37.75,104.45-94.4,143.38-129.25,14.47,24.32,29.81,56.24,42.73,81.77-.2,2.69-.31,2.01-2.37,4.57-6.34-10.43-14.34-27.24-20.44-38.39-4.83-8.82-15.86-28.99-19.01-37.35l-14.39,12.53c-1.89,1.78-4.03,3.96-6.09,5.43-35.12,31.56-73.22,67.16-108.91,97.69-2.25,2.09-10.76,9.74-12.21,11.78h.01Z"/>
    <path class="st17" d="M923.42,595.02c.24-2.02.74-4.06,2.25-5.58,20.53-20.41,42.55-39.51,64.25-58.7,12.61-11.15,25.23-23.48,38.05-34.23l4.35.81c-35.12,31.56-73.22,67.16-108.91,97.69h.01Z"/>
    <path class="st17" d="M1038.42,491.9c2.07-8.55,5.47-9.44,12.6-14.13,1.33-.87,1.39-.37,2.83.16l-1.04,1.43-14.39,12.53h0Z"/>
    <path class="st1" d="M1584.96,1045.21l.11-2.05c-8.74-7.35-26.65-14.68-29.33-20.98l.57-2.5c6-.23,115.38,69.9,128.06,75.28,1.76.75,2.7,3.76,3.11,5.63l-1.08,2.08c-2.98-.45-.91.22-2.83-1.47-5.26-4.62-6.18-.97-11.39-7.22-2.4-2.89-19.19-8.76-21.56-12.26l-1.31.35-.46,1.51c-4.73-2.42-13.86-7.91-17.96-10.88-12.08-6.16-32.14-18.84-43.75-26.11l-2.18-1.38h0Z"/>
    <path class="st17" d="M1587.14,1046.59c7.95-1.26,42.41,20.41,43.75,26.11-12.08-6.16-32.14-18.84-43.75-26.11Z"/>
    <path class="st20" d="M1423.05,1064.66l.86-1.01c-1.5-2.46-11.26-7.22-13.92-9.79-3.92-3.78-1.15-24.3-.7-31.15l1.19-.58c1.75.96,3.17,1.65,4.96,2.5l2.53-.94,2.26,1.41.27,3.43c1.17.86.56.58,1.78.92,4,5.35,3.27,5.86,2.95,12.93,4.74,3.14,9.07,6.21,14.26,8.56l-.05,1.35c-.51,17.88,17.01,10.85,13.82,27.05-5.37-.06-9.56-8.96-16.27-6.01-5.56-2.96-8.74-5.06-13.94-8.67h0Z"/>
    <path class="st22" d="M857.32,568.65l1.37.45,1.36.51c2.24,1.19,4.42,2.2,6.36,3.83l.93.33c2.16,1.28,3.96,2.23,5.96,3.77,1.43.82,3.11,1.71,4.41,2.67l.43.58c3.02,6.77,24.65,13.31,27.24,20.28-2.12,1.76-.88,1.12-4.09,1.38l-.59-.54c-2.88-2.62-5.91-5.71-9.73-3.64-.52-.21-3.65-2.3-4.33-2.74-5.27-2.74-19.91-9.88-22.55-14.31-4.02-5.21-12.35-4.59-10.27-11.36l3.52-1.2h-.02Z"/>
    <path class="st17" d="M864.07,581.21c4.54,1.08,19.13,9.86,22.86,12.91l-.31,1.39c-5.27-2.74-19.91-9.88-22.55-14.31h0Z"/>
    <path class="st17" d="M873.29,577.54c1.43.82,3.11,1.71,4.41,2.67-2.65.29-2.6.51-4.85-.8l.45-1.88h-.01Z"/>
    <path class="st17" d="M858.68,569.1l1.36.51c-.35,1.38,0,.74-1.21,1.83l-.15-2.34h0Z"/>
    <path class="st17" d="M866.4,573.44l.93.33c-.52,1.33-.1.71-1.46,1.71l.52-2.04h.01Z"/>
    <path class="st16" d="M910.7,194.63c10.99,21.55,23.14,43.23,34.41,64.8l29.71,55.97c5.65,10.77,11.76,23.52,17.81,33.86-4.02,7.73-14.57,22.92-19.74,30.64l-36.6,54.58-54.3,82.49c-7.47,11.31-18.77,29.62-26.6,40.02l-5.39,8.71c0,8.24-.92,8.32,6.52,13.07-.15,6.75-1.5,14.31,2.72,18.82,15.32,8.56,36.77,21.52,52.32,30.93.78.48,5.7-.64,6.94-.94,3.06,4.18,5.08,8.19,7.52,12.75-12.29,7.66-24.55,15.4-36.75,23.2l-350.98,221.36-193.43-363.03c16.06-11.14,40.59-24.49,58.15-34.65l111.07-64,396.61-228.56v-.02Z"/>
    <path class="st20" d="M945.11,259.43l29.71,55.97c5.65,10.77,11.76,23.52,17.81,33.86-4.02,7.73-14.57,22.92-19.74,30.64l-36.6,54.58-54.3,82.49c-7.47,11.31-18.77,29.62-26.6,40.02,1.56-7.59,7.48-25.34,10.02-33.74l19.7-65.22,60-198.59h0Z"/>
    <path class="st20" d="M859.25,597.58c15.32,8.56,36.77,21.52,52.32,30.93.78.48,5.7-.64,6.94-.94,3.06,4.18,5.08,8.19,7.52,12.75-12.29,7.66-24.55,15.4-36.75,23.2-9.58-18.13-21.23-46.45-30.03-65.93h0Z"/>
    <path class="st18" d="M345.97,571.01c3.2,4,14.22,25.93,17.26,31.77,8.32,15.87,16.77,31.67,25.34,47.41l92.64,175.34c15.89,29.96,32.13,61.59,49.29,90.93,4.06,6.94,5.11,1.16,9.37,2.22,1.13,6.39.74,43.43.8,52.46l.21,136.7-93.74-51.74c-41.09-23.26-83.41-45.97-124.79-68.86-41.98-23.48-84.11-46.69-126.4-69.63l.08-211.11c20.37-17.11,42.63-38.24,62.43-56.29l87.53-79.2h-.02Z"/>
    <path class="st17" d="M387.57,865.88c7.17,2.69,23.34,12.15,30.61,16.21,16.68,9.25,33.28,18.65,49.8,28.18l.05,74.55c0,13.7.54,33.3-.55,46.65-5.19-2.12-21.25-11.43-26.89-14.58l-53.45-30.24c.28-32.95-.38-65.91-.25-98.87.03-7.3-.29-14.65.67-21.9h.01Z"/>
    <path class="st18" d="M389.75,869.44c23.82,12.22,51.92,28.67,75.42,41.81l.38,116.2c-4.33-.73-67.61-37.35-75.71-41.92l-.09-116.09h0Z"/>
    <path class="st17" d="M395.4,880.18c10.98,4.27,52.13,28.64,63.87,35.32.21,33.84.17,67.68-.11,101.53-5.75-2.38-16.55-8.87-22.54-12.23l-40.98-22.94-.25-101.68h.01Z"/>
    <path class="st18" d="M398.1,884.3c1.23.59,1.32.85,2.38,1.77,1.11,7.27.68,24.34.66,32.57l-.17,60.22c8.58,4.73,54.16,28.31,56.96,34.21-6.23-1.23-51.14-27.58-59.87-32.57l.04-96.19h0Z"/>
    <path class="st17" d="M254.85,794.99c6.4,2.45,21.62,11.28,28.38,15.01l52.45,29.03v119.75c-9.63-2.5-67.25-36.92-80.56-44.13-1.55-36.23-.25-82.65-.26-119.66h-.01Z"/>
    <path class="st18" d="M257.64,798.8l75.37,41.55-.14,114.75c-23.49-14.07-51.14-28.59-75.38-42.08-.08-37.06-.9-77.44.15-114.22h0Z"/>
    <path class="st17" d="M263,809.17c2.61.89,16.18,8.66,19.68,10.58l44.16,24.33v100.03c-7.39-1.84-54.07-29.52-63.83-34.99v-99.96h-.01Z"/>
    <path class="st18" d="M265.8,813.27l1.79,1.03c2.64,3.26,1.38,81.75,1.35,92.35,13.78,7.27,40.04,21.52,54.13,30.67.43.96.87,1.92,1.3,2.88-13.83-6.24-45.73-24.65-59.02-32.69.46-31.4-.17-62.81.45-94.24h0Z"/>
    <path class="st17" d="M330.53,656.58c11.93,5.12,46.02,25.89,58.96,33.39,1.27,21.71.02,48.43.89,70.66.35,9.09,1.29,49.95.19,56.18l-61.37-35.6c.8-41.08-.12-84.01,1.34-124.63h-.01Z"/>
    <path class="st18" d="M333.13,660.69c18.08,10.01,36.02,20.27,53.81,30.77.66,40.31,1.09,80.62,1.3,120.93l-56.3-32.54,1.19-119.17h0Z"/>
    <path class="st17" d="M338.08,670.17c4.32,1.43,37.14,20.99,43.06,24.45l1.35,108.4-45.41-26.54c.63-35.43.97-70.88,1-106.32h0Z"/>
    <path class="st18" d="M340.23,744.34l1.38.62c2.64,3.82,1.32,24.11,1.19,29.91,6.96,3.83,34.98,18.25,37.47,23.23-7.7-3.33-33.35-18.46-40.3-23.26l.27-30.48v-.02Z"/>
    <path class="st18" d="M341.04,708.62c3.59,3.37,1.88,24.47,1.52,30.04-3.86-4.07-2.24-24.05-1.52-30.04Z"/>
    <path class="st18" d="M341.32,674.67c3.45,4,1.87,21.45,1.73,27.81-3.8-2.86-1.91-22.42-1.73-27.81Z"/>
    <path class="st18" d="M1055.19,513.72c2.61,1.07,39.31,71.71,43.86,79.79l-53.16-32-1.4,126.46c19.68,12.48,41.44,25.05,61.57,36.97l-.87-118.73c31.63,59.95,62.91,120.09,93.85,180.4,12.92,7.67,26.97,16.82,39.81,24.83l.25,195.38.1,43.2c-11.55-5.98-29.12-17.14-40.8-24.02l-93.47-55.36-132.45-78.28c-21.43-12.69-44.78-25.8-65.65-38.98,1.1-55.21.23-113.15.16-168.61l20.49-13.07c-.32-27.66,7.18-22.15-6.75-46.33,28.57-15.53,43.05-30.89,67.26-52.18l67.2-59.48h0Z"/>
    <path class="st17" d="M1029.99,747.11c4.65,1.63,23.38,13.08,28.48,16.12l56.57,33.59.18,132.22c-8.8-2.48-72.75-43-85.16-50.1l-.07-131.83h0Z"/>
    <path class="st18" d="M1032.51,751.07c26.23,14.53,54.14,31.85,80.17,47.27l.11,127.06c-6.27-3.05-20.57-12.32-27.02-16.22l-53.2-31.86-.06-126.24h0Z"/>
    <path class="st17" d="M1038.14,762.16c3.73,1.31,19.51,10.95,23.7,13.45,14.74,8.91,29.56,17.68,44.47,26.3l.34,111.38c-4.8-.66-59.94-35.26-68.69-40.68l.18-110.45Z"/>
    <path class="st18" d="M1042.98,871.97l-2.1-1.4c-1.25-8.12-.71-41.51-.62-51.65.1-12.64-.85-40.25.29-51.89,1.11-.47,1.48-.73,2.65-.93,2.15,5.83,1.92,102.47-.22,105.87h0Z"/>
    <path class="st18" d="M1042.98,871.97c7.46-.27,50.83,29.36,60.09,34.5.53.29,1.45,2.5,1.68,3.05-6.39-2.08-59.04-33.85-61.77-37.55Z"/>
    <path class="st15" d="M1466.97,461.9c14.06,7.22,43.53,26.56,57.75,35.28l119.33,73.41v66.34c-31.94-14.77-65.21-29.06-97.44-43.5-5.35,7.77-33.55,50.29-38.33,53.45-16.04,10.6-47.03,26.5-64.8,36.1l-153.6,82.58c-.57,8.11,2.02,21.3,1.72,33.11,11.9,17.7,23.68,35.48,35.33,53.34l-9.79,5.39-.12,98.35-.06,16.95c19.17-10.66,38.43-21.16,57.78-31.47l.18,39.47c-41.84,23.2-90.32,47.85-132.92,69.7l-.39-240.61c26-35.97,52.73-79.49,77.14-117.28l148.22-230.59v-.02Z"/>
    <path class="st17" d="M1450.12,565.07c2.54,3.54,2.75,94.73,2.94,106.78-25,13.26-49.57,27.19-74.76,40.09l-1.34.13c-2.65-3.99-.12-96.58-.03-108.41,24.47-12.72,48.86-25.59,73.19-38.59h0Z"/>
    <path class="st13" d="M1447.84,569c2.07,2.99,2.34,89.42,2.47,101.49l-70.63,38.34-1.44-1.27,1.31-102.27c22.85-11.94,45.61-24.04,68.29-36.3h0Z"/>
    <path class="st22" d="M1441.86,577.93l1.26.64c2.13,6.34,1.12,77.72,1.16,89.46l-58.68,31.59-.61-.07c-.37-.5-.73-1-1.1-1.5.49-25.12.94-65.47,1.07-89.12,17.72-10.42,38.64-21.21,56.9-31h0Z"/>
    <path class="st18" d="M1411.94,681.13l.46.47c-1.31,2.26-5.78,3.83-8.61,5.24l-.32-1.1,8.47-4.61Z"/>
    <path class="st15" d="M865.42,711.28c12.61-8.49,26.03-16.67,38.93-24.76l-.32,195.83c-18.25,11.53-37.38,24.02-55.85,34.99l-8.28,4.92-.41-164.24c-27.49,16.88-54.89,33.91-82.21,51.07l.4,164.63-214.2,134.6-.39-192.9,322.32-204.13h.01Z"/>
    <path class="st18" d="M865.42,711.28c12.61-8.49,26.03-16.67,38.93-24.76l-.32,195.83c-18.25,11.53-37.38,24.02-55.85,34.99,5.33-55.04,9.92-110.15,13.76-165.31.84-13.45,3.14-27.62,3.47-40.74h.01Z"/>
    <path class="st17" d="M700.42,854.89c.26.15.56.26.78.47,3,2.78,1.69,104.53,1.71,117.15l-78.43,48.71-1.76-.59c-1.63-4.23-.53-106.98-.52-118.21l78.22-47.52h0Z"/>
    <path class="st13" d="M698.55,858.94c2.29,2.51,1.47,100.24,1.48,112.34-24.5,15.73-49.55,30.41-74.08,46.32l-.55-.41c-1.1-4.1-.66-30.5-.65-35.96l.11-77.46,73.7-44.83h0Z"/>
    <path class="st17" d="M692.24,870.01l.92.52c2.13,6.26.93,85.61.94,97.47-20.1,11.48-40.68,25.16-60.95,37.13l-1.26-.4c-1.61-2.72-.99-87.6-1-97.72,19.88-11.21,41.64-25.04,61.35-37h0Z"/>
    <path class="st13" d="M689.45,873.85c3.5,5.86,1.73,80.05,1.75,92.81-18.67,11.78-37.49,23.31-56.46,34.6v-1.86c3.97-3.94,45.78-29.38,53.72-34.34.34-24.14-.26-48.28.05-72.42.08-6.27-.05-12.57.94-18.78h0Z"/>
    <path class="st20" d="M1547.59,596.55l250.59,136.39-97.82,150.54-16.5,24.68c-19.39-9.57-45.58-26.35-65-37.34-49.43-27.98-98.5-58.52-148.14-86.11,13.63-7.02,16.37-16.93,25.77-28.09,5.52-6.55,10.42-12.18,15.53-19.2l.1-88.3c9.63-17.82,25.21-35.41,35.47-52.56h0Z"/>
    <path class="st16" d="M1257.31,357.95l.35.15c1.27,2.35-7.7,60.09-8.72,67.47l-45.2,327.87c-15.14-31.36-33.51-65.01-49.7-95.96l-56.27-107.08c-14.32-27.59-28.55-56.19-43.61-83.27,18.8-11.23,44.75-24.27,64.33-34.79l138.82-74.4h0Z"/>
    <path class="st18" d="M1472.23,811.6c11.16,5.69,25.5,14.7,36.63,21.28l66.15,39.14,68.96,40.77c14.17,8.34,30.22,17.28,43.73,26.23-.91,48.41,0,99.08-.07,147.76-4.8-1.32-33.83-19.59-39.51-22.99-34.29-20.65-68.68-41.12-103.17-61.41l.09-12.34-12.67-7.57.14-12.98c-19.96-12.5-40.01-24.86-60.15-37.07l-.13-120.82h0Z"/>
    <path class="st15" d="M1800.02,767.11c26.35,12.37,52.6,24.98,78.73,37.82l.02,174.98-18.79,10.62c.48-50.05-.05-100.93-.14-151.03-37.54,19.07-82.16,46.36-119.8,67.39l-21.55,12.12.3,151.76-28.67,16.32-.13-152.14c37.32-54.35,73.72-112.48,110.03-167.84h0Z"/>
    <path class="st16" d="M1507.81,651.25c2.45,2.75,1.22,75.62,1.19,85.52l-173.73,94.95-16.71-25.2c-8.67-13.18-17.41-26.31-26.22-39.39,22.69-11.29,46.75-24.77,69.13-36.83l146.34-79.04h0Z"/>
    <path class="st13" d="M1467.37,431.01c19.55,10.15,54.87,33.44,74.98,45.9l143.45,88.69v24.85l-217.95-134.22c-28.27,45.8-60.42,93.44-89.57,139.35l-87.78,136.47c-16.44,25.33-33.66,52.97-51.27,77.19l-.38-23.51c22.38-36.66,49.57-76.71,73.04-113.15l155.48-241.56h0Z"/>
    <path class="st20" d="M906.86,856.69l332.31,196.26c-.24,6.22,1.14,24.99-1.78,28.19-16.26-10.3-32.85-19.66-49.41-29.53l-101.81-60.43-138.45-81.99c-13.59-7.87-26.99-16.38-40.77-23.83-.33-9.15-.11-19.41-.09-28.66h0Z"/>
    <path class="st18" d="M341.81,534.73c2.41,2.08,23.56,42.71,26.87,48.89l112.63,211.94,34.71,64.5c5.6,10.35,12.31,22.25,17.22,32.88,1.43,3.1.73,20.18.65,24.7-11.47-17.2-31.22-56.87-41.34-75.91l-78.82-149.31c-21.51-43.33-48.12-90.12-71.03-133.43-59.58,55.84-121.01,110.04-180.68,166.4l.02-25.5c16.07-15.59,35.37-32.33,52.06-47.65l127.69-117.51h.02Z"/>
    <path class="st18" d="M1048.61,566.63c14.9,8.67,40.58,22.82,53.89,32.36.96,24.52-.1,51.55.54,76.34.2,7.7.75,38.43-.18,44.77-17.53-11.12-37.8-22.6-55.79-33.33l1.54-120.14h0Z"/>
    <path class="st22" d="M1053.86,576.17c5.99,2.54,36.64,21.53,43.16,25.45.56,36.24-.1,72.8.93,109.03-9.27-4.46-35.44-21.16-45.44-27.2.1-35.76.55-71.53,1.35-107.28h0Z"/>
    <path class="st16" d="M1055.83,681.85c6.31.35,35.92,18.68,39.85,23.23-4.75-.45-35.31-19.59-39.85-23.23Z"/>
    <path class="st18" d="M1056.07,614.43c4.78,3,2.68,25.32,1.97,31.31l-1.52-.72c-2.33-3.82-.69-25.05-.45-30.59Z"/>
    <path class="st18" d="M1056.31,580.44c.64.31,1.78,1.19,2.42,1.65,1.31,4.56.42,20.67.26,26.6h-1.71c-2.43-3.84-1.13-22.59-.97-28.25h0Z"/>
    <path class="st13" d="M884.12,679.32c-.55,5.11-5.11,16.2-7.24,21.39-35.77,24.25-77.08,49-113.78,72.3l-226.9,143.66.11-18.6c35.71-20.88,76.69-48.27,112.29-70.68l235.51-148.07h.01Z"/>
    <path class="st16" d="M743.84,984.88l.65.63c.91,2.92-.5,23.05-.72,27.74-25.95,17.37-54.66,34.79-81.17,51.52l-117.41,74.39-.76-.66c-1.11-3.13-.51-22.66-.45-27.32l129.44-81.63c20.91-13.17,50.77-30.74,70.42-44.68h0Z"/>
    <path class="st13" d="M1801.42,741.69c33.33,18,78.09,37.95,113.21,54.75l-.08,22.82c-37.04-16.55-78.52-37.76-115.45-55.55l-44.02,67.88c-22.82,33.84-44.4,69.98-68.22,103.06l-1.14-15.61,115.7-177.34h0Z"/>
    <path class="st16" d="M1461.23,790.78c3.4-.28,3.82-.72,6.4-2.96,3.83.87,206.1,117.76,214.65,125.11.71,2.44.27,3.54-.97,5.72,2.7,3.91,2.45,9.97,2.77,14.89l-156.57-92.68c-8.12-4.77-52.95-29.77-55.41-34.26-.08-3.86-.02-4.38,1.24-8.03,1.24-.79.68-.28,1.27-2.08-1.47-2.68-3.02-4-6.03-3.59l-.08,2.99c-2.17-1.35-5.11-3.58-7.27-5.12h0Z"/>
    <path class="st3" d="M1461.23,790.78c3.4-.28,3.82-.72,6.4-2.96,3.83.87,206.1,117.76,214.65,125.11.71,2.44.27,3.54-.97,5.72-3.63-.98-29.26-16.23-34.78-19.44-32.66-19.27-65.44-38.35-98.33-57.24-4.14-2.45-8.23-4.96-12.29-7.54-4.91-2.17-16.62-9.37-21.67-12.29l-40.9-23.58c1.24-.79.68-.28,1.27-2.08-1.47-2.68-3.02-4-6.03-3.59l-.08,2.99c-2.17-1.35-5.11-3.58-7.27-5.12v.02Z"/>
    <path class="st17" d="M1535.91,834.45l2.38-1.67c5.56,1.45,8.63,3.07,12.54,7.19l-2.63,2.02c-4.14-2.45-8.23-4.96-12.29-7.54h0Z"/>
    <path class="st15" d="M847.14,920.98c3.85.19,16.74,8.18,20.86,10.53-32.29,20.75-65.39,41.11-97.96,61.48l-20.65-11.31c4.69-2.68,16.73-8.82,18.92-12.72.06-2.94-.12-4.17,1.04-6.92,7.56-5.46,48.65-31.47,56.21-34.02,9.5,2.3,13.76-2.18,21.58-7.04h0Z"/>
    <path class="st13" d="M1854.48,844.99l2.12.34c1.16,3.13.59,13.81.58,17.66l.03,37.89.2,58.05c.03,6.88,1.54,31.07-2.28,35.35l-1.3-.25c-3.67-5.43-1.99-38.21-2-46.57l-.06-94.25-85.33,48.3c-12.16,6.9-25.33,14.14-37.25,21.5-2.6,1.6-2.03,1.96-2.42,4.72l-.02,100.85c-.01,8.1.85,31.24-.41,37.47-1.75,1.49-2.08,2.1-4.31,2.48-1.41-2.9-.9-132.59-.92-148.09,41.98-24.49,90.68-52.25,133.37-75.46h0Z"/>
    <path class="st15" d="M1453.01,794.46c2.58-1.61,5.38-3.95,8.22-3.68,2.16,1.53,5.1,3.77,7.27,5.12,2.23,4.53,1.29,122.18,1.29,136.98l-16.75,9.77-.03-148.18h0Z"/>
    <path class="st13" d="M835.87,763.05c.17.23.38.43.52.68.92,1.69,1.73,153.98.16,158.65-.81,2.4-1.54,3.13-3.79,4.13-1.63-2.49-1.36-137.62-1.41-152.77-19.24,11.06-44.92,27.07-63.91,39.64-1.95,1.29-1.45,5.51-1.52,8.37l-.04,102.54c-.06,10.76,1.66,37.82-1.52,46.26l-2.68.78,1.35.91.75-.62-2.11-.3c-2.71-5.68-1.54-46.64-1.54-55.45l-.07-105.61c25.18-15.88,50.45-31.61,75.81-47.2h0Z"/>
    <path class="st10" d="M1731.03,1062.95l-.91.31-1.22-.82c-.83-4.59-.84-12.55.35-17.08,1.91,7.27-.61,12.59,1.78,17.59h0Z"/>
    <path class="st13" d="M1490.7,757.08l.27.18.13,1.25c-2.06,3.29-10.42,16.58-13.17,18.35-11.58,7.49-26.13,15.28-38.2,22.01-34.45,19.21-69.04,38.17-103.76,56.89-1.39-2.85-.75-10.03-.66-13.6,51.94-28.1,103.74-56.46,155.39-85.08Z"/>
    <path class="st16" d="M888.76,667.21c-.13,1.94-.21,4.47-.55,6.33-26.89,16.39-53.99,34.13-80.74,50.93l-163.5,102.69c-12.68,7.99-99.86,64.46-105.91,65.01,2.76-8.31,40.1-29.27,49.33-35.11l99.74-62.76c66.54-41.77,134.76-86.3,201.63-127.1h0Z"/>
    <path class="st16" d="M1404.84,1023.17c3.37,1.65.35,24.7.02,29.04l-74.57,41.7c-1.72-12.33,5.17-8.3,11.91-15.12,4.16-4.21,2.03-6.25,3.33-11.02,3.02-3.62,8.52-5.91,12.88-8.19-.04-2.5-.3-5.38.26-7.82,1.23-5.36,38.72-24.43,46.17-28.59h0Z"/>
    <path class="st16" d="M1466.44,422.42c7.25,1.28,200.03,122.85,221.78,135.22,2.36,1.34,1.94,5.31,2.09,8-19.06-12.73-43.46-26.97-63.33-39.22l-120.25-74.19c-4.37-2.7-39.24-23.34-40.97-25.7l.68-4.11h0Z"/>
    <path class="st16" d="M1884.2,984.85l1.62.36c1.19,2.75.95,1.27.05,4.65-5.92,7-173.23,99.99-195.07,112.57l-1.2-.5-.75-2.04c2.04-7.38,13.52-11.52,20.34-15.37l40.39-22.88,134.62-76.79h0Z"/>
    <path class="st15" d="M870.27,944.13l11.63,6.52c-32.37,20.8-65.49,41.21-98.15,61.63l-12.61-6.73c10.59-5.89,24.13-14.91,34.61-21.46,21.43-13.44,42.93-26.76,64.51-39.96h.01Z"/>
    <path class="st15" d="M883.36,963.7c2.25.56,9.83,5.28,12.31,6.75l-96.95,60.42-12.75-6.59c31.51-19.56,66.65-40.32,97.39-60.58Z"/>
    <path class="st16" d="M1602.02,621.99c.12-.03.24-.06.35-.09,11.2,3.98,33.95,13.65,43.65,18.88,47.89,25.83,95.5,51.94,143.1,78.02,8.58,4.7,58.99,31.73,63.82,36.23-6.55-1.78-26.79-12.03-33.74-15.36-50.68-24.29-100.07-53.31-149.74-79.67-8.94-4.75-62.93-33.79-67.44-38.01Z"/>
    <path class="st13" d="M1373.32,837.73c.06.06.13.12.19.19,3.15,3.7,1.48,88.6,1.47,100.16-18.4,10.19-36.87,20.23-55.42,30.13l.2-109.27c2.67-1.75,5.06-3.78,8.17-3.94,2.42,1.79,1.77.66,2.52,3.11l-4.69,3.6c-1.35,2.78-.72,87.43-.72,98.37,12.79-6.83,33.3-17.33,45.01-24.91.01-24.37-.57-68.72.8-94.82.95-1.02,1.78-1.9,2.47-2.64v.02Z"/>
    <path class="st16" d="M1303.75,1021.21c1.65-.19.87-.38,2.3.69l-.04,3.62c-2.42,3.92-10.6,7.19-14.96,9.29l-.06,10.4-15.34,7.96-.15,10.24-31.56,17.78-1.15-.24c-1.33-3.08-.79-22.97-.77-27.74,20.4-10.04,41.49-21.44,61.73-32h0Z"/>
    <path class="st16" d="M903.85,886.18l1.82,1.46c.95,5.93.47,18.73.41,25.25-7.66,4.09-23.79,14.56-31.11,19.53-3.86-2.52-8.42-5.04-12.45-7.4-3.51-2.03-7.36-3.97-10.97-5.87,15.05-10.03,36.81-24.36,52.3-32.97h0Z"/>
    <path class="st16" d="M341.71,563.71c2.05,1.87,1.88,1.77,2.83,4.4-1.92,2.65-16.15,15.05-19.76,18.29l-45.04,40.66-72.78,66.09c-14.38,13.05-15.75,17.96-33.57,27.34l-1.26.34-.36-.85c54.01-51.94,114.36-105.86,169.95-156.27h0Z"/>
    <path class="st20" d="M747.27,983.47c4.24,1.73,16.25,8.55,20.96,11.09l-.02,12.07c4.02,2.05,9.38,4.33,12.45,7.4,2.69,24.88,17.48,7.58,16.08,27.12-14.09-7.67-37.61-20.06-50.32-27.89.83-10.15.8-19.62.85-29.8h0Z"/>
    <path class="st16" d="M1882.77,978.54c1.03.21,1.67.77,2.67,1.37l-.86,1.58c-19.14,10.1-44.47,25.35-63.72,36.34l-132.96,75.87-128.32-76.8c-1.14-.4-1.04-.62-2.01-1.67l.78-1.21c9.85,3.98,34.8,20.06,45.09,26.09,28.43,16.63,56.61,34.42,85.37,50.53l131.14-75.68c10.19-5.81,59.31-30.79,62.82-36.42h0Z"/>
    <path class="st15" d="M1443.15,1060.48c21.85-11.46,45.94-25.79,67.66-38.02,3.37,1.98,9.01,5.05,12.05,7.16l-67.67,38.54-12.04-7.68Z"/>
    <path class="st15" d="M1428.09,1041.48c22.58-11.7,48.49-26.55,70.65-39.22,3.89,2.08,8.27,4.01,11.26,7.12l-69.8,39.4-12.11-7.3Z"/>
    <path class="st13" d="M881.6,953.91l.7.62c1.04,2.67.86,2.69.46,5.42-2.34,3.85-85.2,54.35-96.19,61.24-1.66-1.85-1.21-4.46-.94-6.71,5.49-4.62,25.57-16.46,32.47-20.75l63.51-39.83h-.01Z"/>
    <path class="st13" d="M868.94,933.89c.35,1.67,1.11,6.8-.41,7.9-10.53,7.59-22.17,14.24-33.21,21.03l-64.28,40.08c-.29-2.05-.7-4.11-.17-6.14.82-3.14,88.22-56.61,98.08-62.86h-.01Z"/>
    <path class="st13" d="M895.88,973.11c.7,1.4.68,3.25.84,4.93-2.13,4.52-13.36,10.67-18.22,13.71-25.77,16.15-51.57,32.24-77.33,48.4-1.48-1.37-1.14-1.88-1.68-4.29,2.34-5.72,26.22-18.98,32.79-23.08l63.6-39.67Z"/>
    <path class="st18" d="M924.54,653.75c.2,5.77.28,10.87.18,16.64-15.84,10.27-31.79,20.38-47.83,30.32,2.12-5.19,6.68-16.28,7.24-21.39,12.79-8.76,27.28-17.05,40.42-25.57h0Z"/>
    <path class="st15" d="M1292.19,1047.11c15.99,9.13,33.51,20.4,49.34,30.13l-12.77,6.82c-14.37-7.72-35.25-21.36-49.62-30.13l13.05-6.82Z"/>
    <path class="st16" d="M1051.62,506.7l2.42,2.25-.12,2.03c-17.91,17.55-43.56,38.58-62.59,55.59-15.1,13.51-45.15,41.05-60.78,50.52l-1.08-.25c.57-2.16,111.92-101.23,122.15-110.15h0Z"/>
    <path class="st15" d="M1307.69,1029.09c14.49,8.19,32.92,20.47,47.37,29.5l-11.95,6.43-48.5-29.72,13.08-6.21h0Z"/>
    <path class="st13" d="M1520.08,1043.5c-15.29,8.82-44.27,25.72-60.8,34.76-.86-.07-1.72-.15-2.57-.23-1.13-1.91-1.56-3.02-.93-5.26,1.71-6.03,56.49-34.35,66.01-39.57-.51,3.28-1,7.12-1.71,10.3h0Z"/>
    <path class="st16" d="M1800.34,733.53c31.07,13.49,85.62,41.4,117.86,57.21.93.46.51,3.48.48,5.02-10.86-5.31-119.23-56.88-119.86-58.23l1.52-4h0Z"/>
    <path class="st16" d="M1294.21,784.73c4.24,3.37,34.24,50.51,38.69,57.41l-.08,13.13c-5.71-4.8-32.31-47.51-38.73-57.24l.12-13.3Z"/>
    <path class="st13" d="M1506.56,1022.06c-6.88,3.89-59.59,34.73-63.78,35.46-.91-3.22-.85-3.05-.11-6.36,2.45-3.48,55.66-32.42,64.05-36.96,1.33,3.19.68,4.27-.16,7.86Z"/>
    <path class="st13" d="M1496.81,1000.56c-8.3,4.67-64.46,37-68.12,36.77-4.01-7.77,15.48-15.25,21.22-18.41l40.5-22.72,6.4,4.36Z"/>
    <path class="st18" d="M1543.12,1004.44l11.77,7.05c-10.63,6.13-21.3,12.17-32.03,18.13-3.04-2.11-8.68-5.18-12.05-7.16,10.65-5.95,21.59-12.27,32.31-18.02Z"/>
    <path class="st15" d="M1378.84,834.6l1.17,1.01c2.14,9.88.97,140.56-1.07,145.73l-1.46-1.88c-.88-11.69-.28-140.31,1.36-144.85h0Z"/>
    <path class="st18" d="M1530.45,984.47l11.59,6.9c-10.75,5.88-21.43,11.88-32.04,18.01-2.99-3.11-7.37-5.04-11.26-7.12,10.7-5.71,21.27-11.64,31.71-17.79h0Z"/>
    <path class="st18" d="M1449.13,795.7l1.26,1.53c1.11,13.03,1.36,141.52-.52,148.07l-1.44-1.84c-1.02-13.61-1.12-142.33.7-147.76Z"/>
    <path class="st18" d="M1277.84,1056.37c6.18,2.07,39.99,23.74,47.85,28.95,2.11,1.41,1.8,5.35,2.03,8.3-5.87-1.93-39.43-24.63-47.56-29.02-2.38-1.29-2.04-5.12-2.32-8.23Z"/>
    <path class="st18" d="M1293.33,1037.49c15.12,9.08,32.95,19.21,47.43,29.45,1.6,1.12,1.35,6.09,1.41,8.39-15.07-9.87-32.32-18.99-47.01-29.54-2.39-1.71-1.75-5-1.83-8.3h0Z"/>
    <path class="st18" d="M1308.43,1019.42c13.68,7.18,32.46,20.05,45.78,28.77,2.12,1.39,1.94,4.91,2.24,7.55-8.31-2.9-36.93-22.33-46-28.17-2.07-1.33-1.78-5.27-2.02-8.15h0Z"/>
    <path class="st18" d="M1521.79,1033.2c5.85-3.37,24.82-15.26,29.66-15.71,2.73,1.48,1.88.39,2.73,3.26-3.12,7.27-26.17,18.38-34.1,22.75.71-3.18,1.2-7.02,1.71-10.3Z"/>
    <path class="st18" d="M827.23,778.61c.24.2.52.36.74.59,2.17,2.31,1.49,132.08,1.14,146.24l-1.04-.93c-2.02-4.32-.93-129.96-.83-145.9h-.01Z"/>
    <path class="st15" d="M1490.41,996.2c5.81-3.27,34.31-20.82,39.16-19.84-.34,9.22-24.54,20.12-32.76,24.19l-6.4-4.36h0Z"/>
    <path class="st15" d="M1506.72,1014.2c6.68-4.25,28.41-17.58,35.22-18.14l2.08,2.29c-3.22,6-30.15,19.65-37.46,23.71.84-3.59,1.49-4.67.16-7.86Z"/>
    <path class="st18" d="M1847.73,857.46c.16.22.35.41.47.65,1.69,3.08,2.44,125.87.32,138.68-3.07-4.79-.21-80.21-1.14-92.92-.57-7.81-.35-37.49.35-46.41h0Z"/>
    <path class="st20" d="M888.76,667.21c4.55-3.07,35.64-23.34,38.6-22.81l-.72-.74h.04l.59,1.13c-5.58,9.92-28.11,21.58-39.06,28.76.34-1.86.42-4.39.55-6.33h0Z"/>
    <path class="st18" d="M1364.96,870.1c-1.61,4.27-30.82,18.4-37.11,21.71l.18-1.7c8.85-5.91,26.89-14.93,36.93-20.01h0Z"/>
    <path class="st16" d="M1365.46,873.41l1.28.45c2.31,3.86,1.01,23.92.85,29.46-3.89-3.07-2.22-24.27-2.13-29.9h0Z"/>
    <path class="st16" d="M1366.2,841.7c3.16,2.59,1.56,23.96,1.38,29.27-3.62-4.75-2.51-23.19-1.38-29.27Z"/>
    <path class="st20" d="M1365.8,906.54c.54.42,1.31,1.43,1.8,2.01.77,7.62.28,17.24-.5,24.88l-1.44-1.83c-.68-6.21-.88-18.93.14-25.05h0Z"/>
    <path class="st17" d="M838,857.5c1.45,1.9.99,4.51.97,7.1-1.53-1.74-.96-4.22-.97-7.1Z"/>
    <path class="st20" d="M320.2,548.61l2.7-.96-2.13,1.07c-.87,1.34-.28.84-1.77,1.49l1.2-1.6h0Z"/>
    <path class="st20" d="M1407.71,517.93c.17-.73.75-1.24,1.29-1.93-.16.71-.76,1.26-1.29,1.93Z"/>
    <path class="st20" d="M346.04,533.45l1.55-.22,1.1,3.2-2.92-1.35.28-1.63h0Z"/>
    <path class="st20" d="M1409,516c.63-1.26.41-1.41,1.31-1.97l-1.31,1.97Z"/>
    <path class="st18" d="M1055.6,647.68c4.78,3,2.68,25.32,1.97,31.31l-1.52-.72c-2.33-3.82-.69-25.05-.45-30.59Z"/>
    <polygon class="st19" points="767.7 814.82 826.08 778.7 825.14 924.66 768.07 959.65 767.7 814.82"/>
    <polygon class="st19" points="1381.77 832.34 1446.74 796.99 1444.81 942.41 1383.09 974.7 1381.77 832.34"/>
    <g>
      <polygon class="st24" points="1392.78 892.29 1394.93 893.14 1394.71 914.25 1388.25 917.25 1386.26 915.54 1385.91 895.15 1392.78 892.29"/>
      <polygon class="st8" points="1394.93 893.14 1394.71 914.31 1388.46 917.11 1388.19 895.98 1394.93 893.14"/>
      <polygon class="st24" points="1402.48 896.21 1403.66 896.82 1402.79 900.31 1390.84 907.01 1390.04 906.17 1390.01 901.88 1402.48 896.21"/>
      <polygon class="st8" points="1403.66 896.88 1403.66 901.1 1391.08 906.99 1391.03 902.55 1403.66 896.88"/>
    </g>
    <g>
      <path class="st8" d="M1392.78,871.41c.59.44,1.28.88,1.84,1.33.14.09.43.3.44.44.03.36.02.83.02,1.19l.02,3.31.05,8.03c0,.98.01,1.96.01,2.94,0,.14,0,.24-.08.35-.05.08-.11.14-.18.19-.09.06-.49.21-.6.25l-1.45.58-3.16,1.27c-.52.21-1.03.42-1.56.63-.24.1-.77.34-1.01.36-.01,0-.03,0-.04,0-.28,0-.39-.1-.62-.26-.15-.11-.31-.22-.46-.33l-.83-.6c-.14-.1-.35-.24-.47-.35-.05-.13-.03-1.37-.03-1.59l-.02-3.21-.04-7.05-.02-2.57c0-.44-.02-.92,0-1.35.03-.07.23-.32.29-.38.07-.05.49-.21.6-.25l1.39-.56,3.7-1.5c.73-.3,1.47-.6,2.21-.89Z"/>
      <path class="st24" d="M1384.6,874.98c.59.45,1.22.87,1.82,1.31.15.11.33.18.51.17.03,0,.05,0,.07,0l.09,10.78.02,3.12c0,.62,0,1.32.01,1.94-.01,0-.03,0-.04,0-.28,0-.39-.1-.62-.26-.15-.11-.31-.22-.46-.33l-.83-.6c-.14-.1-.35-.24-.47-.35-.05-.13-.03-1.37-.03-1.59l-.02-3.21-.04-7.05-.02-2.57c0-.44-.02-.92,0-1.35Z"/>
      <path class="st8" d="M1392.78,871.41c.59.44,1.28.88,1.84,1.33-.03.11-.04.14-.15.19-.42.17-.84.34-1.26.51l-2.57,1.03-2.46.99c-.38.15-.76.31-1.14.46-.06.02-.22.06-.27.03-.34-.19-.68-.45-1-.68-.3-.22-.61-.42-.9-.65.07-.05.49-.21.6-.25l1.39-.56,3.7-1.5c.73-.3,1.47-.6,2.21-.89Z"/>
      <path class="st9" d="M1394.62,872.73c.14.09.43.3.44.44.03.36.02.83.02,1.19l.02,3.31.05,8.03c0,.98.01,1.96.01,2.94,0,.14,0,.24-.08.35-.05.08-.11.14-.18.19-.02-.19-.02-.5-.02-.69v-1.06s-.02-3.4-.02-3.4l-.06-10.71c-.71.27-1.42.57-2.12.85l-3.31,1.32-1.46.59c-.3.12-.6.25-.91.36-.02,0-.05,0-.07,0-.18.01-.36-.06-.51-.17-.6-.44-1.23-.86-1.82-1.31.03-.07.23-.32.29-.38.28.23.6.44.9.65.32.23.65.49,1,.68.06.03.22,0,.27-.03.38-.15.76-.31,1.14-.46l2.46-.99,2.57-1.03c.42-.17.84-.33,1.26-.51.11-.05.12-.08.15-.19Z"/>
      <path class="st24" d="M1392.23,882.03c.49.02,1.04.27,1.42.63.55.5.8,1.21.87,1.87.31,2.56-1.87,5.87-4.64,5.74-.59-.08-.99-.22-1.46-.66-.57-.54-.8-1.29-.87-1.98-.25-2.46,1.99-5.78,4.67-5.6Z"/>
      <path class="st9" d="M1392.67,883.74c.31-.01.73.16.98.38.39.34.54.78.6,1.24.25,1.79-1.35,4.18-3.22,4.13-1.44-.09-1.8-1.52-1.59-2.6.16-.83.56-1.56,1.12-2.15.51-.53,1.28-1.04,2.11-1Z"/>
      <path class="st21" d="M1391.46,886.81v-.02c.03-.12.39-.29.52-.33.28-.09.65,0,.79.34.15.36.02.74-.1,1.04-.06.14-.26.38-.38.48-.38.43-1.29.49-1.34-.35,0-.04-.01-.15.01-.18l.02.02s0,.05.01.09c0-.11,0-.2.02-.3l-.02-.03c0-.13.12-.38.19-.48.04-.05.03-.06.08-.07.06-.07.11-.14.18-.2Z"/>
      <path class="st12" d="M1391.46,886.81s.07-.06.1-.09c.22-.18.65-.38.93-.05-.1-.03-.15-.05-.25-.05-.69-.03-1.39,1.06-.99,1.7.02.03.04.06.07.09-.23-.11-.29-.29-.31-.51,0-.11,0-.2.02-.3l-.02-.03c0-.13.12-.38.19-.48.04-.05.03-.06.08-.07.06-.07.11-.14.18-.2Z"/>
      <path class="st24" d="M1391.03,887.6l-.02-.03c0-.13.12-.38.19-.48.04-.05.03-.06.08-.07-.14.21-.2.32-.26.58Z"/>
      <path class="st12" d="M1392.05,887.42c.51.08.27.77.03.9-.08-.07-.02.01-.11-.06-.05-.11.2-.11-.03-.32-.11-.1.03-.2.1-.25.01-.03,0-.22,0-.27Z"/>
      <path class="st24" d="M1391.46,886.81v-.02c.03-.12.39-.29.52-.33.28-.09.65,0,.79.34.15.36.02.74-.1,1.04-.06.14-.26.38-.38.48-.08,0-.06.03-.12.03.1-.08.19-.16.27-.27.25-.34.55-1.02.04-1.4-.27-.33-.7-.13-.93.05-.04.03-.07.06-.1.09Z"/>
      <path class="st24" d="M1391.88,887.33l.15-.05c0,.08,0,.34,0,.4-.07.05-.21.15-.1.25.23.2-.02.2.03.32.09.08.03,0,.11.06v.02c-.08.06-.14.06-.24.08v-.3c-.22-.15-.08-.35.04-.47,0-.05,0-.11,0-.17,0-.05,0-.1,0-.15Z"/>
      <path class="st12" d="M1391.88,887.48c0,.05,0,.11,0,.17-.12.12-.26.31-.04.47v.3s0,.05,0,.05c-.06-.04-.16-.02-.22-.1-.26-.35.04-.7.27-.88Z"/>
      <path class="st24" d="M1392.3,888.32c-.38.43-1.29.49-1.34-.35,0-.04-.01-.15.01-.18l.02.02s0,.05.01.09c.02.22.09.4.31.51.16.11.27.14.44.12.03,0,.05,0,.08-.01v-.06s0-.05,0-.05c.1-.02.16-.02.24-.08l.02.08s.06-.05.1-.07c.06,0,.03-.03.12-.03Z"/>
      <path class="st14" d="M1392.07,888.34l.02.08c-.08.05-.16.08-.25.1v-.06s0-.05,0-.05c.1-.02.16-.02.24-.08Z"/>
      <path class="st12" d="M1391.88,887.18c.06-.02.12-.04.17-.06,0,.1,0,.2,0,.3,0,.05,0,.23,0,.27-.01-.06,0-.33,0-.4l-.15.05v-.15Z"/>
      <path class="st0" d="M1392.07,875.57c.2.04.32.16.36.36.08.41-.17.88-.52,1.05-.31.12-.64.28-.95.39-.29.1-.82.38-1.11.38-.22-.05-.35-.19-.38-.41-.05-.39.2-.83.53-.99.31-.13.64-.29.96-.4.29-.1.82-.39,1.11-.38Z"/>
      <path class="st9" d="M1390.5,876.5c.07-.18.4.05.34.23h0c0,.1-.03.16-.06.24.02.05.05.1.08.15-.16.06-.36.18-.55.14-.18-.04-.18-.25-.15-.37.04-.18.15-.33.31-.41h.02s.01.02.01.02Z"/>
      <path class="st0" d="M1390.5,876.5c.07-.18.4.05.34.23h0s-.1.04-.14.05c-.02.1-.04.18-.12.25-.11.12-.3.05-.29-.14,0-.13.09-.21.19-.27l-.02-.15h.02s.01.02.01.02Z"/>
      <path class="st8" d="M1390.5,876.5c.07-.18.4.05.34.23-.08-.05-.04-.14-.12-.2-.07-.06-.14-.02-.21-.04Z"/>
      <path class="st8" d="M1390.54,876.53c.1,0,.21.05.22.17-.02.04,0,.03-.05.05-.04-.14-.07-.13-.2-.17v-.02s.03-.03.03-.03Z"/>
      <path class="st8" d="M1390.49,876.78s.05.03.06.08c-.01.04-.03.05-.06.08-.04-.02-.04-.03-.05-.06.01-.05.02-.06.05-.09Z"/>
      <path class="st8" d="M1390.52,876.62c.08.01.13.03.16.12-.01.03,0,.02-.03.03-.05-.11-.05-.06-.14-.12l.02-.03Z"/>
      <path class="st9" d="M1390.06,876.61s.03.71.03.8c-.04.02-.09.03-.13.05-.01,0,0,0-.02-.01,0-.26,0-.53,0-.79.04-.01.09-.03.13-.04Z"/>
      <path class="st9" d="M1391.35,876.54c.13.01.15.11.12.2-.04.12-.07.16-.18.21-.13,0-.17-.11-.13-.21.04-.12.08-.16.2-.2Z"/>
      <path class="st0" d="M1391.31,876.61c.06,0,.05,0,.08.04.05.1-.01.19-.08.24-.04,0-.04,0-.07-.03-.07-.1,0-.19.07-.25Z"/>
      <path class="st8" d="M1392.05,876.27h0s-.08.18-.1.22c.05.05.11.1.1.17-.06,0-.12-.08-.17-.13,0,.06,0,.13,0,.2l-.04.02h-.02c-.04-.1-.02-.32.02-.39h.02c.02.06.01.11.01.17.04-.09.08-.19.17-.24Z"/>
      <path class="st7" d="M1391.75,876.39l.02.02c-.02.1-.22.04-.19.28.05.08.13.03.2.01h.01s0,.05,0,.05c-.18.1-.31.06-.25-.18.03-.1.12-.15.22-.18Z"/>
      <path class="st6" d="M1390.96,876.68l.02.02s0,.24,0,.29c.06-.02.11-.05.17-.01-.02.02-.03.03-.06.04-.05.02-.12.05-.18.07,0-.13,0-.25,0-.38,0,0,.02-.02.03-.03Z"/>
      <path class="st0" d="M1388.43,880.73c.07.04.1.06.16.11.19.13.12.26.13.44,0,.3.03.51-.14.76-.14.2-.61.51-.85.22-.07-.05-.17-.13-.19-.22-.05-.24-.02-.51-.02-.75.01-.15.09-.26.22-.31.22-.08.46-.21.69-.25Z"/>
      <path class="st21" d="M1388.43,880.73c.07.04.1.06.16.11-.17.02-.82.27-.89.41-.08.15-.06.79,0,.97l.02.04c-.07-.05-.17-.13-.19-.22-.05-.24-.02-.51-.02-.75.01-.15.09-.26.22-.31.22-.08.46-.21.69-.25Z"/>
      <path class="st9" d="M1388.36,881.22s.04,0,.07.01c.04.03.04.03.07.08,0,.05-.02.09-.08.08l-.02-.05c-.08-.07-.36.09-.42.15-.01.08-.02.12-.02.19.07-.05.14-.09.23-.12.26-.1.35-.04.3.23-.04.14-.41.31-.55.27-.09-.06-.07-.15-.08-.23-.03-.44.12-.49.49-.61Z"/>
      <path class="st0" d="M1388.36,881.61h.03s.03.12.02.16c-.06.12-.27.16-.39.2-.02-.01-.03-.02-.04-.04-.06-.23.21-.27.38-.32Z"/>
      <path class="st0" d="M1389.18,881.74c-.07-.04-.17-.12-.2-.2-.06-.21-.06-.79,0-.95.07-.16.7-.37.86-.4.07.04.1.05.16.1.19.15.13.26.13.46.01.29.01.57-.18.78-.16.18-.53.43-.8.2Z"/>
      <path class="st21" d="M1389.18,881.74c-.07-.04-.17-.12-.2-.2-.06-.21-.06-.79,0-.95.07-.16.7-.37.86-.4.07.04.1.05.16.1-.16.04-.62.22-.76.3-.05.03-.1.07-.13.12-.05.11-.05.81,0,.94,0,.02.02.03.02.05v.02s.02.01.02.01Z"/>
      <path class="st9" d="M1389.92,880.62s0,0,.03.02c.01.1-.38.75-.44.88l-.11.03c.07-.14.16-.3.24-.44.07-.11.14-.23.19-.36-.11.04-.43.18-.52.17l-.02-.04c.09-.07.5-.21.64-.26Z"/>
      <path class="st0" d="M1391.34,879.68c.08-.02.21.04.17.12.11.13.08.57.07.74-.01.25-.13.46-.32.6-.18.13-.44.24-.67.04-.36-.21-.18-.67-.21-.98,0-.1.09-.24.18-.27.15-.06.62-.29.78-.25Z"/>
      <path class="st21" d="M1391.34,879.68c.08-.02.21.04.17.12l-.06-.04c-.21.02-.55.2-.75.28-.25.1-.16.48-.18.7-.01.16,0,.28.07.44-.36-.21-.18-.67-.21-.98,0-.1.09-.24.18-.27.15-.06.62-.29.78-.25Z"/>
      <path class="st24" d="M1391.34,879.68c.08-.02.21.04.17.12l-.06-.04s-.08-.06-.12-.09Z"/>
      <path class="st9" d="M1391.24,880.13c.05,0,.07.01.11.06.04.11-.03.14-.04.26,0,0,.05.05.05.06.09.33-.27.41-.5.48-.24-.01-.07-.31-.08-.34-.17-.36.19-.45.45-.52Z"/>
      <path class="st0" d="M1391.23,880.53s.02,0,.04.04c.04.24-.22.26-.4.32,0-.01-.01-.01-.02-.03-.02-.04-.03-.08-.02-.11.04-.12.28-.18.4-.21Z"/>
      <path class="st0" d="M1391.21,880.23s.02,0,.05.04c.05.19-.22.24-.36.28-.04,0-.02,0-.05-.03-.07-.19.23-.24.37-.29Z"/>
      <path class="st0" d="M1393.29,878.33c-.1-.15-.05-.23-.06-.37-.04-.48.05-.84.5-1.03.17-.07.29-.14.49.01.09.06.18.12.2.23.03.19.06.82-.05.94-.13.14-.71.37-.9.36-.11.02-.16-.03-.18-.14Z"/>
      <path class="st21" d="M1393.29,878.33c-.1-.15-.05-.23-.06-.37-.04-.48.05-.84.5-1.03.17-.07.29-.14.49.01-.3.04-.57.15-.72.4-.05.07-.08.15-.09.24-.03.14-.02.7.02.84l.06.05c-.11.02-.16-.03-.18-.14Z"/>
      <path class="st24" d="M1393.29,878.33s.08.07.12.09l.06.05c-.11.02-.16-.03-.18-.14Z"/>
      <path class="st9" d="M1394.18,877.28h.02s.01.03,0,.07c-.04.05-.43.18-.53.22v.14c.08-.04.36-.17.43-.16.23.04.14.4,0,.47-.05.03-.12.07-.18.09-.13.03-.24.13-.35-.02,0-.04,0-.06.03-.09.04-.01.02-.01.05,0,.01.03.01.05.04.07.12,0,.29-.08.38-.14.06-.05.08-.17.04-.24-.15-.11-.44.19-.52.18-.01-.04,0-.31,0-.36.19-.08.39-.14.59-.22Z"/>
      <path class="st0" d="M1392.03,880.65c-.07-.04-.2-.14-.21-.22-.02-.18-.05-.8.03-.93.08-.14.67-.34.86-.38.05,0,.13.06.18.1.19.12.11.28.12.44.06.55-.13.98-.69,1.09-.1.02-.21-.02-.29-.11Z"/>
      <path class="st21" d="M1392.03,880.65c-.07-.04-.2-.14-.21-.22-.02-.18-.05-.8.03-.93.08-.14.67-.34.86-.38.05,0,.13.06.18.1-.15.02-.82.27-.88.39-.08.18-.07.82.02,1.03Z"/>
      <path class="st9" d="M1392.66,879.59s.1.01.11.06c.05.19.05.35,0,.52-.04.13-.53.4-.6.15,0-.02.02-.05.04-.07h.03s.05.04.08.08c.07,0,.16-.04.23-.07.18-.07.17-.11.19-.3-.05.04-.09.06-.15.09-.18.1-.5.16-.39-.19.05-.16.32-.24.49-.28Z"/>
      <path class="st0" d="M1392.64,879.69s.03,0,.06.04c.05.21-.22.27-.38.31-.04-.01-.02,0-.05-.03-.06-.22.21-.27.37-.32Z"/>
      <path class="st0" d="M1387.68,880.58c-.23-.14-.17-.25-.17-.46,0-.09,0-.19,0-.29-.02-.44.32-.78.75-.83.11-.01.18.04.27.11.08.05.15.11.17.2.05.25.03.52.02.77,0,.29-.38.35-.6.45-.11.05-.31.15-.43.05Z"/>
      <path class="st21" d="M1387.68,880.58c-.23-.14-.17-.25-.17-.46,0-.09,0-.19,0-.29-.02-.44.32-.78.75-.83.11-.01.18.04.27.11-.2-.03-.45.07-.59.19-.34.29-.27.64-.28,1.08,0,.07,0,.12.03.2Z"/>
      <path class="st9" d="M1388.26,879.5h0c.02.06.01.61,0,.71,0,.03-.03.03-.05.04h-.03c-.02-.06-.01-.35-.01-.42v-.19s-.06.08-.09.13c-.02.03-.06.09-.1.09-.02-.11.16-.31.27-.35Z"/>
      <path class="st0" d="M1393.46,880.12s-.02-.01-.03-.02c-.07-.04-.16-.12-.18-.2-.04-.2-.06-.82.04-.95.08-.11.67-.33.83-.36.06-.01.14.06.2.1.18.13.1.26.11.42.04.46-.04.84-.47,1.03-.16.07-.32.12-.5-.03Z"/>
      <path class="st21" d="M1393.46,880.12s-.02-.01-.03-.02c-.07-.04-.16-.12-.18-.2-.04-.2-.06-.82.04-.95.08-.11.67-.33.83-.36.06-.01.14.06.2.1-.13,0-.81.27-.87.37-.1.15-.08.86,0,1.06Z"/>
      <path class="st9" d="M1394.1,879.07s.04,0,.07.02c.12.1.08.44.04.56-.05.14-.33.21-.47.25-.06,0-.11-.01-.13-.09-.04-.14-.03-.4.03-.51.06-.12.34-.2.47-.23Z"/>
      <path class="st0" d="M1394.06,879.17s.05.01.06.03c.04.1.03.33,0,.41-.03.09-.28.15-.38.18-.02,0-.05-.03-.06-.05-.08-.45.05-.47.38-.57Z"/>
      <path class="st0" d="M1391.86,878.87c-.1-.14-.05-.24-.06-.38-.06-.56.14-1.01.73-1.1.1-.02.17.02.27.09.08.06.17.12.19.22.04.19.06.8-.03.93-.1.13-.65.33-.84.37-.04,0-.09-.02-.12-.04v.02s-.05,0-.05,0c-.05-.02-.05-.01-.08-.05-.02-.05-.02-.02,0-.07Z"/>
      <path class="st21" d="M1391.86,878.87c-.1-.14-.05-.24-.06-.38-.06-.56.14-1.01.73-1.1.1-.02.17.02.27.09-.27.02-.54.12-.68.33-.17.25-.15.44-.15.75,0,.13,0,.26.02.39h.01s-.01.04-.01.04h-.03s-.05,0-.08-.05c-.02-.05-.02-.02,0-.07Z"/>
      <path class="st24" d="M1391.99,878.97v.02s-.05,0-.05,0c-.05-.02-.05-.01-.08-.05-.02-.05-.02-.02,0-.07.03.02.08.06.12.08h.01Z"/>
      <path class="st9" d="M1392.68,877.86h.02c.03.06.01.35.02.44h.02s.07-.01.07-.01c.02.03.02.03.02.07-.02.03-.07.04-.11.05v.02c0,.07.01.11-.05.15h-.03c-.03-.05-.02-.08-.02-.13l-.25.09c-.06.02-.16.07-.22.07h0c0-.11.06-.2.12-.27.12-.13.26-.43.42-.49Z"/>
      <path class="st0" d="M1392.61,877.99c.02.08.01.28.01.36l-.33.12h0s.28-.42.32-.48Z"/>
      <path class="st0" d="M1389.74,878.46c.09.03.13.06.21.11.08.06.15.11.17.21.04.19.06.78-.03.92-.1.15-.65.33-.84.38-.02,0-.08-.01-.1-.02-.04.02-.06.01-.1-.01-.04-.05-.03-.02-.03-.08-.13-.15-.07-.24-.08-.39-.06-.59.16-1.04.8-1.11Z"/>
      <path class="st21" d="M1389.74,878.46c.09.03.13.06.21.11-.2-.02-.47.08-.61.2-.31.27-.26.69-.25,1.09,0,.05.02.12.03.17l.02.02s-.06.01-.1-.01c-.04-.05-.03-.02-.03-.08-.13-.15-.07-.24-.08-.39-.06-.59.16-1.04.8-1.11Z"/>
      <path class="st24" d="M1389.02,879.97s.07.05.1.07l.02.02s-.06.01-.1-.01c-.04-.05-.03-.02-.03-.08Z"/>
      <path class="st9" d="M1389.79,878.94c.13.02.12.06.14.16.09.33-.59.35-.55.58.1.06.48-.23.57-.13v.03c-.06.06-.51.21-.61.25,0,0-.03,0-.03,0-.01-.02-.01-.02-.01-.04-.03-.39.26-.34.5-.51.05-.03.09-.17,0-.22-.12-.02-.23.05-.33.1-.09.05-.05.15-.14.2h-.02c-.07-.27.31-.36.49-.41Z"/>
      <path class="st0" d="M1390.38,879.33c-.04-.63-.06-1.17.61-1.37.08-.02.12-.04.21-.04.08.04.1.06.17.11.07.05.16.11.18.2.04.19.06.81-.03.94-.1.14-.65.33-.85.38-.03,0-.09-.03-.12-.05-.08-.05-.11-.09-.17-.17Z"/>
      <path class="st21" d="M1390.38,879.33c-.04-.63-.06-1.17.61-1.37.08-.02.12-.04.21-.04.08.04.1.06.17.11-.27.01-.53.13-.69.33-.18.23-.16.47-.16.77,0,.13-.01.24.03.37-.08-.05-.11-.09-.17-.17Z"/>
      <path class="st9" d="M1391.24,878.39c.21.03.11.21.08.32.11.25.03.36-.18.44-.09.04-.29.14-.39.06-.02-.04-.04-.13,0-.15.04.01.05.03.08.06h.01c.11.01.33-.07.39-.15.04-.05.04-.09.03-.16h0c-.1-.04-.17.04-.29.04-.02-.03-.01-.02,0-.06.03-.04.43-.13.27-.29-.11-.04-.45.1-.43.24,0,.02-.06.05-.09.04-.03-.27.31-.34.51-.4Z"/>
    </g>
    <g>
      <polygon class="st24" points="779.84 883.13 781.99 883.97 781.77 905.08 775.32 908.09 773.33 906.37 772.98 885.99 779.84 883.13"/>
      <polygon class="st8" points="781.99 883.97 781.77 905.15 775.53 907.95 775.25 886.81 781.99 883.97"/>
      <polygon class="st24" points="789.55 887.05 790.73 887.66 789.86 891.15 777.91 897.85 777.11 897.01 777.07 892.72 789.55 887.05"/>
      <polygon class="st8" points="790.73 887.72 790.73 891.94 778.14 897.83 778.1 893.39 790.73 887.72"/>
    </g>
    <g>
      <path class="st8" d="M779.85,862.24c.59.44,1.28.88,1.84,1.33.14.09.43.3.44.44.03.36.02.83.02,1.19l.02,3.31.05,8.03c0,.98.01,1.96.01,2.94,0,.14,0,.24-.08.35-.05.08-.11.14-.18.19-.09.06-.49.21-.6.25l-1.45.58-3.16,1.27c-.52.21-1.03.42-1.56.63-.24.1-.77.34-1.01.36-.01,0-.03,0-.04,0-.28,0-.39-.1-.62-.26-.15-.11-.31-.22-.46-.33l-.83-.6c-.14-.1-.35-.24-.47-.35-.05-.13-.03-1.37-.03-1.59l-.02-3.21-.04-7.05-.02-2.57c0-.44-.02-.92,0-1.35.03-.07.23-.32.29-.38.07-.05.49-.21.6-.25l1.39-.56,3.7-1.5c.73-.3,1.47-.6,2.21-.89Z"/>
      <path class="st24" d="M771.66,865.81c.59.45,1.22.87,1.82,1.31.15.11.33.18.51.17.03,0,.05,0,.07,0l.09,10.78.02,3.12c0,.62,0,1.32.01,1.94-.01,0-.03,0-.04,0-.28,0-.39-.1-.62-.26-.15-.11-.31-.22-.46-.33l-.83-.6c-.14-.1-.35-.24-.47-.35-.05-.13-.03-1.37-.03-1.59l-.02-3.21-.04-7.05-.02-2.57c0-.44-.02-.92,0-1.35Z"/>
      <path class="st8" d="M779.85,862.24c.59.44,1.28.88,1.84,1.33-.03.11-.04.14-.15.19-.42.17-.84.34-1.26.51l-2.57,1.03-2.46.99c-.38.15-.76.31-1.14.46-.06.02-.22.06-.27.03-.34-.19-.68-.45-1-.68-.3-.22-.61-.42-.9-.65.07-.05.49-.21.6-.25l1.39-.56,3.7-1.5c.73-.3,1.47-.6,2.21-.89Z"/>
      <path class="st9" d="M781.69,863.57c.14.09.43.3.44.44.03.36.02.83.02,1.19l.02,3.31.05,8.03c0,.98.01,1.96.01,2.94,0,.14,0,.24-.08.35-.05.08-.11.14-.18.19-.02-.19-.02-.5-.02-.69v-1.06s-.02-3.4-.02-3.4l-.06-10.71c-.71.27-1.42.57-2.12.85l-3.31,1.32-1.46.59c-.3.12-.6.25-.91.36-.02,0-.05,0-.07,0-.18.01-.36-.06-.51-.17-.6-.44-1.23-.86-1.82-1.31.03-.07.23-.32.29-.38.28.23.6.44.9.65.32.23.65.49,1,.68.06.03.22,0,.27-.03.38-.15.76-.31,1.14-.46l2.46-.99,2.57-1.03c.42-.17.84-.33,1.26-.51.11-.05.12-.08.15-.19Z"/>
      <path class="st24" d="M779.3,872.86c.49.02,1.04.27,1.42.63.55.5.8,1.21.87,1.87.31,2.56-1.87,5.87-4.64,5.74-.59-.08-.99-.22-1.46-.66-.57-.54-.8-1.29-.87-1.98-.25-2.46,1.99-5.78,4.67-5.6Z"/>
      <path class="st9" d="M779.74,874.58c.31-.01.73.16.98.38.39.34.54.78.6,1.24.25,1.79-1.35,4.18-3.22,4.13-1.44-.09-1.8-1.52-1.59-2.6.16-.83.56-1.56,1.12-2.15.51-.53,1.28-1.04,2.11-1Z"/>
      <path class="st21" d="M778.53,877.65v-.02c.03-.12.39-.29.52-.33.28-.09.65,0,.79.34.15.36.02.74-.1,1.04-.06.14-.26.38-.38.48-.38.43-1.29.49-1.34-.35,0-.04-.01-.15.01-.18l.02.02s0,.05.01.09c0-.11,0-.2.02-.3l-.02-.03c0-.13.12-.38.19-.48.04-.05.03-.06.08-.07.06-.07.11-.14.18-.2Z"/>
      <path class="st12" d="M778.53,877.65s.07-.06.1-.09c.22-.18.65-.38.93-.05-.1-.03-.15-.05-.25-.05-.69-.03-1.39,1.06-.99,1.7.02.03.04.06.07.09-.23-.11-.29-.29-.31-.51,0-.11,0-.2.02-.3l-.02-.03c0-.13.12-.38.19-.48.04-.05.03-.06.08-.07.06-.07.11-.14.18-.2Z"/>
      <path class="st24" d="M778.09,878.43l-.02-.03c0-.13.12-.38.19-.48.04-.05.03-.06.08-.07-.14.21-.2.32-.26.58Z"/>
      <path class="st12" d="M779.12,878.25c.51.08.27.77.03.9-.08-.07-.02.01-.11-.06-.05-.11.2-.11-.03-.32-.11-.1.03-.2.1-.25.01-.03,0-.22,0-.27Z"/>
      <path class="st24" d="M778.53,877.65v-.02c.03-.12.39-.29.52-.33.28-.09.65,0,.79.34.15.36.02.74-.1,1.04-.06.14-.26.38-.38.48-.08,0-.06.03-.12.03.1-.08.19-.16.27-.27.25-.34.55-1.02.04-1.4-.27-.33-.7-.13-.93.05-.04.03-.07.06-.1.09Z"/>
      <path class="st24" d="M778.95,878.16l.15-.05c0,.08,0,.34,0,.4-.07.05-.21.15-.1.25.23.2-.02.2.03.32.09.08.03,0,.11.06v.02c-.08.06-.14.06-.24.08v-.3c-.22-.15-.08-.35.04-.47,0-.05,0-.11,0-.17,0-.05,0-.1,0-.15Z"/>
      <path class="st12" d="M778.95,878.32c0,.05,0,.11,0,.17-.12.12-.26.31-.04.47v.3s0,.05,0,.05c-.06-.04-.16-.02-.22-.1-.26-.35.04-.7.27-.88Z"/>
      <path class="st24" d="M779.37,879.16c-.38.43-1.29.49-1.34-.35,0-.04-.01-.15.01-.18l.02.02s0,.05.01.09c.02.22.09.4.31.51.16.11.27.14.44.12.03,0,.05,0,.08-.01v-.06s0-.05,0-.05c.1-.02.16-.02.24-.08l.02.08s.06-.05.1-.07c.06,0,.03-.03.12-.03Z"/>
      <path class="st14" d="M779.14,879.17l.02.08c-.08.05-.16.08-.25.1v-.06s0-.05,0-.05c.1-.02.16-.02.24-.08Z"/>
      <path class="st12" d="M778.95,878.02c.06-.02.12-.04.17-.06,0,.1,0,.2,0,.3,0,.05,0,.23,0,.27-.01-.06,0-.33,0-.4l-.15.05v-.15Z"/>
      <path class="st0" d="M779.14,866.41c.2.04.32.16.36.36.08.41-.17.88-.52,1.05-.31.12-.64.28-.95.39-.29.1-.82.38-1.11.38-.22-.05-.35-.19-.38-.41-.05-.39.2-.83.53-.99.31-.13.64-.29.96-.4.29-.1.82-.39,1.11-.38Z"/>
      <path class="st9" d="M777.56,867.34c.07-.18.4.05.34.23h0c0,.1-.03.16-.06.24.02.05.05.1.08.15-.16.06-.36.18-.55.14-.18-.04-.18-.25-.15-.37.04-.18.15-.33.31-.41h.02s.01.02.01.02Z"/>
      <path class="st0" d="M777.56,867.34c.07-.18.4.05.34.23h0s-.1.04-.14.05c-.02.1-.04.18-.12.25-.11.12-.3.05-.29-.14,0-.13.09-.21.19-.27l-.02-.15h.02s.01.02.01.02Z"/>
      <path class="st8" d="M777.56,867.34c.07-.18.4.05.34.23-.08-.05-.04-.14-.12-.2-.07-.06-.14-.02-.21-.04Z"/>
      <path class="st8" d="M777.61,867.37c.1,0,.21.05.22.17-.02.04,0,.03-.05.05-.04-.14-.07-.13-.2-.17v-.02s.03-.03.03-.03Z"/>
      <path class="st8" d="M777.56,867.61s.05.03.06.08c-.01.04-.03.05-.06.08-.04-.02-.04-.03-.05-.06.01-.05.02-.06.05-.09Z"/>
      <path class="st8" d="M777.59,867.46c.08.01.13.03.16.12-.01.03,0,.02-.03.03-.05-.11-.05-.06-.14-.12l.02-.03Z"/>
      <path class="st9" d="M777.13,867.45s.03.71.03.8c-.04.02-.09.03-.13.05-.01,0,0,0-.02-.01,0-.26,0-.53,0-.79.04-.01.09-.03.13-.04Z"/>
      <path class="st9" d="M778.42,867.38c.13.01.15.11.12.2-.04.12-.07.16-.18.21-.13,0-.17-.11-.13-.21.04-.12.08-.16.2-.2Z"/>
      <path class="st0" d="M778.38,867.45c.06,0,.05,0,.08.04.05.1-.01.19-.08.24-.04,0-.04,0-.07-.03-.07-.1,0-.19.07-.25Z"/>
      <path class="st8" d="M779.12,867.1h0s-.08.18-.1.22c.05.05.11.1.1.17-.06,0-.12-.08-.17-.13,0,.06,0,.13,0,.2l-.04.02h-.02c-.04-.1-.02-.32.02-.39h.02c.02.06.01.11.01.17.04-.09.08-.19.17-.24Z"/>
      <path class="st4" d="M778.81,867.23l.02.02c-.02.1-.22.04-.19.28.05.08.13.03.2.01h.01s0,.05,0,.05c-.18.1-.31.06-.25-.18.03-.1.12-.15.22-.18Z"/>
      <path class="st5" d="M778.02,867.52l.02.02s0,.24,0,.29c.06-.02.11-.05.17-.01-.02.02-.03.03-.06.04-.05.02-.12.05-.18.07,0-.13,0-.25,0-.38,0,0,.02-.02.03-.03Z"/>
      <path class="st0" d="M775.49,871.56c.07.04.1.06.16.11.19.13.12.26.13.44,0,.3.03.51-.14.76-.14.2-.61.51-.85.22-.07-.05-.17-.13-.19-.22-.05-.24-.02-.51-.02-.75.01-.15.09-.26.22-.31.22-.08.46-.21.69-.25Z"/>
      <path class="st21" d="M775.49,871.56c.07.04.1.06.16.11-.17.02-.82.27-.89.41-.08.15-.06.79,0,.97l.02.04c-.07-.05-.17-.13-.19-.22-.05-.24-.02-.51-.02-.75.01-.15.09-.26.22-.31.22-.08.46-.21.69-.25Z"/>
      <path class="st9" d="M775.42,872.05s.04,0,.07.01c.04.03.04.03.07.08,0,.05-.02.09-.08.08l-.02-.05c-.08-.07-.36.09-.42.15-.01.08-.02.12-.02.19.07-.05.14-.09.23-.12.26-.1.35-.04.3.23-.04.14-.41.31-.55.27-.09-.06-.07-.15-.08-.23-.03-.44.12-.49.49-.61Z"/>
      <path class="st0" d="M775.43,872.44h.03s.03.12.02.16c-.06.12-.27.16-.39.2-.02-.01-.03-.02-.04-.04-.06-.23.21-.27.38-.32Z"/>
      <path class="st0" d="M776.24,872.58c-.07-.04-.17-.12-.2-.2-.06-.21-.06-.79,0-.95.07-.16.7-.37.86-.4.07.04.1.05.16.1.19.15.13.26.13.46.01.29.01.57-.18.78-.16.18-.53.43-.8.2Z"/>
      <path class="st21" d="M776.24,872.58c-.07-.04-.17-.12-.2-.2-.06-.21-.06-.79,0-.95.07-.16.7-.37.86-.4.07.04.1.05.16.1-.16.04-.62.22-.76.3-.05.03-.1.07-.13.12-.05.11-.05.81,0,.94,0,.02.02.03.02.05v.02s.02.01.02.01Z"/>
      <path class="st9" d="M776.99,871.45s0,0,.03.02c.01.1-.38.75-.44.88l-.11.03c.07-.14.16-.3.24-.44.07-.11.14-.23.19-.36-.11.04-.43.18-.52.17l-.02-.04c.09-.07.5-.21.64-.26Z"/>
      <path class="st0" d="M778.41,870.52c.08-.02.21.04.17.12.11.13.08.57.07.74-.01.25-.13.46-.32.6-.18.13-.44.24-.67.04-.36-.21-.18-.67-.21-.98,0-.1.09-.24.18-.27.15-.06.62-.29.78-.25Z"/>
      <path class="st21" d="M778.41,870.52c.08-.02.21.04.17.12l-.06-.04c-.21.02-.55.2-.75.28-.25.1-.16.48-.18.7-.01.16,0,.28.07.44-.36-.21-.18-.67-.21-.98,0-.1.09-.24.18-.27.15-.06.62-.29.78-.25Z"/>
      <path class="st24" d="M778.41,870.52c.08-.02.21.04.17.12l-.06-.04s-.08-.06-.12-.09Z"/>
      <path class="st9" d="M778.3,870.96c.05,0,.07.01.11.06.04.11-.03.14-.04.26,0,0,.05.05.05.06.09.33-.27.41-.5.48-.24-.01-.07-.31-.08-.34-.17-.36.19-.45.45-.52Z"/>
      <path class="st0" d="M778.29,871.36s.02,0,.04.04c.04.24-.22.26-.4.32,0-.01-.01-.01-.02-.03-.02-.04-.03-.08-.02-.11.04-.12.28-.18.4-.21Z"/>
      <path class="st0" d="M778.28,871.06s.02,0,.05.04c.05.19-.22.24-.36.28-.04,0-.02,0-.05-.03-.07-.19.23-.24.37-.29Z"/>
      <path class="st0" d="M780.36,869.16c-.1-.15-.05-.23-.06-.37-.04-.48.05-.84.5-1.03.17-.07.29-.14.49.01.09.06.18.12.2.23.03.19.06.82-.05.94-.13.14-.71.37-.9.36-.11.02-.16-.03-.18-.14Z"/>
      <path class="st21" d="M780.36,869.16c-.1-.15-.05-.23-.06-.37-.04-.48.05-.84.5-1.03.17-.07.29-.14.49.01-.3.04-.57.15-.72.4-.05.07-.08.15-.09.24-.03.14-.02.7.02.84l.06.05c-.11.02-.16-.03-.18-.14Z"/>
      <path class="st24" d="M780.36,869.16s.08.07.12.09l.06.05c-.11.02-.16-.03-.18-.14Z"/>
      <path class="st9" d="M781.25,868.11h.02s.01.03,0,.07c-.04.05-.43.18-.53.22v.14c.08-.04.36-.17.43-.16.23.04.14.4,0,.47-.05.03-.12.07-.18.09-.13.03-.24.13-.35-.02,0-.04,0-.06.03-.09.04-.01.02-.01.05,0,.01.03.01.05.04.07.12,0,.29-.08.38-.14.06-.05.08-.17.04-.24-.15-.11-.44.19-.52.18-.01-.04,0-.31,0-.36.19-.08.39-.14.59-.22Z"/>
      <path class="st0" d="M779.1,871.49c-.07-.04-.2-.14-.21-.22-.02-.18-.05-.8.03-.93.08-.14.67-.34.86-.38.05,0,.13.06.18.1.19.12.11.28.12.44.06.55-.13.98-.69,1.09-.1.02-.21-.02-.29-.11Z"/>
      <path class="st21" d="M779.1,871.49c-.07-.04-.2-.14-.21-.22-.02-.18-.05-.8.03-.93.08-.14.67-.34.86-.38.05,0,.13.06.18.1-.15.02-.82.27-.88.39-.08.18-.07.82.02,1.03Z"/>
      <path class="st9" d="M779.73,870.43s.1.01.11.06c.05.19.05.35,0,.52-.04.13-.53.4-.6.15,0-.02.02-.05.04-.07h.03s.05.04.08.08c.07,0,.16-.04.23-.07.18-.07.17-.11.19-.3-.05.04-.09.06-.15.09-.18.1-.5.16-.39-.19.05-.16.32-.24.49-.28Z"/>
      <path class="st0" d="M779.7,870.53s.03,0,.06.04c.05.21-.22.27-.38.31-.04-.01-.02,0-.05-.03-.06-.22.21-.27.37-.32Z"/>
      <path class="st0" d="M774.75,871.42c-.23-.14-.17-.25-.17-.46,0-.09,0-.19,0-.29-.02-.44.32-.78.75-.83.11-.01.18.04.27.11.08.05.15.11.17.2.05.25.03.52.02.77,0,.29-.38.35-.6.45-.11.05-.31.15-.43.05Z"/>
      <path class="st21" d="M774.75,871.42c-.23-.14-.17-.25-.17-.46,0-.09,0-.19,0-.29-.02-.44.32-.78.75-.83.11-.01.18.04.27.11-.2-.03-.45.07-.59.19-.34.29-.27.64-.28,1.08,0,.07,0,.12.03.2Z"/>
      <path class="st9" d="M775.32,870.34h0c.02.06.01.61,0,.71,0,.03-.03.03-.05.04h-.03c-.02-.06-.01-.35-.01-.42v-.19s-.06.08-.09.13c-.02.03-.06.09-.1.09-.02-.11.16-.31.27-.35Z"/>
      <path class="st0" d="M780.53,870.95s-.02-.01-.03-.02c-.07-.04-.16-.12-.18-.2-.04-.2-.06-.82.04-.95.08-.11.67-.33.83-.36.06-.01.14.06.2.1.18.13.1.26.11.42.04.46-.04.84-.47,1.03-.16.07-.32.12-.5-.03Z"/>
      <path class="st21" d="M780.53,870.95s-.02-.01-.03-.02c-.07-.04-.16-.12-.18-.2-.04-.2-.06-.82.04-.95.08-.11.67-.33.83-.36.06-.01.14.06.2.1-.13,0-.81.27-.87.37-.1.15-.08.86,0,1.06Z"/>
      <path class="st9" d="M781.16,869.91s.04,0,.07.02c.12.1.08.44.04.56-.05.14-.33.21-.47.25-.06,0-.11-.01-.13-.09-.04-.14-.03-.4.03-.51.06-.12.34-.2.47-.23Z"/>
      <path class="st0" d="M781.13,870.01s.05.01.06.03c.04.1.03.33,0,.41-.03.09-.28.15-.38.18-.02,0-.05-.03-.06-.05-.08-.45.05-.47.38-.57Z"/>
      <path class="st0" d="M778.93,869.71c-.1-.14-.05-.24-.06-.38-.06-.56.14-1.01.73-1.1.1-.02.17.02.27.09.08.06.17.12.19.22.04.19.06.8-.03.93-.1.13-.65.33-.84.37-.04,0-.09-.02-.12-.04v.02s-.05,0-.05,0c-.05-.02-.05-.01-.08-.05-.02-.05-.02-.02,0-.07Z"/>
      <path class="st21" d="M778.93,869.71c-.1-.14-.05-.24-.06-.38-.06-.56.14-1.01.73-1.1.1-.02.17.02.27.09-.27.02-.54.12-.68.33-.17.25-.15.44-.15.75,0,.13,0,.26.02.39h.01s-.01.04-.01.04h-.03s-.05,0-.08-.05c-.02-.05-.02-.02,0-.07Z"/>
      <path class="st24" d="M779.06,869.8v.02s-.05,0-.05,0c-.05-.02-.05-.01-.08-.05-.02-.05-.02-.02,0-.07.03.02.08.06.12.08h.01Z"/>
      <path class="st9" d="M779.74,868.69h.02c.03.06.01.35.02.44h.02s.07-.01.07-.01c.02.03.02.03.02.07-.02.03-.07.04-.11.05v.02c0,.07.01.11-.05.15h-.03c-.03-.05-.02-.08-.02-.13l-.25.09c-.06.02-.16.07-.22.07h0c0-.11.06-.2.12-.27.12-.13.26-.43.42-.49Z"/>
      <path class="st0" d="M779.68,868.83c.02.08.01.28.01.36l-.33.12h0s.28-.42.32-.48Z"/>
      <path class="st0" d="M776.81,869.3c.09.03.13.06.21.11.08.06.15.11.17.21.04.19.06.78-.03.92-.1.15-.65.33-.84.38-.02,0-.08-.01-.1-.02-.04.02-.06.01-.1-.01-.04-.05-.03-.02-.03-.08-.13-.15-.07-.24-.08-.39-.06-.59.16-1.04.8-1.11Z"/>
      <path class="st21" d="M776.81,869.3c.09.03.13.06.21.11-.2-.02-.47.08-.61.2-.31.27-.26.69-.25,1.09,0,.05.02.12.03.17l.02.02s-.06.01-.1-.01c-.04-.05-.03-.02-.03-.08-.13-.15-.07-.24-.08-.39-.06-.59.16-1.04.8-1.11Z"/>
      <path class="st24" d="M776.09,870.8s.07.05.1.07l.02.02s-.06.01-.1-.01c-.04-.05-.03-.02-.03-.08Z"/>
      <path class="st9" d="M776.86,869.77c.13.02.12.06.14.16.09.33-.59.35-.55.58.1.06.48-.23.57-.13v.03c-.06.06-.51.21-.61.25,0,0-.03,0-.03,0-.01-.02-.01-.02-.01-.04-.03-.39.26-.34.5-.51.05-.03.09-.17,0-.22-.12-.02-.23.05-.33.1-.09.05-.05.15-.14.2h-.02c-.07-.27.31-.36.49-.41Z"/>
      <path class="st0" d="M777.44,870.16c-.04-.63-.06-1.17.61-1.37.08-.02.12-.04.21-.04.08.04.1.06.17.11.07.05.16.11.18.2.04.19.06.81-.03.94-.1.14-.65.33-.85.38-.03,0-.09-.03-.12-.05-.08-.05-.11-.09-.17-.17Z"/>
      <path class="st21" d="M777.44,870.16c-.04-.63-.06-1.17.61-1.37.08-.02.12-.04.21-.04.08.04.1.06.17.11-.27.01-.53.13-.69.33-.18.23-.16.47-.16.77,0,.13-.01.24.03.37-.08-.05-.11-.09-.17-.17Z"/>
      <path class="st9" d="M778.3,869.23c.21.03.11.21.08.32.11.25.03.36-.18.44-.09.04-.29.14-.39.06-.02-.04-.04-.13,0-.15.04.01.05.03.08.06h.01c.11.01.33-.07.39-.15.04-.05.04-.09.03-.16h0c-.1-.04-.17.04-.29.04-.02-.03-.01-.02,0-.06.03-.04.43-.13.27-.29-.11-.04-.45.1-.43.24,0,.02-.06.05-.09.04-.03-.27.31-.34.51-.4Z"/>
    </g>
  </g>
</svg>