<?xml version="1.0" encoding="UTF-8"?>
<svg id="Layer_1" xmlns="http://www.w3.org/2000/svg" version="1.1" viewBox="0 0 2048 1650">
  <!-- Generator: Adobe Illustrator 30.3.0, SVG Export Plug-In . SVG Version: 2.1.3 Build 182)  -->
  <defs>
    <style>
      .st0 {
        fill: #d2d4d7;
      }
    </style>
  </defs>
  <path class="st0" d="M193.3,887.15l.07,62.79c5.19,2.94,12.19,7.2,17.59,9.27l.47.52c2.52,1.51,4.79,3.25,7.53,3.83,7.18,5.17,24.93,14.63,33.48,19.17,14.21,7.54,29.46,16.67,43.63,23.89.48.3,2.47,1.59,2.92,1.74l22.17,12.31c2.19,1.3,4.3,2.72,6.69,3.54l.76.49c2.65,1.65,5.3,3.52,8.23,4.53l1.89.89.65.55c9.46,5.63,24.34,14.22,34.28,19.08,3.42,2.32,4.56,3.06,8.34,4.67,32.98,18.14,70.8,40.32,103.78,57.24,4.15,2.7,5.56,3.55,10.24,5.58l.89.61,2.89,1.5c13.35,7.74,26.78,15.34,40.3,22.8-38.36,1.33-78.33.78-116.83.81-29.26-18.47-64.94-37.31-95.38-55.33-78.05-46.23-158.11-91.01-235.49-138.22,33.3-20.53,67.3-42.54,100.91-62.26h-.01Z"/>
  <path class="st0" d="M899.17,969.55l-13.57-7.88.07-12.05c-5.13-2.89-11.94-6.46-16.57-9.83,11.56-8.73,26.54-17.8,38.96-25.81l.03-25.08h0s213.88,126.41,213.88,126.41c36.8,21.92,81.2,50.02,118.2,69.88-7.56-.66-19.75-.29-27.68-.32l-55.76.1c-50.21.23-34.39-.83-70.96-17.77-19.12-8.86-177.2-103.39-181.04-102.93"/>
  <path class="st0" d="M1515.95,1048.85l37.93-21.59c10.18,5.96,20.75,12.36,31.08,17.95l2.18,1.38c11.61,7.27,31.67,19.95,43.75,26.11,4.1,2.97,13.23,8.46,17.96,10.88,10.2,6.57,27.39,17.11,38.27,22.65-5.6-.75-19.58-.22-26.12-.19l-51.1.05c-31.2-19.26-62.52-38.34-93.95-57.24h0Z"/>
</svg>