<?xml version="1.0" encoding="UTF-8"?>
<svg id="Layer_1" xmlns="http://www.w3.org/2000/svg" xmlns:xlink="http://www.w3.org/1999/xlink" version="1.1" viewBox="0 0 2048 1650">
  <!-- Generator: Adobe Illustrator 30.3.0, SVG Export Plug-In . SVG Version: 2.1.3 Build 182)  -->
  <defs>
    <style>
      .st0 {
        fill: #12874b;
      }

      .st1 {
        fill: url(#linear-gradient1);
      }

      .st2 {
        fill: #1a6546;
      }

      .st3 {
        fill: url(#linear-gradient);
      }

      .st4 {
        fill: #f8f9f9;
      }

      .st5 {
        fill: #d2d4d7;
      }

      .st6 {
        fill: #949598;
      }

      .st7 {
        fill: #414a51;
      }

      .st8 {
        fill: #a4a6a9;
      }

      .st9 {
        fill: #737478;
      }

      .st10 {
        fill: #5a6166;
      }
    </style>
    <linearGradient id="linear-gradient" x1="1619.41" y1="587.62" x2="1623.31" y2="594.06" gradientTransform="translate(0 1652) scale(1 -1)" gradientUnits="userSpaceOnUse">
      <stop offset="0" stop-color="#51595f"/>
      <stop offset="1" stop-color="#737679"/>
    </linearGradient>
    <linearGradient id="linear-gradient1" x1="1571.25" y1="797.25" x2="1574.39" y2="802.64" gradientTransform="translate(0 1652) scale(1 -1)" gradientUnits="userSpaceOnUse">
      <stop offset="0" stop-color="#323b44"/>
      <stop offset="1" stop-color="#696669"/>
    </linearGradient>
  </defs>
  <path class="st7" d="M152.84,693.32l129.45-119.15c17.26-15.76,42.67-39.99,60.16-54.01,8.77-7.03,48.47-28.89,59.69-35.35l114.69-66.06,394.74-227.53c26.66,51.78,55.65,104.65,82.95,156.36,23.18-36.11,47.8-71.54,71.1-107.59,6.27-9.69,12.87-19.8,19.8-29,13.3,7.62,27.99,14.64,41.64,22.34,1.22.61,4.35,2.03,5.2,2.81l15.85,8.51c4.56,2.3,7.66,3.8,11.91,6.66,18.26,9.33,47.96,24.73,65.11,35.39l1.96,1.03c22.88,11.55,46.46,24.7,68.98,37.1,1.27.7,4.01,2.09,5.04,2.89,41.43,21.04,89.97,48.71,130.88,71.67,5.93,3.01,10.44,5.28,16,8.88,29.52,15.12,67.98,40.27,96.66,58.09l148.36,90.97c-.04,5.9,1.22,8.84-4.02,12.76-1.29,8.03-.93,16.09-.84,24.22-13.83-6.79-27.77-13.78-41.68-20.38l.08,63.96,202.86,111.13c23.68,13.07,48.59,26.16,71.94,39.5-.11,7.46,1.03,7.03-3.55,12.63-1.35,6.79-.7,15.1-.72,22.25l-36.03-17.39.08,168,7.92,4.77v13.58c-19.72,11.24-199.47,114.47-201.93,113.86-5.6-.75-19.58-.22-26.12-.19l-51.1.05c-31.2-19.26-62.52-38.34-93.95-57.24l-61.66,35.4-17.3-10.92c-5.56-2.96-8.74-5.06-13.94-8.67-5.74-3.26-11.39-6.65-16.96-10.19-25.87,14.16-51.62,28.53-77.25,43.11-17.15-10.81-34.43-21.4-51.84-31.78-5.23,2.92-32.42,18.57-36.83,19.39-7.56-.66-19.75-.29-27.68-.32l-55.76.1c-50.21.23-34.39-.83-70.96-17.77-19.12-8.86-181.57-94.08-185.42-93.62-.14,2.62-.37,5.24-.7,7.84-32.75,20.36-68.47,44.12-101.29,63.27-17.63-9.43-36.04-19.85-53.65-28.96-40.2,25.77-80.55,51.31-121.04,76.62-25.75,16.31-51.41,32.83-77.4,48.74-2.32,1.42-3.6,1.98-6.17,1.06-38.36,1.33-78.33.78-116.83.81-29.26-18.47-64.94-37.31-95.38-55.33-78.05-46.23-158.11-91.01-235.49-138.22,33.3-20.53,67.3-42.54,100.91-62.26l.31-174.18c-11.19,5.36-23.4,12-34.52,17.75.09-6.99.59-16.17-.75-22.92-.45-2.28-1.77-2.29-4.38-3.78-1.96-2.97-1.26-6.87-1.13-10.68Z"/>
  <path class="st9" d="M1085.71,214.42c10.46,4.14,19.82,9.47,29.4,15.34,3.67,2.25,7.79,5.66,11.95,3.58,1.22.61,4.35,2.03,5.2,2.81l15.85,8.51c4.56,2.3,7.66,3.8,11.91,6.66,18.26,9.33,47.96,24.73,65.11,35.39l1.96,1.03c22.88,11.55,46.46,24.7,68.98,37.1,1.27.7,4.01,2.09,5.04,2.89,41.43,21.04,89.97,48.71,130.88,71.67,5.93,3.01,10.44,5.28,16,8.88l-.85,1.6c5.22,3.27,9.46,6.44,15.56,7.48,3.85,7.23-15.72,32.69-20.28,39.64-9.17,14.1-18.26,28.25-27.28,42.45l-114.56,177.58c-20.94,32.31-43.87,66.62-63.99,99.22l-30.75-18.93c11.13-71.3,20.45-145.38,30.41-217l15.88-116.92c3.19-23.01,7.26-47.81,9.88-70.72-46.46,24.14-93.23,49.61-139.39,74.43l-42.96,23.09c-9.09,4.86-25.76,12.85-32.79,19.35-45.89,42.44-95.67,83.08-140.62,126.37-5.34-3.09-23.01-13.57-28.12-15.12l-.43-.58c-1.3-.96-2.98-1.85-4.41-2.67-2-1.54-3.79-2.49-5.96-3.77l-.93-.33c-1.93-1.63-4.12-2.64-6.36-3.83l-1.36-.51-1.37-.45c-1.81-1.34-1.34-.96-2.78-2.72.91-5.61,31.47-49.95,37.25-58.73l118.73-178.53c24.27-36.64,49.7-78.76,75.2-114.25Z"/>
  <path class="st7" d="M1301.11,327.72c41.43,21.04,89.97,48.71,130.88,71.67l-1.07.76c-6.46-.51-117.4-63.13-130.01-70.22l.2-2.21Z"/>
  <path class="st7" d="M1227.09,287.74c22.88,11.55,46.46,24.7,68.98,37.1l-.56,1.3c-10.36-1.34-51.99-29.64-64.37-33.98-2.31-.81-2.24-.51-4.25-2.23l.2-2.18Z"/>
  <path class="st7" d="M1160.02,251.32c18.26,9.33,47.96,24.73,65.11,35.39-8.03.14-54.35-28.46-66.14-33.79l1.03-1.6Z"/>
  <path class="st7" d="M1132.26,236.15l15.85,8.51c-.74.42-1.79.71-2.63,1-6.41-2.28-7.44-2.71-12.89-6.71l-.33-2.8Z"/>
  <path class="st5" d="M193.3,887.15l.07,62.79c5.19,2.94,12.19,7.2,17.59,9.27l.47.52c2.52,1.51,4.79,3.25,7.53,3.83,7.18,5.17,24.93,14.63,33.48,19.17,14.21,7.54,29.46,16.67,43.63,23.89.48.3,2.47,1.59,2.92,1.74l22.17,12.31c2.19,1.3,4.3,2.72,6.69,3.54l.76.49c2.65,1.65,5.3,3.52,8.23,4.53l1.89.89.65.55c9.46,5.63,24.34,14.22,34.28,19.08,3.42,2.32,4.56,3.06,8.34,4.67,32.98,18.14,70.8,40.32,103.78,57.24,4.15,2.7,5.56,3.55,10.24,5.58l.89.61,2.89,1.5c13.35,7.74,26.78,15.34,40.3,22.8-38.36,1.33-78.33.78-116.83.81-29.26-18.47-64.94-37.31-95.38-55.33-78.05-46.23-158.11-91.01-235.49-138.22,33.3-20.53,67.3-42.54,100.91-62.26Z"/>
  <path class="st5" d="M908.09,888.9l213.88,126.41c36.8,21.92,81.2,50.02,118.2,69.88-7.56-.66-19.75-.29-27.68-.32l-55.76.1c-50.21.23-34.39-.83-70.96-17.77-19.12-8.86-181.57-94.08-185.42-93.62-.14,2.62-.37,5.24-.7,7.84-.6-5.15-.66-6.69-.48-11.87l-13.57-7.88.07-12.05c-5.13-2.89-11.94-6.46-16.57-9.83,11.56-8.73,26.54-17.8,38.96-25.81l.03-25.08Z"/>
  <path class="st9" d="M196,920.36c35.36,21.34,342.97,186.91,344.51,192.45,2,7.18.5,19.2.61,27-8.11-4.75-33.98-21.27-41.32-20.46l-2.89-1.5-.89-.61c-4.68-2.03-6.09-2.88-10.24-5.58-32.98-16.92-70.8-39.1-103.78-57.24-3.78-1.61-4.92-2.35-8.34-4.67-9.94-4.86-24.82-13.45-34.28-19.08l-.65-.55-1.89-.89c-2.93-1.01-5.58-2.88-8.23-4.53l-.76-.49c-2.4-.82-4.5-2.24-6.69-3.54l-22.17-12.31c-.45-.15-2.43-1.44-2.92-1.74-14.17-7.22-29.41-16.35-43.63-23.89-8.55-4.54-26.3-13.99-33.48-19.17-2.74-.58-5.01-2.32-7.53-3.83l-.47-.52c-1.79-5.05-13.51-8.84-14.17-11.21-1.58-5.68-.66-21.46-.8-27.64Z"/>
  <path class="st7" d="M381.99,1054.42c4.9-1.48,102.55,50.9,103.78,57.24-32.98-16.92-70.8-39.1-103.78-57.24Z"/>
  <path class="st7" d="M218.96,963.56c2.04-.09,4.6-.11,6.43.91,23.24,12.97,46.25,26.19,69.62,38.93.54,1.35.85,1.8,1.06,3.22-14.17-7.22-29.41-16.35-43.63-23.89-8.55-4.54-26.3-13.99-33.48-19.17Z"/>
  <path class="st7" d="M339.37,1030.67l2.11-.95c7.87,3.13,29.68,12.26,32.17,20.03-9.94-4.86-24.82-13.45-34.28-19.08Z"/>
  <path class="st7" d="M298.98,1008.36c5.65-1.61,21.14,6.11,22.17,12.31l-22.17-12.31Z"/>
  <path class="st7" d="M211.43,959.73c3.53-.28,3.34-.24,6.52,1.47.56,1.03.88,1.3,1.01,2.36-2.74-.58-5.01-2.32-7.53-3.83Z"/>
  <path class="st7" d="M336.83,1029.23l1.13-1.7c.78,1.58.74.98.76,2.59l-1.89-.89Z"/>
  <path class="st7" d="M327.85,1024.21l1.17-1.66c.05,1.66.26.96-.41,2.15l-.76-.49Z"/>
  <path class="st8" d="M1052.81,479.37c3.15,8.36,14.18,28.53,19.01,37.35,6.1,11.15,14.1,27.96,20.44,38.39l73.87,140.97c11.7,22.39,25.92,47.89,36.64,70.43,11.25,6.36,22.4,12.9,33.43,19.62.11,6.9.32,14.02.29,20.9-11.6-7.27-24.08-14.78-35.45-22.28-48.8-94.54-98.15-188.79-148.06-282.75-33.51,29.52-66.82,59.25-99.95,89.21-12.71,11.41-26.49,24.63-39.29,35.52l-54.7-32.93c-.24-4.62-1.26-9.33,1.47-12.65l3.56.06c2.65,4.42,17.28,11.57,22.55,14.31.68.44,3.82,2.53,4.33,2.74,6.08,3.6,14.09,9.81,20.26,8.54,1.45-2.03,9.95-9.68,12.21-11.78,35.68-30.53,73.78-66.14,108.91-97.69,2.06-1.47,4.2-3.65,6.09-5.43l14.39-12.53Z"/>
  <path class="st5" d="M1415.8,960.07c11.78,4.68,28.39,13.78,40.2,19.62,7.87,3.89,24.15,11.61,30.93,15.77-8.2,4.5-57.16,33.9-61.88,32.3-1.61-.55-3.34-1.79-4.82-2.66l-2.26-1.41c-3.93-2.46-5.67-3.49-10.01-5.41l-50.63,28.75c-15.48-9.29-31.81-20.05-47.16-29.76l50.51-26.18c5.81-2.95,15.99-7.03,20.58-9.83.67-1.38,1.88-4.08,3.15-4.77,10.19-5.44,21.24-11.13,31.39-16.43Z"/>
  <path class="st5" d="M1515.95,1048.85l37.93-21.59c10.18,5.96,20.75,12.36,31.08,17.95l2.18,1.38c11.61,7.27,31.67,19.95,43.75,26.11,4.1,2.97,13.23,8.46,17.96,10.88,10.2,6.57,27.39,17.11,38.27,22.65-5.6-.75-19.58-.22-26.12-.19l-51.1.05c-31.2-19.26-62.52-38.34-93.95-57.24Z"/>
  <path class="st8" d="M1415.8,960.07c4.89-2.51,24.28-13.26,27.76-14.27l1.3.63c1.39.66,3.29,1.56,4.71.96,7-2.95,14.66-8.13,21.21-12.17,16.73,8.41,42.48,25.45,59.1,35.84-13.98,7.93-29.21,16.24-42.95,24.4-6.78-4.16-23.06-11.88-30.93-15.77-11.81-5.85-28.42-14.95-40.2-19.62Z"/>
  <path class="st10" d="M911.22,606.8c-2.17-2.86-2.09-2.82-3.31-6.24.2-.85.4-1.7.61-2.54,40.63-37.75,104.45-94.4,143.38-129.25,14.47,24.32,29.81,56.24,42.73,81.77-.2,2.69-.31,2.01-2.37,4.57-6.34-10.43-14.34-27.24-20.44-38.39-4.83-8.82-15.86-28.99-19.01-37.35l-14.39,12.53c-1.89,1.78-4.03,3.96-6.09,5.43-35.12,31.56-73.22,67.16-108.91,97.69-2.25,2.09-10.76,9.74-12.21,11.78Z"/>
  <path class="st7" d="M923.42,595.02c.24-2.02.74-4.06,2.25-5.58,20.53-20.41,42.55-39.51,64.25-58.7,12.61-11.15,25.23-23.48,38.05-34.23l4.35.81c-35.12,31.56-73.22,67.16-108.91,97.69Z"/>
  <path class="st7" d="M1038.42,491.9c2.07-8.55,5.47-9.44,12.6-14.13,1.33-.87,1.39-.37,2.83.16l-1.04,1.43-14.39,12.53Z"/>
  <path class="st3" d="M1584.96,1045.21l.11-2.05c-8.74-7.35-26.65-14.68-29.33-20.98l.57-2.5c6-.23,115.38,69.9,128.06,75.28,1.76.75,2.7,3.76,3.11,5.63l-1.08,2.08c-2.98-.45-.91.22-2.83-1.47-5.26-4.62-6.18-.97-11.39-7.22-2.4-2.89-19.19-8.76-21.56-12.26l-1.31.35-.46,1.51c-4.73-2.42-13.86-7.91-17.96-10.88-12.08-6.16-32.14-18.84-43.75-26.11l-2.18-1.38Z"/>
  <path class="st7" d="M1587.14,1046.59c7.95-1.26,42.41,20.41,43.75,26.11-12.08-6.16-32.14-18.84-43.75-26.11Z"/>
  <path class="st9" d="M1423.05,1064.66l.86-1.01c-1.5-2.46-11.26-7.22-13.92-9.79-3.92-3.78-1.15-24.3-.7-31.15l1.19-.58c1.75.96,3.17,1.65,4.96,2.5l2.53-.94,2.26,1.41.27,3.43c1.17.86.56.58,1.78.92,4,5.35,3.27,5.86,2.95,12.93,4.74,3.14,9.07,6.21,14.26,8.56l-.05,1.35c-.51,17.88,17.01,10.85,13.82,27.05-5.37-.06-9.56-8.96-16.27-6.01-5.56-2.96-8.74-5.06-13.94-8.67Z"/>
  <path class="st10" d="M857.32,568.65l1.37.45,1.36.51c2.24,1.19,4.42,2.2,6.36,3.83l.93.33c2.16,1.28,3.96,2.23,5.96,3.77,1.43.82,3.11,1.71,4.41,2.67l.43.58c3.02,6.77,24.65,13.31,27.24,20.28-2.12,1.76-.88,1.12-4.09,1.38l-.59-.54c-2.88-2.62-5.91-5.71-9.73-3.64-.52-.21-3.65-2.3-4.33-2.74-5.27-2.74-19.91-9.88-22.55-14.31-4.02-5.21-12.35-4.59-10.27-11.36l3.52-1.2Z"/>
  <path class="st7" d="M864.07,581.21c4.54,1.08,19.13,9.86,22.86,12.91l-.31,1.39c-5.27-2.74-19.91-9.88-22.55-14.31Z"/>
  <path class="st7" d="M873.29,577.54c1.43.82,3.11,1.71,4.41,2.67-2.65.29-2.6.51-4.85-.8l.45-1.88Z"/>
  <path class="st7" d="M858.68,569.1l1.36.51c-.35,1.38,0,.74-1.21,1.83l-.15-2.34Z"/>
  <path class="st7" d="M866.4,573.44l.93.33c-.52,1.33-.1.71-1.46,1.71l.52-2.04Z"/>
  <path class="st6" d="M910.7,194.63c10.99,21.55,23.14,43.23,34.41,64.8l29.71,55.97c5.65,10.77,11.76,23.52,17.81,33.86-4.02,7.73-14.57,22.92-19.74,30.64l-36.6,54.58-54.3,82.49c-7.47,11.31-18.77,29.62-26.6,40.02l-5.39,8.71c0,8.24-.92,8.32,6.52,13.07-.15,6.75-1.5,14.31,2.72,18.82,15.32,8.56,36.77,21.52,52.32,30.93.78.48,5.7-.64,6.94-.94,3.06,4.18,5.08,8.19,7.52,12.75-12.29,7.66-24.55,15.4-36.75,23.2l-350.98,221.36-193.43-363.03c16.06-11.14,40.59-24.49,58.15-34.65l111.07-64,396.61-228.56Z"/>
  <path class="st9" d="M945.11,259.43l29.71,55.97c5.65,10.77,11.76,23.52,17.81,33.86-4.02,7.73-14.57,22.92-19.74,30.64l-36.6,54.58-54.3,82.49c-7.47,11.31-18.77,29.62-26.6,40.02,1.56-7.59,7.48-25.34,10.02-33.74l19.7-65.22,60-198.59Z"/>
  <path class="st9" d="M859.25,597.58c15.32,8.56,36.77,21.52,52.32,30.93.78.48,5.7-.64,6.94-.94,3.06,4.18,5.08,8.19,7.52,12.75-12.29,7.66-24.55,15.4-36.75,23.2-9.58-18.13-21.23-46.45-30.03-65.93Z"/>
  <path class="st8" d="M345.97,571.01c3.2,4,14.22,25.93,17.26,31.77,8.32,15.87,16.77,31.67,25.34,47.41l92.64,175.34c15.89,29.96,32.13,61.59,49.29,90.93,4.06,6.94,5.11,1.16,9.37,2.22,1.13,6.39.74,43.43.8,52.46l.21,136.7-93.74-51.74c-41.09-23.26-83.41-45.97-124.79-68.86-41.98-23.48-84.11-46.69-126.4-69.63l.08-211.11c20.37-17.11,42.63-38.24,62.43-56.29l87.53-79.2Z"/>
  <path class="st7" d="M387.57,865.88c7.17,2.69,23.34,12.15,30.61,16.21,16.68,9.25,33.28,18.65,49.8,28.18l.05,74.55c0,13.7.54,33.3-.55,46.65-5.19-2.12-21.25-11.43-26.89-14.58l-53.45-30.24c.28-32.95-.38-65.91-.25-98.87.03-7.3-.29-14.65.67-21.9Z"/>
  <path class="st8" d="M389.75,869.44c23.82,12.22,51.92,28.67,75.42,41.81l.38,116.2c-4.33-.73-67.61-37.35-75.71-41.92l-.09-116.09Z"/>
  <path class="st7" d="M395.4,880.18c10.98,4.27,52.13,28.64,63.87,35.32.21,33.84.17,67.68-.11,101.53-5.75-2.38-16.55-8.87-22.54-12.23l-40.98-22.94-.25-101.68Z"/>
  <path class="st0" d="M403.66,887.79c7.05,2.18,44.83,24.37,53.09,29.1,0,29.43,1.09,61.19.16,90.36-15.05-6.74-38.59-21.06-53.39-29.49l.15-89.98Z"/>
  <path class="st8" d="M398.1,884.3c1.23.59,1.32.85,2.38,1.77,1.11,7.27.68,24.34.66,32.57l-.17,60.22c8.58,4.73,54.16,28.31,56.96,34.21-6.23-1.23-51.14-27.58-59.87-32.57l.04-96.19Z"/>
  <path class="st7" d="M254.85,794.99c6.4,2.45,21.62,11.28,28.38,15.01l52.45,29.03v119.75c-9.63-2.5-67.25-36.92-80.56-44.13-1.55-36.23-.25-82.65-.26-119.66Z"/>
  <path class="st8" d="M257.64,798.8l75.37,41.55-.14,114.75c-23.49-14.07-51.14-28.59-75.38-42.08-.08-37.06-.9-77.44.15-114.22Z"/>
  <path class="st7" d="M263,809.17c2.61.89,16.18,8.66,19.68,10.58l44.16,24.33v100.03c-7.39-1.84-54.07-29.52-63.83-34.99v-99.96Z"/>
  <path class="st0" d="M271.4,816.38c13.26,5.93,39.45,21.36,53.06,28.84l-.06,89.33c-13.53-5.89-39.91-21.84-53.41-29.49.31-25.5-1.51-64.84.41-88.68Z"/>
  <path class="st8" d="M265.8,813.27l1.79,1.03c2.64,3.26,1.38,81.75,1.35,92.35,13.78,7.27,40.04,21.52,54.13,30.67.43.96.87,1.92,1.3,2.88-13.83-6.24-45.73-24.65-59.02-32.69.46-31.4-.17-62.81.45-94.24Z"/>
  <path class="st7" d="M330.53,656.58c11.93,5.12,46.02,25.89,58.96,33.39,1.27,21.71.02,48.43.89,70.66.35,9.09,1.29,49.95.19,56.18l-61.37-35.6c.8-41.08-.12-84.01,1.34-124.63Z"/>
  <path class="st8" d="M333.13,660.69c18.08,10.01,36.02,20.27,53.81,30.77.66,40.31,1.09,80.62,1.3,120.93l-56.3-32.54,1.19-119.17Z"/>
  <path class="st7" d="M338.08,670.17c4.32,1.43,37.14,20.99,43.06,24.45l1.35,108.4-45.41-26.54c.63-35.43.97-70.88,1-106.32Z"/>
  <path class="st0" d="M345.51,711.01c7.73,3.59,25.79,13.92,32.5,19.28,2.27,1.82,2.47,25.04,2.48,28.96-4.44-.56-29.74-15.93-33.93-19.62-1.97-5.57-1.15-21.86-1.05-28.63Z"/>
  <path class="st0" d="M345.35,746.59c4.61,1.36,29.15,16.08,34.92,19.48l.14,27.71-35.49-20c-.23-6.89-1.09-20.98.43-27.19Z"/>
  <path class="st0" d="M345.51,676.75c6.37,2.35,25.47,13.92,31.54,18.19,3.98,2.8,2.5,22.32,2.44,28.31-4.21-1.29-28.6-15.73-33.98-18.84v-27.66Z"/>
  <path class="st8" d="M340.23,744.34l1.38.62c2.64,3.82,1.32,24.11,1.19,29.91,6.96,3.83,34.98,18.25,37.47,23.23-7.7-3.33-33.35-18.46-40.3-23.26l.27-30.48Z"/>
  <path class="st8" d="M341.04,708.62c3.59,3.37,1.88,24.47,1.52,30.04-3.86-4.07-2.24-24.05-1.52-30.04Z"/>
  <path class="st8" d="M341.32,674.67c3.45,4,1.87,21.45,1.73,27.81-3.8-2.86-1.91-22.42-1.73-27.81Z"/>
  <path class="st8" d="M1055.19,513.72c2.61,1.07,39.31,71.71,43.86,79.79l-53.16-32-1.4,126.46c19.68,12.48,41.44,25.05,61.57,36.97l-.87-118.73c31.63,59.95,62.91,120.09,93.85,180.4,12.92,7.67,26.97,16.82,39.81,24.83l.25,195.38.1,43.2c-11.55-5.98-29.12-17.14-40.8-24.02l-93.47-55.36-132.45-78.28c-21.43-12.69-44.78-25.8-65.65-38.98,1.1-55.21.23-113.15.16-168.61l20.49-13.07c-.32-27.66,7.18-22.15-6.75-46.33,28.57-15.53,43.05-30.89,67.26-52.18l67.2-59.48Z"/>
  <path class="st7" d="M1029.99,747.11c4.65,1.63,23.38,13.08,28.48,16.12l56.57,33.59.18,132.22c-8.8-2.48-72.75-43-85.16-50.1l-.07-131.83Z"/>
  <path class="st8" d="M1032.51,751.07c26.23,14.53,54.14,31.85,80.17,47.27l.11,127.06c-6.27-3.05-20.57-12.32-27.02-16.22l-53.2-31.86-.06-126.24Z"/>
  <path class="st7" d="M1038.14,762.16c3.73,1.31,19.51,10.95,23.7,13.45,14.74,8.91,29.56,17.68,44.47,26.3l.34,111.38c-4.8-.66-59.94-35.26-68.69-40.68l.18-110.45Z"/>
  <path class="st0" d="M1046.82,770.06c5.8,2.12,49.94,29.07,57.11,33.36-.12,33.39-.01,66.78.33,100.17-9.83-4.34-46.23-27.37-57.38-34.1l-.06-99.43Z"/>
  <path class="st8" d="M1042.98,871.97l-2.1-1.4c-1.25-8.12-.71-41.51-.62-51.65.1-12.64-.85-40.25.29-51.89,1.11-.47,1.48-.73,2.65-.93,2.15,5.83,1.92,102.47-.22,105.87Z"/>
  <path class="st8" d="M1042.98,871.97c7.46-.27,50.83,29.36,60.09,34.5.53.29,1.45,2.5,1.68,3.05-6.39-2.08-59.04-33.85-61.77-37.55Z"/>
  <path class="st5" d="M1466.97,461.9c14.06,7.22,43.53,26.56,57.75,35.28l119.33,73.41v66.34c-31.94-14.77-65.21-29.06-97.44-43.5-5.35,7.77-33.55,50.29-38.33,53.45-16.04,10.6-47.03,26.5-64.8,36.1l-153.6,82.58c-.57,8.11,2.02,21.3,1.72,33.11,11.9,17.7,23.68,35.48,35.33,53.34l-9.79,5.39-.12,98.35-.06,16.95c19.17-10.66,38.43-21.16,57.78-31.47l.18,39.47c-41.84,23.2-90.32,47.85-132.92,69.7l-.39-240.61c26-35.97,52.73-79.49,77.14-117.28l148.22-230.59Z"/>
  <path class="st7" d="M1450.12,565.07c2.54,3.54,2.75,94.73,2.94,106.78-25,13.26-49.57,27.19-74.76,40.09l-1.34.13c-2.65-3.99-.12-96.58-.03-108.41,24.47-12.72,48.86-25.59,73.19-38.59Z"/>
  <path class="st4" d="M1447.84,569c2.07,2.99,2.34,89.42,2.47,101.49l-70.63,38.34-1.44-1.27,1.31-102.27c22.85-11.94,45.61-24.04,68.29-36.3Z"/>
  <path class="st10" d="M1441.86,577.93l1.26.64c2.13,6.34,1.12,77.72,1.16,89.46l-58.68,31.59-.61-.07c-.37-.5-.73-1-1.1-1.5.49-25.12.94-65.47,1.07-89.12,17.72-10.42,38.64-21.21,56.9-31Z"/>
  <path class="st0" d="M1435.43,583.86c1.72.07,1.06-.07,2.62.83,1.16,5.46.72,73.73-.63,78.58-4.6,5.8-41.07,24.43-49.07,27.56l-.52.08-1.17-.88c-.71-13.59-.6-66.99,1.76-78.82,4.27-5.87,37.84-22.47,47.01-27.35Z"/>
  <path class="st8" d="M1411.94,681.13l.46.47c-1.31,2.26-5.78,3.83-8.61,5.24l-.32-1.1,8.47-4.61Z"/>
  <path class="st5" d="M865.42,711.28c12.61-8.49,26.03-16.67,38.93-24.76l-.32,195.83c-18.25,11.53-37.38,24.02-55.85,34.99l-8.28,4.92-.41-164.24c-27.49,16.88-54.89,33.91-82.21,51.07l.4,164.63-214.2,134.6-.39-192.9,322.32-204.13Z"/>
  <path class="st8" d="M865.42,711.28c12.61-8.49,26.03-16.67,38.93-24.76l-.32,195.83c-18.25,11.53-37.38,24.02-55.85,34.99,5.33-55.04,9.92-110.15,13.76-165.31.84-13.45,3.14-27.62,3.47-40.74Z"/>
  <path class="st7" d="M700.42,854.89c.26.15.56.26.78.47,3,2.78,1.69,104.53,1.71,117.15l-78.43,48.71-1.76-.59c-1.63-4.23-.53-106.98-.52-118.21l78.22-47.52Z"/>
  <path class="st4" d="M698.55,858.94c2.29,2.51,1.47,100.24,1.48,112.34-24.5,15.73-49.55,30.41-74.08,46.32l-.55-.41c-1.1-4.1-.66-30.5-.65-35.96l.11-77.46,73.7-44.83Z"/>
  <path class="st7" d="M692.24,870.01l.92.52c2.13,6.26.93,85.61.94,97.47-20.1,11.48-40.68,25.16-60.95,37.13l-1.26-.4c-1.61-2.72-.99-87.6-1-97.72,19.88-11.21,41.64-25.04,61.35-37Z"/>
  <path class="st0" d="M683.94,877.83l1.28.23c1.6,3.1.67,75.65.62,85.88-16.67,10.72-33.55,21.12-50.62,31.18l-1.13-.81c-2.53-9.25-.74-72.27-.69-85.95l50.54-30.53Z"/>
  <path class="st4" d="M689.45,873.85c3.5,5.86,1.73,80.05,1.75,92.81-18.67,11.78-37.49,23.31-56.46,34.6v-1.86c3.97-3.94,45.78-29.38,53.72-34.34.34-24.14-.26-48.28.05-72.42.08-6.27-.05-12.57.94-18.78Z"/>
  <path class="st9" d="M1547.59,596.55l250.59,136.39-97.82,150.54-16.5,24.68c-19.39-9.57-45.58-26.35-65-37.34-49.43-27.98-98.5-58.52-148.14-86.11,13.63-7.02,16.37-16.93,25.77-28.09,5.52-6.55,10.42-12.18,15.53-19.2l.1-88.3c9.63-17.82,25.21-35.41,35.47-52.56Z"/>
  <path class="st6" d="M1257.31,357.95l.35.15c1.27,2.35-7.7,60.09-8.72,67.47l-45.2,327.87c-15.14-31.36-33.51-65.01-49.7-95.96l-56.27-107.08c-14.32-27.59-28.55-56.19-43.61-83.27,18.8-11.23,44.75-24.27,64.33-34.79l138.82-74.4Z"/>
  <path class="st8" d="M1472.23,811.6c11.16,5.69,25.5,14.7,36.63,21.28l66.15,39.14,68.96,40.77c14.17,8.34,30.22,17.28,43.73,26.23-.91,48.41,0,99.08-.07,147.76-4.8-1.32-33.83-19.59-39.51-22.99-34.29-20.65-68.68-41.12-103.17-61.41l.09-12.34-12.67-7.57.14-12.98c-19.96-12.5-40.01-24.86-60.15-37.07l-.13-120.82Z"/>
  <path class="st5" d="M1800.02,767.11c26.35,12.37,52.6,24.98,78.73,37.82l.02,174.98-18.79,10.62c.48-50.05-.05-100.93-.14-151.03-37.54,19.07-82.16,46.36-119.8,67.39l-21.55,12.12.3,151.76-28.67,16.32-.13-152.14c37.32-54.35,73.72-112.48,110.03-167.84Z"/>
  <path class="st6" d="M1507.81,651.25c2.45,2.75,1.22,75.62,1.19,85.52l-173.73,94.95-16.71-25.2c-8.67-13.18-17.41-26.31-26.22-39.39,22.69-11.29,46.75-24.77,69.13-36.83l146.34-79.04Z"/>
  <path class="st4" d="M1467.37,431.01c19.55,10.15,54.87,33.44,74.98,45.9l143.45,88.69v24.85l-217.95-134.22c-28.27,45.8-60.42,93.44-89.57,139.35l-87.78,136.47c-16.44,25.33-33.66,52.97-51.27,77.19l-.38-23.51c22.38-36.66,49.57-76.71,73.04-113.15l155.48-241.56Z"/>
  <path class="st9" d="M906.86,856.69l332.31,196.26c-.24,6.22,1.14,24.99-1.78,28.19-16.26-10.3-32.85-19.66-49.41-29.53l-101.81-60.43-138.45-81.99c-13.59-7.87-26.99-16.38-40.77-23.83-.33-9.15-.11-19.41-.09-28.66Z"/>
  <path class="st8" d="M341.81,534.73c2.41,2.08,23.56,42.71,26.87,48.89l112.63,211.94,34.71,64.5c5.6,10.35,12.31,22.25,17.22,32.88,1.43,3.1.73,20.18.65,24.7-11.47-17.2-31.22-56.87-41.34-75.91l-78.82-149.31c-21.51-43.33-48.12-90.12-71.03-133.43-59.58,55.84-121.01,110.04-180.68,166.4l.02-25.5c16.07-15.59,35.37-32.33,52.06-47.65l127.69-117.51Z"/>
  <path class="st0" d="M1441,801.12c1.98,2.11,1.19,128.16,1.23,142.16-13.12,8.28-42.94,22.6-58.13,30.69-2.1-2.57-.97-125.2-.94-141.19l57.84-31.67Z"/>
  <path class="st0" d="M823.95,781.06c1.27,3.08.8,132.67.86,143.28-17.22,11.32-37.98,23.75-55.7,34.43-1.67-3.59-.8-128.3-.75-143.45,18.44-11.56,36.98-22.98,55.6-34.25Z"/>
  <path class="st8" d="M1048.61,566.63c14.9,8.67,40.58,22.82,53.89,32.36.96,24.52-.1,51.55.54,76.34.2,7.7.75,38.43-.18,44.77-17.53-11.12-37.8-22.6-55.79-33.33l1.54-120.14Z"/>
  <path class="st10" d="M1053.86,576.17c5.99,2.54,36.64,21.53,43.16,25.45.56,36.24-.1,72.8.93,109.03-9.27-4.46-35.44-21.16-45.44-27.2.1-35.76.55-71.53,1.35-107.28Z"/>
  <path class="st0" d="M1061.17,617.2c5.59,1.75,27.02,15.47,32.34,19.43,3.32,2.48,2.05,25.07,1.98,30.57-6.57-3.22-28.67-16.22-33.69-21.45-2.43-2.53-1.37-23.75-.63-28.56Z"/>
  <path class="st0" d="M1060.51,653.75c6.67,2.48,28.29,14.66,33.92,19.83,1.78,1.63,1.11,23.1,1.06,27.41-7.39-3.22-25.46-14.75-32.33-19.63-4.24-3.02-2.72-21.31-2.65-27.61Z"/>
  <path class="st0" d="M1061.51,583.01c5.5,2.76,28.14,15.93,31.99,19.74,1.93,6.36,1.96,20.68,1.99,27.5-5.08-1.67-28.72-15.77-32.95-19.8-1.77-1.69-1.08-23.1-1.03-27.44Z"/>
  <path class="st6" d="M1055.83,681.85c6.31.35,35.92,18.68,39.85,23.23-4.75-.45-35.31-19.59-39.85-23.23Z"/>
  <path class="st8" d="M1056.07,614.43c4.78,3,2.68,25.32,1.97,31.31l-1.52-.72c-2.33-3.82-.69-25.05-.45-30.59Z"/>
  <path class="st8" d="M1056.31,580.44c.64.31,1.78,1.19,2.42,1.65,1.31,4.56.42,20.67.26,26.6h-1.71c-2.43-3.84-1.13-22.59-.97-28.25Z"/>
  <path class="st4" d="M884.12,679.32c-.55,5.11-5.11,16.2-7.24,21.39-35.77,24.25-77.08,49-113.78,72.3l-226.9,143.66.11-18.6c35.71-20.88,76.69-48.27,112.29-70.68l235.51-148.07Z"/>
  <path class="st6" d="M743.84,984.88l.65.63c.91,2.92-.5,23.05-.72,27.74-25.95,17.37-54.66,34.79-81.17,51.52l-117.41,74.39-.76-.66c-1.11-3.13-.51-22.66-.45-27.32l129.44-81.63c20.91-13.17,50.77-30.74,70.42-44.68Z"/>
  <path class="st4" d="M1801.42,741.69c33.33,18,78.09,37.95,113.21,54.75l-.08,22.82c-37.04-16.55-78.52-37.76-115.45-55.55l-44.02,67.88c-22.82,33.84-44.4,69.98-68.22,103.06l-1.14-15.61,115.7-177.34Z"/>
  <path class="st6" d="M1461.23,790.78c3.4-.28,3.82-.72,6.4-2.96,3.83.87,206.1,117.76,214.65,125.11.71,2.44.27,3.54-.97,5.72,2.7,3.91,2.45,9.97,2.77,14.89l-156.57-92.68c-8.12-4.77-52.95-29.77-55.41-34.26-.08-3.86-.02-4.38,1.24-8.03,1.24-.79.68-.28,1.27-2.08-1.47-2.68-3.02-4-6.03-3.59l-.08,2.99c-2.17-1.35-5.11-3.58-7.27-5.12Z"/>
  <path class="st1" d="M1461.23,790.78c3.4-.28,3.82-.72,6.4-2.96,3.83.87,206.1,117.76,214.65,125.11.71,2.44.27,3.54-.97,5.72-3.63-.98-29.26-16.23-34.78-19.44-32.66-19.27-65.44-38.35-98.33-57.24-4.14-2.45-8.23-4.96-12.29-7.54-4.91-2.17-16.62-9.37-21.67-12.29l-40.9-23.58c1.24-.79.68-.28,1.27-2.08-1.47-2.68-3.02-4-6.03-3.59l-.08,2.99c-2.17-1.35-5.11-3.58-7.27-5.12Z"/>
  <path class="st7" d="M1535.91,834.45l2.38-1.67c5.56,1.45,8.63,3.07,12.54,7.19l-2.63,2.02c-4.14-2.45-8.23-4.96-12.29-7.54Z"/>
  <path class="st5" d="M847.14,920.98c3.85.19,16.74,8.18,20.86,10.53-32.29,20.75-65.39,41.11-97.96,61.48l-20.65-11.31c4.69-2.68,16.73-8.82,18.92-12.72.06-2.94-.12-4.17,1.04-6.92,7.56-5.46,48.65-31.47,56.21-34.02,9.5,2.3,13.76-2.18,21.58-7.04Z"/>
  <path class="st4" d="M1854.48,844.99l2.12.34c1.16,3.13.59,13.81.58,17.66l.03,37.89.2,58.05c.03,6.88,1.54,31.07-2.28,35.35l-1.3-.25c-3.67-5.43-1.99-38.21-2-46.57l-.06-94.25-85.33,48.3c-12.16,6.9-25.33,14.14-37.25,21.5-2.6,1.6-2.03,1.96-2.42,4.72l-.02,100.85c-.01,8.1.85,31.24-.41,37.47-1.75,1.49-2.08,2.1-4.31,2.48-1.41-2.9-.9-132.59-.92-148.09,41.98-24.49,90.68-52.25,133.37-75.46Z"/>
  <path class="st5" d="M1453.01,794.46c2.58-1.61,5.38-3.95,8.22-3.68,2.16,1.53,5.1,3.77,7.27,5.12,2.23,4.53,1.29,122.18,1.29,136.98l-16.75,9.77-.03-148.18Z"/>
  <path class="st4" d="M835.87,763.05c.17.23.38.43.52.68.92,1.69,1.73,153.98.16,158.65-.81,2.4-1.54,3.13-3.79,4.13-1.63-2.49-1.36-137.62-1.41-152.77-19.24,11.06-44.92,27.07-63.91,39.64-1.95,1.29-1.45,5.51-1.52,8.37l-.04,102.54c-.06,10.76,1.66,37.82-1.52,46.26l-2.68.78,1.35.91.75-.62-2.11-.3c-2.71-5.68-1.54-46.64-1.54-55.45l-.07-105.61c25.18-15.88,50.45-31.61,75.81-47.2Z"/>
  <path class="st0" d="M1729.25,1045.36c37.73-22,78.89-44.02,115.72-66.52l-.15,19c-34.7,19.94-78.95,46.92-113.79,65.11l-.91.31-1.22-.82c-.83-4.59-.84-12.55.35-17.08Z"/>
  <path class="st2" d="M1731.03,1062.95l-.91.31-1.22-.82c-.83-4.59-.84-12.55.35-17.08,1.91,7.27-.61,12.59,1.78,17.59Z"/>
  <path class="st4" d="M1490.7,757.08l.27.18.13,1.25c-2.06,3.29-10.42,16.58-13.17,18.35-11.58,7.49-26.13,15.28-38.2,22.01-34.45,19.21-69.04,38.17-103.76,56.89-1.39-2.85-.75-10.03-.66-13.6,51.94-28.1,103.74-56.46,155.39-85.08Z"/>
  <path class="st6" d="M888.76,667.21c-.13,1.94-.21,4.47-.55,6.33-26.89,16.39-53.99,34.13-80.74,50.93l-163.5,102.69c-12.68,7.99-99.86,64.46-105.91,65.01,2.76-8.31,40.1-29.27,49.33-35.11l99.74-62.76c66.54-41.77,134.76-86.3,201.63-127.1Z"/>
  <path class="st0" d="M1842.51,900.93l1.66.47c1.33,4.37.75,10.26.62,14.99-12.47,7.9-27.78,16.09-40.72,23.49l-73.36,42.05-.85-.61c-1.22-3.46-.69-11.71-.62-15.76,37-20.32,76.72-43.43,113.27-64.63Z"/>
  <path class="st0" d="M1843.62,939.98l.6.58c1.15,3.58.65,11.33.57,15.5-35.8,21.42-77.1,44.71-113.5,64.76-2.91-3.07-1.85-11.08-1.78-15.96l114.11-64.88Z"/>
  <path class="st0" d="M1843.23,860.9l1.05.51c1.05,3.74.67,11.2.63,15.45l-114.23,64.99-.61-.3c-1.41-2.5-.74-12.53-.67-16.08,12.35-6.36,27.33-15.52,39.63-22.51l74.2-42.05Z"/>
  <path class="st0" d="M1843.57,959.99c1.86,1.88,1.34,12.78,1.36,16.08l-114.54,65.36c-1.57-4.34-.93-11.58-.77-16.37,37.36-22.09,76.21-43.36,113.95-65.06Z"/>
  <path class="st0" d="M1843.93,920.03c1.42,3.03.99,12.4.98,16.32l-114.46,65.26c-1.93-2.76-1.26-12.18-1.22-16.14l114.7-65.44Z"/>
  <path class="st0" d="M1843.15,880.8l1.16.51c1.04,3.88.58,10.71.49,15.03-33.82,21.26-78.72,45.37-114.06,65.33l-.69-.4c-1.29-2.77-.79-11.97-.76-15.51,37.47-21.38,76.98-42.98,113.86-64.96Z"/>
  <path class="st6" d="M1404.84,1023.17c3.37,1.65.35,24.7.02,29.04l-74.57,41.7c-1.72-12.33,5.17-8.3,11.91-15.12,4.16-4.21,2.03-6.25,3.33-11.02,3.02-3.62,8.52-5.91,12.88-8.19-.04-2.5-.3-5.38.26-7.82,1.23-5.36,38.72-24.43,46.17-28.59Z"/>
  <path class="st6" d="M1466.44,422.42c7.25,1.28,200.03,122.85,221.78,135.22,2.36,1.34,1.94,5.31,2.09,8-19.06-12.73-43.46-26.97-63.33-39.22l-120.25-74.19c-4.37-2.7-39.24-23.34-40.97-25.7l.68-4.11Z"/>
  <path class="st6" d="M1884.2,984.85l1.62.36c1.19,2.75.95,1.27.05,4.65-5.92,7-173.23,99.99-195.07,112.57l-1.2-.5-.75-2.04c2.04-7.38,13.52-11.52,20.34-15.37l40.39-22.88,134.62-76.79Z"/>
  <path class="st5" d="M870.27,944.13l11.63,6.52c-32.37,20.8-65.49,41.21-98.15,61.63l-12.61-6.73c10.59-5.89,24.13-14.91,34.61-21.46,21.43-13.44,42.93-26.76,64.51-39.96Z"/>
  <path class="st5" d="M883.36,963.7c2.25.56,9.83,5.28,12.31,6.75l-96.95,60.42-12.75-6.59c31.51-19.56,66.65-40.32,97.39-60.58Z"/>
  <path class="st6" d="M1602.02,621.99c.12-.03.24-.06.35-.09,11.2,3.98,33.95,13.65,43.65,18.88,47.89,25.83,95.5,51.94,143.1,78.02,8.58,4.7,58.99,31.73,63.82,36.23-6.55-1.78-26.79-12.03-33.74-15.36-50.68-24.29-100.07-53.31-149.74-79.67-8.94-4.75-62.93-33.79-67.44-38.01Z"/>
  <path class="st4" d="M1373.32,837.73c.06.06.13.12.19.19,3.15,3.7,1.48,88.6,1.47,100.16-18.4,10.19-36.87,20.23-55.42,30.13l.2-109.27c2.67-1.75,5.06-3.78,8.17-3.94,2.42,1.79,1.77.66,2.52,3.11l-4.69,3.6c-1.35,2.78-.72,87.43-.72,98.37,12.79-6.83,33.3-17.33,45.01-24.91.01-24.37-.57-68.72.8-94.82.95-1.02,1.78-1.9,2.47-2.64Z"/>
  <path class="st6" d="M1303.75,1021.21c1.65-.19.87-.38,2.3.69l-.04,3.62c-2.42,3.92-10.6,7.19-14.96,9.29l-.06,10.4-15.34,7.96-.15,10.24-31.56,17.78-1.15-.24c-1.33-3.08-.79-22.97-.77-27.74,20.4-10.04,41.49-21.44,61.73-32Z"/>
  <path class="st6" d="M903.85,886.18l1.82,1.46c.95,5.93.47,18.73.41,25.25-7.66,4.09-23.79,14.56-31.11,19.53-3.86-2.52-8.42-5.04-12.45-7.4-3.51-2.03-7.36-3.97-10.97-5.87,15.05-10.03,36.81-24.36,52.3-32.97Z"/>
  <path class="st6" d="M341.71,563.71c2.05,1.87,1.88,1.77,2.83,4.4-1.92,2.65-16.15,15.05-19.76,18.29l-45.04,40.66-72.78,66.09c-14.38,13.05-15.75,17.96-33.57,27.34l-1.26.34-.36-.85c54.01-51.94,114.36-105.86,169.95-156.27Z"/>
  <path class="st9" d="M747.27,983.47c4.24,1.73,16.25,8.55,20.96,11.09l-.02,12.07c4.02,2.05,9.38,4.33,12.45,7.4,2.69,24.88,17.48,7.58,16.08,27.12-14.09-7.67-37.61-20.06-50.32-27.89.83-10.15.8-19.62.85-29.8Z"/>
  <path class="st6" d="M1882.77,978.54c1.03.21,1.67.77,2.67,1.37l-.86,1.58c-19.14,10.1-44.47,25.35-63.72,36.34l-132.96,75.87-128.32-76.8c-1.14-.4-1.04-.62-2.01-1.67l.78-1.21c9.85,3.98,34.8,20.06,45.09,26.09,28.43,16.63,56.61,34.42,85.37,50.53l131.14-75.68c10.19-5.81,59.31-30.79,62.82-36.42Z"/>
  <path class="st5" d="M1443.15,1060.48c21.85-11.46,45.94-25.79,67.66-38.02,3.37,1.98,9.01,5.05,12.05,7.16l-67.67,38.54-12.04-7.68Z"/>
  <path class="st5" d="M1428.09,1041.48c22.58-11.7,48.49-26.55,70.65-39.22,3.89,2.08,8.27,4.01,11.26,7.12l-69.8,39.4-12.11-7.3Z"/>
  <path class="st0" d="M1361.87,875.92c2.56,2.9,1.35,21.15,1.27,26.13-11.56,5.91-22.73,11.59-33.99,18.11l-.89-.83c-1-4.43-.39-19.63-.31-24.97l33.92-18.43Z"/>
  <path class="st0" d="M1361.26,844.84l1.24.5c1.05,4.81.64,17.31.62,22.81-8.83,5.59-23.69,12.94-33.3,18.05-1.56-.24-.79.05-2.1-1.63-.11-3.46-.65-18.07.5-19.94,2.94-4.78,27.9-17.02,33.04-19.79Z"/>
  <path class="st0" d="M1361.15,909.83l1.4.46c1.11,4.17.54,16.62.47,21.56l-32.9,18.33c-.54-.06-1.35-.53-1.9-.79-1.02-5.64-.6-15.77-.55-21.85l33.48-17.72Z"/>
  <path class="st4" d="M881.6,953.91l.7.62c1.04,2.67.86,2.69.46,5.42-2.34,3.85-85.2,54.35-96.19,61.24-1.66-1.85-1.21-4.46-.94-6.71,5.49-4.62,25.57-16.46,32.47-20.75l63.51-39.83Z"/>
  <path class="st4" d="M868.94,933.89c.35,1.67,1.11,6.8-.41,7.9-10.53,7.59-22.17,14.24-33.21,21.03l-64.28,40.08c-.29-2.05-.7-4.11-.17-6.14.82-3.14,88.22-56.61,98.08-62.86Z"/>
  <path class="st4" d="M895.88,973.11c.7,1.4.68,3.25.84,4.93-2.13,4.52-13.36,10.67-18.22,13.71-25.77,16.15-51.57,32.24-77.33,48.4-1.48-1.37-1.14-1.88-1.68-4.29,2.34-5.72,26.22-18.98,32.79-23.08l63.6-39.67Z"/>
  <path class="st8" d="M924.54,653.75c.2,5.77.28,10.87.18,16.64-15.84,10.27-31.79,20.38-47.83,30.32,2.12-5.19,6.68-16.28,7.24-21.39,12.79-8.76,27.28-17.05,40.42-25.57Z"/>
  <path class="st5" d="M1292.19,1047.11c15.99,9.13,33.51,20.4,49.34,30.13l-12.77,6.82c-14.37-7.72-35.25-21.36-49.62-30.13l13.05-6.82Z"/>
  <path class="st6" d="M1051.62,506.7l2.42,2.25-.12,2.03c-17.91,17.55-43.56,38.58-62.59,55.59-15.1,13.51-45.15,41.05-60.78,50.52l-1.08-.25c.57-2.16,111.92-101.23,122.15-110.15Z"/>
  <path class="st5" d="M1307.69,1029.09c14.49,8.19,32.92,20.47,47.37,29.5l-11.95,6.43-48.5-29.72,13.08-6.21Z"/>
  <path class="st4" d="M1520.08,1043.5c-15.29,8.82-44.27,25.72-60.8,34.76-.86-.07-1.72-.15-2.57-.23-1.13-1.91-1.56-3.02-.93-5.26,1.71-6.03,56.49-34.35,66.01-39.57-.51,3.28-1,7.12-1.71,10.3Z"/>
  <path class="st6" d="M1800.34,733.53c31.07,13.49,85.62,41.4,117.86,57.21.93.46.51,3.48.48,5.02-10.86-5.31-119.23-56.88-119.86-58.23l1.52-4Z"/>
  <path class="st6" d="M1294.21,784.73c4.24,3.37,34.24,50.51,38.69,57.41l-.08,13.13c-5.71-4.8-32.31-47.51-38.73-57.24l.12-13.3Z"/>
  <path class="st4" d="M1506.56,1022.06c-6.88,3.89-59.59,34.73-63.78,35.46-.91-3.22-.85-3.05-.11-6.36,2.45-3.48,55.66-32.42,64.05-36.96,1.33,3.19.68,4.27-.16,7.86Z"/>
  <path class="st4" d="M1496.81,1000.56c-8.3,4.67-64.46,37-68.12,36.77-4.01-7.77,15.48-15.25,21.22-18.41l40.5-22.72,6.4,4.36Z"/>
  <path class="st8" d="M1543.12,1004.44l11.77,7.05c-10.63,6.13-21.3,12.17-32.03,18.13-3.04-2.11-8.68-5.18-12.05-7.16,10.65-5.95,21.59-12.27,32.31-18.02Z"/>
  <path class="st5" d="M1378.84,834.6l1.17,1.01c2.14,9.88.97,140.56-1.07,145.73l-1.46-1.88c-.88-11.69-.28-140.31,1.36-144.85Z"/>
  <path class="st8" d="M1530.45,984.47l11.59,6.9c-10.75,5.88-21.43,11.88-32.04,18.01-2.99-3.11-7.37-5.04-11.26-7.12,10.7-5.71,21.27-11.64,31.71-17.79Z"/>
  <path class="st8" d="M1449.13,795.7l1.26,1.53c1.11,13.03,1.36,141.52-.52,148.07l-1.44-1.84c-1.02-13.61-1.12-142.33.7-147.76Z"/>
  <path class="st8" d="M1277.84,1056.37c6.18,2.07,39.99,23.74,47.85,28.95,2.11,1.41,1.8,5.35,2.03,8.3-5.87-1.93-39.43-24.63-47.56-29.02-2.38-1.29-2.04-5.12-2.32-8.23Z"/>
  <path class="st8" d="M1293.33,1037.49c15.12,9.08,32.95,19.21,47.43,29.45,1.6,1.12,1.35,6.09,1.41,8.39-15.07-9.87-32.32-18.99-47.01-29.54-2.39-1.71-1.75-5-1.83-8.3Z"/>
  <path class="st8" d="M1308.43,1019.42c13.68,7.18,32.46,20.05,45.78,28.77,2.12,1.39,1.94,4.91,2.24,7.55-8.31-2.9-36.93-22.33-46-28.17-2.07-1.33-1.78-5.27-2.02-8.15Z"/>
  <path class="st8" d="M1521.79,1033.2c5.85-3.37,24.82-15.26,29.66-15.71,2.73,1.48,1.88.39,2.73,3.26-3.12,7.27-26.17,18.38-34.1,22.75.71-3.18,1.2-7.02,1.71-10.3Z"/>
  <path class="st8" d="M827.23,778.61c.24.2.52.36.74.59,2.17,2.31,1.49,132.08,1.14,146.24l-1.04-.93c-2.02-4.32-.93-129.96-.83-145.9Z"/>
  <path class="st5" d="M1490.41,996.2c5.81-3.27,34.31-20.82,39.16-19.84-.34,9.22-24.54,20.12-32.76,24.19l-6.4-4.36Z"/>
  <path class="st5" d="M1506.72,1014.2c6.68-4.25,28.41-17.58,35.22-18.14l2.08,2.29c-3.22,6-30.15,19.65-37.46,23.71.84-3.59,1.49-4.67.16-7.86Z"/>
  <path class="st8" d="M1847.73,857.46c.16.22.35.41.47.65,1.69,3.08,2.44,125.87.32,138.68-3.07-4.79-.21-80.21-1.14-92.92-.57-7.81-.35-37.49.35-46.41Z"/>
  <path class="st9" d="M888.76,667.21c4.55-3.07,35.64-23.34,38.6-22.81l-.72-.74h.04s.59,1.13.59,1.13c-5.58,9.92-28.11,21.58-39.06,28.76.34-1.86.42-4.39.55-6.33Z"/>
  <path class="st8" d="M1364.96,870.1c-1.61,4.27-30.82,18.4-37.11,21.71l.18-1.7c8.85-5.91,26.89-14.93,36.93-20.01Z"/>
  <path class="st6" d="M1365.46,873.41l1.28.45c2.31,3.86,1.01,23.92.85,29.46-3.89-3.07-2.22-24.27-2.13-29.9Z"/>
  <path class="st6" d="M1366.2,841.7c3.16,2.59,1.56,23.96,1.38,29.27-3.62-4.75-2.51-23.19-1.38-29.27Z"/>
  <path class="st9" d="M1365.8,906.54c.54.42,1.31,1.43,1.8,2.01.77,7.62.28,17.24-.5,24.88l-1.44-1.83c-.68-6.21-.88-18.93.14-25.05Z"/>
  <path class="st7" d="M838,857.5c1.45,1.9.99,4.51.97,7.1-1.53-1.74-.96-4.22-.97-7.1Z"/>
  <path class="st9" d="M320.2,548.61l2.7-.96-2.13,1.07c-.87,1.34-.28.84-1.77,1.49l1.2-1.6Z"/>
  <path class="st9" d="M1407.71,517.93c.17-.73.75-1.24,1.29-1.93-.16.71-.76,1.26-1.29,1.93Z"/>
  <path class="st9" d="M346.04,533.45l1.55-.22,1.1,3.2-2.92-1.35.28-1.63Z"/>
  <path class="st9" d="M1409,516c.63-1.26.41-1.41,1.31-1.97l-1.31,1.97Z"/>
</svg>