<?xml version="1.0" encoding="UTF-8"?>
<svg id="Layer_1" xmlns="http://www.w3.org/2000/svg" version="1.1" viewBox="0 0 1242.75 978.17">
  <!-- Generator: Adobe Illustrator 30.5.1, SVG Export Plug-In . SVG Version: 2.1.4 Build 3)  -->
  <path d="M772.68,906.01c5.9-.32,11.88.65,17.79.79,10.87.26,22.79-1.28,33.44-3.64-3.63-4.41-8.11-9.01-7.61-15.2.17-2.17,1.13-4.21,2.88-5.55,1.7-1.31,3.92-1.69,6.01-1.31,3.4.62,6.59,2.99,8.38,5.91,1.89,3.09,3.1,6.68,4.69,9.93,12.78-34.14,25.82-108.11,23.87-144.85-.86-16.19-7.11-32.01-6.11-48.26.89-14.3,8.91-29.57,10.88-45.12-14.91-3.91-29.3-9.27-43.54-15.14,6.71-4.13,13.42-8.55,18.57-14.6,16.36-19.19,32.33-67.55,38.3-92.6,2.82-11.84,4.55-23.84,3.87-36.03-.93-16.86-6.12-33.04-10.12-49.34-5.17-21.06-8.99-42.07-9.69-63.78-4.51,10.57-7.48,21.96-13.07,32.02-14.77,26.54-35.31,50.28-49.01,77.42-5.6,11.09-7.08,37.21-16.3,43.67-1.25.3-2.13.34-3.38.23-2.19-.2-4,.47-6.14.7-7.23.76-13.42-2.27-18.1-7.63-1.11-1.26-2.13-2.59-3.08-3.98-.95-1.39-1.8-2.83-2.57-4.32-.77-1.49-1.44-3.03-2.03-4.6-.58-1.58-1.07-3.18-1.45-4.81,7.55-20.2,19.46-15.52,28.04-29.88,9.86-16.49,18.86-40.14,27.35-58.14,6.53-13.84,15.41-26.08,22.12-39.68,5.55-11.26,8.62-23.19,13.4-34.69-3.88-3.19-7.68-6.46-11.42-9.81,11.68-23.62,21.77-48.35,34.64-71.32-1.54-11.79-2.04-25.16-6.75-36.13-11.32,2.36-26.61,6.94-37.05-.04-6.36-4.25-18.33-20.48-19.53-27.61-.59-3.48-1.21-4.28-3.73-6.81l1.82-8.89c-3-3.03-7.54-6.62-7.32-11.35.35-7.27,12.07-10.87,13.02-21.02.8-8.44-4.75-16.11-6.93-24.01-5.83-21.11,2.3-46.6,19.29-60.38,20.45-16.58,52.85-22.06,78.42-19.08,7.92.92,15.39,3.02,22.91,5.62,3.41-13.68,9.58-25.28,21.94-32.84,7.98-4.88,16.53-6.38,25.78-5.69,7.08,1.53,13.27,3.59,19.55,7.26,17.39,10.16,29.61,26.15,51.3,27.45,6.96.42,13.44-1.01,19.35-4.79,4.36-2.79,7.78-6.54,11.38-10.21-2.27,11.14-6.14,19.63-16.04,26.08-5.67,3.69-11.98,5.27-18.51,6.68,4.53,4.14,9.91,7.13,16.22,6.93,6.38-.21,11.73-3.72,15.93-8.32,2.42-2.66,4.34-5.85,6.29-8.86-1.56,12.02-5.01,22.04-14.9,29.77-12.08,9.45-29.3,13.99-44.45,12.05-4.64-.59-9.09-1.99-13.53-3.42,4,6.53,7.45,11.45,15.31,13.52,9.93,2.61,21.2.11,30.7-3.02-11.69,11.03-27.79,18.1-44.03,17.71-12.8-.3-25.62-5.18-34.48-14.59-11.83-12.56-14.62-37.68-25.5-44.49-3.76-2.35-8.35-3-12.64-3.81,16.68,13.86,25.28,31.02,27.38,52.67,2.17,22.45-4.91,46.72-19.27,64.17-7.35,8.93-16.89,15.33-26.73,21.21-3.14,10.45-3.1,20.63-.56,31.21,20.69,7.36,37.39,8.34,55.69,21.3-.77-7.28-2.61-18.9,2.14-25.15,5.85-7.7,22.54-12.96,31.88-13.69,3.38-.27,6.54-.11,9.16,2.23,3.9,3.49,5.96,9.21,8.14,13.89,9.11-1.03,21.19-3.38,29.04,2.55,2.97,2.24,10.46,10.17,12.57,13.27,1.07,1.57,1.56,3.65,1.79,5.51.61,4.84.18,8.33,2.99,12.53,9.16,3.4,12.19,5.86,16.27,14.86,4.36,9.61,13.53,31.11,10.04,40.88-1.78,4.97-5.47,8.74-9.59,11.86,11.24,13.09,23.1,25.21,32.03,40.11,4.33,7.22,8.36,14.98,11.61,22.74,5.57,13.28,8.77,31.33,20.14,40.96,8.54,7.24,29.56,17.28,34.41,25.76,1.98,3.47,2.08,8.43,1.75,12.29-.51,5.95-2.3,12.37-6.12,17.04-1.23.46-2.35.79-3.65,1.01-.53,1.01-.64,1.73-.77,2.83-.52,4.35-3.56,9.76-7.03,12.46-1.56,1.21-2.56,1.34-4.49,1.36-3.63-1.72-8.97-14.18-11.57-18-4.61-6.8-10.58-13.96-16.95-19.19l.02,1.07c.08,3.09.41,5.3,1.58,8.2,1.23,3.04,3.39,7.14,1.9,10.38-.6,1.31-1.84,2.35-3.15,2.86-4.01-1.46-8.57-8.9-10.39-12.74-5.95-12.52-1.17-21.08-4.05-32.29-1.77-6.89-6.75-13.08-9.94-19.37-2.58,13.2-10.33,21.9-21.26,29.25-20.08,13.49-44.75,22.87-69.15,21.76,18.1,36.74,10.66,74.29,56.44,90,8.21,2.82,16.8,4.39,25.31,6.02-21.16,23.6-44.68,40.1-71.47,56.6,3.3,8.92,7.67,17.35,11.93,25.83,23.77-31.92,81.79-50.26,120.17-57.64-.67-4.97-1.4-8.68,1.76-13.02,1.55-2.13,3.65-3.67,5.97-4.88,5.73-2.99,33.77-13.6,39.31-14.29,2.34-.29,4.55-.21,6.5,1.32,9.17,7.21,24.96,55.02,28.38,68.1,2.48,9.51,4.46,19.42,5.19,29.22.61,8.11.72,17.83-4.8,24.41-3.25,3.87-8.34,5.46-13.26,5.67-7.83.34-18.2-8.21-23.54-13.32-10.36-9.92-15.34-20.26-20.03-33.52l-8.11.13c.04,4.34.59,8.67-2.66,12.07-1.51,1.57-3.42,2.45-5.6,2.5-.31,0-.62,0-.94-.03-.31-.02-.62-.06-.93-.12-.31-.05-.61-.12-.91-.21-.3-.08-.6-.18-.89-.3-.29-.11-.58-.24-.85-.38-.28-.14-.55-.3-.81-.47-.26-.17-.52-.35-.76-.55-.24-.19-.48-.4-.7-.62-1.85-1.78-2.09-3.8-2.01-6.22.21-6.07,2.29-11.94,2.85-17.97-17.67,6.1-34.09,13.12-50.14,22.77-11.95,7.01-23.47,14.66-34.57,22.95-15,11.37-30.99,32.54-52.66,26.86-17.06-4.48-36.32-40.29-45.36-55.05-17.14,5.11-33.36,7.7-51.26,5.81-5.88,10.91-14.54,23.55-17.04,35.73-2.07,10.1,2.66,21.96,3.61,32.17.38,4.14.64,8.3.77,12.45.13,4.16.14,8.32.01,12.48-.12,4.16-.37,8.31-.75,12.46-.37,4.14-.88,8.27-1.5,12.39-6.01,37.86-21.39,83.24-34.34,119.79,2.28,1.17,5.79,2.5,6.58,5.22,1.32,4.57-2.68,12.5-3.32,17.35-1.52,11.64.17,34.39-6.9,43.65-2.18,2.85-5.72,4.03-9.16,4.36-20.29,1.93-86.53-21.22-102.53-35.23-3.21-2.82-5.74-5.83-6.06-10.27-.5-7.04,3.73-17.25,8.28-22.39,2.79-3.15,6.48-3.49,10.47-3.71Z"/>
  <path d="M307.67,442.82c2.3-6.61,15.91-15.15,22.08-17.89,4.92-2.2,10.33-1.18,15.12.83,21.25,8.87,17.62,19.87,44.99,9.23v.02c4.07-1.84,7.76-3.77,10.52-5.27,17.86-9.63,33.33-22.81,50.83-32.86-5.05-37.34-13.66-108.83,9.57-140.58-.43-7.8-3.78-14.89-3.51-22.62.01-.3,0-.6,0-.89,4.25-3.64,8.76-6.6,13.61-9.39-.27-4.44.19-9.72-3.45-12.9-11.66-10.22-40.99-2.76-49.75-14.39-2.11-2.8-2.32-6.57-2.61-9.95-.49-5.76-1.15-9.19-3.83-14.42.29-2.01.95-4.15-.13-5.99-1.6-1.29-2.32-1.54-2.88-3.56l.56-.84c2.41-3.7,2.8-4.82,1.86-9.28l-.21-.95c-3.42-2.15-8.66-4.68-9.77-8.92-.45-1.74.02-3.33,1.01-4.77,2.79-4.08,7.32-6.73,10.28-10.67,7.63-10.12,4.81-26.52,4.32-38.21-1.92,3.7-4.08,7.42-5.52,11.33-7.45-7.09-9.13-14.93-9.44-24.84l-.03-1.21c-4.36,5.57-8.57,11.43-12.27,17.46-3.22-15.94-.02-31.22,8.92-44.87,15.55-23.73,48.88-39.13,75.84-44.46,22.34-4.41,46.12-1.67,65.24,11.39,2.46,1.68,4.75,3.62,7.03,5.53-1.67-5.3-4.68-12.21-3.92-17.73l.7-1.03c8.49,6.95,7.61,12.72,12.82,18.17.15-.12.29-.24.44-.35,3.09-2.43,8.68-3.92,12.59-3.26,1.24.21,1.73.39,2.63,1.21-1.53,3.8-7.96,8-11.14,10.55,15.5,6.72,26.89,16.03,33.17,32.15,8.55,21.95,3.69,48.38-5.64,69.28-1.14,2.49-2.35,4.96-3.62,7.38-1.28,2.43-2.62,4.82-4.02,7.17-1.41,2.35-2.88,4.67-4.41,6.94-1.53,2.27-3.13,4.5-4.78,6.69-1.66,2.19-3.37,4.33-5.14,6.42-1.77,2.09-3.6,4.13-5.49,6.13-1.89,1.99-3.82,3.93-5.82,5.82-1.99,1.89-4.03,3.71-6.13,5.49-5.83,4.98-13.57,9.9-18.27,15.79-1.93,2.42-2.93,6.82-1.55,9.72,1.05,2.2,3.68,3.08,5.88,3.6,4.19.98,7.23,1.52,10.84,4.13,1.51,3.18,2.68,6.18,3.65,9.55,33.61,1.45,68.57,5.57,101.62,12.04,0,3.18.13,6.4-.16,9.58,33.97,4.14,36.15,6.91,57.23,33.83,20.91,26.7,36.95,56.72,54.37,85.67,6.51,10.82,30.36,42.8,29.1,54.46-.69,6.36-7.23,11.66-12.03,15.3-5.8,4.4-17.58,12.25-24.98,11.47-6.96-.73-18.37-12.05-22.45-17.42-3.26-4.29-3.5-9.79-2.64-14.91,3.8-22.71,15.33-21.69-1.26-45.91-7.42-10.83-16.32-20.75-24.87-30.68-12.76-14.82-25.79-29.66-39.47-43.64-6.43-.18-12.81-.48-19.23-1.01-1.35,5.81-3.26,11.41-5.18,17.05-13.62-4.81-27.3-9.42-40.61-15.03,8.98,9.25,17.88,18.44,27.53,27,23.79,21.1,77.03,63.86,88.56,92.26,1.72,4.23,2.45,8.93,2.36,13.49-.06,3.29-.39,7.02-1.67,10.08-3.86,9.23-20.12,23.76-27.91,31.09-13.89,13.08-30.72,24.9-48.66,31.67,6.32,27.27,5.03,51.7-6.91,77.27-3.01,6.46-7.96,12.3-10.44,18.92-6.37,17.04-9.18,35.75-14.74,53.17,12.11-12.71,24.55-25.1,37.3-37.16,11.11-10.37,22.73-20.27,33.55-30.94-1.53-10.82.48-18.96,7.14-27.69,5.47-7.17,12.72-13.45,21.74-15.31,16.01,3.76,53.45,35.92,65.02,48.4,3.76,4.06,7.3,8.31,10.63,12.73,3.33,4.42,6.43,9,9.29,13.74,7.55,12.23,18.18,33.5,14.76,48.32-1,4.35-3.52,8-7.42,10.23-.69.39-1.4.74-2.12,1.06-.73.32-1.47.6-2.22.84-.75.24-1.52.45-2.29.61-.77.17-1.55.3-2.34.39-.79.09-1.58.14-2.37.15-.79.01-1.58-.02-2.37-.08-.79-.07-1.57-.17-2.35-.32-.78-.14-1.55-.33-2.31-.55-12.3-3.48-16.47-13.81-24.32-22.47-14.13-15.59-37.63-20.77-57.88-17.98-29.58,31.89-52.26,69.47-80.82,102.2-5.2,5.96-10.66,13.47-16.87,18.3-6.57,5.11-16.36,8.75-24.65,9.02-12.73.42-24.01-6.26-32.83-14.92-16.88-16.56-18.77-39.34-20.51-61.62-4.93,10.82-10.43,22.27-14.13,33.57,6.58,16.24,14.13,29.81,17.56,47.47,2.93,15.07-.51,26.89-.02,41.5,1.12,33.63,8.09,67.56,18.39,99.49.25-.05.51-.09.77-.13,2.33-.38,3.97-.71,6.01.8,7.13,5.27,12.45,24.85,13.47,33.41.79,6.63,2.08,25.03-2.57,29.95-7.25,7.68-115.44,7.54-131.05,5.6-4.29-.53-13.47-1.37-16.46-4.69-2.95-3.26-2.23-9.02-1.52-12.96,1.36-7.53,5.1-13.26,11.43-17.56,8.62-5.84,19.34-8.41,29.04-11.88,9.49-3.39,32.71-13.93,39.52-20.85,1.07-1.09,2.2-2.15,3.33-3.19l-38.01-113.62c-6.6-19.84-18.27-48.51-19.95-68.64-3.12-37.37,16.97-115.05,29.41-151.99,4.9-14.53,12.14-28.05,17.2-42.42-3.61-1.27-6.72-2.05-8.89-5.41-.85-4.51,2.47-9.55,2.25-14.25-.38-8.31-1.82-16.84-2.71-25.12-1.62-14.82-2.93-29.67-3.95-44.54-19.64,7.88-39.56,14.96-59.77,21.23-9.51,2.97-19.2,5.57-28.73,8.58-13.75,4.81-47.02,18.87-57.49,15.19-6.03-2.12-9.7-9.69-12.16-15.2-2.96-6.65-7.93-19.91-5.48-26.93Z"/>
  <path d="M0,413.59"/>
</svg>