<?xml version="1.0" encoding="UTF-8"?>
<svg id="Layer_1" xmlns="http://www.w3.org/2000/svg" version="1.1" viewBox="0 0 434.81 357.85">
  <!-- Generator: Adobe Illustrator 30.3.0, SVG Export Plug-In . SVG Version: 2.1.3 Build 182)  -->
  <defs>
    <style>
      .st0 {
        fill: #82c057;
      }

      .st1 {
        fill: #b9babc;
      }
    </style>
  </defs>
  <path class="st0" d="M125.27,136.64c7.81-.79,15.88,1.06,22.58,5.15,6.42,3.88,11.62,9.8,14.6,16.68,4.38,9.96,4.07,21.82-.98,31.48-3.58,7.03-9.52,12.81-16.61,16.25-4.86,2.32-10.15,3.64-15.55,3.64-7.21.13-14.45-2.01-20.46-5.98-5.65-3.67-10.21-8.94-13.07-15.05-3.98-8.31-4.59-18.06-1.79-26.83,2.6-8.2,8.16-15.39,15.46-19.93,4.76-3.02,10.22-4.82,15.82-5.4M132.24,169.04c-6.36,0-12.72-.04-19.08-.05-1.7-.04-3.32.86-4.15,2.34-.62,1.07-.64,2.34-.65,3.53.03,6.32-.05,12.67-.03,18.98,0,2.46,2.03,4.6,4.52,4.61,5.06.07,10.13,0,15.19.07,4,.22,8,.08,12.01.15,1.6,0,3.15.06,4.47-.99,1.34-1.01,1.93-2.5,1.92-4.15.03-6.22,0-12.45.06-18.66,0-1.25-.05-2.42-.72-3.51-.79-1.35-2.26-2.16-3.81-2.25-1.86-.1-3.73,0-5.59-.04.02-3.87.02-7.75.05-11.61.02-2.72,2.18-5.12,4.87-5.44,2.3-.3,4.59.94,5.64,2.99.9,1.6.57,3.84.61,5.63.06,2.19-.17,4.44.07,6.61.59.87,1.58.95,2.54.85.77-.12,1.55-.54,1.49-1.44.05-3.16.04-6.34.03-9.5-.02-3.03-1.64-5.79-4.06-7.55-2.73-1.95-6.44-2.35-9.52-.99-2.84,1.24-5.05,3.92-5.64,6.97-.22,1.04-.2,2.09-.21,3.16,0,3.43-.03,6.87-.02,10.3h.01Z"/>
  <path class="st0" d="M127.41,176.27c2.06-.05,3.9,1.89,3.66,3.96-.05,1.45-.98,2.23-1.98,3.13-.05,1.92-.03,3.83-.02,5.75-.02.66,0,1.43-.28,2.04-.35.46-.93.78-1.39,1.12-.71-.54-1.63-.81-1.63-1.85-.11-2.35.04-4.7-.03-7.05-.91-.84-1.81-1.54-1.98-2.85-.38-2.16,1.47-4.28,3.65-4.23h0v-.02Z"/>
  <g>
    <path class="st0" d="M172.56,176.17h2.61c.76,0,1.4.16,1.91.48.51.32.89.75,1.14,1.3s.37,1.15.37,1.83-.13,1.33-.4,1.93-.67,1.09-1.21,1.46c-.54.37-1.19.56-1.96.56h-2.46v-7.55h0ZM175.04,182.5c.46,0,.85-.12,1.16-.37s.55-.57.7-.97c.15-.4.23-.83.23-1.29s-.08-.87-.24-1.24c-.16-.37-.4-.67-.71-.89-.32-.22-.71-.33-1.18-.33h-.99v5.1h1.03Z"/>
    <path class="st0" d="M179.63,182.78v-6.61h1.45v7.55h-1.45v-.94Z"/>
    <path class="st0" d="M183.52,183.75c-.39-.05-.77-.13-1.15-.22v-1.57c.11.06.24.12.37.17s.27.1.42.15c.15.04.3.08.45.12.16.04.33.07.5.08.17.02.33.03.49.03.26,0,.49-.03.69-.09s.37-.15.48-.28c.12-.13.17-.29.17-.5,0-.23-.12-.41-.36-.55s-.61-.3-1.11-.47c-.45-.15-.81-.3-1.09-.45-.28-.15-.52-.37-.72-.66s-.3-.67-.3-1.13c0-.74.24-1.31.72-1.71s1.13-.6,1.95-.6c.3,0,.63.03.98.08s.69.12,1.02.22v1.53c-.15-.08-.32-.15-.5-.21s-.38-.12-.57-.17c-.17-.04-.34-.07-.5-.09s-.32-.03-.47-.03c-.38,0-.68.07-.91.2s-.34.36-.34.67c0,.19.05.34.15.46.1.12.23.22.39.29.16.08.38.16.67.25.5.16.91.33,1.25.49s.63.4.87.69c.25.3.37.68.37,1.14,0,.72-.26,1.28-.77,1.67s-1.2.58-2.06.58c-.33,0-.7-.03-1.09-.08h0Z"/>
    <path class="st0" d="M188.15,181.8c.15-.42.37-1.05.67-1.88.22-.62.39-1.09.5-1.41.11-.31.22-.63.33-.94s.28-.78.5-1.4h1.14c.45,1.25.89,2.51,1.34,3.77.3.86.53,1.49.68,1.91s.37,1.04.67,1.87h-1.41c-.05-.14-.09-.24-.11-.32-.02-.07-.05-.14-.07-.21s-.06-.17-.11-.31c-.04-.11-.07-.19-.08-.24-.02-.05-.05-.13-.08-.24h-2.77c-.04.12-.07.21-.09.26-.02.06-.05.14-.09.25-.04.13-.08.23-.1.3-.03.07-.05.13-.07.2-.02.07-.06.17-.11.3h-1.41c.31-.86.54-1.5.68-1.92h-.01ZM191.09,181.22h.6c-.13-.35-.22-.62-.28-.79s-.15-.43-.27-.78c-.07-.21-.13-.43-.19-.68s-.12-.54-.18-.89h-.09c-.06.35-.12.64-.18.89s-.12.47-.19.68c-.13.35-.22.62-.28.79s-.15.43-.27.78h1.33Z"/>
    <path class="st0" d="M194.59,176.17h3.12c.42,0,.78.08,1.1.24s.57.4.76.7c.18.31.27.68.27,1.12,0,.33-.06.65-.18.95s-.3.56-.55.78-.54.38-.9.48v.18c.25.15.49.39.72.72s.57.89,1.03,1.69c.14.23.27.46.41.69h-1.57c-.35-.54-.6-.94-.77-1.21s-.42-.66-.75-1.19c-.17-.26-.3-.46-.39-.59-.09-.13-.16-.19-.19-.19h-.66v3.18h-1.45v-7.55h0ZM196.71,179.39h.65c.32,0,.57-.09.75-.26.18-.18.27-.44.27-.8,0-.3-.09-.52-.26-.68-.18-.16-.41-.24-.71-.24h-1.37v1.99h.67,0Z"/>
    <path class="st0" d="M200.87,182.8c.02-.31.05-.62.08-.93.04-.43.07-.76.08-.96.02-.21.05-.52.08-.94.03-.4.06-.69.08-.88.02-.19.04-.48.08-.86.02-.34.05-.68.08-1.02s.06-.68.09-1.03h1.45c.31.91.54,1.58.68,2.03.15.44.37,1.11.67,1.99.08.25.15.49.2.72.05.24.1.52.14.85h.09c.04-.33.09-.61.14-.85s.12-.48.2-.72c.31-.91.54-1.59.68-2.03.15-.44.37-1.1.67-1.98h1.45c.03.35.06.69.09,1.03s.06.68.08,1.02c.03.4.06.69.08.88.02.19.04.48.08.86.04.43.07.76.08.96.02.21.05.52.08.94.02.31.05.62.08.93s.05.62.08.93h-1.45c-.02-.25-.03-.44-.04-.57,0-.13-.01-.25-.02-.37,0-.12-.02-.31-.04-.56-.01-.24-.02-.42-.03-.53,0-.12-.02-.23-.02-.35s-.02-.3-.04-.53c-.01-.23-.02-.6-.02-1.1v-.77h-.09c-.29.83-.5,1.45-.64,1.85s-.35,1.01-.63,1.81l-.39,1.13h-.83l-.23-.65c-.24-.69-.42-1.21-.53-1.56-.12-.35-.24-.69-.35-1.03-.12-.34-.3-.86-.54-1.55h-.09v.98c0,.34-.01.65-.03.91-.03.32-.05.64-.08.96s-.05.64-.08.96c0,.11-.01.23-.02.33,0,.11-.02.22-.02.33s-.02.22-.03.33h-1.43c.03-.31.06-.62.08-.93v-.03Z"/>
    <path class="st0" d="M209.73,176.17h4.94v1.23h-3.48v1.9h2.78v1.23h-2.78v1.97h3.48v1.23h-4.94v-7.55h0Z"/>
    <path class="st0" d="M216.1,176.17h2.61c.76,0,1.4.16,1.91.48.51.32.89.75,1.14,1.3s.37,1.15.37,1.83-.13,1.33-.4,1.93-.67,1.09-1.21,1.46c-.54.37-1.19.56-1.96.56h-2.46v-7.55h0ZM218.58,182.5c.46,0,.85-.12,1.16-.37s.55-.57.7-.97c.15-.4.23-.83.23-1.29s-.08-.87-.24-1.24c-.16-.37-.4-.67-.71-.89-.32-.22-.71-.33-1.18-.33h-.99v5.1h1.03Z"/>
  </g>
  <g>
    <path class="st1" d="M173.7,170.29c-.39-.05-.77-.13-1.15-.22v-1.57c.11.06.24.12.37.17s.27.1.42.15c.15.04.3.08.45.12.16.04.33.07.5.08.17.02.33.03.49.03.26,0,.49-.03.69-.09s.37-.15.48-.28c.12-.13.17-.29.17-.5,0-.23-.12-.41-.36-.55s-.61-.3-1.11-.47c-.45-.15-.81-.3-1.09-.45-.28-.15-.52-.37-.72-.66s-.3-.67-.3-1.13c0-.74.24-1.31.72-1.71s1.13-.6,1.95-.6c.3,0,.63.03.98.08s.69.12,1.02.22v1.53c-.15-.08-.32-.15-.5-.21s-.38-.12-.57-.17c-.17-.04-.34-.07-.5-.09s-.32-.03-.47-.03c-.38,0-.68.07-.91.2s-.34.36-.34.67c0,.19.05.34.15.46.1.12.23.22.39.29.16.08.38.16.67.25.5.16.91.33,1.25.49s.63.4.87.69c.25.3.37.68.37,1.14,0,.72-.26,1.28-.77,1.67s-1.2.58-2.06.58c-.33,0-.7-.03-1.09-.08h0Z"/>
    <path class="st1" d="M179.64,169.41v-1.92c-.13-.31-.23-.55-.3-.7-.07-.15-.16-.38-.29-.69-.24-.57-.42-.99-.54-1.27l-.36-.84c-.12-.28-.3-.7-.54-1.27h1.42c.09.25.17.44.21.57.05.13.09.25.14.38s.11.31.21.57c.09.25.15.43.2.55.04.12.11.3.2.54.04.11.09.24.13.37.04.13.08.28.12.43s.07.31.09.47h.09c.03-.16.06-.32.1-.47.03-.15.07-.29.11-.42s.08-.25.12-.37c.09-.25.15-.43.2-.55s.11-.3.2-.54c.09-.25.17-.44.21-.57.05-.13.09-.25.14-.38.04-.13.11-.31.21-.57h1.42c-.24.57-.42.99-.54,1.27s-.24.57-.36.85-.3.71-.54,1.27c-.13.31-.23.55-.3.7-.07.15-.16.38-.29.68v2.78h-1.45v-.86h0Z"/>
    <path class="st1" d="M184.38,170.29c-.39-.05-.77-.13-1.15-.22v-1.57c.11.06.24.12.37.17s.27.1.42.15c.15.04.3.08.45.12.16.04.33.07.5.08.17.02.33.03.49.03.26,0,.49-.03.69-.09s.37-.15.48-.28c.12-.13.17-.29.17-.5,0-.23-.12-.41-.36-.55s-.61-.3-1.11-.47c-.45-.15-.81-.3-1.09-.45-.28-.15-.52-.37-.72-.66s-.3-.67-.3-1.13c0-.74.24-1.31.72-1.71s1.13-.6,1.95-.6c.3,0,.63.03.98.08s.69.12,1.02.22v1.53c-.15-.08-.32-.15-.5-.21s-.38-.12-.57-.17c-.17-.04-.34-.07-.5-.09s-.32-.03-.47-.03c-.38,0-.68.07-.91.2s-.34.36-.34.67c0,.19.05.34.15.46.1.12.23.22.39.29.16.08.38.16.67.25.5.16.91.33,1.25.49s.63.4.87.69c.25.3.37.68.37,1.14,0,.72-.26,1.28-.77,1.67s-1.2.58-2.06.58c-.33,0-.7-.03-1.09-.08h0Z"/>
    <path class="st1" d="M190.48,168.55v-4.61h-2.11v-1.23h5.67v1.23h-2.12v6.33h-1.45v-1.71h0Z"/>
    <path class="st1" d="M194.66,162.71h4.94v1.23h-3.48v1.9h2.78v1.23h-2.78v1.97h3.48v1.23h-4.94v-7.55h0Z"/>
    <path class="st1" d="M200.75,169.33c.02-.31.05-.62.08-.93.04-.43.07-.76.08-.96.02-.21.05-.52.08-.94.03-.4.06-.69.08-.88.02-.19.04-.48.08-.86.02-.34.05-.68.08-1.02s.06-.68.09-1.03h1.45c.31.91.54,1.58.68,2.03.15.44.37,1.11.67,1.99.08.25.15.49.2.72.05.24.1.52.14.85h.09c.04-.33.09-.61.14-.85s.12-.48.2-.72c.31-.91.54-1.59.68-2.03.15-.44.37-1.1.67-1.98h1.45c.03.35.06.69.09,1.03s.06.68.08,1.02c.03.4.06.69.08.88.02.19.04.48.08.86.04.43.07.76.08.96.02.21.05.52.08.94.02.31.05.62.08.93s.05.62.08.93h-1.45c-.02-.25-.03-.44-.04-.57,0-.13-.01-.25-.02-.37,0-.12-.02-.31-.04-.56-.01-.24-.02-.42-.03-.53,0-.12-.02-.23-.02-.35s-.02-.3-.04-.53c-.01-.23-.02-.6-.02-1.1v-.77h-.09c-.29.83-.5,1.45-.64,1.85s-.35,1.01-.63,1.81l-.39,1.13h-.83l-.23-.65c-.24-.69-.42-1.21-.53-1.56-.12-.35-.24-.69-.35-1.03-.12-.34-.3-.86-.54-1.55h-.09v.98c0,.34-.01.65-.03.91-.03.32-.05.64-.08.96s-.05.64-.08.96c0,.11-.01.23-.02.33,0,.11-.02.22-.02.33s-.02.22-.03.33h-1.43c.03-.31.06-.62.08-.93v-.03Z"/>
  </g>
</svg>