<?xml version="1.0" encoding="UTF-8"?>
<svg id="Layer_1" xmlns="http://www.w3.org/2000/svg" version="1.1" viewBox="0 0 434.81 357.85">
  <!-- Generator: Adobe Illustrator 30.3.0, SVG Export Plug-In . SVG Version: 2.1.3 Build 182)  -->
  <defs>
    <style>
      .st0 {
        fill: #bc3a2a;
      }

      .st1 {
        fill: #fff;
      }

      .st2 {
        fill: #b9babc;
      }
    </style>
  </defs>
  <path class="st0" d="M125.39,136.5c7.81-.79,15.89,1.05,22.59,5.15,6.43,3.88,11.63,9.8,14.61,16.69,4.38,9.96,4.07,21.83-.98,31.5-3.58,7.04-9.53,12.81-16.62,16.26-4.86,2.32-10.15,3.64-15.56,3.65-7.21.13-14.46-2.01-20.48-5.99-5.65-3.68-10.21-8.95-13.08-15.05-3.99-8.31-4.59-18.08-1.8-26.85,2.6-8.2,8.16-15.39,15.48-19.94,4.77-3.02,10.22-4.83,15.84-5.4"/>
  <g>
    <path class="st0" d="M172.41,181.7c.15-.42.37-1.04.66-1.89.22-.62.39-1.09.5-1.41s.22-.63.33-.94.27-.78.49-1.41h1.14c.45,1.26.89,2.51,1.35,3.77.3.85.53,1.5.67,1.92.15.42.37,1.04.66,1.88h-1.41c-.05-.14-.09-.24-.11-.32-.02-.07-.04-.14-.07-.21s-.06-.17-.11-.31c-.04-.11-.07-.19-.08-.24-.02-.05-.05-.13-.08-.24h-2.77c-.04.12-.07.21-.09.26-.02.06-.05.14-.09.25-.04.13-.08.23-.1.3s-.05.13-.07.2c-.02.07-.06.17-.11.3h-1.41c.31-.86.54-1.51.68-1.92h0ZM175.34,181.12h.6c-.13-.35-.22-.61-.28-.79s-.15-.43-.27-.78c-.07-.21-.13-.43-.19-.68-.06-.24-.12-.54-.18-.88h-.09c-.06.34-.12.64-.18.88s-.12.47-.19.68c-.12.35-.22.61-.28.79-.06.17-.15.43-.27.78h1.34Z"/>
    <path class="st0" d="M178.84,176.06h3.12c.41,0,.78.08,1.1.24s.57.39.75.7.27.68.27,1.12c0,.33-.06.65-.18.95s-.3.56-.54.78c-.25.22-.54.38-.89.48v.18c.25.15.49.39.72.71.23.33.57.89,1.03,1.69.14.23.27.46.4.69h-1.57c-.35-.54-.6-.94-.77-1.21s-.42-.66-.75-1.2c-.17-.26-.3-.46-.39-.59-.09-.13-.16-.19-.19-.19h-.66v3.18h-1.46v-7.56h0ZM180.97,179.29h.65c.32,0,.57-.09.75-.26.18-.18.27-.44.27-.8,0-.29-.09-.52-.26-.68-.18-.16-.41-.24-.71-.24h-1.37v2h.67-.01Z"/>
    <path class="st0" d="M185.13,182.69c.02-.31.05-.62.08-.93.04-.43.07-.75.08-.96.02-.21.05-.52.08-.94.03-.4.06-.69.08-.88.02-.19.04-.47.08-.86.03-.34.05-.68.08-1.02.03-.34.06-.68.09-1.03h1.46c.31.9.54,1.59.68,2.03.15.44.37,1.1.66,1.99.08.24.15.48.2.72.05.24.1.52.14.84h.09c.04-.33.09-.61.14-.84s.12-.48.2-.72c.31-.91.53-1.59.68-2.03s.37-1.1.66-1.99h1.46c.03.35.06.69.09,1.03.03.34.06.68.08,1.02.03.4.06.69.08.88.02.19.04.47.08.86.04.43.07.75.08.96s.05.52.08.94c.02.31.05.62.08.93.02.31.05.62.08.93h-1.46c-.02-.25-.03-.44-.04-.56,0-.13-.01-.25-.02-.37,0-.12-.02-.31-.04-.56-.01-.24-.02-.42-.03-.53,0-.12-.02-.23-.02-.35s-.02-.29-.04-.53c-.01-.23-.02-.6-.02-1.1v-.77h-.09c-.29.83-.5,1.45-.64,1.85s-.35,1-.63,1.82l-.39,1.13h-.83l-.23-.65c-.24-.69-.42-1.22-.53-1.56-.12-.34-.23-.69-.35-1.03s-.3-.86-.54-1.56h-.09v.97c0,.34-.01.64-.03.91-.03.32-.05.64-.08.96-.03.32-.05.64-.08.96,0,.11-.01.22-.02.33,0,.11-.02.22-.02.33s-.02.22-.03.32h-1.43c.03-.31.06-.62.08-.93h.01Z"/>
    <path class="st0" d="M194.01,176.06h4.94v1.23h-3.48v1.9h2.78v1.23h-2.78v1.98h3.48v1.23h-4.94v-7.56h0Z"/>
    <path class="st0" d="M200.37,176.06h2.61c.76,0,1.4.16,1.92.48.51.32.89.75,1.14,1.3s.37,1.15.37,1.83-.13,1.34-.4,1.93c-.27.6-.67,1.08-1.21,1.46s-1.19.56-1.96.56h-2.47v-7.56h-.01ZM202.85,182.39c.46,0,.84-.12,1.16-.37.31-.25.55-.57.7-.97.15-.4.23-.83.23-1.29s-.08-.86-.24-1.24-.39-.67-.71-.89-.71-.33-1.17-.33h-.99v5.1h1.03-.01Z"/>
  </g>
  <g>
    <path class="st2" d="M173.85,170.17c-.39-.05-.77-.13-1.15-.22v-1.57c.11.06.23.12.37.17.13.05.27.1.42.15s.3.08.45.12c.16.04.33.07.49.08.17.02.33.03.49.03.26,0,.49-.03.69-.09s.36-.15.48-.28.17-.29.17-.49c0-.23-.12-.41-.36-.55s-.61-.3-1.1-.47c-.45-.15-.81-.3-1.09-.45s-.52-.37-.72-.66c-.2-.29-.3-.66-.3-1.13,0-.73.24-1.31.72-1.71s1.13-.6,1.95-.6c.3,0,.63.03.97.08.35.05.69.12,1.02.22v1.53c-.15-.08-.32-.15-.5-.21-.18-.07-.37-.12-.57-.17-.17-.04-.34-.07-.5-.09s-.32-.03-.47-.03c-.38,0-.68.07-.9.2-.23.13-.34.36-.34.66,0,.19.05.34.15.46.1.12.23.22.39.29.16.08.38.16.66.25.5.16.91.33,1.26.49s.63.39.87.69c.25.3.37.68.37,1.13,0,.72-.26,1.28-.77,1.67s-1.21.58-2.07.58c-.33,0-.69-.03-1.08-.08h.01Z"/>
    <path class="st2" d="M179.8,169.29v-1.92c-.13-.31-.23-.55-.3-.7-.07-.15-.16-.38-.29-.69-.24-.56-.42-.99-.54-1.28l-.36-.84c-.12-.28-.3-.7-.54-1.28h1.42c.09.25.17.44.21.56s.09.25.14.38.11.31.21.56c.09.24.15.43.2.55s.11.3.2.54c.04.11.09.24.13.37.04.13.08.27.12.43.04.15.07.31.09.47h.09c.03-.16.06-.32.1-.47.04-.15.07-.29.11-.42s.08-.25.12-.37c.09-.24.15-.43.2-.55.04-.12.11-.3.2-.54.09-.25.17-.44.21-.56s.09-.25.14-.38.11-.31.21-.56h1.42c-.24.56-.42.99-.54,1.28s-.24.56-.36.85l-.54,1.28c-.13.31-.23.55-.3.7-.07.15-.16.38-.29.68v2.78h-1.46v-.86h.01Z"/>
    <path class="st2" d="M184.54,170.17c-.39-.05-.77-.13-1.15-.22v-1.57c.11.06.23.12.37.17.13.05.27.1.42.15s.3.08.45.12c.16.04.33.07.49.08.17.02.33.03.49.03.26,0,.49-.03.69-.09s.36-.15.48-.28.17-.29.17-.49c0-.23-.12-.41-.36-.55s-.61-.3-1.1-.47c-.45-.15-.81-.3-1.09-.45s-.52-.37-.72-.66c-.2-.29-.3-.66-.3-1.13,0-.73.24-1.31.72-1.71s1.13-.6,1.95-.6c.3,0,.63.03.97.08.35.05.69.12,1.02.22v1.53c-.15-.08-.32-.15-.5-.21-.18-.07-.37-.12-.57-.17-.17-.04-.34-.07-.5-.09s-.32-.03-.47-.03c-.38,0-.68.07-.9.2-.23.13-.34.36-.34.66,0,.19.05.34.15.46.1.12.23.22.39.29.16.08.38.16.66.25.5.16.91.33,1.26.49s.63.39.87.69c.25.3.37.68.37,1.13,0,.72-.26,1.28-.77,1.67s-1.21.58-2.07.58c-.33,0-.69-.03-1.08-.08h.01Z"/>
    <path class="st2" d="M190.64,168.43v-4.62h-2.11v-1.23h5.68v1.23h-2.12v6.33h-1.46v-1.72h0Z"/>
    <path class="st2" d="M194.83,162.59h4.94v1.23h-3.48v1.9h2.78v1.23h-2.78v1.98h3.48v1.23h-4.94v-7.56h0Z"/>
    <path class="st2" d="M200.93,169.22c.02-.31.05-.62.08-.93.04-.43.07-.75.08-.96.02-.21.05-.52.08-.94.03-.4.06-.69.08-.88.02-.19.04-.47.08-.86.03-.34.05-.68.08-1.02.03-.34.06-.68.09-1.03h1.46c.31.9.54,1.59.68,2.03.15.44.37,1.1.66,1.99.08.24.15.48.2.72.05.24.1.52.14.84h.09c.04-.33.09-.61.14-.84s.12-.48.2-.72c.31-.91.53-1.59.68-2.03s.37-1.1.66-1.99h1.46c.03.35.06.69.09,1.03.03.34.06.68.08,1.02.03.4.06.69.08.88.02.19.04.47.08.86.04.43.07.75.08.96s.05.52.08.94c.02.31.05.62.08.93.02.31.05.62.08.93h-1.46c-.02-.25-.03-.44-.04-.56,0-.13-.01-.25-.02-.37,0-.12-.02-.31-.04-.56-.01-.24-.02-.42-.03-.53,0-.12-.02-.23-.02-.35s-.02-.29-.04-.53c-.01-.23-.02-.6-.02-1.1v-.77h-.09c-.29.83-.5,1.45-.64,1.85s-.35,1-.63,1.82l-.39,1.13h-.83l-.23-.65c-.24-.69-.42-1.22-.53-1.56-.12-.34-.23-.69-.35-1.03s-.3-.86-.54-1.56h-.09v.97c0,.34-.01.64-.03.91-.03.32-.05.64-.08.96-.03.32-.05.64-.08.96,0,.11-.01.22-.02.33,0,.11-.02.22-.02.33s-.02.22-.03.32h-1.43c.03-.31.06-.62.08-.93h.01Z"/>
  </g>
  <path class="st1" d="M130.81,147.73c2.29.45,4.39,2.12,5.95,3.81,1.37,1.85,2.27,4.33,2.17,6.64,0,3.02-.02,6.05-.01,9.07,2.12.13,4.29-.13,6.39.14,1.19.39,2.22,1.48,2.99,2.44.67.86.57,1.77.6,2.8-.03,6.31.01,12.61.02,18.92-.01,1.22.1,2.51-.14,3.71-.28.78-1.01,1.45-1.6,2.01-.62.54-1.37,1.29-2.24,1.33-1.38.12-2.78.04-4.16.05-9.06.02-18.13.02-27.17.04-2.58.2-5.05-2.13-4.98-4.72.02-7.23,0-14.45-.07-21.67-.21-2.48,2.24-4.89,4.68-4.91,1.69-.09,3.38,0,5.08-.04.2-1.34.04-2.79.06-4.09.06-3.1-.28-6.4.65-9.39.83-2.34,2.99-3.88,5-5.16,2.11-1.3,4.4-1.21,6.77-.94M122.73,167.29c3.9.07,7.81.01,11.71,0,.02-3.03-.03-6.08,0-9.12.2-2.87-2.29-6.25-5.35-6.13-1.11-.03-2.19,0-3.18.55-1.95,1.06-3.28,3.34-3.2,5.57.03,3.03.02,6.08.02,9.11M126.32,176.29c-.76.75-1.15,1.26-1.06,2.4.06.78-.3,1.37.14,2.01.57.7,1.12,1.49,1.79,2.11-.01,2.22-.05,4.45-.04,6.67-.04.87.38,1.52.77,2.25.55,0,1.1.01,1.65.02.34-.63.77-1.16.78-1.91.02-2.33-.04-4.67-.05-7,.83-.92,2.23-2.02,2.42-3.3.32-1.77-.84-3.33-2.28-4.2-1.57-.56-3.35-.41-4.53.86l.41.1h0Z"/>
  <path class="st0" d="M130.44,175.33c1.45.86,2.6,2.42,2.28,4.2-.19,1.29-1.59,2.38-2.42,3.3.01,2.33.08,4.67.05,7,0,.74-.44,1.28-.78,1.91-.55,0-1.1-.01-1.65-.02-.4-.73-.82-1.38-.77-2.25-.01-2.22.03-4.45.04-6.67-.65-.62-1.47-.98-1.94-1.95-.34-.7-.6-1.73-.44-2.49.19-.89.71-1.47,1.09-2.17,1.17-1.28,2.96-1.44,4.53-.86h.01Z"/>
</svg>