<?xml version="1.0" encoding="UTF-8"?>
<svg id="Layer_1" xmlns="http://www.w3.org/2000/svg" version="1.1" viewBox="0 0 434.81 357.85">
  <!-- Generator: Adobe Illustrator 30.3.0, SVG Export Plug-In . SVG Version: 2.1.3 Build 182)  -->
  <defs>
    <style>
      .st0 {
        stroke: #c43f2b;
      }

      .st0, .st1, .st2, .st3, .st4 {
        stroke-width: 2.5px;
      }

      .st0, .st1, .st2, .st3, .st4, .st5 {
        fill: none;
        stroke-miterlimit: 10;
      }

      .st6 {
        fill: #fed234;
      }

      .st7 {
        fill: #dee0da;
      }

      .st8 {
        fill: #aeacad;
      }

      .st1 {
        stroke: #dee0da;
      }

      .st9 {
        fill: #181819;
      }

      .st2 {
        stroke: #fff;
      }

      .st3 {
        stroke: #fed234;
      }

      .st4 {
        stroke: #b9babc;
      }

      .st10 {
        fill: #fff;
      }

      .st11 {
        fill: #e3eaed;
      }

      .st12 {
        fill: #b9babc;
      }

      .st13 {
        fill: #c43f2b;
      }

      .st5 {
        stroke: #f2f2ef;
        stroke-width: 5.27px;
      }
    </style>
  </defs>
  <rect class="st11" x="13.49" y="11.27" width="412.6" height="333.19" rx="31.13" ry="31.13"/>
  <path class="st2" d="M55.5,58.24h319.25v205H55.5V58.24M333.22,65.87c4.68.06,9.35.06,14.03.05,6.08.13,12.17.05,18.25.07v-.32c-6.09-.02-12.17,0-18.26.03-4.67.19-9.35.06-14.03.16M217.25,71.33c1.07,0,2.19.11,3.25-.07.97-.25,1.4-1.49.77-2.3-.49-.7-1.27-.59-2.02-.63-3.5.01-7,0-10.51-.03-.56.04-1.35-.04-1.75.43-.66.7-.49,1.92.39,2.36.56.23,1.26.21,1.87.22,2.67-.02,5.33,0,8,.01M357.61,79.4c-2.18.63-3.6,2.85-3.3,5.09.21,1.95,1.72,3.59,3.63,4.03,2.23.56,4.62-.77,5.43-2.9.8-1.98.05-4.35-1.68-5.57-1.2-.8-2.68-1.13-4.08-.65M76.68,83.46h.55c0-.8-.02-1.58-.12-2.36-.53.75-.38,1.5-.42,2.36M73.61,82.04c.27.88.57,1.64,1.41,2.12-.32-.88-.71-1.49-1.41-2.12M79.07,84.37c.6-.71,1.01-1.39,1.32-2.26-.87.67-1.19,1.17-1.32,2.26M198.45,84.51c.68-.28,1.54-.97,2.31-.84.8.21,1.08.93.81,1.68-.65,1.77-1.95,3.35-2.97,4.93,1.49.03,2.99.03,4.48,0-.02-.32-.05-.65-.07-.97-.8-.02-1.6-.04-2.4-.06.84-1.26,1.93-2.75,2.15-4.27.15-.94-.34-1.95-1.27-2.25-.83-.25-1.84-.11-2.5.48-.33.3-.37.89-.53,1.29M195.86,84.54c-.03,1.92-.03,3.83-.03,5.75h1.11c0-2.52.03-5.04.03-7.57-.9.32-1.73.68-2.29,1.5l-.04.7c.42-.11.82-.24,1.23-.37M207,82.91c-.12,1.2-.27,2.4-.42,3.6.84.07,2.18-.07,2.82.58.79.96-.2,2.55-1.39,2.45-.53-.05-1.08-.21-1.6-.35-.09.36-.18.72-.27,1.08,1.17.26,2.21.6,3.32-.07,1.31-.71,1.8-2.43,1.03-3.72-.52-.81-1.87-.88-2.73-1.08.04-.48.07-.96.11-1.44.82,0,1.64-.02,2.45-.03.04-.34.08-.68.12-1.02-1.15-.02-2.29-.02-3.44,0M212.72,82.93c-.15,1.2-.3,2.39-.45,3.59.81.08,1.86-.02,2.59.39.88.57.54,1.93-.26,2.41-.69.51-1.75.08-2.53-.06-.07.35-.14.7-.21,1.05,1.2.26,2.23.62,3.36-.1,1.32-.76,1.79-2.57.88-3.82-.57-.71-1.87-.76-2.7-.94.07-.47.13-.95.2-1.42.82,0,1.63-.03,2.45-.05.03-.35.06-.7.1-1.04-1.14,0-2.28-.02-3.42,0M220.07,82.96c-.02,2.48-.02,4.96-.03,7.43.36.02.71.05,1.07.08.02-.88.03-1.76.04-2.63.88-.03,2.04.1,2.82-.36,1.1-.68,1.28-2.21.87-3.33-.28-.69-.92-1-1.62-1.12-1.03-.15-2.12-.08-3.16-.07M225.63,90.47c.38,0,.76-.02,1.13-.04.24-1.82.49-3.63.7-5.45.65,1.25,1.3,2.49,2.01,3.71.66-1.22,1.29-2.45,1.92-3.68.25,1.82.46,3.65.68,5.48h1.11c-.29-2.54-.6-5.09-.97-7.62-.34.14-.87.18-1.06.52-.65,1.01-1.11,2.15-1.72,3.19-.68-1.22-1.26-2.5-1.98-3.7-.26.05-.52.12-.77.2-.16.53-.23,1.11-.3,1.66-.22,1.92-.54,3.82-.76,5.73M73.64,89.28c-.81.63-1.69,1.16-2.46,1.85.64-.18,1.27-.38,1.91-.58-.8.53-1.75.92-2.46,1.56-1.3,1.36-1.25,3.6.11,4.9.82.86,1.88,1.05,3.02,1.05,3.17,0,6.33,0,9.5.04.64,0,1.34,0,1.96-.16,1.49-.42,2.5-2.19,2.04-3.68-.25-.91-.94-1.45-1.59-2.08.09-1.22.23-2.31-.44-3.4-.99-1.69-2.87-2.42-4.76-2-.68-1.23-1.47-2.27-2.96-2.45-1.71-.26-3.32.74-3.89,2.36-.36.9-.11,1.68.03,2.59M73.4,85.8c-.59-.69-1.21-1.12-2.09-1.39.41.89,1.26,1.08,2.09,1.39M80.48,85.77c.96-.2,1.68-.43,2.17-1.34-.83.33-1.5.75-2.17,1.34M94.55,84.71c-.02,1.53-.03,3.06-.03,4.59h.89c0-.62.01-1.25.01-1.87h2.01v1.87c.31,0,.62.02.93.03.02-1.55.03-3.1,0-4.65-.31.02-.61.05-.92.07,0,.63-.01,1.25-.02,1.87-.67,0-1.33-.02-2-.03-.01-.64-.02-1.27-.03-1.91-.29,0-.58,0-.86.02M100.54,84.74v.8c.58,0,1.15.03,1.73.05-.52,1.24-1.05,2.49-1.58,3.72.31.02.62.05.92.08.68-1.53,1.36-3.07,1.96-4.63-1.01-.03-2.02-.04-3.03-.02M105.1,84.85c-1.57.58-1.9,2.92-.76,4.04.7.71,2.04.65,2.67-.14.62-.74.75-2,.33-2.86-.4-.79-1.33-1.44-2.24-1.04M108.52,84.4c-.15.45-.75,1.16-.28,1.61.5.58,1.11.12,1.74.05-.19-.57-.41-1.12-.65-1.67-.08.54-.14,1.07-.23,1.6-.54-.1-.39-1.17-.57-1.59M204.14,85.47c0,.36-.02.72-.03,1.08h1.02c0-.34-.01-.69-.02-1.03-.32,0-.65-.03-.97-.04M338.56,85.67c.02,4.22-.03,8.44-.02,12.66,6.2.03,12.4.06,18.61.07,0-3.27.02-6.54.02-9.81-.4-.2-.81-.4-1.21-.59,0,3.06,0,6.12-.02,9.18-5.4,0-10.8,0-16.21-.06-.05-3.21.12-6.41.08-9.62,2.66,2,5.27,4.06,7.94,6.04,2.65-1.9,5.28-3.83,7.91-5.77-.48-.65-.91-1.4-1.49-1.96-.44-.15-.95-.13-1.41-.14-4.73.04-9.46-.05-14.19,0M70.44,88c.71.04,1.42.04,2.13.05.04-.15.07-.31.1-.46-.67.08-1.84-.27-2.23.41M204.07,89.34c.01.32.02.65.03.97h1.02c0-.33.01-.66.03-.98h-1.07M106.29,92.74c-.66.37-.54,1.51.26,1.67.74.18,1.37-.57,1.05-1.26-.26-.54-.8-.59-1.31-.41M94.48,92.85v4.58h2.71c.04-.26.08-.51.11-.77-.64-.02-1.28-.04-1.92-.06,0-1.26.01-2.52.01-3.79-.31,0-.62.02-.93.03M99.48,92.84c-.1.8-.2,1.59-.3,2.39.63.09,1.26.18,1.9.28-.11.32-.21.65-.36.96-.74.2-1.43,0-2.09.52.8.3,1.55.72,2.4.28.84-.35,1.07-1.45.61-2.19-.41-.4-1.07-.56-1.59-.78.04-.18.09-.37.13-.56.77-.15,1.29.02,1.64-.86-.78-.04-1.56-.05-2.34-.06M103.44,94.46c.54-.47,1.06-.96,1.56-1.47-1.24-.26-1.92.63-2.35,1.66-.26.71-.32,1.65.12,2.31.54.71,1.66.7,2.28.09.66-.6.65-1.77-.1-2.3-.48-.17-1.02-.21-1.52-.29M147.75,236.21c1.16.05,2.32.13,3.49.13,10.75.01,21.51.03,32.26.03,3-.03,6,.11,9,.06,4.66.05,9.33-.1,13.98.14,9.42.02,18.86.03,28.28.05,1.52.07,2.78-1.35,2.99-2.77.17-1.35.05-2.75.07-4.11.04-10.41-.02-20.83.09-31.25,0-6,.03-12,.01-18-.04-2.17.19-4.33.14-6.5.02-18.42.05-36.83.06-55.25,0-1.08.07-2.17-.04-3.25-.08-.85-.78-1.63-1.45-2.11-.84-.65-2.13-.48-3.13-.52-5.91-.08-11.83-.02-17.75-.07-2.75-.18-5.5-.1-8.25-.12-9.08-.02-18.17-.04-27.25-.04-7.16-.1-14.33-.06-21.5-.07-1.83.06-3.66-.1-5.49-.13-12.67-.02-25.34-.05-38.01-.05-1.83,0-3.67.02-5.5-.02-3-.1-6-.03-9-.05-1.33-.03-2.65-.15-3.99-.14-7.96,0-16.06-.03-24.02-.03-1.66-.06-3.19,1.44-3.13,3.11-.03,3.67.09,7.34-.15,11.01-.04,18.81-.08,37.7-.1,56.51-.08,9.75-.06,19.5-.07,29.25.06,1.92-.13,3.82-.14,5.73,0,4.99-.02,10.05-.03,15.03-.03,1.16.57,2.17,1.54,2.79,1.06.68,2.63.5,3.84.52,16.17.01,32.33.07,48.5.06,8.25.13,16.5.04,24.75.09M302.75,113.28c-1.32-.05-2.64-.15-3.96-.14-6.26,0-12.52-.02-18.79-.07-7,0-14-.02-21-.03-1.34,0-2.66.03-3.99-.05-2.5-.17-4.99-.05-7.5-.11-.94,0-2.05-.09-2.94.25-1.15.48-2.03,1.55-1.95,2.84-.1,7.5-.03,15-.06,22.51.07,2.29-.18,4.57-.15,6.86,0,8.38,0,16.76-.07,25.14-.01,12.33-.03,24.67-.03,37-.03,1.25-.14,2.49-.14,3.74,0,7.4-.02,14.87-.03,22.27-.08,1.32.78,2.58,2.01,3.02,1.08.22,2.26.08,3.36.11,4.91.11,9.83.05,14.75.07,2.23-.06,4.44.19,6.67.14,7.53.02,15.05-.01,22.58.08,9.58,0,19.17.03,28.75.03,1.92-.05,3.82.15,5.74.15,9.59,0,19.18.03,28.77.03,1.16.03,2.07-.72,2.6-1.7.32-.64.28-1.48.3-2.18.04-11.33.04-22.66.05-34-.06-2.44.19-4.86.13-7.3.02-12.32.04-24.63.04-36.95.1-12.25.03-24.5.09-36.75-.02-.93.03-1.94-.2-2.85-.51-1.36-1.87-1.99-3.26-1.99-8.17-.04-16.34.03-24.51-.09-9.07,0-18.18,0-27.25-.03M333.5,252.95c7.08.18,14.17.04,21.25.14.67-.02,1.5.06,2.1-.26.65-.4.61-1.17.66-1.84.04-2.25-.02-4.5.02-6.75,0-.9.06-1.84-.09-2.73-.1-.61-.57-1.02-1.18-1.08-1.08-.12-2.18-.04-3.27-.05-7.42-.03-14.83-.05-22.25-.07-1.05,0-2.14-.1-3.17.07-.79.19-.99.87-1,1.61-.02,2.92,0,5.84-.04,8.76.04.56-.05,1.38.41,1.79.4.42,1.01.38,1.54.41,1.67.02,3.34-.03,5.01,0M205.86,244.11c-1.09.35-1.34,1.76-.46,2.48.86.67,2.12.19,2.29-.89.17-1.05-.82-1.91-1.84-1.59M213.13,244.19c-1.13.37-1.37,1.81-.34,2.45.88.57,1.93-.15,1.87-1.15.12-.81-.8-1.47-1.53-1.3M220.56,244.2c-.42.06-.88.3-1.11.66-.19.63-.16,1.34.42,1.76.76.63,2.17-.11,2.02-1.12,0-.73-.62-1.27-1.32-1.3h-.01Z"/>
  <path class="st4" d="M208.74,68.3c3.5.03,7,.05,10.51.03.75.04,1.53-.07,2.02.63.63.8.2,2.05-.77,2.3-1.06.18-2.18.06-3.25.07-2.67,0-5.33-.04-8-.01-.6-.01-1.3,0-1.87-.22-.88-.44-1.04-1.66-.39-2.36.4-.47,1.19-.4,1.75-.43h0Z"/>
  <path class="st0" d="M357.61,79.4c1.4-.48,2.88-.15,4.08.65,1.73,1.22,2.48,3.59,1.68,5.57-.81,2.13-3.2,3.46-5.43,2.9-1.91-.44-3.42-2.08-3.63-4.03-.3-2.24,1.11-4.46,3.3-5.09M357.81,81.79c.02.22.04.45.05.67.32-.16.63-.33.95-.5v4.6c.21,0,.42,0,.64,0,0-1.8.03-3.6-.02-5.4-.54.19-1.08.4-1.62.62h0Z"/>
  <path class="st3" d="M77.1,81.09c.1.78.12,1.57.12,2.35h-.55c.04-.85-.1-1.61.42-2.35h.01Z"/>
  <path class="st2" d="M359.43,81.17c.04,1.8.01,3.6.02,5.4-.21,0-.43,0-.64,0,0-1.53.01-3.07,0-4.6-.32.17-.63.33-.95.5-.02-.22-.04-.44-.05-.67.54-.22,1.08-.43,1.62-.62h0Z"/>
  <path class="st3" d="M73.61,82.04c.7.63,1.09,1.24,1.41,2.12-.84-.49-1.14-1.24-1.41-2.12h0ZM80.4,82.11c-.31.87-.73,1.55-1.32,2.26.14-1.09.46-1.59,1.32-2.26h0Z"/>
  <path class="st4" d="M201.48,82.74c.93.3,1.42,1.31,1.27,2.25-.22,1.53-1.31,3.01-2.15,4.27.8.02,1.6.04,2.4.06.02.32.05.65.07.97-1.49.02-2.99.02-4.48,0,1.03-1.57,2.33-3.15,2.97-4.93.27-.75-.01-1.47-.81-1.68-.76-.13-1.63.55-2.31.84.15-.4.2-.99.53-1.29.65-.59,1.67-.73,2.5-.48h.01ZM196.97,82.71c0,2.52-.03,5.05-.03,7.57h-1.11c0-1.92,0-3.84.03-5.75-.4.13-.81.27-1.23.37l.04-.7c.56-.82,1.39-1.18,2.29-1.5h0ZM207,82.91c1.15-.02,2.29,0,3.44,0-.04.34-.08.69-.12,1.02-.82,0-1.63.02-2.45.03-.04.48-.07.96-.11,1.44.86.2,2.21.27,2.73,1.08.77,1.29.28,3-1.03,3.72-1.12.67-2.15.33-3.32.07.09-.36.18-.72.27-1.08.52.14,1.06.3,1.6.35,1.19.09,2.18-1.49,1.39-2.45-.64-.65-1.98-.51-2.82-.58.15-1.2.3-2.4.42-3.6h0ZM212.72,82.93c1.14,0,2.28,0,3.42,0-.03.35-.07.7-.1,1.04-.82.02-1.63.03-2.45.05-.07.47-.13.95-.2,1.42.83.18,2.13.23,2.7.94.9,1.25.43,3.06-.88,3.82-1.13.71-2.16.35-3.36.1.07-.35.14-.7.21-1.05.77.14,1.84.57,2.53.06.8-.48,1.14-1.84.26-2.41-.73-.41-1.77-.31-2.59-.39.15-1.2.3-2.4.45-3.59h0ZM220.07,82.96c1.04,0,2.13-.08,3.16.07.7.11,1.34.43,1.62,1.12.41,1.13.23,2.65-.87,3.33-.78.46-1.94.32-2.82.36,0,.88-.02,1.76-.04,2.63-.36-.03-.71-.05-1.07-.08.01-2.48,0-4.95.03-7.43M221.16,84c0,.93-.01,1.86-.01,2.79.72-.04,1.54.04,2.22-.21.68-.45.76-1.81.1-2.31-.67-.33-1.59-.22-2.31-.27h0ZM226.69,83.08c.25-.08.51-.15.77-.2.72,1.2,1.3,2.48,1.98,3.7.61-1.04,1.06-2.18,1.72-3.19.19-.35.72-.38,1.06-.52.37,2.53.68,5.08.97,7.62h-1.11c-.23-1.83-.43-3.66-.68-5.48-.63,1.23-1.27,2.46-1.92,3.68-.71-1.22-1.36-2.46-2.01-3.71-.21,1.82-.46,3.64-.7,5.45-.38,0-.75.02-1.13.04.22-1.91.54-3.82.76-5.73.07-.55.14-1.12.3-1.66h-.01Z"/>
  <path class="st2" d="M221.16,84c.73.05,1.65-.06,2.31.27.65.49.57,1.85-.1,2.31-.68.25-1.5.18-2.22.21,0-.93,0-1.86.01-2.79h0Z"/>
  <path class="st3" d="M77.49,84.33c1.49.17,2.29,1.22,2.96,2.45-.83.42-1.52.91-2.44,1.11-1.61.42-3.04.18-4.37,1.39-.14-.91-.39-1.69-.03-2.59.57-1.62,2.17-2.62,3.89-2.36h-.01ZM71.31,84.4c.88.27,1.5.7,2.09,1.39-.83-.31-1.68-.51-2.09-1.39h0ZM82.65,84.43c-.49.9-1.21,1.14-2.17,1.34.67-.59,1.34-1.01,2.17-1.34h0Z"/>
  <path class="st4" d="M94.55,84.71c.29,0,.57-.02.86-.02,0,.64.02,1.27.03,1.91.67,0,1.33.02,2,.03,0-.62.01-1.24.02-1.87.31-.03.61-.05.92-.07.02,1.55.01,3.1,0,4.65-.31,0-.62-.02-.93-.03v-1.87h-2.01c0,.63,0,1.25-.01,1.87h-.89c0-1.53,0-3.06.03-4.59h-.02ZM100.54,84.74c1.01-.02,2.02,0,3.03.02-.61,1.56-1.29,3.1-1.96,4.63-.31-.03-.62-.05-.92-.08.54-1.24,1.06-2.48,1.58-3.72-.58-.02-1.15-.04-1.73-.05v-.8h0ZM105.1,84.85c.9-.39,1.83.25,2.24,1.04.42.86.29,2.12-.33,2.86-.62.79-1.96.85-2.67.14-1.14-1.12-.81-3.46.76-4.04M105.38,85.61c-1,.47-1.12,2.42-.1,2.93.82.32,1.42-.56,1.4-1.29.09-.73-.36-1.95-1.3-1.64h0ZM108.52,84.4c.18.42.03,1.49.57,1.59.1-.53.15-1.07.23-1.6.24.55.46,1.1.65,1.67-.63.07-1.24.53-1.74-.05-.46-.45.13-1.16.28-1.61h.01Z"/>
  <path class="st2" d="M105.38,85.61c.94-.31,1.39.9,1.3,1.64.02.74-.58,1.61-1.4,1.29-1.02-.51-.89-2.45.1-2.93h0Z"/>
  <path class="st4" d="M204.14,85.47c.32,0,.65.03.97.04,0,.35.01.69.02,1.03h-1.02c0-.36.02-.72.03-1.08h0ZM338.56,85.67c4.73-.05,9.46.04,14.19,0,.46,0,.97,0,1.41.14.58.56,1.01,1.31,1.49,1.96-2.62,1.94-5.25,3.87-7.91,5.77-2.67-1.98-5.28-4.04-7.94-6.04.04,3.21-.13,6.41-.08,9.62,5.4.04,10.8.04,16.21.06.02-3.06.03-6.12.02-9.18.4.2.81.39,1.21.59,0,3.27-.02,6.54-.02,9.81-6.2,0-12.4-.04-18.61-.07,0-4.22.04-8.44.02-12.66M341.06,86.89c.24.19.48.39.71.58,1.98,1.54,3.98,3.06,5.98,4.57,2.3-1.68,4.66-3.3,6.88-5.09-4.52-.07-9.05-.07-13.57-.05h0ZM85.22,88.78c.67,1.09.53,2.18.44,3.4.65.63,1.34,1.17,1.59,2.08.46,1.5-.55,3.26-2.04,3.68-.62.17-1.32.16-1.96.16-3.17-.04-6.33-.03-9.5-.04-1.14,0-2.21-.2-3.02-1.05-1.36-1.3-1.41-3.55-.11-4.9.71-.64,1.66-1.03,2.46-1.56-.63.2-1.27.4-1.91.58.77-.69,1.65-1.22,2.46-1.85,1.33-1.21,2.76-.97,4.37-1.39.92-.2,1.62-.69,2.44-1.11,1.89-.42,3.78.31,4.76,2M79.05,89.02c-1.3.15-2.66.25-3.91.63-1.09.45-1.24,1.38-1.42,2.42-.86.17-1.67.14-2.28.86-.9.95-.8,2.57.23,3.39.69.58,1.49.53,2.33.55,3.17,0,6.33,0,9.5.04.58-.02,1.36.03,1.86-.31.92-.61,1.09-2.01.35-2.82-.43-.4-1.08-.59-1.61-.83.27-1,.73-2.12.33-3.13-.46-1.3-1.82-2.13-3.19-1.96-.84.1-1.52.69-2.18,1.17h0Z"/>
  <path class="st2" d="M341.06,86.89c4.52-.02,9.05-.02,13.57.05-2.22,1.79-4.58,3.41-6.88,5.09-2-1.51-4-3.03-5.98-4.57-.24-.19-.48-.38-.71-.58h0Z"/>
  <path class="st3" d="M72.67,87.59c-.03.15-.07.31-.1.46-.71,0-1.42,0-2.13-.05.39-.68,1.56-.34,2.23-.41h0Z"/>
  <path class="st2" d="M81.24,87.86c1.37-.17,2.72.66,3.19,1.96.4,1.02-.06,2.14-.33,3.13.53.24,1.18.43,1.61.83.74.81.57,2.21-.35,2.82-.5.34-1.28.29-1.86.31-3.17-.04-6.33-.05-9.5-.04-.84-.03-1.64.03-2.33-.55-1.02-.82-1.12-2.44-.23-3.39.61-.72,1.42-.69,2.28-.86.18-1.04.33-1.97,1.42-2.42,1.25-.38,2.61-.48,3.91-.63.66-.48,1.34-1.06,2.18-1.17h0Z"/>
  <path class="st4" d="M205.14,89.34c-.01.33-.02.65-.03.98h-1.02c-.01-.32-.02-.65-.03-.97h1.08ZM106.29,92.74c.51-.18,1.06-.13,1.31.41.31.69-.32,1.43-1.05,1.26-.8-.15-.92-1.3-.26-1.67M107.12,94.18c-.19-.5.17-1.32-.65-1.14-.03.79-.07.71.65,1.14h0ZM94.48,92.85c.31,0,.62-.02.93-.03,0,1.26,0,2.52-.01,3.79.64.02,1.28.04,1.92.06-.03.26-.07.52-.11.77h-2.71v-4.58h-.02ZM99.48,92.84c.78,0,1.56.02,2.34.06-.35.87-.87.7-1.64.86-.04.18-.09.37-.13.56.52.22,1.18.39,1.59.78.46.73.23,1.83-.61,2.19-.85.44-1.6.02-2.4-.28.66-.51,1.35-.32,2.09-.52.15-.31.25-.64.36-.96-.63-.1-1.26-.19-1.9-.28.1-.8.2-1.59.3-2.39h0v-.02ZM105,92.99c-.5.51-1.02,1-1.56,1.47.5.08,1.04.12,1.52.29.75.53.76,1.69.1,2.3-.62.61-1.74.62-2.28-.09-.44-.65-.38-1.59-.12-2.31.43-1.03,1.1-1.92,2.35-1.66M103.85,95.33c-.22.13-.54.37-.5.67-.11.58.79.95,1.12.47.52-.52.09-1.28-.62-1.13h0Z"/>
  <path class="st2" d="M106.47,93.04c.82-.18.46.64.65,1.14-.72-.43-.68-.35-.65-1.14h0ZM103.85,95.33c.71-.14,1.14.62.62,1.13-.32.48-1.23.11-1.12-.47-.04-.29.28-.54.5-.67h0Z"/>
  <path class="st4" d="M72.74,112.12c7.96,0,16.06.03,24.02.03,1.33,0,2.66.11,3.99.14,3,.02,6-.05,9,.05,1.83.04,3.67,0,5.5.02,12.67,0,25.34.03,38.01.05,1.83.04,3.65.19,5.49.13,7.16,0,14.33-.03,21.5.07,9.08,0,18.17.03,27.25.04,2.75.02,5.5-.05,8.25.12,5.91.05,11.83,0,17.75.07,1,.04,2.29-.13,3.13.52.67.48,1.37,1.26,1.45,2.11.1,1.07.03,2.17.04,3.25,0,18.42-.04,36.83-.06,55.25.06,2.17-.18,4.33-.14,6.5.02,6-.02,12-.01,18-.11,10.41-.05,20.83-.09,31.25-.03,1.36.1,2.76-.07,4.11-.21,1.42-1.46,2.84-2.99,2.77-9.42-.01-18.86-.02-28.28-.05-4.65-.24-9.32-.09-13.98-.14-3,.05-6-.09-9-.06-10.75,0-21.51-.02-32.26-.03-1.17,0-2.32-.08-3.49-.13-8.25-.06-16.5.04-24.75-.09-16.17,0-32.33-.05-48.5-.06-1.21-.02-2.78.17-3.84-.52-.97-.61-1.56-1.63-1.54-2.79,0-4.98.03-10.04.03-15.03.01-1.91.2-3.82.14-5.73.01-9.75,0-19.5.07-29.25.01-18.81.05-37.69.1-56.51.25-3.67.12-7.33.15-11.01-.07-1.67,1.47-3.17,3.13-3.11M69.8,122.75c-.05,1.17-.17,2.32-.17,3.49.01,18.71-.02,37.43-.05,56.14.04,2.21-.18,4.41-.13,6.61,0,8.17-.02,16.33-.03,24.5-.09,6.25-.02,12.5-.08,18.75.01.66-.02,1.43.33,2.02.5.82,1.33,1.45,2.31,1.55.99.11,2.02.04,3.02.05,15.58,0,31.17.04,46.75.06,2.34-.04,4.66.19,7,.13,7.58.02,15.17-.02,22.75.07,11.23,0,22.46.05,33.69.06,1.52,0,3.04.14,4.56.13,6.42-.02,12.83,0,19.25.06,7.83.01,15.67.02,23.5.05,1.05-.02,2.2.12,3.22-.15,1.26-.57,1.98-1.9,1.92-3.26-.03-9.46.02-18.94,0-28.4-.02-1.46.08-2.9.14-4.36.04-8.41-.05-16.83.09-25.25,0-19.08,0-38.17.05-57.25-.04-1.15.22-2.64-.66-3.52-.64-.74-1.34-1.14-2.35-1.13-2.14,0-4.28-.2-6.42-.15-5.33,0-10.66.04-16-.07-10.84,0-21.67-.02-32.51-.03-1.25,0-2.49-.12-3.74-.14-8-.02-16,.03-24-.08-13.76,0-27.55-.04-41.31-.07-3.06-.18-6.12-.12-9.18-.12-9.33-.13-18.67-.03-28-.11-.7,0-1.5-.03-2.15.23-.91.45-1.78,1.36-1.75,2.44-.06,2.59.03,5.19-.04,7.77h0v-.02Z"/>
  <path class="st2" d="M73.75,112.31c9.33.08,18.67-.02,28,.11,3.06,0,6.12-.05,9.18.12,13.77.03,27.55.06,41.31.07,8,.11,16,.06,24,.08,1.25.02,2.49.14,3.74.14,10.84,0,21.67.04,32.51.03,5.33.11,10.66.06,16,.07,2.14-.05,4.28.15,6.42.15,1.01,0,1.71.39,2.35,1.13.88.88.62,2.37.66,3.52-.04,19.08-.05,38.17-.05,57.25-.14,8.41-.04,16.83-.09,25.25-.06,1.46-.17,2.9-.14,4.36.01,9.46-.04,18.94,0,28.4.05,1.37-.66,2.7-1.92,3.26-1.01.27-2.17.13-3.22.15-7.83-.02-15.67-.03-23.5-.05-6.42-.05-12.83-.08-19.25-.06-1.52,0-3.04-.13-4.56-.13-11.23,0-22.46-.05-33.69-.06-7.58-.09-15.17-.06-22.75-.07-2.34.06-4.66-.17-7-.13-15.58-.02-31.17-.07-46.75-.06-1,0-2.02.06-3.02-.05-.97-.1-1.81-.73-2.31-1.55-.35-.58-.32-1.36-.33-2.02.06-6.25-.01-12.5.08-18.75,0-8.17.03-16.33.03-24.5-.05-2.21.18-4.4.13-6.61.03-18.71.07-37.43.05-56.14,0-1.17.11-2.32.17-3.49.07-2.59-.02-5.18.04-7.77-.03-1.08.84-1.99,1.75-2.44.65-.26,1.46-.21,2.15-.23"/>
  <path class="st4" d="M247.5,112.89c2.51.05,5-.06,7.5.11,1.33.08,2.66.05,3.99.05,7,0,14,0,21,.03,6.26.05,12.52.08,18.79.07,1.32,0,2.64.08,3.96.14,9.07.02,18.18.02,27.25.03,8.17.12,16.34.06,24.51.09,1.39,0,2.75.63,3.26,1.99.23.91.19,1.92.2,2.85-.06,12.25.02,24.5-.09,36.75,0,12.31-.03,24.63-.04,36.95.06,2.44-.2,4.86-.13,7.3,0,11.33-.01,22.66-.05,34-.02.7.02,1.54-.3,2.18-.52.98-1.44,1.73-2.6,1.7-9.59,0-19.18-.03-28.77-.03-1.92,0-3.82-.19-5.74-.15-9.58,0-19.17-.02-28.75-.03-7.53-.09-15.05-.06-22.58-.08-2.23.04-4.44-.21-6.67-.14-4.91-.01-9.83.05-14.75-.07-1.1-.03-2.28.11-3.36-.11-1.22-.44-2.08-1.7-2.01-3.02.02-7.39.03-14.87.03-22.27,0-1.25.11-2.49.14-3.74,0-12.33.02-24.67.03-37,.07-8.38.07-16.76.07-25.14-.04-2.29.22-4.57.15-6.86.03-7.5-.04-15.01.06-22.51-.07-1.29.81-2.37,1.95-2.84.89-.34,2-.24,2.94-.25M247.77,236.45c1.74.07,3.48.15,5.22.11,10.78,0,21.55.11,32.33.09,2.14-.03,4.27.21,6.42.14,11.75.02,23.5-.01,35.25.08,8.5.02,17,.02,25.5.05,1.04-.02,2.17.12,3.18-.15.9-.38,1.71-1.31,1.71-2.32.1-2.15.18-4.3.14-6.46.02-12.08,0-24.17.08-36.25.01-12.34.04-24.67.04-37.01-.02-2,.19-3.99.14-5.99,0-9.58,0-19.17.04-28.75-.02-1.42.12-2.95-.19-4.34-.37-1.36-1.78-2.1-3.12-2.05-6.52,0-13-.02-19.52-.02-1.5,0-2.99-.15-4.49-.15-9,0-18-.02-27-.03-5.84-.1-11.68-.03-17.52-.08-1.16-.02-2.31-.13-3.48-.14-8.75,0-17.5-.02-26.25-.02-3.42-.08-6.84-.05-10.26-.07-1.51-.11-3.19,1.12-3.18,2.71-.1,1.39-.13,2.79-.13,4.18.03,14.36-.11,28.72-.08,43.08.04,2.06-.2,4.11-.15,6.17.01,12.42-.02,24.83-.02,37.25-.13,8.83-.03,17.67-.1,26.5.02.75-.04,1.55.43,2.19.4.56,1,1.12,1.71,1.2,1.08.13,2.2.03,3.3.07h0Z"/>
  <path class="st2" d="M245.99,113.1c3.42.02,6.84,0,10.26.07,8.75,0,17.5.03,26.25.02,1.16,0,2.31.12,3.48.14,5.84.05,11.68-.02,17.52.08,9,0,18,.04,27,.03,1.5,0,2.99.16,4.49.15,6.52,0,13,.03,19.52.02,1.34-.05,2.76.69,3.12,2.05.32,1.39.18,2.92.19,4.34-.03,9.58-.03,19.17-.04,28.75.05,2-.16,3.99-.14,5.99,0,12.34-.03,24.67-.04,37.01-.08,12.08-.05,24.17-.08,36.25.04,2.16-.04,4.31-.14,6.46,0,1.01-.82,1.94-1.71,2.32-1.01.27-2.14.13-3.18.15-8.5-.03-17-.04-25.5-.05-11.75-.09-23.5-.06-35.25-.08-2.15.07-4.28-.17-6.42-.14-10.78.02-21.55-.08-32.33-.09-1.74.04-3.48-.04-5.22-.11-1.09-.04-2.22.06-3.3-.07-.71-.08-1.31-.65-1.71-1.2-.47-.64-.41-1.44-.43-2.19.07-8.83-.03-17.67.1-26.5,0-12.42.03-24.83.02-37.25-.05-2.06.18-4.11.15-6.17-.02-14.36.12-28.72.08-43.08,0-1.4.03-2.79.13-4.18-.01-1.59,1.67-2.82,3.18-2.71M293.25,125.7c4.75.17,9.5.07,14.25.11,1.67-.03,3.35.11,5.02-.04,1.34-.11,2.51-1.18,2.62-2.54.11-1.33.03-2.67.07-4-.02-1.02.09-2.02-.57-2.87-.64-.87-1.55-1.24-2.62-1.23-9.08-.03-18.17-.07-27.25-.1-1.63,0-3.36-.23-4.96.04-1.19.21-2.11,1.24-2.26,2.42-.16,1.23-.06,2.5-.1,3.75.01,1.17-.1,2.41.72,3.36.66.8,1.6,1.06,2.6,1.06,4.17.02,8.34,0,12.51.04M331,125.96c1.08.03,2.16.1,3.24.1,6.17.02,12.35.02,18.52.06,1.12.03,2.13-.39,2.79-1.31.83-1.06.54-2.8.59-4.07-.06-1.34.28-3.18-.62-4.28-.73-.98-1.84-1.29-3.01-1.3-10.72,0-21.57-.05-32.27-.06-1.41-.04-2.67.99-2.98,2.35-.18.9-.11,1.87-.12,2.79.02,1.04-.07,2.1.08,3.13.21,1.35,1.38,2.49,2.77,2.52,3.67.06,7.35.05,11.01.07h0Z"/>
  <path class="st4" d="M279.78,115.07c1.61-.27,3.33-.04,4.96-.04,9.08.03,18.17.07,27.25.1,1.07,0,1.98.36,2.62,1.23.66.85.55,1.86.57,2.87-.04,1.33.04,2.67-.07,4-.11,1.36-1.29,2.42-2.62,2.54-1.66.14-3.35,0-5.02.04-4.75-.04-9.5.05-14.25-.11-4.17-.03-8.34-.02-12.51-.04-1,0-1.94-.26-2.6-1.06-.81-.95-.7-2.19-.72-3.36.04-1.24-.07-2.51.1-3.75.15-1.19,1.07-2.21,2.26-2.42M287.26,122.64c.41-.38.74-.83,1.05-1.3.43,0,.86-.02,1.29-.03.28.48.48.96,1,1.25-.28-1.52-.89-2.97-1.45-4.41-.34.21-.57.36-.7.76-.48,1.2-.91,2.45-1.18,3.72M293.91,122.45c.04-.19.07-.37.11-.56-.55.03-1.15.13-1.7.02-1.12-.5-1.14-2.35-.15-3,.61-.15,1.3-.07,1.93-.06-.09-.18-.17-.37-.26-.55-.56,0-1.21-.1-1.75.08-1.56.57-1.65,3.19-.18,3.92.56.31,1.36.17,1.99.15M294.32,118.33l-.02.48c.38,0,.77.03,1.16.05,0,1.28-.03,2.53.05,3.79.29-.31.55-.43.54-.89.07-.96.01-1.93,0-2.89.37-.02.75-.03,1.13-.05v-.48c-.95,0-1.91,0-2.86,0M297.69,122.41l.61.02c0-1.42.07-2.86-.07-4.28-.13.12-.25.25-.36.39-.2,1.26-.12,2.59-.18,3.87M300.27,122.44c.22,0,.43,0,.64-.02.52-1.47,1.16-2.77,1.33-4.34-.83,1.12-1.07,2.32-1.66,3.58-.45-1.1-.81-2.24-1.27-3.34-.17,0-.33.02-.5.04.38,1.39.98,2.72,1.45,4.08M302.9,118.37v4.06h2.55v-.38c-.66-.03-1.32-.06-1.98-.1,0-.44,0-.89-.01-1.33.59-.04,1.19-.09,1.77-.16-.55-.34-1.15-.4-1.78-.48v-1.1c.65,0,1.31,0,1.96-.02,0-.17,0-.34-.01-.51h-2.5v.02ZM320.24,115.1c10.7,0,21.55.04,32.27.06,1.17,0,2.28.32,3.01,1.3.9,1.1.56,2.94.62,4.28-.05,1.27.23,3.01-.59,4.07-.66.92-1.67,1.34-2.79,1.31-6.17-.04-12.35-.04-18.52-.06-1.08,0-2.16-.08-3.24-.1-3.66-.02-7.34,0-11.01-.07-1.39-.03-2.56-1.17-2.77-2.52-.14-1.03-.06-2.09-.08-3.13.01-.92-.05-1.89.12-2.79.31-1.36,1.57-2.39,2.98-2.35M322.5,125.71c2.5.13,4.99.07,7.49.08,7.42.09,14.83.02,22.25.08,1.05,0,2.01-.04,2.77-.86,1.14-1.07.81-2.86.87-4.27-.06-1.5.32-3.35-.91-4.49-1.05-1.01-2.39-.86-3.73-.87-10.3.04-20.71-.03-31-.03-1.56-.06-2.8,1.37-2.84,2.87-.05,1.49-.05,3.03,0,4.52,0,1.25.85,2.5,2.08,2.81.98.18,2.02.1,3.02.14h0v.02Z"/>
  <path class="st2" d="M320.24,115.35c10.3,0,20.7.06,31,.03,1.34,0,2.68-.13,3.73.87,1.23,1.14.84,2.99.91,4.49-.06,1.41.27,3.2-.87,4.27-.76.82-1.71.86-2.77.86-7.42-.07-14.83,0-22.25-.08-2.5,0-4.99.05-7.49-.08-1-.05-2.04.04-3.02-.14-1.23-.31-2.08-1.56-2.08-2.81-.04-1.49-.04-3.03,0-4.52.04-1.5,1.27-2.93,2.84-2.87M332.2,122.88c.42-.4.74-.84,1.05-1.32h1.23c.31.48.64.93,1.05,1.33-.3-1.54-.86-3.02-1.42-4.48-.26.15-.52.21-.65.51-.55,1.24-1.01,2.62-1.27,3.95M336.11,122.65c.79,0,1.58,0,2.37,0v-.5c-.61,0-1.21-.02-1.82-.04,0-1.29.04-2.54-.06-3.82-.16.22-.44.4-.45.68-.12,1.21-.02,2.45-.05,3.66M338.98,122.66c.91-.03,1.97.26,2.7-.4-.7-.07-1.39-.11-2.09-.13,0-1.28.04-2.54-.06-3.81-.28.31-.55.46-.55.91-.1,1.14-.02,2.29,0,3.43h0ZM289.14,118.16c.56,1.43,1.17,2.89,1.45,4.41-.52-.29-.71-.77-1-1.25-.43,0-.86,0-1.29.03-.31.47-.63.91-1.05,1.3.26-1.27.69-2.52,1.18-3.72.14-.4.37-.55.7-.76M288.67,119.92c-.11.29-.22.58-.33.87.39,0,.78,0,1.17,0-.18-.55-.36-1.11-.54-1.66-.1.26-.2.52-.3.78h0ZM292.1,118.37c.55-.17,1.19-.08,1.75-.08.09.18.17.37.26.55-.63,0-1.32-.09-1.93.06-.98.65-.97,2.5.15,3,.54.11,1.14,0,1.7-.02-.04.19-.08.37-.11.56-.62.02-1.43.16-1.99-.15-1.47-.73-1.38-3.35.18-3.92h-.01ZM294.32,118.33c.95,0,1.9,0,2.86,0v.48c-.38.02-.76.03-1.13.05,0,.96.07,1.93,0,2.89.01.46-.25.58-.54.89-.08-1.27-.05-2.51-.05-3.79-.38-.02-.77-.04-1.16-.05l.02-.48h0ZM298.23,118.15c.14,1.41.06,2.86.07,4.28l-.61-.02c.06-1.28-.02-2.6.18-3.87.11-.14.23-.27.36-.39h0ZM298.82,118.37c.16-.02.33-.04.5-.04.46,1.1.82,2.24,1.27,3.34.59-1.26.83-2.46,1.66-3.58-.17,1.57-.81,2.87-1.33,4.34-.21,0-.43.02-.64.02-.47-1.36-1.07-2.69-1.45-4.08h-.01ZM305.4,118.37c0,.17.01.34.01.51-.65,0-1.31,0-1.96.02v1.1c.63.08,1.23.14,1.78.48-.59.07-1.18.12-1.77.16,0,.44,0,.89.01,1.33.66.04,1.31.07,1.98.1v.38h-2.55v-4.06h2.5v-.02Z"/>
  <path class="st4" d="M334.12,118.42c.57,1.45,1.12,2.94,1.42,4.48-.41-.4-.74-.85-1.05-1.33h-1.23c-.31.48-.64.92-1.05,1.32.26-1.33.71-2.71,1.27-3.95.13-.31.39-.36.65-.51M333.89,119.43c-.19.51-.38,1.01-.58,1.52.39,0,.77,0,1.16-.02-.2-.5-.39-1-.58-1.5h0ZM336.6,118.3c.1,1.28.05,2.53.06,3.82.61,0,1.21.02,1.82.04v.5c-.79,0-1.58,0-2.37,0,.03-1.22-.07-2.45.05-3.66.01-.29.29-.46.45-.68h-.01ZM339.53,118.31c.09,1.28.06,2.53.06,3.81.7.02,1.39.06,2.09.13-.73.65-1.79.37-2.7.4-.01-1.14-.1-2.3,0-3.43,0-.45.27-.61.55-.91h0ZM288.97,119.14c.18.55.36,1.11.54,1.66-.39,0-.78,0-1.17,0,.11-.29.22-.58.33-.87.1-.26.2-.52.3-.78h0Z"/>
  <path class="st2" d="M333.89,119.43c.2.5.39,1,.58,1.5-.39,0-.77,0-1.16.02.19-.51.38-1.01.58-1.52h0Z"/>
  <path class="st4" d="M327.58,240.37c1.03-.17,2.12-.06,3.17-.07,7.41.03,14.83.05,22.25.07,1.09.02,2.19-.07,3.27.05.61.06,1.08.47,1.18,1.08.15.89.09,1.83.09,2.73-.04,2.25.01,4.5-.02,6.75-.05.67-.02,1.44-.66,1.84-.6.32-1.44.24-2.1.26-7.08-.1-14.17.04-21.25-.14-1.67-.04-3.34.01-5.01,0-.53-.03-1.14.01-1.54-.41-.46-.41-.37-1.23-.41-1.79.04-2.92.02-5.84.04-8.76,0-.73.21-1.41,1-1.61M329.27,244.34c.07,1.56.35,3.05,1.29,4.33.53.76,1.22,1.27,1.94,1.84.88-.65,1.7-1.3,2.26-2.27.74-1.18.93-2.46,1.12-3.81-1.32-.28-2.28-.79-3.37-1.56-1.05.77-1.95,1.25-3.26,1.47M341.63,242.94c.09.75.25,1.55.15,2.3-.13,1-.54,2.01-.93,2.94.05-1.51.54-2.79-.07-4.27-.84,1.19-2.28,2.5-1.99,4.08.09,1.04.84,1.51,1.55,2.14-.38-.88-.64-1.73-.75-2.68.36.62.65,1.31,1.08,1.88.38.44,1.03.67,1.53.93-.06-.65-.18-1.34-.11-1.99.36-1.07,1.32-1.78,1.27-3.03.02-.79-.37-1.35-.96-1.83-.26-.16-.51-.31-.77-.47M350.08,243.18c0,.75-.02,1.5-.02,2.25-.75,0-1.5.01-2.25.01-.01.81-.02,1.61-.02,2.42h2.22c.02.76.05,1.52.07,2.28h2.31c0-.76,0-1.51.01-2.27h2.29c0-.78,0-1.55.01-2.33-.76,0-1.53-.01-2.29-.02,0-.78-.01-1.56-.02-2.33-.77,0-1.54-.01-2.31-.02M342.8,249.99c.66-.59,1.59-1.18,1.96-2,.11-.66-.2-1.41-.34-2.05-.55.83-1.27,1.56-1.76,2.42-.06.53.08,1.11.15,1.63h-.01Z"/>
  <path class="st2" d="M332.52,242.87c1.08.77,2.04,1.28,3.37,1.56-.2,1.35-.39,2.63-1.12,3.81-.56.97-1.38,1.61-2.26,2.27-.72-.57-1.41-1.08-1.94-1.84-.95-1.29-1.22-2.77-1.29-4.33,1.3-.22,2.2-.7,3.26-1.47h-.02ZM341.63,242.94c.26.15.52.31.77.47.59.48.98,1.04.96,1.83.05,1.25-.9,1.96-1.27,3.03-.07.65.05,1.34.11,1.99-.51-.27-1.16-.49-1.53-.93-.43-.57-.72-1.26-1.08-1.88.11.96.37,1.81.75,2.68-.71-.64-1.46-1.1-1.55-2.14-.29-1.58,1.15-2.89,1.99-4.08.61,1.48.12,2.76.07,4.27.39-.93.8-1.94.93-2.94.1-.75-.07-1.55-.15-2.3h0ZM350.08,243.18c.77,0,1.54.01,2.31.02,0,.77.01,1.55.02,2.33.76,0,1.53.01,2.29.02,0,.78,0,1.55-.01,2.33h-2.29c0,.76,0,1.51-.01,2.27h-2.31c-.02-.76-.04-1.52-.07-2.28h-2.22c0-.8.01-1.61.02-2.42.75,0,1.5,0,2.25-.01,0-.75.02-1.5.02-2.25h0Z"/>
  <path class="st4" d="M205.86,244.11c1.02-.31,2.01.54,1.84,1.59-.17,1.08-1.43,1.56-2.29.89-.88-.73-.63-2.13.46-2.48h0Z"/>
  <path class="st1" d="M213.13,244.19c.72-.17,1.65.49,1.53,1.3.07,1-.99,1.72-1.87,1.15-1.04-.64-.79-2.08.34-2.45h0ZM220.56,244.2c.71.03,1.32.57,1.32,1.3.15,1-1.26,1.74-2.02,1.12-.58-.41-.61-1.13-.42-1.76.23-.36.69-.6,1.11-.66h.01Z"/>
  <path class="st2" d="M344.42,245.94c.15.64.46,1.4.34,2.05-.37.82-1.3,1.41-1.96,2-.07-.53-.21-1.1-.15-1.63.49-.86,1.21-1.59,1.76-2.42h.01Z"/>
  <path class="st10" d="M55.5,58.24h319.25v205H55.5V58.24M217.25,71.33c1.07,0,2.19.11,3.25-.07.97-.25,1.4-1.49.77-2.3-.49-.7-1.27-.59-2.02-.63-3.5.01-7,0-10.51-.03-.56.04-1.35-.04-1.75.43-.66.7-.49,1.92.39,2.36.56.23,1.26.21,1.87.22,2.67-.02,5.33,0,8,.01M357.61,79.4c-2.18.63-3.6,2.85-3.3,5.09.21,1.95,1.72,3.59,3.63,4.03,2.23.56,4.62-.77,5.43-2.9.8-1.98.05-4.35-1.68-5.57-1.2-.8-2.68-1.13-4.08-.65M76.68,83.46h.55c0-.8-.02-1.58-.12-2.36-.53.75-.38,1.5-.42,2.36M73.61,82.04c.27.88.57,1.64,1.41,2.12-.32-.88-.71-1.49-1.41-2.12M79.07,84.37c.6-.71,1.01-1.39,1.32-2.26-.87.67-1.19,1.17-1.32,2.26M198.45,84.51c.68-.28,1.54-.97,2.31-.84.8.21,1.08.93.81,1.68-.65,1.77-1.95,3.35-2.97,4.93,1.49.03,2.99.03,4.48,0-.02-.32-.05-.65-.07-.97-.8-.02-1.6-.04-2.4-.06.84-1.26,1.93-2.75,2.15-4.27.15-.94-.34-1.95-1.27-2.25-.83-.25-1.84-.11-2.5.48-.33.3-.37.89-.53,1.29M195.86,84.54c-.03,1.92-.03,3.83-.03,5.75h1.11c0-2.52.03-5.04.03-7.57-.9.32-1.73.68-2.29,1.5l-.04.7c.42-.11.82-.24,1.23-.37M207,82.91c-.12,1.2-.27,2.4-.42,3.6.84.07,2.18-.07,2.82.58.79.96-.2,2.55-1.39,2.45-.53-.05-1.08-.21-1.6-.35-.09.36-.18.72-.27,1.08,1.17.26,2.21.6,3.32-.07,1.31-.71,1.8-2.43,1.03-3.72-.52-.81-1.87-.88-2.73-1.08.04-.48.07-.96.11-1.44.82,0,1.64-.02,2.45-.03.04-.34.08-.68.12-1.02-1.15-.02-2.29-.02-3.44,0M212.72,82.93c-.15,1.2-.3,2.39-.45,3.59.81.08,1.86-.02,2.59.39.88.57.54,1.93-.26,2.41-.69.51-1.75.08-2.53-.06-.07.35-.14.7-.21,1.05,1.2.26,2.23.62,3.36-.1,1.32-.76,1.79-2.57.88-3.82-.57-.71-1.87-.76-2.7-.94.07-.47.13-.95.2-1.42.82,0,1.63-.03,2.45-.05.03-.35.06-.7.1-1.04-1.14,0-2.28-.02-3.42,0M220.07,82.96c-.02,2.48-.02,4.96-.03,7.43.36.02.71.05,1.07.08.02-.88.03-1.76.04-2.63.88-.03,2.04.1,2.82-.36,1.1-.68,1.28-2.21.87-3.33-.28-.69-.92-1-1.62-1.12-1.03-.15-2.12-.08-3.16-.07M225.63,90.47c.38,0,.76-.02,1.13-.04.24-1.82.49-3.63.7-5.45.65,1.25,1.3,2.49,2.01,3.71.66-1.22,1.29-2.45,1.92-3.68.25,1.82.46,3.65.68,5.48h1.11c-.29-2.54-.6-5.09-.97-7.62-.34.14-.87.18-1.06.52-.65,1.01-1.11,2.15-1.72,3.19-.68-1.22-1.26-2.5-1.98-3.7-.26.05-.52.12-.77.2-.16.53-.23,1.11-.3,1.66-.22,1.92-.54,3.82-.76,5.73M73.64,89.28c-.81.63-1.69,1.16-2.46,1.85.64-.18,1.27-.38,1.91-.58-.8.53-1.75.92-2.46,1.56-1.3,1.36-1.25,3.6.11,4.9.82.86,1.88,1.05,3.02,1.05,3.17,0,6.33,0,9.5.04.64,0,1.34,0,1.96-.16,1.49-.42,2.5-2.19,2.04-3.68-.25-.91-.94-1.45-1.59-2.08.09-1.22.23-2.31-.44-3.4-.99-1.69-2.87-2.42-4.76-2-.68-1.23-1.47-2.27-2.96-2.45-1.71-.26-3.32.74-3.89,2.36-.36.9-.11,1.68.03,2.59M73.4,85.8c-.59-.69-1.21-1.12-2.09-1.39.41.89,1.26,1.08,2.09,1.39M80.48,85.77c.96-.2,1.68-.43,2.17-1.34-.83.33-1.5.75-2.17,1.34M94.55,84.71c-.02,1.53-.03,3.06-.03,4.59h.89c0-.62.01-1.25.01-1.87h2.01v1.87c.31,0,.62.02.93.03.02-1.55.03-3.1,0-4.65-.31.02-.61.05-.92.07,0,.63-.01,1.25-.02,1.87-.67,0-1.33-.02-2-.03-.01-.64-.02-1.27-.03-1.91-.29,0-.58,0-.86.02M100.54,84.74v.8c.58,0,1.15.03,1.73.05-.52,1.24-1.05,2.49-1.58,3.72.31.02.62.05.92.08.68-1.53,1.36-3.07,1.96-4.63-1.01-.03-2.02-.04-3.03-.02M105.1,84.85c-1.57.58-1.9,2.92-.76,4.04.7.71,2.04.65,2.67-.14.62-.74.75-2,.33-2.86-.4-.79-1.33-1.44-2.24-1.04M108.52,84.4c-.15.45-.75,1.16-.28,1.61.5.58,1.11.12,1.74.05-.19-.57-.41-1.12-.65-1.67-.08.54-.14,1.07-.23,1.6-.54-.1-.39-1.17-.57-1.59M204.14,85.47c0,.36-.02.72-.03,1.08h1.02c0-.34-.01-.69-.02-1.03-.32,0-.65-.03-.97-.04M338.56,85.67c.02,4.22-.03,8.44-.02,12.66,6.2.03,12.4.06,18.61.07,0-3.27.02-6.54.02-9.81-.4-.2-.81-.4-1.21-.59,0,3.06,0,6.12-.02,9.18-5.4,0-10.8,0-16.21-.06-.05-3.21.12-6.41.08-9.62,2.66,2,5.27,4.06,7.94,6.04,2.65-1.9,5.28-3.83,7.91-5.77-.48-.65-.91-1.4-1.49-1.96-.44-.15-.95-.13-1.41-.14-4.73.04-9.46-.05-14.19,0M70.44,88c.71.04,1.42.04,2.13.05.04-.15.07-.31.1-.46-.67.08-1.84-.27-2.23.41M204.07,89.34c.01.32.02.65.03.97h1.02c0-.33.01-.66.03-.98h-1.07M106.29,92.74c-.66.37-.54,1.51.26,1.67.74.18,1.37-.57,1.05-1.26-.26-.54-.8-.59-1.31-.41M94.48,92.85v4.58h2.71c.04-.26.08-.51.11-.77-.64-.02-1.28-.04-1.92-.06,0-1.26.01-2.52.01-3.79-.31,0-.62.02-.93.03M99.48,92.84c-.1.8-.2,1.59-.3,2.39.63.09,1.26.18,1.9.28-.11.32-.21.65-.36.96-.74.2-1.43,0-2.09.52.8.3,1.55.72,2.4.28.84-.35,1.07-1.45.61-2.19-.41-.4-1.07-.56-1.59-.78.04-.18.09-.37.13-.56.77-.15,1.29.02,1.64-.86-.78-.04-1.56-.05-2.34-.06M103.44,94.46c.54-.47,1.06-.96,1.56-1.47-1.24-.26-1.92.63-2.35,1.66-.26.71-.32,1.65.12,2.31.54.71,1.66.7,2.28.09.66-.6.65-1.77-.1-2.3-.48-.17-1.02-.21-1.52-.29M147.75,236.21c1.16.05,2.32.13,3.49.13,10.75.01,21.51.03,32.26.03,3-.03,6,.11,9,.06,4.66.05,9.33-.1,13.98.14,9.42.02,18.86.03,28.28.05,1.52.07,2.78-1.35,2.99-2.77.17-1.35.05-2.75.07-4.11.04-10.41-.02-20.83.09-31.25,0-6,.03-12,.01-18-.04-2.17.19-4.33.14-6.5.02-18.42.05-36.83.06-55.25,0-1.08.07-2.17-.04-3.25-.08-.85-.78-1.63-1.45-2.11-.84-.65-2.13-.48-3.13-.52-5.91-.08-11.83-.02-17.75-.07-2.75-.18-5.5-.1-8.25-.12-9.08-.02-18.17-.04-27.25-.04-7.16-.1-14.33-.06-21.5-.07-1.83.06-3.66-.1-5.49-.13-12.67-.02-25.34-.05-38.01-.05-1.83,0-3.67.02-5.5-.02-3-.1-6-.03-9-.05-1.33-.03-2.65-.15-3.99-.14-7.96,0-16.06-.03-24.02-.03-1.66-.06-3.19,1.44-3.13,3.11-.03,3.67.09,7.34-.15,11.01-.04,18.81-.08,37.7-.1,56.51-.08,9.75-.06,19.5-.07,29.25.06,1.92-.13,3.82-.14,5.73,0,4.99-.02,10.05-.03,15.03-.03,1.16.57,2.17,1.54,2.79,1.06.68,2.63.5,3.84.52,16.17.01,32.33.07,48.5.06,8.25.13,16.5.04,24.75.09M302.75,113.28c-1.32-.05-2.64-.15-3.96-.14-6.26,0-12.52-.02-18.79-.07-7,0-14-.02-21-.03-1.34,0-2.66.03-3.99-.05-2.5-.17-4.99-.05-7.5-.11-.94,0-2.05-.09-2.94.25-1.15.48-2.03,1.55-1.95,2.84-.1,7.5-.03,15-.06,22.51.07,2.29-.18,4.57-.15,6.86,0,8.38,0,16.76-.07,25.14-.01,12.33-.03,24.67-.03,37-.03,1.25-.14,2.49-.14,3.74,0,7.4-.02,14.87-.03,22.27-.08,1.32.78,2.58,2.01,3.02,1.08.22,2.26.08,3.36.11,4.91.11,9.83.05,14.75.07,2.23-.06,4.44.19,6.67.14,7.53.02,15.05-.01,22.58.08,9.58,0,19.17.03,28.75.03,1.92-.05,3.82.15,5.74.15,9.59,0,19.18.03,28.77.03,1.16.03,2.07-.72,2.6-1.7.32-.64.28-1.48.3-2.18.04-11.33.04-22.66.05-34-.06-2.44.19-4.86.13-7.3.02-12.32.04-24.63.04-36.95.1-12.25.03-24.5.09-36.75-.02-.93.03-1.94-.2-2.85-.51-1.36-1.87-1.99-3.26-1.99-8.17-.04-16.34.03-24.51-.09-9.07,0-18.18,0-27.25-.03M333.5,252.95c7.08.18,14.17.04,21.25.14.67-.02,1.5.06,2.1-.26.65-.4.61-1.17.66-1.84.04-2.25-.02-4.5.02-6.75,0-.9.06-1.84-.09-2.73-.1-.61-.57-1.02-1.18-1.08-1.08-.12-2.18-.04-3.27-.05-7.42-.03-14.83-.05-22.25-.07-1.05,0-2.14-.1-3.17.07-.79.19-.99.87-1,1.61-.02,2.92,0,5.84-.04,8.76.04.56-.05,1.38.41,1.79.4.42,1.01.38,1.54.41,1.67.02,3.34-.03,5.01,0M205.86,244.11c-1.09.35-1.34,1.76-.46,2.48.86.67,2.12.19,2.29-.89.17-1.05-.82-1.91-1.84-1.59M213.13,244.19c-1.13.37-1.37,1.81-.34,2.45.88.57,1.93-.15,1.87-1.15.12-.81-.8-1.47-1.53-1.3M220.56,244.2c-.42.06-.88.3-1.11.66-.19.63-.16,1.34.42,1.76.76.63,2.17-.11,2.02-1.12,0-.73-.62-1.27-1.32-1.3h-.01Z"/>
  <path class="st12" d="M208.74,68.3c3.5.03,7,.05,10.51.03.75.04,1.53-.07,2.02.63.63.8.2,2.05-.77,2.3-1.06.18-2.18.06-3.25.07-2.67,0-5.33-.04-8-.01-.6-.01-1.3,0-1.87-.22-.88-.44-1.04-1.66-.39-2.36.4-.47,1.19-.4,1.75-.43h0Z"/>
  <path class="st13" d="M357.61,79.4c1.4-.48,2.88-.15,4.08.65,1.73,1.22,2.48,3.59,1.68,5.57-.81,2.13-3.2,3.46-5.43,2.9-1.91-.44-3.42-2.08-3.63-4.03-.3-2.24,1.11-4.46,3.3-5.09M357.81,81.79c.02.22.04.45.05.67.32-.16.63-.33.95-.5v4.6c.21,0,.42,0,.64,0,0-1.8.03-3.6-.02-5.4-.54.19-1.08.4-1.62.62h0Z"/>
  <path class="st6" d="M77.1,81.09c.1.78.12,1.57.12,2.35h-.55c.04-.85-.1-1.61.42-2.35h.01Z"/>
  <path class="st10" d="M359.43,81.17c.04,1.8.01,3.6.02,5.4-.21,0-.43,0-.64,0,0-1.53.01-3.07,0-4.6-.32.17-.63.33-.95.5-.02-.22-.04-.44-.05-.67.54-.22,1.08-.43,1.62-.62h0Z"/>
  <path class="st6" d="M73.61,82.04c.7.63,1.09,1.24,1.41,2.12-.84-.49-1.14-1.24-1.41-2.12h0Z"/>
  <path class="st6" d="M80.4,82.11c-.31.87-.73,1.55-1.32,2.26.14-1.09.46-1.59,1.32-2.26h0Z"/>
  <path class="st12" d="M201.48,82.74c.93.3,1.42,1.31,1.27,2.25-.22,1.53-1.31,3.01-2.15,4.27.8.02,1.6.04,2.4.06.02.32.05.65.07.97-1.49.02-2.99.02-4.48,0,1.03-1.57,2.33-3.15,2.97-4.93.27-.75-.01-1.47-.81-1.68-.76-.13-1.63.55-2.31.84.15-.4.2-.99.53-1.29.65-.59,1.67-.73,2.5-.48h.01Z"/>
  <path class="st12" d="M196.97,82.71c0,2.52-.03,5.05-.03,7.57h-1.11c0-1.92,0-3.84.03-5.75-.4.13-.81.27-1.23.37l.04-.7c.56-.82,1.39-1.18,2.29-1.5h0Z"/>
  <path class="st12" d="M207,82.91c1.15-.02,2.29,0,3.44,0-.04.34-.08.69-.12,1.02-.82,0-1.63.02-2.45.03-.04.48-.07.96-.11,1.44.86.2,2.21.27,2.73,1.08.77,1.29.28,3-1.03,3.72-1.12.67-2.15.33-3.32.07.09-.36.18-.72.27-1.08.52.14,1.06.3,1.6.35,1.19.09,2.18-1.49,1.39-2.45-.64-.65-1.98-.51-2.82-.58.15-1.2.3-2.4.42-3.6h0Z"/>
  <path class="st12" d="M212.72,82.93c1.14,0,2.28,0,3.42,0-.03.35-.07.7-.1,1.04-.82.02-1.63.03-2.45.05-.07.47-.13.95-.2,1.42.83.18,2.13.23,2.7.94.9,1.25.43,3.06-.88,3.82-1.13.71-2.16.35-3.36.1.07-.35.14-.7.21-1.05.77.14,1.84.57,2.53.06.8-.48,1.14-1.84.26-2.41-.73-.41-1.77-.31-2.59-.39.15-1.2.3-2.4.45-3.59h0Z"/>
  <path class="st12" d="M220.07,82.96c1.04,0,2.13-.08,3.16.07.7.11,1.34.43,1.62,1.12.41,1.13.23,2.65-.87,3.33-.78.46-1.94.32-2.82.36,0,.88-.02,1.76-.04,2.63-.36-.03-.71-.05-1.07-.08.01-2.48,0-4.95.03-7.43M221.16,84c0,.93-.01,1.86-.01,2.79.72-.04,1.54.04,2.22-.21.68-.45.76-1.81.1-2.31-.67-.33-1.59-.22-2.31-.27h0Z"/>
  <path class="st12" d="M226.69,83.08c.25-.08.51-.15.77-.2.72,1.2,1.3,2.48,1.98,3.7.61-1.04,1.06-2.18,1.72-3.19.19-.35.72-.38,1.06-.52.37,2.53.68,5.08.97,7.62h-1.11c-.23-1.83-.43-3.66-.68-5.48-.63,1.23-1.27,2.46-1.92,3.68-.71-1.22-1.36-2.46-2.01-3.71-.21,1.82-.46,3.64-.7,5.45-.38,0-.75.02-1.13.04.22-1.91.54-3.82.76-5.73.07-.55.14-1.12.3-1.66h-.01Z"/>
  <path class="st10" d="M221.16,84c.73.05,1.65-.06,2.31.27.65.49.57,1.85-.1,2.31-.68.25-1.5.18-2.22.21,0-.93,0-1.86.01-2.79h0Z"/>
  <path class="st6" d="M77.49,84.33c1.49.17,2.29,1.22,2.96,2.45-.83.42-1.52.91-2.44,1.11-1.61.42-3.04.18-4.37,1.39-.14-.91-.39-1.69-.03-2.59.57-1.62,2.17-2.62,3.89-2.36h-.01Z"/>
  <path class="st6" d="M71.31,84.4c.88.27,1.5.7,2.09,1.39-.83-.31-1.68-.51-2.09-1.39h0Z"/>
  <path class="st6" d="M82.65,84.43c-.49.9-1.21,1.14-2.17,1.34.67-.59,1.34-1.01,2.17-1.34h0Z"/>
  <path class="st12" d="M94.55,84.71c.29,0,.57-.02.86-.02,0,.64.02,1.27.03,1.91.67,0,1.33.02,2,.03,0-.62.01-1.24.02-1.87.31-.03.61-.05.92-.07.02,1.55.01,3.1,0,4.65-.31,0-.62-.02-.93-.03v-1.87h-2.01c0,.63,0,1.25-.01,1.87h-.89c0-1.53,0-3.06.03-4.59h-.02Z"/>
  <path class="st12" d="M100.54,84.74c1.01-.02,2.02,0,3.03.02-.61,1.56-1.29,3.1-1.96,4.63-.31-.03-.62-.05-.92-.08.54-1.24,1.06-2.48,1.58-3.72-.58-.02-1.15-.04-1.73-.05v-.8h0Z"/>
  <path class="st12" d="M105.1,84.85c.9-.39,1.83.25,2.24,1.04.42.86.29,2.12-.33,2.86-.62.79-1.96.85-2.67.14-1.14-1.12-.81-3.46.76-4.04M105.38,85.61c-1,.47-1.12,2.42-.1,2.93.82.32,1.42-.56,1.4-1.29.09-.73-.36-1.95-1.3-1.64h0Z"/>
  <path class="st12" d="M108.52,84.4c.18.42.03,1.49.57,1.59.1-.53.15-1.07.23-1.6.24.55.46,1.1.65,1.67-.63.07-1.24.53-1.74-.05-.46-.45.13-1.16.28-1.61h.01Z"/>
  <path class="st10" d="M105.38,85.61c.94-.31,1.39.9,1.3,1.64.02.74-.58,1.61-1.4,1.29-1.02-.51-.89-2.45.1-2.93h0Z"/>
  <path class="st12" d="M204.14,85.47c.32,0,.65.03.97.04,0,.35.01.69.02,1.03h-1.02c0-.36.02-.72.03-1.08h0Z"/>
  <path class="st12" d="M338.56,85.67c4.73-.05,9.46.04,14.19,0,.46,0,.97,0,1.41.14.58.56,1.01,1.31,1.49,1.96-2.62,1.94-5.25,3.87-7.91,5.77-2.67-1.98-5.28-4.04-7.94-6.04.04,3.21-.13,6.41-.08,9.62,5.4.04,10.8.04,16.21.06.02-3.06.03-6.12.02-9.18.4.2.81.39,1.21.59,0,3.27-.02,6.54-.02,9.81-6.2,0-12.4-.04-18.61-.07,0-4.22.04-8.44.02-12.66M341.06,86.89c.24.19.48.39.71.58,1.98,1.54,3.98,3.06,5.98,4.57,2.3-1.68,4.66-3.3,6.88-5.09-4.52-.07-9.05-.07-13.57-.05h0Z"/>
  <path class="st12" d="M85.22,88.78c.67,1.09.53,2.18.44,3.4.65.63,1.34,1.17,1.59,2.08.46,1.5-.55,3.26-2.04,3.68-.62.17-1.32.16-1.96.16-3.17-.04-6.33-.03-9.5-.04-1.14,0-2.21-.2-3.02-1.05-1.36-1.3-1.41-3.55-.11-4.9.71-.64,1.66-1.03,2.46-1.56-.63.2-1.27.4-1.91.58.77-.69,1.65-1.22,2.46-1.85,1.33-1.21,2.76-.97,4.37-1.39.92-.2,1.62-.69,2.44-1.11,1.89-.42,3.78.31,4.76,2M79.05,89.02c-1.3.15-2.66.25-3.91.63-1.09.45-1.24,1.38-1.42,2.42-.86.17-1.67.14-2.28.86-.9.95-.8,2.57.23,3.39.69.58,1.49.53,2.33.55,3.17,0,6.33,0,9.5.04.58-.02,1.36.03,1.86-.31.92-.61,1.09-2.01.35-2.82-.43-.4-1.08-.59-1.61-.83.27-1,.73-2.12.33-3.13-.46-1.3-1.82-2.13-3.19-1.96-.84.1-1.52.69-2.18,1.17h0Z"/>
  <path class="st10" d="M341.06,86.89c4.52-.02,9.05-.02,13.57.05-2.22,1.79-4.58,3.41-6.88,5.09-2-1.51-4-3.03-5.98-4.57-.24-.19-.48-.38-.71-.58h0Z"/>
  <path class="st6" d="M72.67,87.59c-.03.15-.07.31-.1.46-.71,0-1.42,0-2.13-.05.39-.68,1.56-.34,2.23-.41h0Z"/>
  <path class="st10" d="M81.24,87.86c1.37-.17,2.72.66,3.19,1.96.4,1.02-.06,2.14-.33,3.13.53.24,1.18.43,1.61.83.74.81.57,2.21-.35,2.82-.5.34-1.28.29-1.86.31-3.17-.04-6.33-.05-9.5-.04-.84-.03-1.64.03-2.33-.55-1.02-.82-1.12-2.44-.23-3.39.61-.72,1.42-.69,2.28-.86.18-1.04.33-1.97,1.42-2.42,1.25-.38,2.61-.48,3.91-.63.66-.48,1.34-1.06,2.18-1.17h0Z"/>
  <path class="st12" d="M205.14,89.34c-.01.33-.02.65-.03.98h-1.02c-.01-.32-.02-.65-.03-.97h1.08Z"/>
  <path class="st12" d="M106.29,92.74c.51-.18,1.06-.13,1.31.41.31.69-.32,1.43-1.05,1.26-.8-.15-.92-1.3-.26-1.67M107.12,94.18c-.19-.5.17-1.32-.65-1.14-.03.79-.07.71.65,1.14h0Z"/>
  <path class="st12" d="M94.48,92.85c.31,0,.62-.02.93-.03,0,1.26,0,2.52-.01,3.79.64.02,1.28.04,1.92.06-.03.26-.07.52-.11.77h-2.71v-4.58h-.02Z"/>
  <path class="st12" d="M99.48,92.84c.78,0,1.56.02,2.34.06-.35.87-.87.7-1.64.86-.04.18-.09.37-.13.56.52.22,1.18.39,1.59.78.46.73.23,1.83-.61,2.19-.85.44-1.6.02-2.4-.28.66-.51,1.35-.32,2.09-.52.15-.31.25-.64.36-.96-.63-.1-1.26-.19-1.9-.28.1-.8.2-1.59.3-2.39h0v-.02Z"/>
  <path class="st12" d="M105,92.99c-.5.51-1.02,1-1.56,1.47.5.08,1.04.12,1.52.29.75.53.76,1.69.1,2.3-.62.61-1.74.62-2.28-.09-.44-.65-.38-1.59-.12-2.31.43-1.03,1.1-1.92,2.35-1.66M103.85,95.33c-.22.13-.54.37-.5.67-.11.58.79.95,1.12.47.52-.52.09-1.28-.62-1.13h0Z"/>
  <path class="st10" d="M106.47,93.04c.82-.18.46.64.65,1.14-.72-.43-.68-.35-.65-1.14h0Z"/>
  <path class="st10" d="M103.85,95.33c.71-.14,1.14.62.62,1.13-.32.48-1.23.11-1.12-.47-.04-.29.28-.54.5-.67h0Z"/>
  <path class="st12" d="M72.74,112.12c7.96,0,16.06.03,24.02.03,1.33,0,2.66.11,3.99.14,3,.02,6-.05,9,.05,1.83.04,3.67,0,5.5.02,12.67,0,25.34.03,38.01.05,1.83.04,3.65.19,5.49.13,7.16,0,14.33-.03,21.5.07,9.08,0,18.17.03,27.25.04,2.75.02,5.5-.05,8.25.12,5.91.05,11.83,0,17.75.07,1,.04,2.29-.13,3.13.52.67.48,1.37,1.26,1.45,2.11.1,1.07.03,2.17.04,3.25,0,18.42-.04,36.83-.06,55.25.06,2.17-.18,4.33-.14,6.5.02,6-.02,12-.01,18-.11,10.41-.05,20.83-.09,31.25-.03,1.36.1,2.76-.07,4.11-.21,1.42-1.46,2.84-2.99,2.77-9.42-.01-18.86-.02-28.28-.05-4.65-.24-9.32-.09-13.98-.14-3,.05-6-.09-9-.06-10.75,0-21.51-.02-32.26-.03-1.17,0-2.32-.08-3.49-.13-8.25-.06-16.5.04-24.75-.09-16.17,0-32.33-.05-48.5-.06-1.21-.02-2.78.17-3.84-.52-.97-.61-1.56-1.63-1.54-2.79,0-4.98.03-10.04.03-15.03.01-1.91.2-3.82.14-5.73.01-9.75,0-19.5.07-29.25.01-18.81.05-37.69.1-56.51.25-3.67.12-7.33.15-11.01-.07-1.67,1.47-3.17,3.13-3.11M69.8,122.75c-.05,1.17-.17,2.32-.17,3.49.01,18.71-.02,37.43-.05,56.14.04,2.21-.18,4.41-.13,6.61,0,8.17-.02,16.33-.03,24.5-.09,6.25-.02,12.5-.08,18.75.01.66-.02,1.43.33,2.02.5.82,1.33,1.45,2.31,1.55.99.11,2.02.04,3.02.05,15.58,0,31.17.04,46.75.06,2.34-.04,4.66.19,7,.13,7.58.02,15.17-.02,22.75.07,11.23,0,22.46.05,33.69.06,1.52,0,3.04.14,4.56.13,6.42-.02,12.83,0,19.25.06,7.83.01,15.67.02,23.5.05,1.05-.02,2.2.12,3.22-.15,1.26-.57,1.98-1.9,1.92-3.26-.03-9.46.02-18.94,0-28.4-.02-1.46.08-2.9.14-4.36.04-8.41-.05-16.83.09-25.25,0-19.08,0-38.17.05-57.25-.04-1.15.22-2.64-.66-3.52-.64-.74-1.34-1.14-2.35-1.13-2.14,0-4.28-.2-6.42-.15-5.33,0-10.66.04-16-.07-10.84,0-21.67-.02-32.51-.03-1.25,0-2.49-.12-3.74-.14-8-.02-16,.03-24-.08-13.76,0-27.55-.04-41.31-.07-3.06-.18-6.12-.12-9.18-.12-9.33-.13-18.67-.03-28-.11-.7,0-1.5-.03-2.15.23-.91.45-1.78,1.36-1.75,2.44-.06,2.59.03,5.19-.04,7.77h0v-.02Z"/>
  <path class="st10" d="M73.75,112.31c9.33.08,18.67-.02,28,.11,3.06,0,6.12-.05,9.18.12,13.77.03,27.55.06,41.31.07,8,.11,16,.06,24,.08,1.25.02,2.49.14,3.74.14,10.84,0,21.67.04,32.51.03,5.33.11,10.66.06,16,.07,2.14-.05,4.28.15,6.42.15,1.01,0,1.71.39,2.35,1.13.88.88.62,2.37.66,3.52-.04,19.08-.05,38.17-.05,57.25-.14,8.41-.04,16.83-.09,25.25-.06,1.46-.17,2.9-.14,4.36.01,9.46-.04,18.94,0,28.4.05,1.37-.66,2.7-1.92,3.26-1.01.27-2.17.13-3.22.15-7.83-.02-15.67-.03-23.5-.05-6.42-.05-12.83-.08-19.25-.06-1.52,0-3.04-.13-4.56-.13-11.23,0-22.46-.05-33.69-.06-7.58-.09-15.17-.06-22.75-.07-2.34.06-4.66-.17-7-.13-15.58-.02-31.17-.07-46.75-.06-1,0-2.02.06-3.02-.05-.97-.1-1.81-.73-2.31-1.55-.35-.58-.32-1.36-.33-2.02.06-6.25-.01-12.5.08-18.75,0-8.17.03-16.33.03-24.5-.05-2.21.18-4.4.13-6.61.03-18.71.07-37.43.05-56.14,0-1.17.11-2.32.17-3.49.07-2.59-.02-5.18.04-7.77-.03-1.08.84-1.99,1.75-2.44.65-.26,1.46-.21,2.15-.23"/>
  <path class="st12" d="M247.5,112.89c2.51.05,5-.06,7.5.11,1.33.08,2.66.05,3.99.05,7,0,14,0,21,.03,6.26.05,12.52.08,18.79.07,1.32,0,2.64.08,3.96.14,9.07.02,18.18.02,27.25.03,8.17.12,16.34.06,24.51.09,1.39,0,2.75.63,3.26,1.99.23.91.19,1.92.2,2.85-.06,12.25.02,24.5-.09,36.75,0,12.31-.03,24.63-.04,36.95.06,2.44-.2,4.86-.13,7.3,0,11.33-.01,22.66-.05,34-.02.7.02,1.54-.3,2.18-.52.98-1.44,1.73-2.6,1.7-9.59,0-19.18-.03-28.77-.03-1.92,0-3.82-.19-5.74-.15-9.58,0-19.17-.02-28.75-.03-7.53-.09-15.05-.06-22.58-.08-2.23.04-4.44-.21-6.67-.14-4.91-.01-9.83.05-14.75-.07-1.1-.03-2.28.11-3.36-.11-1.22-.44-2.08-1.7-2.01-3.02.02-7.39.03-14.87.03-22.27,0-1.25.11-2.49.14-3.74,0-12.33.02-24.67.03-37,.07-8.38.07-16.76.07-25.14-.04-2.29.22-4.57.15-6.86.03-7.5-.04-15.01.06-22.51-.07-1.29.81-2.37,1.95-2.84.89-.34,2-.24,2.94-.25M247.77,236.45c1.74.07,3.48.15,5.22.11,10.78,0,21.55.11,32.33.09,2.14-.03,4.27.21,6.42.14,11.75.02,23.5-.01,35.25.08,8.5.02,17,.02,25.5.05,1.04-.02,2.17.12,3.18-.15.9-.38,1.71-1.31,1.71-2.32.1-2.15.18-4.3.14-6.46.02-12.08,0-24.17.08-36.25.01-12.34.04-24.67.04-37.01-.02-2,.19-3.99.14-5.99,0-9.58,0-19.17.04-28.75-.02-1.42.12-2.95-.19-4.34-.37-1.36-1.78-2.1-3.12-2.05-6.52,0-13-.02-19.52-.02-1.5,0-2.99-.15-4.49-.15-9,0-18-.02-27-.03-5.84-.1-11.68-.03-17.52-.08-1.16-.02-2.31-.13-3.48-.14-8.75,0-17.5-.02-26.25-.02-3.42-.08-6.84-.05-10.26-.07-1.51-.11-3.19,1.12-3.18,2.71-.1,1.39-.13,2.79-.13,4.18.03,14.36-.11,28.72-.08,43.08.04,2.06-.2,4.11-.15,6.17.01,12.42-.02,24.83-.02,37.25-.13,8.83-.03,17.67-.1,26.5.02.75-.04,1.55.43,2.19.4.56,1,1.12,1.71,1.2,1.08.13,2.2.03,3.3.07h0Z"/>
  <path class="st10" d="M245.99,113.1c3.42.02,6.84,0,10.26.07,8.75,0,17.5.03,26.25.02,1.16,0,2.31.12,3.48.14,5.84.05,11.68-.02,17.52.08,9,0,18,.04,27,.03,1.5,0,2.99.16,4.49.15,6.52,0,13,.03,19.52.02,1.34-.05,2.76.69,3.12,2.05.32,1.39.18,2.92.19,4.34-.03,9.58-.03,19.17-.04,28.75.05,2-.16,3.99-.14,5.99,0,12.34-.03,24.67-.04,37.01-.08,12.08-.05,24.17-.08,36.25.04,2.16-.04,4.31-.14,6.46,0,1.01-.82,1.94-1.71,2.32-1.01.27-2.14.13-3.18.15-8.5-.03-17-.04-25.5-.05-11.75-.09-23.5-.06-35.25-.08-2.15.07-4.28-.17-6.42-.14-10.78.02-21.55-.08-32.33-.09-1.74.04-3.48-.04-5.22-.11-1.09-.04-2.22.06-3.3-.07-.71-.08-1.31-.65-1.71-1.2-.47-.64-.41-1.44-.43-2.19.07-8.83-.03-17.67.1-26.5,0-12.42.03-24.83.02-37.25-.05-2.06.18-4.11.15-6.17-.02-14.36.12-28.72.08-43.08,0-1.4.03-2.79.13-4.18-.01-1.59,1.67-2.82,3.18-2.71M293.25,125.7c4.75.17,9.5.07,14.25.11,1.67-.03,3.35.11,5.02-.04,1.34-.11,2.51-1.18,2.62-2.54.11-1.33.03-2.67.07-4-.02-1.02.09-2.02-.57-2.87-.64-.87-1.55-1.24-2.62-1.23-9.08-.03-18.17-.07-27.25-.1-1.63,0-3.36-.23-4.96.04-1.19.21-2.11,1.24-2.26,2.42-.16,1.23-.06,2.5-.1,3.75.01,1.17-.1,2.41.72,3.36.66.8,1.6,1.06,2.6,1.06,4.17.02,8.34,0,12.51.04M331,125.96c1.08.03,2.16.1,3.24.1,6.17.02,12.35.02,18.52.06,1.12.03,2.13-.39,2.79-1.31.83-1.06.54-2.8.59-4.07-.06-1.34.28-3.18-.62-4.28-.73-.98-1.84-1.29-3.01-1.3-10.72,0-21.57-.05-32.27-.06-1.41-.04-2.67.99-2.98,2.35-.18.9-.11,1.87-.12,2.79.02,1.04-.07,2.1.08,3.13.21,1.35,1.38,2.49,2.77,2.52,3.67.06,7.35.05,11.01.07h0Z"/>
  <path class="st12" d="M279.78,115.07c1.61-.27,3.33-.04,4.96-.04,9.08.03,18.17.07,27.25.1,1.07,0,1.98.36,2.62,1.23.66.85.55,1.86.57,2.87-.04,1.33.04,2.67-.07,4-.11,1.36-1.29,2.42-2.62,2.54-1.66.14-3.35,0-5.02.04-4.75-.04-9.5.05-14.25-.11-4.17-.03-8.34-.02-12.51-.04-1,0-1.94-.26-2.6-1.06-.81-.95-.7-2.19-.72-3.36.04-1.24-.07-2.51.1-3.75.15-1.19,1.07-2.21,2.26-2.42M287.26,122.64c.41-.38.74-.83,1.05-1.3.43,0,.86-.02,1.29-.03.28.48.48.96,1,1.25-.28-1.52-.89-2.97-1.45-4.41-.34.21-.57.36-.7.76-.48,1.2-.91,2.45-1.18,3.72M293.91,122.45c.04-.19.07-.37.11-.56-.55.03-1.15.13-1.7.02-1.12-.5-1.14-2.35-.15-3,.61-.15,1.3-.07,1.93-.06-.09-.18-.17-.37-.26-.55-.56,0-1.21-.1-1.75.08-1.56.57-1.65,3.19-.18,3.92.56.31,1.36.17,1.99.15M294.32,118.33l-.02.48c.38,0,.77.03,1.16.05,0,1.28-.03,2.53.05,3.79.29-.31.55-.43.54-.89.07-.96.01-1.93,0-2.89.37-.02.75-.03,1.13-.05v-.48c-.95,0-1.91,0-2.86,0M297.69,122.41l.61.02c0-1.42.07-2.86-.07-4.28-.13.12-.25.25-.36.39-.2,1.26-.12,2.59-.18,3.87M300.27,122.44c.22,0,.43,0,.64-.02.52-1.47,1.16-2.77,1.33-4.34-.83,1.12-1.07,2.32-1.66,3.58-.45-1.1-.81-2.24-1.27-3.34-.17,0-.33.02-.5.04.38,1.39.98,2.72,1.45,4.08M302.9,118.37v4.06h2.55v-.38c-.66-.03-1.32-.06-1.98-.1,0-.44,0-.89-.01-1.33.59-.04,1.19-.09,1.77-.16-.55-.34-1.15-.4-1.78-.48v-1.1c.65,0,1.31,0,1.96-.02,0-.17,0-.34-.01-.51h-2.5v.02Z"/>
  <path class="st12" d="M320.24,115.1c10.7,0,21.55.04,32.27.06,1.17,0,2.28.32,3.01,1.3.9,1.1.56,2.94.62,4.28-.05,1.27.23,3.01-.59,4.07-.66.92-1.67,1.34-2.79,1.31-6.17-.04-12.35-.04-18.52-.06-1.08,0-2.16-.08-3.24-.1-3.66-.02-7.34,0-11.01-.07-1.39-.03-2.56-1.17-2.77-2.52-.14-1.03-.06-2.09-.08-3.13.01-.92-.05-1.89.12-2.79.31-1.36,1.57-2.39,2.98-2.35M322.5,125.71c2.5.13,4.99.07,7.49.08,7.42.09,14.83.02,22.25.08,1.05,0,2.01-.04,2.77-.86,1.14-1.07.81-2.86.87-4.27-.06-1.5.32-3.35-.91-4.49-1.05-1.01-2.39-.86-3.73-.87-10.3.04-20.71-.03-31-.03-1.56-.06-2.8,1.37-2.84,2.87-.05,1.49-.05,3.03,0,4.52,0,1.25.85,2.5,2.08,2.81.98.18,2.02.1,3.02.14h0v.02Z"/>
  <path class="st10" d="M320.24,115.35c10.3,0,20.7.06,31,.03,1.34,0,2.68-.13,3.73.87,1.23,1.14.84,2.99.91,4.49-.06,1.41.27,3.2-.87,4.27-.76.82-1.71.86-2.77.86-7.42-.07-14.83,0-22.25-.08-2.5,0-4.99.05-7.49-.08-1-.05-2.04.04-3.02-.14-1.23-.31-2.08-1.56-2.08-2.81-.04-1.49-.04-3.03,0-4.52.04-1.5,1.27-2.93,2.84-2.87M332.2,122.88c.42-.4.74-.84,1.05-1.32h1.23c.31.48.64.93,1.05,1.33-.3-1.54-.86-3.02-1.42-4.48-.26.15-.52.21-.65.51-.55,1.24-1.01,2.62-1.27,3.95M336.11,122.65c.79,0,1.58,0,2.37,0v-.5c-.61,0-1.21-.02-1.82-.04,0-1.29.04-2.54-.06-3.82-.16.22-.44.4-.45.68-.12,1.21-.02,2.45-.05,3.66M338.98,122.66c.91-.03,1.97.26,2.7-.4-.7-.07-1.39-.11-2.09-.13,0-1.28.04-2.54-.06-3.81-.28.31-.55.46-.55.91-.1,1.14-.02,2.29,0,3.43h0Z"/>
  <path class="st10" d="M289.14,118.16c.56,1.43,1.17,2.89,1.45,4.41-.52-.29-.71-.77-1-1.25-.43,0-.86,0-1.29.03-.31.47-.63.91-1.05,1.3.26-1.27.69-2.52,1.18-3.72.14-.4.37-.55.7-.76M288.67,119.92c-.11.29-.22.58-.33.87.39,0,.78,0,1.17,0-.18-.55-.36-1.11-.54-1.66-.1.26-.2.52-.3.78h0Z"/>
  <path class="st10" d="M292.1,118.37c.55-.17,1.19-.08,1.75-.08.09.18.17.37.26.55-.63,0-1.32-.09-1.93.06-.98.65-.97,2.5.15,3,.54.11,1.14,0,1.7-.02-.04.19-.08.37-.11.56-.62.02-1.43.16-1.99-.15-1.47-.73-1.38-3.35.18-3.92h-.01Z"/>
  <path class="st10" d="M294.32,118.33c.95,0,1.9,0,2.86,0v.48c-.38.02-.76.03-1.13.05,0,.96.07,1.93,0,2.89.01.46-.25.58-.54.89-.08-1.27-.05-2.51-.05-3.79-.38-.02-.77-.04-1.16-.05l.02-.48h0Z"/>
  <path class="st10" d="M298.23,118.15c.14,1.41.06,2.86.07,4.28l-.61-.02c.06-1.28-.02-2.6.18-3.87.11-.14.23-.27.36-.39h0Z"/>
  <path class="st10" d="M298.82,118.37c.16-.02.33-.04.5-.04.46,1.1.82,2.24,1.27,3.34.59-1.26.83-2.46,1.66-3.58-.17,1.57-.81,2.87-1.33,4.34-.21,0-.43.02-.64.02-.47-1.36-1.07-2.69-1.45-4.08h-.01Z"/>
  <path class="st10" d="M305.4,118.37c0,.17.01.34.01.51-.65,0-1.31,0-1.96.02v1.1c.63.08,1.23.14,1.78.48-.59.07-1.18.12-1.77.16,0,.44,0,.89.01,1.33.66.04,1.31.07,1.98.1v.38h-2.55v-4.06h2.5v-.02Z"/>
  <path class="st12" d="M334.12,118.42c.57,1.45,1.12,2.94,1.42,4.48-.41-.4-.74-.85-1.05-1.33h-1.23c-.31.48-.64.92-1.05,1.32.26-1.33.71-2.71,1.27-3.95.13-.31.39-.36.65-.51M333.89,119.43c-.19.51-.38,1.01-.58,1.52.39,0,.77,0,1.16-.02-.2-.5-.39-1-.58-1.5h0Z"/>
  <path class="st12" d="M336.6,118.3c.1,1.28.05,2.53.06,3.82.61,0,1.21.02,1.82.04v.5c-.79,0-1.58,0-2.37,0,.03-1.22-.07-2.45.05-3.66.01-.29.29-.46.45-.68h-.01Z"/>
  <path class="st12" d="M339.53,118.31c.09,1.28.06,2.53.06,3.81.7.02,1.39.06,2.09.13-.73.65-1.79.37-2.7.4-.01-1.14-.1-2.3,0-3.43,0-.45.27-.61.55-.91h0Z"/>
  <path class="st12" d="M288.97,119.14c.18.55.36,1.11.54,1.66-.39,0-.78,0-1.17,0,.11-.29.22-.58.33-.87.1-.26.2-.52.3-.78h0Z"/>
  <path class="st10" d="M333.89,119.43c.2.5.39,1,.58,1.5-.39,0-.77,0-1.16.02.19-.51.38-1.01.58-1.52h0Z"/>
  <path class="st12" d="M327.58,240.37c1.03-.17,2.12-.06,3.17-.07,7.41.03,14.83.05,22.25.07,1.09.02,2.19-.07,3.27.05.61.06,1.08.47,1.18,1.08.15.89.09,1.83.09,2.73-.04,2.25.01,4.5-.02,6.75-.05.67-.02,1.44-.66,1.84-.6.32-1.44.24-2.1.26-7.08-.1-14.17.04-21.25-.14-1.67-.04-3.34.01-5.01,0-.53-.03-1.14.01-1.54-.41-.46-.41-.37-1.23-.41-1.79.04-2.92.02-5.84.04-8.76,0-.73.21-1.41,1-1.61M329.27,244.34c.07,1.56.35,3.05,1.29,4.33.53.76,1.22,1.27,1.94,1.84.88-.65,1.7-1.3,2.26-2.27.74-1.18.93-2.46,1.12-3.81-1.32-.28-2.28-.79-3.37-1.56-1.05.77-1.95,1.25-3.26,1.47M341.63,242.94c.09.75.25,1.55.15,2.3-.13,1-.54,2.01-.93,2.94.05-1.51.54-2.79-.07-4.27-.84,1.19-2.28,2.5-1.99,4.08.09,1.04.84,1.51,1.55,2.14-.38-.88-.64-1.73-.75-2.68.36.62.65,1.31,1.08,1.88.38.44,1.03.67,1.53.93-.06-.65-.18-1.34-.11-1.99.36-1.07,1.32-1.78,1.27-3.03.02-.79-.37-1.35-.96-1.83-.26-.16-.51-.31-.77-.47M350.08,243.18c0,.75-.02,1.5-.02,2.25-.75,0-1.5.01-2.25.01-.01.81-.02,1.61-.02,2.42h2.22c.02.76.05,1.52.07,2.28h2.31c0-.76,0-1.51.01-2.27h2.29c0-.78,0-1.55.01-2.33-.76,0-1.53-.01-2.29-.02,0-.78-.01-1.56-.02-2.33-.77,0-1.54-.01-2.31-.02M342.8,249.99c.66-.59,1.59-1.18,1.96-2,.11-.66-.2-1.41-.34-2.05-.55.83-1.27,1.56-1.76,2.42-.06.53.08,1.11.15,1.63h-.01Z"/>
  <path class="st10" d="M332.52,242.87c1.08.77,2.04,1.28,3.37,1.56-.2,1.35-.39,2.63-1.12,3.81-.56.97-1.38,1.61-2.26,2.27-.72-.57-1.41-1.08-1.94-1.84-.95-1.29-1.22-2.77-1.29-4.33,1.3-.22,2.2-.7,3.26-1.47h-.02Z"/>
  <path class="st10" d="M341.63,242.94c.26.15.52.31.77.47.59.48.98,1.04.96,1.83.05,1.25-.9,1.96-1.27,3.03-.07.65.05,1.34.11,1.99-.51-.27-1.16-.49-1.53-.93-.43-.57-.72-1.26-1.08-1.88.11.96.37,1.81.75,2.68-.71-.64-1.46-1.1-1.55-2.14-.29-1.58,1.15-2.89,1.99-4.08.61,1.48.12,2.76.07,4.27.39-.93.8-1.94.93-2.94.1-.75-.07-1.55-.15-2.3h0Z"/>
  <path class="st10" d="M350.08,243.18c.77,0,1.54.01,2.31.02,0,.77.01,1.55.02,2.33.76,0,1.53.01,2.29.02,0,.78,0,1.55-.01,2.33h-2.29c0,.76,0,1.51-.01,2.27h-2.31c-.02-.76-.04-1.52-.07-2.28h-2.22c0-.8.01-1.61.02-2.42.75,0,1.5,0,2.25-.01,0-.75.02-1.5.02-2.25h0Z"/>
  <path class="st12" d="M205.86,244.11c1.02-.31,2.01.54,1.84,1.59-.17,1.08-1.43,1.56-2.29.89-.88-.73-.63-2.13.46-2.48h0Z"/>
  <path class="st7" d="M213.13,244.19c.72-.17,1.65.49,1.53,1.3.07,1-.99,1.72-1.87,1.15-1.04-.64-.79-2.08.34-2.45h0Z"/>
  <path class="st7" d="M220.56,244.2c.71.03,1.32.57,1.32,1.3.15,1-1.26,1.74-2.02,1.12-.58-.41-.61-1.13-.42-1.76.23-.36.69-.6,1.11-.66h.01Z"/>
  <path class="st10" d="M344.42,245.94c.15.64.46,1.4.34,2.05-.37.82-1.3,1.41-1.96,2-.07-.53-.21-1.1-.15-1.63.49-.86,1.21-1.59,1.76-2.42h.01Z"/>
  <circle class="st9" cx="213.94" cy="35.44" r="6.73"/>
  <circle class="st9" cx="188.56" cy="35.44" r="1.36"/>
  <circle class="st9" cx="239.48" cy="35.44" r="1.36"/>
  <path class="st8" d="M15.74,297.69l402.89-1.22s8.36,43.66-29.67,43.66H41.44s-29.53-3.66-25.69-42.44h-.01Z"/>
  <rect class="st5" x="15.03" y="14.5" width="406.53" height="325.85" rx="24.92" ry="24.92"/>
</svg>