<?xml version="1.0" encoding="UTF-8"?>
<svg id="Layer_1" xmlns="http://www.w3.org/2000/svg" version="1.1" viewBox="0 0 2048 1650">
  <!-- Generator: Adobe Illustrator 30.5.1, SVG Export Plug-In . SVG Version: 2.1.4 Build 3)  -->
  <defs>
    <style>
      .st0 {
        fill: #eaeaea;
      }

      .st1 {
        fill: #231f20;
      }

      .st2 {
        fill: #373d4a;
      }

      .st3 {
        fill: #111827;
      }
    </style>
  </defs>
  <path class="st3" d="M1467.06,847.62c-.19-.03-.37.04-.54.1-.22.1-.45.2-.67.31-.22.13-.46.23-.69.35-.97.48-1.92.99-2.86,1.52-.23.13-.45.27-.68.39-.23.13-.45.28-.69.41-.21.12-.42.24-.63.37-.18.1-.34.2-.51.32-.47.29-.8.84-.78,1.4v28.06c0,.28-.03.58.08.85.1.21.25.4.45.53.49.31.99.59,1.49.88.18.1.39.21.6.22.24,0,.47-.11.68-.2.49-.24.98-.47,1.47-.72.32-.17.63-.34.95-.5.47-.26.94-.52,1.41-.79.77-.46,1.53-.93,2.28-1.43.21-.15.42-.28.58-.49.21-.26.36-.59.36-.93v-28.78c0-.23-.04-.45-.18-.64-.13-.19-.32-.31-.53-.41l-.04.02c.08.08.18.13.27.19.16.12.29.27.36.47.06.2.04.43.05.64v4.68c.02.55,0,1.09,0,1.64v21.69c0,.29.02.62-.07.89-.09.26-.25.49-.46.67-.2.19-.46.33-.69.5-.3.21-.62.39-.92.59-.31.18-.61.38-.93.56-.19.1-.38.22-.56.32-.32.17-.63.36-.96.53-.25.15-.52.26-.78.41-.52.27-1.06.53-1.59.78-.21.09-.4.22-.63.21-.09,0-.21,0-.29-.05-.12-.08-.21-.2-.28-.31-.08-.16-.1-.36-.11-.54v-28.73c-.53-.3-1.1-.61-1.62-.93-.1-.07-.2-.13-.29-.21.06-.31.22-.58.43-.82.14-.15.33-.24.5-.36.13-.09.26-.15.39-.24.06-.04.13-.09.21-.1.06.02.12.06.17.09.24.15.5.27.74.42.22.13.44.26.66.37.09.05.18.12.26.18h.02c.06.16.15.27.18.42.05.17.06.33.09.5,0,.07.03.14-.05.19-.18.13-.35.21-.43.43-.04.16-.03.33-.03.5v24.95c0,.81.02,1.62,0,2.43,0,.12,0,.25.01.37.01.13.18.21.3.15.52-.23,1.03-.48,1.54-.73.66-.33,1.31-.68,1.95-1.05.37-.2.73-.44,1.1-.65.18-.1.35-.22.53-.33.28-.19.57-.36.84-.56.13-.09.22-.21.21-.38v-27.86c0-.1.02-.21-.07-.29-.05-.06-.13-.05-.2-.04-.11.03-.22.1-.33.16-.02-.22,0-.47-.08-.68-.06-.15-.13-.31-.23-.44-.02-.02-.04-.03-.06-.05-.21-.13-.41-.26-.63-.37-.39-.23-.79-.46-1.19-.67.12-.08.26-.12.39-.18.17-.09.38-.17.57-.19.21-.01.37.09.55.19.29.15.57.32.86.47.09.04.17.11.27.13l.04-.03c-.33-.2-.66-.38-1-.57-.19-.1-.38-.22-.59-.26h0l.03.06Z"/>
  <path class="st2" d="M1466.94,847.68c-.2.02-.4.1-.57.19-.13.06-.27.11-.39.18.4.21.8.44,1.19.67.22.11.42.25.63.37.05-.06.12-.07.18-.09.26-.1.46-.27.73-.3h.09c-.25.08-.49.22-.73.34-.08.03-.15.07-.22.12.1.13.17.29.23.44.07.21.06.46.08.68.11-.05.21-.13.33-.16.07-.02.14-.02.2.04.09.08.06.18.07.29v27.86c0,.17-.09.28-.21.38-.27.2-.56.37-.84.56-.18.11-.35.23-.53.33-.37.22-.73.45-1.1.65-.64.36-1.29.72-1.95,1.05-.51.25-1.02.51-1.54.73-.11.06-.28-.02-.3-.15-.02-.12-.01-.25-.01-.37.02-.81,0-1.62,0-2.43v-24.95c0-.16-.01-.34.03-.5.09-.22.26-.3.43-.43.08-.05.05-.11.05-.19-.03-.17-.04-.34-.09-.5-.04-.15-.12-.27-.18-.41-.15.05-.28.14-.41.23-.19.11-.37.24-.53.4-.26.27-.43.61-.48.99,0-.03-.02-.05-.02-.08.05-.08.05-.18.08-.26.07-.21.17-.42.31-.59.15-.18.33-.33.53-.44.09-.04.15-.1.25-.13s.14-.12.27-.11c-.08-.07-.17-.13-.26-.18-.23-.11-.45-.24-.66-.37-.24-.15-.5-.27-.74-.42-.05-.03-.11-.07-.17-.09-.07.01-.14.06-.21.1-.13.08-.26.15-.39.24-.17.11-.37.21-.5.36-.21.23-.37.51-.43.82.09.08.19.14.29.21.52.32,1.09.63,1.62.93.01.1,0,.2,0,.3v28.43c0,.18.02.38.11.54.07.12.16.24.28.31.07.06.2.04.29.05.23,0,.42-.12.63-.21.53-.26,1.07-.51,1.59-.78.25-.15.52-.26.78-.41.33-.16.63-.36.96-.53.19-.11.37-.22.56-.32.31-.18.61-.38.93-.56.3-.21.62-.38.92-.59.23-.16.49-.31.69-.5.21-.18.36-.41.46-.67.09-.28.06-.6.07-.89v-21.69c-.02-.55,0-1.09,0-1.64v-4.68c0-.21.01-.44-.05-.64-.06-.19-.2-.34-.36-.47-.09-.07-.19-.11-.27-.19-.1-.02-.18-.09-.27-.13-.29-.15-.57-.33-.86-.47-.18-.09-.33-.2-.55-.19h0l-.04-.08Z"/>
  <path class="st0" d="M1465.85,848.09c-.23.13-.47.23-.71.36-.12.07-.25.12-.38.19-.29.16-.59.29-.88.45-.49.26-.98.52-1.46.8-.45.25-.89.53-1.34.79-.12.06-.24.13-.36.2v.05c.13.08.28.15.41.22.18.11.36.21.55.31.28.17.57.31.83.5.06.04.1.1.14.16.2.34.22.8.21,1.18.15-.03.27-.15.41-.21,1.26-.72,2.54-1.43,3.83-2.09.32-.18.66-.32.96-.51,0-.22,0-.44-.03-.66s-.12-.44-.25-.62c-.06-.07-.14-.12-.22-.17-.51-.28-1-.59-1.51-.86-.07-.03-.12-.08-.2-.09h0Z"/>
  <path class="st1" d="M1468.79,848.69h-.09c-.27.03-.47.2-.73.3-.07.03-.13.04-.18.09.02.02.04.03.06.05.07-.05.14-.08.22-.12.24-.12.47-.26.73-.34h0v.02Z"/>
  <path class="st1" d="M1462.5,852.05h-.02c-.12-.02-.16.07-.27.1-.09.03-.16.09-.25.13-.2.11-.38.27-.53.44-.14.18-.23.39-.31.59-.03.08-.03.18-.08.26,0,.03.02.05.02.08.05-.37.22-.72.48-.99.16-.15.34-.28.53-.4.13-.09.26-.18.41-.23h0l.02.02Z"/>
</svg>