<?xml version="1.0" encoding="UTF-8"?>
<svg id="Layer_1" xmlns="http://www.w3.org/2000/svg" version="1.1" viewBox="0 0 293.71 504.14">
  <!-- Generator: Adobe Illustrator 30.5.1, SVG Export Plug-In . SVG Version: 2.1.4 Build 3)  -->
  <defs>
    <style>
      .st0 {
        fill: #231f20;
      }

      .st1 {
        fill: #ef4b4b;
      }

      .st2 {
        fill: #373d4a;
      }

      .st3 {
        fill: #111827;
      }
    </style>
  </defs>
  <path class="st3" d="M119.63,63.08c2.02-.33,3.92.41,5.77,1.12,2.41,1.04,4.8,2.13,7.16,3.28,2.33,1.43,4.9,2.49,7.33,3.75,10.39,5.08,20.55,10.64,30.63,16.29,2.44,1.35,4.78,2.87,7.22,4.2,2.47,1.44,4.86,3.01,7.36,4.38,2.27,1.31,4.54,2.62,6.77,4,1.89,1.04,3.69,2.18,5.47,3.39,5.03,3.07,8.54,9.02,8.31,14.96.06,6.97-.02,13.95,0,20.92,0,10.78,0,21.56-.02,32.34-.04,31.49.04,62.98,0,94.47v74.18c.05,15.85-.08,31.7.05,47.55-.03,10.25.03,20.5.02,30.75-.03,3.02.29,6.19-.88,9.05-1.02,2.28-2.69,4.32-4.81,5.68-5.2,3.32-10.64,6.27-15.94,9.43-1.97,1.07-4.12,2.29-6.41,2.31-2.52.09-4.98-1.15-7.22-2.19-5.23-2.57-10.53-5.02-15.71-7.69-3.4-1.78-6.78-3.6-10.2-5.33-5.03-2.76-10.05-5.59-15.05-8.42-8.23-4.89-16.4-9.94-24.36-15.26-2.26-1.57-4.44-3.05-6.22-5.2-2.28-2.74-3.89-6.36-3.88-9.95-.04-4.02,0-8.04-.03-12.06.05-36.35.07-72.7.05-109.06,0-36.03.02-72.07.02-108.1-.02-26.22.06-52.42-.02-78.62-.06-2.45.42-4.83,1.9-6.83,1.44-2.06,3.45-3.28,5.62-4.44l.47.23c-.84.87-1.89,1.35-2.84,2.08-1.7,1.32-3.14,2.91-3.8,5-.66,2.11-.47,4.62-.52,6.82,0,16.68.03,33.4.02,50.09-.2,5.84.09,11.66-.09,17.5-.05,1.78,0,3.55-.02,5.33,0,75.55,0,151.12-.09,226.67.07,3.09-.22,6.61.75,9.56,1.01,2.76,2.68,5.22,4.88,7.17,2.15,2.04,4.94,3.57,7.36,5.33,3.18,2.29,6.61,4.13,9.84,6.32,3.33,1.94,6.57,4.03,9.9,5.96,2.04,1.1,4.01,2.31,6.01,3.47,3.44,1.82,6.75,3.88,10.23,5.63,2.69,1.61,5.59,2.79,8.3,4.37,5.57,2.92,11.34,5.63,17.01,8.38,2.23.95,4.23,2.32,6.73,2.25.96-.03,2.27.1,3.07-.51,1.24-.84,2.22-2.1,2.99-3.37.91-1.69,1.11-3.85,1.17-5.74.04-28.96.04-57.91,0-86.86,0-37.41,0-74.82.02-112.23-.06-18.18.03-36.35-.02-54.53.06-10.04-.04-20.08,0-30.12,0-6.76.06-13.53-.03-20.29,0-1.05-.08-2.13.07-3.16,5.65-3.2,11.76-6.51,17.34-9.96,1.08-.71,2.17-1.38,3.13-2.25-.62-3.33-2.35-6.24-4.57-8.74-1.45-1.62-3.55-2.61-5.37-3.83-1.34-.92-2.79-1.64-4.13-2.54-.68-.42-1.43-.97-2.23-1.12-.64.24-1.23.63-1.82.98-2.55,1.62-5.32,2.88-7.9,4.46-2.31,1.41-4.66,2.81-7.1,4-1,.52-1.91,1.25-2.79,1.95l-.17.14c-.63,1.52-1.56,2.79-1.95,4.38-.53,1.77-.68,3.52-.97,5.38-.03.8-.32,1.52.49,2.02,1.88,1.37,3.7,2.24,4.62,4.56.42,1.7.3,3.58.29,5.32-.05,9.62-.03,19.23,0,28.85.04,13.21-.02,26.42-.02,39.63.1,18.17,0,36.35.04,54.53-.02,10.46.02,20.92,0,31.39.1,11.41-.04,22.83,0,34.24v44.7c0,11.2-.08,22.4,0,33.6,0,8.68-.18,17.33.02,26,0,1.31.07,2.67-.12,3.96-.13,1.4-1.95,2.3-3.17,1.62-5.59-2.42-11.05-5.15-16.53-7.82-7.06-3.5-13.97-7.32-20.83-11.18-4.01-2.19-7.83-4.66-11.77-6.97-1.91-1.12-3.73-2.39-5.63-3.53-2.97-1.99-6.06-3.83-8.95-5.94-1.35-1.01-2.4-2.25-2.3-4.04.02-52.73-.02-105.48.02-158.2.01-38.04.03-76.09.02-114.13,0-8.56.05-17.12-.04-25.68.05-1.11-.19-2.26.74-3.08.58-.59,1.34-.56,2.09-.39,1.22.3,2.38,1.12,3.51,1.7.19-2.34.05-5.03.81-7.26.62-1.66,1.38-3.29,2.46-4.71.2-.18.42-.35.63-.52,2.23-1.35,4.4-2.77,6.7-3.99,4.18-2.46,8.4-4.89,12.7-7.14-1.31-.81-2.81-1.27-4.18-1.96-1.86-.94-4.02-1.86-6.11-2.04-2.27-.11-3.92,1.01-5.84,2.01-3.12,1.59-6.09,3.42-9.18,5.07-.94.47-1.84,1.2-2.87,1.44l-.44-.32c3.53-2.1,7.11-4.09,10.71-6.08,1.99-1.06,4.05-2.39,6.32-2.76h0Z"/>
  <path class="st2" d="M120.91,63.7c2.09.18,4.25,1.11,6.11,2.04,1.38.69,2.88,1.16,4.18,1.96-4.3,2.25-8.52,4.67-12.7,7.14-2.3,1.22-4.48,2.64-6.7,3.99-.54-.6-1.24-.72-1.95-1.01-2.74-1.08-4.91-2.9-7.81-3.22-.32-.04-.64-.07-.96-.1,2.69.84,5.22,2.34,7.76,3.59.81.36,1.59.75,2.33,1.26-1.08,1.42-1.83,3.05-2.46,4.71-.76,2.23-.62,4.92-.81,7.26-1.13-.58-2.29-1.39-3.51-1.7-.75-.17-1.51-.2-2.09.39-.94.81-.69,1.96-.74,3.08.09,8.56.04,17.12.04,25.68,0,38.03,0,76.09-.02,114.13-.04,52.72,0,105.47-.02,158.2-.1,1.79.95,3.03,2.3,4.04,2.88,2.11,5.98,3.96,8.95,5.94,1.9,1.14,3.72,2.42,5.63,3.53,3.94,2.31,7.77,4.78,11.77,6.97,6.86,3.87,13.77,7.68,20.83,11.18,5.47,2.67,10.94,5.41,16.53,7.82,1.21.68,3.04-.22,3.17-1.62.19-1.3.13-2.65.12-3.96-.19-8.67,0-17.32-.02-26-.07-11.2,0-22.4,0-33.6v-44.7c-.05-11.41.09-22.83,0-34.24.03-10.46-.02-20.92,0-31.39-.03-18.17.06-36.35-.04-54.53,0-13.21.06-26.42.02-39.63-.02-9.62-.04-19.23,0-28.85.01-1.74.13-3.62-.29-5.32-.92-2.32-2.74-3.19-4.62-4.56-.81-.5-.53-1.22-.49-2.02.29-1.86.44-3.61.97-5.38.4-1.59,1.33-2.86,1.95-4.38,1.65.5,2.97,1.47,4.39,2.42,2.01,1.21,3.98,2.6,5.68,4.23,2.73,2.93,4.64,6.57,5.12,10.58.08-.28.17-.55.25-.83-.49-.82-.52-1.87-.85-2.77-.78-2.24-1.84-4.47-3.28-6.36-1.6-1.91-3.48-3.55-5.67-4.75-.92-.48-1.65-1.11-2.63-1.44-1.11-.34-1.55-1.31-2.84-1.21.88-.7,1.79-1.42,2.79-1.95,2.44-1.19,4.78-2.59,7.1-4,2.58-1.58,5.35-2.84,7.9-4.46.58-.35,1.18-.74,1.82-.98.79.15,1.55.69,2.23,1.12,1.34.91,2.79,1.63,4.13,2.54,1.82,1.22,3.92,2.21,5.37,3.83,2.22,2.5,3.95,5.41,4.57,8.74-.96.87-2.05,1.54-3.13,2.25-5.59,3.46-11.69,6.77-17.34,9.96-.15,1.03-.07,2.12-.07,3.16.09,6.76.03,13.53.03,20.29-.03,10.04.07,20.08,0,30.12.06,18.18-.03,36.35.02,54.53-.02,37.41-.03,74.82-.02,112.23.03,28.96.03,57.91,0,86.86-.05,1.89-.26,4.05-1.17,5.74-.77,1.27-1.75,2.53-2.99,3.37-.8.6-2.11.48-3.07.51-2.5.07-4.49-1.3-6.73-2.25-5.67-2.75-11.43-5.46-17.01-8.38-2.71-1.58-5.6-2.76-8.3-4.37-3.48-1.76-6.79-3.81-10.23-5.63-2-1.16-3.98-2.37-6.01-3.47-3.33-1.94-6.57-4.02-9.9-5.96-3.23-2.19-6.66-4.04-9.84-6.32-2.43-1.76-5.21-3.29-7.36-5.33-2.2-1.95-3.86-4.42-4.88-7.17-.97-2.95-.68-6.47-.75-9.56.1-75.55.09-151.12.09-226.67,0-1.78-.03-3.55.02-5.33.18-5.84-.1-11.66.09-17.5,0-16.68,0-33.4-.02-50.09.05-2.2-.13-4.71.52-6.82.66-2.09,2.11-3.68,3.8-5,.94-.73,2-1.21,2.84-2.08,1.02-.24,1.93-.97,2.87-1.44,3.08-1.65,6.06-3.49,9.18-5.07,1.91-1,3.57-2.12,5.84-2.01h0v.02Z"/>
  <path class="st1" d="M132.6,68.11c2.43,1.44,5.07,2.49,7.57,3.8,1.31.73,2.72,1.26,4.03,2,3.11,1.67,6.31,3.13,9.38,4.86,5.23,2.79,10.46,5.6,15.6,8.54,4.84,2.71,9.56,5.64,14.36,8.42,1.32.65,2.59,1.41,3.88,2.12l-.06.49c-1.35.9-2.88,1.58-4.29,2.37-1.92,1.17-3.9,2.24-5.86,3.34-2.98,1.81-6.06,3.32-8.87,5.39-.6.48-1.12,1.02-1.46,1.72-2.12,3.66-2.38,8.53-2.28,12.67-1.56-.36-2.9-1.56-4.33-2.27-13.5-7.72-27.15-15.34-40.99-22.41-3.39-1.9-7.02-3.43-10.31-5.47.02-2.38-.09-4.66.3-7.03.3-2.39,1.3-4.69,2.7-6.63.59-.76,1.54-1.25,2.33-1.78,5.45-2.97,10.73-6.3,16.19-9.19.73-.37,1.31-.84,2.11-.95h0Z"/>
  <path class="st0" d="M101.09,74.5c.32.03.64.06.96.1,2.9.33,5.07,2.14,7.81,3.22.71.29,1.41.42,1.95,1.01-.22.16-.43.34-.63.52-.74-.5-1.52-.89-2.33-1.26-2.53-1.25-5.07-2.75-7.76-3.59h0Z"/>
  <path class="st2" d="M104.21,91.57c.56.04.95.35,1.41.63.9.6,1.84,1.05,2.56,1.89,1.18,1.3,2.84,1.91,4.4,2.64,4.6,2.33,9.16,4.75,13.72,7.15,5.02,2.39,9.69,5.35,14.66,7.84,2.62,1.51,5.3,2.91,7.9,4.45,2.01,1.18,4.1,2.2,6.09,3.41,2.82,1.47,5.48,3.23,8.27,4.74,1.67.62,3.26.71,4.63,2.01,1.53,1.15,1.19,2.79,1.24,4.48-.01,97.96,0,195.92,0,293.88-.02,1.32-.09,2.6-.63,3.82-.66,0-1.28-.02-1.89-.31-3.38-1.41-6.62-3.15-9.96-4.67-5.87-2.98-11.81-5.84-17.55-9.07-11.41-6.11-22.46-12.84-33.21-20.04-.93-.68-2.53-1.7-2.4-3.01-.13-4.12.04-8.25-.01-12.37-.09-2.32-.02-4.65-.06-6.97.08-7.5-.03-15,.09-22.51V97.21c.02-1.58-.08-3.17.03-4.74-.02-.38.45-.68.71-.89h0Z"/>
  <path class="st0" d="M168.37,110.42l.17-.14c1.29-.1,1.73.87,2.84,1.21.98.33,1.71.96,2.63,1.44,2.19,1.2,4.07,2.84,5.67,4.75,1.45,1.89,2.5,4.12,3.28,6.36.33.89.37,1.95.85,2.77-.08.28-.17.55-.25.83-.49-4-2.39-7.65-5.12-10.58-1.7-1.62-3.67-3.01-5.68-4.23-1.42-.94-2.74-1.92-4.39-2.42h0Z"/>
</svg>